<svg width="43" height="45" viewBox="0 0 43 45" fill="none" xmlns="http://www.w3.org/2000/svg">
<g clip-path="url(#clip0_17_24)">
<path d="M2.89009 42.94C2.62693 42.8299 2.39876 42.6501 2.23009 42.42C2.07953 42.1952 1.99945 41.9306 2.00009 41.66C1.9902 41.5503 1.9902 41.4398 2.00009 41.33C2.01808 41.2344 2.04486 41.1407 2.08009 41.05H3.08009C3.0294 41.1945 3.00567 41.347 3.01009 41.5C3.00361 41.6074 3.01887 41.7151 3.05496 41.8164C3.09104 41.9178 3.1472 42.0109 3.22009 42.09C3.2954 42.1632 3.38471 42.2204 3.48265 42.2582C3.5806 42.296 3.68516 42.3136 3.79009 42.31C3.92536 42.3111 4.05898 42.2803 4.18009 42.22C4.31552 42.182 4.43706 42.1056 4.53009 42C4.60395 41.8762 4.64203 41.7342 4.64009 41.59C4.64119 41.4526 4.61396 41.3165 4.56009 41.19C4.5036 41.0721 4.41386 40.9733 4.30191 40.9058C4.18997 40.8383 4.06072 40.805 3.93009 40.81H3.67009V40H3.91009C3.99535 40.0065 4.08097 39.9936 4.1606 39.9625C4.24023 39.9313 4.31183 39.8826 4.37009 39.82C4.47949 39.6963 4.53682 39.5351 4.53009 39.37C4.53094 39.2583 4.50341 39.1482 4.45009 39.05C4.39488 38.9546 4.31557 38.8752 4.22009 38.82C4.11428 38.7576 3.99292 38.7263 3.87009 38.73C3.74744 38.7279 3.6265 38.759 3.52009 38.82C3.422 38.8763 3.34217 38.9596 3.29009 39.06C3.23785 39.1622 3.21045 39.2753 3.21009 39.39C3.19722 39.4762 3.19722 39.5638 3.21009 39.65H2.20009C2.16528 39.5298 2.14844 39.4052 2.15009 39.28C2.15251 39.0332 2.22917 38.7927 2.37009 38.59C2.53563 38.3764 2.75229 38.2079 3.00009 38.1C3.27821 37.9692 3.58276 37.9041 3.89009 37.91C4.18655 37.9055 4.48031 37.967 4.75009 38.09C4.99814 38.1928 5.21278 38.3625 5.37009 38.58C5.51723 38.7834 5.59443 39.029 5.59009 39.28C5.59951 39.5336 5.53338 39.7842 5.40009 40C5.283 40.1778 5.11601 40.3169 4.92009 40.4V40.4C5.07145 40.4503 5.2086 40.536 5.32009 40.65C5.44665 40.7729 5.54849 40.9189 5.62009 41.08C5.69484 41.2677 5.73221 41.4681 5.73009 41.67C5.73302 41.944 5.6451 42.2113 5.48009 42.43C5.3038 42.6609 5.06904 42.8404 4.80009 42.95C4.50107 43.0819 4.17682 43.1468 3.85009 43.14C3.51928 43.1448 3.19149 43.0765 2.89009 42.94V42.94Z" fill="#9F33FF"/>
<path d="M10.48 41.9999C10.5767 41.597 10.6271 41.1843 10.63 40.7699V39.7699C10.6538 39.5042 10.6018 39.2372 10.48 38.9999C10.4362 38.912 10.3671 38.8392 10.2815 38.7911C10.1959 38.743 10.0978 38.7216 9.99998 38.7299C9.92651 38.7297 9.85416 38.7479 9.78953 38.7828C9.7249 38.8178 9.67005 38.8683 9.62998 38.9299C9.52233 39.0995 9.47316 39.2997 9.48997 39.4999V41.5899H8.48997V39.4999C8.50679 39.2997 8.45762 39.0995 8.34998 38.9299C8.309 38.8669 8.25255 38.8154 8.18603 38.7804C8.11951 38.7454 8.04512 38.728 7.96997 38.7299C7.89069 38.7405 7.81531 38.7708 7.75069 38.8179C7.68607 38.8651 7.63427 38.9276 7.59998 38.9999C7.47849 39.2232 7.423 39.4763 7.43998 39.7299V40.7299C7.44131 41.157 7.48824 41.5828 7.57998 41.9999C7.67144 42.3516 7.81288 42.6884 7.99998 42.9999H6.86998C6.76237 42.8132 6.6752 42.6154 6.60998 42.4099C6.52937 42.1449 6.46919 41.8741 6.42998 41.5999C6.38145 41.3091 6.35803 41.0147 6.35998 40.7199V39.7199C6.34925 39.395 6.4179 39.0723 6.55998 38.7799C6.67204 38.5241 6.85704 38.3071 7.09182 38.1559C7.3266 38.0047 7.60075 37.9261 7.87998 37.9299C8.12125 37.9219 8.36003 37.9808 8.56998 38.0999C8.7715 38.2071 8.9303 38.38 9.01998 38.5899H8.99998C9.08966 38.38 9.24845 38.2071 9.44998 38.0999C9.6603 37.9817 9.89881 37.923 10.14 37.9299C10.4176 37.926 10.691 37.9986 10.93 38.1399C11.1679 38.2952 11.3583 38.5132 11.48 38.7699C11.6224 39.0832 11.6876 39.4262 11.67 39.7699V40.7699C11.6719 41.0647 11.6485 41.3591 11.6 41.6499C11.5577 41.9244 11.4942 42.1952 11.41 42.4599C11.3488 42.6669 11.2614 42.8651 11.15 43.0499H10.11C10.2825 42.7192 10.4071 42.3657 10.48 41.9999Z" fill="#9F33FF"/>
<path d="M16.2501 42.2C16.3335 41.9143 16.3739 41.6177 16.3701 41.32C16.3855 41.0837 16.3335 40.8479 16.2201 40.64C16.1785 40.5738 16.121 40.519 16.0529 40.4806C15.9848 40.4422 15.9082 40.4214 15.8301 40.42C15.7642 40.4188 15.6991 40.4348 15.6412 40.4664C15.5834 40.4979 15.5347 40.544 15.5001 40.6C15.404 40.7483 15.3584 40.9237 15.3701 41.1V42.1H14.4201V41.1C14.4295 40.9252 14.3878 40.7515 14.3001 40.6C14.2654 40.544 14.2167 40.4979 14.1589 40.4664C14.101 40.4348 14.0359 40.4188 13.9701 40.42C13.8926 40.4194 13.8163 40.4383 13.7481 40.475C13.6799 40.5117 13.6221 40.565 13.5801 40.63C13.4556 40.8338 13.3995 41.0721 13.4201 41.31C13.4196 41.9088 13.582 42.4965 13.8901 43.01H12.8401C12.6711 42.7452 12.5462 42.4548 12.4701 42.15C12.3731 41.7407 12.3294 41.3206 12.3401 40.9C12.2869 40.2516 12.4917 39.6083 12.9101 39.11C13.3254 38.7048 13.8567 38.4391 14.4301 38.35L15.0101 38.24C15.0961 38.2277 15.1801 38.2041 15.2601 38.17C15.318 38.1394 15.3638 38.09 15.3901 38.03H16.4701C16.4499 38.2782 16.3438 38.5116 16.1701 38.69C15.9351 38.8783 15.6499 38.9931 15.3501 39.02L14.7501 39.11C14.3791 39.1554 14.0178 39.2601 13.6801 39.42C13.5463 39.4809 13.4286 39.5724 13.3366 39.687C13.2445 39.8016 13.1806 39.9362 13.1501 40.08V40.08C13.2444 39.9314 13.3799 39.8132 13.5401 39.74C13.6879 39.6727 13.8477 39.6353 14.0101 39.63C14.1966 39.6388 14.377 39.6997 14.5308 39.8057C14.6846 39.9118 14.8055 40.0587 14.8801 40.23V40.23C14.9745 40.0366 15.1288 39.8788 15.3201 39.78C15.5176 39.6777 15.7376 39.6261 15.9601 39.63C16.2169 39.6299 16.4691 39.699 16.6901 39.83C16.9137 39.9627 17.0943 40.1572 17.2101 40.39C17.3475 40.6519 17.4163 40.9444 17.4101 41.24C17.4189 41.5781 17.375 41.9155 17.2801 42.24C17.2165 42.5034 17.1226 42.7584 17.0001 43H16.0001C16.1112 42.7429 16.195 42.4747 16.2501 42.2V42.2Z" fill="#9F33FF"/>
<path d="M18.8101 42.94C18.5518 42.8353 18.3318 42.6538 18.1801 42.42C18.0263 42.1818 17.9463 41.9035 17.9501 41.62C17.9516 41.4828 17.9787 41.3472 18.0301 41.22H19.0301C19.0178 41.3263 19.0178 41.4337 19.0301 41.54C19.0278 41.6786 19.0586 41.8157 19.1201 41.94C19.1825 42.0506 19.272 42.1435 19.3801 42.21C19.4996 42.2756 19.6337 42.31 19.7701 42.31C19.8762 42.3161 19.9823 42.2986 20.0809 42.2589C20.1794 42.2191 20.2679 42.158 20.3401 42.08C20.4762 41.8987 20.5467 41.6766 20.5401 41.45V40.36C20.5423 40.2118 20.5116 40.0649 20.4501 39.93C20.3942 39.8154 20.3077 39.7184 20.2001 39.65C20.0894 39.5808 19.9606 39.546 19.8301 39.55C19.712 39.5492 19.5954 39.5766 19.4901 39.63C19.4004 39.6861 19.3278 39.7656 19.2801 39.86C19.2292 39.9483 19.2017 40.0481 19.2001 40.15C19.1912 40.2264 19.1912 40.3036 19.2001 40.38H18.2001C18.1616 40.2641 18.1446 40.142 18.1501 40.02C18.1462 39.7943 18.1977 39.5711 18.3001 39.37C18.3972 39.1759 18.5505 39.0156 18.7401 38.91C18.9559 38.7976 19.1969 38.7425 19.4401 38.75C19.6605 38.7448 19.8792 38.7892 20.0801 38.88C20.2635 38.9559 20.4201 39.0847 20.5301 39.25V39.25V38H21.6201V41.49C21.629 41.7993 21.5492 42.1046 21.3901 42.37C21.2283 42.6113 20.9986 42.7992 20.7301 42.91C20.4156 43.0489 20.0735 43.1139 19.7301 43.1C19.4155 43.1128 19.1018 43.0583 18.8101 42.94V42.94Z" fill="#9F33FF"/>
<path d="M23.2 42.9C22.9206 42.7598 22.6853 42.5453 22.52 42.28C22.3658 42.0089 22.2864 41.7018 22.29 41.39C22.2834 41.0835 22.3558 40.7805 22.5 40.51C22.6285 40.2612 22.8311 40.0585 23.08 39.93C23.3262 39.7885 23.606 39.7159 23.89 39.72C24.1077 39.7201 24.3227 39.7679 24.52 39.86C24.7049 39.9378 24.8643 40.066 24.98 40.23V40.23V39.35C24.9878 39.1861 24.9497 39.0234 24.87 38.88C24.8348 38.8251 24.7858 38.7805 24.7278 38.7506C24.6699 38.7208 24.6051 38.7068 24.54 38.71C24.4819 38.7072 24.4239 38.7174 24.3702 38.7399C24.3166 38.7624 24.2687 38.7966 24.23 38.84C24.1497 38.9309 24.1068 39.0488 24.11 39.17V39.33H23.17V39.18C23.17 38.92 23.02 38.78 22.71 38.78H22.35V37.94H22.82C23.0062 37.9364 23.1898 37.9849 23.35 38.08C23.4247 38.1214 23.4906 38.1772 23.5438 38.2441C23.597 38.311 23.6365 38.3878 23.66 38.47V38.47C23.7499 38.2884 23.8929 38.1385 24.07 38.04C24.2705 37.9482 24.4895 37.9038 24.71 37.91C24.9518 37.9043 25.1916 37.9557 25.41 38.06C25.6095 38.1576 25.7738 38.3148 25.88 38.51C25.9971 38.7316 26.0556 38.9794 26.05 39.23V41.39C26.055 41.7033 25.9719 42.0117 25.81 42.28C25.6521 42.5442 25.4235 42.7589 25.15 42.9C24.8387 43.0527 24.4966 43.1321 24.15 43.1321C23.8033 43.1321 23.4612 43.0527 23.15 42.9H23.2ZM24.62 42.19C24.7461 42.1157 24.8498 42.0086 24.92 41.88C24.9879 41.7398 25.0221 41.5857 25.02 41.43C25.0237 41.2709 24.9894 41.1132 24.92 40.97C24.8536 40.8393 24.7535 40.7288 24.63 40.65C24.4951 40.5764 24.3436 40.5385 24.19 40.54C24.043 40.541 23.8986 40.5788 23.77 40.65C23.6495 40.7295 23.5527 40.84 23.49 40.97C23.417 41.1123 23.3793 41.2701 23.38 41.43C23.3809 41.5865 23.4186 41.7407 23.49 41.88C23.5577 42.0076 23.6583 42.1147 23.7814 42.1903C23.9045 42.2659 24.0455 42.3073 24.19 42.31C24.3418 42.3116 24.4909 42.27 24.62 42.19V42.19Z" fill="#9F33FF"/>
<path d="M30.9999 42.0001C31.0889 41.596 31.1358 41.1838 31.1399 40.7701V39.7701C31.1669 39.5053 31.1183 39.2384 30.9999 39.0001C30.9579 38.9231 30.8957 38.8591 30.8198 38.815C30.744 38.771 30.6576 38.7485 30.5699 38.7501C30.4951 38.75 30.4214 38.7682 30.3552 38.803C30.289 38.8379 30.2322 38.8884 30.1899 38.9501C30.0873 39.1218 30.0385 39.3204 30.0499 39.5201V41.6101H28.9999V39.5001C29.0168 39.2999 28.9676 39.0997 28.8599 38.9301C28.819 38.8671 28.7625 38.8156 28.696 38.7806C28.6295 38.7456 28.5551 38.7282 28.4799 38.7301C28.394 38.7303 28.3096 38.7536 28.2357 38.7976C28.1619 38.8416 28.1011 38.9046 28.0599 38.9801C27.9385 39.2033 27.883 39.4565 27.8999 39.7101V40.7101C27.9064 41.1446 27.96 41.5771 28.0599 42.0001C28.1357 42.3492 28.2602 42.6858 28.4299 43.0001H27.3599C27.2485 42.8153 27.1611 42.617 27.0999 42.4101C27.0158 42.1454 26.9522 41.8746 26.9099 41.6001C26.8614 41.3093 26.838 41.0149 26.8399 40.7201V39.7201C26.8341 39.3956 26.9025 39.0741 27.0399 38.7801C27.1526 38.5175 27.345 38.2971 27.5899 38.1501C27.8097 38.0153 28.0607 37.9398 28.3183 37.9311C28.576 37.9223 28.8315 37.9805 29.0599 38.1001C29.2577 38.2091 29.4128 38.3818 29.4999 38.5901C29.5871 38.3818 29.7422 38.2091 29.9399 38.1001C30.1508 37.9833 30.3889 37.9246 30.6299 37.9301C30.9117 37.9201 31.1899 37.9948 31.4288 38.1445C31.6677 38.2943 31.8562 38.5122 31.9699 38.7701C32.1124 39.0834 32.1776 39.4263 32.1599 39.7701V40.7701C32.1619 41.0649 32.1385 41.3593 32.0899 41.6501C32.0507 41.9243 31.9906 42.1951 31.9099 42.4601C31.8458 42.6676 31.7551 42.8659 31.6399 43.0501H30.5899C30.7766 42.7217 30.9147 42.3681 30.9999 42.0001V42.0001Z" fill="#9F33FF"/>
<path d="M33.7 43C33.4334 42.8911 33.1992 42.7155 33.02 42.4901C32.8564 42.2706 32.7686 42.0038 32.77 41.73C32.7713 41.5585 32.8052 41.3889 32.87 41.23H33.92C33.9163 41.2967 33.9163 41.3634 33.92 41.43C33.9143 41.5033 33.9143 41.5768 33.92 41.6501C33.9133 41.7719 33.941 41.8932 34 42C34.071 42.1055 34.1673 42.1914 34.28 42.25C34.3995 42.3157 34.5337 42.3501 34.67 42.35C34.8029 42.3476 34.9332 42.3133 35.05 42.25C35.1577 42.1873 35.2473 42.0978 35.31 41.9901C35.3792 41.8793 35.414 41.7506 35.41 41.62C35.4111 41.4826 35.3839 41.3465 35.33 41.2201C35.2746 41.1051 35.188 41.0081 35.08 40.94C34.9666 40.8676 34.8346 40.8294 34.7 40.8301H34.38V40H34.82C34.9433 40.0081 35.0659 39.9766 35.17 39.91C35.21 39.8847 35.2422 39.849 35.2634 39.8067C35.2845 39.7644 35.2937 39.7172 35.29 39.67C35.2879 39.5977 35.2635 39.5279 35.22 39.4701C35.1676 39.4102 35.1028 39.3624 35.03 39.3301L34.72 39.19C34.4592 39.0924 34.2211 38.9427 34.02 38.75C33.8426 38.5606 33.7458 38.3096 33.75 38.05H34.8C34.8196 38.1666 34.8843 38.2708 34.98 38.34C35.0684 38.4098 35.166 38.467 35.27 38.51L35.45 38.59C35.5985 38.6529 35.7422 38.7265 35.88 38.8101C35.9967 38.8885 36.0955 38.9908 36.17 39.1101C36.2506 39.2567 36.2887 39.4229 36.28 39.59C36.2853 39.7701 36.2288 39.9465 36.12 40.09C35.9963 40.2363 35.8332 40.3439 35.65 40.4001C35.795 40.443 35.9283 40.5182 36.04 40.62C36.1752 40.7375 36.2813 40.8847 36.35 41.05C36.4328 41.232 36.4738 41.4302 36.47 41.6301C36.4766 41.9092 36.3923 42.1829 36.23 42.41C36.0599 42.6387 35.8322 42.8182 35.57 42.93C35.2778 43.0609 34.9602 43.1258 34.64 43.12C34.3219 43.1424 34.0024 43.1016 33.7 43V43Z" fill="#9F33FF"/>
<path d="M39.5899 42.0001C39.6608 41.5972 39.6976 41.1891 39.6999 40.7801V39.7801C39.711 39.5042 39.6452 39.2307 39.5099 38.9901C39.448 38.8967 39.3629 38.8209 39.2631 38.7701C39.1632 38.7193 39.0519 38.6952 38.9399 38.7001C38.8292 38.6939 38.7188 38.7175 38.6203 38.7686C38.5218 38.8196 38.4388 38.8961 38.3799 38.9901C38.2364 39.2278 38.1668 39.5027 38.1799 39.7801V40.7801C38.1817 41.1891 38.2185 41.5973 38.2899 42.0001C38.3404 42.3428 38.431 42.6785 38.5599 43.0001H37.5099C37.3657 42.6817 37.2648 42.3453 37.2099 42.0001C37.1304 41.5848 37.0902 41.1629 37.0899 40.7401V39.7401C37.0867 39.3909 37.1728 39.0467 37.3399 38.7401C37.4911 38.4657 37.721 38.2428 37.9999 38.1001C38.2906 37.9511 38.6133 37.8756 38.9399 37.8801C39.2665 37.8756 39.5893 37.9511 39.8799 38.1001C40.1667 38.24 40.4014 38.4677 40.5499 38.7501C40.7157 39.0568 40.7985 39.4015 40.7899 39.7501V40.7501C40.7875 41.169 40.7507 41.5871 40.6799 42.0001C40.6221 42.3446 40.5213 42.6806 40.3799 43.0001H39.3199C39.4497 42.6788 39.5404 42.343 39.5899 42.0001Z" fill="#9F33FF"/>
<path d="M5.00009 23.64C4.62432 20.5681 4.62432 17.4619 5.00009 14.39C5.40009 10.29 5.63009 8.18999 7.06009 5.86999C7.88511 4.21642 9.28649 2.92174 11.0001 2.22999C11.9296 1.94009 12.9116 1.8588 13.8761 1.99189C14.8406 2.12499 15.7639 2.4692 16.5801 2.99999C17.7101 3.76999 17.5801 4.30999 19.3901 5.72999C20.4601 6.53999 21.3901 7.04999 21.2901 7.37999C21.2204 7.48485 21.1138 7.55957 20.9914 7.58923C20.8691 7.61889 20.74 7.6013 20.6301 7.53999C20.2101 7.17999 21.0001 5.29999 22.0001 4.04999C22.6785 3.18543 23.5571 2.499 24.5601 2.04999C25.5425 1.66839 26.5931 1.49364 27.6462 1.53666C28.6992 1.57967 29.7321 1.83954 30.6801 2.29999C32.0927 2.90616 33.2984 3.91032 34.1501 5.18999C35.0225 6.70807 35.452 8.4402 35.3901 10.19C35.6101 14.82 35.5701 18.42 35.5501 20.19C35.5501 26.03 35.4901 28.95 35.5501 29.28C35.8801 31 36.3901 32.63 35.4701 33.91C34.651 34.8001 33.5337 35.3588 32.3301 35.48C30.9267 35.8243 29.4506 35.7194 28.1101 35.18C26.1101 34.29 26.2501 32.93 24.3901 32.34C23.7173 32.1409 23.0109 32.0817 22.3144 32.166C21.6179 32.2503 20.946 32.4762 20.3401 32.83C19.0301 33.62 19.1701 34.49 18.0301 35.18C16.5701 36.06 14.8001 35.57 13.4001 35.18C10.7471 34.4804 8.43132 32.8561 6.87009 30.6C5.67009 28.81 5.45009 27.09 5.00009 23.64Z" fill="#9F33FF"/>
<path d="M23 6.25994C23.23 5.17994 23.38 4.25994 23.63 3.38994C23.7151 2.80705 24.0099 2.27521 24.4591 1.89413C24.9083 1.51305 25.481 1.30889 26.07 1.31994C28.14 1.21994 30.21 1.17994 32.28 1.16994C32.6597 1.17001 33.0316 1.2782 33.3521 1.48185C33.6727 1.6855 33.9286 1.97619 34.09 2.31994C34.1874 2.51885 34.3156 2.70111 34.47 2.85994C35.85 4.07994 35.92 5.68994 35.83 7.34994C35.83 7.66994 35.97 7.98994 35.99 8.34994C36.2283 11.3845 36.2517 14.4321 36.06 17.4699C35.89 20.0699 35.84 22.6799 35.73 25.2799C35.66 26.6599 35.54 28.0199 35.47 29.3999C35.47 30.0799 35.47 30.7599 35.47 31.3999C35.5076 31.7552 35.4706 32.1145 35.3616 32.4547C35.2525 32.7949 35.0737 33.1087 34.8366 33.3759C34.5994 33.6432 34.3092 33.858 33.9844 34.0068C33.6595 34.1556 33.3072 34.235 32.95 34.2399C31.8285 34.346 30.6976 34.2955 29.59 34.0899C28.8394 33.7564 28.1603 33.281 27.59 32.6899C27.46 32.5899 27.44 32.3199 27.31 32.2499C26.14 31.6299 26.08 30.5099 26.02 29.3999C26.02 28.4999 26.02 27.5999 26.02 26.7099C26.02 25.8199 25.78 25.0499 25.81 24.2299C25.86 22.7499 26.05 21.2799 26.15 19.8099C26.21 18.8899 26.21 17.9699 26.24 17.0599C26.24 15.8099 26.3 14.5699 26.37 13.3299C26.37 12.6799 26.59 12.0399 26.62 11.3799C26.62 10.9799 26.5 10.5699 26.49 10.1599C26.49 9.53994 25.9 9.63994 25.58 9.43994C25.1172 9.20542 24.6395 9.00164 24.15 8.82994C24.25 10.3299 24.37 11.8299 24.45 13.3499C24.56 15.3499 24.71 17.2799 24.69 19.2399C24.69 20.7499 24.45 22.2399 24.31 23.7699C24.21 24.8899 24.19 26.0299 23.98 27.1299C23.7886 28.1258 23.4902 29.0981 23.09 30.0299C22.5801 31.2613 21.7433 32.3298 20.67 33.1199C19.7986 33.672 18.8426 34.0774 17.84 34.3199C16.5408 34.6269 15.1741 34.4454 14 33.8099C13.0017 33.314 12.0818 32.6738 11.27 31.9099C10.6508 31.4174 10.1023 30.842 9.63999 30.1999C8.96275 29.3204 8.41082 28.3512 7.99999 27.3199C7.50455 25.812 7.14643 24.2624 6.92999 22.6899C6.39573 19.566 6.39573 16.3739 6.92999 13.2499C7.05999 12.5799 6.92999 11.8799 7.05999 11.2499C7.44724 8.2308 8.65815 5.37653 10.56 2.99994C11.0794 2.25627 11.8046 1.68036 12.6466 1.34286C13.4885 1.00536 14.4107 0.920933 15.3 1.09994C16.11 1.26994 16.95 1.31994 17.73 1.55994C18.7372 1.86126 19.6751 2.35815 20.4902 3.02219C21.3052 3.68623 21.9814 4.50441 22.48 5.42994L23 6.25994ZM8.26999 19.5699C8.26999 20.0899 8.26999 21.0199 8.42999 21.9399C8.58999 22.8599 8.79999 23.7899 8.95999 24.7199C9.40634 26.9029 10.5847 28.8679 12.3 30.2899C13.0839 30.7883 13.9912 31.0584 14.92 31.0699C15.7518 31.2853 16.6285 31.2513 17.4411 30.9722C18.2537 30.693 18.9662 30.181 19.49 29.4999C20.89 27.7599 20.87 25.6099 21.05 23.4999C21.14 22.4999 21.12 21.4999 21.2 20.4999C21.28 19.4999 21.51 18.3099 21.51 17.2099C21.51 15.6299 21.32 14.0399 21.25 12.4499C21.21 11.8573 21.21 11.2626 21.25 10.6699C21.3441 8.66177 20.7399 6.68297 19.54 5.06994C19.1399 4.49986 18.677 3.97657 18.16 3.50994C17.9302 3.25853 17.6308 3.08103 17.3 2.99994C16.28 2.84508 15.2513 2.7549 14.22 2.72994C13.7448 2.74186 13.2787 2.86254 12.8575 3.0827C12.4362 3.30285 12.0711 3.61664 11.79 3.99994C10.2466 5.98579 9.21628 8.32127 8.78999 10.7999C8.53291 12.5697 8.37599 14.3525 8.31999 16.1399C8.21999 17.1699 8.26999 18.1699 8.26999 19.5699ZM27.27 2.88994C27 2.88994 26.73 2.88994 26.47 2.88994C25.54 2.99994 25.31 3.10994 25 3.99994C24.7595 4.64195 24.6146 5.31581 24.57 5.99994C24.5457 6.55877 24.7352 7.10586 25.1 7.52994C25.3544 7.7782 25.6567 7.97189 25.9886 8.09914C26.3205 8.22639 26.6749 8.28451 27.03 8.26994C27.2337 8.2776 27.4322 8.33662 27.607 8.44152C27.7819 8.54641 27.9274 8.69378 28.03 8.86994C28.1876 9.49016 28.245 10.1316 28.2 10.7699C28.2 11.7699 28.1 12.7099 28.05 13.6799C27.99 14.9299 27.93 16.1799 27.88 17.4399C27.88 17.9399 27.83 18.4399 27.8 18.9499C27.75 19.9999 27.72 21.0599 27.66 22.1099C27.5353 23.1388 27.4652 24.1736 27.45 25.2099C27.51 26.8399 27.69 28.4699 27.86 30.0899C27.8795 30.2261 27.9268 30.3567 27.9991 30.4737C28.0714 30.5907 28.167 30.6916 28.28 30.7699C28.7584 31.0885 29.3079 31.2843 29.88 31.3401C30.452 31.396 31.029 31.31 31.56 31.0899C31.7591 31.0274 31.9337 30.9041 32.0592 30.7373C32.1848 30.5705 32.255 30.3686 32.26 30.1599C32.44 27.5399 32.61 24.9199 32.75 22.2999C32.82 20.9399 32.81 19.5699 32.82 18.1999C32.83 16.8299 32.82 15.5199 32.82 14.1999C32.82 12.7099 32.96 11.1999 32.96 9.74994C32.96 7.95994 32.9 6.15994 32.87 4.36994C32.87 3.30994 32.45 2.91994 31.4 2.91994L27.27 2.88994Z" fill="#161449"/>
<path d="M17.23 12.39C17.23 14.17 17.33 15.95 17.23 17.71C17.09 19.71 16.76 21.66 16.48 23.63C16.477 23.905 16.3738 24.1695 16.1897 24.3738C16.0056 24.5782 15.7533 24.7084 15.48 24.74C15.09 24.8 14.3 24.14 14.14 23.6C13.6966 22.4519 13.4727 21.2307 13.48 20C13.6 18.14 13.39 16.27 13.41 14.4C13.4594 13.5653 13.5934 12.7377 13.81 11.93C13.98 11.15 14.19 10.37 14.43 9.60001C14.61 9.03001 14.82 8.45 15.58 8.41C16.34 8.37 16.58 8.61 16.72 9.25C16.89 10.25 17.01 11.33 17.14 12.38L17.23 12.39Z" fill="#161449"/>
</g>
<defs>
<clipPath id="clip0_17_24">
<rect width="38.79" height="42.13" fill="white" transform="translate(2 1)"/>
</clipPath>
</defs>
</svg>
