<svg width="437" height="332" viewBox="0 0 437 332" fill="none" xmlns="http://www.w3.org/2000/svg">
<g clip-path="url(#clip0_6_44)">
<path d="M352.88 33.32C354.2 34.32 355.59 35.32 356.83 36.49C357.924 37.5119 358.928 38.626 359.83 39.82C360.78 41.04 360.49 42.2 359.32 43.17C359.03 43.41 358.76 43.68 358.49 43.95C355.89 46.54 353.4 46.29 351.07 43.39C349.79 41.78 348.25 40.39 346.65 38.69C345.53 40.3 344.59 41.78 343.5 43.14C343.04 43.72 342.24 44.42 341.61 44.4C341.013 44.3999 340.433 44.2042 339.958 43.843C339.483 43.4818 339.14 42.975 338.98 42.4C337.82 39.02 336.6 35.66 335.4 32.28C334.27 29.12 333.15 25.95 332.01 22.79C331.74 21.9779 331.406 21.1887 331.01 20.43C330.651 19.9229 330.458 19.3166 330.458 18.695C330.458 18.0734 330.651 17.4671 331.01 16.96C331.67 16.09 334.18 16.3 335.28 16.9C336.541 17.5346 337.837 18.0988 339.16 18.59C340.34 19.08 341.53 19.54 342.7 20.03C344.87 20.95 347.02 21.89 349.18 22.81C351.87 23.96 354.58 25.07 357.25 26.27C357.506 26.3806 357.737 26.5436 357.926 26.7486C358.116 26.9535 358.26 27.1959 358.35 27.46C358.384 27.7392 358.355 28.0226 358.265 28.2891C358.175 28.5556 358.026 28.7986 357.83 29C356.44 30.21 354.93 31.29 353.47 32.41L352.88 33.32ZM356.61 41C356.06 40.3 355.61 39.57 355.02 39C353.55 37.45 352.02 36 350.53 34.44C349.68 33.59 349.3 32.63 350.14 31.59C350.678 31.0197 351.257 30.4884 351.87 30C353.28 28.73 353.21 28.37 351.47 27.62C348.637 26.4 345.817 25.1633 343.01 23.91C339.73 22.44 336.46 20.91 332.81 19.29L341.81 40.74L344.13 36.66C344.274 36.3377 344.494 36.0554 344.771 35.8378C345.049 35.6202 345.376 35.4739 345.723 35.4118C346.07 35.3496 346.428 35.3735 346.763 35.4812C347.099 35.589 347.404 35.7774 347.65 36.03L350.48 38.61L355.07 42.75L356.61 41Z" fill="#0E2043"/>
<path d="M333.2 0C335.52 0.19 336.12 1.36 335.88 3.24C335.61 5.34 335.45 7.46 335.22 9.56C335.206 9.88532 335.075 10.1946 334.85 10.43C334.38 10.75 333.71 11.24 333.31 11.11C333.018 10.9894 332.759 10.8015 332.554 10.5616C332.349 10.3218 332.204 10.0368 332.13 9.73C332.02 7.12 332.01 4.5 332.13 1.89C332.17 1.22 332.86 0.58 333.2 0Z" fill="#0E2043"/>
<path d="M346.64 6.80004C345.91 7.80004 345.25 8.95004 344.45 9.94004C343.739 10.8741 342.912 11.7142 341.99 12.44C341.711 12.6353 341.389 12.7608 341.052 12.8061C340.714 12.8513 340.371 12.815 340.05 12.7C339.798 12.4623 339.612 12.163 339.51 11.8317C339.408 11.5004 339.395 11.1483 339.47 10.81C340.8 8.72004 341.81 6.28004 344.24 5.12004C345.56 4.50004 346.39 5.12004 346.64 6.80004Z" fill="#0E2043"/>
<path d="M322.16 20C320.937 20.2255 319.693 20.316 318.45 20.27C318.014 20.1832 317.6 20.0069 317.235 19.7522C316.87 19.4974 316.562 19.1698 316.33 18.79C315.91 17.97 317.18 16.79 318.33 16.79C320.031 16.8357 321.726 17.0129 323.4 17.32C324.08 17.46 324.62 18.25 325.22 18.75C324.49 19.17 323.77 19.62 323.02 19.99C322.84 20.14 322.52 20 322.16 20Z" fill="#0E2043"/>
<path d="M329 13.0001C328.19 13.3401 327.52 13.9001 327.1 13.7501C324.82 12.9401 323.24 11.1701 321.8 9.32005C321.705 9.07665 321.674 8.8131 321.709 8.55419C321.744 8.29528 321.844 8.04953 322 7.84005C322.582 7.41757 323.281 7.18688 324 7.18005C324.47 7.18005 325 7.78005 325.37 8.18005C326.22 9.13005 327.03 10.1301 327.82 11.1801C328.244 11.7665 328.638 12.374 329 13.0001V13.0001Z" fill="#0E2043"/>
<path d="M322.71 29.94C322.51 29.76 321.79 29.42 321.76 29.02C321.723 28.6905 321.759 28.357 321.864 28.0427C321.969 27.7283 322.142 27.4408 322.37 27.2C323.838 26.1385 325.386 25.1923 327 24.37C327.85 23.93 328.34 24.56 328.29 25.37C328.2 27.36 325.09 30 322.71 29.94Z" fill="#0E2043"/>
<path d="M75.75 40.28H239.07L275.06 68.67H436.61V221.31H75.75" fill="#FF5D31"/>
<path d="M31.73 89.33H195.05L231.04 117.73H436.68V270.37H31.73" fill="#9F33FF"/>
<path d="M62.8101 141.62H233.07L269.06 170.01H436.61L436.68 322.65H62.8101" fill="#22AAFF"/>
<path d="M0.0700684 191.7H145.33L181.32 220.09H436.68L436.61 331.56H0.0700684" fill="#FFCD00"/>
<path d="M0 188.5C3.30525 189.045 6.66874 189.142 10 188.79C12.1266 188.476 14.2929 188.558 16.39 189.03C18.07 189.52 20.02 189.1 21.85 189.03C25.44 188.97 29.04 188.91 32.63 188.81C33.458 188.748 34.2824 188.645 35.1 188.5C35.17 186.92 35.31 185.5 35.29 184.07C35.19 179.37 35.07 174.67 34.9 169.98C34.79 167.1 34.53 164.24 34.41 161.37C34.3 158.9 34.29 156.43 34.25 153.96C34.15 147.96 33.93 141.96 33.99 135.96C33.922 130.706 33.5883 125.46 32.99 120.24C32.76 117.86 32.76 115.46 32.63 113.07C32.5 110.68 32.29 108.14 32.18 105.68C31.98 101.14 31.82 96.59 31.64 92.05C31.55 89.71 32.37 88.63 34.8 88.45C38.38 88.18 41.97 88.09 45.56 87.93C49.94 87.73 54.32 87.45 58.7 87.36C63.08 87.27 67.46 87.36 71.84 87.36C74.05 87.36 76.26 87.21 78.59 87.12C78.59 84.31 78.59 81.7 78.59 79.12C78.59 78.17 78.45 77.21 78.36 76.26C78.17 73.96 77.96 71.67 77.78 69.37C77.53 66.11 77.27 62.85 77.07 59.59C76.73 54.09 76.49 48.59 76.07 43.09C76.0326 42.3365 76.153 41.5835 76.4233 40.8793C76.6937 40.175 77.1081 39.5349 77.64 39C77.9014 38.6397 78.2839 38.3858 78.7174 38.2848C79.1509 38.1838 79.6063 38.2424 80 38.45C81.34 39.25 82.67 39.11 84.14 39.02C91.14 38.63 98.14 38.4 105.22 38.09C108.64 37.94 112.07 37.66 115.5 37.57C118.77 37.49 122.04 37.57 125.31 37.57C127.78 37.57 130.26 37.48 132.73 37.57C136.32 37.69 139.9 38.05 143.48 38.06C148.48 38.06 153.53 37.88 158.56 37.76C163.83 37.64 169.11 37.47 174.38 37.39C180.52 37.28 186.66 37.2 192.81 37.19C196.55 37.19 200.3 37.45 204.04 37.37C209.87 37.26 215.69 36.96 221.52 36.73C225.813 36.5566 230.107 36.37 234.4 36.17C235.989 36.1415 237.574 35.991 239.14 35.72C239.877 35.5342 240.646 35.5123 241.392 35.6557C242.138 35.7991 242.844 36.1043 243.46 36.55C245.28 37.85 247.03 39.24 248.81 40.55C251.43 42.55 254.06 44.45 256.66 46.44C261.727 50.32 266.783 54.2133 271.83 58.12C274.04 59.82 276.08 61.75 278.39 63.31C281.199 65.2661 284.614 66.1561 288.02 65.82C294.149 65.1904 300.309 64.9166 306.47 65C310.61 65.11 314.76 64.86 318.91 64.87C322.58 64.87 326.25 65.06 329.91 65.1C335.58 65.15 341.26 65.22 346.91 65.15C356.57 65.03 366.22 64.79 375.91 64.64C380.38 64.57 384.85 64.64 389.32 64.64C392.32 64.64 395.23 64.45 398.19 64.42C401.54 64.42 404.89 64.42 408.24 64.48C412.47 64.48 416.7 64.48 420.94 64.54C426.04 64.54 431.15 64.54 436.4 64.54V71C435.77 71.08 435.16 71.2 434.55 71.23C426.55 71.64 418.48 71.56 410.44 71.45C404.44 71.36 398.5 71.6 392.53 71.65C384.71 71.71 376.9 71.7 369.08 71.8C365.42 71.8 361.77 72.08 358.08 72.17C356.24 72.17 354.4 72.07 352.57 72.07C349.57 72.07 346.51 72.19 343.48 72.16C336.94 72.16 330.4 71.94 323.86 71.93C318.04 71.93 312.22 72.02 306.4 72.09C301.62 72.16 296.85 72.19 292.08 72.35C288.26 72.47 284.44 72.7 280.63 73.01C279.721 73.0752 278.809 72.9536 277.949 72.6526C277.089 72.3517 276.3 71.8777 275.63 71.26C270.94 67.26 266.31 63.26 261.63 59.35C257.28 55.6064 252.73 52.1012 248 48.85C246.593 47.926 245.327 46.8045 244.24 45.52C242.3 43.22 239.81 42.87 237.09 42.99C233.52 43.13 229.95 43.27 226.38 43.43C223.59 43.55 220.81 43.76 218.02 43.84C211.57 44.02 205.12 44.25 198.66 44.28C193.08 44.28 187.5 43.92 181.92 43.99C174.09 44.1 166.28 44.56 158.45 44.72C152.45 44.84 146.32 45.06 140.28 44.72C131.9 44.19 123.52 44.53 115.15 44.49C109.88 44.49 104.62 44.92 99.35 45.13C96.57 45.24 93.78 45.23 90.99 45.38C88.56 45.5 86.14 45.78 83.59 46C84.17 59.78 86.59 73.17 86.53 87C87.0734 87.1201 87.6249 87.2003 88.18 87.24C96 87.41 103.82 87.47 111.64 86.98C113.06 86.89 114.51 87.11 115.94 87.09C122.47 87 129.01 86.86 135.55 86.76C139.55 86.7 143.55 86.76 147.55 86.61C153.55 86.3 159.47 85.69 165.44 85.41C169.59 85.21 173.76 85.41 177.91 85.31C181.58 85.24 185.24 84.96 188.91 84.87C192.1 84.8 195.3 84.87 198.5 84.87C200.09 84.87 201.69 84.75 203.27 84.87C205.27 84.98 206.75 85.87 206.98 88.15C207.159 88.832 207.543 89.4428 208.08 89.9C211.76 93.5533 215.467 97.17 219.2 100.75C220.2 101.75 221.47 102.52 222.5 103.52C225.403 106.356 228.53 108.955 231.85 111.29C233.585 112.566 235.204 113.991 236.69 115.55C237.026 115.939 237.456 116.236 237.939 116.411C238.423 116.586 238.943 116.634 239.45 116.55L248.92 115.31C249.788 115.178 250.663 115.092 251.54 115.05C256.8 114.92 262.06 114.71 267.32 114.76C272.11 114.76 276.89 115.26 281.68 115.34C287.42 115.44 293.17 115.34 298.91 115.34C302.82 115.34 306.73 115.11 310.64 115.04C316.94 114.91 323.23 114.82 329.53 114.72C333.98 114.66 338.44 114.63 342.9 114.54C345.9 114.48 348.79 114.31 351.73 114.21C357.55 114.03 363.37 113.9 369.19 113.67C373.41 113.5 377.63 113.14 381.85 112.98C385.12 112.86 388.4 112.89 391.67 112.89C394.38 112.89 397.09 112.89 399.8 112.98C406.03 113.14 412.25 113.35 418.47 113.52C422.7 113.64 426.94 113.72 431.17 113.79C432.84 113.79 434.51 113.79 436.39 113.79V121.02H429.39C427.64 121.02 425.89 121.02 424.15 121.02C420.56 120.86 416.96 120.73 413.38 120.41C403.26 119.48 393.11 120.23 382.98 119.95C378.68 119.83 374.38 120.26 370.07 120.41C366.18 120.54 362.28 120.63 358.38 120.75C351.77 120.96 345.16 121.26 338.54 121.37C331.44 121.48 324.33 121.37 317.22 121.43C314.83 121.43 312.44 121.64 310.05 121.66C302.05 121.72 294.05 121.8 286.12 121.76C274.7 121.76 263.27 121.49 251.85 121.51C248.85 121.51 245.85 122.23 242.8 122.41C240.27 122.55 237.73 122.41 235.2 122.34C233.76 122.231 232.407 121.606 231.39 120.58C228.75 118.28 225.88 116.24 223.19 113.99C221.29 112.41 219.51 110.69 217.74 108.99C214.38 105.7 211.07 102.36 207.74 99.05C205.83 97 204 95.09 202 93.34C201.335 92.7821 200.507 92.4557 199.64 92.41C195.893 92.29 192.143 92.2566 188.39 92.31C182.39 92.39 176.28 92.54 170.22 92.72C167.427 92.8 164.643 92.95 161.87 93.17C154.62 93.72 147.37 94.01 140.1 93.94C136.75 93.94 133.4 94.2 130.1 94.25C121.01 94.39 111.91 94.46 102.82 94.58C99.08 94.64 95.34 94.81 91.6 94.82C89.38 94.82 87.16 94.58 84.94 94.54C83.03 94.54 81.12 94.62 79.21 94.6C75.07 94.6 70.92 94.35 66.78 94.39C63.27 94.39 59.78 94.74 56.25 94.87C52.18 95.02 48.11 95.11 44.05 95.2C42.45 95.2 40.85 95.2 38.96 95.2C38.8679 95.8863 38.8178 96.5776 38.81 97.27C39.17 104.38 39.52 111.48 39.96 118.58C40.1 120.8 40.65 122.99 40.78 125.22C41.04 130.08 41.18 134.95 41.32 139.82C41.54 147.73 41.66 155.63 41.93 163.53C42.1 168.39 42.51 173.23 42.73 178.09C42.82 180.09 42.63 182.09 42.65 184.09C42.65 185.52 42.78 186.95 42.85 188.38C44.94 189.45 47.06 188.87 49.09 189.02C52.6 189.26 56.09 189.36 59.62 189.46C61.37 189.51 63.13 189.46 64.87 189.38C66.44 189.29 66.87 188.87 66.53 187.46C65.62 183.65 66.36 179.81 66.15 176C66.01 173.64 65.87 171.29 65.54 168.93C64.69 163 64.25 157 63.74 151C63.55 148.69 63.58 146.37 63.56 144.05C63.56 141.22 64.4 140.05 67.25 139.74C69.55 139.46 71.88 139.46 74.25 139.4C81.02 139.21 87.8 139.02 94.58 138.89C99.21 138.81 103.84 138.89 108.47 138.79C110.53 138.79 112.59 138.68 114.64 138.68C116 138.68 117.35 138.85 118.71 138.86C125.65 138.86 132.59 138.99 139.53 138.86C143.59 138.79 147.65 138.26 151.71 138.19C157.71 138.09 163.71 138.19 169.71 138.24C172.59 138.24 175.46 138.43 178.33 138.41C183.92 138.35 189.51 138.08 195.1 138.15C198.27 138.15 201.43 138.74 204.61 138.98C207.79 139.22 210.81 139.4 213.91 139.51C218.52 139.67 223.14 139.71 227.76 139.88C229.673 139.904 231.58 140.095 233.46 140.45C235.442 140.766 237.278 141.684 238.72 143.08C240.343 144.616 242.115 145.986 244.01 147.17C247.34 149.46 249.76 152.66 252.56 155.49C255.36 158.32 258.21 161.57 261.24 164.39C263.516 166.385 265.917 168.232 268.43 169.92C269.067 170.248 269.789 170.373 270.5 170.28C275.13 170.12 279.75 170.79 284.35 170.81C290.91 170.81 297.41 171.5 303.94 171.69C312.62 171.95 321.31 171.99 329.99 172.05C335.33 172.05 340.68 171.95 345.99 171.96C350.3 171.96 354.61 172.13 358.92 172.12C363.23 172.11 367.36 171.96 371.57 171.88C374.84 171.81 378.1 171.69 381.36 171.68C385.91 171.68 390.47 171.85 395.01 171.68C400.74 171.49 406.45 171.02 412.17 170.68C416.56 170.45 420.95 170.32 425.32 170.05C428.32 169.86 431.2 169.5 434.14 169.24C434.84 169.18 435.55 169.24 436.42 169.24V176.78C431.42 177.16 426.51 177.54 421.6 177.89C417.78 178.16 413.95 178.48 410.12 178.6C403.98 178.8 397.83 178.83 391.68 178.94C384.5 179.08 377.33 179.28 370.15 179.36C365.36 179.41 360.57 179.28 355.77 179.24L338.3 179.13C334.54 179.13 330.79 179.05 327.04 179.04C322.74 179.04 318.44 179.04 314.14 178.98C309.6 178.87 305.06 178.64 300.53 178.41C294.39 178.11 288.25 177.777 282.11 177.41C278.05 177.16 274.01 176.79 269.95 176.49C268.69 176.332 267.419 176.279 266.15 176.33C265.392 176.36 264.636 176.239 263.926 175.975C263.215 175.711 262.564 175.308 262.01 174.79C260.15 173.41 258.25 172.07 256.54 170.52C254.36 168.52 252.29 166.45 250.28 164.29C246.97 160.73 243.8 157.02 240.45 153.5C238.912 151.987 237.264 150.59 235.52 149.32C234.814 148.818 234.02 148.452 233.18 148.24C229.18 147.11 225.09 147.57 221.03 147.34C215.13 147 209.24 146.57 203.34 146.23C198.88 145.97 194.42 145.66 189.96 145.59C182.15 145.46 174.34 145.52 166.53 145.48C161.03 145.48 155.53 144.89 150.05 145.48C144.05 146.11 138.05 146.08 132.1 146.15C126.92 146.21 121.73 146.03 116.54 145.97C114.38 145.97 112.23 145.97 110.08 145.97C102.08 146.05 94.08 146.17 86.15 146.22C81.2 146.22 76.25 146.22 71.29 146.22C70.9062 146.253 70.5253 146.313 70.15 146.4C70.1149 147.1 70.1149 147.8 70.15 148.5C70.78 154.29 71.41 160.08 72.08 165.87C72.39 168.48 72.93 171.07 73.08 173.68C73.28 176.78 73.08 179.89 73.26 182.99C73.33 184.73 73.67 186.45 73.89 188.26C75.81 188.26 77.53 188.31 79.25 188.26C83.7167 188.12 88.18 187.953 92.64 187.76C95.51 187.64 98.37 187.45 101.24 187.34C105.38 187.19 109.53 186.98 113.68 186.97C118.29 186.97 122.9 187.28 127.51 187.26C133.89 187.26 140.26 187.04 146.64 186.86C147.751 186.742 148.874 186.929 149.887 187.401C150.9 187.874 151.766 188.613 152.39 189.54C153.608 191.116 155.015 192.537 156.58 193.77C159.99 196.65 163.25 199.69 166.8 202.42C170.71 205.42 174.09 209.09 177.72 212.42C178.72 213.33 179.72 214.2 180.72 215.06C181.66 215.668 182.538 216.368 183.34 217.15C185.11 219.34 187.34 219.3 189.84 219.09C193.73 218.77 197.64 218.76 201.55 218.6C204.9 218.46 208.24 218.22 211.55 218.15C215.7 218.07 219.85 218.15 223.99 218.1C230.21 218.02 236.42 217.82 242.64 217.81C253.51 217.81 264.37 217.89 275.24 217.9C281.14 217.9 287.04 217.77 292.95 217.79C299.25 217.79 305.55 217.99 311.86 218.02C316.56 218.02 321.25 217.85 325.95 217.88C334.49 217.94 343.023 218.053 351.55 218.22C357.78 218.35 364.01 218.65 370.24 218.84C373.82 218.95 377.41 218.96 380.99 219.1C383.99 219.21 386.99 219.51 390.06 219.58C396.76 219.73 403.47 219.77 410.17 219.9C415.66 220.01 421.17 220.25 426.64 220.34C428.95 220.34 431.26 220.21 433.57 220.14C434.43 220.14 435.29 220.14 436.32 220.14V227.34C429.94 227.21 423.59 227.06 417.24 226.96C415.4 226.96 413.57 227.13 411.73 227.08C406.01 226.91 400.28 226.63 394.55 226.47C390.09 226.34 385.61 226.34 381.14 226.22C374.767 226.053 368.39 225.853 362.01 225.62C358.83 225.5 355.64 225.27 352.46 225.11C351.58 225.06 350.7 225.06 349.82 225.04C341.45 224.87 333.07 224.65 324.69 224.55C319.44 224.49 314.18 224.61 308.92 224.65C307.92 224.65 307 224.65 306.05 224.65C303.97 224.65 301.9 224.73 299.83 224.71C295.37 224.66 290.91 224.54 286.44 224.5C283.99 224.5 281.53 224.58 279.08 224.59H259.06C252.13 224.59 245.19 224.5 238.26 224.59C229.96 224.67 221.67 224.89 213.38 225.06C206.13 225.21 198.87 225.28 191.63 225.59C189.21 225.69 186.73 225.43 184.35 226.44C183.786 226.669 183.17 226.735 182.571 226.63C181.971 226.526 181.413 226.256 180.96 225.85C178.76 224.01 176.5 222.24 174.35 220.35C172.2 218.46 169.94 216.21 167.69 214.18C164.44 211.24 161.11 208.39 157.88 205.42C154.82 202.61 151.73 199.81 148.88 196.77C148.131 195.943 147.197 195.305 146.154 194.909C145.111 194.512 143.989 194.369 142.88 194.49C137.53 194.68 132.18 194.88 126.88 194.88C118.88 194.88 110.88 194.65 102.95 194.65C99.28 194.65 95.61 195.01 91.95 195.14C90.05 195.22 88.14 195.08 86.24 195.2C80.59 195.53 74.95 196.08 69.3 196.28C64.84 196.44 60.37 196.21 55.91 196.16C54.55 196.16 53.2 196.16 51.84 196.16C48.57 196.06 45.31 195.88 42.04 195.87C38.45 195.87 34.87 195.98 31.28 196.03C28.28 196.03 25.36 196.13 22.4 196.11C17.32 196.11 12.23 196.11 7.14 195.92C4.75 195.85 2.38 195.47 0 195.23L0 188.5Z" fill="#0E2043"/>
<path d="M32 235.97H146.84L142.89 218H32.14L32 235.97Z" fill="white"/>
<path d="M85 173.95H218.32L217.06 159.4L87.26 158L85 173.95Z" fill="white"/>
<path d="M49 123.96H149.24L151.84 107.57L50.89 106L49 123.96Z" fill="white"/>
<path d="M184.61 71.95H102.13L100 56.52L184.61 55V71.95Z" fill="white"/>
</g>
<defs>
<clipPath id="clip0_6_44">
<rect width="436.68" height="331.56" fill="white"/>
</clipPath>
</defs>
</svg>
