<svg width="17" height="16" viewBox="0 0 17 16" fill="none" xmlns="http://www.w3.org/2000/svg">
<path d="M14.6267 0H2.37331C1.06257 0 0 1.07903 0 2.41009V13.5899C0 14.921 1.06257 16 2.37331 16H14.6267C15.9374 16 17 14.921 17 13.5899V2.41009C17 1.07903 15.9374 0 14.6267 0Z" fill="#2083FD"/>
<path d="M9.32 12.5338C9.32 13.1238 8.68 13.3638 8.07 13.2238C7.4721 13.1773 6.89663 12.9758 6.40036 12.6391C5.90409 12.3024 5.50415 11.8422 5.24 11.3038C5.17099 11.4529 5.12384 11.6112 5.1 11.7738C5.17 12.7738 4.64 13.1038 3.73 13.1038C3.54811 13.1319 3.36225 13.1195 3.18571 13.0674C3.00918 13.0154 2.84631 12.925 2.70875 12.8027C2.57119 12.6804 2.46232 12.5293 2.38994 12.3601C2.31755 12.1909 2.28343 12.0077 2.29 11.8238C2.14 10.1038 2.07 8.3738 2 6.6438C2 5.5638 2 4.4738 2 3.3838C2 2.2938 2.31 2.0038 3.34 2.0238C3.9034 1.94734 4.47639 2.05623 4.97247 2.33404C5.46855 2.61184 5.86079 3.04348 6.09 3.5638C6.16 2.7738 6.33 2.1438 7.23 2.1938C8.62 2.2738 8.65 3.4538 8.95 4.3538C9.45077 3.9158 9.97487 3.5052 10.52 3.1238C11.0232 2.80495 11.6178 2.66147 12.211 2.71573C12.8043 2.77 13.363 3.01895 13.8 3.4238C14.268 3.74811 14.6145 4.21918 14.7848 4.76251C14.955 5.30584 14.9392 5.89042 14.74 6.4238C14.24 7.7138 15.14 8.6938 15.16 9.8438C15.16 11.7638 14.05 13.8438 12.05 13.6338C11.0921 13.3995 10.1728 13.029 9.32 12.5338V12.5338ZM3.95 6.4638L4.34 6.3738C4.5 6.7338 4.67 7.0838 4.81 7.4538C5.26 8.7638 5.74 10.0338 6.16 11.3138C6.44 12.0638 7.1 11.9338 7.7 11.8938C8.3 11.8538 8.11 11.3638 8.11 11.0138C8.11 10.6638 8.11 10.2938 8.11 9.9338C8.03 7.8238 7.96 5.7038 7.84 3.5938C7.84 3.3838 7.49 3.1938 7.31 2.9938C7.19 3.2038 6.98 3.4038 6.96 3.6138C6.85 4.7638 6.82 5.8538 6.74 6.9738C6.68379 7.21255 6.5856 7.43942 6.45 7.6438C6.25 7.4938 5.95 7.3938 5.86 7.1938C5.68007 6.72708 5.52977 6.24946 5.41 5.7638C5.29454 4.95365 5.06913 4.16303 4.74 3.4138C4.5 3.0238 3.74 2.9238 3.21 2.7838C3.09 2.7838 2.74 3.0938 2.72 3.2838C2.64199 4.06794 2.6086 4.85588 2.62 5.6438C2.62 7.5538 2.75 9.4538 2.77 11.3538C2.77 11.8938 2.95 12.1238 3.46 12.1938C3.97 12.2638 4.16 11.9138 4.14 11.4838C4.14 10.2438 4.03 9.0038 3.99 7.7638C3.94 7.3338 3.95 6.8938 3.95 6.4638ZM14.02 5.6938C14.0779 5.18271 13.9368 4.66893 13.6258 4.25923C13.3148 3.84953 12.8579 3.5754 12.35 3.4938C11.8123 3.3925 11.2562 3.47562 10.7716 3.72969C10.2871 3.98377 9.90245 4.39394 9.68 4.8938C9.41 5.5038 9.61 6.3438 10.11 6.4638C10.84 6.6538 11.11 6.1838 11.3 5.5538C11.37 5.2938 11.69 5.1138 11.89 4.9038C12.14 5.1338 12.6 5.4038 12.57 5.6038C12.535 6.12734 12.3316 6.6255 11.99 7.0238C11.25 7.7038 11.18 8.0238 11.99 8.5538C12.67 8.9738 12.52 9.6038 12.46 10.1738C12.46 10.4138 11.91 10.8438 11.85 10.8038C11.4865 10.5391 11.1514 10.2375 10.85 9.9038C10.85 9.9038 10.85 9.7438 10.79 9.7438C10.4661 9.64684 10.1272 9.60957 9.79 9.6338C9.67532 9.66978 9.57185 9.73469 9.48953 9.82226C9.40721 9.90983 9.34883 10.0171 9.32 10.1338C9.35586 10.7067 9.56696 11.2548 9.9247 11.7038C10.2824 12.1527 10.7695 12.4809 11.32 12.6438C13.22 13.0738 14.57 10.8638 14.18 9.2138C13.96 7.9438 13.19 6.7638 14.02 5.6938V5.6938ZM9.09 6.6938L9.29 8.8938L10.63 8.7638C10.89 7.5238 9.86 7.3938 9.09 6.6638V6.6938Z" fill="#0E2043"/>
</svg>
