<svg width="412" height="275" viewBox="0 0 412 275" fill="none" xmlns="http://www.w3.org/2000/svg">
<g clip-path="url(#clip0_21_2)">
<path d="M118.73 0C96.1815 29.2777 85.1123 65.7879 87.606 102.658C90.0998 139.528 105.984 174.215 132.27 200.19L118.78 253.37L184.53 235.12V233.93C215.372 245.746 249.23 247.16 280.95 237.958C312.669 228.755 340.513 209.439 360.242 182.952C379.971 156.464 390.505 124.255 390.239 91.2286C389.973 58.202 378.923 26.1667 358.77 0L118.73 0Z" fill="white"/>
<path d="M366.86 0C367.54 1.15 368.23 2.29 368.86 3.45C370.08 5.61 371.28 7.79 372.48 9.97C373.04 10.97 373.63 11.97 374.13 12.97C374.63 13.97 375.07 15.3 375.64 16.42C376.04 17.21 376.74 17.85 377.07 18.65C377.7 20.15 378.13 21.74 378.71 23.26C379.04 24.12 379.66 24.89 379.92 25.77C380.61 28.11 381.16 30.49 381.81 32.85C382.62 35.76 383.57 38.65 384.28 41.59C385.23 45.49 386.83 49.19 386.97 53.35C387.11 57.51 387.97 61.6 388.44 65.74C388.52 67.493 388.5 69.2492 388.38 71C388.38 71.36 388.38 71.73 388.38 72.1C388.38 73.38 388.38 74.67 388.38 75.95C388.32 78.31 388.1 80.67 388.18 83.02C388.345 86.3212 388.124 89.6303 387.52 92.88C386.94 95.74 386.73 98.68 386.32 101.59C386.17 102.67 385.88 103.74 385.7 104.82C385.29 107.31 385.06 109.82 384.5 112.28C383.94 114.74 383.1 116.94 382.39 119.28C382.316 119.425 382.262 119.58 382.23 119.74C382.23 122.56 380.83 125 380 127.6C379.43 129.4 379 131.26 378.47 133.07C378.11 134.23 377.56 135.33 377.18 136.49C376.245 139.482 374.946 142.346 373.31 145.02C373.006 145.638 372.735 146.272 372.5 146.92C371.31 149.39 370.18 151.92 368.89 154.31C367.98 156.03 366.89 157.65 365.82 159.31C364.12 162.02 362.5 164.79 360.68 167.41C358.86 170.03 356.98 172.34 355.05 174.75C353.05 177.31 350.92 179.82 348.81 182.32C347.58 183.77 346.27 185.13 345 186.55C343.54 188.18 342.17 189.9 340.62 191.45C339.07 193 337.47 194.24 335.86 195.6C334.44 196.79 333.02 197.98 331.53 199.08C329.78 200.38 327.93 201.53 326.18 202.82C325.05 203.64 324.02 204.62 322.91 205.47C322.33 205.91 321.66 206.22 321.04 206.61C318.11 208.42 315.2 210.25 312.27 212.05C310.27 213.31 308.21 214.58 306.13 215.75C304.87 216.46 303.51 217 302.18 217.59C300.1 218.51 298.03 219.45 295.93 220.3C293.52 221.3 291.07 222.13 288.66 223.08C287.77 223.44 286.96 223.97 286.07 224.33C285.18 224.69 284.43 224.8 283.63 225.08C281.98 225.63 280.36 226.26 278.7 226.78C276.85 227.37 274.97 227.86 273.1 228.4C271.804 228.845 270.486 229.222 269.15 229.53C266.59 229.98 264 230.24 261.44 230.65C260.44 230.81 259.44 231.32 258.49 231.41C255.93 231.64 253.36 231.68 250.8 231.88C249.16 232.01 247.53 232.3 245.89 232.5C245.28 232.57 244.67 232.57 244.06 232.62C242.37 232.78 240.68 233 238.99 233.1C236.18 233.26 233.37 233.44 230.57 233.45C227.09 233.45 223.57 233.37 220.14 233.21C216.08 233.023 212.027 232.763 207.98 232.43C206.41 232.31 204.87 231.87 203.31 231.69C202.74 231.62 202.11 232.06 201.54 231.98C199.14 231.64 196.75 231.2 194.37 230.78C193.604 230.559 192.826 230.378 192.04 230.24C190.129 230.087 188.279 229.499 186.63 228.52C186.478 228.447 186.307 228.422 186.14 228.45C183.97 228.61 182.14 227.6 180.26 226.79C178.62 226.1 176.82 225.46 175.02 226.05C173.956 226.511 172.949 227.095 172.02 227.79C170.7 228.61 169.67 229.9 167.88 229.96C167.23 229.96 166.61 230.65 165.96 230.96C164.27 231.87 162.58 232.78 160.88 233.65C158.57 234.83 156.22 235.95 153.88 237.14C152.42 237.9 151.02 238.79 149.56 239.57C148.1 240.35 146.75 241.05 145.33 241.74C142.99 242.89 140.66 244.03 138.33 245.11C137.33 245.55 136.33 245.77 135.33 246.17C132.76 247.23 130.19 248.27 127.67 249.43C125.15 250.59 123.61 250.01 122.62 248.43C122.378 248.004 122.272 247.514 122.317 247.026C122.362 246.538 122.555 246.075 122.87 245.7C124.43 243 126.16 240.39 127.54 237.61C128.92 234.83 129.95 231.66 131.27 228.74C132.43 226.16 133.81 223.74 135.06 221.16C135.55 220.16 135.96 219.16 136.37 218.16C137.14 216.24 137.88 214.3 138.66 212.37C139.007 211.732 139.292 211.063 139.51 210.37C139.57 210.06 139.11 209.48 138.74 209.3C136.921 208.593 135.255 207.544 133.83 206.21C132.626 205.154 131.346 204.188 130 203.32C129.475 202.823 129.003 202.273 128.59 201.68C128.41 201.46 128.26 201.21 128.06 201.01C126.95 199.9 125.81 198.81 124.72 197.69C123.63 196.57 122.35 195.29 121.23 194.02C120.47 193.16 119.82 192.19 119.13 191.26C118.91 190.97 118.74 190.64 118.5 190.36C117.27 188.95 115.91 187.63 114.79 186.14C113.13 183.91 111.64 181.55 110.05 179.26C108.58 177.14 107.05 175.05 105.62 172.9C104.97 171.9 104.51 170.85 103.9 169.9C103.39 169.07 102.74 168.32 102.23 167.49C100.719 165.315 99.3811 163.025 98.2301 160.64C97.5901 159.09 96.4401 157.97 95.8101 156.5C94.8101 154.08 93.8101 151.63 92.6901 149.22C91.952 147.439 91.3405 145.607 90.8601 143.74C90.0601 140.99 88.7501 138.39 87.7501 135.74C87.2401 134.38 86.9701 132.93 86.5101 131.55C86.2401 130.75 85.6901 130.05 85.4201 129.26C84.7201 127.18 84.0801 125.08 83.4801 122.97C82.7401 120.4 81.9701 117.84 81.3901 115.23C80.9201 113.08 80.7001 110.88 80.3901 108.7C80.1301 106.97 79.8201 105.24 79.6601 103.5C79.4301 100.91 79.3601 98.31 79.1201 95.73C78.9001 93.41 78.4601 91.12 78.2701 88.81C78.1301 87.09 78.2701 85.36 78.2701 83.64C78.2001 81.48 78.0301 79.33 77.9701 77.17C77.8801 75.3945 77.8801 73.6155 77.9701 71.84C78.2201 68.19 78.5201 64.54 78.9701 60.91C79.2901 58.07 79.7601 55.23 80.3001 52.42C80.8401 49.61 81.4501 46.95 82.1501 44.24C83.0801 40.62 84.0301 36.99 85.1501 33.42C86.6568 28.58 88.2568 23.7667 89.9501 18.98C90.6377 17.2064 91.4601 15.488 92.4101 13.84C94.3301 10.3 96.2934 6.78667 98.3001 3.3C98.8901 2.1 99.7001 1.07 100.43 0H108.57C107 2.43 105.44 4.87 103.84 7.29C103.13 8.36 102.28 9.35 101.64 10.46C101 11.57 100.56 12.78 100 13.93C98.7101 16.61 97.5401 19.37 96.0501 21.93C95.6155 22.9417 95.2805 23.9933 95.0501 25.07C94.4001 26.85 93.5901 28.58 93.0501 30.38C92.5101 32.18 92.2001 33.78 91.7601 35.49C91.0501 38.28 90.3501 41.08 89.5701 43.85C88.9301 46.1 87.9901 48.28 87.5001 50.57C86.9001 53.43 86.6301 56.37 86.2101 59.28C85.8901 61.46 85.4401 63.62 85.2101 65.8C84.7683 69.3585 84.6012 72.9458 84.7101 76.53C84.9601 80.4 84.8201 84.29 85.0701 88.15C85.2901 91.47 85.8501 94.77 86.2001 98.08C86.4101 100.08 86.4501 101.99 86.6501 103.93C86.8301 105.7 87.1501 107.45 87.3701 109.21C87.5401 110.47 87.5401 111.75 87.8101 112.99C88.1701 114.69 88.7201 116.36 89.1901 118.04C90.0401 121.04 90.7701 124.04 91.7701 126.96C92.8701 130.19 94.2401 133.32 95.4501 136.52C95.6801 137.12 95.6101 137.84 95.8301 138.44C97.0901 141.92 98.2901 145.44 99.7201 148.84C101.048 152.185 102.595 155.439 104.35 158.58C107.29 163.58 110.55 168.46 113.67 173.39C115.35 176.04 117 178.7 118.67 181.39C118.85 181.69 119.19 181.88 119.43 182.15C120.09 182.91 120.74 183.68 121.37 184.47C123.02 186.54 124.57 188.68 126.3 190.68C128.89 193.68 131.52 196.68 134.3 199.45C135.859 200.938 137.553 202.277 139.36 203.45C141.52 204.95 143.79 206.28 145.99 207.72C146.305 208.04 146.482 208.471 146.482 208.92C146.482 209.369 146.305 209.8 145.99 210.12C144.66 211.05 144.58 212.55 143.99 213.82C143.21 215.52 142.49 217.23 141.8 218.97C141.2 220.48 140.8 222.06 140.12 223.54C139.44 225.02 138.47 226.39 137.8 227.89C137.06 229.55 136.57 231.33 135.88 233.03C135.1 234.98 134.22 236.9 133.39 238.84C133.2 239.28 133.03 239.73 132.81 240.28C134.91 239.48 136.81 238.78 138.81 237.98C139.93 237.5 140.98 236.85 142.06 236.28C144.19 235.15 146.34 234.05 148.46 232.88C151.31 231.32 154.11 229.68 156.96 228.13C158.05 227.54 159.27 227.18 160.36 226.57C162.3 225.48 164.16 224.25 166.1 223.14C167.86 222.14 169.68 221.27 171.44 220.3C172.11 219.924 172.734 219.47 173.3 218.95C175.62 216.83 175.93 216.88 178.84 218.03C181.53 219.09 184.32 219.89 187.09 220.74C189.66 221.53 192.24 222.33 194.86 222.93C196.76 223.37 198.73 223.49 200.66 223.76C201.02 223.76 201.38 223.87 201.75 223.89C202.87 223.97 204 224 205.12 224.11C206.24 224.22 207.12 224.41 208.12 224.5C209.94 224.65 211.77 224.74 213.59 224.87C216.39 225.06 219.18 225.28 221.98 225.48C222.143 225.495 222.307 225.495 222.47 225.48C225.9 225.07 229.31 225.63 232.72 225.6C234.8 225.6 236.86 225.2 238.94 225.1C240.8 225.01 242.67 225.1 244.53 225.04C245.14 225.04 245.73 224.61 246.35 224.55C248.2 224.34 250.07 224.22 251.93 224.06C254.51 223.83 257.1 223.67 259.67 223.35C261.95 223.06 264.2 222.35 266.49 222.23C269.84 222.05 272.92 220.84 276.1 220.07C278.309 219.381 280.473 218.556 282.58 217.6C282.95 217.46 283.37 217.43 283.74 217.29C286 216.417 288.25 215.533 290.49 214.64C292.71 213.76 294.94 212.88 297.14 211.94C299.04 211.13 300.93 210.27 302.79 209.37C304.48 208.55 306.14 207.69 307.79 206.77C309.06 206.06 310.27 205.23 311.5 204.45C313.447 203.223 315.39 201.983 317.33 200.73C318.98 199.67 320.65 198.65 322.24 197.51C323.83 196.37 325.35 195.08 326.9 193.87C327.653 193.194 328.467 192.588 329.33 192.06C331.016 190.98 332.53 189.652 333.82 188.12C334.42 187.53 335.08 186.99 335.68 186.39C337.47 184.6 339.3 182.83 341.02 180.97C342.12 179.78 343.02 178.39 344.07 177.15C345.69 175.25 347.46 173.47 349.01 171.52C350.71 169.37 352.23 167.07 353.85 164.85C354.85 163.45 355.97 162.1 356.99 160.69C357.5 159.98 357.91 159.18 358.37 158.42C359.15 157.09 359.95 155.77 360.72 154.42C362.11 152.02 363.53 149.62 364.86 147.19C365.54 145.94 366.02 144.6 366.65 143.32C367.13 142.32 367.73 141.46 368.2 140.49C368.5 139.9 368.6 139.22 368.9 138.63C369.873 136.898 370.549 135.015 370.9 133.06C371.143 132.206 371.478 131.381 371.9 130.6C373.007 128.126 373.835 125.537 374.37 122.88C374.503 121.983 374.824 121.125 375.31 120.36C375.89 119.217 376.214 117.961 376.26 116.68C376.477 115.328 376.781 113.992 377.17 112.68C378.38 108.85 378.61 104.86 379.22 100.93C379.48 99.28 379.95 97.66 380.22 96.01C380.72 93.01 381.22 89.9 381.57 86.83C381.67 86.04 381.35 85.21 381.39 84.4C381.52 81.19 381.78 77.98 381.86 74.76C381.94 71.54 381.98 68.4 381.8 65.23C381.66 62.86 381.11 60.51 380.8 58.15C380.49 55.79 380.36 53.36 380.09 50.97C379.958 49.9748 379.761 48.9894 379.5 48.02C379.1 46.45 378.68 44.89 378.21 43.34C377.54 41.1 376.81 38.88 376.11 36.64C375.74 35.43 375.4 34.22 375.04 33.01C374.15 30.01 373.34 27.01 372.33 24.13C371.76 22.47 370.83 20.93 370.1 19.32C369.15 17.21 368.34 15.02 367.27 12.98C365.75 10.1 364.07 7.31 362.43 4.5C361.54 2.99 360.59 1.5 359.68 0.03L366.86 0Z" fill="#0E2043"/>
<path d="M195.6 166.71C199.11 166.19 202.6 165.71 206.13 165.13C209.33 164.6 212.52 163.95 215.72 163.33C216.91 163.09 218.1 162.8 219.29 162.5C220.87 162.1 222.43 161.62 224.02 161.26C225.95 160.81 227.9 160.46 229.84 160.05C231.78 159.64 233.74 159.2 235.69 158.77C238.51 158.15 241.34 157.51 244.17 156.91C247.71 156.16 251.24 155.41 254.79 154.73C256.39 154.42 258.03 154.3 259.63 154.03C261.5 153.73 263.36 153.33 265.22 153.03C269 152.4 272.78 151.8 276.55 151.19C280.32 150.58 284.05 149.95 287.8 149.35L296.8 147.9C300.29 147.34 303.8 146.81 307.28 146.25C311.75 145.53 316.22 144.73 320.71 144.09C325.9 143.34 331.12 142.74 336.32 142.03C338.32 141.75 340.32 141.26 342.32 141.03C345.81 140.66 349.32 140.39 352.81 140.18C354.12 140.1 355.66 142.07 354.99 142.87C354.32 143.67 353.59 144.63 352.21 144.64C349.91 144.64 347.6 144.76 345.31 144.99C343.02 145.22 340.49 145.65 338.08 145.99C335.45 146.36 332.81 146.69 330.18 147.07C326.86 147.56 323.56 148.07 320.25 148.56C319.25 148.69 318.25 148.46 317.32 148.63C314.43 149.14 311.58 149.8 308.69 150.32C305.8 150.84 303.05 151.21 300.22 151.66C297.81 152.05 295.41 152.49 293 152.82C290.06 153.23 287.09 153.49 284.16 153.93C282.11 154.24 280.1 154.79 278.05 155.14C276 155.49 274.17 155.64 272.23 155.93C269.71 156.31 267.23 156.75 264.69 157.14C261.94 157.57 259.17 157.92 256.42 158.41C253.42 158.94 250.42 159.56 247.42 160.2C243.09 161.13 238.78 162.14 234.42 163.07C232.8 163.42 231.12 163.55 229.49 163.89C227.49 164.32 225.56 164.89 223.58 165.35C220.94 165.97 218.28 166.55 215.63 167.15C214.63 167.37 213.63 167.64 212.63 167.83C211.47 168.04 210.3 168.17 209.13 168.37C206.6 168.8 204.13 169.37 201.55 169.65C199.41 169.88 197.23 169.72 195.08 169.76C194.08 169.76 192.94 170.05 192.39 168.89C192.2 168.5 192.23 167.62 192.47 167.48C193.389 166.998 194.341 166.584 195.32 166.24L195.6 166.71Z" fill="#0E2043"/>
<path d="M294.69 166.53C293.2 166.77 291.69 167.05 290.21 167.26C286.55 167.77 282.88 168.26 279.21 168.77C277.12 169.09 275.06 169.61 272.98 169.98C271.17 170.31 269.35 170.57 267.54 170.85C265.73 171.13 263.84 171.44 261.98 171.72C259.87 172.04 257.75 172.33 255.64 172.65C252.8 173.07 249.95 173.45 247.12 173.95C245.21 174.29 243.33 174.83 241.42 175.22C236.96 176.12 232.49 176.97 228.04 177.87C225.83 178.32 223.65 178.87 221.46 179.35C220.04 179.65 218.62 179.94 217.19 180.12C215.39 180.34 214.28 179 215.02 177.38C215.25 176.87 216.19 176.54 216.87 176.38C219.51 175.74 222.17 175.18 224.87 174.62C230.51 173.433 236.147 172.26 241.78 171.1C244.2 170.6 246.62 170.1 249.05 169.67C251.63 169.19 254.22 168.77 256.81 168.34C259.663 167.86 262.513 167.4 265.36 166.96C270.16 166.22 274.97 165.53 279.77 164.79C282.23 164.41 284.67 163.94 287.11 163.54C290.717 162.94 294.327 162.353 297.94 161.78C301.09 161.28 304.24 160.78 307.4 160.3C308.58 160.12 309.97 160.71 310.16 161.41C310.4 162.27 309.37 163.76 308.16 164.04C305.66 164.6 303.16 165.04 300.61 165.54C299.05 165.84 297.48 166.12 295.92 166.41C295.53 166.48 295.13 166.57 294.74 166.66L294.69 166.53Z" fill="#0E2043"/>
<path d="M178.28 51.66C179.07 50.2 179.73 49.05 180.28 47.86C180.574 47.3608 180.976 46.9344 181.458 46.6123C181.939 46.2903 182.487 46.081 183.06 46C183.8 46.05 184.91 47.69 184.89 48.67C184.81 52.29 184.7 55.91 184.68 59.52C184.68 60.52 185.03 61.52 184.42 62.52C184.276 62.8688 184.017 63.1579 183.686 63.3397C183.355 63.5215 182.972 63.5851 182.6 63.52C182.145 63.5195 181.706 63.3491 181.369 63.0421C181.032 62.7351 180.822 62.3136 180.78 61.86C180.7 59.86 180.78 57.95 180.71 56C180.71 55.57 180.65 55.13 180.61 54.63C180.179 54.8048 179.802 55.0916 179.519 55.4608C179.236 55.8301 179.057 56.2682 179 56.73C178.56 58.64 178.55 60.79 176.9 62.2C175.798 63.1586 174.594 63.9936 173.31 64.69C172.477 65.0901 171.524 65.1621 170.64 64.8916C169.756 64.621 169.007 64.0279 168.54 63.23C166.963 60.9488 166.253 58.1786 166.54 55.42C166.635 53.9704 166.886 52.5354 167.29 51.14C168.04 48.67 171.29 46.14 173.62 46.85C175.279 47.457 176.655 48.6578 177.48 50.22C177.69 50.56 177.86 50.92 178.28 51.66ZM170.22 56.52C170.48 57.71 170.75 59.15 171.14 60.52C171.251 60.6792 171.402 60.8071 171.577 60.8911C171.752 60.9752 171.946 61.0127 172.14 61C175.82 59 175.93 54.63 173.8 51.76C173.38 51.18 172.8 50.36 172.03 50.85C171.406 51.25 170.944 51.86 170.73 52.57C170.473 53.8739 170.302 55.1935 170.22 56.52Z" fill="#0E2043"/>
<path d="M109.15 124.34C112.91 124.87 114.49 127.34 115.15 130.66C115.3 131.41 115.67 132.11 115.85 132.86C115.949 133.1 115.991 133.36 115.973 133.619C115.955 133.878 115.877 134.129 115.745 134.353C115.613 134.577 115.431 134.767 115.213 134.909C114.996 135.051 114.748 135.14 114.49 135.17C113.6 135.36 112.86 134.69 112.54 133.62C112.04 131.97 111.68 130.26 110.37 128.96C109.56 128.15 108.71 128.13 108.37 129.24C107.885 130.481 107.625 131.798 107.6 133.13C107.68 133.628 107.575 134.139 107.304 134.564C107.033 134.99 106.615 135.302 106.13 135.44C105.727 135.481 105.321 135.425 104.944 135.275C104.568 135.125 104.234 134.887 103.97 134.58C103.177 133.398 102.61 132.079 102.3 130.69C101.8 128.19 101.52 125.63 101.3 123.08C100.889 119.639 101.665 116.16 103.5 113.22C104.195 111.965 105.008 110.779 105.93 109.68C106.233 109.279 106.638 108.965 107.101 108.771C107.565 108.577 108.072 108.509 108.571 108.574C109.07 108.639 109.542 108.834 109.941 109.141C110.339 109.448 110.649 109.855 110.84 110.32C111.52 111.552 111.901 112.927 111.953 114.334C112.006 115.741 111.727 117.14 111.14 118.42C110.363 120.353 109.699 122.33 109.15 124.34ZM107.59 113.6C106.01 116.36 104.77 119.19 105.34 122.47C105.731 122.019 106.03 121.496 106.22 120.93C106.503 119.639 106.932 118.384 107.5 117.19C108.31 115.91 107.85 114.81 107.59 113.6Z" fill="#0E2043"/>
<path d="M170.67 117.23C170.07 117.53 169.61 117.8 169.12 118C168.915 118.126 168.682 118.2 168.442 118.215C168.201 118.23 167.961 118.187 167.741 118.089C167.521 117.99 167.329 117.839 167.181 117.65C167.033 117.46 166.933 117.237 166.89 117C166.69 116.47 166.65 115.88 166.46 115.35C166.271 114.86 166.05 114.382 165.8 113.92L165.37 113.82C165.066 114.456 164.844 115.128 164.71 115.82C164.594 118.154 165.047 120.48 166.03 122.6C167.37 122.48 168.75 122.02 169.89 122.35C171.234 122.763 172.422 123.572 173.3 124.67C174.026 125.791 174.399 127.104 174.37 128.44C174.37 131.21 171.58 133.3 169.37 133.72C168.5 133.88 165.95 132.79 165.37 131.48C164.53 129.55 163.14 127.87 163.11 125.58C163.11 124.58 162.41 123.71 162.11 122.74C161.62 121.148 161.222 119.528 160.92 117.89C160.7 116.873 160.689 115.822 160.889 114.801C161.088 113.779 161.493 112.809 162.08 111.95C162.615 111.163 163.399 110.58 164.307 110.295C165.214 110.01 166.192 110.04 167.08 110.38C167.236 110.42 167.399 110.422 167.556 110.385C167.713 110.349 167.858 110.275 167.98 110.17C170.04 107.82 172.27 108.27 173.51 110.9C174.26 112.51 175.16 113.99 174.85 115.81C174.634 116.829 174.347 117.831 173.99 118.81C173.82 119.34 173.6 119.72 172.86 119.51C172.12 119.3 171.19 119.33 170.86 118.33C170.83 117.94 170.77 117.63 170.67 117.23ZM170.75 127.66C170.75 126.38 169.87 125.95 168.97 125.66C168.736 125.631 168.499 125.656 168.277 125.734C168.055 125.812 167.854 125.941 167.69 126.11C167.47 126.33 167.53 126.92 167.63 127.31C167.788 127.816 168.01 128.3 168.29 128.75C168.84 129.75 169.52 129.86 170.23 128.94C170.462 128.539 170.637 128.109 170.75 127.66Z" fill="#0E2043"/>
<path d="M261.26 67.1301C259.852 67.1538 258.477 66.6973 257.363 65.8357C256.249 64.9742 255.461 63.759 255.13 62.3901C254.556 60.4412 254.257 58.4217 254.24 56.3901C254.239 55.2217 254.495 54.0673 254.991 53.0095C255.487 51.9516 256.211 51.0162 257.11 50.2701C257.489 49.9797 257.777 49.5878 257.942 49.1399C258.106 48.692 258.14 48.2066 258.04 47.7401C257.95 46.4801 257.68 45.2201 258.46 44.0301C258.84 43.4501 259.19 42.9001 259.99 43.1201C260.79 43.3401 260.94 43.7701 260.99 44.5801C261.11 45.9499 261.323 47.3098 261.63 48.6501C261.677 48.7605 261.749 48.858 261.841 48.9346C261.934 49.0111 262.043 49.0645 262.16 49.0901C263.96 49.2901 265.04 50.5801 266.05 51.8201C267.131 53.0273 268.016 54.3974 268.67 55.8801C269.51 58.0501 268.67 60.2201 267.79 62.2401C267.311 63.2766 266.706 64.2505 265.99 65.1401C264.8 66.6401 263 66.8901 261.26 67.1301ZM262 53.7801C262 54.7201 262.09 55.5701 262.12 56.4101C262.169 56.6724 262.164 56.9419 262.107 57.2025C262.05 57.4632 261.942 57.7098 261.788 57.9278C261.634 58.1459 261.439 58.331 261.212 58.4722C260.986 58.6134 260.733 58.7079 260.47 58.7501C259.917 58.7377 259.389 58.5145 258.995 58.126C258.601 57.7375 258.37 57.2131 258.35 56.6601C258.35 56.3001 258.26 55.9501 258.17 55.3801C257.46 57.0301 258.29 61.4901 259.35 62.4901C259.608 62.7506 259.92 62.9516 260.265 63.0789C260.609 63.2062 260.976 63.2569 261.342 63.2274C261.708 63.1979 262.063 63.0889 262.382 62.908C262.701 62.7271 262.977 62.4787 263.19 62.1801C263.78 61.1053 264.292 59.9891 264.72 58.8401C265.53 57.0001 263.83 54.3201 262 53.7801Z" fill="#0E2043"/>
<path d="M108.36 86.17C108.65 85.62 108.88 85.17 109.09 84.77C110.55 81.77 111.82 81.77 114.52 82.77C116.33 83.6115 117.82 85.0142 118.77 86.77C119.84 88.43 119.14 89.93 118.4 91.35C117.685 92.5731 116.883 93.7428 116 94.85C114.73 96.64 112.18 97.64 110.24 95.18C109.12 93.76 108.24 92.18 107.24 90.63C107.053 90.3135 106.796 90.0434 106.49 89.84C106.319 90.9514 106.381 92.0863 106.671 93.1726C106.962 94.2589 107.476 95.2728 108.18 96.15C109.55 97.87 111.01 99.53 112.43 101.15C110.96 103.39 109.43 103.39 107.87 101.25C107.65 100.94 107.1 100.87 106.82 100.58C103.58 97.23 101.82 93.32 102.74 88.58C103.18 86.25 104.39 85.28 106.38 85.44C107.069 85.5962 107.734 85.8416 108.36 86.17ZM112.96 92.17C113.33 91.71 113.68 91.17 114.09 90.78C115.26 89.55 115.37 88.51 114.25 87.32C113.88 86.92 113 86.42 112.76 86.58C110.72 88 110.82 90.69 113 92.17H112.96Z" fill="#0E2043"/>
<path d="M244.26 88.75C244.306 89.6153 244.543 90.4597 244.955 91.2222C245.366 91.9848 245.942 92.6466 246.64 93.16C248.01 94.43 249.53 95.53 250.89 96.8C251.051 96.9309 251.183 97.0943 251.277 97.2796C251.371 97.4649 251.425 97.6679 251.436 97.8755C251.446 98.083 251.413 98.2904 251.338 98.4841C251.263 98.6779 251.148 98.8537 251 99C250.758 99.2376 250.47 99.4225 250.153 99.5429C249.837 99.6634 249.499 99.7169 249.16 99.7C248.025 99.3783 246.924 98.9497 245.87 98.42C245.72 98.36 245.51 98.29 245.47 98.17C244.83 96.17 242.91 95.24 241.94 93.56C240.61 91.27 239.51 88.88 239.94 86.09C240.084 85.5123 240.42 85.0003 240.892 84.6372C241.364 84.2741 241.945 84.0813 242.54 84.09C243.798 84.3211 245.019 84.7214 246.17 85.28C246.86 85.6 247.17 85.73 247.63 84.99C248.97 82.83 251.93 81.44 253.9 81.91C255.87 82.38 257.48 84.56 257.9 86.74C258.103 87.9625 257.953 89.2176 257.465 90.3571C256.978 91.4965 256.175 92.4726 255.15 93.17C254.479 93.6085 253.705 93.8634 252.905 93.909C252.105 93.9546 251.306 93.7895 250.59 93.43C248.508 92.5065 246.652 91.1416 245.15 89.43C244.81 89.19 244.52 89 244.26 88.75ZM253.86 87.75C253.86 86.75 253.36 86.01 252.66 86.05C252.163 86.1865 251.713 86.4576 251.36 86.8334C251.007 87.2093 250.765 87.6753 250.66 88.18C250.738 88.5734 250.932 88.9344 251.217 89.2162C251.502 89.4979 251.866 89.6874 252.26 89.76C252.722 89.6659 253.136 89.4116 253.429 89.042C253.722 88.6724 253.874 88.2113 253.86 87.74V87.75Z" fill="#0E2043"/>
<path d="M134.65 115.77C135.09 118.43 135.51 120.95 135.93 123.5C139.72 121.86 142.56 122.8 144.23 125.94C144.829 127.258 145.017 128.726 144.771 130.152C144.525 131.579 143.856 132.899 142.85 133.94C142.284 134.526 141.548 134.92 140.746 135.065C139.943 135.211 139.116 135.1 138.38 134.75C137.61 134.445 136.909 133.99 136.316 133.412C135.724 132.833 135.253 132.143 134.93 131.38C134.54 130.799 134.116 130.242 133.66 129.71C131.88 127.3 132.41 124.28 131.66 121.6C130.97 119.23 130.66 116.76 130.06 114.34C129.71 112.79 130.43 111.71 132 111.75C133.57 111.79 135.17 111.97 136.76 112.09C137.61 112.15 138.46 112.18 139.3 112.31C140.4 112.48 140.68 113.31 139.98 114.14C139.593 114.675 139.067 115.093 138.458 115.349C137.85 115.604 137.183 115.688 136.53 115.59C135.898 115.569 135.266 115.629 134.65 115.77ZM141.2 128.77C141.041 128.203 140.841 127.648 140.6 127.11C140.522 126.862 140.382 126.638 140.194 126.458C140.007 126.278 139.777 126.149 139.526 126.081C139.275 126.013 139.011 126.01 138.758 126.071C138.506 126.132 138.272 126.255 138.08 126.43C137 127.17 136.91 127.93 137.77 129C138.075 129.445 138.409 129.87 138.77 130.27C139.13 130.63 139.65 131.14 140.01 131.08C140.37 131.02 140.7 130.37 140.95 129.93C141.087 129.557 141.171 129.167 141.2 128.77Z" fill="#0E2043"/>
<path d="M146.89 67.64C145.681 67.5655 144.48 67.3915 143.3 67.12C140.51 66.23 139.09 62.44 140.17 59.72C140.877 58.2509 141.854 56.9279 143.05 55.82C143.492 55.0562 143.752 54.2007 143.81 53.32C143.81 53.23 143.33 52.93 143.04 52.88C139.88 52.34 138.57 50.09 138.63 47.15C138.63 46.55 139.52 45.51 140.02 45.49C140.72 45.49 141.47 46.18 142.13 46.67C142.33 46.82 142.33 47.28 142.35 47.6C142.343 47.8378 142.385 48.0746 142.474 48.2952C142.563 48.5159 142.696 48.7158 142.867 48.8821C143.037 49.0485 143.239 49.1777 143.462 49.2617C143.685 49.3457 143.922 49.3825 144.16 49.37C145 49.45 145.83 49.61 146.67 49.63C148.58 49.63 149.79 51.14 148.88 53.32C148.66 53.86 148.03 54.53 148.18 54.86C148.606 55.6371 149.189 56.3179 149.89 56.86C151.217 57.8526 152.175 59.2606 152.61 60.86C152.68 61.1349 152.72 61.4165 152.73 61.7C152.73 63.38 150.58 66.27 148.98 66.85C148.22 67.14 147.47 67.43 146.89 67.64ZM146 63.38C147.19 63.38 148.69 62.38 148.32 61.76C147.675 60.7645 146.792 59.9462 145.75 59.38C145.19 59.04 144.03 60.47 144.04 61.38C144.05 62.83 144.58 63.37 146 63.38Z" fill="#0E2043"/>
<path d="M226.72 118C226.667 117.529 226.56 117.066 226.4 116.62C226.232 116.279 225.938 116.017 225.58 115.89C222.76 115.21 220.64 113.76 219.74 110.89C219.42 109.89 219.67 108.74 220.51 108.55C220.936 108.468 221.378 108.528 221.767 108.719C222.157 108.91 222.474 109.223 222.67 109.61C223.25 110.424 223.921 111.169 224.67 111.83C225.056 112.143 225.527 112.33 226.022 112.368C226.517 112.405 227.012 112.291 227.44 112.04C227.698 111.95 227.973 111.919 228.245 111.949C228.516 111.98 228.777 112.072 229.008 112.219C229.239 112.365 229.434 112.562 229.578 112.794C229.722 113.026 229.812 113.288 229.84 113.56C229.92 114.56 229.73 115.61 230.38 116.62C230.837 117.468 231.532 118.164 232.38 118.62C234.94 119.82 235.65 122.08 235.57 124.62C235.51 126.49 232.88 128.95 231.19 129.52C229.619 129.966 227.965 130.041 226.36 129.74C224.24 129.51 222.11 126.89 222.12 124.8C222.12 123.35 222.05 121.99 222.94 120.73C224.15 118.94 224.11 118.91 226.72 118ZM228.08 126.17C228.69 126.18 229.296 126.064 229.859 125.828C230.422 125.592 230.929 125.242 231.35 124.8C231.485 124.643 231.588 124.46 231.652 124.263C231.715 124.065 231.739 123.857 231.721 123.65C231.704 123.443 231.645 123.242 231.548 123.059C231.452 122.875 231.32 122.712 231.16 122.58C230.66 122 230.16 121.97 229.46 122.48C229.232 122.572 228.987 122.613 228.742 122.601C228.497 122.589 228.258 122.524 228.04 122.41C227.851 122.276 227.631 122.193 227.401 122.168C227.171 122.143 226.938 122.177 226.724 122.267C226.511 122.357 226.324 122.5 226.182 122.683C226.039 122.865 225.946 123.081 225.91 123.31C225.79 123.644 225.756 124.003 225.81 124.354C225.865 124.704 226.007 125.036 226.223 125.317C226.439 125.599 226.722 125.822 227.046 125.966C227.371 126.109 227.726 126.169 228.08 126.14V126.17Z" fill="#0E2043"/>
<path d="M242.05 112.27C240.21 113.4 239.77 114.82 239.94 116.87C240.309 120.184 241.112 123.436 242.33 126.54C242.93 128.23 242.59 129.47 241.59 129.74C241.228 129.816 240.854 129.812 240.493 129.729C240.132 129.646 239.794 129.486 239.501 129.26C239.209 129.034 238.969 128.747 238.797 128.419C238.626 128.091 238.528 127.73 238.51 127.36C238.21 124.88 236.97 122.66 236.68 120.19C236.5 118.71 236.33 117.19 236.17 115.74C236.17 115.59 236.27 115.41 236.24 115.26C235.65 112.72 237.24 111.26 238.96 109.94C239.808 109.151 240.728 108.445 241.71 107.83C242.05 107.672 242.42 107.59 242.795 107.59C243.17 107.59 243.54 107.672 243.88 107.83C244.667 108.399 245.291 109.165 245.69 110.05C246.067 111.019 246.342 112.024 246.51 113.05C247.11 115.56 247.74 118.05 248.27 120.6C248.69 122.66 249.03 124.75 249.27 126.84C249.258 127.09 249.182 127.333 249.049 127.545C248.916 127.757 248.73 127.931 248.51 128.05C247.77 128.2 246.7 128.31 246.24 127.91C245.705 127.202 245.339 126.381 245.17 125.51C245.01 124.996 244.887 124.471 244.8 123.94C244.08 120.47 243.39 116.94 242.65 113.52C242.505 113.079 242.303 112.659 242.05 112.27Z" fill="#0E2043"/>
<path d="M243.65 50.8601C244.04 52.5001 244.47 54.2701 244.9 56.0701C244.97 56.0701 245.12 56.0701 245.2 56.0701C247.58 54.4301 250.32 54.8601 251.6 57.4701C252.42 59.1401 253.09 61.0501 252.08 63.1101C251.742 64.123 251.205 65.058 250.5 65.8601C248.73 67.4801 244.76 67.2301 243.3 65.1201C241.954 63.1856 241.159 60.9215 241 58.5701C240.8 56.3501 240.39 54.1401 240 51.9301C239.93 51.5701 239.41 51.3101 239.16 50.9301C238.79 50.3901 238.21 49.8101 238.16 49.2201C238.08 47.4301 238.36 47.1301 240.26 47.1501C242.67 47.1501 244.7 46.0101 246.91 45.3901C247.508 45.2237 248.145 45.2733 248.71 45.5301C249.92 46.2301 249.77 47.5301 248.2 48.5301C246.727 49.3892 245.208 50.167 243.65 50.8601ZM245 60.0001C245.62 61.3101 245.58 62.9101 247.24 63.0001C247.65 63.0001 248.38 62.1401 248.47 61.6001C248.6 60.8001 248.57 59.6001 248.09 59.1701C246.89 58.1401 246.13 59.6901 245 60.0001Z" fill="#0E2043"/>
<path d="M291.13 47.1701C289.56 47.2401 289.3 48.4801 288.75 49.3501C287.33 51.5901 287.26 54.1101 287.29 56.7301C288.21 56.3601 289.06 56.0001 289.92 55.7301C290.62 55.4801 292.5 56.5001 293.07 57.2701C294.84 59.6601 294.95 62.4101 294.71 65.1901C294.66 65.7401 293.79 66.7201 293.57 66.6501C292.785 66.4472 292.102 65.9633 291.65 65.2901C291.355 64.2763 291.171 63.2336 291.1 62.1801C290.925 61.3258 290.622 60.5031 290.2 59.7401C289.176 60.7732 288.583 62.1564 288.54 63.6101C288.545 64.1394 288.481 64.6671 288.35 65.1801C288.16 65.6101 287.58 66.2701 287.35 66.1801C286.69 66.0101 286 66.6101 285.35 65.7301C283.76 63.7301 283.83 61.2701 283.54 58.9701C283.282 56.8319 283.319 54.6682 283.65 52.5401C284.18 49.1701 285.36 46.1101 288.46 44.0201C289.77 43.1301 290.86 42.4401 292.46 42.8601C294.2 43.3201 295.46 46.6701 294.03 48.4101C293.82 48.6701 293.09 48.9001 293.03 48.7901C292.32 48.1501 290.76 48.7301 291.13 47.1701Z" fill="#0E2043"/>
<path d="M198.48 124.33C198.01 125.74 197.48 127.13 197.11 128.56C196.89 129.42 196.75 130.23 195.9 130.71C195.625 130.871 195.314 130.961 194.995 130.973C194.677 130.985 194.36 130.919 194.074 130.779C193.787 130.64 193.539 130.432 193.352 130.174C193.164 129.916 193.044 129.616 193 129.3C192.7 127.7 192.24 126.13 191.92 124.53C191.29 122.197 190.882 119.81 190.7 117.4C190.632 114.865 191.375 112.374 192.82 110.29C193.72 109.05 197 108.37 198.38 109.07C199.023 109.415 199.644 109.799 200.24 110.22C200.413 110.332 200.562 110.478 200.678 110.649C200.794 110.819 200.874 111.012 200.915 111.214C200.955 111.416 200.954 111.625 200.912 111.827C200.87 112.029 200.788 112.22 200.67 112.39C200.421 112.708 200.102 112.963 199.738 113.137C199.373 113.31 198.974 113.397 198.57 113.39C195.66 112.88 195.7 112.8 195.03 115.72C194.612 117.749 194.712 119.85 195.32 121.83C196.64 120.83 197.95 119.98 199.63 120.32C199.952 120.358 200.26 120.471 200.53 120.65C202.444 122.148 203.731 124.305 204.14 126.7C204.358 127.487 204.426 128.308 204.34 129.12C204.261 129.51 204.101 129.879 203.87 130.203C203.64 130.527 203.343 130.798 203 131C202.13 131.28 201.48 130.59 201.25 129.57C200.951 128.267 200.56 126.987 200.08 125.74C199.774 125.209 199.39 124.727 198.94 124.31L198.48 124.33Z" fill="#0E2043"/>
<path d="M342.64 117.29C342.59 120.49 344.05 123.07 344.95 125.81C345.205 126.448 345.233 127.154 345.03 127.81C344.871 128.064 344.65 128.274 344.387 128.419C344.125 128.564 343.83 128.64 343.53 128.64C343.23 128.64 342.935 128.564 342.673 128.419C342.41 128.274 342.189 128.064 342.03 127.81C341.366 126.38 340.782 124.914 340.28 123.42C340.04 122.79 339.84 122.14 339.63 121.49C338.849 119.221 338.68 116.785 339.14 114.43C339.62 112.12 341.68 109.43 343.54 109.34C344.7 109.27 345.86 108.81 347.1 109.52C348.828 110.629 350.056 112.369 350.52 114.37C350.974 115.936 351.308 117.534 351.52 119.15C351.91 121.68 352.21 124.22 352.52 126.76C352.577 127.313 352.428 127.868 352.101 128.318C351.775 128.768 351.294 129.082 350.75 129.2C350.492 129.269 350.221 129.282 349.958 129.236C349.694 129.191 349.444 129.088 349.224 128.936C349.004 128.784 348.82 128.585 348.684 128.354C348.549 128.124 348.466 127.866 348.44 127.6C348.03 124.91 347.87 122.18 347.44 119.5C347.1 117.5 347.1 115.5 345.88 113.7C345.2 112.7 344.73 112.62 343.83 113.43C342.51 114.52 342.56 116 342.64 117.29Z" fill="#0E2043"/>
<path d="M205.43 49.7901C204.57 50.0744 203.675 50.236 202.77 50.2701C201.9 50.1701 201.53 48.6101 202.08 47.9001C202.723 47.0957 203.632 46.5463 204.643 46.3503C205.655 46.1543 206.703 46.3244 207.6 46.8301C208.588 47.416 209.314 48.3591 209.626 49.4646C209.939 50.5701 209.815 51.7534 209.28 52.7701C209.201 52.8707 209.146 52.987 209.116 53.1111C209.086 53.2353 209.084 53.3643 209.108 53.4895C209.133 53.6147 209.184 53.7331 209.259 53.8367C209.333 53.9404 209.429 54.0268 209.54 54.0901C212.97 57.0901 213.69 61.7001 210.45 65.2201C210.132 65.5908 209.726 65.8761 209.27 66.0501C206.98 66.7701 204.62 67.3501 202.39 66.0501C201.719 65.6926 201.136 65.1905 200.683 64.58C200.23 63.9695 199.918 63.2659 199.77 62.5201C199.31 59.3501 199.44 56.2001 201.95 53.8001C202.879 53.0972 203.907 52.5346 205 52.1301C206.35 51.4801 206.42 50.5101 205.43 49.7901ZM208.74 60.0501C208.733 59.3116 208.547 58.5859 208.199 57.9346C207.851 57.2834 207.35 56.7261 206.74 56.3101C206.542 56.1499 206.308 56.0394 206.058 55.9878C205.809 55.9362 205.55 55.945 205.305 56.0135C205.059 56.082 204.833 56.2081 204.646 56.3815C204.46 56.5549 204.317 56.7704 204.23 57.0101C203.849 57.9777 203.575 58.9835 203.41 60.0101C203.16 61.7101 204.08 62.8801 205.55 62.9201C205.954 62.972 206.365 62.9361 206.753 62.8148C207.142 62.6934 207.501 62.4895 207.803 62.217C208.106 61.9445 208.347 61.6099 208.508 61.2359C208.67 60.8619 208.749 60.4574 208.74 60.0501Z" fill="#0E2043"/>
<path d="M288.49 124.66C289.06 121.83 291.42 120.66 293.65 119.19L291.65 114.55L291.36 114.46C291.315 114.699 291.218 114.926 291.075 115.123C290.933 115.32 290.748 115.483 290.535 115.601C290.322 115.719 290.085 115.787 289.843 115.803C289.6 115.818 289.356 115.78 289.13 115.69C288.05 115.35 287.94 114.35 288.07 113.35C288.069 112.541 288.198 111.738 288.45 110.97C289.63 108.68 291.66 108.97 293.45 110.97C294.84 112.48 295.62 114.58 296.65 116.42C297.27 117.54 297.82 118.7 298.45 119.82C298.8 120.45 299.15 121 298.58 121.72C298.39 121.94 298.44 122.39 298.46 122.72C298.674 124.666 298.764 126.623 298.73 128.58C298.725 129.012 298.629 129.438 298.447 129.83C298.266 130.222 298.004 130.571 297.678 130.854C297.352 131.137 296.97 131.349 296.557 131.474C296.143 131.599 295.708 131.635 295.28 131.58C293.923 131.375 292.632 130.857 291.509 130.067C290.386 129.277 289.462 128.238 288.81 127.03C288.43 126.41 288.62 125.45 288.55 124.65L288.49 124.66ZM294.32 127.34L294.91 127.03L294.4 123.65L294.01 123.51C293.54 124.11 292.61 124.82 292.72 125.28C292.9 126.05 293.75 126.66 294.32 127.34Z" fill="#0E2043"/>
<path d="M346.35 46.6499C346.859 47.1082 347.244 47.6876 347.469 48.3344C347.695 48.9812 347.754 49.6744 347.64 50.3499C347.491 51.0942 347.522 51.8631 347.729 52.5933C347.936 53.3235 348.313 53.9942 348.83 54.5499C348.89 54.6099 348.98 54.6799 348.97 54.7499C348.88 56.4599 350.39 57.5199 350.73 59.0199C350.804 59.7421 350.74 60.4719 350.54 61.1699C350.3 62.5499 347.39 65.0799 345.99 65.1699C345.82 65.1699 345.66 65.1699 345.5 65.1699C341.88 65.4399 339.75 63.6999 339.42 60.0799C339.11 56.7699 339.82 55.8999 343.09 54.0799C343.86 53.6599 344.51 53.2999 343.97 52.3799C343.695 51.9828 343.275 51.7098 342.8 51.6199C341.26 51.3799 339.68 51.1899 338.69 49.8299C337.7 48.4699 336.75 45.9499 338.2 44.7499C339 44.0799 339.57 44.0999 340.05 45.0099C340.308 45.5206 340.522 46.0525 340.69 46.5999C340.802 46.9324 340.986 47.236 341.229 47.489C341.472 47.742 341.768 47.9381 342.096 48.0633C342.424 48.1885 342.775 48.2396 343.125 48.2131C343.475 48.1866 343.815 48.083 344.12 47.9099C344.88 47.4699 345.65 47.0499 346.35 46.6499ZM346.82 59.9399C346.003 59.3241 345.144 58.7661 344.25 58.2699C344.04 58.1599 343.13 58.8099 343.17 58.9799C343.255 59.7429 343.564 60.4634 344.06 61.0499C344.37 61.3299 345.29 61.0499 345.89 60.8699C346.19 60.7799 346.4 60.3799 346.82 59.9399Z" fill="#0E2043"/>
<path d="M192.94 82.54L193.94 82.06C195.37 81.37 196.52 82.16 196.51 83.76C196.419 85.0217 196.469 86.2895 196.66 87.54C196.96 89.4425 197.928 91.1759 199.39 92.43C201.79 94.43 201.81 97.02 199.46 99.19C198.394 100.255 197.018 100.955 195.53 101.19C194.697 101.267 193.858 101.138 193.087 100.813C192.316 100.489 191.637 99.9794 191.11 99.33C190.422 98.6518 189.888 97.834 189.543 96.9318C189.198 96.0297 189.05 95.0641 189.11 94.1C189.039 93.4998 189.12 92.8913 189.345 92.3304C189.571 91.7696 189.933 91.2743 190.4 90.89C191.15 90.36 191.47 89.38 192.53 89.06C193.15 88.87 192.67 86.24 192.02 85.84C190.886 85.2142 189.794 84.5161 188.75 83.75C188.173 83.2518 187.721 82.625 187.43 81.92C187.401 81.7088 187.427 81.4936 187.506 81.2955C187.584 81.0974 187.713 80.9232 187.88 80.79C188.495 80.4718 189.202 80.3764 189.88 80.52C190.961 81.0956 191.986 81.7719 192.94 82.54ZM192.94 94.37C193.21 95.82 193.6 96.67 194.62 97.07C194.986 97.2047 195.385 97.217 195.758 97.1052C196.132 96.9934 196.459 96.7635 196.69 96.45C197.22 95.9 197.34 95.45 196.53 95.19C195.46 94.86 194.34 94.68 193 94.37H192.94Z" fill="#0E2043"/>
<path d="M329.87 118.09C329.54 118.09 329.15 118.25 328.87 118.09C328.19 117.75 327.18 117.41 327.02 116.86C326.843 116.392 326.847 115.875 327.032 115.411C327.217 114.946 327.57 114.568 328.02 114.35C328.644 113.877 329.156 113.273 329.52 112.58C329.62 112.44 329.52 112 329.33 111.86C329.218 111.792 329.092 111.751 328.962 111.74C328.832 111.73 328.701 111.75 328.58 111.8C327.914 112.326 327.216 112.81 326.49 113.25C325.952 113.489 325.343 113.51 324.79 113.31C324.544 113.179 324.332 112.992 324.171 112.765C324.009 112.537 323.903 112.276 323.86 112C323.867 111.361 324.042 110.735 324.369 110.185C324.696 109.635 325.162 109.182 325.72 108.87C326.559 108.39 327.493 108.098 328.456 108.013C329.419 107.928 330.39 108.054 331.3 108.38C332.55 108.77 333.94 111.03 333.54 113.11C333.38 113.92 333.64 114.26 334.25 114.88C336.25 116.88 338.01 119.12 337.83 122.2C337.75 123.64 337.75 125.2 336.52 126.2C335.476 127.15 334.154 127.739 332.75 127.881C331.346 128.023 329.933 127.711 328.72 126.99C327.809 126.498 326.934 125.944 326.1 125.33C325.48 124.84 325.48 124.27 326.02 123.54C326.56 122.81 326.58 122.24 327.52 122.06C327.917 121.912 328.351 121.895 328.759 122.01C329.167 122.125 329.528 122.367 329.79 122.7C330.302 123.284 330.984 123.693 331.74 123.87C333.14 124.15 333.94 123.28 333.84 121.87C333.841 121.357 333.737 120.85 333.535 120.378C333.333 119.907 333.038 119.481 332.666 119.128C332.295 118.774 331.856 118.5 331.375 118.321C330.894 118.143 330.382 118.064 329.87 118.09Z" fill="#0E2043"/>
<path d="M231.06 49.9999C230.102 50.524 229.342 51.3474 228.896 52.3441C228.45 53.3409 228.342 54.4563 228.59 55.5199C228.95 57.8899 229.44 60.2299 229.86 62.5899C230.01 63.4499 229.98 64.2499 228.96 64.5899C228.552 64.7413 228.102 64.7278 227.704 64.5523C227.306 64.3767 226.993 64.053 226.83 63.6499C225.584 61.5379 225.015 59.095 225.2 56.6499C225.186 55.5933 225.113 54.5383 224.98 53.4899C224.79 50.9299 226.19 49.1499 227.89 47.4899C228.13 47.2599 228.43 47.0999 228.66 46.8699C231.34 44.1199 234.36 46.2199 234.99 49.1299C235.33 50.6799 235.53 52.2599 235.82 53.8199C236.14 55.5699 236.57 57.3099 236.82 59.0699C236.987 60.5637 237.044 62.0677 236.99 63.5699C236.922 64.0487 236.683 64.4868 236.317 64.803C235.952 65.1193 235.484 65.2922 235 65.2899C234.506 65.2929 234.028 65.1126 233.658 64.7839C233.289 64.4552 233.054 64.0013 233 63.5099C232.81 61.2299 232.78 58.9399 232.51 56.6799C232.255 55.1206 231.921 53.5753 231.51 52.0499C231.4 51.4099 231.25 50.7599 231.06 49.9999Z" fill="#0E2043"/>
<path d="M298.48 107.41C299.309 107.953 300.11 108.537 300.88 109.16C301.247 109.519 301.724 109.743 302.234 109.795C302.745 109.848 303.258 109.726 303.69 109.45C304.178 109.083 304.79 108.92 305.396 108.995C306.002 109.069 306.555 109.376 306.94 109.85C307.54 110.57 307.22 111.85 306.23 112.72C304.73 114.04 305.28 116.56 307.41 117.46C308.332 117.832 309.142 118.436 309.761 119.214C310.379 119.993 310.786 120.918 310.94 121.9C311.51 124.9 308.6 129.37 304.94 128.54C304.107 128.35 303.32 127.998 302.623 127.504C301.927 127.01 301.334 126.383 300.88 125.66C300.171 124.547 299.93 123.199 300.21 121.91C300.544 120.62 301.052 119.382 301.72 118.23C301.72 118.16 301.89 118.11 301.89 118.06C301.89 117.06 301.89 116 301.74 114.98C301.59 113.96 301.67 113.11 300.28 112.54C299.1 112.06 298.28 110.54 297.51 109.35C297.3 109.08 298 108.24 298.48 107.41ZM304 122.94C303.987 123.155 304.022 123.369 304.1 123.57C304.178 123.77 304.299 123.951 304.454 124.1C304.609 124.249 304.794 124.363 304.997 124.434C305.2 124.504 305.416 124.53 305.63 124.51C306.63 124.42 306.97 123.63 307.03 122.79C307.09 121.95 306.52 121.44 305.67 121.39C305.455 121.365 305.237 121.387 305.031 121.455C304.826 121.522 304.637 121.633 304.478 121.781C304.32 121.928 304.195 122.108 304.112 122.308C304.03 122.508 303.991 122.724 304 122.94Z" fill="#0E2043"/>
<path d="M182 127.49C182.36 127.49 182.64 127.49 182.92 127.54C184.52 127.76 185.36 126.94 185.16 125.37C185 124.13 184.86 122.88 184.74 121.63C184.444 119.15 183.619 116.763 182.32 114.63C182.102 114.891 181.905 115.169 181.73 115.46C181.65 115.628 181.537 115.779 181.398 115.902C181.259 116.026 181.097 116.12 180.92 116.18C180.744 116.24 180.558 116.263 180.372 116.25C180.186 116.236 180.005 116.185 179.84 116.1C179.21 115.92 178.63 115.67 178.99 114.7C179.19 114.14 178.8 113.38 178.99 112.78C179.183 111.808 179.524 110.87 180 110C180.81 108.73 183.41 109.07 184.5 110.51C186.081 112.701 187.197 115.192 187.78 117.83C188.37 120.15 188.62 122.56 189.02 124.93C189.249 126.149 189.099 127.409 188.591 128.54C188.084 129.671 187.242 130.621 186.18 131.26C185.7 131.565 185.138 131.715 184.57 131.69C182.72 131.69 180.83 132.03 179.03 131.23C178.662 131.081 178.327 130.86 178.045 130.581C177.763 130.302 177.54 129.969 177.387 129.603C177.235 129.236 177.156 128.843 177.157 128.446C177.157 128.049 177.236 127.656 177.39 127.29C177.652 126.6 178.138 126.018 178.772 125.639C179.405 125.259 180.148 125.105 180.88 125.2C181.27 125.29 181.6 125.87 181.81 126.3C181.935 126.685 181.999 127.086 182 127.49Z" fill="#0E2043"/>
<path d="M327.68 49.16C327.112 50.2063 326.467 51.2091 325.75 52.16C325.05 52.97 324.28 52.56 323.75 51.8C322.89 50.61 323.22 49.36 323.75 48.19C324.62 46.27 326.2 44.5 328.51 45.11C329.538 45.3714 330.488 45.8755 331.28 46.58C333.49 48.72 335.4 51.1 335.87 54.31C335.98 55.08 336.17 55.83 336.34 56.59C336.55 57.4381 336.582 58.3208 336.432 59.1816C336.282 60.0425 335.954 60.8627 335.47 61.59C334.85 62.59 334.41 63.73 333.35 64.27C330.19 65.87 325.82 65.2 325.09 60.44C325 59.85 326.49 57.21 327.09 57.12C327.27 57.0712 327.457 57.0619 327.641 57.0925C327.824 57.1232 327.999 57.1932 328.153 57.2976C328.307 57.4021 328.436 57.5386 328.532 57.6979C328.629 57.8571 328.689 58.0352 328.71 58.22C328.874 58.9365 329.074 59.6441 329.31 60.34C329.354 60.4977 329.435 60.6423 329.547 60.7612C329.66 60.8801 329.799 60.9696 329.954 61.0219C330.109 61.0742 330.275 61.0877 330.436 61.0612C330.598 61.0348 330.75 60.9691 330.88 60.87C331.37 60.6536 331.781 60.2899 332.056 59.8293C332.33 59.3687 332.454 58.8342 332.41 58.3C332.339 57.0868 332.203 55.8783 332 54.68C331.877 53.8009 331.506 52.9752 330.93 52.3C329.85 51.3 329.67 49.43 327.93 49.15C327.848 49.1285 327.761 49.1319 327.68 49.16Z" fill="#0E2043"/>
<path d="M207.11 84.7599C206.619 85.3799 206.26 86.0933 206.054 86.8566C205.847 87.6199 205.798 88.4171 205.91 89.1999C206.12 91.8599 206.56 94.5099 206.91 97.1999C206.963 97.6818 206.839 98.1665 206.561 98.5638C206.283 98.9611 205.871 99.244 205.4 99.3599C204.56 99.4399 203.85 98.6299 203.62 97.5399C203.32 96.1199 202.91 94.7299 202.54 93.3299C202.455 93.1001 202.395 92.8622 202.36 92.6199C202.165 90.6948 202.165 88.755 202.36 86.8299C202.699 85.0605 203.43 83.3896 204.5 81.9399C205.9 80.0399 209.26 80.6499 210.6 82.7499C211.831 84.812 212.716 87.0618 213.22 89.4099C213.68 91.2799 214.3 93.1099 214.77 94.9799C215.06 96.1599 215.36 97.4899 214.05 98.2599C213.426 98.5511 212.724 98.6319 212.05 98.4899C211.687 98.4187 211.36 98.2248 211.123 97.9407C210.886 97.6566 210.755 97.2997 210.75 96.9299C210.19 92.9854 209.131 89.1279 207.6 85.4499C207.456 85.2065 207.293 84.9756 207.11 84.7599Z" fill="#0E2043"/>
<path d="M131.91 49.25C128.91 52.25 128.91 55.43 130.41 58.88C131.27 60.82 132.75 62.48 133.88 64.31C134.6 65.47 134.21 66.89 133.19 66.86C132.252 66.9054 131.333 66.5824 130.63 65.96C128.86 63.6309 127.366 61.1039 126.18 58.43C125.49 56.66 125.77 54.43 125.9 52.43C126.05 50.15 127.56 48.43 128.76 46.57C129.231 46.0126 129.856 45.6069 130.557 45.4041C131.259 45.2012 132.004 45.2103 132.7 45.43C134.088 46.0013 135.275 46.9725 136.11 48.22C137.51 50.22 137.83 52.45 138.31 54.68C138.453 55.1293 138.423 55.6156 138.227 56.0443C138.031 56.4731 137.683 56.8137 137.25 57C136.474 57.1632 135.671 57.1323 134.91 56.91C134.72 56.91 134.53 56.42 134.45 56.13C134.13 54.95 133.95 53.72 133.53 52.57C133.05 51.4349 132.509 50.3266 131.91 49.25Z" fill="#0E2043"/>
<path d="M166.38 83.9999C165.89 84.8899 165.55 85.5399 165.18 86.1699C164.478 87.5894 164.163 89.169 164.266 90.7492C164.37 92.3294 164.889 93.8543 165.77 95.1699C167.053 97.0606 168.653 98.7151 170.5 100.06C170.691 100.168 170.858 100.312 170.991 100.486C171.125 100.659 171.223 100.857 171.278 101.068C171.334 101.28 171.347 101.501 171.317 101.717C171.286 101.934 171.212 102.142 171.1 102.33C170.899 102.686 170.571 102.953 170.182 103.077C169.792 103.201 169.37 103.174 169 103C168.482 102.878 167.988 102.669 167.54 102.38C164.61 99.9799 162.03 97.4499 160.98 93.4899C160.449 91.6362 160.336 89.6875 160.651 87.7849C160.966 85.8824 161.7 84.0737 162.8 82.4899C163.71 81.0999 164.87 79.9099 166.68 79.9699C167.053 79.9676 167.422 80.0408 167.766 80.1852C168.11 80.3296 168.421 80.5421 168.68 80.8099C169.541 82.1743 170.254 83.6257 170.81 85.1399C171.244 86.2272 171.491 87.3802 171.54 88.5499C171.572 88.8203 171.543 89.0945 171.453 89.3518C171.364 89.6091 171.218 89.8428 171.025 90.0353C170.833 90.2279 170.599 90.3742 170.342 90.4634C170.085 90.5525 169.81 90.5821 169.54 90.5499C168.54 90.5499 168.09 89.8399 167.85 88.8899C167.43 87.3399 166.91 85.7799 166.38 83.9999Z" fill="#0E2043"/>
<path d="M134.44 85.63C134.507 85.4749 134.544 85.3087 134.55 85.14C134.28 83.14 134.55 82.64 136.42 82C137.068 81.7862 137.757 81.7255 138.433 81.8224C139.108 81.9194 139.752 82.1715 140.314 82.559C140.876 82.9464 141.34 83.4587 141.671 84.0557C142.002 84.6527 142.19 85.3182 142.22 86C142.247 86.443 142.135 86.8833 141.9 87.26C141.37 87.95 141.55 88.26 142.22 88.71C142.898 89.1846 143.468 89.7976 143.892 90.5087C144.315 91.2198 144.583 92.0127 144.678 92.835C144.772 93.6573 144.691 94.4903 144.44 95.2789C144.189 96.0676 143.773 96.7939 143.22 97.41C142.37 98.27 141.69 99.31 140.81 100.14C140.274 100.711 139.591 101.123 138.835 101.33C138.08 101.536 137.282 101.529 136.53 101.31C135.48 101.066 134.531 100.502 133.814 99.6963C133.098 98.8903 132.649 97.8818 132.53 96.81C132.497 96.299 132.596 95.7881 132.816 95.326C133.037 94.8639 133.372 94.4659 133.79 94.17C134.007 94.0359 134.251 93.952 134.505 93.9244C134.758 93.8968 135.015 93.9263 135.255 94.0107C135.496 94.0951 135.715 94.2322 135.895 94.412C136.076 94.5918 136.214 94.8098 136.3 95.05C136.44 95.43 136.44 95.86 136.59 96.24C136.88 96.96 137.37 97.44 138.21 97.06C138.929 96.5911 139.526 95.9589 139.954 95.2151C140.381 94.4713 140.627 93.6368 140.67 92.78C140.67 91.88 140.23 91.62 139.46 91.65C139.022 91.7395 138.577 91.7864 138.13 91.79C137.44 91.67 136.24 91.47 136.2 91.19C136.1 90.36 135.68 89.39 136.58 88.58C137.18 87.9682 137.685 87.2706 138.08 86.51C138.204 86.1603 138.265 85.7911 138.26 85.42C137.84 85.42 137.26 85.25 137.02 85.42C136.694 85.7705 136.248 85.9863 135.771 86.0251C135.293 86.064 134.819 85.9231 134.44 85.63Z" fill="#0E2043"/>
<path d="M209.89 112.06C209.707 112.629 209.441 113.168 209.1 113.66C208.75 114.03 208.1 114.46 207.72 114.37C207.425 114.284 207.149 114.14 206.911 113.946C206.672 113.752 206.474 113.512 206.33 113.24C205.82 112.09 206.73 109.6 207.76 108.84C208.79 108.08 211.76 108.15 212.65 109.17C214.72 111.208 215.996 113.916 216.25 116.81C216.32 118.15 217.11 119.45 217.25 120.81C217.495 123.18 217.495 125.57 217.25 127.94C216.97 129.94 215.35 130.7 213.25 130.94C211.7 131.09 210.49 130.41 209.14 130.09C207.35 129.68 208.02 128.54 207.85 127.79C207.65 126.87 208.62 126.21 209.75 126.24C210.237 126.275 210.719 126.356 211.19 126.48C211.613 126.632 212.053 126.73 212.5 126.77C212.82 126.77 213.35 126.42 213.37 126.2C213.52 124.07 213.95 121.94 213.03 119.83C212.762 118.912 212.542 117.981 212.37 117.04C211.93 115.65 211.37 114.28 210.86 112.94C210.71 112.58 210.3 112.4 209.89 112.06Z" fill="#0E2043"/>
<path d="M276.09 62.07C275.7 57.82 276.32 53.45 274.58 49.42L274.2 49.49C273.74 50.57 273.27 51.64 272.75 52.86C271.995 52.3615 271.301 51.7777 270.68 51.12C269.83 49.93 270.58 47.12 271.93 45.93C272.93 45.03 274.69 45.2 276.13 46.11C276.966 46.5494 277.679 47.1916 278.203 47.9777C278.728 48.7639 279.046 49.6689 279.13 50.61C279.36 53.61 279.65 56.61 279.92 59.61C280.01 60.61 280.15 61.61 280.19 62.61C280.225 63.0587 280.116 63.5068 279.88 63.89C279.171 64.9802 278.079 65.7651 276.82 66.09C275.23 66.41 272.41 65.37 271.56 64.09C271.05 63.29 270.28 62.51 270.64 61.44C270.86 60.77 271.09 59.86 271.64 59.58C272.008 59.2927 272.469 59.1503 272.935 59.1798C273.402 59.2093 273.841 59.4086 274.17 59.74C274.369 59.9355 274.484 60.2011 274.49 60.48C274.12 61.72 275 61.87 276.09 62.07Z" fill="#0E2043"/>
<path d="M159.4 127.51C159.5 131.03 156.66 134.36 153.64 134.73C151.72 134.96 148.49 132.78 148.01 130.89C147.9 130.498 147.9 130.082 148.01 129.69C148.47 128.35 149.56 128.3 150.81 129.47C151.306 129.926 151.849 130.328 152.43 130.67C152.58 130.79 152.755 130.877 152.941 130.924C153.128 130.971 153.322 130.978 153.512 130.944C153.701 130.91 153.881 130.836 154.04 130.726C154.198 130.617 154.331 130.475 154.43 130.31C154.99 129.51 155.73 128.91 155.51 127.66C155.07 125.15 153.51 123.3 152.25 121.23C150.695 118.766 149.276 116.219 148 113.6C147.761 113.249 147.64 112.832 147.655 112.408C147.669 111.984 147.818 111.575 148.079 111.242C148.341 110.908 148.702 110.665 149.11 110.55C149.518 110.435 149.952 110.452 150.35 110.6C150.666 110.69 150.958 110.852 151.202 111.072C151.446 111.292 151.637 111.565 151.76 111.87C152.4 114.63 154.22 116.7 155.62 119.03C157.26 121.85 159.68 124.35 159.4 127.51Z" fill="#0E2043"/>
<path d="M179.55 83.7C179.14 84.57 178.79 85.16 178.55 85.78C178.25 86.61 177.2 87.47 176.55 87.25C176.119 87.1113 175.751 86.8266 175.508 86.4449C175.265 86.0633 175.163 85.6088 175.22 85.16C175.22 83.16 176.58 81.77 177.74 80.46C178.9 79.15 181.32 79.74 182.39 81.32C184.078 83.6783 185.347 86.3103 186.14 89.1C186.823 91.274 187.095 93.5564 186.94 95.83C186.48 99.34 183.21 101.08 179.39 99.62C178.943 99.4249 178.486 99.2546 178.02 99.11C177.692 99.0728 177.376 98.9614 177.097 98.7844C176.818 98.6073 176.583 98.3691 176.41 98.0878C176.236 97.8066 176.129 97.4895 176.096 97.1608C176.063 96.832 176.106 96.5 176.22 96.19C176.44 95.19 178.42 94.54 179.28 95.1C179.889 95.5383 180.564 95.876 181.28 96.1C181.521 96.2041 181.787 96.2373 182.046 96.1957C182.305 96.1541 182.547 96.0394 182.743 95.8652C182.94 95.6909 183.082 95.4642 183.154 95.2118C183.226 94.9594 183.225 94.6916 183.15 94.44C182.999 92.8917 182.715 91.3593 182.3 89.86C181.76 88.09 180.95 86.4 180.24 84.68C180.03 84.3396 179.8 84.0124 179.55 83.7Z" fill="#0E2043"/>
<path d="M288.5 124.62C288 125.62 287.5 126.56 286.99 127.53C285.74 130.04 283.94 130.63 281.23 129.58C280.406 129.318 279.665 128.846 279.078 128.212C278.49 127.577 278.078 126.802 277.88 125.96C277.868 125.656 277.929 125.353 278.06 125.078C278.191 124.802 278.386 124.563 278.63 124.38C278.916 124.231 279.229 124.141 279.551 124.117C279.872 124.093 280.195 124.135 280.5 124.24C281.06 124.44 281.5 125.05 281.95 125.51C282.8 126.37 283.2 126.33 283.79 125.28C284.144 124.806 284.345 124.235 284.367 123.644C284.388 123.052 284.229 122.469 283.91 121.97C283.14 120.9 282.25 119.91 281.42 118.89C280.15 117.35 278.24 116.37 277.52 114.32C277.1 113.12 277.52 110.76 278.52 110.05C279.203 109.552 280.031 109.292 280.877 109.31C281.722 109.328 282.539 109.623 283.2 110.15C283.91 110.8 283.76 111.55 282.89 112.04C282.401 112.376 281.939 112.75 281.51 113.16C282.88 114.52 284.15 115.81 285.44 117.07C286.336 117.89 287.049 118.891 287.532 120.006C288.014 121.121 288.256 122.325 288.24 123.54C288.269 123.918 288.333 124.293 288.43 124.66L288.5 124.62Z" fill="#0E2043"/>
<path d="M149.78 96.22C150.31 96.61 150.62 96.82 150.9 97.05C151.18 97.28 151.39 97.61 151.69 97.82C153.49 99.13 154.69 99.2 155.19 96.65C155.214 96.5276 155.248 96.4073 155.29 96.29C156.1 93.81 156.08 93.86 153.7 92.8C152.159 92.2011 150.693 91.4259 149.33 90.49C148.79 90.0399 148.369 89.4651 148.102 88.8152C147.834 88.1653 147.73 87.4601 147.797 86.7606C147.864 86.0611 148.1 85.3886 148.486 84.8012C148.872 84.2139 149.395 83.7295 150.01 83.39C150.113 83.3228 150.224 83.2691 150.34 83.23L152.26 82.76C152.399 83.5705 152.49 84.3886 152.53 85.21C152.53 85.62 152.19 86.03 152.05 86.45C151.979 86.5875 151.941 86.7396 151.938 86.8943C151.936 87.0491 151.969 87.2023 152.036 87.3419C152.103 87.4815 152.202 87.6037 152.324 87.6988C152.446 87.7939 152.588 87.8594 152.74 87.89C153.961 88.3358 155.145 88.8775 156.28 89.51C157.355 90.0472 158.288 90.8321 159 91.8C159.524 92.862 159.723 94.0555 159.57 95.23C159.423 97.613 158.405 99.8588 156.71 101.54C156.219 102.003 155.617 102.331 154.961 102.492C154.306 102.654 153.62 102.642 152.97 102.46C151.25 102.08 149.43 101.46 148.54 99.74C148.204 98.966 148.113 98.1073 148.28 97.28C148.36 96.89 149.17 96.64 149.78 96.22Z" fill="#0E2043"/>
<path d="M254.85 125.53C256.64 125.11 257.09 123.79 257.6 122.6C257.88 121.94 257.79 121.09 258.76 120.96C259.275 121.013 259.768 121.198 260.19 121.498C260.612 121.797 260.95 122.201 261.17 122.67C261.352 123.342 261.355 124.049 261.18 124.723C261.004 125.396 260.656 126.012 260.17 126.51C258.62 128.44 256.77 130.15 254.02 129.98C253.374 129.903 252.779 129.589 252.35 129.1C250.8 127.23 250.62 124.9 250.29 122.6C249.79 119.03 250.01 115.36 248.88 111.87C248.627 111.236 248.531 110.55 248.6 109.87C248.676 109.586 248.817 109.324 249.011 109.104C249.206 108.884 249.448 108.711 249.72 108.6C250.034 108.538 250.357 108.549 250.666 108.632C250.975 108.715 251.26 108.869 251.5 109.08C252.127 109.892 252.562 110.836 252.77 111.84C253.28 114.64 253.61 117.48 254.02 120.31C254.28 122 254.56 123.71 254.85 125.53Z" fill="#0E2043"/>
<path d="M308.4 56.3999C308.05 58.2699 307.81 60.1599 307.33 61.9999C306.85 63.8399 305.33 64.8399 303.45 65.2899C302.02 65.6399 301.17 64.3699 299.99 64.0299C299.578 63.8486 299.183 63.6311 298.81 63.3799C297.41 62.6399 296.9 60.9499 298.06 59.9399C298.59 59.4699 299.86 59.6799 300.76 59.8299C301.385 60.0269 301.954 60.3697 302.42 60.8299C303.16 61.4199 303.66 61.1299 303.72 60.3799C304.007 58.2192 304.091 56.0363 303.97 53.8599C303.84 52.5399 302.88 51.3099 302.26 50.0599C302.198 49.9622 302.112 49.8817 302.011 49.8258C301.91 49.7699 301.796 49.7403 301.68 49.7399C301.5 49.7399 301.31 50.0199 301.21 50.2099C301.11 50.3999 301.12 50.8699 300.95 50.9799C300.24 51.4499 299.47 51.8199 298.73 52.2299C298.47 51.3699 297.83 50.3799 298.06 49.6799C298.41 48.5699 298.11 47.1399 299.55 46.3799C300.55 45.8299 301.97 45.3799 302.99 46.1799C304.061 47.0168 305.043 47.9618 305.92 48.9999C306.752 50.0149 307.37 51.1872 307.737 52.4467C308.105 53.7062 308.215 55.027 308.06 56.3299L308.4 56.3999Z" fill="#0E2043"/>
<path d="M266.83 101.47C264.92 101.65 264.04 99.9499 262.66 99.3499C262.148 99.0451 261.654 98.7112 261.18 98.3499C261.008 98.2768 260.856 98.1648 260.734 98.0228C260.613 97.8809 260.526 97.7128 260.481 97.5316C260.435 97.3505 260.432 97.1613 260.472 96.9789C260.512 96.7964 260.593 96.6257 260.71 96.4799C260.913 96.2318 261.172 96.036 261.466 95.9089C261.76 95.7819 262.08 95.7274 262.4 95.7499C263.612 96.1033 264.769 96.6215 265.84 97.2899C265.964 97.38 266.105 97.4435 266.255 97.4762C266.405 97.509 266.56 97.5104 266.71 97.4803C266.86 97.4503 267.003 97.3894 267.128 97.3016C267.254 97.2137 267.36 97.1008 267.44 96.9699C267.792 96.6121 268.063 96.183 268.235 95.7115C268.407 95.2399 268.476 94.737 268.437 94.2366C268.398 93.7361 268.253 93.2499 268.01 92.8106C267.767 92.3712 267.433 91.9891 267.03 91.6899C265.79 90.6899 264.52 89.6199 263.25 88.6099C262.76 88.1496 262.375 87.5898 262.12 86.9682C261.864 86.3465 261.745 85.6775 261.769 85.0059C261.794 84.3343 261.962 83.6757 262.262 83.0745C262.563 82.4732 262.988 81.9432 263.51 81.5199C263.7 81.3799 263.97 81.2999 264.11 81.1199C264.65 80.4299 265.44 80.1199 266 80.7299C266.243 81.0083 266.417 81.3395 266.509 81.6971C266.601 82.0548 266.608 82.429 266.53 82.7899C265.43 84.9099 266.12 86.1999 267.98 87.3599C268.96 88.0722 269.862 88.8868 270.67 89.7899C273.73 92.7299 272.08 98.7899 268.97 100.79C268.291 101.113 267.571 101.342 266.83 101.47Z" fill="#0E2043"/>
<path d="M220.79 96.5801C221.52 95.4501 222.15 94.5101 222.79 93.5801C223.26 92.8001 223.79 92.0901 224.79 92.3301C225.79 92.5701 226.1 93.1101 226.35 94.1901C226.69 95.7001 225.8 96.5401 225.18 97.4801C224.27 98.8701 223.38 100.38 221.48 100.77C220.662 100.916 219.82 100.809 219.064 100.465C218.308 100.12 217.676 99.5532 217.25 98.8401C215.83 96.4301 215.88 93.8401 215.87 91.1601C215.86 88.4801 215.87 85.8001 214.58 83.3001C214.15 82.4501 213.79 81.4201 214.85 80.6401C215.91 79.8601 217.43 80.3901 218.07 81.8501C219.301 84.6238 219.902 87.6361 219.83 90.6701C219.868 92.2563 220.025 93.8374 220.3 95.4001C220.416 95.8115 220.58 96.2076 220.79 96.5801Z" fill="#0E2043"/>
<path d="M314.61 125.66C315.5 126.07 316.24 126.35 316.92 126.73C317.6 127.11 318.3 127.19 318.79 126.54C319.56 125.552 320.23 124.49 320.79 123.37C320.837 123.095 320.825 122.813 320.756 122.543C320.687 122.272 320.563 122.019 320.39 121.8C319.01 119.96 317.46 118.26 316.16 116.38C315.397 115.198 314.785 113.925 314.34 112.59C313.74 110.96 316.34 108.25 318.13 108.26C318.85 108.26 319.58 109.67 319.13 110.54C317.96 112.66 319.13 113.93 320.45 115.35C321.742 116.755 322.913 118.268 323.95 119.87C325.28 121.98 324.51 125.87 322.64 127.72C322.05 128.3 321.64 129.23 320.99 129.56C319.918 129.983 318.795 130.266 317.65 130.4C315.91 130.72 314.86 129.4 313.81 128.4C313.445 127.802 313.316 127.088 313.45 126.4C313.46 126.16 314.16 125.94 314.61 125.66Z" fill="#0E2043"/>
<path d="M365.67 59.25C365.48 61.58 364.67 63.58 362.36 64.73C361.426 65.2957 360.359 65.6022 359.267 65.6181C358.176 65.6339 357.1 65.3584 356.15 64.82C355.632 64.4314 355.233 63.9046 355 63.3C354.121 61.1828 353.639 58.9217 353.58 56.63C353.4 54.16 353.95 51.51 352.37 49.19C351.985 48.4344 351.872 47.5692 352.05 46.74C352.129 46.4443 352.274 46.1707 352.475 45.9401C352.676 45.7095 352.928 45.5282 353.21 45.41C353.52 45.31 354.21 45.88 354.52 46.32C356.368 49.4649 357.329 53.0523 357.3 56.7C357.351 57.9567 357.522 59.2057 357.81 60.43C358.06 61.55 358.93 61.87 360 61.43C361.07 60.99 361.92 60.43 361.89 59.02C361.919 58.4452 362.069 57.883 362.33 57.37C362.456 56.9991 362.718 56.6898 363.063 56.5042C363.408 56.3187 363.811 56.2707 364.19 56.37C364.69 56.52 365.12 57.16 365.39 57.67C365.56 58.1802 365.654 58.7125 365.67 59.25Z" fill="#0E2043"/>
<path d="M129 126.52C128.938 127.984 128.747 129.44 128.43 130.87C127.93 132.49 127.43 134.18 125.87 135.25C125.337 135.658 124.69 135.892 124.019 135.919C123.348 135.946 122.684 135.764 122.12 135.4C120.8 134.78 119.57 134.17 119.12 132.69C119.006 132.439 118.947 132.167 118.948 131.892C118.949 131.616 119.01 131.344 119.126 131.095C119.241 130.845 119.41 130.623 119.62 130.444C119.829 130.266 120.075 130.135 120.34 130.06C120.502 129.994 120.675 129.962 120.85 129.966C121.024 129.971 121.196 130.012 121.354 130.086C121.512 130.16 121.652 130.266 121.767 130.398C121.882 130.529 121.968 130.683 122.02 130.85C122.327 131.356 122.757 131.776 123.27 132.07C123.411 132.096 123.557 132.086 123.694 132.041C123.83 131.995 123.953 131.916 124.05 131.81C124.59 130.3 125.55 128.81 124.88 127.12C124.347 125.832 123.719 124.585 123 123.39C121.92 121.53 120.67 119.76 119.59 117.89C118.7 116.33 119.14 114.73 120.49 114.13C120.9 113.937 121.368 113.911 121.797 114.056C122.226 114.202 122.582 114.508 122.79 114.91C122.796 114.946 122.796 114.984 122.79 115.02C123.54 117.15 124.98 118.87 126.12 120.77C126.773 122.069 127.351 123.404 127.85 124.77C128.2 125.374 128.584 125.959 129 126.52Z" fill="#0E2043"/>
<path d="M123.88 59.59C124.47 61.98 122.88 63.59 121.32 64.95C120.799 65.246 120.223 65.4301 119.627 65.4904C119.031 65.5506 118.429 65.4858 117.86 65.3C116.057 64.6759 114.319 63.8788 112.67 62.92C112.447 62.835 112.246 62.7033 112.078 62.5339C111.911 62.3644 111.781 62.1611 111.699 61.9376C111.617 61.714 111.583 61.4754 111.6 61.2378C111.618 61.0002 111.686 60.7691 111.8 60.56C111.922 60.3454 112.086 60.1576 112.282 60.0079C112.478 59.8583 112.702 59.7498 112.941 59.6891C113.181 59.6284 113.429 59.6167 113.673 59.6546C113.917 59.6926 114.151 59.7794 114.36 59.91C115.68 60.46 117.01 60.99 118.36 61.44C119.13 61.7 119.81 61.44 119.87 60.51C119.96 59.8349 119.896 59.1481 119.681 58.5017C119.466 57.8554 119.107 57.2665 118.63 56.78C117.18 55.2499 116.147 53.3734 115.63 51.33C115.366 50.6341 115.298 49.879 115.433 49.147C115.569 48.4151 115.904 47.7346 116.4 47.18C116.937 46.7255 117.617 46.4742 118.32 46.47C118.61 46.47 119.07 47.16 119.21 47.62C119.442 48.4349 119.579 49.2737 119.62 50.12C119.74 51.91 120.94 53.17 121.93 54.44C123.64 56.62 123.81 56.66 123.88 59.59Z" fill="#0E2043"/>
<path d="M314.79 51.4799C314.79 54.7699 314.74 57.4099 314.79 60.0499C314.959 60.6989 315.243 61.312 315.63 61.8599C316.149 61.6337 316.636 61.3412 317.08 60.9899C317.457 60.5702 317.749 60.0811 317.94 59.5499C318.051 59.1275 318.321 58.7646 318.694 58.5371C319.067 58.3097 319.514 58.2354 319.94 58.3299C320.291 58.5247 320.599 58.7879 320.846 59.1039C321.094 59.42 321.275 59.7825 321.38 60.1699C321.97 61.9599 319.52 64.5399 317.75 65.1699C317.56 65.2399 317.35 65.2799 317.16 65.3599C314.93 66.3599 312.62 65.1699 311.71 62.8099C310.54 59.8099 311.02 56.7499 311.18 53.6699C311.184 52.3765 311.033 51.0873 310.73 49.8299C310.499 48.973 310.215 48.1314 309.88 47.3099C309.65 46.5899 310.25 45.2199 310.96 45.3099C311.358 45.3198 311.749 45.4141 312.107 45.5865C312.466 45.7589 312.784 46.0055 313.04 46.3099C313.9 48.1599 315 49.9999 314.79 51.4799Z" fill="#0E2043"/>
<path d="M165.27 58.47C165.69 60.73 164.4 62.47 163.18 63.96C161.18 66.34 156.87 65.89 155 63.32C154.68 62.88 154.87 61.97 155 61.32C155.06 61.09 155.74 61.02 156.14 60.88C156.566 60.7578 157.017 60.748 157.448 60.8514C157.879 60.9547 158.276 61.1679 158.6 61.47C158.838 61.5487 159.09 61.5717 159.338 61.537C159.586 61.5023 159.823 61.4109 160.03 61.27C160.562 60.8876 160.949 60.3375 161.131 59.7081C161.312 59.0788 161.277 58.4067 161.03 57.8C160.61 56.38 159.52 55.55 158.65 54.5C157.41 53 156.19 51.33 155 49.67C154.53 49.01 155.52 46.89 156.49 46.54C156.705 46.4697 156.932 46.4439 157.158 46.4642C157.383 46.4845 157.602 46.5505 157.802 46.658C158.001 46.7656 158.176 46.9125 158.317 47.0899C158.457 47.2673 158.561 47.4715 158.62 47.69C159.39 49.6 160.95 50.77 162.25 52.24C163.79 53.94 165.65 55.76 165.27 58.47Z" fill="#0E2043"/>
<path d="M125.37 102.63C123.96 102.17 121.99 102.33 121 100.53C120.781 99.8863 120.673 99.21 120.68 98.53C121.372 98.3978 122.076 98.3342 122.78 98.34C123.36 98.41 123.9 98.85 124.5 98.96C125.1 99.07 125.69 99.05 125.91 98.77C126.096 98.5463 126.228 98.2834 126.298 98.001C126.367 97.7187 126.371 97.4243 126.31 97.14C125.72 95.96 125.78 94.6 124.82 93.47C123.799 92.1084 122.986 90.6017 122.41 89C121.753 87.4202 121.209 85.7962 120.78 84.14C120.66 83.5793 120.745 82.9941 121.02 82.4911C121.296 81.988 121.743 81.6008 122.28 81.4C122.512 81.2707 122.773 81.2034 123.039 81.2049C123.304 81.2063 123.565 81.2763 123.795 81.4081C124.026 81.5399 124.218 81.7291 124.354 81.9572C124.49 82.1853 124.564 82.4446 124.57 82.71C125.24 86.12 126.95 89.1 128.5 92.15C129.65 94.43 130.83 96.75 129.71 99.47C129.411 100.386 128.831 101.185 128.052 101.753C127.272 102.32 126.334 102.627 125.37 102.63Z" fill="#0E2043"/>
<path d="M224.05 60.1001C224.14 62.5201 222.85 64.1801 220.97 65.4401C219.47 66.4401 216.5 65.9801 215.48 64.5601C215.297 64.2777 215.176 63.9594 215.126 63.6265C215.076 63.2936 215.098 62.9539 215.19 62.6301C215.47 61.9101 216.28 61.8901 217.04 62.1601C218.89 62.8101 219.85 62.4501 220.28 60.6601C220.302 59.8296 220.075 59.0114 219.63 58.3101C218.28 55.5001 216.8 52.7601 215.5 49.9401C215.38 49.7351 215.305 49.5069 215.279 49.2707C215.254 49.0345 215.279 48.7955 215.352 48.5697C215.426 48.3438 215.547 48.1361 215.707 47.9604C215.867 47.7846 216.062 47.6448 216.28 47.5501C216.466 47.4048 216.682 47.3035 216.912 47.2538C217.143 47.2041 217.381 47.2073 217.611 47.2631C217.84 47.3189 218.053 47.4259 218.235 47.5761C218.417 47.7263 218.562 47.9157 218.66 48.1301C219.55 49.6001 220.21 51.2301 221 52.7701C221.6 53.9201 222.33 55.0001 222.88 56.1701C223.43 57.3401 223.88 58.7101 224.34 59.9901L224.05 60.1001Z" fill="#0E2043"/>
</g>
<defs>
<clipPath id="clip0_21_2">
<rect width="354" height="266.12" fill="white" transform="translate(58)"/>
</clipPath>
</defs>
</svg>
