<svg width="429" height="271" viewBox="0 0 429 271" fill="none" xmlns="http://www.w3.org/2000/svg">
<g clip-path="url(#clip0_7_40)">
<path d="M428.12 235.28V178L350.29 115.29L289.7 113.33L428.12 235.28Z" fill="#9F33FF"/>
<path d="M428.12 175.56V108.27L357.36 52L355.14 111.27L428.12 175.56Z" fill="#22AAFF"/>
<path d="M289.68 104.19C292.5 104.35 295.04 104.52 297.58 104.62C300.12 104.72 302.84 104.69 305.46 104.8C308.89 104.95 312.31 105.28 315.74 105.37C318.85 105.45 321.96 105.24 325.06 105.3C327.27 105.3 329.48 105.61 331.69 105.78C332.16 105.856 332.635 105.893 333.11 105.89C336.64 105.48 340.11 106.09 343.58 106.5C345.15 106.69 346.73 106.68 348.64 106.77C348.64 105.35 348.64 104.17 348.64 103C348.9 96.4801 349.22 90.0001 349.43 83.4301C349.59 78.7201 349.43 74.0001 349.76 69.3001C350.09 64.6001 350.76 60.1301 351.22 55.5401C351.32 54.6101 351.37 53.6701 351.44 52.7101C349.56 52.7101 347.91 52.7101 346.26 52.7101C342.26 52.5701 338.31 52.3601 334.33 52.2401C329.08 52.0701 323.83 51.9701 318.58 51.8101C316.35 51.7401 314.12 51.4501 311.9 51.4901C309.14 51.5401 307.5 50.3701 306.9 47.4901C307.04 47.3401 307.42 47.0901 307.51 46.7601C308.17 44.2601 310.14 44.2701 312.08 44.4001C317.81 44.7801 323.52 45.2301 329.24 45.6301C330.24 45.7001 331.32 45.6301 332.35 45.6301C336.96 45.9101 341.56 46.3101 346.17 46.4801C348.47 46.5452 350.772 46.4148 353.05 46.0901C354.192 45.8678 355.37 45.9254 356.485 46.2581C357.6 46.5907 358.617 47.1884 359.45 48.0001C363.22 51.5401 367.09 55.0001 371.04 58.3401C374.26 61.0601 377.73 63.5001 380.99 66.1701C385.49 69.8701 389.87 73.7101 394.36 77.4201C397.83 80.3001 401.36 83.0801 404.91 85.9001L410.3 90.2701L417.72 96.2701C420.72 98.6701 423.72 101.05 426.65 103.48C427.096 103.792 427.41 104.259 427.53 104.79C427.62 107.16 427.53 109.53 427.53 112.54L357.85 55.0901C357.306 56.46 357.011 57.9163 356.98 59.3901C356.88 62.3901 356.66 65.3901 356.49 68.4601C356.49 69.2601 356.42 70.0501 356.4 70.8501C356.353 75.0634 356.3 79.2734 356.24 83.4801C356.24 86.4801 356.24 89.4801 356.15 92.5401C355.99 97.4067 355.777 102.273 355.51 107.14C355.449 107.568 355.5 108.005 355.658 108.408C355.815 108.811 356.075 109.167 356.41 109.44C360.87 113.28 365.24 117.23 369.76 121C375.02 125.39 380.19 129.93 385.76 133.87C390.76 137.39 395.15 141.53 399.87 145.32C403.66 148.32 407.48 151.32 411.25 154.42C415.25 157.65 419.1 160.94 423.04 164.18C424.011 165.011 425.044 165.767 426.13 166.44C426.599 166.656 426.991 167.011 427.254 167.455C427.517 167.9 427.637 168.415 427.6 168.93C427.54 170.93 427.6 172.93 427.6 175C427.109 175.004 426.624 174.904 426.174 174.708C425.724 174.511 425.321 174.222 424.99 173.86C419.63 169.58 414.26 165.33 408.93 161.02C403.6 156.71 398.35 152.33 393.02 148.02C388.23 144.17 383.35 140.43 378.56 136.59C374.64 133.45 370.72 130.29 366.91 127.01C361.78 122.6 356.78 118.01 351.67 113.6C351.068 113.102 350.321 112.811 349.54 112.77C344.54 112.58 339.49 112.44 334.47 112.39C329.14 112.39 323.81 112.39 318.47 112.39C314.74 112.39 311 112.18 307.27 112.02C302.97 111.83 298.67 111.58 294.37 111.37C293.667 111.394 292.966 111.454 292.27 111.55C292.513 112.052 292.812 112.525 293.16 112.96C297.767 117.02 302.387 121.063 307.02 125.09C312.02 129.44 316.95 133.83 322.02 138.09C326.44 141.86 331.02 145.44 335.41 149.22C339.14 152.43 342.7 155.86 346.41 159.11C349.52 161.84 352.74 164.44 355.87 167.11C361.55 172.003 367.217 176.91 372.87 181.83C376.53 185.02 380.19 188.24 383.77 191.52C388.16 195.52 392.42 199.77 396.85 203.78C401.28 207.79 405.73 211.54 410.17 215.42C412.93 217.84 415.66 220.29 418.42 222.7C419.73 223.85 421.06 225.01 422.42 226.07C423.99 227.27 424.89 229.18 426.82 230.07C427.28 230.27 427.59 231.27 427.61 231.91C427.71 234.38 427.61 236.86 427.61 239.63C427.16 239.413 426.728 239.159 426.32 238.87C422.49 235.49 418.69 232.1 414.88 228.7L404.73 219.61C400.73 216.07 396.73 212.61 392.84 208.98C387.2 203.79 381.68 198.47 376.05 193.28C372.72 190.21 369.27 187.28 365.85 184.28C360.257 179.427 354.64 174.59 349 169.77C345.3 166.59 341.55 163.49 337.86 160.31C332.91 156.05 328.03 151.72 323.06 147.47C318.83 143.85 314.5 140.34 310.26 136.72C306.213 133.247 302.213 129.73 298.26 126.17C294.76 123.03 291.26 119.86 287.9 116.6C286.264 114.971 284.725 113.248 283.29 111.44C282.882 111.044 282.606 110.533 282.498 109.975C282.391 109.416 282.458 108.839 282.69 108.32C282.79 108.1 282.841 107.861 282.84 107.62C282.94 102.39 283.44 97.1801 283.19 91.9201C282.96 87.0101 283.57 82.0601 283.83 77.1301C283.9 75.7001 283.98 74.2601 284.15 72.8401C284.34 71.2201 285.21 70.1901 286.35 70.0601C287.032 69.999 287.714 70.173 288.284 70.5532C288.853 70.9334 289.275 71.4968 289.48 72.1501C289.752 73.0676 289.871 74.0239 289.83 74.9801C289.77 77.0401 289.5 79.1001 289.46 81.1701C289.37 85.4701 289.06 89.7601 289.6 94.0901C290 97.3001 289.68 100.6 289.68 104.19Z" fill="#0E2043"/>
<path d="M283.64 43.65C284.05 40.97 284.42 38.46 284.84 35.97C285.019 34.8771 285.272 33.7979 285.6 32.74C285.719 32.2665 286 31.8497 286.395 31.5627C286.79 31.2756 287.273 31.1366 287.76 31.17C288.319 31.1401 288.874 31.2772 289.355 31.5639C289.836 31.8506 290.221 32.274 290.46 32.78C291.341 34.6813 291.546 36.8265 291.04 38.86C290.8 40.35 290.6 41.86 290.37 43.43C290.916 43.6687 291.486 43.8497 292.07 43.97C294.53 44.19 296.99 44.35 299.44 44.53C301.34 44.67 302.24 45.53 302.37 47.19C302.51 49.09 301.78 50.27 299.81 50.46C297.353 50.6817 294.883 50.7185 292.42 50.57C290.15 50.45 289.95 50.5 289.91 52.78C289.975 53.7356 289.975 54.6945 289.91 55.65C289.765 56.8273 289.427 57.9726 288.91 59.04C287.91 60.82 284.65 60.67 283.76 58.82C283.353 57.8693 283.119 56.8532 283.07 55.82C282.95 54.23 283.01 52.63 282.98 51.03C282.98 50.96 282.92 50.89 282.72 50.49C280.49 50.3 278.07 50 275.64 49.92C273.21 49.84 272.06 48.92 271.75 46.61C271.55 45.19 273.45 42.94 275.07 42.88C276.583 42.8583 278.096 42.9317 279.6 43.1C280.86 43.23 282.1 43.44 283.64 43.65Z" fill="#0E2043"/>
<path d="M322.639 93.3101H316.728V74.41H309.401V69.9556H309.817C312.176 69.9556 314.035 69.4699 315.395 68.4986C316.783 67.4995 317.63 66.0563 317.935 64.1691H322.639V93.3101Z" fill="#FF5D31"/>
</g>
<defs>
<clipPath id="clip0_7_40">
<rect width="428.12" height="269.61" fill="white"/>
</clipPath>
</defs>
</svg>
