<svg width="44" height="44" viewBox="0 0 44 44" fill="none" xmlns="http://www.w3.org/2000/svg">
<path d="M22 44C34.1503 44 44 34.1503 44 22C44 9.84974 34.1503 0 22 0C9.84974 0 0 9.84974 0 22C0 34.1503 9.84974 44 22 44Z" fill="#E6E7E8"/>
<path d="M20.1708 10.1617L32.5173 31.5012C32.5508 31.5585 32.5709 31.6227 32.5759 31.6889C32.581 31.7551 32.5709 31.8215 32.5464 31.8833C32.5219 31.945 32.4837 32.0003 32.4346 32.045C32.3855 32.0897 32.3269 32.1227 32.2632 32.1414L19.927 36.0638C19.8609 36.0865 19.7903 36.0931 19.7211 36.083C19.652 36.0728 19.5863 36.0462 19.5295 36.0054C19.4728 35.9645 19.4267 35.9107 19.395 35.8484C19.3634 35.7861 19.3472 35.7171 19.3478 35.6472V10.3345C19.3457 10.2361 19.3769 10.14 19.4363 10.0616C19.4957 9.98317 19.5797 9.92709 19.6749 9.90241C19.7702 9.87773 19.8709 9.88589 19.9609 9.92557C20.0509 9.96524 20.1249 10.0341 20.1708 10.1211" fill="#2083FD"/>
<path d="M33.9401 29.8955L22.0103 9.22667C21.9648 9.15423 21.9416 9.07004 21.9435 8.98452C21.9454 8.89901 21.9724 8.81593 22.0211 8.74561C22.0697 8.67528 22.138 8.62079 22.2174 8.58889C22.2967 8.55699 22.3837 8.54909 22.4675 8.56617L35.444 10.7712C35.5498 10.7907 35.645 10.8477 35.7122 10.9317C35.7794 11.0157 35.814 11.121 35.8098 11.2285L34.7936 29.7024C34.7871 29.798 34.75 29.889 34.6879 29.9619C34.6257 30.0348 34.5418 30.0858 34.4485 30.1075C34.3551 30.1291 34.2573 30.1202 34.1695 30.082C34.0816 30.0438 34.0083 29.9785 33.9604 29.8955" fill="#2083FD"/>
<path d="M16.5532 10.2126L6.02576 26.7761C5.9691 26.8702 5.9482 26.9815 5.96685 27.0897C5.98551 27.1979 6.04249 27.2958 6.12737 27.3655L16.6549 35.6879C16.7194 35.74 16.7974 35.7726 16.8798 35.782C16.9622 35.7914 17.0456 35.7771 17.1202 35.7409C17.1948 35.7046 17.2575 35.6479 17.3011 35.5774C17.3446 35.5068 17.3672 35.4253 17.3662 35.3424V10.4565C17.3711 10.3588 17.3432 10.2623 17.2869 10.1824C17.2305 10.1025 17.149 10.0438 17.0553 10.0157C16.9617 9.98765 16.8613 9.99177 16.7703 10.0275C16.6793 10.0631 16.6028 10.1283 16.5532 10.2126" fill="#2083FD"/>
</svg>
