<svg width="17" height="16" viewBox="0 0 17 16" fill="none" xmlns="http://www.w3.org/2000/svg">
<path d="M14.6267 0H2.37331C1.06257 0 0 1.07903 0 2.41009V13.5899C0 14.921 1.06257 16 2.37331 16H14.6267C15.9374 16 17 14.921 17 13.5899V2.41009C17 1.07903 15.9374 0 14.6267 0Z" fill="#2083FD"/>
<path d="M14.2522 7.08416C15.5222 10.2942 15.4422 12.0842 13.8722 13.2542C12.3022 14.4242 10.7922 13.5542 9.46222 12.4542C8.89222 14.1142 6.04222 13.0242 5.21222 11.4542C5.15933 11.6095 5.12574 11.7707 5.11222 11.9342C5.11222 12.8642 4.71222 13.2342 3.80222 13.2242C2.89222 13.2142 2.41222 12.9442 2.32222 12.0142C2.16222 10.2942 2.09222 8.56416 2.02222 6.83416C1.97222 5.71416 2.02222 4.59416 2.02222 3.47416C2.02222 2.35416 2.33222 2.13416 3.30222 2.14416C4.46222 2.14416 5.56222 2.32416 6.05222 3.77416C6.23222 3.26416 6.25222 2.77416 6.49222 2.60416C6.73222 2.43416 7.35222 2.21416 7.56222 2.36416C8.04924 2.73778 8.45428 3.2075 8.75222 3.74416C8.90557 4.19869 8.98656 4.67449 8.99222 5.15416C9.48222 3.15416 10.3122 2.15416 11.5622 2.05416C11.9682 1.97765 12.3852 1.98225 12.7894 2.06769C13.1935 2.15313 13.5768 2.31772 13.917 2.55199C14.2572 2.78625 14.5477 3.08553 14.7717 3.4326C14.9958 3.77967 15.1489 4.16765 15.2222 4.57416C15.3265 4.8022 15.3841 5.04879 15.3916 5.29941C15.3991 5.55004 15.3564 5.79964 15.266 6.03352C15.1757 6.2674 15.0394 6.48084 14.8653 6.66128C14.6912 6.84171 14.4827 6.98549 14.2522 7.08416ZM3.97222 6.51416L4.34222 6.44416C4.50222 6.80416 4.68222 7.15416 4.81222 7.52416C5.27222 8.80416 5.70222 10.1042 6.16222 11.3842C6.44222 12.1342 7.10222 12.0542 7.69222 11.9542C7.87222 11.9542 8.15222 11.6342 8.14222 11.4742C8.07222 8.90416 7.98222 6.34416 7.84222 3.77416C7.84222 3.53416 7.50222 3.30416 7.31222 3.07416C7.18222 3.30416 6.96222 3.52416 6.94222 3.76416C6.85222 4.85416 6.83222 5.94416 6.74222 7.03416C6.68551 7.27738 6.59103 7.5102 6.46222 7.72416C6.25222 7.55416 5.94222 7.42416 5.84222 7.20416C5.67197 6.71992 5.5317 6.22565 5.42222 5.72416C5.21222 4.97416 5.02222 4.21416 4.77222 3.47416C4.52222 2.73416 3.77222 2.93416 3.21222 2.86416C3.05222 2.86416 2.72222 3.22416 2.69222 3.44416C2.60383 4.16725 2.5704 4.89601 2.59222 5.62416C2.59222 7.62416 2.71222 9.55416 2.74222 11.5142C2.74222 12.0842 3.07222 12.3242 3.51222 12.2442C3.65984 12.1926 3.79169 12.1038 3.89503 11.9865C3.99837 11.8691 4.06973 11.7271 4.10222 11.5742C4.10222 10.3342 4.02222 9.09416 3.97222 7.85416C3.95222 7.38416 3.97222 6.96416 3.97222 6.51416V6.51416ZM9.27222 8.70416C9.39168 9.60786 9.56871 10.503 9.80222 11.3842C9.91997 11.7098 10.1179 12.0005 10.3777 12.2294C10.6376 12.4583 10.9509 12.618 11.2888 12.6938C11.6267 12.7695 11.9782 12.7589 12.3109 12.6628C12.6436 12.5667 12.9467 12.3884 13.1922 12.1442C13.766 11.5329 14.1111 10.7424 14.1694 9.90613C14.2277 9.06985 13.9956 8.23908 13.5122 7.55416C13.1822 7.15416 12.5122 6.68416 12.1022 6.76416C11.1022 6.94416 10.9222 6.52416 11.1922 5.76416C11.3822 5.24416 11.7022 4.50416 12.1022 4.39416C12.7622 4.22416 12.7022 5.02416 12.8622 5.49416C12.9322 5.69416 13.2022 5.96416 13.3922 5.96416C13.5822 5.96416 14.1122 5.72416 14.1022 5.62416C14.1035 4.84413 13.9855 4.0685 13.7522 3.32416C13.5955 3.02157 13.3293 2.79005 13.008 2.67673C12.6866 2.56341 12.3341 2.5768 12.0222 2.71416C11.2222 3.01416 10.2222 3.25416 10.0222 4.35416C9.75222 5.77416 9.52222 7.21416 9.27222 8.70416V8.70416Z" fill="#0E2043"/>
<path d="M12.8922 9.6842C12.4222 10.1942 12.1522 10.6842 11.8922 10.6842C11.7626 10.6773 11.6363 10.6413 11.5227 10.5787C11.4091 10.5161 11.3111 10.4286 11.2361 10.3228C11.1611 10.217 11.111 10.0956 11.0895 9.96772C11.068 9.8398 11.0758 9.70869 11.1122 9.58419C11.2216 9.25479 11.3874 8.9469 11.6022 8.67419L12.8922 9.6842Z" fill="#0E2043"/>
</svg>
