<svg width="41" height="33" viewBox="0 0 41 33" fill="none" xmlns="http://www.w3.org/2000/svg">
<rect width="41" height="33" fill="white"/>
<g clip-path="url(#clip0_7_129)">
<path d="M4.22684 22.7209C4.31817 21.5213 4.30438 20.3158 4.18564 19.1187C3.89719 17.3662 4.08262 15.6416 4.00707 13.8892C3.959 12.7835 4.14443 11.6708 4.16503 10.5651C4.18564 9.45943 4.13756 8.17292 4.14443 6.96291C4.11871 6.38339 4.15556 5.80276 4.25432 5.23134C4.32656 4.87568 4.52359 4.55857 4.80894 4.33867C5.0943 4.11877 5.44866 4.01098 5.80645 4.03523C6.96712 4.06305 8.12091 4.00046 9.29532 4.00046C10.8681 4.00046 12.379 4.07 13.9242 4.08391C14.611 4.08391 15.3528 4.08391 16.0739 4.08391C17.8939 4.08391 19.7207 4.08391 21.5682 4.08391C22.6395 4.08391 23.7041 4.18127 24.7754 4.19518C25.215 4.19518 25.6477 4.09086 26.0872 4.07696C26.877 4.07696 27.6668 4.07696 28.4497 4.07696C29.4112 4.04219 30.4414 4.04219 31.4716 4.00046C32.0282 3.96989 32.5793 4.12654 33.0388 4.446C33.4984 4.76547 33.8408 5.22983 34.0127 5.7668C34.2256 6.46221 34.3973 7.15762 34.6102 7.85303C34.6575 7.98709 34.7467 8.10185 34.8643 8.17988C35.177 8.44035 35.4223 8.77404 35.5791 9.15207C35.7359 9.53011 35.7993 9.94111 35.764 10.3496C35.8739 12.7557 36.0044 15.1548 36.1005 17.561C36.1623 19.0352 36.1829 20.5095 36.231 21.9838C36.231 22.3454 36.334 22.6792 36.3684 23.0617C36.4028 23.2595 36.4028 23.4619 36.3684 23.6597C36.2104 24.1009 36.1692 24.5763 36.2487 25.0386C36.3282 25.5009 36.5257 25.9342 36.8216 26.2953C36.9124 26.4522 36.9686 26.6271 36.9863 26.8081C37.0039 26.989 36.9826 27.1717 36.9239 27.3435C36.8651 27.5153 36.7703 27.6722 36.646 27.8034C36.5216 27.9346 36.3707 28.0369 36.2035 28.1034C35.5504 28.3054 34.8783 28.4382 34.1981 28.4998C33.2778 28.611 32.3507 28.6806 31.451 28.7292C30.2285 28.7918 29.0129 28.8197 27.7904 28.8475C26.3756 28.8475 24.954 28.9031 23.5392 28.924C22.1245 28.9448 20.5586 29.0144 19.0683 28.9866C17.4543 28.9866 15.8404 28.8405 14.2608 28.7849C13.1619 28.7432 12.0631 28.7849 10.9711 28.7084C10.0645 28.6249 9.17169 28.3676 8.27201 28.1938C7.64703 28.0686 7.01519 27.9713 6.39708 27.8113C5.95169 27.6802 5.55443 27.4189 5.2551 27.0602C4.95577 26.7014 4.7677 26.2612 4.71446 25.7946C4.44662 24.9184 4.39854 24.0005 4.22684 22.7209ZM6.74734 6.49003C6.74734 7.7974 6.74734 9.02132 6.74734 10.2592C6.74734 11.9281 6.69927 13.6041 6.68553 15.2731C6.68553 16.0728 6.68553 16.8655 6.74734 17.6653C6.80915 18.465 6.92591 19.1395 6.93964 19.8767C6.98085 21.5248 6.80915 23.1729 7.22123 24.8071C7.33798 25.2522 7.53028 25.3913 7.90801 25.4191C8.20879 25.4208 8.50935 25.4022 8.8077 25.3635C9.49448 25.3217 10.2431 25.2522 10.9642 25.2452C12.1043 25.2452 13.2443 25.2939 14.3981 25.2452C15.6893 25.2452 16.9804 25.1201 18.2647 25.0992C19.7001 25.0992 21.1423 25.1548 22.5777 25.0992C24.0131 25.0436 25.6614 24.9254 27.1998 24.828C28.4429 24.7445 29.6791 24.675 30.9153 24.5568C31.3981 24.4948 31.8772 24.4066 32.3507 24.2925C32.3507 23.7223 32.3507 23.2981 32.3507 22.9017C32.2614 21.1493 32.124 19.4247 32.0622 17.6514C32.0279 16.7056 32.1034 15.7668 32.1378 14.821C32.1858 13.2911 32.2683 11.7543 32.2957 10.2174C32.2957 9.16736 32.2957 8.1312 32.2545 7.06027C32.2545 6.70561 32.0897 6.50394 31.6708 6.5248C30.984 6.5248 30.3453 6.5248 29.6791 6.5248C28.3055 6.5248 26.9319 6.5248 25.5584 6.5248C23.5598 6.5248 21.5613 6.5248 19.5627 6.5248C18.0724 6.5248 16.5752 6.47612 15.0849 6.47612C13.4366 6.47612 11.7815 6.47612 10.1332 6.47612C9.70052 6.47612 9.26784 6.47612 8.84204 6.47612L6.74734 6.49003Z" fill="#0E2043"/>
<path d="M20.3042 15.231C20.3256 15.9476 20.3852 16.6626 20.4828 17.3728C20.6387 18.4435 20.6641 19.5295 20.5584 20.6065C20.524 21.0376 20.6476 21.4757 20.627 21.8999C20.6191 22.2489 20.4913 22.5842 20.2657 22.8482C20.0401 23.1121 19.7308 23.2883 19.3908 23.3464C19.0458 23.3566 18.7088 23.2406 18.4414 23.0197C18.174 22.7987 17.9941 22.4876 17.9348 22.1433C17.873 21.3019 17.9348 20.4465 17.9348 19.6051C17.9348 19.4034 18.0447 19.2017 18.0104 19.014C17.8033 17.7617 17.764 16.4869 17.8936 15.224C17.8936 15.1614 17.8524 15.0988 17.7837 14.8902C17.4129 15.3839 17.097 15.7734 16.8085 16.1976C16.5838 16.4889 16.2867 16.7145 15.9476 16.8513C15.6085 16.9882 15.2396 17.0313 14.8786 16.9764C14.5304 16.8575 14.2085 16.6709 13.9309 16.4271C13.7743 16.2138 13.6961 15.9519 13.7099 15.6866C13.7237 15.4212 13.8286 15.1691 14.0064 14.9736C14.5147 14.2087 14.9748 13.402 15.5174 12.6649C16.0599 11.9278 16.678 11.2323 17.2893 10.5787C17.6033 10.1964 17.9632 9.85538 18.3606 9.56336C18.4819 9.45766 18.6234 9.37834 18.7762 9.33033C18.9291 9.28231 19.09 9.26661 19.2491 9.28422C19.4082 9.30183 19.562 9.35236 19.701 9.43268C19.8399 9.513 19.9611 9.62139 20.057 9.75112C20.9224 10.6482 21.7534 11.5731 22.5844 12.5328C23.074 13.0737 23.5326 13.6425 23.9579 14.2365C24.4456 14.9319 24.6791 15.9194 23.745 16.6426C23.5714 16.7679 23.3747 16.8567 23.1666 16.9039C22.9586 16.9511 22.7433 16.9558 22.5334 16.9176C22.3236 16.8793 22.1234 16.799 21.9446 16.6814C21.7658 16.5637 21.6121 16.411 21.4924 16.2323C21.1833 15.8568 20.8056 15.5369 20.4897 15.1753L20.3042 15.231Z" fill="#0E2043"/>
</g>
<defs>
<clipPath id="clip0_7_129">
<rect width="33" height="25" fill="white" transform="translate(4 4)"/>
</clipPath>
</defs>
</svg>
