<svg width="17" height="16" viewBox="0 0 17 16" fill="none" xmlns="http://www.w3.org/2000/svg">
<path d="M14.6267 0H2.37331C1.06257 0 0 1.07903 0 2.41009V13.5899C0 14.921 1.06257 16 2.37331 16H14.6267C15.9374 16 17 14.921 17 13.5899V2.41009C17 1.07903 15.9374 0 14.6267 0Z" fill="#2083FD"/>
<path d="M13.9222 5.15197C15.5022 6.92197 15.5322 9.01197 14.5522 11.302C13.8122 13.002 11.5522 14.142 10.0622 12.302C9.86614 12.1149 9.63955 11.9627 9.39222 11.852C9.01222 13.382 8.59222 13.642 7.19222 13.022C6.45998 12.6393 5.75794 12.2013 5.09222 11.712C5.09222 11.652 5.09222 11.792 5.09222 11.932C5.14222 12.932 4.61222 13.182 3.74222 13.192C2.87222 13.202 2.39222 12.842 2.32222 12.012C2.19222 10.322 2.09222 8.62197 2.02222 6.93197C1.97222 5.75197 2.02222 4.57197 2.02222 3.39197C2.02222 2.39197 2.35222 2.09197 3.34222 2.10197C4.51222 2.10197 5.57222 2.35197 6.09222 3.71197C6.47222 1.95197 7.24222 1.81198 8.70222 3.12198C8.82716 2.72919 9.09799 2.39929 9.45891 2.20022C9.81983 2.00116 10.2433 1.94809 10.6422 2.05197C11.2449 2.09195 11.8496 2.09195 12.4522 2.05197C12.8741 2.00349 13.2991 2.11094 13.6472 2.35407C13.9953 2.5972 14.2425 2.95923 14.3422 3.37198C14.2972 3.98379 14.1555 4.58459 13.9222 5.15197V5.15197ZM3.92222 6.52197L4.29222 6.46197C4.45158 6.70411 4.592 6.95821 4.71222 7.22197C5.14222 8.45197 5.60222 9.67197 5.94222 10.922C5.97566 11.1485 6.06703 11.3626 6.20749 11.5435C6.34794 11.7244 6.53273 11.8659 6.74395 11.9544C6.95516 12.043 7.18566 12.0754 7.41311 12.0487C7.64056 12.022 7.85726 11.937 8.04222 11.802C8.04222 10.562 8.04222 9.36197 8.04222 8.16197C8.04222 6.74197 7.94222 5.32197 7.82222 3.90197C7.82222 3.61197 7.50222 3.34197 7.33222 3.07197C7.14033 3.32434 6.99474 3.60874 6.90222 3.91197C6.80222 4.91197 6.80222 5.97197 6.71222 7.00197C6.64578 7.2579 6.53766 7.50115 6.39222 7.72197C6.19222 7.53197 5.90222 7.38197 5.81222 7.14197C5.62222 6.67197 5.54222 6.14197 5.39222 5.66197C5.26686 4.89662 5.03459 4.15269 4.70222 3.45197C4.46222 3.08197 3.70222 2.98197 3.23222 2.85197C3.09222 2.85197 2.72222 3.13197 2.70222 3.31197C2.61921 4.12585 2.58581 4.94404 2.60222 5.76198C2.60222 7.64198 2.74222 9.51197 2.75222 11.382C2.75222 11.972 2.92222 12.222 3.47222 12.282C4.02222 12.342 4.13222 11.922 4.12222 11.522C4.12222 10.282 4.00222 9.04197 3.95222 7.80197C3.89222 7.37197 3.90222 6.95197 3.90222 6.52197H3.92222ZM9.40222 5.91197C9.40222 6.12197 9.40222 6.34197 9.40222 6.55197C9.40222 7.00197 9.40222 7.43197 9.97222 7.55197C10.5422 7.67197 10.9722 7.62198 10.9722 6.87198C10.9722 6.70198 11.4122 6.40197 11.6322 6.42197C11.783 6.44311 11.9264 6.50057 12.0501 6.58941C12.1738 6.67825 12.274 6.79581 12.3422 6.93197C12.5172 7.50807 12.585 8.1114 12.5422 8.71197C12.5422 9.13197 12.1022 9.51197 11.8622 9.91197C11.6059 9.65635 11.3319 9.41909 11.0422 9.20197C10.7353 9.00361 10.3973 8.85825 10.0422 8.77197C9.92222 8.77197 9.66222 8.95197 9.60222 9.11197C9.49644 9.53901 9.49864 9.98567 9.60862 10.4116C9.71861 10.8376 9.93292 11.2295 10.2322 11.552C10.6428 11.8093 11.1176 11.9458 11.6022 11.9458C12.0868 11.9458 12.5616 11.8093 12.9722 11.552C13.5585 10.9447 13.9815 10.1989 14.2019 9.38411C14.4222 8.56928 14.4326 7.71193 14.2322 6.89197C14.0461 6.3783 13.7233 5.9252 13.2986 5.58155C12.8739 5.2379 12.3634 5.01676 11.8222 4.94198C11.5654 4.84805 11.3256 4.71294 11.1122 4.54197C11.345 4.35657 11.5964 4.19571 11.8622 4.06197C12.1322 3.97197 12.4922 4.06198 12.7422 3.94198C12.9922 3.82198 13.2522 3.51197 13.2422 3.30197C13.2052 3.16796 13.137 3.04464 13.0431 2.94208C12.9493 2.83953 12.8324 2.76067 12.7022 2.71197C11.8622 2.64197 11.0222 2.71197 10.1822 2.71197C9.50222 2.71197 9.25222 3.07197 9.28222 3.71197C9.31222 4.35197 9.34222 5.16197 9.38222 5.91197H9.40222Z" fill="#0E2043"/>
</svg>
