<svg width="19" height="19" viewBox="0 0 19 19" fill="none" xmlns="http://www.w3.org/2000/svg">
<circle cx="9.5" cy="9.5" r="9.5" fill="black"/>
<path d="M9.02778 9.68845C9.57986 9.43589 9.86806 9.05372 9.86806 8.45888C9.86806 7.28579 8.95486 7 7.90104 7H5V12.8887H7.98264C9.10069 12.8887 10.151 12.3752 10.151 11.1789C10.151 10.4395 9.78472 9.89283 9.02778 9.68845V9.68845ZM6.35243 8.00526H7.62153C8.10938 8.00526 8.54861 8.13653 8.54861 8.67821C8.54861 9.17834 8.2066 9.3794 7.72396 9.3794H6.35243V8.00526V8.00526ZM7.79861 11.8884H6.35243V10.2667H7.82639C8.42188 10.2667 8.79861 10.5043 8.79861 11.1074C8.79861 11.7023 8.34896 11.8884 7.79861 11.8884V11.8884ZM14.0226 7.88895H11.5278V7.30906H14.0226V7.88895V7.88895ZM15 10.8183C15 9.55719 14.2292 8.5054 12.8316 8.5054C11.474 8.5054 10.5521 9.48241 10.5521 10.7618C10.5521 12.0894 11.4253 13 12.8316 13C13.8958 13 14.5851 12.5414 14.9167 11.566H13.8368C13.7205 11.9299 13.2413 12.1227 12.8698 12.1227C12.1528 12.1227 11.776 11.7206 11.776 11.0377H14.9896C14.9948 10.9679 15 10.8931 15 10.8183ZM11.7778 10.2999C11.8177 9.73996 12.2066 9.38937 12.7934 9.38937C13.408 9.38937 13.717 9.73498 13.7691 10.2999H11.7778Z" fill="white"/>
</svg>
