<svg width="105" height="56" viewBox="0 0 105 56" fill="none" xmlns="http://www.w3.org/2000/svg">
<g clip-path="url(#clip0_8_3)">
<path d="M86.6899 45.3901L13.3999 47.5101C12.5423 47.5078 11.6938 47.3336 10.9045 46.998C10.1153 46.6624 9.40134 46.172 8.80477 45.5558C8.2082 44.9397 7.74112 44.2103 7.43113 43.4106C7.12113 42.611 6.9745 41.7573 6.99988 40.9001V14.6901C6.95723 13.0289 7.55735 11.4153 8.67514 10.1857C9.79294 8.95617 11.3422 8.20544 12.9999 8.09005L86.2699 5.00005C87.1341 4.98882 87.9917 5.15278 88.7909 5.48202C89.5901 5.81126 90.3143 6.29897 90.9198 6.91574C91.5254 7.5325 91.9997 8.26553 92.3143 9.07061C92.6288 9.87569 92.777 10.7361 92.7499 11.6001V38.7901C92.7968 40.4623 92.1902 42.0871 91.0587 43.3194C89.9273 44.5517 88.3601 45.2944 86.6899 45.3901Z" fill="white"/>
<path d="M94.37 14.45C96.37 14.13 97.26 14.88 97.88 16.74C98.3172 18.389 98.4394 20.1057 98.24 21.8C98.15 23.8 98.44 25.8 98.47 27.8C98.53 31.53 98.57 35.26 98.47 38.99C98.47 39.67 97.79 40.32 97.47 40.99C97.086 41.8465 96.7521 42.7247 96.47 43.62C95.56 46.74 93.15 48.08 90.24 48.55C86.71 49.12 83.15 49.47 79.59 49.85C77 50.12 74.4 50.42 71.8 50.49C69.2 50.56 66.88 50.28 64.42 50.24C61.96 50.2 59.42 50.24 56.96 50.29C54.29 50.38 51.63 50.59 48.96 50.73C46.96 50.84 44.96 51.04 42.9 50.99C39.8508 50.9876 36.8049 50.7939 33.78 50.41C32.2493 50.0998 30.6989 49.896 29.14 49.8C27.1325 49.7954 25.1277 49.6517 23.14 49.37C20.7017 49.1717 18.297 48.6746 15.98 47.89C15.1676 47.6159 14.4338 47.1487 13.8416 46.5287C13.2494 45.9086 12.8165 45.1541 12.58 44.33C12.32 43.16 11.76 42.06 11.48 40.89C11 38.89 10.48 36.83 10.24 34.77C9.94999 32.52 9.83999 30.24 9.73999 27.97C9.73999 26.97 9.87999 25.88 9.92999 24.84C9.92999 23.99 9.92999 23.14 9.92999 22.29C10.04 20.36 10.19 18.42 10.33 16.49C10.33 16.11 10.43 15.73 10.45 15.34C10.4271 14.973 10.5089 14.6071 10.686 14.2849C10.863 13.9627 11.128 13.6974 11.45 13.52C12.6214 13.0129 13.7373 12.3863 14.78 11.65C16.0055 10.7481 17.4788 10.2453 19 10.21C21.1 9.93998 23.19 9.60998 25.3 9.44998C27.58 9.26998 29.87 9.30998 32.15 9.15998C33.57 9.06998 34.97 8.68998 36.39 8.60998C38.39 8.49998 40.39 8.60998 42.45 8.48998C43.81 8.43998 45.16 8.15998 46.52 8.12998C50.03 8.05998 53.52 8.17998 57.05 8.01998C59.61 7.90998 62.15 7.43998 64.71 7.19998C67.71 6.91998 70.62 6.70998 73.58 6.48998C75.9612 6.23073 78.3547 6.10054 80.75 6.09998C83.2188 6.24373 85.6727 6.57806 88.09 7.09998C88.9916 7.39709 89.8151 7.89257 90.5 8.54998C92 9.76998 93.75 10.89 93.78 13.21C93.79 13.63 94.17 14 94.37 14.45ZM48.13 43.27V43H55.84C57.11 43 58.38 43 59.64 43C60.9 43 62.05 42.85 63.24 42.68C64.7 42.47 66.14 42.12 67.6 41.92C70.81 41.49 74.05 41.29 77.22 40.67C80.39 40.05 83.79 39 87 38.07C87.28 37.9048 87.5168 37.6754 87.6906 37.4006C87.8645 37.1259 87.9705 36.8138 88 36.49C88 33.98 87.8 31.49 87.89 28.95C88.06 24.59 88.38 20.23 88.67 15.87C88.7049 14.8124 88.3601 13.7772 87.6979 12.9518C87.0357 12.1264 86.1 11.5653 85.06 11.37C83.9162 11.2184 82.7638 11.1416 81.61 11.14C79.06 11.14 76.49 11.14 73.95 11.31C71.41 11.48 68.7 11.84 66.08 12.15C64.22 12.38 62.38 12.78 60.52 12.91C58.15 13.07 55.76 13.03 53.39 13.09C52.78 13.09 52.17 13.27 51.56 13.26C49.56 13.26 47.56 13.13 45.56 13.19C43.09 13.27 40.63 13.5 38.16 13.63C36 13.76 33.84 13.85 31.68 13.95C30.83 13.95 29.97 14.03 29.12 14.05C27.27 14.05 25.42 14.11 23.57 14.17C21.72 14.23 19.66 14.36 17.71 14.46C17.5941 14.4823 17.4887 14.542 17.41 14.63C16.61 15.63 15.32 16.36 15.33 17.86C15.33 18.91 15.47 19.96 15.5 21.01C15.6299 22.7142 15.6299 24.4258 15.5 26.13C15.3238 28.2939 15.4246 30.4715 15.8 32.61C16.09 35.02 16.64 37.4 16.99 39.8C17.1376 40.5912 17.4933 41.3289 18.0206 41.937C18.5479 42.5451 19.2276 43.0018 19.99 43.26C20.6531 43.348 21.3211 43.3948 21.99 43.4C23.92 43.52 25.86 43.75 27.79 43.73C29.53 43.73 31.26 43.31 32.99 43.29C38.08 43.23 43.1 43.27 48.13 43.27Z" fill="#0E2043"/>
<path d="M40.4799 31.26C41.8899 32.26 43.3899 33.18 44.7399 34.26C45.3772 34.82 45.8507 35.5423 46.1099 36.35C46.1979 36.6036 46.2132 36.8767 46.1542 37.1385C46.0952 37.4004 45.9642 37.6405 45.776 37.8318C45.5878 38.0232 45.3499 38.1581 45.089 38.2214C44.8282 38.2847 44.5549 38.2738 44.2999 38.19C43.2195 37.7939 42.1918 37.2666 41.2399 36.62C40.1699 35.94 39.2399 35.1 38.1699 34.39C36.1299 33.1609 33.8101 32.4726 31.4299 32.39C31.4299 33.27 31.4299 34.08 31.4299 34.88C31.4299 35.68 31.5799 36.68 31.5899 37.57C31.5999 38.46 31.5899 39.36 30.3999 39.49C30.1651 39.5266 29.9252 39.5146 29.6952 39.4548C29.4652 39.3951 29.2498 39.2889 29.0624 39.1427C28.8751 38.9965 28.7196 38.8135 28.6056 38.605C28.4917 38.3964 28.4217 38.1667 28.3999 37.93C28.0911 36.8351 27.9927 35.6916 28.1099 34.56C28.4199 32.74 27.7499 31.06 27.7199 29.29C27.7199 27.17 27.3199 25.05 27.2299 22.92C27.1499 21.22 27.7999 20.67 29.4899 20.65C29.6051 20.6762 29.7247 20.6762 29.8399 20.65C32.1799 19.29 34.7799 19.54 37.2499 19.79C39.3793 19.8505 41.4527 20.4864 43.2499 21.63C43.7552 21.989 44.157 22.4746 44.4151 23.0381C44.6731 23.6015 44.7782 24.223 44.7199 24.84C44.6699 27.72 43.1099 29.42 40.7199 30.66C40.6228 30.7291 40.541 30.8177 40.4799 30.92C40.4674 31.033 40.4674 31.1471 40.4799 31.26V31.26ZM30.8599 28.21C32.0199 28.33 32.9399 28.47 33.8599 28.5C34.9634 28.6762 36.0905 28.6389 37.1799 28.39C38.4203 27.8246 39.5562 27.0537 40.5399 26.11C40.7437 25.95 40.8946 25.7322 40.9728 25.4851C41.0511 25.2381 41.0531 24.9732 40.9786 24.7249C40.9042 24.4767 40.7567 24.2567 40.5553 24.0935C40.354 23.9303 40.1082 23.8315 39.8499 23.81C37.4699 23.49 35.0699 23.26 32.6699 23.13C31.4699 23.06 30.4499 23.92 30.4999 24.79C30.5699 26 30.7399 27.14 30.8599 28.21Z" fill="#FF5D31"/>
<path d="M56.7 30.74C55.52 30.64 54.28 30.55 53.04 30.41C51.8 30.27 51.38 30.46 51.31 31.86C51.255 32.7134 51.275 33.5701 51.37 34.42C51.4386 34.5769 51.5463 34.7135 51.6829 34.8168C51.8195 34.9202 51.9803 34.9867 52.15 35.01C53.97 34.89 55.79 34.7 57.61 34.48C58.0928 34.4083 58.5859 34.4627 59.0415 34.6379C59.4971 34.8132 59.8996 35.1032 60.21 35.48C60.79 36.16 60.16 37.34 58.89 37.72C57.8301 37.9745 56.7487 38.1285 55.66 38.18C54.14 38.32 52.66 38.47 51.1 38.53C50.7039 38.5738 50.3031 38.5297 49.9261 38.4009C49.5491 38.2721 49.2051 38.0618 48.9186 37.7849C48.6321 37.5079 48.4102 37.1713 48.2687 36.7988C48.1272 36.4263 48.0696 36.0273 48.1 35.63C48.1 33.89 48.39 32.15 48.41 30.41C48.43 28.67 48.24 27.06 48.18 25.41C48.13 23.93 48.02 22.41 48.11 20.96C48.23 19.13 49.11 18.29 51.45 18.03C54.1081 17.7602 56.7782 17.6267 59.45 17.63C59.7799 17.6048 60.1113 17.6565 60.4179 17.781C60.7245 17.9055 60.9981 18.0994 61.2171 18.3475C61.4361 18.5956 61.5946 18.8911 61.6802 19.2108C61.7657 19.5305 61.7759 19.8657 61.71 20.19C61.56 21.29 60.94 21.59 59.92 21.56C57.32 21.47 54.72 21.45 52.13 21.36C51.25 21.36 50.92 21.67 50.99 22.52C51.1 24.03 51.15 25.52 51.32 27.07C51.32 27.26 51.88 27.55 52.17 27.55C54.42 27.55 56.68 27.34 58.93 27.38C59.2273 27.442 59.5094 27.5623 59.76 27.734C60.0106 27.9056 60.2247 28.1252 60.39 28.38C60.5155 28.5578 60.592 28.7655 60.6118 28.9823C60.6316 29.199 60.5941 29.4172 60.5028 29.6148C60.4116 29.8124 60.27 29.9825 60.0922 30.1081C59.9144 30.2336 59.7067 30.3102 59.49 30.33C58.57 30.53 57.67 30.6 56.7 30.74Z" fill="#FF5D31"/>
<path d="M72.5699 17.66C73.6721 17.9792 74.7432 18.3976 75.7699 18.91C76.0285 19.117 76.2361 19.3806 76.3765 19.6806C76.517 19.9806 76.5866 20.3089 76.5799 20.64C76.5099 21.45 75.6399 21.41 74.9699 21.39C74.0284 21.2243 73.0667 21.2074 72.1199 21.34C71.3192 21.6275 70.6051 22.1145 70.0451 22.7549C69.4851 23.3954 69.0979 24.1681 68.9199 25C68.4581 26.7196 68.2824 28.5034 68.3999 30.28C68.7399 34.45 73.5999 35.36 76.5999 33.8L77.4199 33.37C78.2099 32.94 79.0399 32.89 79.4999 33.69C79.9599 34.49 80.3399 35.49 79.4999 36.3C78.7687 36.9823 77.8986 37.4982 76.9492 37.8123C75.9998 38.1265 74.9937 38.2315 73.9999 38.12C73.3871 38.085 72.7727 38.085 72.1599 38.12C71.5373 38.2257 70.898 38.172 70.3017 37.9639C69.7055 37.7559 69.1716 37.4002 68.7499 36.93C68.6031 36.7493 68.4189 36.6026 68.2099 36.5C65.7699 35.3 65.3699 33.16 64.8399 30.68C64.3099 28.2 65.0399 26.05 65.6199 23.87C65.8422 22.8013 66.3031 21.7966 66.968 20.9308C67.6329 20.065 68.4847 19.3606 69.4599 18.87C69.9097 18.5719 70.3772 18.3014 70.8599 18.06C71.3912 17.9382 71.9348 17.8778 72.4799 17.88L72.5699 17.66Z" fill="#FF5D31"/>
<path d="M86.5599 33.64C86.5292 34.1078 86.3202 34.5459 85.976 34.864C85.6318 35.1822 85.1786 35.3562 84.7099 35.35C84.4366 35.3609 84.1641 35.3136 83.9104 35.2111C83.6568 35.1087 83.4278 34.9535 83.2387 34.7559C83.0496 34.5583 82.9047 34.3227 82.8135 34.0648C82.7223 33.8069 82.687 33.5326 82.7099 33.26C82.7057 32.7889 82.8794 32.3335 83.1965 31.9849C83.5135 31.6364 83.9504 31.4203 84.4199 31.38C84.7122 31.3766 85.002 31.4337 85.2711 31.5477C85.5403 31.6616 85.783 31.83 85.9839 32.0422C86.1849 32.2545 86.3398 32.506 86.4389 32.7809C86.538 33.0559 86.5792 33.3484 86.5599 33.64V33.64Z" fill="#FF5D31"/>
</g>
<defs>
<clipPath id="clip0_8_3">
<rect width="91.53" height="46.05" fill="white" transform="translate(7 5)"/>
</clipPath>
</defs>
</svg>
