<svg width="109" height="79" viewBox="0 0 109 79" fill="none" xmlns="http://www.w3.org/2000/svg">
<path d="M91.8722 51.31C93.2022 52.36 94.6022 53.3101 95.8722 54.4801C96.9654 55.5024 97.969 56.6165 98.8722 57.81C99.8722 59.04 99.5422 60.2001 98.3622 61.1701C98.0657 61.4081 97.7851 61.6653 97.5222 61.94C94.9122 64.53 92.4022 64.28 90.0722 61.39C88.7722 59.78 87.2322 58.39 85.6222 56.68C84.4922 58.29 83.5522 59.77 82.4622 61.13C82.0113 61.782 81.3278 62.2365 80.5522 62.4C79.9554 62.3955 79.376 62.1984 78.9004 61.8381C78.4247 61.4777 78.0781 60.9733 77.9122 60.4C76.7422 57.01 75.5222 53.65 74.3122 50.27C73.1855 47.11 72.0489 43.9467 70.9022 40.78C70.6305 39.9654 70.2962 39.1731 69.9022 38.41C69.5353 37.9081 69.3335 37.3046 69.3245 36.683C69.3156 36.0614 69.5 35.4523 69.8522 34.94C70.5222 34.08 73.0422 34.29 74.1522 34.89C75.4201 35.5246 76.7221 36.0888 78.0522 36.58C79.2322 37.07 80.4322 37.53 81.6122 38.02L88.1322 40.8C90.8322 41.95 93.5522 43.0601 96.2322 44.2601C96.4921 44.3684 96.7263 44.5304 96.9193 44.7354C97.1123 44.9405 97.2598 45.184 97.3522 45.4501C97.3879 45.738 97.3569 46.0302 97.2615 46.3042C97.1662 46.5782 97.009 46.8266 96.8022 47.03C95.4022 48.24 93.8922 49.3201 92.4222 50.4501L91.8722 51.31ZM95.7522 58.89C94.0422 57.07 92.3522 55.37 90.7522 53.58C88.1022 50.58 88.1222 50.58 91.0122 47.78C92.2322 46.62 92.1622 46.33 90.5222 45.62C87.9222 44.51 85.3122 43.43 82.7322 42.28C79.1722 40.68 75.6322 39.0301 71.6722 37.2001L80.7622 58.7001C81.6722 57.1501 82.3522 56.01 83.0022 54.85C84.0022 53.03 85.3822 52.85 86.9022 54.28C89.2522 56.46 91.6922 58.55 94.1022 60.69L95.7522 58.89Z" fill="#0E2043"/>
<path d="M72.1122 17.84C74.9322 18.84 75.0422 18.96 74.7722 22.2C74.6222 23.94 74.3822 25.67 74.1422 27.4C73.9422 28.85 72.9022 29.63 71.8722 29.03C71.6286 28.858 71.4241 28.6362 71.2724 28.3794C71.1208 28.1226 71.0253 27.8365 70.9922 27.54C70.9122 25.04 70.8822 22.54 70.9922 20.03C71.0622 19.29 71.7122 18.6 72.1122 17.84Z" fill="#0E2043"/>
<path d="M85.6023 24.79C84.8723 25.84 84.2023 26.94 83.3923 27.93C82.6805 28.8667 81.8503 29.707 80.9223 30.43C80.6305 30.6224 80.2988 30.7459 79.9523 30.7909C79.6057 30.836 79.2535 30.8015 78.9223 30.69C78.6781 30.478 78.4934 30.2061 78.3865 29.9009C78.2795 29.5958 78.2539 29.2681 78.3123 28.95C79.6223 26.7 80.7323 24.21 83.3123 23.03C84.5423 22.48 85.3423 23.18 85.6023 24.79Z" fill="#0E2043"/>
<path d="M54.9523 37.11C55.8023 34.86 56.1123 34.68 58.2423 34.94C59.7223 35.13 61.2423 35.16 62.6823 35.46C63.2223 35.58 63.6823 36.29 64.1023 36.72C63.5923 37.14 63.1023 37.85 62.5823 37.92C60.7295 38.2011 58.8556 38.3182 56.9823 38.27C56.2723 38.24 55.5923 37.5 54.9523 37.11Z" fill="#0E2043"/>
<path d="M67.4423 30.23C67.4423 31.66 66.7223 32.28 65.9423 31.75C64.0848 30.4417 62.3267 28.9977 60.6823 27.43C60.5696 27.1658 60.5269 26.8769 60.5584 26.5914C60.59 26.3058 60.6946 26.0333 60.8623 25.8C61.4543 25.3653 62.1789 25.1497 62.9123 25.19C63.3923 25.19 63.9123 25.81 64.2723 26.19C65.0923 27.1 65.8723 28.06 66.6423 29.02C66.9923 29.51 67.2823 30.03 67.4423 30.23Z" fill="#0E2043"/>
<path d="M61.5422 47.9201C61.3322 47.7401 60.5422 47.3801 60.5422 47.0101C60.5286 46.6535 60.5871 46.2979 60.7143 45.9646C60.8414 45.6312 61.0346 45.327 61.2822 45.0701C62.6971 44.0928 64.1735 43.2076 65.7022 42.4201C65.8579 42.3441 66.0289 42.3046 66.2022 42.3046C66.3755 42.3046 66.5465 42.3441 66.7022 42.4201C66.836 42.5387 66.942 42.6853 67.0129 42.8495C67.0837 43.0136 67.1177 43.1913 67.1122 43.3701C67.0322 45.3701 63.9322 48.0301 61.5422 47.9201Z" fill="#0E2043"/>
<path d="M21.1922 0.0799866H21.0722C15.806 0.10191 10.7366 2.08402 6.85222 5.63998V5.63998L6.12223 6.34C5.89223 6.57 5.67221 6.80999 5.45221 7.04999L5.40223 7.10001C5.19223 7.33001 4.99223 7.57001 4.79223 7.82001C4.76382 7.84177 4.74002 7.86895 4.72222 7.89999C4.53222 8.13999 4.34222 8.37 4.16222 8.62L4.07223 8.73999C3.90223 8.96999 3.73223 9.21001 3.57223 9.45001C3.57223 9.50001 3.50222 9.54999 3.47222 9.60999L3.02222 10.31C3.02222 10.37 2.95222 10.44 2.91222 10.51C2.77222 10.73 2.64223 10.96 2.51223 11.19L2.39222 11.44C2.27222 11.66 2.16222 11.88 2.05222 12.11C1.94222 12.34 1.96222 12.3 1.92222 12.39C1.88222 12.48 1.72223 12.82 1.62223 13.05C1.52223 13.28 1.54222 13.27 1.49222 13.38L1.24222 14.01L1.12223 14.39L0.912222 14.99L0.792226 15.43C0.732226 15.62 0.682223 15.81 0.632223 16C0.582223 16.19 0.552222 16.32 0.522222 16.48C0.492222 16.64 0.432217 16.84 0.392217 17.03C0.352217 17.22 0.332221 17.38 0.302221 17.56C0.272221 17.74 0.232215 17.9 0.202215 18.07C0.172215 18.24 0.202223 18.45 0.132223 18.64L0.0722253 19.13C0.0722253 19.37 0.0722222 19.6 0.0222222 19.84C-0.0277778 20.08 0.0222222 20.09 0.0222222 20.21C0.0222222 20.57 0.0222222 20.94 0.0222222 21.3C0.0222222 21.66 0.0222222 22.03 0.0222222 22.4C0.0222222 22.52 0.0222222 22.65 0.0222222 22.77C0.0222222 22.89 0.0222253 23.24 0.0722253 23.47L0.132223 23.96C0.132223 24.16 0.132215 24.35 0.202215 24.54L0.292226 25.04C0.292226 25.22 0.352217 25.4 0.392217 25.58C0.432217 25.76 0.472222 25.94 0.522222 26.12C0.572222 26.3 0.592223 26.45 0.632223 26.61C0.672223 26.77 0.732226 26.98 0.792226 27.17L0.912222 27.61C0.972222 27.81 1.05222 28.01 1.11222 28.21L1.25222 28.6C1.32222 28.81 1.41222 29.01 1.49222 29.22C1.57222 29.43 1.58223 29.45 1.62223 29.56L1.92222 30.21C1.92222 30.31 2.00222 30.4 2.05222 30.5C2.10222 30.6 2.27222 30.94 2.38222 31.16C2.49222 31.38 2.47223 31.33 2.51223 31.41L2.90223 32.09L3.02222 32.3C3.16222 32.54 3.31222 32.76 3.46222 32.99L3.57223 33.16C3.73223 33.4 3.90223 33.63 4.07223 33.87L4.16222 33.99L4.71222 34.7L4.79223 34.79C4.99223 35.03 5.19223 35.27 5.40223 35.5L5.45221 35.56C5.67221 35.8 5.89223 36.04 6.12223 36.27L6.84221 36.96C10.7266 40.516 15.796 42.4981 21.0622 42.52H21.1822C26.8207 42.52 32.2283 40.2801 36.2153 36.2931C40.2023 32.3061 42.4422 26.8985 42.4422 21.26C42.4422 15.6215 40.2023 10.2139 36.2153 6.2269C32.2283 2.23987 26.8207 0 21.1822 0L21.1922 0.0799866Z" fill="#0E2043"/>
<path d="M33.2123 16.27C32.4416 14.5353 31.3004 12.9903 29.8687 11.7438C28.4371 10.4972 26.7499 9.57933 24.9256 9.05457C23.1014 8.52982 21.1843 8.41094 19.3091 8.70631C17.434 9.00167 15.6463 9.70412 14.0717 10.7643C12.497 11.8244 11.1737 13.2165 10.1946 14.8428C9.21549 16.469 8.60442 18.29 8.40433 20.1777C8.20424 22.0654 8.41998 23.974 9.03638 25.7694C9.65278 27.5647 10.6549 29.2034 11.9723 30.57C13.1551 31.7636 14.562 32.7117 16.1123 33.36C17.719 34.0421 19.4467 34.3937 21.1923 34.3937C22.9378 34.3937 24.6655 34.0421 26.2723 33.36C27.8225 32.7117 29.2295 31.7636 30.4123 30.57C32.254 28.7389 33.5051 26.398 34.0042 23.8492C34.5032 21.3004 34.2274 18.6606 33.2123 16.27V16.27ZM17.5223 10.27C17.0127 10.8839 16.5765 11.5551 16.2223 12.27C16.0098 12.6849 15.8228 13.1124 15.6623 13.55H15.4623C14.6142 13.4799 13.7761 13.319 12.9623 13.07C14.2465 11.7981 15.807 10.8399 17.5223 10.27V10.27ZM12.0023 14.16C12.1709 14.2541 12.3484 14.3311 12.5323 14.39C13.2554 14.6178 13.9989 14.7752 14.7523 14.86L15.2123 14.9201C14.6796 16.785 14.3906 18.7109 14.3523 20.65H9.55228C9.68909 18.2877 10.5439 16.0235 12.0023 14.16V14.16ZM12.0923 28.63C10.5764 26.7497 9.68804 24.4415 9.55228 22.03H14.3523C14.3865 24.0216 14.6893 25.9994 15.2523 27.91L14.7523 27.98C13.9981 28.0598 13.2541 28.2173 12.5323 28.4501C12.3812 28.4986 12.2341 28.5588 12.0923 28.63ZM13.0923 29.72C13.8699 29.4985 14.6668 29.3512 15.4723 29.28H15.7223C15.8823 29.68 16.0523 30.0601 16.2323 30.4201C16.5865 31.135 17.0227 31.8061 17.5323 32.4201C15.864 31.8678 14.3426 30.9447 13.0823 29.72H13.0923ZM20.5123 32.91C20.0456 32.7679 19.6156 32.5256 19.2523 32.2001C18.5014 31.5159 17.893 30.69 17.4623 29.77L17.1623 29.13C18.1623 29.06 19.3323 29.02 20.5123 29V32.91ZM20.5123 27.62C19.1423 27.62 17.8323 27.69 16.6623 27.78C16.0938 25.9145 15.7843 23.9798 15.7423 22.03H20.5123V27.62ZM20.5123 20.62H15.7423C15.7842 18.7224 16.0802 16.839 16.6223 15.02C17.7923 15.12 19.1223 15.17 20.5123 15.18V20.62ZM20.5123 13.8C19.3123 13.8 18.1523 13.7501 17.1023 13.6701C17.2223 13.4001 17.3323 13.14 17.4623 12.89C17.8903 11.9684 18.499 11.142 19.2523 10.46C19.6156 10.1344 20.0456 9.89214 20.5123 9.75004V13.8ZM29.4323 13.05C28.6188 13.3001 27.7805 13.461 26.9323 13.53H26.7323C26.5717 13.0924 26.3847 12.6649 26.1723 12.25C25.8181 11.5351 25.3818 10.8639 24.8723 10.25C26.5868 10.83 28.144 11.7986 29.4223 13.08L29.4323 13.05ZM21.8923 9.75004C22.359 9.89214 22.789 10.1344 23.1523 10.46C23.9056 11.142 24.5143 11.9684 24.9423 12.89C25.0723 13.14 25.1823 13.4001 25.3023 13.6701C24.2523 13.7501 23.0923 13.79 21.8923 13.8V9.75004ZM21.8923 15.18C23.2823 15.18 24.6123 15.12 25.7823 15.02C26.3244 16.839 26.6204 18.7224 26.6623 20.62H21.8923V15.18ZM21.8923 22H26.6623C26.6203 23.9498 26.3107 25.8845 25.7423 27.75C24.5723 27.66 23.2623 27.61 21.8923 27.59V22ZM23.1523 32.1701C22.789 32.4956 22.359 32.7379 21.8923 32.88V29.03C23.0723 29.03 24.2023 29.09 25.2423 29.16L24.9423 29.8C24.5052 30.7102 23.8936 31.5256 23.1423 32.2001L23.1523 32.1701ZM24.8723 32.39C25.3818 31.7761 25.8181 31.1049 26.1723 30.39C26.3523 30.03 26.5223 29.65 26.6823 29.25H26.9323C27.7377 29.3212 28.5346 29.4685 29.3123 29.69C28.055 30.9255 26.5333 31.859 24.8623 32.4201L24.8723 32.39ZM30.3023 28.6C30.1605 28.5288 30.0134 28.4686 29.8623 28.4201C29.1405 28.1873 28.3965 28.0298 27.6423 27.9501L27.1423 27.88C27.7053 25.9694 28.008 23.9916 28.0423 22H32.8023C32.676 24.4174 31.7985 26.7351 30.2923 28.63L30.3023 28.6ZM28.0423 20.6C28.004 18.6609 27.7149 16.7349 27.1823 14.87L27.6423 14.81C28.3957 14.7252 29.1391 14.5678 29.8623 14.34C30.0461 14.2811 30.2237 14.2041 30.3923 14.11C31.8515 15.9738 32.7095 18.2373 32.8523 20.6H28.0423Z" fill="white"/>
</svg>
