<svg width="105" height="81" viewBox="0 0 105 81" fill="none" xmlns="http://www.w3.org/2000/svg">
<g clip-path="url(#clip0_14_3)">
<path d="M69.2599 24H4.6299C3.9843 23.963 3.35234 23.7991 2.77014 23.5176C2.18795 23.2362 1.66695 22.8428 1.23693 22.3598C0.806917 21.8768 0.476325 21.3139 0.264063 20.703C0.0518016 20.0922 -0.0379655 19.4455 -0.000104439 18.8V5.17C-0.0683442 3.87128 0.380398 2.59836 1.24801 1.62955C2.11563 0.660747 3.33154 0.0748649 4.6299 0L69.2599 0C70.5565 0.0774031 71.7698 0.664384 72.6353 1.63291C73.5008 2.60143 73.9482 3.87291 73.8799 5.17V18.8C73.9564 20.1021 73.5127 21.3813 72.6464 22.3564C71.7801 23.3315 70.562 23.9227 69.2599 24Z" fill="#FFCD00"/>
<path d="M9.68989 17.31C9.11592 17.0501 8.63213 16.6254 8.29989 16.09C7.9588 15.5159 7.78558 14.8577 7.79989 14.19V6.78003H10.1399V14C10.138 14.3435 10.206 14.6837 10.3399 15C10.4575 15.2811 10.6515 15.5236 10.8999 15.7C11.1594 15.8753 11.4668 15.9661 11.7799 15.96C12.0816 15.9693 12.3797 15.893 12.6399 15.74C12.8812 15.6036 13.0762 15.3981 13.1999 15.15C13.3336 14.9011 13.4024 14.6226 13.3999 14.34C13.4016 14.1076 13.3747 13.8759 13.3199 13.65C13.2657 13.4739 13.1954 13.3032 13.1099 13.14C13.0199 13 12.9099 12.84 12.7699 12.66C12.6299 12.48 12.4799 12.23 12.3799 12.06C12.2634 11.853 12.1759 11.6309 12.1199 11.4C12.0305 11.0745 11.99 10.7375 11.9999 10.4H14.2499C14.2646 10.6824 14.3289 10.96 14.4399 11.22C14.5775 11.5071 14.7345 11.7844 14.9099 12.05C15.0658 12.272 15.2093 12.5023 15.3399 12.74C15.4671 12.9771 15.5645 13.229 15.6299 13.49C15.7037 13.8182 15.7406 14.1536 15.7399 14.49C15.7486 15.0863 15.5625 15.6691 15.2099 16.15C14.841 16.6388 14.3469 17.0188 13.7799 17.25C13.1467 17.5146 12.4661 17.6473 11.7799 17.64C11.0672 17.6903 10.3524 17.5775 9.68989 17.31Z" fill="#0E2043"/>
<path d="M19.4099 17.1001C18.611 16.6699 17.9543 16.0168 17.5199 15.2201C17.0429 14.333 16.8051 13.337 16.8299 12.3301C16.8118 11.421 17.007 10.5202 17.3999 9.70012C17.7478 8.97417 18.2658 8.34295 18.9099 7.86012C19.5314 7.40523 20.2446 7.09128 20.9999 6.94012H21.1399C21.1094 6.85211 21.086 6.76183 21.0699 6.67012C21.0699 6.57012 21.0699 6.47012 21.0699 6.37012H22.9999C22.9925 6.56233 22.9657 6.7533 22.9199 6.94012H23.0599C23.8413 7.07689 24.5789 7.39761 25.2118 7.87578C25.8447 8.35396 26.3548 8.97586 26.6999 9.69012C27.0846 10.5162 27.2761 11.419 27.2599 12.3301C27.2886 13.3418 27.047 14.3429 26.5599 15.2301C26.1257 16.021 25.473 16.6701 24.6799 17.1001C23.8653 17.521 22.9618 17.7407 22.0449 17.7407C21.128 17.7407 20.2245 17.521 19.4099 17.1001V17.1001ZM23.5899 15.5501C24.0401 15.2378 24.388 14.7995 24.5899 14.2901C24.8495 13.6563 24.9722 12.9747 24.9499 12.2901C24.9579 11.7187 24.8666 11.1502 24.6799 10.6101C24.5309 10.1678 24.3003 9.75735 23.9999 9.40012C23.7248 9.08808 23.3831 8.84199 22.9999 8.68012H22.9399C22.9815 9.04194 23.0015 9.40592 22.9999 9.77012C23.0388 10.1455 23.0588 10.5227 23.0599 10.9001V12.9001H20.9999V10.9001C20.9904 10.173 21.071 9.44745 21.2399 8.74012H21.1799C20.5504 8.93172 20.0108 9.34347 19.6599 9.90012C19.2636 10.6468 19.0737 11.4856 19.1099 12.3301C19.0972 12.9987 19.2232 13.6627 19.4799 14.2801C19.6842 14.7908 20.0314 15.2317 20.4799 15.5501C20.9423 15.8371 21.4757 15.9892 22.0199 15.9892C22.5641 15.9892 23.0975 15.8371 23.5599 15.5501H23.5899Z" fill="#0E2043"/>
<path d="M30.19 17.28C29.6092 16.9904 29.1182 16.5479 28.77 16C28.4284 15.4367 28.2517 14.7888 28.26 14.13C28.2659 13.5236 28.4059 12.926 28.67 12.38H30.92C30.7223 12.898 30.6141 13.4458 30.6 14C30.5968 14.3446 30.6685 14.6858 30.81 15C30.9278 15.2866 31.1257 15.5331 31.38 15.71C31.6463 15.8869 31.9605 15.9776 32.28 15.97C32.6027 15.9846 32.9215 15.8954 33.1897 15.7154C33.4579 15.5354 33.6613 15.2741 33.77 14.97C33.91 14.6651 33.9882 14.3354 34 14C34.007 13.5708 33.9359 13.1438 33.79 12.74C33.6598 12.4047 33.4849 12.0886 33.27 11.8C33.07 11.54 32.79 11.21 32.43 10.8C32.1319 10.4878 31.8578 10.1536 31.61 9.80003C31.3461 9.41577 31.1405 8.99453 31 8.55003C30.8455 7.97299 30.7714 7.37735 30.78 6.78003H33.12C33.1231 7.1946 33.1906 7.60618 33.32 8.00003C33.4163 8.35169 33.561 8.68826 33.75 9.00003C33.9467 9.3165 34.1673 9.61738 34.41 9.90003C34.83 10.4 35.16 10.82 35.41 11.17C35.657 11.5433 35.8552 11.9466 36 12.37C36.1881 12.9305 36.2794 13.5189 36.27 14.11C36.2956 14.7744 36.1252 15.4317 35.78 16C35.423 16.5564 34.9219 17.0056 34.33 17.3C33.6829 17.6062 32.9759 17.765 32.26 17.765C31.5441 17.765 30.8372 17.6062 30.19 17.3V17.28Z" fill="#0E2043"/>
<path d="M40 17.1001C39.201 16.6699 38.5444 16.0168 38.11 15.2201C37.6329 14.333 37.3951 13.337 37.42 12.3301C37.405 11.4202 37.6037 10.5194 38 9.70012C38.3479 8.97417 38.8659 8.34295 39.51 7.86012C40.1404 7.40124 40.8642 7.08711 41.63 6.94012H41.77C41.7395 6.85211 41.7161 6.76183 41.7 6.67012C41.7 6.57012 41.7 6.47012 41.7 6.37012H43.62C43.6126 6.56233 43.5858 6.7533 43.54 6.94012H43.68C44.4614 7.07689 45.199 7.39761 45.8319 7.87578C46.4648 8.35396 46.9749 8.97586 47.32 9.69012C47.7047 10.5162 47.8962 11.419 47.88 12.3301C47.9087 13.3418 47.6671 14.3429 47.18 15.2301C46.7458 16.021 46.0931 16.6701 45.3 17.1001C44.4854 17.521 43.5819 17.7407 42.665 17.7407C41.7481 17.7407 40.8445 17.521 40.03 17.1001H40ZM44.18 15.5501C44.6302 15.2378 44.9781 14.7995 45.18 14.2901C45.4396 13.6563 45.5623 12.9747 45.54 12.2901C45.548 11.7187 45.4567 11.1502 45.27 10.6101C45.1076 10.149 44.8562 9.72426 44.53 9.36012C44.2549 9.04808 43.9131 8.80199 43.53 8.64012H43.47C43.5439 8.99004 43.5973 9.34397 43.63 9.70012C43.6689 10.0755 43.6889 10.4527 43.69 10.8301V12.8301H41.55V10.8301C41.5405 10.103 41.6211 9.37745 41.79 8.67012H41.73C41.1004 8.8856 40.5708 9.3228 40.24 9.90012C39.8437 10.6468 39.6538 11.4856 39.69 12.3301C39.6773 12.9987 39.8033 13.6627 40.06 14.2801C40.2643 14.7908 40.6115 15.2317 41.06 15.5501C41.5224 15.8371 42.0558 15.9892 42.6 15.9892C43.1442 15.9892 43.6776 15.8371 44.14 15.5501H44.18Z" fill="#0E2043"/>
<path d="M54.56 15.36C54.7072 14.4911 54.7808 13.6113 54.78 12.73V10.62C54.8151 10.0252 54.6724 9.43342 54.37 8.92004C54.2424 8.71704 54.063 8.55168 53.8504 8.44096C53.6377 8.33024 53.3994 8.27814 53.16 8.29004C52.9192 8.27842 52.6795 8.33055 52.4653 8.44117C52.2511 8.55179 52.0699 8.71697 51.94 8.92004C51.6414 9.43498 51.4989 10.0256 51.53 10.62V12.73C51.5329 13.605 51.6099 14.4781 51.76 15.34C51.8779 16.0749 52.0723 16.7955 52.34 17.49H50.07C49.7619 16.8128 49.5499 16.0959 49.44 15.36C49.272 14.4631 49.1883 13.5525 49.19 12.64V10.56C49.1685 9.80028 49.3479 9.04831 49.71 8.38004C50.0451 7.79294 50.5413 7.31406 51.14 7.00004C51.7633 6.69748 52.4471 6.54028 53.14 6.54028C53.8328 6.54028 54.5166 6.69748 55.14 7.00004C55.7448 7.31468 56.2426 7.80197 56.57 8.40004C56.9346 9.0677 57.1174 9.81948 57.1 10.58V12.65C57.0986 13.5595 57.0116 14.4669 56.84 15.36C56.7208 16.0982 56.5056 16.8176 56.2 17.5H54C54.2729 16.8121 54.4609 16.0935 54.56 15.36Z" fill="#0E2043"/>
<path d="M60.3 17.28C59.712 16.9876 59.2187 16.5348 58.8772 15.9738C58.5357 15.4129 58.3599 14.7667 58.37 14.11C58.3721 13.5043 58.5088 12.9066 58.7701 12.36H61C60.8095 12.8859 60.7114 13.4407 60.71 14C60.7084 14.3435 60.7765 14.6837 60.91 15C61.0347 15.2854 61.2353 15.531 61.4901 15.71C61.7623 15.8772 62.0756 15.9656 62.3951 15.9656C62.7145 15.9656 63.0278 15.8772 63.3 15.71C63.5544 15.5332 63.7523 15.2866 63.87 15C64.0036 14.6837 64.0717 14.3435 64.07 14C64.0788 13.5698 64.0041 13.1419 63.85 12.74C63.724 12.4028 63.5488 12.086 63.3301 11.8C63.1301 11.54 62.8501 11.21 62.4901 10.8C62.192 10.4904 61.9211 10.1559 61.6801 9.80005C61.4343 9.42218 61.2519 9.00671 61.14 8.57005C60.9805 7.99399 60.9064 7.39763 60.92 6.80005H63.26C63.2522 7.20585 63.3061 7.61048 63.42 8.00005C63.5209 8.35007 63.6654 8.68603 63.85 9.00005C64.0537 9.3142 64.2775 9.61483 64.52 9.90005C64.94 10.4 65.27 10.82 65.52 11.17C65.7872 11.5661 65.9992 11.9968 66.1501 12.45C66.3381 13.0105 66.4294 13.5989 66.42 14.19C66.4152 14.8324 66.2279 15.4601 65.88 16C65.5242 16.5537 65.0271 17.0025 64.4401 17.3C63.7929 17.6062 63.0859 17.765 62.37 17.765C61.6542 17.765 60.9472 17.6062 60.3 17.3V17.28Z" fill="#0E2043"/>
<path d="M87 53.5201C88.38 54.9101 89.59 56.0801 90.74 57.3001C91.89 58.5201 92.74 59.4601 93.74 60.6301C94.74 61.8001 94.3 63.0001 93.17 64.0001C92.88 64.2501 92.61 64.5101 92.34 64.7701C89.71 67.3801 87.44 67.2201 85.03 64.3701C83.66 62.7501 82.14 61.2601 80.5 59.5201C79.38 61.1301 78.44 62.6101 77.35 63.9601C76.88 64.5501 76.1 65.2601 75.46 65.2601C74.8628 65.2572 74.2827 65.0607 73.8067 64.7001C73.3307 64.3395 72.9845 63.8342 72.82 63.2601C71.64 59.8301 70.41 56.4101 69.2 53.0001C68.07 49.8301 66.95 46.6601 65.8 43.5001C65.5289 42.7368 65.1944 41.9976 64.8 41.2901C64.4302 40.7902 64.2248 40.1879 64.2123 39.5662C64.1997 38.9446 64.3807 38.3344 64.73 37.8201C65.36 36.9601 67.91 37.1401 69 37.7401C70.2621 38.3756 71.5573 38.9431 72.88 39.4401C74.1 39.9501 75.35 40.4401 76.57 40.9201C78.73 41.8501 80.87 42.8201 83.04 43.7401C85.73 44.8801 88.45 45.9601 91.12 47.1501C91.3729 47.2761 91.5942 47.4576 91.7673 47.6809C91.9404 47.9042 92.061 48.1637 92.12 48.4401C92.1222 48.7225 92.0645 49.0022 91.9507 49.2608C91.8369 49.5193 91.6697 49.7508 91.46 49.9401C90.1 51.1301 88.61 52.2201 87 53.5201ZM75.75 61.5201L76.24 60.7201C76.82 59.7201 77.42 58.7201 77.99 57.6401C78.99 55.8401 80.36 55.7001 81.87 57.1101C84.21 59.2901 86.63 61.3701 89.04 63.5201L90.63 61.6401C88.63 59.5901 86.81 57.5501 84.86 55.6401C83.26 54.0501 83.2 53.5301 84.75 51.8701C85.15 51.4401 85.55 51.0301 85.96 50.6201C87.14 49.4701 87.1 49.2101 85.58 48.5401C82.96 47.3901 80.31 46.3001 77.69 45.1201C74.16 43.5301 70.69 41.8701 66.69 40.0601C69.71 47.2901 72.61 54.2001 75.7 61.5501L75.75 61.5201Z" fill="#0E2043"/>
<path d="M66.72 20.8C69.31 21.02 70 22.1101 69.72 24.0201C69.43 26.1801 69.38 28.37 68.97 30.5C68.8349 30.8621 68.6158 31.1868 68.3307 31.4476C68.0456 31.7084 67.7026 31.8977 67.33 32C66.33 32.14 65.88 31.3201 65.92 30.2901C65.92 29.6401 65.84 29.0001 65.85 28.3601C65.85 26.9201 65.85 25.48 66.02 24.06C66.192 22.9611 66.4257 21.8727 66.72 20.8V20.8Z" fill="#0E2043"/>
<path d="M80.5301 27.41C80.012 28.3386 79.4411 29.2367 78.8201 30.1C77.9428 31.2383 76.9583 32.2898 75.8801 33.24C75.6075 33.4442 75.289 33.5783 74.9525 33.6306C74.616 33.6829 74.2718 33.6518 73.9501 33.54C73.6941 33.3083 73.5025 33.0143 73.3939 32.6866C73.2852 32.3589 73.2632 32.0087 73.3301 31.67C74.6301 29.56 75.6701 27.16 78.0701 25.97C79.3301 25.34 80.2801 25.93 80.5301 27.41Z" fill="#0E2043"/>
<path d="M56.1201 40.83L52.3401 41.17C52.0872 41.222 51.826 41.2184 51.5746 41.1594C51.3233 41.1004 51.0878 40.9874 50.8844 40.8283C50.6811 40.6692 50.5148 40.4677 50.3971 40.2379C50.2794 40.0081 50.2131 39.7554 50.2028 39.4974C50.1925 39.2394 50.2385 38.9823 50.3375 38.7438C50.4365 38.5054 50.5863 38.2913 50.7763 38.1165C50.9663 37.9417 51.1921 37.8103 51.4379 37.7315C51.6838 37.6527 51.9439 37.6282 52.2001 37.66C53.9006 37.7078 55.5953 37.8817 57.2701 38.18C57.9501 38.32 58.5101 39.1 59.1201 39.58C58.4001 40.02 57.6901 40.48 56.9501 40.86C56.7501 41 56.4201 40.85 56.1201 40.83Z" fill="#0E2043"/>
<path d="M62.4601 33.1399C62.4601 34.6099 61.6301 35.1399 60.8801 34.5799C59.0724 33.2928 57.3581 31.8793 55.7501 30.3499C55.6203 30.0877 55.5595 29.7968 55.5735 29.5046C55.5875 29.2123 55.6758 28.9285 55.8301 28.6799C56.3301 28.0999 57.0201 27.2799 58.0001 27.9999C58.5062 28.3813 58.975 28.8099 59.4001 29.2799C60.1901 30.1499 60.9601 31.0499 61.6901 31.9699C61.9709 32.3435 62.228 32.7343 62.4601 33.1399V33.1399Z" fill="#0E2043"/>
<path d="M56.6399 50.77C56.4399 50.61 55.6399 50.29 55.6399 49.93C55.6024 49.5698 55.6408 49.2056 55.7528 48.8611C55.8648 48.5166 56.0477 48.1994 56.2899 47.93C57.7352 46.9161 59.2451 45.9975 60.8099 45.18C60.9738 45.1173 61.1505 45.0954 61.3248 45.1163C61.499 45.1372 61.6655 45.2003 61.8099 45.3C61.9344 45.4327 62.0284 45.5909 62.0854 45.7636C62.1424 45.9363 62.161 46.1194 62.1399 46.3C61.9099 48.31 58.9999 50.76 56.6399 50.77Z" fill="#0E2043"/>
</g>
<defs>
<clipPath id="clip0_14_3">
<rect width="94.23" height="66.62" fill="white"/>
</clipPath>
</defs>
</svg>
