<svg width="438" height="614" viewBox="0 0 438 614" fill="none" xmlns="http://www.w3.org/2000/svg">
<g clip-path="url(#clip0_8_86)">
<path d="M359 0C357.62 0.63 356.29 1.35 354.87 1.86C350.14 3.54 345.36 5.1 340.63 6.8C333.76 9.27 326.84 11.72 320 14.38C316.6 15.71 313.39 17.5 310.08 19.07C308.86 19.66 307.58 20.14 306.4 20.79C302.71 22.79 298.96 24.74 295.4 26.95C292.92 28.5 290.68 30.45 288.4 32.24C286.77 33.49 285.09 34.69 283.57 36.07C280.249 38.9362 277.196 42.0993 274.45 45.52C270.972 49.9706 267.724 54.5967 264.72 59.38C260.72 65.91 256.72 72.46 253.91 79.64C253.02 81.94 252.29 84.31 251.49 86.64C250.96 88.15 250.33 89.64 249.92 91.16C249.31 93.45 248.79 95.77 248.36 98.1C247.79 101.24 247.44 104.42 246.81 107.55C245.894 112.498 245.425 117.518 245.41 122.55C245.31 128.19 245.09 133.82 244.8 139.46C244.58 143.57 244.61 147.7 244.47 151.82C244.4 154.05 244.1 156.27 244.1 158.5C244.1 162.5 243.51 166.39 243.8 170.38C244.05 173.79 243.7 177.24 243.64 180.68C243.64 182.81 243.69 184.95 243.64 187.09C243.54 190.02 243.27 192.95 243.16 195.89C243.01 199.95 242.96 204.01 242.84 208.07C242.74 211.02 242.51 213.97 242.51 216.93C242.446 219.805 242.573 222.682 242.89 225.54C243.31 228.62 245.16 231.17 247.03 233.54C248.768 235.722 250.688 237.753 252.77 239.61C255.367 241.91 258.634 243.312 262.09 243.61C268.271 244.333 274.518 244.296 280.69 243.5C282.246 243.147 283.822 242.89 285.41 242.73C289.41 242.63 293.41 242.73 297.41 242.73C298.29 242.73 299.17 242.73 300.05 242.73C303.05 242.58 306.11 242.38 309.14 242.25C312.65 242.09 316.14 241.97 319.68 241.87C323.36 241.76 326.62 240.23 329.87 238.75C330.624 238.282 331.298 237.698 331.87 237.02C334.87 234.15 336.74 230.82 336.61 226.51C336.42 220.12 336.26 213.72 336.26 207.33C336.26 201.26 336.59 195.19 336.57 189.12C336.57 185.37 336.13 181.63 335.92 177.88C335.86 176.62 335.92 175.35 335.92 174.09C336.026 173.224 336.053 172.351 336 171.48C335.18 166.75 336.51 162.11 336.5 157.42C336.5 155.99 336.61 154.55 336.57 153.12C336.504 148.819 336.95 144.525 337.9 140.33C339.038 134.719 340.712 129.231 342.9 123.94C344.57 120.04 346.55 116.16 349.74 113.09C350.99 111.89 351.85 110.28 353.03 109C353.991 107.943 355.084 107.012 356.28 106.23C361.218 102.868 366.407 99.8894 371.8 97.32C373.96 96.32 376.09 95.17 378.58 95.1C379.299 95.0425 380 94.8526 380.65 94.54C385.089 92.7435 389.867 91.9348 394.65 92.17C397.83 92.26 401.02 92.17 404.21 92.24C404.69 92.2036 405.173 92.2441 405.64 92.36C408.464 93.2039 411.238 94.2055 413.95 95.36C417.63 96.9189 421.135 98.8595 424.41 101.15C425.99 102.34 427.66 103.42 429.26 104.58C429.751 104.983 430.212 105.421 430.64 105.89C431.48 106.72 432.36 107.52 433.14 108.4C434.77 110.24 436.35 112.14 437.95 114.01V133.24C436.572 131.585 434.802 130.303 432.8 129.51C429.806 128.215 426.676 127.259 423.47 126.66C418.94 125.66 414.4 126.27 409.89 125.87C409.252 125.897 408.629 126.072 408.07 126.38C404.845 127.764 401.752 129.437 398.83 131.38C393.57 134.78 390.35 139.63 387.91 145.25C385.142 151.432 383.806 158.159 384 164.93C384.11 168.28 383.91 171.63 383.92 174.99C383.92 178.88 384.07 182.76 384.07 186.65C384.07 189.92 383.79 193.2 383.9 196.46C384.11 202.67 384.52 208.88 384.8 215.09C384.9 217.23 384.8 219.38 384.88 221.52C384.835 222.233 384.919 222.948 385.13 223.63C385.67 225.146 385.699 226.797 385.21 228.33C385.086 228.791 385.005 229.263 384.97 229.74C384.77 235 384.587 240.267 384.42 245.54C384.3 249.44 384.42 253.36 384.1 257.25C383.72 261.94 382.92 266.58 380.59 270.79C380.293 271.354 379.931 271.881 379.51 272.36C378.437 273.32 377.434 274.356 376.51 275.46C374.96 277.71 372.57 278.27 370.23 278.96C369.302 279.194 368.355 279.348 367.4 279.42C364.94 279.7 362.47 279.85 360.03 280.25C357.931 280.654 355.782 280.728 353.66 280.47C351.271 280.305 348.871 280.449 346.52 280.9C344.556 280.995 342.612 281.331 340.73 281.9C339.05 282.55 336.95 282.07 335.05 282.23C329.18 282.74 323.31 283.33 317.44 283.86C312.53 284.29 307.66 285.67 302.7 285.08C299.82 284.73 296.98 285.17 294.14 284.95C293.049 284.835 291.98 284.559 290.97 284.13C289.13 283.38 287.07 282.83 285.6 281.61C281.94 278.61 278.46 275.33 275.12 271.95C272.45 269.24 270.17 266.15 267.58 263.35C265.85 261.48 263.9 259.83 262.05 258.07C260.2 256.31 258.42 254.55 256.56 252.83C254.7 251.11 252.88 249.3 250.86 247.76C247.294 245.073 244.144 241.875 241.51 238.27C238.83 234.5 236.66 230.43 236.51 225.62C236.36 220.81 236.21 216.07 236.11 211.3C236 207.19 236 203 236 198.89C236 192.98 236.2 187.07 236.26 181.16C236.26 178.16 236.16 175.16 236.19 172.1C236.19 169.24 236.36 166.38 236.45 163.53C236.45 163.29 236.51 163.05 236.52 162.81L237 142C237.2 134.35 237.3 126.7 237.64 119.06C237.615 116.348 237.91 113.643 238.52 111C239.09 109 238.99 106.74 239.3 104.62C239.93 100.36 240.57 96.1 241.35 91.87C241.723 90.4836 242.198 89.1266 242.77 87.81C243.28 86.3 243.67 84.75 244.25 83.28C246.15 78.47 247.9 73.59 250.13 68.93C252.21 64.56 254.77 60.41 257.22 56.23C258.51 54.03 259.94 51.91 261.43 49.85C264.19 46.03 266.83 42.09 269.89 38.54C272.792 35.0233 276.102 31.8644 279.75 29.13C283.64 26.33 287.3 23.25 291.17 20.43C293.746 18.4161 296.616 16.8106 299.68 15.67C301.38 15.1 302.85 13.91 304.47 13.09C307.59 11.51 310.66 9.84 313.88 8.49C319.47 6.11 325.14 4 330.79 1.77C331.46 1.51 332.2 1.43 332.85 1.13C333.442 0.797714 334.007 0.419908 334.54 0L359 0Z" fill="#0E2043"/>
<path d="M437.82 248.06C436.56 249.25 435.36 250.52 434.02 251.62C430.64 254.4 427.23 257.15 423.76 259.82C421.37 261.67 418.84 263.33 416.4 265.12C414.29 266.68 412.22 268.3 410.12 269.89C409.611 270.27 409.084 270.623 408.54 270.95C406.862 271.853 405.239 272.855 403.68 273.95C400.391 276.601 396.919 279.017 393.29 281.18C388.84 283.83 384.66 286.92 380.29 289.71C376.46 292.14 372.48 294.34 368.65 296.71C366.571 298.048 364.568 299.5 362.65 301.06C360.16 303.06 357.75 305.15 355.34 307.26C354.675 307.932 354.051 308.644 353.47 309.39C350.47 312.72 347.41 315.96 344.58 319.39C342.84 321.462 341.344 323.727 340.12 326.14C337.94 330.56 336.05 335.14 334.12 339.66C333.282 341.662 332.573 343.716 332 345.81C331.11 349 330.4 352.25 329.61 355.48C329.33 356.64 329.07 357.81 328.73 358.95C327.1 364.34 326.73 369.95 326.14 375.47C325.59 380.38 324.62 385.29 324.54 390.21C324.48 393.72 323.54 397.13 323.88 400.67C324.1 402.67 323.62 404.79 323.55 406.85C323.35 413.85 323.09 420.85 323.04 427.85C323.04 431.85 323.34 435.85 323.57 439.85C323.73 442.64 324.14 445.42 324.18 448.21C324.24 452.21 326.18 455.45 328.74 458.21C329.804 459.357 331.118 460.244 332.58 460.802C334.042 461.36 335.612 461.575 337.17 461.43C339.08 461.31 340.99 461.21 342.9 461.07L362.2 459.6C367.27 459.22 372.34 458.87 377.41 458.46C378.51 458.37 379.58 457.96 380.69 457.83C384.32 457.41 387.95 456.83 391.6 456.72C395.78 456.55 399.6 455.61 402.92 452.98C403.937 452.127 404.761 451.067 405.335 449.87C405.909 448.673 406.221 447.367 406.25 446.04C406.49 442.14 406.66 438.24 406.72 434.33C406.78 431.07 406.62 427.81 406.62 424.54C406.62 417.67 406.62 410.8 406.62 403.93C406.637 402.175 406.784 400.423 407.06 398.69C407.84 393.81 407.41 388.76 409.06 384.01C409.72 382.13 410.5 380.29 411.19 378.42C411.71 377 412.09 375.53 412.66 374.13C413.226 372.717 413.895 371.346 414.66 370.03C415.89 367.89 417.17 365.77 418.56 363.72C420.15 361.36 421.94 359.12 423.56 356.72C426.56 352.27 430.73 348.86 434.34 344.96C435.42 343.79 436.7 342.81 437.89 341.74V494.19C435.81 494.96 433.79 496.05 431.65 496.44C427.44 497.19 423.18 497.6 418.93 498.04C414.68 498.48 410.49 498.71 406.28 499.12C405.28 499.21 404.28 499.82 403.28 499.91C400.666 500.186 398.038 500.313 395.41 500.29C389.91 500.16 384.41 499.8 378.92 499.61C375.59 499.49 372.26 499.53 368.92 499.5C365.563 499.588 362.206 499.283 358.92 498.59C357.214 498.197 355.651 497.335 354.41 496.1C350.64 492.45 346.86 488.78 343.06 485.1C340.88 483.02 338.69 480.94 336.43 478.95C335.02 477.71 333.43 476.7 331.99 475.46C331.047 474.609 330.205 473.653 329.48 472.61C327.93 470.39 326.54 468.06 324.98 465.84C324.15 464.68 323.07 463.7 322.18 462.58C319.92 459.77 317.7 456.89 317.01 453.26C316.46 450.38 316.25 447.43 316.01 444.5C315.77 441.57 315.41 438.62 315.35 435.67C315.25 430.42 315.35 425.16 315.35 419.91C315.35 417.12 315.35 414.33 315.51 411.54C315.79 405.333 316.123 399.127 316.51 392.92C316.77 388.38 317.11 383.84 317.42 379.31C317.407 378.911 317.441 378.511 317.52 378.12C318.52 374.66 318.58 371.05 319.22 367.54C320.06 362.91 320.61 358.21 321.77 353.66C323.171 348.019 324.873 342.458 326.87 337C328.7 332.1 331.29 327.48 333.29 322.63C335.14 318.16 338.56 314.91 341.51 311.3C344.46 307.69 347.51 304.3 350.64 300.86C351.648 299.962 352.71 299.128 353.82 298.36C355.75 296.7 357.52 294.82 359.57 293.36C362 291.555 364.568 289.943 367.25 288.54C371.67 286.28 375.62 283.32 379.79 280.7C384.22 277.91 388.7 275.21 393.1 272.38C394.63 271.38 395.93 270.05 397.43 269C399.71 267.4 402.09 265.93 404.43 264.37C405.94 263.37 407.43 262.24 408.88 261.17C411.88 258.97 414.95 256.79 417.96 254.57C419.81 253.2 421.62 251.77 423.46 250.39C424.79 249.39 426.21 248.51 427.46 247.46C430.645 244.98 433.653 242.28 436.46 239.38C436.872 239.02 437.321 238.704 437.8 238.44L437.82 248.06Z" fill="#0E2043"/>
<path d="M404.67 613.41C405.07 610.73 405.51 608.06 405.87 605.41C406.23 602.76 406.5 600.24 406.79 597.64C407.06 595.26 407.43 592.89 407.51 590.5C407.67 586.21 407.62 581.92 407.72 577.63C407.72 576.28 408.04 574.93 408.06 573.57C408.06 571.13 408.01 568.69 408.01 566.25C408.01 565.25 408.17 564.19 408.15 563.15C408.08 560.62 408.15 558.06 407.79 555.56C407.503 552.995 406.971 550.463 406.2 548C405.094 544.512 403.122 541.361 400.47 538.84C397.69 536.21 394.31 534.6 391.14 532.63C389.38 531.53 387.3 531.71 385.29 531.75C384.584 531.813 383.873 531.769 383.18 531.62C379.18 530.44 375.12 530.69 371.1 530.12C368.71 529.78 366.58 530.83 364.27 530.75C360.77 530.63 357.27 530.63 353.75 530.75C351.361 530.87 348.981 531.121 346.62 531.5C342.316 532.221 338.157 533.629 334.3 535.67C331.506 537.212 328.927 539.115 326.63 541.33C322.53 544.98 320.03 549.69 317.79 554.57C317.523 555.321 317.388 556.113 317.39 556.91C317.18 559.69 316.94 562.47 316.86 565.26C316.78 568.05 316.79 570.67 316.94 573.36C317.28 579.36 318.08 585.36 317.69 591.41C317.482 595.54 317.747 599.68 318.48 603.75C318.8 605.75 318.87 607.75 319.18 609.69C319.434 610.932 319.751 612.16 320.13 613.37H312.92C312.33 609.53 311.59 605.7 311.18 601.83C310.89 599.06 311.07 596.25 310.97 593.46C310.79 588.84 311.29 584.24 310.78 579.6C310.38 575.98 310.71 572.27 310.71 568.6C310.71 567.97 310.65 567.34 310.71 566.71C310.79 564.96 310.89 563.22 311 561.47C311.11 559.72 311.19 557.97 311.39 556.23C311.561 554.429 311.855 552.641 312.27 550.88C312.77 548.95 313.52 547.09 314.16 545.2C315.47 541.38 318.16 538.6 321.02 535.92C323.69 533.41 326.39 530.92 329.72 529.28C335.02 526.75 340.25 524.1 346.35 523.7C348.57 523.55 350.86 523.06 353.12 522.94C358.14 522.673 363.167 522.53 368.2 522.51C371.52 522.51 374.86 522.71 378.2 523.02C381.36 523.31 384.51 524.17 387.66 524.17C390.595 524.177 393.493 524.815 396.16 526.04C397.62 526.68 399.41 526.57 401.04 526.82C401.515 526.86 401.983 526.965 402.43 527.13C407.2 529.32 412 531.38 416.38 534.39C420.76 537.4 425.21 539.74 429.62 542.44C430.71 543.1 431.62 544.21 432.73 544.65C434.538 545.428 436.264 546.386 437.88 547.51V613.37L404.67 613.41Z" fill="#0E2043"/>
</g>
<defs>
<clipPath id="clip0_8_86">
<rect width="201.82" height="613.41" fill="white" transform="translate(236)"/>
</clipPath>
</defs>
</svg>
