<svg width="43" height="45" viewBox="0 0 43 45" fill="none" xmlns="http://www.w3.org/2000/svg">
<g clip-path="url(#clip0_17_24)">
<path d="M22.4803 7.84923C22.8771 6.64575 23.3436 5.46728 23.8772 4.32001C24.4208 3.16184 25.3152 2.21229 26.4285 1.61131C26.9823 1.35164 27.5201 1.05782 28.0389 0.731479C29.1992 0.113329 30.5411 -0.0518903 31.8125 0.266849C32.9437 0.326845 34.0369 0.70252 34.9727 1.35282C35.9086 2.00313 36.651 2.90304 37.1189 3.95424C37.245 4.23104 37.5845 4.41887 37.7398 4.69567C38.3066 5.70623 38.6385 6.83579 38.7098 7.99752C38.8166 9.06518 39.1173 10.1131 39.1852 11.1807C39.321 13.0491 39.3113 14.9274 39.4374 16.786C39.558 19.0026 39.3949 21.2258 38.9524 23.3995C38.8069 24.2003 38.8942 25.0505 38.7001 25.8314C38.2636 27.5614 37.6427 29.2519 37.2353 30.9918C36.8535 32.7117 36.105 34.325 35.0429 35.7172C34.7429 36.2193 34.3119 36.6265 33.798 36.8936C33.2842 37.1607 32.7076 37.277 32.1326 37.2297C30.9145 37.1111 29.7034 36.9263 28.5045 36.6761C26.0308 35.9742 25.2644 34.1157 26.0599 31.4169C26.6128 29.5188 27.4083 27.69 28.1359 25.7128C25.9435 25.4755 24.663 23.9531 23.2854 22.4011C23.1496 23.4687 22.9653 24.487 22.9071 25.5151C22.8921 27.5496 22.497 29.5626 21.743 31.4465C21.2667 32.698 20.4801 33.8022 19.4599 34.6512C18.4397 35.5002 17.2209 36.0651 15.9225 36.2906C13.8368 36.6959 12.1973 35.8655 10.4997 34.8868C9.2037 34.0063 8.0652 32.9063 7.13345 31.6344C5.75613 29.8276 4.88155 27.6763 4.60152 25.4063C4.456 24.6254 4.25229 23.8345 4.17468 23.0338C4.09707 22.233 4.06797 21.0962 4.00006 20.157C3.859 17.8432 3.98598 15.5205 4.3784 13.237C4.57242 12.2484 4.3784 11.2104 4.60152 10.2712C5.15808 7.29511 6.41284 4.50035 8.25875 2.12537C8.82343 1.34364 9.59156 0.738586 10.4762 0.378684C11.3608 0.0187814 12.3267 -0.0815983 13.2644 0.0889048C14.1593 0.212982 15.0467 0.387903 15.9225 0.61285C16.9875 0.932649 17.9799 1.46419 18.8424 2.17682C19.7049 2.88944 20.4203 3.76904 20.9475 4.76487C21.5199 5.81276 22.0146 6.91997 22.4803 7.84923ZM19.57 10.0933H19.6864C19.6866 9.6371 19.6575 9.18137 19.5991 8.72906C19.3705 7.71087 19.0456 6.71765 18.629 5.76333C18.1343 4.50784 17.1448 3.78618 16.4172 2.7976C15.8351 1.97709 14.768 1.97709 13.8465 1.83869C13.1291 1.68563 12.3856 1.71662 11.6829 1.92886C10.9802 2.1411 10.3403 2.52795 9.8206 3.05463C9.03431 3.90762 8.38009 4.87766 7.88042 5.93139C6.89259 7.92206 6.32111 10.1001 6.20216 12.3275C6.14396 14.3639 5.93054 16.4004 5.81413 18.427C5.73356 20.8964 5.97166 23.3659 6.52229 25.7721C7.0177 28.1679 8.30534 30.3176 10.1698 31.8618C10.9556 32.5636 11.9839 32.4944 12.9055 32.6823C13.7909 32.8869 14.7149 32.8342 15.5724 32.5301C16.4299 32.226 17.1864 31.6827 17.7559 30.9621C19.0364 29.4002 19.0849 27.4626 19.3275 25.6041C19.4536 24.7143 19.3275 23.795 19.3954 22.8954C19.5312 21.1752 19.8804 19.4551 19.8901 17.735C19.9483 15.2141 19.7252 12.6537 19.5991 10.0933H19.57ZM36.1973 10.291C35.916 8.83781 35.6444 7.02871 35.2272 5.27893C35.0793 4.65722 34.7697 4.08763 34.331 3.6301C33.8922 3.17256 33.3406 2.844 32.7341 2.67898C31.1667 2.191 29.4751 2.33612 28.0098 3.08429C27.5041 3.26263 27.0366 3.53777 26.6322 3.89492C25.6243 4.95281 24.914 6.26735 24.5756 7.70094C23.8442 11.1611 23.6381 14.7152 23.9645 18.2392C23.9724 18.7369 24.0408 19.2316 24.1682 19.7121C24.3928 20.4029 24.6921 21.066 25.0607 21.6893C25.3109 22.1814 25.6622 22.6127 26.0908 22.9539C26.5193 23.2951 27.015 23.5382 27.5441 23.6665C28.3293 23.7703 29.1195 23.8297 29.9111 23.8444C30.6484 23.8938 30.8812 24.2794 30.5611 24.9615C30.1828 25.8611 29.8044 26.7607 29.4746 27.69C28.9702 29.1333 28.5045 30.5766 28.0195 32.0397C27.9236 32.4842 27.9007 32.9419 27.9516 33.394C27.9516 33.5028 28.1359 33.6708 28.2523 33.7005C28.6403 33.7895 29.0284 33.7895 29.4164 33.8686C30.0135 34.0222 30.6448 33.9532 31.1963 33.674C31.7478 33.3948 32.1831 32.9238 32.4237 32.3462C33.2579 30.1911 34.0146 28.0063 34.7519 25.8117C34.9092 25.2109 35.0259 24.5998 35.1011 23.9828C35.5683 22.081 35.9278 20.1534 36.1779 18.2095C36.3622 15.6886 36.2264 13.1678 36.2264 10.291H36.1973Z" fill="#0E2043"/>
<path d="M11.1399 15.5503C11.3145 14.4827 11.4988 13.0789 11.7996 11.7146C12.0426 10.6602 12.3537 9.62321 12.7308 8.61051C12.7839 8.48841 12.8608 8.37854 12.9567 8.28753C13.0526 8.19652 13.1656 8.12626 13.2889 8.08099C13.4122 8.03572 13.5432 8.01637 13.6741 8.02413C13.8049 8.03188 13.9328 8.06658 14.0502 8.12611C14.2449 8.23611 14.413 8.38906 14.5422 8.57379C14.6715 8.75851 14.7585 8.97034 14.7971 9.19377C15.0531 10.8301 15.2119 12.4808 15.2725 14.1367C15.4672 17.4635 15.2718 20.8021 14.6904 24.0817C14.6904 24.2696 14.574 24.4475 14.5255 24.6353C14.3703 25.2482 14.1084 25.9699 13.439 25.8019C13.1448 25.7124 12.8724 25.5605 12.64 25.356C12.4076 25.1515 12.2203 24.8992 12.0906 24.6156C11.5285 23.3789 11.2657 22.0228 11.3242 20.6613C11.3681 18.9554 11.3065 17.2483 11.1399 15.5503V15.5503Z" fill="#0E2043"/>
<path d="M32.5108 11.3193C32.2974 13.2965 32.0937 15.1352 31.8802 16.9937C31.8338 17.277 31.7723 17.5575 31.6959 17.834C31.6796 17.9673 31.6367 18.0958 31.57 18.2117C31.5033 18.3275 31.4141 18.4283 31.3079 18.5079C31.2017 18.5875 31.0806 18.6441 30.9522 18.6744C30.8238 18.7048 30.6906 18.7081 30.5609 18.6842C30.2749 18.665 30.0027 18.5514 29.7857 18.3605C29.5686 18.1697 29.4185 17.912 29.358 17.6264C28.7701 14.9654 28.7238 12.2099 29.2222 9.52998C29.455 8.34369 30.0274 7.55282 30.8422 7.69122C31.0847 7.73262 31.3154 7.8275 31.5182 7.96923C31.7209 8.11096 31.8908 8.29611 32.016 8.51174C32.2524 9.43304 32.4179 10.3717 32.5108 11.3193V11.3193Z" fill="#0E2043"/>
<path d="M5.16407 44.8222C4.92383 44.7196 4.71817 44.5478 4.57231 44.3279C4.42526 44.121 4.34707 43.8715 4.34919 43.6161C4.33966 43.5175 4.33966 43.4181 4.34919 43.3195C4.36511 43.2279 4.39115 43.1383 4.4268 43.0526H5.39689C5.34931 43.1856 5.32628 43.3263 5.32898 43.4678C5.32369 43.5686 5.33812 43.6694 5.37143 43.7645C5.40474 43.8595 5.45626 43.9469 5.523 44.0214C5.59179 44.0906 5.67375 44.1447 5.76385 44.1804C5.85394 44.2161 5.95025 44.2327 6.04685 44.229C6.17496 44.23 6.30143 44.1995 6.41548 44.14C6.52359 44.0877 6.6121 44.0009 6.6677 43.8929C6.73587 43.7766 6.76956 43.6427 6.76471 43.5074C6.76911 43.3807 6.74244 43.255 6.68711 43.1416C6.63761 43.0338 6.56054 42.9416 6.46399 42.8747C6.36059 42.8053 6.23845 42.7707 6.11475 42.7758H5.94014V42.064H6.16326C6.24059 42.0686 6.31796 42.0559 6.39 42.0268C6.46203 41.9978 6.527 41.9532 6.5804 41.896C6.65319 41.7854 6.68736 41.6531 6.6774 41.5203C6.67701 41.4132 6.65034 41.3078 6.5998 41.2139C6.55269 41.1263 6.48201 41.0543 6.39608 41.0063C6.29946 40.9471 6.18867 40.9163 6.07595 40.9173C5.96001 40.915 5.84575 40.9458 5.74612 41.0063C5.65983 41.0582 5.58932 41.1335 5.5424 41.2237C5.49297 41.3181 5.46636 41.4232 5.46479 41.5302C5.4517 41.6154 5.4517 41.7021 5.46479 41.7872H4.4947C4.46161 41.6716 4.44527 41.5517 4.4462 41.4313C4.44679 41.2008 4.51801 40.9761 4.64992 40.7888C4.79665 40.5886 4.99003 40.4289 5.21257 40.3241C5.46752 40.2029 5.74612 40.142 6.02745 40.1462C6.30127 40.1444 6.57237 40.2017 6.82292 40.3143C7.04933 40.4126 7.24422 40.5736 7.38557 40.7789C7.52604 40.9661 7.60115 41.1957 7.59899 41.4313C7.60496 41.6554 7.54408 41.876 7.42437 42.064C7.32375 42.2351 7.17019 42.3673 6.98783 42.4397V42.4397C7.12679 42.4893 7.25285 42.5704 7.35647 42.6769C7.47375 42.7913 7.56627 42.9293 7.62809 43.0823C7.69981 43.2542 7.73613 43.4392 7.7348 43.626C7.73771 43.8831 7.65571 44.1338 7.50198 44.3378C7.3425 44.5565 7.12799 44.7273 6.88112 44.832C6.6057 44.9535 6.30814 45.0142 6.00804 45.01C5.71716 45.0061 5.43006 44.9422 5.16407 44.8222V44.8222Z" fill="#161449"/>
<path d="M12.1488 43.9225C12.2358 43.5433 12.2813 43.1553 12.2846 42.7659V41.7773C12.3016 41.5372 12.2512 41.2972 12.1391 41.0853C12.0996 41.0197 12.0439 40.9659 11.9774 40.9294C11.9109 40.893 11.8362 40.8751 11.7607 40.8777C11.6935 40.8788 11.6275 40.8964 11.5683 40.9291C11.5092 40.9618 11.4587 41.0086 11.4212 41.0655C11.324 41.2254 11.2766 41.4115 11.2854 41.5994V43.5765H10.3638V41.5994C10.3755 41.4125 10.3315 41.2265 10.2377 41.0655C10.1986 41.0079 10.1465 40.9607 10.0857 40.928C10.0249 40.8953 9.9572 40.878 9.88845 40.8777C9.80745 40.8777 9.72791 40.8996 9.658 40.9413C9.5881 40.983 9.53035 41.043 9.49072 41.115C9.38997 41.3271 9.34327 41.5617 9.3549 41.7971V42.7856C9.35576 43.1747 9.39805 43.5625 9.48101 43.9423C9.54694 44.2867 9.66129 44.6197 9.82055 44.9309H8.85046C8.75087 44.7533 8.6727 44.5641 8.61764 44.3674C8.53572 44.1267 8.47723 43.8783 8.44302 43.6259C8.39633 43.3517 8.37361 43.0738 8.37511 42.7955V41.807C8.36609 41.5028 8.42933 41.201 8.55943 40.9271C8.67058 40.6857 8.84519 40.4804 9.06388 40.334C9.27487 40.1956 9.52112 40.1234 9.77204 40.1264C9.99497 40.1248 10.2149 40.1791 10.4123 40.2845C10.5798 40.3902 10.7118 40.5454 10.7906 40.7294V40.7294C10.8685 40.5305 11.0128 40.3659 11.1981 40.2648C11.3925 40.1605 11.6089 40.1062 11.8286 40.1066C12.0858 40.1026 12.3385 40.1747 12.5562 40.3142C12.7745 40.4568 12.9493 40.6588 13.0606 40.8975C13.1838 41.1769 13.2435 41.481 13.2353 41.7872V42.7758C13.2352 43.0536 13.2157 43.3311 13.1771 43.6062C13.1336 43.8567 13.0753 44.1043 13.0024 44.3476C12.9403 44.5432 12.859 44.732 12.7599 44.9111H11.7607C11.9414 44.605 12.0724 44.2712 12.1488 43.9225V43.9225Z" fill="#161449"/>
<path d="M17.4454 44.13C17.5221 43.8637 17.5581 43.5869 17.5521 43.3095C17.5703 43.0894 17.523 42.8689 17.4162 42.6768C17.3821 42.6102 17.3304 42.5546 17.267 42.5162C17.2037 42.4778 17.131 42.4581 17.0573 42.4593C16.9963 42.4596 16.9364 42.4762 16.8837 42.5074C16.8309 42.5386 16.7871 42.5834 16.7566 42.6372C16.6723 42.7728 16.6316 42.9317 16.6402 43.092V44.0805H15.7671V43.092C15.7764 42.9285 15.7357 42.7662 15.6507 42.6273C15.6147 42.583 15.5682 42.5488 15.5155 42.528C15.4629 42.5072 15.4059 42.5006 15.35 42.5087C15.2787 42.5085 15.2085 42.5265 15.1458 42.561C15.0831 42.5956 15.0299 42.6456 14.991 42.7064C14.8792 42.8968 14.8283 43.1179 14.8455 43.3391C14.843 43.9038 14.9941 44.4582 15.2821 44.9406H14.312C14.1585 44.6898 14.0439 44.4164 13.9724 44.13C13.8866 43.7442 13.8475 43.3491 13.856 42.9536C13.8097 42.3483 13.9977 41.7486 14.3799 41.2829C14.7544 40.8916 15.2393 40.629 15.7671 40.5316L16.3103 40.4228C16.3905 40.4098 16.4687 40.3865 16.5432 40.3536C16.596 40.3267 16.6374 40.281 16.6596 40.2251H17.6297C17.6174 40.4568 17.5205 40.6754 17.358 40.838C17.1432 41.0178 16.8787 41.1249 16.6014 41.1445L16.0484 41.2334C15.7118 41.2797 15.3844 41.3798 15.0783 41.53C14.9563 41.5868 14.849 41.6717 14.7648 41.7781C14.6806 41.8845 14.6219 42.0094 14.5933 42.1429V42.1429C14.6846 42.0043 14.8124 41.8947 14.9619 41.8266C15.095 41.7609 15.241 41.7271 15.3888 41.7277C15.5535 41.7292 15.7147 41.7771 15.8544 41.8661C16.0039 41.9664 16.1192 42.1114 16.1842 42.2813V42.2813C16.2756 42.1041 16.4177 41.9593 16.5917 41.8661C16.7707 41.7696 16.9712 41.7219 17.1737 41.7277C17.4083 41.7258 17.6393 41.7872 17.8431 41.9057C18.0512 42.0288 18.2197 42.2108 18.3281 42.4296C18.4569 42.6756 18.5205 42.9517 18.5124 43.2304C18.5191 43.545 18.4765 43.8587 18.3863 44.1596C18.3091 44.4192 18.1947 44.6657 18.0468 44.8912H17.0767C17.2327 44.6555 17.3567 44.3995 17.4454 44.13V44.13Z" fill="#161449"/>
<path d="M19.8028 44.822C19.5633 44.7225 19.36 44.5498 19.2208 44.3277C19.0812 44.1071 19.0102 43.8487 19.0171 43.5863C19.0155 43.4577 19.0386 43.3301 19.085 43.2106H20.055C20.0473 43.3093 20.0473 43.4085 20.055 43.5072C20.0544 43.6366 20.0808 43.7647 20.1327 43.8828C20.1872 43.9908 20.2715 44.0801 20.3752 44.1399C20.4848 44.2018 20.6088 44.2325 20.7341 44.2288C20.8319 44.2352 20.9298 44.2189 21.0205 44.1812C21.1112 44.1436 21.1924 44.0855 21.258 44.0113C21.386 43.8457 21.4514 43.6387 21.4423 43.4281V42.4395C21.4457 42.3024 21.4157 42.1665 21.355 42.0441C21.3041 41.9342 21.2233 41.8415 21.1221 41.7772C21.0189 41.7168 20.9016 41.6861 20.7826 41.6882C20.6811 41.6861 20.5809 41.7116 20.4923 41.7619C20.4037 41.8123 20.3298 41.8858 20.2782 41.9749C20.2364 42.0611 20.2132 42.1555 20.2103 42.2517C20.2015 42.3206 20.2015 42.3904 20.2103 42.4593H19.2402C19.2246 42.3511 19.2246 42.2412 19.2402 42.1331C19.238 41.9208 19.2845 41.7109 19.376 41.5201C19.47 41.3423 19.6112 41.195 19.7834 41.095C19.9791 40.985 20.2002 40.9304 20.4237 40.9369C20.6311 40.9327 20.8368 40.9766 21.0251 41.0654C21.1886 41.1372 21.3296 41.2535 21.4326 41.4015V40.2251H22.4027V43.4973C22.4132 43.7863 22.3389 44.072 22.1892 44.3178C22.046 44.5463 21.8354 44.7228 21.5878 44.822C21.3096 44.9454 21.0084 45.0061 20.705 44.9999C20.395 45.0104 20.0866 44.9496 19.8028 44.822Z" fill="#161449"/>
<path d="M23.8286 44.7825C23.5757 44.6541 23.3638 44.4553 23.2174 44.2092C23.0678 43.9556 22.9906 43.6647 22.9943 43.3689C22.9907 43.0831 23.0574 42.8011 23.1883 42.5484C23.314 42.3183 23.4983 42.127 23.7218 41.9948C23.9519 41.8704 24.2084 41.8059 24.4688 41.8069C24.6693 41.8095 24.8673 41.8532 25.0509 41.9354C25.2204 42.0111 25.3651 42.1346 25.468 42.2913V42.2913V41.4609C25.4775 41.3063 25.4439 41.152 25.371 41.0161C25.3373 40.9644 25.2909 40.9226 25.2364 40.8949C25.182 40.8672 25.1214 40.8544 25.0606 40.8579C25.0074 40.8574 24.9547 40.8686 24.9061 40.8907C24.8575 40.9129 24.8143 40.9456 24.7792 40.9864C24.7086 41.0721 24.6707 41.181 24.6725 41.2929V41.4412H23.8092V41.3028C23.8092 41.0556 23.6636 40.9271 23.3823 40.9271H23.0525V40.1461H23.4793C23.6513 40.1433 23.8213 40.184 23.9741 40.2647C24.1081 40.348 24.208 40.478 24.2554 40.6305C24.3366 40.4607 24.4692 40.3221 24.6337 40.2351C24.8268 40.1439 25.037 40.0967 25.2497 40.0967C25.4625 40.0967 25.6727 40.1439 25.8657 40.2351C26.0432 40.3303 26.191 40.4741 26.2926 40.6503C26.403 40.8595 26.4566 41.095 26.4478 41.3324V43.3096C26.4544 43.6044 26.3805 43.8953 26.2344 44.1499C26.0879 44.396 25.876 44.5948 25.6232 44.7232C25.3424 44.8737 25.0285 44.9485 24.7113 44.9407C24.409 44.9589 24.1067 44.9048 23.8286 44.7825ZM25.1382 44.1202C25.2518 44.0505 25.3455 43.9517 25.4098 43.8335C25.4759 43.7021 25.5092 43.5561 25.5068 43.4084C25.5117 43.2573 25.4783 43.1075 25.4098 42.9734C25.355 42.8491 25.2634 42.7454 25.1479 42.6769C25.0264 42.6082 24.889 42.5741 24.7501 42.578C24.6142 42.5728 24.4796 42.6071 24.3621 42.6769C24.2488 42.7483 24.158 42.8512 24.1002 42.9734C24.0317 43.1075 23.9983 43.2573 24.0032 43.4084C24.0008 43.5561 24.0341 43.7021 24.1002 43.8335C24.1607 43.9513 24.2512 44.0503 24.3621 44.1202C24.4794 44.1916 24.6135 44.2293 24.7501 44.2293C24.8868 44.2293 25.0209 44.1916 25.1382 44.1202V44.1202Z" fill="#161449"/>
<path d="M30.9684 43.9224C31.0554 43.5431 31.1009 43.1552 31.1042 42.7657V41.7772C31.1212 41.5371 31.0708 41.297 30.9587 41.0852C30.9216 41.011 30.8644 40.9492 30.7939 40.9071C30.7234 40.8651 30.6425 40.8445 30.5609 40.8479C30.4937 40.849 30.4276 40.8666 30.3685 40.8994C30.3094 40.9321 30.2589 40.9788 30.2214 41.0357C30.1275 41.1967 30.0836 41.3827 30.0953 41.5696V43.5467H29.2222V41.5696C29.2339 41.3827 29.1899 41.1967 29.0961 41.0357C29.057 40.9781 29.0049 40.9309 28.9441 40.8982C28.8833 40.8655 28.8156 40.8482 28.7469 40.8479C28.6671 40.8475 28.5887 40.8695 28.5203 40.9113C28.4519 40.9531 28.396 41.0133 28.3588 41.0852C28.25 41.2947 28.1996 41.5306 28.2133 41.7673V42.7559C28.2142 43.1449 28.2564 43.5327 28.3394 43.9125C28.4053 44.2569 28.5197 44.5899 28.6789 44.9011H27.7089C27.6093 44.7235 27.5311 44.5343 27.476 44.3376C27.3941 44.0969 27.3356 43.8485 27.3014 43.5961C27.2547 43.3219 27.232 43.044 27.2335 42.7657V41.7772C27.2278 41.4734 27.2909 41.1723 27.4178 40.8973C27.529 40.6559 27.7036 40.4506 27.9223 40.3042C28.134 40.1673 28.3798 40.0953 28.6304 40.0966C28.8534 40.095 29.0733 40.1493 29.2707 40.2548C29.4521 40.3608 29.595 40.5238 29.6781 40.7194C29.7612 40.5238 29.9042 40.3608 30.0856 40.2548C30.2804 40.1516 30.4966 40.0974 30.7161 40.0966C30.9733 40.0926 31.226 40.1647 31.4437 40.3042C31.6669 40.4409 31.8431 40.6446 31.9481 40.8875C32.0746 41.1661 32.1376 41.4702 32.1325 41.7772V42.7657C32.129 43.0438 32.1063 43.3213 32.0646 43.5961C32.0303 43.8485 31.9719 44.0969 31.8899 44.3376C31.832 44.5348 31.7505 44.724 31.6474 44.9011H30.6773C30.8233 44.5921 30.9215 44.262 30.9684 43.9224Z" fill="#161449"/>
<path d="M33.4809 44.8319C33.2391 44.7276 33.026 44.5647 32.8601 44.3573C32.7064 44.1534 32.6244 43.9027 32.6273 43.6456C32.6295 43.4825 32.6625 43.3215 32.7243 43.1711H33.6944C33.6704 43.2313 33.6541 43.2944 33.6459 43.3589C33.6459 43.4182 33.6459 43.4874 33.6459 43.5665C33.6423 43.6862 33.6763 43.8039 33.7429 43.9026C33.8046 44.0033 33.8917 44.0852 33.9951 44.1399C34.1052 44.2005 34.2289 44.2311 34.354 44.2288C34.476 44.2299 34.5962 44.1993 34.7033 44.1399C34.8044 44.0811 34.8881 43.9957 34.9458 43.8927C35.005 43.7875 35.0351 43.668 35.0331 43.5467C35.0368 43.418 35.0137 43.29 34.9652 43.1711C34.913 43.0595 34.8303 42.9657 34.727 42.9008C34.6238 42.8359 34.5044 42.8027 34.3831 42.8053H34.0727V42.054H34.4801C34.5935 42.0604 34.7058 42.0292 34.8003 41.965C34.8337 41.9399 34.8608 41.9072 34.8793 41.8694C34.8979 41.8315 34.9074 41.7898 34.907 41.7475C34.9096 41.6752 34.8854 41.6046 34.8391 41.5498C34.7923 41.4971 34.7364 41.4535 34.6742 41.4213L34.3831 41.2928C34.1394 41.2043 33.9175 41.0626 33.7332 40.8776C33.5772 40.6973 33.491 40.4654 33.4907 40.2251H34.4607C34.481 40.332 34.5399 40.4272 34.6257 40.492C34.7082 40.5578 34.7997 40.6111 34.8973 40.6502L35.0622 40.7293C35.2006 40.7862 35.3337 40.8557 35.4599 40.9369C35.5684 41.0098 35.6582 41.1081 35.7219 41.2236C35.7958 41.3595 35.8326 41.5131 35.8286 41.6684C35.8329 41.8356 35.7816 41.9993 35.6831 42.1331C35.5703 42.2725 35.4177 42.3727 35.2465 42.4197V42.4197C35.3818 42.4612 35.5051 42.5359 35.6054 42.6372C35.7302 42.743 35.8269 42.8789 35.8868 43.0327C35.9739 43.2381 36.0088 43.4626 35.9885 43.6854C35.9682 43.9083 35.8931 44.1224 35.7704 44.3079C35.6178 44.523 35.4095 44.6907 35.1689 44.7923C34.9003 44.9137 34.6091 44.9744 34.3152 44.9703C34.0311 44.9775 33.7481 44.9306 33.4809 44.8319V44.8319Z" fill="#161449"/>
<path d="M38.9231 43.9619C38.9807 43.5825 39.0099 43.1991 39.0104 42.8151V41.8958C39.0248 41.6365 38.9641 41.3787 38.8358 41.1543C38.7778 41.0687 38.7003 40.9987 38.6099 40.9503C38.5195 40.902 38.4189 40.8767 38.3168 40.8767C38.2147 40.8767 38.1141 40.902 38.0237 40.9503C37.9333 40.9987 37.8558 41.0687 37.7978 41.1543C37.6696 41.3787 37.6088 41.6365 37.6232 41.8958V42.8151C37.6222 43.1963 37.6546 43.5768 37.7202 43.952C37.7716 44.2732 37.8562 44.588 37.9724 44.8912H36.9829C36.8475 44.5969 36.7559 44.2837 36.7113 43.9619C36.6373 43.571 36.6016 43.1737 36.6046 42.7756V41.8661C36.5933 41.5224 36.6702 41.1817 36.8277 40.8775C36.967 40.6182 37.1801 40.408 37.4389 40.2745C37.7052 40.1332 38.002 40.0618 38.3023 40.0669C38.6024 40.063 38.8989 40.1343 39.1656 40.2745C39.4248 40.4121 39.6376 40.6256 39.7768 40.8874C39.9411 41.1889 40.0185 41.5316 39.9999 41.876V42.7756C40.0029 43.1737 39.9672 43.571 39.8932 43.9619C39.8411 44.282 39.7498 44.5942 39.6216 44.8912H38.6515C38.7745 44.5923 38.8656 44.2807 38.9231 43.9619Z" fill="#161449"/>
</g>
<defs>
<clipPath id="clip0_17_24">
<rect width="36" height="45" fill="white" transform="translate(4)"/>
</clipPath>
</defs>
</svg>
