<svg width="435" height="608" viewBox="0 0 435 608" fill="none" xmlns="http://www.w3.org/2000/svg">
<g clip-path="url(#clip0_6_105)">
<path d="M393.25 161H151.25L97.92 203.08H0V607.82H393.25" fill="#9F33FF"/>
<path d="M0.520117 211.68L6.21012 211.87C9.68012 211.96 13.1501 212.16 16.6101 212.12C21.2801 212.12 25.9401 211.81 30.6101 211.7C38.1701 211.52 45.7301 211.35 53.2901 211.25C58.6801 211.17 64.0601 211.18 69.4401 211.25C74.5701 211.25 79.7101 211.49 84.8301 211.4C87.0477 211.406 89.2499 211.031 91.3401 210.29C93.2001 209.58 94.7401 208.06 96.4301 206.89L98.1801 205.69C101.42 203.44 104.75 201.3 107.87 198.91C109.87 197.38 111.48 195.36 113.41 193.75C115.9 191.67 118.56 189.81 121.12 187.81C123.68 185.81 125.87 183.9 128.34 182.07C131.56 179.66 134.9 177.4 138.14 175.07C139.34 174.19 140.38 173.07 141.54 172.14C143.37 170.65 145.17 169.14 147.12 167.78C147.883 167.388 148.766 167.302 149.59 167.54C152.131 168.16 154.759 168.34 157.36 168.07C158.942 167.95 160.532 167.97 162.11 168.13C168.352 168.58 174.618 168.58 180.86 168.13C185.1 167.95 189.34 167.86 193.58 167.68C196.32 167.56 199.05 167.27 201.79 167.16C204.79 167.04 207.79 167.05 210.79 166.96C214.56 166.83 218.33 166.62 222.1 166.52C224.55 166.45 227.01 166.67 229.45 166.52C237.21 165.92 244.94 166.52 252.68 166.73C260.26 166.99 267.86 167 275.43 167.33C284.75 167.73 294.07 167.58 303.38 167.54C314.3 167.5 325.217 167.5 336.13 167.54C342.46 167.54 348.79 167.74 355.13 167.74C361.77 167.74 368.41 167.6 375.05 167.55C379.05 167.55 383.11 167.55 387.14 167.5C389.35 167.5 391.55 167.23 393.76 167.15C394.706 167.12 395.653 167.2 396.58 167.39C398.48 167.78 399.34 168.72 399.37 170.65C399.37 172.42 400.07 174.28 398.8 175.92C398.721 176.059 398.696 176.223 398.73 176.38C399.18 180.61 398.43 184.83 398.73 189.07C398.95 192.61 398.52 196.18 398.39 199.74C398.39 200.69 398.39 201.64 398.39 202.59C398.39 206.22 398.49 209.85 398.48 213.48C398.48 216.22 398.42 218.97 398.32 221.71C398.22 224.45 398.04 226.92 397.9 229.52C397.762 230.939 397.709 232.365 397.74 233.79C397.956 236.8 397.778 239.826 397.21 242.79C397.163 242.942 397.14 243.101 397.14 243.26C397.8 247.92 396.68 252.54 396.92 257.26C397.16 261.98 396.92 266.6 396.92 271.26C396.92 275.53 397.03 279.81 397.04 284.08C397.04 285.98 396.88 287.88 396.85 289.77C396.74 295.08 396.69 300.39 396.56 305.69C396.5 307.9 396.25 310.11 396.16 312.32C396.03 315.32 395.97 318.32 395.88 321.32C395.74 326.38 395.607 331.443 395.48 336.51C395.38 340.93 395.48 345.36 395.19 349.76C394.74 357.5 394.58 365.24 394.63 372.98C394.63 375.75 394.19 378.51 394.15 381.27C394.09 386.01 394.21 390.75 394.21 395.49C394.21 398.4 394.09 401.31 394.1 404.22C394.1 408.39 394.23 412.57 394.25 416.75C394.25 420.47 394.16 424.18 394.25 427.9C394.32 433.12 394.49 438.33 394.6 443.55C394.65 445.84 394.68 448.14 394.68 450.43C394.68 453.2 394.53 455.96 394.59 458.72C394.68 462.91 394.91 467.09 395.05 471.28C395.19 475.47 395.34 479.66 395.35 483.86C395.35 491.05 395.3 498.24 395.28 505.43C395.26 512.62 395.36 519.84 395.28 527.04C395.2 533.76 394.92 540.47 394.82 547.19C394.76 551.44 394.82 555.7 394.9 559.95C394.91 560.03 394.91 560.11 394.9 560.19C394.11 563.07 394.9 565.98 394.72 568.89C394.44 574.41 394.52 579.95 394.38 585.48C394.38 587.38 394.03 589.27 393.97 591.16C393.82 595.75 393.75 600.34 393.66 604.93C393.66 605.93 393.66 606.98 393.61 608.01H386.4C386.4 603.01 386.3 598.01 386.45 593.01C386.62 587.74 387.1 582.47 387.31 577.2C387.47 573.1 387.41 568.99 387.47 564.89C387.58 557.53 387.72 550.17 387.82 542.81C387.887 538.543 387.933 534.273 387.96 530C387.96 523.68 388.04 517.35 388.02 511C388.02 507.38 387.86 503.75 387.83 500.13C387.83 495.06 387.47 489.96 387.96 484.95C388.27 481.76 387.89 478.67 387.96 475.54C388.03 472.41 387.52 469.22 387.46 466.06C387.37 461.06 387.46 456.06 387.46 451.06C387.46 448.21 387.29 445.36 387.25 442.51C387.21 439.66 387.25 436.99 387.25 434.23C387.25 431.47 387 428.72 387 426C387 418.48 387 411 387 403.44C387 399.24 386.85 395.04 386.93 390.85C387.04 385 386.72 379.16 387.38 373.3C387.77 369.87 387.38 366.3 387.38 362.87C387.38 360.34 387.44 357.81 387.55 355.28C387.82 349.03 388.16 342.79 388.41 336.54C388.48 334.54 388.3 332.61 388.34 330.65C388.34 329.23 388.67 327.82 388.7 326.41C388.88 319.683 389.033 312.953 389.16 306.22C389.24 301.56 388.99 296.88 389.35 292.22C389.97 284.22 389.77 276.22 389.85 268.22C389.92 261.11 389.61 254 389.58 246.89C389.58 244.2 389.93 241.52 390.05 238.89C390.18 236.05 390.19 233.2 390.31 230.36C390.51 225.63 390.81 220.91 390.96 216.18C391.08 212.69 390.88 209.18 391.12 205.72C391.492 200.759 391.459 195.776 391.02 190.82C390.57 186.22 390.84 181.65 390.71 177.07C390.677 176.647 390.62 176.226 390.54 175.81C388.14 175.81 385.8 175.81 383.46 175.81C379.83 175.81 376.19 175.93 372.56 175.94C369.24 175.94 365.92 175.88 362.56 175.86C359.707 175.86 356.863 175.86 354.03 175.86C347.62 175.86 341.21 176 334.81 175.98C326.12 175.98 317.43 175.81 308.75 175.8C300.44 175.8 292.12 176.02 283.81 175.95C278.81 175.95 273.87 175.47 268.9 175.32C265.66 175.22 262.41 175.37 259.17 175.32C255.45 175.24 251.74 175 248.02 174.9C243.36 174.77 238.7 174.63 234.02 174.64C227.61 174.64 221.2 174.77 214.8 174.93C212.35 174.99 209.92 175.33 207.47 175.44C201.47 175.68 195.47 175.83 189.47 176.09C186 176.23 182.54 176.58 179.07 176.73C176.87 176.83 174.66 176.73 172.46 176.73C165.9 176.68 159.35 176.61 152.8 176.59C151.848 176.561 150.896 176.658 149.97 176.88C149.064 177.073 148.215 177.474 147.49 178.05C145.15 180.179 142.635 182.105 139.97 183.81C137.15 185.67 134.74 188.14 131.91 189.97C129.25 191.7 127.23 194.15 124.41 195.72C121.921 197.264 119.637 199.116 117.61 201.23C115 203.871 112.136 206.249 109.06 208.33C104.73 211.08 100.55 214.08 96.4001 217.11C95.0001 218.11 93.8001 219.43 92.0301 219.82C91.2971 220.098 90.5124 220.214 89.7301 220.16C86.8201 219.41 83.8901 219.82 80.9701 219.79C73.7701 219.73 66.5701 219.61 59.3701 219.59C54.5401 219.59 49.7101 219.65 44.8901 219.76C37.4601 219.94 30.0401 220.21 22.6201 220.37C17.7201 220.48 12.8201 220.55 7.92012 220.48C5.41012 220.48 2.92012 219.89 0.370117 220.24L0.520117 211.68Z" fill="#0E2043"/>
</g>
<defs>
<clipPath id="clip0_6_105">
<rect width="435" height="608" fill="white"/>
</clipPath>
</defs>
</svg>
