<svg width="21" height="21" viewBox="0 0 21 21" fill="none" xmlns="http://www.w3.org/2000/svg">
<path d="M10.5 21C16.299 21 21 16.299 21 10.5C21 4.70101 16.299 0 10.5 0C4.70101 0 0 4.70101 0 10.5C0 16.299 4.70101 21 10.5 21Z" fill="#0E2043"/>
<path d="M10.5001 3.85279C8.96221 3.85248 7.4718 4.38542 6.28282 5.36081C5.09384 6.3362 4.27984 7.69368 3.97954 9.20195C3.67923 10.7102 3.9112 12.276 4.6359 13.6324C5.36061 14.9888 6.53322 16.052 7.95393 16.6407C9.37464 17.2295 10.9556 17.3074 12.4273 16.8612C13.899 16.4151 15.1705 15.4724 16.0251 14.1938C16.8797 12.9152 17.2645 11.3799 17.114 9.84941C16.9635 8.31892 16.287 6.88796 15.1997 5.80037C14.5833 5.18214 13.8508 4.69182 13.0442 4.35759C12.2377 4.02336 11.3731 3.85181 10.5001 3.85279ZM14.9033 6.92234C15.7266 7.91626 16.176 9.16702 16.1735 10.4576C15.7259 10.3659 15.2736 10.2988 14.8186 10.2565C13.9495 10.1666 13.0734 10.1666 12.2042 10.2565L12.1407 10.1189L12.0772 9.97073C12.0772 9.83313 11.9608 9.69553 11.8973 9.55793L11.7067 9.14513C12.5481 8.80686 13.3332 8.34291 14.0354 7.76912C14.3527 7.51711 14.6435 7.23338 14.9033 6.92234ZM10.5001 4.80541C11.8906 4.80447 13.2325 5.3171 14.2682 6.24492C14.0422 6.53851 13.7829 6.8049 13.4955 7.03877C12.8397 7.57972 12.0947 8.00236 11.2939 8.28777C10.8282 7.44099 10.3307 6.65773 9.9391 6.06498C9.54746 5.47224 9.25109 5.07003 9.177 5.00652C9.39007 4.95661 9.60558 4.91775 9.82267 4.89009C10.0449 4.84775 10.2672 4.82658 10.5001 4.82658V4.80541ZM8.08678 5.34523C8.16087 5.45107 8.44666 5.85329 8.83829 6.40369C9.22992 6.9541 9.71682 7.76912 10.1931 8.59472C9.03806 8.90027 7.85879 9.10567 6.66843 9.20863C6.09529 9.26815 5.51934 9.29641 4.94313 9.29331C5.10866 8.43202 5.4709 7.62061 6.0016 6.92234C6.57013 6.25276 7.28305 5.72078 8.08678 5.3664V5.34523ZM4.8267 10.5105V10.3412C4.94313 10.3412 5.69464 10.3412 6.77428 10.2565C8.08998 10.1412 9.39112 9.89659 10.6589 9.52617L10.9023 10.0131L11.1246 10.4894H11.0081H10.8917C8.96998 11.1686 7.34293 12.4927 6.28738 14.2364C5.35641 13.2178 4.836 11.8904 4.8267 10.5105ZM10.5001 16.1839C9.86249 16.1913 9.22849 16.0875 8.6266 15.877C8.04423 15.6778 7.50012 15.3807 7.01773 14.9985C7.29279 14.4692 7.65005 13.9869 8.07619 13.5695C9.02759 12.6078 10.1913 11.8828 11.4739 11.4526C11.8165 12.3497 12.1098 13.2649 12.3524 14.194C12.5429 14.9455 12.6488 15.5065 12.6911 15.7605C12.3487 15.9011 11.9945 16.0109 11.6326 16.0887C11.2596 16.161 10.8799 16.1929 10.5001 16.1839ZM13.6755 15.2207C13.6755 15.0408 13.5485 14.5433 13.3791 13.8236C13.2098 13.1038 12.9451 12.1935 12.5747 11.1668C13.3575 11.0555 14.1522 11.0555 14.9351 11.1668C15.3324 11.2227 15.7251 11.3076 16.11 11.4208C15.9883 12.1952 15.7033 12.9349 15.2738 13.5907C14.8551 14.2353 14.3117 14.7895 13.6755 15.2207Z" fill="white"/>
</svg>
