<svg width="43" height="45" viewBox="0 0 43 45" fill="none" xmlns="http://www.w3.org/2000/svg">
<g clip-path="url(#clip0_17_24)">
<path d="M16.5101 24C16.5101 25.05 16.5101 26.11 16.5101 27.16C16.5101 28.92 16.3801 30.68 16.3301 32.45C16.3238 33.1022 16.0706 33.7278 15.6216 34.2009C15.1726 34.674 14.5611 34.9595 13.9101 35C12.7455 35.1157 11.5704 35.0652 10.4201 34.8499C9.69011 34.6799 9.08011 33.95 8.42011 33.45C8.29011 33.35 8.27011 33.09 8.14011 33.02C7.00011 32.42 6.93011 31.29 6.87011 30.19C6.82011 29.3 6.87011 28.4 6.87011 27.51C6.87011 26.62 6.63011 25.89 6.66011 25.09C6.71011 23.6 6.90011 22.09 7.00011 20.62C7.07011 19.7 7.06011 18.79 7.09011 17.87C7.09011 16.63 7.14011 15.39 7.22011 14.15C7.26855 13.4976 7.36211 12.8494 7.50011 12.21C7.56828 11.7318 7.45084 11.2458 7.17189 10.8515C6.89294 10.4573 6.47366 10.1848 6.00011 10.09C5.4942 9.89177 5.02454 9.61132 4.61011 9.25995C4.3252 8.92899 4.12165 8.53597 4.01573 8.1123C3.90981 7.68863 3.90446 7.24606 4.00011 6.81995C4.06393 5.86459 4.23158 4.91902 4.50011 3.99995C4.59898 3.58716 4.80426 3.20747 5.09551 2.89868C5.38675 2.58989 5.7538 2.36278 6.16011 2.23995C6.83957 2.0702 7.54113 2.00611 8.24011 2.04995C9.85011 1.99995 11.4501 1.99995 13.0501 1.99995C13.4567 1.99445 13.8565 2.10546 14.202 2.31988C14.5476 2.5343 14.8245 2.84315 15.0001 3.20995C15.0559 3.35569 15.141 3.48843 15.2501 3.59995C16.6901 4.84995 16.8101 6.48995 16.7101 8.23995C16.7371 8.87556 16.8174 9.50778 16.9501 10.13C16.9686 10.463 16.9686 10.7969 16.9501 11.13H17.2001C17.3201 10.55 17.4001 9.93995 17.5701 9.37995C17.754 8.79753 17.9952 8.23478 18.2901 7.69995C18.8777 6.40231 19.5983 5.16906 20.4401 4.01995C20.9767 3.30718 21.7028 2.75954 22.5355 2.43951C23.3683 2.11948 24.2743 2.03994 25.1501 2.20995C25.9601 2.36995 26.7901 2.43995 27.5801 2.66995C29.4982 3.24153 31.1346 4.50716 32.1701 6.21995C32.7763 7.1856 33.2663 8.21942 33.6301 9.29995C34.3001 11.23 34.1601 13.23 34.3001 15.2C34.4201 16.83 34.5301 18.46 34.5001 20.09C34.4701 21.72 34.2601 23.2799 34.1201 24.8799C34.0001 25.9999 34.0001 27.1299 33.8001 28.2299C33.6054 29.223 33.3037 30.192 32.9001 31.12C32.3082 32.6375 31.1852 33.8884 29.7401 34.6399C28.3411 35.4535 26.6791 35.6869 25.1101 35.29C23.104 34.6815 21.3361 33.4656 20.0501 31.8099C19.3864 31.1397 18.8117 30.3868 18.3401 29.57C17.8444 28.4163 17.4496 27.2218 17.1601 26C16.9701 25.33 16.8901 24.63 16.7601 23.94L16.5101 24ZM18.1301 20.2299H18.0101C18.2401 21.8999 18.4301 23.5799 18.6901 25.2299C19.0649 27.6312 20.3065 29.812 22.1801 31.36C22.9705 31.852 23.8792 32.1215 24.8101 32.1399C25.6427 32.3382 26.5146 32.2938 27.3227 32.012C28.1308 31.7302 28.8413 31.2228 29.3701 30.5499C30.5601 29.1199 30.6301 27.3399 30.8401 25.6299C31.0101 24.1999 31.0201 22.7499 31.1001 21.2999C31.1701 20.1599 31.3001 19.03 31.3001 17.89C31.3001 16.17 31.2301 14.46 31.1601 12.74C31.1601 11.74 31.0701 10.68 30.9601 9.65995C30.769 8.86087 30.4802 8.08838 30.1001 7.35995C29.6144 6.29216 28.8971 5.34592 28.0001 4.58995C27.0801 3.58995 25.7001 3.77995 24.4401 3.78995C23.9085 3.79293 23.3846 3.91694 22.9082 4.15259C22.4317 4.38823 22.0151 4.72931 21.6901 5.14995C20.1471 7.13601 19.1168 9.4714 18.6901 11.95C18.4177 13.6944 18.2607 15.4549 18.2201 17.22C18.0801 18.21 18.1301 19.2 18.1301 20.2V20.2299ZM8.11011 3.72995C7.85011 3.72995 7.58011 3.72995 7.32011 3.72995C6.40011 3.80995 6.16011 3.99995 5.90011 4.83995C5.66071 5.48278 5.5126 6.156 5.46011 6.83995C5.45313 7.39177 5.64478 7.9277 6.00011 8.34995C6.2575 8.59622 6.56206 8.78786 6.89547 8.91331C7.22887 9.03877 7.58422 9.09545 7.94011 9.07995C8.26011 9.07995 8.84011 9.41995 8.89011 9.67995C9.00699 10.5514 9.04381 11.4318 9.00011 12.31C9.00011 12.88 8.88011 13.45 8.86011 14.03C8.79011 16.22 8.77011 18.41 8.67011 20.6C8.67011 21.83 8.31011 23.06 8.33011 24.28C8.33011 26.48 8.55011 28.68 8.71011 30.87C8.7296 31.0061 8.77695 31.1367 8.84922 31.2537C8.92149 31.3707 9.01711 31.4716 9.13011 31.5499C9.60938 31.8669 10.1593 32.061 10.7314 32.115C11.3034 32.1691 11.8799 32.0815 12.4101 31.86C12.5982 31.7993 12.7642 31.6844 12.887 31.5295C13.0098 31.3747 13.0839 31.1869 13.1001 30.99C13.1901 30.31 13.2301 29.62 13.2601 28.99C13.3801 26.84 13.4801 24.69 13.6001 22.54C13.6501 21.54 13.7801 20.59 13.7801 19.62C13.7801 17.51 13.6801 15.41 13.6701 13.3C13.6701 12.4 13.8201 11.49 13.8201 10.59C13.8201 8.79995 13.7601 7.00995 13.7201 5.21995C13.7201 4.21995 13.2901 3.77995 12.2501 3.77995L8.11011 3.72995Z" fill="#0E2043"/>
<path d="M27.0899 13.5601C27.0899 15.3001 27.1899 17.0601 27.0899 18.8001C26.9499 20.8001 26.6199 22.7401 26.3399 24.7001C26.2699 25.2501 25.9699 25.8901 25.3899 25.7601C25.1148 25.6948 24.8567 25.5718 24.6327 25.3995C24.4086 25.2271 24.2236 25.0092 24.0899 24.7601C23.5759 23.6174 23.3297 22.3724 23.3699 21.1201C23.4999 19.2701 23.2799 17.4001 23.2999 15.5301C23.3541 14.6992 23.4881 13.8754 23.6999 13.0701C23.8478 12.2678 24.0482 11.4761 24.2999 10.7001C24.4259 10.2837 24.6688 9.91232 24.9999 9.63009C25.1435 9.5294 25.3112 9.46828 25.4859 9.45285C25.6607 9.43742 25.8364 9.46824 25.9955 9.5422C26.1545 9.61617 26.2914 9.73068 26.3922 9.87424C26.493 10.0178 26.5543 10.1854 26.5699 10.3601C26.7499 11.4201 26.8599 12.4801 26.9999 13.5501L27.0899 13.5601Z" fill="#0E2043"/>
<path d="M3.83996 42C3.5937 41.8942 3.37981 41.7252 3.21996 41.51C3.07825 41.304 3.00161 41.0601 2.99996 40.81C2.9896 40.707 2.9896 40.6031 2.99996 40.5C3.01786 40.4077 3.04465 40.3172 3.07996 40.23H4.07996C4.03904 40.3662 4.01881 40.5078 4.01996 40.65C4.01063 40.8587 4.08229 41.0629 4.21996 41.22C4.2917 41.2882 4.37657 41.3412 4.4694 41.3755C4.56223 41.4099 4.66109 41.4251 4.75996 41.42C4.88898 41.4224 5.01642 41.3914 5.12996 41.33C5.24431 41.2776 5.33891 41.19 5.39996 41.08C5.47022 40.9624 5.50495 40.827 5.49996 40.69C5.49952 40.5625 5.47227 40.4364 5.41996 40.32C5.36894 40.211 5.28949 40.1177 5.18996 40.05C5.08144 39.9842 4.95687 39.9496 4.82996 39.95H4.57996V39.23H4.80996C4.89138 39.2368 4.97328 39.2251 5.0495 39.1956C5.12572 39.1662 5.19426 39.1198 5.24996 39.06C5.3451 38.9412 5.39474 38.7922 5.38996 38.64C5.39313 38.5356 5.369 38.4322 5.31996 38.34C5.27373 38.2439 5.19614 38.1663 5.09996 38.12C5.005 38.0469 4.88971 38.005 4.76996 38C4.65341 37.9962 4.53841 38.0275 4.43996 38.09C4.34589 38.1392 4.26912 38.216 4.21996 38.31C4.1709 38.4094 4.14687 38.5193 4.14996 38.63C4.13702 38.7129 4.13702 38.7972 4.14996 38.88H3.14996C3.1323 38.7607 3.1323 38.6394 3.14996 38.52C3.14562 38.2907 3.2158 38.0661 3.34996 37.88C3.50179 37.6717 3.70508 37.5063 3.93996 37.4C4.20243 37.2764 4.48985 37.2148 4.77996 37.22C5.06222 37.2182 5.34168 37.2761 5.59996 37.39C5.83124 37.493 6.0313 37.6551 6.17996 37.86C6.31732 38.0526 6.39077 38.2835 6.38996 38.52C6.39444 38.7451 6.33553 38.9669 6.21996 39.16C6.11541 39.3385 5.95316 39.4761 5.75996 39.55V39.55C5.90589 39.6007 6.039 39.6826 6.14996 39.79C6.26783 39.9082 6.36277 40.0472 6.42996 40.2C6.50126 40.3779 6.5353 40.5685 6.52996 40.76C6.52878 41.0179 6.4485 41.2692 6.29996 41.48C6.13225 41.6956 5.91184 41.8644 5.65996 41.97C5.37225 42.092 5.06245 42.1533 4.74996 42.15C4.43938 42.1658 4.12904 42.1147 3.83996 42V42Z" fill="#161449"/>
<path d="M11.0001 41.1099C11.096 40.747 11.153 40.3749 11.1701 39.9999V38.9999C11.1902 38.758 11.1417 38.5154 11.0301 38.2999C10.9977 38.2158 10.9418 38.1429 10.8691 38.0897C10.7964 38.0365 10.71 38.0053 10.6201 37.9999C10.5494 38.001 10.4799 38.0188 10.4174 38.0519C10.3548 38.0849 10.3009 38.1321 10.2601 38.1899C10.1633 38.3527 10.118 38.5409 10.1301 38.7299V40.7299H9.20008V38.7299C9.20913 38.5399 9.16032 38.3516 9.06008 38.1899C9.02181 38.1296 8.96847 38.0804 8.90533 38.0471C8.84219 38.0137 8.77144 37.9975 8.70008 37.9999C8.61784 37.9995 8.53708 38.0217 8.46656 38.064C8.39604 38.1063 8.33846 38.1671 8.30008 38.2399C8.18787 38.4518 8.13598 38.6905 8.15008 38.9299V39.9299C8.15458 40.3205 8.20152 40.7094 8.29008 41.0899C8.35335 41.4382 8.46793 41.7752 8.63008 42.0899H7.63008C7.52784 41.9122 7.44407 41.7246 7.38008 41.5299C7.30616 41.28 7.24607 41.0263 7.20008 40.7699C7.1602 40.4917 7.14015 40.211 7.14008 39.9299V38.9999C7.13195 38.6923 7.19708 38.3873 7.33008 38.1099C7.43492 37.8663 7.60966 37.6594 7.83217 37.5152C8.05468 37.371 8.31497 37.2961 8.58008 37.2999C8.80988 37.2982 9.03655 37.3532 9.24008 37.4599C9.42709 37.5672 9.57441 37.732 9.66008 37.9299V37.9299C9.74835 37.7305 9.89935 37.5655 10.0901 37.4599C10.3078 37.3465 10.5513 37.2915 10.7967 37.3002C11.0421 37.309 11.281 37.3812 11.4901 37.5099C11.7148 37.6516 11.8923 37.857 12.0001 38.0999C12.1325 38.381 12.1975 38.6892 12.1901 38.9999V39.9999C12.1916 40.2814 12.1682 40.5625 12.1201 40.8399C12.0836 41.0982 12.0234 41.3526 11.9401 41.5999C11.8847 41.7978 11.8005 41.9865 11.6901 42.1599H10.6901C10.8405 41.8255 10.9447 41.4723 11.0001 41.1099V41.1099Z" fill="#161449"/>
<path d="M16.4999 41.3201C16.574 41.0497 16.6111 40.7705 16.6099 40.4901C16.624 40.2679 16.5755 40.0461 16.4699 39.8501C16.4317 39.786 16.3776 39.733 16.3127 39.6962C16.2478 39.6593 16.1745 39.64 16.0999 39.6401C16.0363 39.6376 15.9732 39.6521 15.9169 39.6819C15.8607 39.7118 15.8134 39.756 15.7799 39.8101C15.6922 39.9506 15.6503 40.1148 15.6599 40.2801V41.2801H14.7599V40.2801C14.7725 40.1159 14.7341 39.9517 14.6499 39.8101C14.6171 39.7553 14.57 39.7105 14.5136 39.6805C14.4572 39.6505 14.3937 39.6366 14.3299 39.6401C14.2573 39.6388 14.1856 39.6555 14.121 39.6886C14.0565 39.7218 14.0011 39.7704 13.9599 39.8301C13.8543 40.0262 13.8058 40.2479 13.8199 40.4701C13.8188 41.0398 13.9708 41.5993 14.2599 42.0901H13.2599C13.1017 41.8365 12.9836 41.5599 12.9099 41.2701C12.8126 40.8812 12.7688 40.4809 12.7799 40.0801C12.7554 39.7761 12.7915 39.4702 12.8859 39.1801C12.9803 38.89 13.1312 38.6215 13.3299 38.3901C13.7226 38.0126 14.2218 37.7648 14.7599 37.6801L15.3199 37.5701C15.3991 37.5561 15.4763 37.5326 15.5499 37.5001C15.6044 37.4729 15.6471 37.4266 15.6699 37.3701H16.6699C16.6556 37.6061 16.5519 37.8278 16.3799 37.9901C16.1583 38.1733 15.8863 38.2849 15.5999 38.3101L15.0399 38.3901C14.6925 38.4354 14.3548 38.5367 14.0399 38.6901C13.9141 38.7475 13.8035 38.8334 13.7167 38.9411C13.6299 39.0487 13.5694 39.175 13.5399 39.3101V39.3101C13.6609 39.1655 13.8204 39.058 13.9999 39.0001C14.1378 38.9359 14.2878 38.9018 14.4399 38.9001C14.6131 38.9003 14.7828 38.9487 14.9299 39.0401C15.0796 39.1463 15.1972 39.2916 15.2699 39.4601C15.3615 39.2823 15.5043 39.136 15.6799 39.0401C15.8676 38.9412 16.0778 38.893 16.2899 38.9001C16.5317 38.8982 16.7698 38.9603 16.9799 39.0801C17.1923 39.2072 17.3654 39.3907 17.4799 39.6101C17.6059 39.8647 17.6677 40.1462 17.6599 40.4301C17.6646 40.7443 17.6242 41.0575 17.5399 41.3601C17.456 41.621 17.3383 41.8698 17.1899 42.1001H16.1899C16.3187 41.851 16.4225 41.5897 16.4999 41.3201V41.3201Z" fill="#161449"/>
<path d="M18.9199 42.0001C18.6787 41.8902 18.4715 41.7175 18.3199 41.5001C18.1775 41.2726 18.1045 41.0085 18.1099 40.7401C18.1129 40.6105 18.1365 40.4823 18.1799 40.3601H19.1799C19.1678 40.4598 19.1678 40.5605 19.1799 40.6601C19.1776 40.7923 19.2086 40.923 19.2699 41.0401C19.3252 41.1467 19.408 41.2365 19.5099 41.3001C19.6234 41.3614 19.7509 41.3924 19.8799 41.3901C19.9808 41.398 20.0822 41.3823 20.176 41.3441C20.2697 41.3059 20.3532 41.2463 20.4199 41.1701C20.5561 41.0049 20.6241 40.7938 20.6099 40.5801V39.5801C20.6124 39.4393 20.5851 39.2996 20.5299 39.1701C20.4775 39.0589 20.3942 38.9652 20.2899 38.9001C20.1835 38.8391 20.0625 38.808 19.9399 38.8101C19.8277 38.8047 19.7164 38.8325 19.6199 38.8901C19.5319 38.9361 19.4616 39.01 19.4199 39.1001C19.3721 39.1856 19.3479 39.2822 19.3499 39.3801C19.3418 39.4532 19.3418 39.527 19.3499 39.6001H18.3499C18.263 39.2655 18.2984 38.9109 18.4499 38.6001C18.5425 38.4171 18.6891 38.267 18.8699 38.1701C19.0707 38.0564 19.2993 38.001 19.5299 38.0101C19.7406 38.0056 19.9494 38.0501 20.1399 38.1401C20.3084 38.2128 20.4538 38.3304 20.5599 38.4801V37.3701H21.5599V40.6801C21.5662 40.972 21.4899 41.2597 21.3399 41.5101C21.1872 41.7391 20.972 41.9196 20.7199 42.0301C20.4274 42.1466 20.1147 42.2044 19.7999 42.2001C19.4962 42.1925 19.1971 42.1245 18.9199 42.0001V42.0001Z" fill="#161449"/>
<path d="M23.08 42C22.816 41.8667 22.5943 41.6624 22.44 41.41C22.3026 41.1513 22.2307 40.8629 22.2307 40.57C22.2307 40.2771 22.3026 39.9886 22.44 39.73C22.5632 39.4984 22.7508 39.3074 22.98 39.18C23.1887 39.0616 23.4222 38.9937 23.6618 38.9815C23.9013 38.9694 24.1405 39.0134 24.36 39.11C24.5311 39.1881 24.6767 39.3129 24.78 39.47V38.63C24.7868 38.4726 24.7487 38.3165 24.67 38.18C24.6369 38.1285 24.5908 38.0867 24.5364 38.0586C24.482 38.0305 24.4212 38.0172 24.36 38.02C24.3035 38.018 24.2473 38.0286 24.1954 38.0511C24.1434 38.0736 24.0972 38.1074 24.06 38.15C23.99 38.2377 23.9545 38.3479 23.96 38.46V38.61H23.06V38.47C23.06 38.22 22.92 38.09 22.63 38.09H22.29V37.3H22.73C22.9043 37.2957 23.0767 37.3371 23.23 37.42C23.3714 37.5031 23.4779 37.6345 23.53 37.79V37.79C23.6137 37.6182 23.7505 37.478 23.92 37.39C24.1173 37.2979 24.3324 37.2502 24.55 37.2502C24.7677 37.2502 24.9828 37.2979 25.18 37.39C25.3683 37.487 25.5246 37.6363 25.63 37.82C25.7365 38.0304 25.7881 38.2643 25.78 38.5V40.5C25.7869 40.7982 25.7107 41.0925 25.56 41.35C25.4406 41.6166 25.246 41.8425 25 42C24.7085 42.1455 24.3858 42.2176 24.06 42.21C23.7211 42.2217 23.3844 42.1496 23.08 42ZM24.43 41.32C24.545 41.2469 24.641 41.1475 24.71 41.03C24.7794 40.8975 24.8138 40.7495 24.81 40.6C24.8151 40.4472 24.7806 40.2956 24.71 40.16C24.6469 40.0356 24.5498 39.9316 24.43 39.86C24.3052 39.7896 24.1633 39.755 24.02 39.76C23.8831 39.755 23.7477 39.7897 23.63 39.86C23.5103 39.9316 23.4132 40.0356 23.35 40.16C23.2871 40.2979 23.2563 40.4484 23.26 40.6C23.2578 40.7482 23.2885 40.8951 23.35 41.03C23.4164 41.1495 23.5129 41.2495 23.63 41.32C23.7458 41.3954 23.8819 41.4338 24.02 41.43C24.1657 41.4324 24.3087 41.3905 24.43 41.31V41.32Z" fill="#161449"/>
<path d="M30.44 41.11C30.5255 40.7459 30.5724 40.3739 30.58 40V39C30.5976 38.7571 30.5455 38.5143 30.43 38.3C30.3986 38.2113 30.3403 38.1347 30.2632 38.0809C30.186 38.0271 30.094 37.9988 30 38C29.9306 38.0011 29.8626 38.0189 29.8016 38.052C29.7407 38.0851 29.6886 38.1324 29.65 38.19C29.5497 38.3516 29.5009 38.5399 29.51 38.73V40.73H28.6V38.73C28.6085 38.5413 28.5634 38.3541 28.47 38.19C28.4287 38.1302 28.3734 38.0816 28.3088 38.0485C28.2443 38.0153 28.1725 37.9987 28.1 38C28.0179 38.0007 27.9376 38.0233 27.8673 38.0655C27.7969 38.1077 27.7392 38.1679 27.7 38.24C27.5877 38.4519 27.5359 38.6906 27.55 38.93V39.93C27.5544 40.3206 27.6014 40.7095 27.69 41.09C27.7561 41.4389 27.8741 41.776 28.04 42.09H27C26.8977 41.9123 26.8139 41.7247 26.75 41.53C26.6748 41.2811 26.618 41.0271 26.58 40.77C26.5318 40.4926 26.5084 40.2115 26.51 39.93V39C26.5018 38.6924 26.567 38.3874 26.7 38.11C26.8113 37.8637 26.992 37.6552 27.22 37.51C27.4375 37.3699 27.6913 37.2969 27.95 37.3C28.1798 37.2983 28.4064 37.3533 28.61 37.46C28.797 37.5673 28.9443 37.7321 29.03 37.93C29.1095 37.7283 29.2584 37.5616 29.45 37.46C29.6504 37.3545 29.8735 37.2995 30.1 37.3C30.365 37.2959 30.6255 37.3689 30.85 37.51C31.075 37.6542 31.2552 37.8586 31.37 38.1C31.4959 38.3829 31.5574 38.6903 31.55 39V40C31.5499 40.281 31.5298 40.5617 31.49 40.84C31.444 41.0964 31.3839 41.3501 31.31 41.6C31.246 41.7947 31.1622 41.9823 31.06 42.16H30.06C30.2394 41.8314 30.3676 41.4773 30.44 41.11V41.11Z" fill="#161449"/>
<path d="M32.9999 42.0001C32.7507 41.8947 32.531 41.7299 32.3599 41.5201C32.2015 41.3138 32.117 41.0602 32.12 40.8001C32.1189 40.6358 32.1494 40.4728 32.2099 40.3201H33.2099C33.2062 40.3834 33.2062 40.4468 33.2099 40.5101C33.2045 40.58 33.2045 40.6502 33.2099 40.7201C33.2063 40.8412 33.2413 40.9603 33.3099 41.0601C33.3735 41.1619 33.4633 41.2448 33.5699 41.3001C33.6835 41.3614 33.8109 41.3924 33.9399 41.3901C34.0656 41.3911 34.1895 41.3602 34.2999 41.3001C34.402 41.2379 34.4877 41.1522 34.5499 41.0501C34.611 40.9437 34.6421 40.8227 34.6399 40.7001C34.6406 40.5692 34.6133 40.4396 34.5599 40.3201C34.5089 40.2111 34.4295 40.1178 34.3299 40.0501C34.2169 39.9874 34.0891 39.9563 33.9599 39.9601H33.6699V39.1901H34.0799C34.1955 39.1976 34.3106 39.1697 34.4099 39.1101C34.4458 39.0838 34.4746 39.049 34.4938 39.0089C34.513 38.9688 34.522 38.9245 34.5199 38.8801C34.523 38.8117 34.5018 38.7443 34.4599 38.6901C34.4113 38.6304 34.3497 38.5826 34.2799 38.5501L33.9999 38.4501C33.7338 38.3586 33.4937 38.2042 33.2999 38.0001C33.1355 37.8193 33.0431 37.5845 33.04 37.3401H34.04C34.0608 37.4482 34.1215 37.5445 34.2099 37.6101C34.293 37.6743 34.3837 37.728 34.4799 37.7701L34.6599 37.8501C34.8017 37.9098 34.9387 37.98 35.0699 38.0601C35.1795 38.1365 35.2716 38.2353 35.3399 38.3501C35.4161 38.4876 35.4541 38.643 35.4499 38.8001C35.4507 38.9702 35.3944 39.1358 35.29 39.2701C35.1773 39.4127 35.0238 39.5173 34.8499 39.5701V39.5701C34.9878 39.6157 35.1141 39.6908 35.22 39.7901C35.3452 39.9002 35.4443 40.0368 35.5099 40.1901C35.5839 40.364 35.6213 40.5512 35.6199 40.7401C35.6236 41.0049 35.5431 41.264 35.3899 41.4801C35.2304 41.6979 35.0166 41.8703 34.7699 41.9801C34.2043 42.213 33.5708 42.2202 32.9999 42.0001V42.0001Z" fill="#161449"/>
<path d="M38.61 41.1499C38.678 40.767 38.7115 40.3788 38.71 39.9899V39.0599C38.7248 38.7977 38.6622 38.5369 38.53 38.3099C38.4702 38.2233 38.3903 38.1525 38.2971 38.1035C38.2039 38.0546 38.1003 38.0291 37.995 38.0291C37.8898 38.0291 37.7861 38.0546 37.6929 38.1035C37.5997 38.1525 37.5198 38.2233 37.46 38.3099C37.3278 38.5369 37.2652 38.7977 37.28 39.0599V39.9999C37.2789 40.3855 37.3124 40.7703 37.38 41.1499C37.4268 41.4913 37.5106 41.8266 37.63 42.1499H36.63C36.4995 41.8489 36.4055 41.5333 36.35 41.2099C36.2789 40.8138 36.2421 40.4123 36.24 40.0099V38.9999C36.2239 38.6506 36.3071 38.3039 36.48 37.9999C36.6255 37.7426 36.8403 37.5312 37.1 37.3899C37.3779 37.2509 37.6843 37.1785 37.995 37.1785C38.3057 37.1785 38.6121 37.2509 38.89 37.3899C39.1531 37.5346 39.3711 37.7492 39.52 38.0099C39.6823 38.3176 39.7616 38.6622 39.75 39.0099V39.9999C39.7479 40.4023 39.7111 40.8038 39.64 41.1999C39.5835 41.5242 39.4861 41.8401 39.35 42.1399H38.35C38.4836 41.8241 38.5712 41.4907 38.61 41.1499V41.1499Z" fill="#161449"/>
</g>
<defs>
<clipPath id="clip0_17_24">
<rect width="36.75" height="40.2" fill="white" transform="translate(3 2)"/>
</clipPath>
</defs>
</svg>
