<svg width="43" height="45" viewBox="0 0 43 45" fill="none" xmlns="http://www.w3.org/2000/svg">
<g clip-path="url(#clip0_17_24)">
<path d="M20.5601 27.9101C20.2292 29.7105 19.5091 31.417 18.4501 32.9101C17.3916 34.1885 15.9331 35.0728 14.3101 35.4201C13.0254 35.6819 11.6899 35.5022 10.5201 34.9101C9.53488 34.4375 8.62773 33.817 7.83008 33.0701C7.20727 32.5335 6.63488 31.9411 6.12008 31.3001C5.34567 30.4346 4.76898 29.4109 4.43008 28.3001C4.01302 26.7963 3.67918 25.2707 3.43008 23.7301C2.89505 20.6297 2.89505 17.4605 3.43008 14.3601C3.56008 13.6701 3.43008 12.9501 3.57008 12.2601C3.65272 11.2171 3.86778 10.1888 4.21008 9.20011C4.944 7.61071 5.76869 6.06483 6.68008 4.57011C7.06075 3.92071 7.58478 3.36688 8.21217 2.95093C8.83956 2.53498 9.55371 2.26791 10.3001 2.17011C11.5231 1.988 12.772 2.10466 13.9401 2.51011C15.0624 2.84402 16.104 3.40514 17.0003 4.15863C17.8966 4.91212 18.6283 5.84187 19.1501 6.89011C19.5201 7.65011 19.9101 8.40011 20.2501 9.07011C20.7101 7.96011 21.0901 6.74011 21.6801 5.63011C22.2184 4.53354 22.916 3.5226 23.7501 2.63011C24.7103 1.72713 25.9548 1.18623 27.2701 1.10011C28.5624 0.950027 29.8678 0.950027 31.1601 1.10011C32.8792 1.28433 34.4944 2.01311 35.7701 3.18011C36.909 4.18408 37.8019 5.43629 38.3801 6.84011C39.2536 8.81448 39.5982 10.9822 39.3801 13.1301C39.2038 13.8428 38.8279 14.4904 38.2965 14.9969C37.7652 15.5035 37.1003 15.848 36.3801 15.9901C36.3113 16.0207 36.2473 16.0612 36.1901 16.1101C36.2401 16.1901 36.2601 16.3001 36.3201 16.3201C37.0691 16.6561 37.712 17.1905 38.1791 17.8656C38.6462 18.5407 38.9197 19.3307 38.9701 20.1501C39.2809 22.5551 39.4578 24.9755 39.5001 27.4001C39.4013 28.6062 39.118 29.79 38.6601 30.9101C38.4374 31.6266 38.0996 32.3021 37.6601 32.9101C37.0333 33.7251 36.3374 34.4846 35.5801 35.1801C35.1207 35.6193 34.5762 35.9596 33.9801 36.1801C33.2892 36.3732 32.5772 36.4807 31.8601 36.5001C31.4301 36.5001 31.0001 36.5001 30.5701 36.5001C28.8001 36.6901 27.3001 35.8601 25.8501 35.0801C24.6573 34.3501 23.5357 33.5098 22.5001 32.5701C22.2201 32.3401 22.1401 31.8901 21.9601 31.5701C21.781 31.3313 21.6238 31.077 21.4901 30.8101C21.2301 30.1201 21.0101 29.4101 20.8001 28.7001C20.6701 28.5301 20.6401 28.2801 20.5601 27.9101ZM21.8401 24.6301C21.8512 26.7031 22.3082 28.7494 23.1801 30.6301C23.4663 31.2 23.873 31.7009 24.3721 32.098C24.8711 32.4952 25.4505 32.7791 26.0701 32.9301C26.9343 33.1836 27.8223 33.3478 28.7201 33.4201C29.6267 33.5914 30.5611 33.5427 31.445 33.2782C32.3289 33.0137 33.1365 32.5412 33.8001 31.9001C34.8112 30.9626 35.4948 29.7252 35.7501 28.3701C35.9453 27.2563 36.0623 26.1302 36.1001 25.0001C36.1169 23.7074 36.0534 22.4149 35.9101 21.1301C35.8256 20.3002 35.6165 19.4878 35.2901 18.7201C34.8343 17.7981 34.2631 16.9379 33.5901 16.1601C32.2501 14.4901 29.6501 14.7201 28.2401 15.4901C27.9701 15.6401 27.4501 15.7801 27.3101 15.6401C26.9384 15.3503 26.6945 14.927 26.6301 14.4601C26.5665 13.5148 26.6923 12.5662 27.0001 11.6701C27.3401 10.8401 27.4801 9.93011 27.7401 9.07011C27.8653 8.64697 28.1008 8.26472 28.4224 7.9625C28.7439 7.66027 29.14 7.44893 29.5701 7.35011C30.0494 7.32863 30.5246 7.44663 30.9381 7.68979C31.3517 7.93296 31.6858 8.29086 31.9001 8.72011C32.1074 9.43154 32.2645 10.1567 32.3701 10.8901C32.5801 12.1801 32.9601 13.1001 34.6301 12.6901C34.9701 12.6101 35.3101 12.5001 35.6301 12.4101C36.4701 12.1701 36.7001 11.8301 36.5501 10.9501C36.4001 10.0701 36.1601 9.22011 36.0601 8.35011C35.8473 7.19865 35.3678 6.113 34.6601 5.18011C34.4301 4.84011 34.3001 4.33011 33.9801 4.18011C32.9664 3.47691 31.7954 3.03389 30.5701 2.89011C29.4744 2.82507 28.3758 2.82507 27.2801 2.89011C26.6996 2.92985 26.1336 3.08889 25.6174 3.35731C25.1012 3.62573 24.646 3.99775 24.2801 4.45011C23.1854 5.71379 22.4043 7.21784 22.0001 8.84011C21.7198 10.3609 21.5294 11.8969 21.4301 13.4401C21.4128 14.1076 21.4362 14.7755 21.5001 15.4401C21.5501 17.1601 21.5801 18.8801 21.6501 20.6001C21.6901 22.0001 21.7801 23.4001 21.8401 24.6301ZM4.74008 20.2701H4.62008C4.84008 21.9001 5.05008 23.5301 5.29008 25.1601C5.64961 27.5937 6.90056 29.8069 8.80008 31.3701C9.57116 31.8454 10.4545 32.1077 11.3601 32.1301C12.1986 32.3516 13.0834 32.3249 13.907 32.0533C14.7307 31.7817 15.4578 31.2769 16.0001 30.6001C17.2301 29.1601 17.3001 27.3601 17.5101 25.6001C17.6701 24.1701 17.6801 22.7101 17.7701 21.2701C17.8401 20.1701 17.9801 19.0801 17.9801 17.9901C17.9801 16.2501 17.8901 14.5101 17.8201 12.7701C17.8201 11.7701 17.7401 10.7101 17.6401 9.68011C17.4445 8.85858 17.1525 8.06305 16.7701 7.31011C16.3301 6.11011 15.3401 5.45011 14.6201 4.53011C14.0701 3.82011 13.1201 3.87011 12.2901 3.76011C11.5672 3.59543 10.8132 3.63033 10.1086 3.86107C9.40408 4.09182 8.77548 4.50973 8.29008 5.07011C6.69761 7.08359 5.64139 9.46781 5.22008 12.0001C4.94816 13.7681 4.79117 15.5518 4.75008 17.3401C4.69008 18.2801 4.74008 19.2801 4.74008 20.2701ZM30.8601 13.0001L30.4901 11.5201H30.3401L30.0001 12.9201L30.8601 13.0001Z" fill="#0E2043"/>
<path d="M31.37 24.27C31.37 24.75 31.37 25.27 31.37 25.71C31.28 27 30 28.24 28.92 27.66C28.5021 27.4731 28.1299 27.1974 27.8294 26.8519C27.5289 26.5065 27.3073 26.0998 27.18 25.66C26.851 24.6135 26.752 23.5083 26.89 22.42C26.9151 22.0595 27.0173 21.7087 27.1899 21.3912C27.3624 21.0737 27.6012 20.7971 27.89 20.58C28.2432 20.3856 28.6557 20.3281 29.0486 20.4185C29.4415 20.5088 29.7873 20.7408 30.02 21.07C30.7908 21.971 31.2626 23.0892 31.37 24.27V24.27Z" fill="#0E2043"/>
<path d="M13.7001 13.4701C13.7001 15.2201 13.8001 16.9801 13.7001 18.7201C13.5601 20.7201 13.2401 22.7201 12.9601 24.7201C12.8801 25.3001 12.5701 25.9501 11.9601 25.8001C11.6866 25.7138 11.4342 25.5714 11.219 25.382C11.0037 25.1926 10.8304 24.9603 10.7101 24.7001C10.1962 23.5682 9.95306 22.3322 10.0001 21.0901C10.1201 19.2301 9.91007 17.3601 9.93007 15.4901C9.96101 14.6503 10.0783 13.8159 10.2801 13.0001C10.4487 12.1888 10.6624 11.3876 10.9201 10.6001C11.0901 10.0601 11.3201 9.51006 12.0501 9.47006C12.7801 9.43006 13.0501 9.67006 13.1901 10.3101C13.3601 11.3101 13.4801 12.3901 13.6201 13.4301L13.7001 13.4701Z" fill="#0E2043"/>
<path d="M3.83997 43.49C3.59443 43.383 3.38083 43.2142 3.21997 43C3.06923 42.7871 2.99199 42.5308 2.99997 42.27C2.99285 42.1802 2.99285 42.0899 2.99997 42C3.01462 41.9069 3.04152 41.8161 3.07997 41.73H4.07997C4.03835 41.8695 4.01812 42.0145 4.01997 42.16C4.01007 42.3658 4.08197 42.5671 4.21997 42.72C4.29026 42.7903 4.3749 42.8445 4.4681 42.879C4.56131 42.9136 4.66086 42.9275 4.75997 42.92C4.88811 42.9254 5.0155 42.8979 5.12997 42.84C5.24217 42.7844 5.33592 42.6976 5.39997 42.59C5.47023 42.4724 5.50496 42.3369 5.49997 42.2C5.49839 42.0693 5.47121 41.9402 5.41997 41.82C5.37164 41.7119 5.29138 41.6212 5.18997 41.56C5.08338 41.4898 4.95747 41.4549 4.82997 41.46H4.57997V40.7H4.80997C4.89119 40.7047 4.97248 40.692 5.04838 40.6627C5.12427 40.6333 5.19301 40.5881 5.24997 40.53C5.34361 40.4065 5.39293 40.255 5.38997 40.1C5.39314 39.9956 5.36901 39.8922 5.31997 39.8C5.26804 39.708 5.19197 39.6319 5.09997 39.58C4.99866 39.5255 4.88501 39.4979 4.76997 39.5C4.65492 39.4979 4.54127 39.5255 4.43997 39.58C4.34519 39.6328 4.26853 39.713 4.21997 39.81C4.17094 39.9058 4.14686 40.0124 4.14997 40.12C4.13703 40.2028 4.13703 40.2872 4.14997 40.37H3.14997C3.13171 40.2507 3.13171 40.1293 3.14997 40.01C3.14704 39.7809 3.21709 39.5567 3.34997 39.37C3.5024 39.1647 3.70577 39.0027 3.93997 38.9C4.20278 38.7773 4.48996 38.7158 4.77997 38.72C5.0627 38.7133 5.34322 38.7714 5.59997 38.89C5.83266 38.9858 6.03366 39.1453 6.17997 39.35C6.31732 39.5426 6.39078 39.7734 6.38997 40.01C6.39472 40.2383 6.33586 40.4633 6.21997 40.66C6.11197 40.8333 5.9505 40.9667 5.75997 41.04V41.04C5.9071 41.083 6.04116 41.1621 6.14997 41.27C6.26459 41.3909 6.35912 41.5293 6.42997 41.68C6.50047 41.8581 6.53447 42.0485 6.52997 42.24C6.54097 42.512 6.45994 42.7798 6.29997 43C6.13287 43.2186 5.91252 43.3908 5.65997 43.5C5.37153 43.6186 5.06176 43.6765 4.74997 43.67C4.4372 43.6763 4.12678 43.6149 3.83997 43.49V43.49Z" fill="#161449"/>
<path d="M11.0001 42.5699C11.0941 42.1905 11.1411 41.8009 11.1401 41.4099V40.4099C11.1542 40.1685 11.106 39.9274 11.0001 39.7099C10.9572 39.6397 10.8969 39.5816 10.8251 39.5413C10.7533 39.501 10.6724 39.4799 10.5901 39.4799C10.5187 39.4775 10.448 39.4938 10.3848 39.5271C10.3217 39.5604 10.2683 39.6097 10.2301 39.6699C10.1309 39.8317 10.0854 40.0207 10.1001 40.2099V42.2099H9.20005V40.2099C9.21246 40.0196 9.16338 39.8303 9.06005 39.6699C9.02255 39.6089 8.96935 39.5591 8.90603 39.5257C8.84271 39.4923 8.77157 39.4765 8.70005 39.4799C8.61782 39.4796 8.53705 39.5018 8.46653 39.5441C8.39601 39.5864 8.33843 39.6472 8.30005 39.7199C8.18768 39.9282 8.13572 40.1637 8.15005 40.3999V41.3999C8.15399 41.7906 8.20094 42.1796 8.29005 42.5599C8.3517 42.9087 8.46636 43.2459 8.63005 43.5599H7.63005C7.52241 43.3838 7.43519 43.1959 7.37005 42.9999C7.29501 42.7504 7.23491 42.4966 7.19005 42.2399C7.15054 41.965 7.13049 41.6877 7.13005 41.4099V40.4099C7.12394 40.1004 7.18536 39.7933 7.31005 39.5099C7.42484 39.2685 7.60499 39.0641 7.83005 38.9199C8.05137 38.7802 8.30832 38.7073 8.57005 38.7099C8.80014 38.7057 9.02744 38.7608 9.23005 38.8699C9.42103 38.9723 9.56976 39.1387 9.65005 39.3399V39.3399C9.7313 39.1361 9.88422 38.9689 10.0801 38.8699C10.2756 38.7612 10.4964 38.706 10.7201 38.7099C10.9869 38.7059 11.2498 38.7751 11.4801 38.9099C11.7025 39.0543 11.8794 39.2589 11.9901 39.4999C12.124 39.7841 12.1891 40.0959 12.1801 40.4099V41.4099C12.1812 41.6881 12.1577 41.9659 12.1101 42.2399C12.0978 42.4962 12.061 42.7507 12.0001 42.9999C11.946 43.1984 11.8617 43.3872 11.7501 43.5599H10.7501C10.8805 43.2437 10.9647 42.9102 11.0001 42.5699V42.5699Z" fill="#161449"/>
<path d="M16.5 42.7901C16.5742 42.5163 16.6112 42.2337 16.61 41.9501C16.6226 41.728 16.5742 41.5066 16.47 41.3101C16.4319 41.246 16.3777 41.1929 16.3128 41.1561C16.2479 41.1193 16.1746 41.1 16.1 41.1001C16.0369 41.1004 15.9748 41.116 15.9191 41.1456C15.8633 41.1753 15.8156 41.218 15.78 41.2701C15.6935 41.411 15.6517 41.5749 15.66 41.7401V42.7401H14.76V41.7401C14.7728 41.5726 14.7344 41.4053 14.65 41.2601C14.6157 41.2067 14.5683 41.163 14.5123 41.1332C14.4562 41.1034 14.3935 41.0886 14.33 41.0901C14.2566 41.0899 14.1842 41.1081 14.1196 41.143C14.0549 41.1779 14.0001 41.2285 13.96 41.2901C13.8517 41.4851 13.8031 41.7076 13.82 41.9301C13.8188 42.4966 13.9708 43.0529 14.26 43.5401H13.26C13.1018 43.2864 12.9837 43.0098 12.91 42.7201C12.8126 42.3346 12.7688 41.9375 12.78 41.5401C12.7545 41.2359 12.7899 40.9298 12.8844 40.6395C12.9788 40.3493 13.1304 40.0809 13.33 39.8501C13.7191 39.4656 14.2195 39.2137 14.76 39.1301L15.32 39.0301C15.3997 39.0129 15.4769 38.986 15.55 38.9501C15.5779 38.9379 15.603 38.92 15.6237 38.8977C15.6443 38.8753 15.6601 38.8489 15.67 38.8201H16.67C16.6516 39.0579 16.5487 39.2814 16.38 39.4501C16.1572 39.6296 15.8853 39.7377 15.6 39.7601L15.04 39.8501C14.6942 39.8971 14.3573 39.9948 14.04 40.1401C13.9151 40.1987 13.8052 40.285 13.7186 40.3925C13.632 40.4999 13.5709 40.6256 13.54 40.7601V40.7601C13.635 40.6244 13.7621 40.5145 13.91 40.4401C14.0495 40.3805 14.1985 40.3467 14.35 40.3401C14.5248 40.3391 14.6957 40.3914 14.84 40.4901C14.9934 40.5878 15.1123 40.7312 15.18 40.9001V40.9001C15.2761 40.7255 15.4178 40.5803 15.59 40.4801C15.7795 40.3859 15.9885 40.3379 16.2 40.3401C16.4453 40.3397 16.6859 40.4066 16.8958 40.5336C17.1056 40.6605 17.2766 40.8427 17.39 41.0601C17.5148 41.3115 17.5766 41.5895 17.57 41.8701C17.5755 42.1875 17.535 42.5041 17.45 42.8101C17.3703 43.0694 17.2523 43.3155 17.1 43.5401H16.1C16.2586 43.3043 16.3926 43.053 16.5 42.7901V42.7901Z" fill="#161449"/>
<path d="M18.92 43.4901C18.6751 43.3862 18.4664 43.2122 18.32 42.9901C18.1789 42.7657 18.106 42.5051 18.11 42.2401C18.1121 42.1104 18.1358 41.982 18.18 41.8601H19.18C19.1679 41.9597 19.1679 42.0604 19.18 42.1601C19.1777 42.2891 19.2087 42.4165 19.27 42.5301C19.3253 42.6367 19.4082 42.7265 19.51 42.7901C19.6236 42.8514 19.751 42.8824 19.88 42.8801C19.98 42.8877 20.0804 42.8728 20.1739 42.8365C20.2674 42.8001 20.3515 42.7433 20.42 42.6701C20.5552 42.5003 20.6228 42.2867 20.61 42.0701V41.0001C20.6106 40.8595 20.5834 40.7202 20.53 40.5901C20.4723 40.4825 20.39 40.3901 20.29 40.3201C20.1836 40.2591 20.0627 40.228 19.94 40.2301C19.8283 40.2292 19.7182 40.2568 19.62 40.3101C19.5341 40.3588 19.4645 40.4319 19.42 40.5201C19.3722 40.6055 19.348 40.7022 19.35 40.8001C19.3455 40.8733 19.3455 40.9468 19.35 41.0201H18.35C18.3336 40.9073 18.3336 40.7928 18.35 40.6801C18.3442 40.465 18.3924 40.2518 18.49 40.0601C18.5826 39.8771 18.7292 39.7269 18.91 39.6301C19.1126 39.521 19.3399 39.4659 19.57 39.4701C19.7807 39.4656 19.9895 39.5101 20.18 39.6001C20.3498 39.6755 20.4953 39.7967 20.6 39.9501V38.8301H21.6V42.1401C21.6092 42.4337 21.529 42.7231 21.37 42.9701C21.2235 43.2008 21.011 43.382 20.76 43.4901C20.4689 43.6115 20.1553 43.6694 19.84 43.6601C19.5245 43.6723 19.2103 43.6142 18.92 43.4901V43.4901Z" fill="#161449"/>
<path d="M23.08 43.4499C22.812 43.317 22.5882 43.1093 22.4356 42.852C22.283 42.5947 22.2081 42.2988 22.22 41.9999C22.215 41.7075 22.2838 41.4186 22.42 41.1599C22.5472 40.928 22.738 40.7372 22.97 40.6099C23.2016 40.4794 23.4642 40.4138 23.73 40.4199C23.9405 40.4165 24.1491 40.4609 24.34 40.5499C24.5125 40.6208 24.6592 40.7429 24.76 40.8999V40.0599C24.7683 39.9055 24.73 39.7522 24.65 39.6199C24.6184 39.5669 24.5726 39.5239 24.5178 39.4956C24.463 39.4673 24.4014 39.4549 24.34 39.4599C24.2842 39.4566 24.2284 39.4657 24.1766 39.4864C24.1247 39.5072 24.0781 39.5391 24.04 39.5799C23.9715 39.6684 23.9362 39.7781 23.94 39.8899V40.0499H23.04V39.9099C23.04 39.6499 22.9 39.5199 22.61 39.5199H22.27V38.7299H22.71C22.8857 38.724 23.0594 38.7692 23.21 38.8599C23.2819 38.8987 23.3454 38.9514 23.3969 39.0149C23.4484 39.0784 23.4868 39.1515 23.51 39.2299V39.2299C23.5905 39.056 23.7281 38.9148 23.9 38.8299C24.0862 38.7378 24.2923 38.6931 24.5 38.6999C24.7276 38.6969 24.9531 38.7447 25.16 38.8399C25.3482 38.9369 25.5045 39.0862 25.61 39.2699C25.7179 39.4801 25.7729 39.7136 25.77 39.9499V41.9999C25.7724 42.2958 25.6928 42.5865 25.54 42.8399C25.3964 43.0937 25.1806 43.2991 24.92 43.4299C24.6242 43.5683 24.3016 43.64 23.975 43.64C23.6484 43.64 23.3258 43.5683 23.03 43.4299L23.08 43.4499ZM24.43 42.7799C24.5497 42.7083 24.6468 42.6043 24.71 42.4799C24.7793 42.3474 24.8137 42.1994 24.81 42.0499C24.8137 41.8972 24.7793 41.746 24.71 41.6099C24.6466 41.4882 24.5494 41.3875 24.43 41.3199C24.3061 41.246 24.1642 41.2079 24.02 41.2099C23.882 41.2079 23.7465 41.2461 23.63 41.3199C23.5136 41.3881 23.4197 41.4889 23.36 41.6099C23.2906 41.746 23.2563 41.8972 23.26 42.0499C23.2562 42.1994 23.2906 42.3474 23.36 42.4799C23.4164 42.6056 23.5109 42.7105 23.63 42.7799C23.7486 42.8477 23.8833 42.8822 24.02 42.8799C24.1631 42.8839 24.3047 42.8493 24.43 42.7799V42.7799Z" fill="#161449"/>
<path d="M30.4401 42.57C30.5292 42.1897 30.5762 41.8007 30.5801 41.41V40.41C30.5966 40.1672 30.5446 39.9247 30.4301 39.71C30.3838 39.6397 30.3195 39.5831 30.2438 39.5462C30.1682 39.5093 30.084 39.4933 30.0001 39.5C29.9304 39.4993 29.8617 39.5164 29.8005 39.5497C29.7392 39.5829 29.6875 39.6312 29.6501 39.69C29.5468 39.8504 29.4977 40.0397 29.5101 40.23V42.23H28.6001V40.23C28.6148 40.0408 28.5693 39.8518 28.4701 39.69C28.4302 39.6289 28.3751 39.5793 28.3103 39.546C28.2454 39.5127 28.173 39.4968 28.1001 39.5C28.0181 39.5007 27.9377 39.5234 27.8674 39.5656C27.7971 39.6078 27.7393 39.668 27.7001 39.74C27.5877 39.9483 27.5358 40.1838 27.5501 40.42V41.42C27.554 41.8106 27.601 42.1997 27.6901 42.58C27.7546 42.9294 27.8726 43.2667 28.0401 43.58H27.0001C26.8959 43.4034 26.8121 43.2155 26.7501 43.02C26.6738 42.7715 26.6169 42.5174 26.5801 42.26C26.5324 41.9859 26.509 41.7082 26.5101 41.43V40.43C26.5026 40.1193 26.5677 39.8112 26.7001 39.53C26.8115 39.2864 26.9924 39.0812 27.2201 38.94C27.4376 38.8 27.6914 38.727 27.9501 38.73C28.1804 38.7234 28.4083 38.7787 28.6101 38.89C28.8011 38.9923 28.9498 39.1588 29.0301 39.36C29.1038 39.1548 29.2544 38.9862 29.4501 38.89C29.6487 38.78 29.8731 38.7247 30.1001 38.73C30.3636 38.7273 30.6229 38.7964 30.8501 38.93C31.0728 39.0769 31.2523 39.2806 31.3701 39.52C31.4959 39.8065 31.5574 40.1172 31.5501 40.43V41.43C31.5497 41.7078 31.5296 41.9851 31.4901 42.26C31.4452 42.5167 31.3851 42.7705 31.3101 43.02C31.2481 43.2155 31.1643 43.4034 31.0601 43.58H30.0601C30.2422 43.2669 30.3706 42.9255 30.4401 42.57V42.57Z" fill="#161449"/>
<path d="M33 43.4901C32.7469 43.3914 32.5255 43.2254 32.36 43.0101C32.2015 42.8076 32.1169 42.5572 32.12 42.3001C32.1181 42.1325 32.1486 41.9661 32.21 41.8101H33.21C33.21 41.8801 33.21 41.9501 33.21 42.0001C33.2042 42.0733 33.2042 42.1469 33.21 42.2201C33.2089 42.3363 33.2401 42.4505 33.3 42.5501C33.3696 42.653 33.462 42.7386 33.57 42.8001C33.6836 42.8557 33.8084 42.8846 33.935 42.8846C34.0615 42.8846 34.1863 42.8557 34.3 42.8001C34.4035 42.7403 34.4894 42.6543 34.5491 42.5507C34.6088 42.4471 34.6401 42.3296 34.64 42.2101C34.6406 42.0792 34.6134 41.9496 34.56 41.8301C34.5146 41.7175 34.4339 41.6228 34.33 41.5601C34.2197 41.4897 34.0906 41.4548 33.96 41.4601H33.67V40.6901H34.08C34.1955 40.6976 34.3106 40.6696 34.41 40.6101C34.4465 40.5844 34.4758 40.5498 34.4951 40.5095C34.5143 40.4692 34.5229 40.4246 34.52 40.3801C34.5214 40.3119 34.5003 40.2451 34.46 40.1901C34.4085 40.1333 34.3476 40.0859 34.28 40.0501L34 39.9101C33.7501 39.8224 33.5217 39.6826 33.33 39.5001C33.1633 39.3167 33.0706 39.0779 33.07 38.8301H34.07C34.0903 38.9411 34.1509 39.0408 34.24 39.1101C34.3254 39.1707 34.4157 39.2242 34.51 39.2701L34.69 39.3501C34.8317 39.4098 34.9687 39.48 35.1 39.5601C35.2074 39.6348 35.2991 39.73 35.37 39.8401C35.4462 39.9776 35.4841 40.1329 35.48 40.2901C35.4874 40.4643 35.4304 40.6352 35.32 40.7701C35.2064 40.9094 35.0528 41.0106 34.88 41.0601V41.0601C35.0161 41.1046 35.1419 41.176 35.25 41.2701C35.3731 41.382 35.4718 41.5182 35.54 41.6701C35.6147 41.8472 35.6521 42.0378 35.65 42.2301C35.6522 42.4916 35.5717 42.7471 35.42 42.9601C35.2632 43.1806 35.0487 43.3536 34.8 43.4601C34.2317 43.6866 33.5982 43.6866 33.03 43.4601L33 43.4901Z" fill="#161449"/>
<path d="M38.61 42.6099C38.678 42.2304 38.7115 41.8455 38.71 41.4599V40.5199C38.722 40.2579 38.6595 39.9979 38.53 39.7699C38.4676 39.6871 38.3867 39.6199 38.2939 39.5736C38.2011 39.5273 38.0987 39.5032 37.995 39.5032C37.8913 39.5032 37.789 39.5273 37.6961 39.5736C37.6033 39.6199 37.5224 39.6871 37.46 39.7699C37.3305 39.9979 37.268 40.2579 37.28 40.5199V41.4599C37.2789 41.8454 37.3124 42.2303 37.38 42.6099C37.4314 42.9309 37.5152 43.2458 37.63 43.5499H36.63C36.4995 43.2489 36.4055 42.9333 36.35 42.6099C36.2782 42.2173 36.2414 41.819 36.24 41.4199V40.4999C36.2239 40.1506 36.3071 39.8039 36.48 39.4999C36.6228 39.2405 36.8383 39.0285 37.1 38.8899C37.3779 38.7509 37.6843 38.6785 37.995 38.6785C38.3057 38.6785 38.6121 38.7509 38.89 38.8899C39.1527 39.0306 39.3709 39.2419 39.52 39.4999C39.6823 39.8076 39.7616 40.1522 39.75 40.4999V41.4199C39.7486 41.819 39.7118 42.2173 39.64 42.6099C39.585 42.9346 39.4875 43.2507 39.35 43.5499H38.35C38.4791 43.2499 38.5666 42.9336 38.61 42.6099V42.6099Z" fill="#161449"/>
</g>
<defs>
<clipPath id="clip0_17_24">
<rect width="36.75" height="42.66" fill="white" transform="translate(3 1)"/>
</clipPath>
</defs>
</svg>
