<svg width="237" height="212" viewBox="0 0 237 212" fill="none" xmlns="http://www.w3.org/2000/svg">
<g clip-path="url(#clip0_8_86)">
<path d="M212.842 10.9227L26.0131 28.3529C19.4033 28.9696 14.5449 34.8278 15.1616 41.4375L19.181 84.5204C19.7977 91.1302 25.6559 95.9885 32.2656 95.3719L219.094 77.9416C225.704 77.325 230.562 71.4668 229.946 64.8571L225.926 21.7741C225.31 15.1644 219.452 10.306 212.842 10.9227Z" fill="#2083FD"/>
<path d="M212.47 75.77L185.55 102.48L178.38 70.55L202.77 68.28L212.47 75.77Z" fill="#2083FD"/>
<path d="M176.35 77.7701C174.07 78.0701 171.8 78.4201 169.52 78.6601C167.42 78.8701 165.31 78.9501 163.21 79.1001C161.89 79.2001 160.58 79.3401 159.27 79.4501L156.08 79.6801C155.84 79.6801 155.59 79.6801 155.35 79.6801C153.35 79.8601 151.35 80.0001 149.35 80.2301C147.03 80.4901 144.72 80.8301 142.4 81.1101C141.87 81.1801 141.32 81.1701 140.78 81.2201C136.32 81.5901 131.86 81.9501 127.4 82.3501C123.85 82.6601 120.3 83.0101 116.76 83.3501C112.76 83.7701 108.76 84.3501 104.7 84.6401C102.36 84.8501 99.99 84.7401 97.7 84.8701C96.6 84.9301 95.52 85.2701 94.42 85.4201C92.22 85.7001 90.0167 85.9601 87.81 86.2001C87.24 86.2601 86.66 86.2001 86.08 86.2001C83.74 86.3701 81.4 86.5001 79.08 86.7501C76.02 87.0701 72.97 87.5001 69.91 87.8501C68.84 87.9701 67.76 87.9301 66.69 88.0201C65.05 88.1701 63.42 88.4201 61.78 88.5301C59.86 88.6601 57.93 88.6501 56.02 88.7701C54.48 88.8701 52.95 89.1001 51.41 89.2501C50.06 89.3701 48.71 89.4401 47.41 89.5601C45.21 89.7701 43.02 90.0401 40.82 90.2301C38.62 90.4201 36.12 90.5101 33.82 90.7201C30.67 91.0201 27.52 91.4201 24.37 91.7201C23.5793 91.7735 22.7849 91.7163 22.01 91.5501C20.157 91.304 18.3341 90.8684 16.57 90.2501C16.004 90.029 15.5141 89.6489 15.1592 89.1557C14.8043 88.6624 14.5997 88.077 14.57 87.4701C14.51 86.2401 13.66 85.0701 13.35 83.8201C12.97 82.3001 12.83 80.7101 12.5 79.1801C12.21 77.8601 11.74 76.5801 11.5 75.2701C11.2798 74.2231 11.1493 73.1593 11.11 72.0901C11 69.9801 11.11 67.8601 10.89 65.7501C10.67 63.6401 10.33 61.5301 10.08 59.4101C9.97 58.4601 9.98 57.4901 9.89 56.5301C9.64 53.8201 9.34 51.1201 9.11 48.4101C8.7 46.1901 8.6 43.9101 8.42 41.6301C8.33 40.5201 8.11 39.4201 8.06 38.3201C8 36.7401 8 35.1701 8 33.6001C8.08469 32.539 8.10472 31.4737 8.06 30.4101C7.75 28.0001 9.17 24.9201 11.4 23.9201C12.54 23.4101 13.7 22.6601 15.08 23.1701C15.2415 23.2047 15.4085 23.2047 15.57 23.1701C17.95 22.8101 20.34 22.4301 22.72 22.0801C24.93 21.7701 27.13 21.4301 29.35 21.2101C30.52 21.0901 31.71 21.2101 32.9 21.2101C33.2351 21.1983 33.5692 21.1649 33.9 21.1101L41.77 20.1101C43.07 19.9401 44.37 19.7301 45.67 19.6101C47.95 19.3901 50.23 19.2501 52.51 19.0301C53.82 18.9001 55.13 18.6301 56.45 18.5001C58.02 18.3501 59.6 18.3201 61.17 18.1801C62.34 18.0701 63.51 17.8501 64.68 17.7001C65.85 17.5501 66.9 17.4501 68.01 17.3301C70.61 17.0501 73.2 16.7301 75.8 16.5101C77.94 16.3301 80.09 16.3001 82.24 16.1401C83.34 16.0601 84.43 15.8501 85.52 15.7201C86.61 15.5901 87.72 15.4901 88.82 15.3601C90.63 15.1401 92.46 14.5801 94.22 14.7701C96.52 15.0101 98.66 14.4101 100.87 14.2501C104.87 13.9601 108.95 13.4201 113 13.0201C114.36 12.8801 115.74 12.9301 117.11 12.7901C118.48 12.6501 119.82 12.3201 121.18 12.1601C122.07 12.0501 122.98 12.1001 123.87 12.0501C125.6 11.9701 127.33 11.8601 129.05 11.7701C129.67 11.7701 130.3 11.7701 130.91 11.6501C132.51 11.4701 134.1 11.2501 135.69 11.0501C138.13 10.7501 140.57 10.4501 143.02 10.1801C144.02 10.0601 145.11 10.0501 146.15 9.95012C149.58 9.62012 153.02 9.24012 156.46 8.95012C159.68 8.67012 162.91 8.52012 166.12 8.23012C168.26 8.03012 170.38 7.67012 172.52 7.42012C173.05 7.36012 173.61 7.53012 174.14 7.42012C177.08 7.12012 180.02 6.77012 182.97 6.47012C185.39 6.23012 187.82 6.02012 190.25 5.81012C192.68 5.60012 195.15 5.44012 197.6 5.19012C200.041 4.76229 202.505 4.48178 204.98 4.35012C207.249 4.24254 209.509 4.00213 211.75 3.63012C212.75 3.53012 213.68 2.63012 214.84 3.17012C216 3.71012 217.43 4.24012 218.67 4.90012C220.59 5.90012 220.94 7.90012 221.19 9.76012C221.5 12.1001 221.81 14.4401 221.96 16.7601C222.15 19.7001 222.17 22.6401 222.27 25.5801C222.39 28.9501 222.54 32.3201 222.63 35.6901C222.63 36.9501 222.55 38.2201 222.58 39.4901C222.64 41.7501 222.77 44.0001 222.86 46.2601C222.86 47.0401 222.86 47.8201 222.93 48.6001C223.27 51.7901 223.68 54.9801 223.99 58.1801C224.3 61.3801 224.52 64.3801 224.8 67.4801C224.836 68.9453 224.384 70.3808 223.515 71.561C222.646 72.7412 221.41 73.5992 220 74.0001C218.31 74.5001 216.69 75.2701 215 75.9101C214.707 76.0606 214.379 76.1297 214.05 76.1101C212.25 75.6801 210.55 76.3801 208.81 76.4901C206.19 76.6401 203.56 76.6001 200.93 76.6201C200.555 76.6135 200.187 76.5248 199.85 76.3601C199.04 75.9701 198.54 76.3601 198.01 76.9001C196.22 78.9001 195.08 81.2901 193.65 83.5101C192.08 85.9301 190.75 88.4501 189.39 90.9601C188.225 92.8455 186.766 94.5333 185.07 95.9601C184.746 96.2796 184.338 96.5001 183.894 96.5958C183.449 96.6914 182.986 96.6582 182.56 96.5001C180.27 95.8801 179.42 94.5801 179.32 92.3701C179.2 89.7101 178.93 87.0601 178.73 84.3701C178.6 82.6901 178.44 81.0101 178.33 79.3701C178.32 78.0601 177.63 77.5801 176.35 77.7701ZM184.56 86.6701H184.97C185.184 86.4329 185.378 86.1788 185.55 85.9101C186.9 83.4701 188.15 80.9701 189.55 78.5901C190.87 76.4001 192.37 74.3301 193.82 72.2301C194 72.0123 194.246 71.858 194.52 71.7901C195.68 71.5101 196.85 71.2801 198 71.0001C198.39 70.9101 198.76 70.6101 199.15 70.6001C201.07 70.5501 202.99 70.6001 204.91 70.5301C207.22 70.4101 209.52 70.1501 211.83 69.9401C212.616 69.931 213.399 69.8507 214.17 69.7001C215.158 69.4185 216.116 69.04 217.03 68.5701C217.89 68.1401 218.95 67.9101 218.51 66.3801C218.151 64.8557 217.924 63.3033 217.83 61.7401C217.39 57.5601 216.98 53.3801 216.56 49.2001C216.48 48.3501 216.44 47.4901 216.38 46.6301C216.32 45.7701 216.22 45.0801 216.23 44.3101C216.23 42.4201 216.42 40.5201 216.34 38.6301C216.24 36.5401 215.84 34.4701 215.72 32.3801C215.62 30.6401 215.78 28.8901 215.72 27.1401C215.72 24.2501 215.72 21.3501 215.51 18.4601C215.33 15.8001 214.93 13.1501 214.51 10.5101C214.51 10.2001 213.72 9.77012 213.31 9.79012C212.09 9.85012 210.88 10.1501 209.66 10.2601C205.38 10.6535 201.1 11.0101 196.82 11.3301C196.09 11.3901 195.33 11.1701 194.6 11.2401C193.01 11.4001 191.44 11.7201 189.85 11.8801C187.85 12.0801 185.9 12.1401 183.94 12.3101C181.67 12.5101 179.42 12.8101 177.15 13.0001C174.88 13.1901 172.69 13.2601 170.46 13.4701C166.34 13.8501 162.23 14.2901 158.11 14.7101C156.73 14.8501 155.34 15.0001 153.96 15.1601C152.74 15.3001 151.54 15.5201 150.32 15.6101C148.81 15.7101 147.32 15.6601 145.79 15.7901C143.35 15.9901 140.93 16.2901 138.49 16.5201C136.61 16.6901 134.72 16.7401 132.84 16.9401C130.14 17.2301 127.45 17.6601 124.75 17.9401C122.93 18.1301 121.09 18.0801 119.27 18.2701C116.27 18.5801 113.27 19.0301 110.21 19.3601C107.39 19.6701 104.56 19.9501 101.73 20.1801C98.48 20.4301 95.22 20.5801 91.97 20.8501C89.97 21.0201 87.97 21.4001 85.9 21.5901C82.22 21.9301 78.54 22.2001 74.9 22.4801C73.8 22.5601 72.7 22.4801 71.6 22.6301C69.13 22.8801 66.67 23.2201 64.19 23.4601C61.54 23.7101 58.87 23.8601 56.19 24.0901C54.43 24.2401 52.69 24.4301 50.94 24.6301C49.19 24.8301 47.58 25.0801 45.89 25.2001C44.37 25.3101 42.89 25.2001 41.32 25.3101C38.32 25.5501 35.32 25.8901 32.32 26.1501C31.7 26.2101 31.07 26.0201 30.45 26.0801C28.06 26.3101 25.67 26.6201 23.28 26.8601C21.92 27.0001 20.57 27.1001 19.21 27.1601C17.64 27.2301 16.06 27.2901 14.49 27.2601C14.2348 27.2353 13.9774 27.2733 13.7402 27.3709C13.5031 27.4685 13.2935 27.6227 13.1298 27.82C12.966 28.0173 12.853 28.2517 12.8008 28.5028C12.7485 28.7538 12.7586 29.0138 12.83 29.2601C13.0414 30.7356 13.1783 32.2208 13.24 33.7101C13.31 35.6201 13.13 37.5401 13.24 39.4301C13.4 41.6501 13.82 43.8501 14.07 46.0601C14.32 48.2701 14.5 50.5401 14.72 52.7801C14.9 54.5501 15.12 56.3201 15.29 58.0901C15.39 59.0901 15.37 60.0901 15.47 61.1501C15.61 62.5301 15.85 63.8901 15.97 65.2701C16.09 66.6501 16.04 68.2701 16.29 69.6901C16.5282 71.8315 16.9736 73.9448 17.62 76.0001C18.62 78.6301 18.25 81.6301 19.44 84.3101C19.84 85.2301 20.18 85.4701 21.1 85.4901C22.37 85.4901 23.86 85.3901 24.86 85.9901C25.8943 86.4651 27.0407 86.6417 28.17 86.5001C28.691 86.4419 29.2085 86.3551 29.72 86.2401C32.03 86.0601 34.36 85.9701 36.72 85.7401C39.25 85.4901 41.72 85.0801 44.28 84.8301C47.09 84.5501 49.91 84.4401 52.71 84.1301C54.86 83.9001 56.98 83.4101 59.13 83.1301C61.28 82.8501 63.24 82.9201 65.3 82.7701C67.36 82.6201 69.55 82.3801 71.67 82.1501C74.24 81.8801 76.82 81.5801 79.4 81.2901L85.96 80.5501C86.21 80.5501 86.46 80.5501 86.71 80.5501C87.56 80.5501 88.41 80.5501 89.26 80.4501C90.11 80.3501 91.26 80.1301 92.19 80.0501C94.71 79.8701 97.19 79.7901 99.75 79.5601C101.53 79.4001 103.3 79.0101 105.08 78.8301C106.86 78.6501 108.93 78.6201 110.86 78.4501C114.86 78.1001 118.86 77.7001 122.94 77.3101C123.94 77.2201 124.94 77.1001 125.94 76.9801C127.94 76.7401 130.03 76.4301 132.08 76.2801C134.33 76.1001 136.61 76.2801 138.83 75.8901C139.71 75.7501 140.41 75.4001 141.21 76.0101C141.31 76.1001 141.59 75.9601 141.79 75.9201C143.075 75.552 144.38 75.2615 145.7 75.0501C147.97 74.8001 150.26 74.7801 152.53 74.5901C154.8 74.4001 157.32 74.0201 159.72 73.8801C161.66 73.7701 163.57 73.0001 165.56 73.5401C165.75 73.6001 166.02 73.3701 166.26 73.3101C166.691 73.1748 167.133 73.0745 167.58 73.0101C170.01 72.8001 172.45 72.6401 174.89 72.4201C176.08 72.3101 177.26 72.0901 178.45 71.9901C178.96 71.9901 179.53 72.2301 180 72.1101C180.581 71.9344 181.208 71.9865 181.752 72.2558C182.296 72.5251 182.717 72.9914 182.93 73.5601C183.35 75.3101 183.54 77.1201 183.84 78.9001C183.96 79.6201 184.2 80.3301 184.26 81.0501C184.35 82.9401 184.44 84.8101 184.56 86.6701Z" fill="#0E2043"/>
<path d="M189.75 38.1601C189.454 38.382 189.212 38.6665 189.039 38.9932C188.866 39.32 188.767 39.6808 188.75 40.0501C188.514 42.808 187.415 45.4216 185.61 47.5201C183.96 49.3001 180.76 48.1501 179.81 46.5201C178.613 44.5389 177.926 42.2919 177.81 39.9801C177.55 37.2599 177.699 34.5163 178.25 31.8401C178.292 31.487 178.418 31.1491 178.618 30.8547C178.817 30.5603 179.084 30.3178 179.396 30.1475C179.708 29.9772 180.057 29.8841 180.412 29.8758C180.768 29.8676 181.12 29.9444 181.44 30.1001C181.759 30.2176 182.102 30.2587 182.44 30.2201C185.38 29.8301 186.96 31.5101 188.09 33.8901C188.154 33.9964 188.228 34.0968 188.31 34.1901C188.31 34.1901 188.38 34.1901 188.44 34.2601C189.81 33.1901 189.72 31.5901 189.66 30.1501C189.624 29.9681 189.627 29.7805 189.669 29.5999C189.711 29.4192 189.791 29.2495 189.904 29.1021C190.016 28.9546 190.159 28.8327 190.322 28.7444C190.485 28.6562 190.665 28.6035 190.85 28.5901C191.56 28.4901 192.52 28.5301 192.74 29.5901C192.907 30.2689 193.011 30.9619 193.05 31.6601C193.022 34.8373 193.446 38.0024 194.31 41.0601C194.767 42.1187 195.369 43.1083 196.1 44.0001C197.01 45.3501 196.93 45.8601 195.85 47.0001C195.75 47.1492 195.618 47.2745 195.465 47.3669C195.311 47.4594 195.138 47.5167 194.96 47.5349C194.781 47.553 194.601 47.5315 194.431 47.4719C194.262 47.4123 194.108 47.3161 193.98 47.1901C193.26 46.6352 192.675 45.924 192.27 45.1101C191.34 42.8901 190.59 40.5501 189.75 38.1601ZM182.88 45.0801L183.43 45.0001C183.79 44.2001 184.13 43.3801 184.52 42.5901C185.04 41.5301 185.39 40.5001 184.64 39.3701C184.46 39.1101 184.41 38.4501 184.57 38.3701C186.06 37.2001 185.24 35.8601 184.63 34.8301C184.027 34.1349 183.199 33.6746 182.29 33.5301C181.98 33.4501 181.08 34.3401 181.08 34.7901C181.026 37.0889 181.143 39.3885 181.43 41.6701C181.766 42.8639 182.253 44.0098 182.88 45.0801V45.0801Z" fill="#0E2043"/>
<path d="M86.85 53.9199C86.25 51.5499 86.4 49.1699 84.7 47.0799C84.5487 47.8603 84.4386 48.648 84.37 49.4399C84.3715 49.6276 84.3349 49.8136 84.2625 49.9868C84.1902 50.1599 84.0835 50.3166 83.949 50.4474C83.8144 50.5783 83.6548 50.6805 83.4796 50.7479C83.3045 50.8154 83.1175 50.8467 82.93 50.8399C82.7383 50.8902 82.5376 50.896 82.3433 50.8569C82.1489 50.8178 81.9662 50.7347 81.8089 50.6141C81.6516 50.4935 81.5239 50.3385 81.4357 50.161C81.3475 49.9835 81.3011 49.7881 81.3 49.5899C81.23 48.8099 81.07 48.0499 80.95 47.2999C80.25 47.8999 80.25 47.8999 80.21 50.3799C80.21 50.9299 80.36 51.5099 79.53 51.7699C79.2432 51.8939 78.9281 51.9379 78.6183 51.8973C78.3084 51.8566 78.0154 51.7328 77.7703 51.539C77.5252 51.3451 77.3372 51.0885 77.2262 50.7964C77.1152 50.5043 77.0854 50.1876 77.14 49.8799C77.3035 48.2492 77.6387 46.6403 78.14 45.0799C78.47 43.9799 79.88 43.5399 81.34 44.0199C81.7356 44.1737 82.1635 44.2259 82.5845 44.1718C83.0055 44.1176 83.4062 43.9588 83.75 43.7099C84.0578 43.5298 84.3994 43.4146 84.7535 43.3716C85.1076 43.3286 85.4667 43.3586 85.8088 43.4598C86.1508 43.561 86.4685 43.7313 86.7422 43.96C87.0158 44.1888 87.2397 44.4712 87.4 44.7899C88.9211 47.4888 89.8101 50.4977 90 53.5899C90.08 54.9199 90.55 56.2199 90.58 57.5899C90.6584 58.527 90.5125 59.4694 90.1543 60.3389C89.796 61.2084 89.2358 61.98 88.52 62.5899C87.8064 63.2041 86.9157 63.5749 85.977 63.6487C85.0384 63.7224 84.1007 63.4951 83.3 62.9999C82.6838 62.5086 82.2504 61.8246 82.0691 61.0577C81.8878 60.2908 81.9691 59.4852 82.3 58.7699C83.07 56.4999 84.19 54.5099 86.85 53.9199ZM85.23 60.1199C86.99 60.2299 87.57 59.2299 86.87 57.1199L85.23 60.1199Z" fill="#0E2043"/>
<path d="M33.12 51.78C31.84 53.14 31.8 54.55 31.53 55.78C31.2577 57.5762 31.3221 59.4074 31.7199 61.18C32.1999 64.18 32.79 67.06 33.34 70C33.34 70.21 33.5399 70.46 33.4699 70.59C33.1699 71.15 32.8099 71.67 32.4699 72.2C31.9699 71.7 31.21 71.28 31.03 70.68C30.47 68.85 30.25 66.93 29.69 65.11C28.6736 61.9045 28.3599 58.5177 28.77 55.18C29.017 53.5955 29.4674 52.0494 30.11 50.58C30.77 48.95 33.2099 48.58 34.7099 49.53C36.4499 50.67 36.4599 52.43 36.7099 54.16C37.0499 56.47 37.46 58.76 37.79 61.07C38.18 63.77 38.57 66.46 38.79 69.17C38.79 69.53 37.9299 70.24 37.4099 70.29C37.214 70.3225 37.0135 70.3143 36.8209 70.2661C36.6282 70.2178 36.4476 70.1305 36.29 70.0096C36.1325 69.8886 36.0015 69.7366 35.9052 69.5629C35.8088 69.3893 35.7492 69.1977 35.7299 69C35.2999 66.06 34.85 63.12 34.44 60.18C34.15 58.07 33.9299 55.96 33.6399 53.85C33.5499 53.28 33.35 52.68 33.12 51.78Z" fill="#0E2043"/>
<path d="M159 43.7601C158.965 43.2914 158.892 42.8265 158.78 42.3701C158.734 42.2497 158.662 42.1413 158.569 42.053C158.475 41.9646 158.363 41.8987 158.24 41.8601C155.9 41.4801 155.31 40.9201 154.7 38.6101C154.475 37.8145 154.195 37.0359 153.86 36.2801C153.5 35.4001 153.86 33.8701 154.62 33.6501C154.837 33.575 155.067 33.5455 155.296 33.5634C155.525 33.5814 155.748 33.6463 155.951 33.7543C156.153 33.8622 156.332 34.0108 156.474 34.1907C156.617 34.3707 156.721 34.5781 156.78 34.8001C157.16 35.8001 157.48 36.8001 157.78 37.8001C158.04 38.6701 158.43 38.6701 159.16 38.2401C159.437 38.04 159.768 37.9301 160.11 37.9254C160.451 37.9207 160.786 38.0215 161.068 38.214C161.35 38.4064 161.566 38.6812 161.686 39.0008C161.807 39.3205 161.825 39.6694 161.74 40.0001C161.704 41.2296 162.02 42.4438 162.65 43.5001C163.02 44.1201 164.19 44.2501 165 44.6201C167.05 45.6201 167.44 47.1101 166.49 49.1701C165.12 52.1701 162.64 53.2601 159.65 53.3001C158.642 53.1274 157.741 52.5676 157.14 51.7401C155.69 49.9701 156.08 46.1301 157.74 44.4601C158.126 44.171 158.55 43.9355 159 43.7601V43.7601ZM163.8 48.1401L163.65 47.5201C163.2 47.3901 162.76 47.2401 162.3 47.1501C161.869 47.0618 161.429 47.0282 160.99 47.0501C160.594 47.0386 160.202 47.1391 159.86 47.3401C159.08 47.9801 159.41 48.8101 159.76 49.5101C159.875 49.6623 160.028 49.7821 160.203 49.8574C160.378 49.9328 160.57 49.9613 160.76 49.9401C161.8 49.4101 162.8 48.7501 163.81 48.1401H163.8Z" fill="#0E2043"/>
<path d="M108.41 46.2699C109.385 47.141 110.295 48.0836 111.13 49.0899C112.295 50.773 112.833 52.8112 112.65 54.8499C112.577 55.4103 112.393 55.9508 112.11 56.4399C111.827 56.9291 111.45 57.3573 111 57.6999C109.654 58.572 108.159 59.1889 106.59 59.5199C106.128 59.7149 105.624 59.787 105.126 59.7292C104.629 59.6714 104.155 59.4855 103.75 59.1899C103.346 58.9421 103.047 58.5552 102.909 58.102C102.771 57.6488 102.803 57.1608 103 56.7299C103.136 56.2399 103.448 55.8172 103.876 55.5424C104.304 55.2676 104.818 55.1599 105.32 55.2399C105.81 55.2399 106.32 55.6399 106.77 55.5699C107.556 55.5067 108.319 55.2675 109 54.8699C109.7 54.3899 109.6 53.6099 109.19 52.8699C108.9 52.3299 108.91 51.6299 108.62 51.0999C108.288 50.6111 107.888 50.1732 107.43 49.7999C106.84 49.2399 106.43 49.5199 105.84 49.9699C105.394 50.2303 104.876 50.338 104.363 50.2766C103.85 50.2152 103.372 49.9882 103 49.6299C102.777 49.1192 102.757 48.5431 102.942 48.0179C103.128 47.4926 103.506 47.0573 104 46.7999C104.26 46.615 104.472 46.3705 104.618 46.087C104.765 45.8034 104.841 45.489 104.841 45.1699C104.841 44.8508 104.765 44.5363 104.618 44.2528C104.472 43.9692 104.26 43.7248 104 43.5399C103.76 43.9899 103.52 44.3999 103.32 44.8299C103.266 44.9913 103.178 45.1389 103.061 45.2623C102.943 45.3857 102.801 45.4818 102.642 45.5438C102.484 45.6058 102.314 45.6322 102.144 45.6212C101.974 45.6101 101.809 45.5619 101.66 45.4799C101.02 45.1499 100.25 44.6699 100.66 43.7299C101.027 42.7167 101.595 41.7881 102.33 40.9999C104.03 39.5699 106.61 40.5099 107.6 42.8699C107.958 43.9805 108.229 45.1172 108.41 46.2699V46.2699Z" fill="#0E2043"/>
<path d="M133.82 48C133.15 46.45 132.47 44.9 131.82 43.33C131.695 43.0084 131.695 42.6516 131.82 42.33C132.72 40.11 133.58 37.87 134.63 35.72C135.26 34.41 137.51 34.37 138.54 35.42C139.491 36.1513 140.15 37.197 140.4 38.37C140.67 40.44 140.27 42.01 138.23 42.97C137.544 43.3445 136.934 43.843 136.43 44.44C136.296 44.5961 136.199 44.7809 136.147 44.9802C136.095 45.1796 136.089 45.3882 136.13 45.59C136.85 46.99 137.66 48.33 138.47 49.67C138.882 50.2631 139.431 50.7487 140.069 51.0863C140.708 51.4238 141.418 51.6034 142.14 51.61C143.14 51.73 144.91 52.92 145 53.53C145.17 54.71 144.05 55.47 142.71 55.04C141.37 54.61 140.23 54.25 139.04 53.75C138.258 53.4512 137.541 53.0028 136.93 52.43C135.8 51.25 134.39 50.22 134.2 48.43C134.2 48.27 133.93 48.14 133.78 47.99L133.82 48ZM135.52 40.78C137.46 40.23 137.79 39.4 136.76 38.04L135.52 40.78Z" fill="#0E2043"/>
<path d="M171.41 35.6501C170.762 37.3333 170.489 39.1377 170.609 40.9374C170.73 42.737 171.242 44.4887 172.11 46.0701C172.354 46.5892 172.635 47.0904 172.95 47.5701C173.58 48.5101 172.95 48.9401 172.27 49.3101C171.59 49.6801 170.89 49.7601 170.38 48.8701C168.91 46.2901 167.56 43.6501 167.5 40.6101C167.45 38.0401 167.73 35.4701 169.32 33.2901C170.32 31.9601 172.48 32.1501 173.57 33.4301C175.129 35.3742 176.113 37.7159 176.41 40.1901C176.7 41.9401 177.08 43.6801 177.41 45.4201C177.476 45.6147 177.574 45.7972 177.7 45.9601C177.854 46.1297 177.966 46.3326 178.028 46.5528C178.09 46.7731 178.1 47.0048 178.057 47.2296C178.015 47.4544 177.92 47.6663 177.782 47.8485C177.644 48.0308 177.465 48.1785 177.26 48.2801C177.076 48.4163 176.864 48.5103 176.64 48.5554C176.415 48.6006 176.184 48.5958 175.961 48.5414C175.739 48.487 175.531 48.3843 175.353 48.2407C175.175 48.097 175.03 47.9158 174.93 47.7101C174.386 46.553 173.974 45.3388 173.7 44.0901C173.29 42.2701 173.16 40.3901 172.7 38.5801C172.365 37.5644 171.933 36.5832 171.41 35.6501V35.6501Z" fill="#0E2043"/>
<path d="M117.31 48.93C117.25 50.75 117.63 51.03 119.05 51.22C120.282 51.3766 121.481 51.7312 122.6 52.27C123.024 52.516 123.389 52.8516 123.67 53.2533C123.952 53.655 124.142 54.1133 124.227 54.596C124.313 55.0787 124.292 55.5744 124.167 56.0483C124.041 56.5222 123.814 56.963 123.5 57.34C123.13 57.79 122.82 58.29 122.43 58.72C121.15 60.15 119.43 60.79 118.02 59.82C116.86 58.895 115.963 57.681 115.42 56.3C115.005 54.9738 114.74 53.6053 114.63 52.22C114.35 50.68 114.14 49.11 113.75 47.59C113.348 46.171 112.867 44.7755 112.31 43.41C112.03 42.68 111.52 42.02 111.31 41.28C111.17 40.82 110.88 40.15 111.72 39.81C112.011 39.6607 112.342 39.6112 112.664 39.669C112.986 39.7268 113.279 39.8888 113.5 40.13C115.5 41.91 116.26 44.31 116.87 46.79C117.05 47.59 117.2 48.41 117.31 48.93ZM118.69 54.53L118.3 54.91L119.48 56.54L121 55.37L120.85 55.02L118.69 54.53Z" fill="#0E2043"/>
<path d="M63.18 49.1699C62.69 49.5399 62.18 49.9299 61.69 50.2899C61.2 50.6499 60.83 50.8299 60.4 51.0899C60.05 50.3999 59.33 49.6499 59.4 49.0299C59.71 47.1399 62.5 45.7099 64.25 46.2599C65.36 46.6099 66.25 46.8999 66.47 48.3299C66.61 49.4399 66.81 50.4399 66.01 51.3299C65.91 51.4499 65.86 51.6099 65.95 51.4499C67.0986 53.0999 68.1375 54.8236 69.06 56.6099C69.7538 58.1152 70.1414 59.7434 70.2 61.3999C70.216 62.3592 69.9808 63.306 69.5176 64.1463C69.0545 64.9866 68.3796 65.6911 67.56 66.1899C66.9874 66.6397 66.3106 66.9378 65.5922 67.0566C64.8738 67.1755 64.137 67.1113 63.45 66.8699C62.993 66.7157 62.6045 66.4061 62.3523 65.9949C62.1001 65.5838 62.0002 65.0972 62.07 64.6199C62.07 63.5299 62.92 63.0299 64.01 63.3099C66.01 63.8299 67.36 62.5199 67.01 60.4799C66.529 58.3814 65.5975 56.4126 64.28 54.7099C64.1302 54.5377 63.9411 54.4042 63.7287 54.3207C63.5164 54.2371 63.287 54.206 63.06 54.2299C61.78 54.6099 61.72 53.5899 61.33 52.9199C60.94 52.2499 61.33 51.7099 61.88 51.2399C62.43 50.7699 63.02 50.1499 63.58 49.6099L63.18 49.1699Z" fill="#0E2043"/>
<path d="M133.78 47.94C133.747 48.7234 133.842 49.5069 134.06 50.26C134.88 51.93 133.55 54.71 132.17 55.26C130.526 56.0061 128.786 56.5177 127 56.78C126.41 56.86 125.36 55.78 125.06 55.08C125.008 54.8066 125.012 54.5255 125.07 54.2534C125.128 53.9813 125.24 53.7236 125.4 53.4954C125.559 53.2672 125.762 53.0731 125.998 52.9245C126.233 52.7759 126.496 52.6758 126.77 52.63C127.309 52.639 127.844 52.7232 128.36 52.88C130.54 53.41 131.69 52.32 131.02 50.2C130.664 49.2082 130.125 48.2923 129.43 47.5C129.21 47.24 128.43 47.39 127.92 47.44C127.66 47.44 127.43 47.8 127.17 47.83C126.39 47.94 125.3 48.09 125.17 47.17C125.142 46.7334 125.201 46.2956 125.344 45.8819C125.486 45.4682 125.709 45.0869 126 44.76C127.22 43.44 127.39 42.76 126.16 41.63C126 41.86 125.72 42.07 125.7 42.3C125.61 43.17 125.44 43.69 124.31 43.43C124.103 43.4046 123.903 43.3347 123.726 43.2251C123.548 43.1156 123.396 42.9689 123.28 42.7951C123.164 42.6213 123.087 42.4246 123.054 42.2183C123.022 42.012 123.034 41.8011 123.09 41.6C123.161 41.0509 123.364 40.5271 123.68 40.073C123.997 39.6189 124.419 39.248 124.91 38.9918C125.401 38.7356 125.946 38.6016 126.5 38.6013C127.053 38.601 127.599 38.7343 128.09 38.99C129 39.48 130.09 42.57 129.95 43.55C131.19 45.05 132.22 46.29 133.26 47.55C133.429 47.7131 133.609 47.8635 133.8 48L133.78 47.94Z" fill="#0E2043"/>
<path d="M96.27 56.7701C96.3309 56.8888 96.4011 57.0025 96.48 57.1101C96.73 57.4101 96.99 57.7001 97.25 57.9901C97.42 57.6201 97.77 57.2201 97.73 56.8801C97.5216 54.9484 97.2112 53.029 96.8 51.1301C96.37 49.3501 95.67 47.6301 95.09 45.8901H94.62C94.36 46.4201 94.1 46.9501 93.87 47.4901C93.7257 47.9518 93.5417 48.4002 93.32 48.8301C93.2042 48.9924 93.0551 49.1281 92.8826 49.2281C92.7102 49.3281 92.5183 49.3902 92.32 49.4101C92.1 49.4101 91.72 48.9801 91.65 48.6801C91.4254 47.987 91.3504 47.2542 91.43 46.5301C91.7841 45.3048 92.2048 44.0997 92.69 42.9201C92.97 42.1301 93.54 41.9901 94.29 42.1601C95.1934 42.3551 96.0332 42.7742 96.7322 43.3788C97.4312 43.9834 97.9669 44.7542 98.29 45.6201C98.8945 46.6921 99.3839 47.8251 99.75 49.0001C100.35 51.8316 100.748 54.7021 100.94 57.5901C101.06 60.5001 99.2 61.6501 97.15 61.4201C95.89 61.2801 94.42 61.7101 93.54 60.3401C93.26 59.9001 92.92 59.2501 93.06 58.8401C93.38 57.9001 93.65 56.7401 95.06 56.7501L96.27 56.7701Z" fill="#0E2043"/>
<path d="M46 66.51C46.57 65.69 46.95 65.16 47.32 64.61C47.69 64.06 48.13 63.08 48.99 63.61C49.255 63.8303 49.4646 64.1098 49.6018 64.4259C49.739 64.742 49.8001 65.086 49.78 65.43C49.48 67.32 49.32 69.35 47.1 70.26C46.5535 70.4746 45.9543 70.5158 45.3836 70.3781C44.8129 70.2403 44.2984 69.9302 43.91 69.49C42.4026 67.1076 41.3293 64.4769 40.74 61.72C40.34 59.59 40.18 57.41 39.74 55.29C39.41 53.73 38.74 52.29 38.32 50.71C38.2545 50.4717 38.242 50.222 38.2835 49.9784C38.325 49.7348 38.4193 49.5032 38.56 49.3C38.7757 49.099 39.0289 48.9425 39.3052 48.8395C39.5815 48.7365 39.8754 48.6891 40.17 48.7C40.4432 48.7666 40.6994 48.8901 40.9217 49.0624C41.1439 49.2347 41.3274 49.452 41.46 49.7C42.058 50.9147 42.5175 52.1927 42.83 53.51C43.42 56.38 43.76 59.3 44.37 62.17C44.8077 63.6542 45.3525 65.1047 46 66.51V66.51Z" fill="#0E2043"/>
<path d="M55.48 65.2601C56.64 61.6501 54.66 51.3501 52.75 50.0701C52.097 50.6711 51.4055 51.2289 50.6801 51.7401C50.02 52.1501 49.5001 51.6601 49.6801 51.0601C50.0101 49.6701 49.8801 47.9701 51.6101 47.3101C52.0829 47.0509 52.6238 46.9427 53.16 47.0001C53.9743 47.241 54.7189 47.6737 55.3313 48.2618C55.9438 48.8499 56.4063 49.5763 56.68 50.3801C57.4583 52.804 58.0467 55.2849 58.44 57.8001C58.714 60.4577 58.7709 63.1333 58.6101 65.8001C58.6214 66.3584 58.4768 66.9088 58.1923 67.3893C57.9079 67.8699 57.495 68.2615 57 68.5201C56.3433 68.8998 55.5805 69.0545 54.8277 68.9606C54.0749 68.8667 53.3734 68.5294 52.8301 68.0001C52.4354 67.626 52.2021 67.1128 52.1797 66.5695C52.1573 66.0261 52.3475 65.4954 52.71 65.0901C53.45 64.2601 54.31 64.2801 55.48 65.2601Z" fill="#0E2043"/>
<path d="M150.08 48.8399C150.36 45.4199 149.08 42.4999 146.67 39.6199C146.67 40.4199 146.67 40.9599 146.67 41.5099C146.73 42.4099 146.21 42.5099 145.57 42.2699C145.176 42.1546 144.827 41.9206 144.57 41.5999C144.186 41.0333 143.936 40.3872 143.837 39.7102C143.739 39.0331 143.794 38.3425 144 37.6899C144.58 35.7799 146.25 35.7699 147.74 36.4799C148.524 36.795 149.214 37.3084 149.74 37.9699C150.675 39.364 151.482 40.84 152.15 42.3799C152.735 43.6764 153.129 45.0506 153.32 46.4599C153.51 48.2599 154.09 50.2199 152.51 51.7799C152.34 51.9499 152.16 52.2499 151.98 52.2599C150.4 52.3099 148.75 53.0199 147.28 52.0199C147.057 51.8461 146.876 51.6248 146.75 51.3723C146.624 51.1197 146.556 50.8422 146.55 50.5599C146.55 49.9399 146.55 48.9999 147.8 49.1399C148.569 49.1331 149.335 49.0323 150.08 48.8399Z" fill="#0E2043"/>
<path d="M206 23.6901V32.0001C206 34.0001 206 36.0001 206 38.0001C206 39.2801 205.47 40.2701 204.53 40.4401C203.59 40.6101 202.36 39.8001 202.27 38.9701C202.175 37.8254 202.175 36.6748 202.27 35.5301C202.35 34.2101 202.55 32.9001 202.66 31.5801C202.78 30.0801 202.91 28.5801 202.96 27.0701C203.055 25.318 203.055 23.5621 202.96 21.8101C202.86 20.3801 204.01 20.6401 204.69 20.3801C204.89 20.3001 205.57 21.0001 205.75 21.4601C205.986 22.189 206.15 22.9392 206.24 23.7001L206 23.6901Z" fill="#0E2043"/>
<path d="M204.7 42.6299C205.76 42.6299 206.27 43.1499 206.26 44.2599C206.311 44.6023 206.284 44.9518 206.181 45.2823C206.077 45.6127 205.901 45.9157 205.665 46.1685C205.428 46.4213 205.138 46.6175 204.815 46.7424C204.492 46.8673 204.145 46.9177 203.8 46.8899C202.87 46.8899 202.12 45.7799 202.1 44.3799C202.09 43.3999 203.23 42.6299 204.7 42.6299Z" fill="#0E2043"/>
<path d="M117.92 208.42C151.311 208.42 178.38 205.711 178.38 202.37C178.38 199.029 151.311 196.32 117.92 196.32C84.5288 196.32 57.46 199.029 57.46 202.37C57.46 205.711 84.5288 208.42 117.92 208.42Z" fill="#0E2043"/>
</g>
<defs>
<clipPath id="clip0_8_86">
<rect width="221.99" height="205.42" fill="white" transform="translate(8 3)"/>
</clipPath>
</defs>
</svg>
