<svg width="17" height="16" viewBox="0 0 17 16" fill="none" xmlns="http://www.w3.org/2000/svg">
<path d="M14.6267 0H2.37331C1.06257 0 0 1.07903 0 2.41009V13.5899C0 14.921 1.06257 16 2.37331 16H14.6267C15.9374 16 17 14.921 17 13.5899V2.41009C17 1.07903 15.9374 0 14.6267 0Z" fill="#2083FD"/>
<path d="M9.03222 4.33538C9.11771 3.73018 9.40528 3.17165 9.84823 2.75048C10.2912 2.32932 10.8635 2.07026 11.4722 2.01538C12.1223 1.95211 12.7765 2.08499 13.3504 2.3969C13.9243 2.70881 14.3917 3.18544 14.6922 3.76538C15.6322 5.37538 15.1222 6.76538 14.3822 8.23538C14.1222 8.74538 13.8122 9.23538 13.5122 9.71538C14.0019 9.96902 14.3917 10.3805 14.6186 10.8832C14.8454 11.3858 14.896 11.9504 14.7622 12.4854C14.6922 12.7954 14.3922 13.2154 14.1322 13.2654C12.5022 13.6154 10.8522 13.9254 9.58222 12.8054C9.19475 13.1092 8.76309 13.352 8.30222 13.5254C7.40222 13.6854 5.88222 12.7354 5.20222 11.6554C5.15441 11.8081 5.12422 11.9658 5.11222 12.1254C5.11222 13.1254 4.67222 13.4054 3.78222 13.4054C2.89222 13.4054 2.41222 13.1054 2.34222 12.2554C2.20222 10.5354 2.10222 8.80538 2.02222 7.07538C1.97222 5.92538 2.02222 4.77538 2.02222 3.62538C2.02222 2.62538 2.34222 2.30538 3.33222 2.32538C4.50222 2.32538 5.57222 2.54538 5.96222 3.62538C6.34222 3.25538 6.65222 2.62538 7.09222 2.55538C8.32222 2.24538 8.50222 3.44538 9.03222 4.33538ZM3.97222 6.76538L4.36222 6.66538C4.51222 7.02538 4.69222 7.37538 4.83222 7.74538C5.28222 9.03538 5.71222 10.3254 6.18222 11.6054C6.46222 12.3554 7.11222 12.2254 7.72222 12.1954C8.33222 12.1654 8.13222 11.6654 8.13222 11.3154C8.13222 10.9654 8.13222 10.5954 8.13222 10.2254C8.05222 8.11538 7.98222 6.00538 7.86222 3.89538C7.86222 3.68538 7.52222 3.49538 7.33222 3.29538C7.21222 3.49538 7.00222 3.69538 6.98222 3.90538C6.89222 5.02538 6.86222 6.14538 6.77222 7.26538C6.71601 7.50413 6.61782 7.73099 6.48222 7.93538C6.28222 7.79538 5.98222 7.69538 5.89222 7.49538C5.71394 7.012 5.56697 6.51764 5.45222 6.01538C5.32249 5.23822 5.09048 4.48165 4.76222 3.76538C4.52222 3.37538 3.76222 3.26538 3.23222 3.12538C3.11222 3.12538 2.76222 3.43538 2.74222 3.62538C2.66421 4.40952 2.63082 5.19745 2.64222 5.98538C2.64222 7.89538 2.77222 9.79538 2.79222 11.6954C2.79222 12.2354 2.97222 12.4754 3.48222 12.5454C3.99222 12.6154 4.18222 12.2654 4.16222 11.8354C4.16222 10.5954 4.05222 9.35538 4.01222 8.11538C3.96222 7.63538 3.97222 7.20538 3.97222 6.76538ZM14.1722 4.96538C14.0915 4.5484 13.9535 4.14458 13.7622 3.76538C13.4342 3.37476 13.0095 3.0769 12.5305 2.90145C12.0516 2.726 11.535 2.67908 11.0322 2.76538C10.5529 2.98766 10.1562 3.35612 9.89933 3.81785C9.64241 4.27959 9.5384 4.81085 9.60222 5.33538C9.60222 5.68538 9.47222 6.28538 10.1922 6.23538C10.9122 6.18538 11.1922 6.05538 11.0922 5.30538C11.0922 5.05538 11.5622 4.76538 11.8322 4.49538C12.0633 4.72 12.2619 4.9758 12.4222 5.25538C12.4861 5.5244 12.4543 5.80727 12.3322 6.05538C11.8522 7.05538 11.3322 8.10538 10.8522 9.15538C10.5392 9.90103 10.2851 10.67 10.0922 11.4554C9.95222 12.0354 10.2222 12.4054 10.8722 12.3554C11.5222 12.3054 12.1922 12.2754 12.8722 12.2154C13.3022 12.2154 13.8722 12.2154 13.8722 11.5754C13.8722 10.9354 13.6222 10.6654 12.9722 10.5754C11.8622 10.4154 11.8622 10.3654 12.4022 9.30538C12.5422 9.03538 12.7122 8.78538 12.8422 8.51538C13.3622 7.39538 14.3722 6.43538 14.1722 4.97538V4.96538ZM9.33222 10.6054L11.0922 7.24538L9.19222 6.76538C9.17606 6.84456 9.17606 6.92619 9.19222 7.00538C9.20222 8.28538 9.27222 9.52538 9.33222 10.6054Z" fill="#0E2043"/>
</svg>
