<svg width="325" height="106" viewBox="0 0 325 106" fill="none" xmlns="http://www.w3.org/2000/svg">
<g clip-path="url(#clip0_7_79)">
<g clip-path="url(#clip1_7_79)">
<path d="M134.64 64.6999C134.64 59.6299 135.77 55.5 138.04 52.34C139.053 50.8155 140.442 49.5776 142.073 48.7457C143.704 47.9137 145.521 47.5157 147.35 47.59C149.035 47.5605 150.696 47.9854 152.16 48.82C153.585 49.7078 154.786 50.9124 155.67 52.34C155.91 50.97 156.14 49.59 156.37 48.18H163.93V80.52C163.93 84.74 162.543 88.0033 159.77 90.31C156.997 92.6166 153.13 93.7866 148.17 93.82C146.411 93.8058 144.66 93.5706 142.96 93.12C141.193 92.7195 139.481 92.1085 137.86 91.3C138.37 89.12 138.86 86.93 139.38 84.74C140.695 85.3639 142.068 85.8563 143.48 86.21C145.002 86.5334 146.554 86.691 148.11 86.68C150.53 86.68 152.31 86.19 153.45 85.21C154.59 84.23 155.153 82.6466 155.14 80.46V77.53C154.238 78.7529 153.052 79.7385 151.684 80.4022C150.317 81.0658 148.809 81.3876 147.29 81.34C145.505 81.4253 143.727 81.0748 142.108 80.3186C140.49 79.5624 139.08 78.4234 138 77C135.727 74.0333 134.593 70.1666 134.6 65.4L134.64 64.6999ZM143.43 65.35C143.311 67.6795 143.793 70.0004 144.83 72.0899C145.318 72.8798 146.014 73.5209 146.84 73.9439C147.667 74.367 148.594 74.5558 149.52 74.49C152.14 74.49 154.013 73.5333 155.14 71.62V57.55C154.611 56.5524 153.804 55.7291 152.818 55.1791C151.831 54.6292 150.707 54.376 149.58 54.45C148.608 54.4033 147.644 54.6452 146.81 55.1453C145.975 55.6453 145.307 56.3811 144.89 57.26C143.819 59.5888 143.319 62.1392 143.43 64.6999V65.35Z" fill="#2083FD"/>
<path d="M248.31 80.34C248.31 85.04 245.627 88.6067 240.26 91.04C236.275 92.5395 232.103 93.4818 227.86 93.84C227.79 93.84 227.49 93.84 226.94 93.69C226.39 93.54 226.23 93.54 226.46 93.54C226.4 93.54 226.09 93.54 225.56 93.44L222.96 93.24C221.797 93.1505 220.643 92.9666 219.51 92.69L218 92.24L215.6 91.64L212.7 90.14C210.615 89.1073 208.774 87.6413 207.3 85.84C203.573 82.8734 200.907 77.9567 199.3 71.09V70.59C199.3 70.16 199.3 69.49 199.18 68.59C199.06 67.69 199.05 67.02 199.05 66.59C199.092 63.9434 199.583 61.323 200.5 58.84C201.04 57.3422 201.657 55.8735 202.35 54.44C202.683 53.7134 203.4 52.2967 204.5 50.19C205.814 47.5811 207.82 45.3841 210.3 43.84H210.25C212.291 42.6511 214.499 41.7747 216.8 41.24L223.8 39.79L223.7 39.84C224.737 39.5296 225.819 39.3944 226.9 39.44C228.247 39.6561 229.582 39.9398 230.9 40.29H230.85C233.731 40.7961 236.298 42.4118 238 44.79C240.125 46.2962 241.665 48.4897 242.36 51C243.179 53.5182 243.584 56.1523 243.56 58.8C243.563 59.7521 243.513 60.7035 243.41 61.65C243.219 63.0654 242.668 64.408 241.81 65.55C240.981 66.7858 239.909 67.8404 238.66 68.65C239.66 69.0767 240.327 69.3767 240.66 69.55C242.017 70.3264 243.193 71.3832 244.11 72.65C246.9 74.71 248.31 77.27 248.31 80.34ZM240.36 70.49C238.787 69.5053 236.966 68.9885 235.11 69C233.203 69.1382 231.33 69.5769 229.56 70.3C227.79 71.0231 225.917 71.4619 224.01 71.6C222.616 71.5932 221.244 71.2502 220.01 70.6C219.884 70.3879 219.815 70.1467 219.81 69.9C220.11 69.4 220.38 69.12 220.61 69.05C227.477 67.95 231.71 67.0834 233.31 66.45C235.548 65.6457 237.439 64.0909 238.66 62.05C239.276 61.1089 239.701 60.0555 239.91 58.95C240.01 57.78 240.06 56.87 240.06 56.2C240.175 52.9339 239.489 49.6893 238.06 46.75C237.313 45.3116 236.25 44.0607 234.952 43.0909C233.653 42.1211 232.151 41.4576 230.56 41.15L226.81 40.35C225.834 40.3653 224.862 40.4826 223.91 40.7C220.61 41.4 218.377 41.8667 217.21 42.1C211.583 43.2734 207.617 46.09 205.31 50.55C203.814 53.2967 202.495 56.1358 201.36 59.05C200.355 61.7322 199.896 64.5881 200.01 67.45C200.11 69.02 200.18 70.18 200.21 70.95C202.21 78.95 205.677 84.1834 210.61 86.65C211.78 87.22 212.74 87.72 213.51 88.15C215.74 88.72 217.41 89.15 218.51 89.4L224.11 89.95C224.326 89.9691 224.538 90.0196 224.74 90.1C224.938 90.181 225.147 90.2316 225.36 90.25C228.36 90.12 232.49 89.17 237.66 87.4C242.433 85.2 244.817 81.9834 244.81 77.75C244.81 74.7367 243.327 72.3167 240.36 70.49V70.49ZM224.16 58.24C222.62 59.61 221.53 60.52 220.89 60.99C220.584 61.0908 220.263 61.1414 219.94 61.14C219.452 61.1315 218.97 61.0253 218.524 60.8278C218.077 60.6303 217.675 60.3455 217.34 59.99C216.979 59.6684 216.688 59.2761 216.485 58.8375C216.282 58.3989 216.172 57.9232 216.16 57.44C216.174 57.1878 216.207 56.937 216.26 56.69C216.638 55.748 217.11 54.8467 217.67 54C217.81 53.87 218.01 53.68 218.3 53.43L218.93 52.85C220.2 53.35 221.29 53.85 222.2 54.25C222.766 54.447 223.265 54.8005 223.639 55.2696C224.012 55.7386 224.245 56.304 224.31 56.9C224.38 57.67 224.33 58.11 224.16 58.24V58.24ZM223.26 57.44V57.29C223.211 57.3054 223.159 57.3054 223.11 57.29L221.56 56.59L220.96 57.19C220.394 58.0196 219.955 58.9298 219.66 59.89V60.19H219.91C220.076 60.2127 220.244 60.2127 220.41 60.19C220.91 59.79 221.33 59.44 221.66 59.14L223.31 57.69C223.31 57.69 223.26 57.54 223.26 57.44V57.44ZM219.71 59.59V59.39C219.696 59.456 219.696 59.5241 219.71 59.59V59.59Z" fill="#012C56"/>
<path d="M48.26 87.37H39.5C32.9 87.37 26.13 78.85 26.13 72.25L25.51 19.25C25.51 12.65 32.9 2.48999 39.51 2.48999H45.95C53.82 2.48999 61.52 15.23 61.52 23.1C61.76 28.98 59.78 33.25 60.02 39.1C60.44 49.57 63.52 32.1 63.52 72.1C63.52 73.68 62.34 78.23 58.37 82.2C55.37 85.21 51.56 87.37 48.26 87.37Z" fill="#2083FD"/>
<path d="M85.5 25.21H79.33C72.7025 25.21 67.33 30.5825 67.33 37.21V72C67.33 78.6274 72.7025 84 79.33 84H85.5C92.1274 84 97.5 78.6274 97.5 72V37.21C97.5 30.5825 92.1274 25.21 85.5 25.21Z" fill="#FF5D31"/>
<path d="M116.51 26.71H112C105.373 26.71 100 32.0825 100 38.71V72C100 78.6274 105.373 84 112 84H116.51C123.137 84 128.51 78.6274 128.51 72V38.71C128.51 32.0825 123.137 26.71 116.51 26.71Z" fill="#FFCD00"/>
<path d="M186.26 9.12H171.76V82.87H186.26V9.12Z" fill="#2BA004"/>
<path d="M198.63 84.5V66.75H178.36V84.5H198.63Z" fill="#2BA004"/>
<path d="M100.44 78.17C98.6501 80.35 97.0201 82.55 95.1501 84.52C94.1696 85.3358 93.0788 86.0091 91.9101 86.52C91.7301 86.62 91.5301 86.67 91.3401 86.76C90.0411 87.5068 88.5897 87.9497 87.0951 88.0554C85.6004 88.161 84.1012 87.9267 82.7101 87.37C81.687 87.0881 80.644 86.8842 79.5901 86.76C75.8755 85.906 72.453 84.0844 69.6701 81.48C68.4801 80.41 67.8501 78.72 67.0001 77.29C66.7608 76.786 66.5602 76.2645 66.4001 75.73C66.123 76.2665 65.8824 76.8211 65.6801 77.39C65.0657 79.6028 63.683 81.5243 61.7801 82.81C59.7301 84.23 58.1201 86.29 55.6001 87.05C50.8201 88.44 46.0001 90.18 41.0001 89.18C38.5177 88.6258 36.1105 87.7764 33.8301 86.65C32.1274 85.8458 30.5723 84.7607 29.2301 83.44C27.9805 82.1789 26.9648 80.7061 26.2301 79.09C25.1503 76.7575 24.2769 74.3349 23.6201 71.85C23.1548 69.6821 22.8208 67.4881 22.6201 65.28C22.4823 64.4354 22.3889 63.5843 22.3401 62.73C22.2701 59.53 22.3401 56.33 22.1701 53.14C21.9785 50.9757 22.012 48.7974 22.2701 46.64C22.4502 44.3669 22.4502 42.0831 22.2701 39.81C22.2701 37.15 22.1401 34.48 22.1701 31.81C22.1701 29.6 22.4201 27.39 22.4901 25.17C22.4901 24.17 22.2301 23.22 22.3501 22.28C22.5359 20.1242 22.9277 17.9911 23.5201 15.91C24.2428 13.355 25.3741 10.9337 26.8701 8.73999C28.6301 6.45999 29.9301 3.59999 32.8701 2.35999C35.4101 1.26999 37.8701 0.159985 40.7901 0.0499854C43.1996 -0.112938 45.6199 0.0112677 48.0001 0.419985C51.995 1.20276 55.5699 3.4095 58.0601 6.62999C59.4292 8.21785 60.654 9.92461 61.7201 11.73C62.5885 13.4555 63.1888 15.3035 63.5001 17.21C64.0081 20.2048 64.3419 23.2265 64.5001 26.26C64.5091 27.9877 64.3787 29.7133 64.1101 31.42C64.0501 32.6852 63.8829 33.9431 63.6101 35.18C63.1987 36.2877 62.6935 37.3582 62.1001 38.38L64.1001 40.15C64.5201 38.15 64.9001 36.31 65.3401 34.45C65.7727 31.838 66.9221 29.3973 68.6601 27.4C70.4102 25.7657 72.3046 24.293 74.3201 23C74.95 22.7303 75.6387 22.627 76.3201 22.7C78.5701 22.58 80.8301 22.39 83.0901 22.45C85.8064 22.618 88.4309 23.4974 90.7001 25C93.5501 26.7 95.0001 29.58 97.0101 32C97.4301 32.5 97.8001 33 98.3201 33.75C99.1001 29.98 101.42 27.43 104.18 25.35C105.469 24.2793 106.976 23.502 108.596 23.072C110.216 22.642 111.91 22.5697 113.56 22.86C114.27 23 115.03 22.86 115.76 22.95C118.383 23.2603 120.886 24.2229 123.04 25.75C125.224 27.1696 127.037 29.0893 128.33 31.35C128.908 32.564 129.338 33.8432 129.61 35.16C130.07 36.81 130.47 38.49 130.8 40.16C130.931 41.0581 131.011 41.9629 131.04 42.87C131.011 43.2384 131.069 43.6085 131.21 43.95C132.46 45.75 132.41 47.81 132.52 49.87C132.75 54.5 133.1 59.13 133.27 63.77C133.22 65.3517 133.067 66.9284 132.81 68.49C132.723 70.4437 132.52 72.3906 132.2 74.32C131.67 76.69 131.14 79.12 129.43 81.05C128.657 82.1408 127.798 83.1674 126.86 84.12C125.678 85.0521 124.346 85.7758 122.92 86.26C121.062 86.8994 119.136 87.3189 117.18 87.51C115.167 87.7773 113.121 87.4286 111.31 86.51C110.37 86 109.24 85.84 108.25 85.41C106.028 84.3144 104.104 82.6986 102.64 80.7C101.89 79.76 101.08 78.89 100.44 78.17ZM27.6801 57.89H27.4501C27.5901 60.15 27.7801 62.41 27.8701 64.67C28.0001 68.36 29.1601 71.82 30.2601 75.25C30.7106 76.699 31.4849 78.0264 32.5245 79.1318C33.564 80.2371 34.8414 81.0914 36.2601 81.63C37.7383 82.3173 39.2742 82.8727 40.8501 83.29C42.6014 83.7246 44.4136 83.8599 46.2101 83.69C48.3814 83.2347 50.5118 82.6025 52.5801 81.8C53.3534 81.5856 54.0961 81.2731 54.7901 80.87C55.6801 80.29 56.4601 79.53 57.3001 78.87C58.4601 77.95 59.8101 77.14 60.1201 75.57C60.6401 72.96 61.0401 70.32 61.4201 67.69C61.6001 66.43 61.6701 65.16 61.7301 63.89C61.8301 61.68 61.8801 59.47 61.9401 57.26C62.0499 55.7492 62.07 54.2332 62.0001 52.72C61.8501 51.15 61.4101 49.61 61.1201 48.05C60.5201 44.8 60.1201 44.48 56.7501 43.97C53.2908 43.4623 49.7687 43.5775 46.3501 44.31C45.6364 44.3513 44.9679 44.673 44.4903 45.2049C44.0127 45.7369 43.7646 46.436 43.8001 47.15C43.6401 48.82 43.5001 50.49 43.3301 52.15C43.2742 52.3989 43.2754 52.6573 43.3336 52.9057C43.3918 53.1542 43.5055 53.3862 43.6662 53.5844C43.8269 53.7826 44.0304 53.9418 44.2614 54.0502C44.4924 54.1585 44.7449 54.2132 45.0001 54.21C45.5001 54.27 46.0001 54.21 46.4801 54.33C48.6501 54.65 50.5801 56.33 50.2501 58.57C49.8301 61.36 49.1801 64.13 48.7801 66.92C48.4501 69.28 46.9601 70.58 45.0201 71.58C42.6801 72.78 38.6601 71.35 37.9201 68.91C37.5062 67.2952 37.1989 65.655 37.0001 64C36.9782 63.664 37.0086 63.3267 37.0901 63C37.2801 61.76 37.6001 60.53 37.6701 59.29C37.8001 56.72 37.7901 54.14 37.8701 51.57C37.9401 49.23 38.0901 46.88 38.1401 44.57C38.2101 41.34 38.1401 38.1 38.2701 34.87C38.3501 31.95 38.4501 29.03 38.7101 26.13C38.9246 24.3463 39.2587 22.5789 39.7101 20.84C39.9267 20.1405 40.2254 19.4692 40.6001 18.84C41.1101 17.84 41.7601 16.92 42.9401 16.84C43.4968 16.7149 44.078 16.7563 44.6114 16.959C45.1448 17.1617 45.6069 17.5168 45.9401 17.98C46.8841 19.7093 47.3986 21.6402 47.4401 23.61C47.6001 26.52 47.6301 29.44 47.8401 32.35C47.8258 32.6962 47.8883 33.0413 48.0231 33.3605C48.1579 33.6797 48.3616 33.9652 48.6196 34.1965C48.8776 34.4277 49.1836 34.5991 49.5156 34.6982C49.8476 34.7974 50.1975 34.8219 50.5401 34.77C52.7301 34.77 54.9201 34.61 57.1001 34.46C57.3211 34.4481 57.537 34.3894 57.7336 34.2877C57.9301 34.1859 58.1028 34.0436 58.2401 33.87C59.0101 32.33 60.2401 30.87 59.7801 28.97C59.7448 28.2738 59.7448 27.5762 59.7801 26.88C59.5301 24.26 59.4101 21.61 58.9001 19.03C58.4701 16.8 57.9001 14.53 56.1901 12.78C55.5057 12.0748 54.9143 11.2851 54.4301 10.43C53.0001 7.99999 50.5701 7.09999 48.1901 6.17999C45.6101 5.17999 42.9101 5.40999 40.2501 5.57999C38.9329 5.61555 37.6407 5.94677 36.4688 6.54914C35.297 7.1515 34.2755 8.00961 33.4801 9.05999C33.0901 9.58999 32.7801 10.17 32.4101 10.72C31.3201 12.34 29.8501 13.83 29.2201 15.61C28.0743 18.4078 27.5424 21.4189 27.6601 24.44C27.6838 26.2733 27.5634 28.1056 27.3001 29.92C27.2901 30.0798 27.2901 30.2401 27.3001 30.4C27.3601 32.11 27.4801 33.83 27.4801 35.55C27.4801 37.8 27.3701 40.05 27.3501 42.3C27.3301 44.55 27.3501 46.57 27.3501 48.71C27.3501 49.18 27.2201 49.66 27.2501 50.13C27.3901 52.72 27.5401 55.31 27.6801 57.89ZM92.2801 40H92.4601C92.4601 39.59 92.4601 39.17 92.4601 38.76C92.5798 36.1656 91.8185 33.607 90.3001 31.5C89.4363 30.3251 88.3448 29.3362 87.0906 28.5923C85.8364 27.8484 84.4452 27.3647 83.0001 27.17C81.8009 26.9716 80.5825 26.9146 79.3701 27C78.0503 26.9649 76.7353 27.1716 75.4901 27.61C74.0228 28.2154 72.7251 29.1692 71.7093 30.3889C70.6934 31.6086 69.9901 33.0574 69.6601 34.61C69.1401 37.09 68.6601 39.61 68.2701 42.07C68.2669 42.4665 68.3071 42.8622 68.3901 43.25C68.4801 44.64 68.5901 46.03 68.6001 47.42C68.6001 50.23 68.5001 53.05 68.6001 55.86C68.6801 58.19 69.5301 60.61 69.1001 62.81C68.4901 65.97 69.0401 68.96 69.4701 71.95C69.7301 73.71 70.9301 75.35 71.7401 77.02C72.4301 78.44 73.8901 78.93 75.1401 79.56C76.6193 80.341 78.2068 80.8971 79.8501 81.21C81.6857 81.4949 83.5544 81.4949 85.3901 81.21C86.2121 81.1653 87.015 80.9449 87.7447 80.5637C88.4744 80.1825 89.1139 79.6493 89.6201 79C91.3121 76.2875 92.2924 73.192 92.4701 70C92.6601 67.54 92.6501 65.07 92.6801 62.61C92.7101 60.15 92.6801 57.54 92.6801 55.01C92.6801 53.34 92.9501 51.67 92.8801 50.01C92.7801 46.66 92.5001 43.32 92.2801 40ZM113.28 27.5C112.224 27.4446 111.166 27.4446 110.11 27.5C107.84 27.74 106.48 29.5 105 30.9C104.224 31.5801 103.603 32.419 103.18 33.36C101.26 38.45 101.5 43.8 101.49 49.11C101.49 52.26 101.57 55.41 101.64 58.56C101.642 59.4636 101.708 60.366 101.84 61.26C102 62.26 102.35 63.13 102.51 64.08C102.91 66.42 103.18 68.79 103.65 71.08C104.015 72.7549 104.827 74.2996 106 75.55C107.96 77.9957 110.58 79.8281 113.55 80.83C114.932 81.3227 116.41 81.4889 117.867 81.3154C119.325 81.1419 120.722 80.6335 121.95 79.83C122.63 79.285 123.189 78.6037 123.59 77.83C124.331 76.8771 124.891 75.7957 125.24 74.64C125.568 72.3637 125.755 70.0693 125.8 67.77C125.95 64.85 126.09 61.93 126.08 59.01C126.08 55.4766 125.96 51.95 125.72 48.43C125.48 44.43 125.8 40.36 124.84 36.35C124.373 33.7514 122.945 31.4237 120.84 29.83C118.53 28.25 116.09 27 113.28 27.47V27.5ZM42.8501 65.79L43.3501 65.89C43.7001 64.07 44.0901 62.26 44.3501 60.43C44.3501 60.14 43.8701 59.78 43.6101 59.43C43.3601 59.76 42.8901 60.08 42.8701 60.43C42.8101 62.22 42.8501 64 42.8501 65.79ZM44.7501 37.94C44.3501 36.94 43.9801 36.19 43.7001 35.38C43.4201 34.57 43.2601 33.78 43.0401 32.98L42.6401 33.05L43.2001 38.39L44.7501 37.94Z" fill="#0E2043"/>
<path d="M190.22 62.08C192.687 62.4119 195.129 62.9063 197.53 63.56C198.868 63.9179 200.068 64.6683 200.975 65.7146C201.882 66.7609 202.455 68.055 202.62 69.43C202.77 70.52 203.77 71.43 204.01 72.56C204.46 74.56 204.67 76.65 204.93 78.71C205.357 81.4342 204.879 84.2232 203.57 86.65C203.162 87.4117 202.576 88.0639 201.862 88.5513C201.149 89.0386 200.328 89.3469 199.47 89.45C196.9 89.72 194.31 89.75 191.72 89.85C190.02 89.92 188.32 89.85 186.63 89.99C184.01 90.1383 181.394 89.6547 179 88.58C177.831 88.0829 176.61 87.7173 175.36 87.49C173.501 87.2087 171.811 86.253 170.612 84.8051C169.414 83.3572 168.79 81.5185 168.86 79.64C168.861 76.462 168.677 73.2867 168.31 70.13C168.16 67.97 167.89 65.81 167.85 63.65C167.85 61.2 168 58.74 167.99 56.29C168.132 53.1602 168.088 50.0247 167.86 46.9C167.74 44.6643 167.76 42.4233 167.92 40.19C167.92 38.79 167.82 37.39 167.74 35.99C167.56 32.99 167.25 29.94 167.2 26.91C167.15 23.88 167.32 20.91 167.48 17.91C167.572 15.6331 167.789 13.363 168.13 11.11C168.373 10.1682 168.863 9.30845 169.55 8.62002C170.298 7.6481 171.259 6.86116 172.36 6.32002C174.69 5.51002 176.8 4.11002 179.6 4.53002C181.217 4.71797 182.752 5.34081 184.043 6.33222C185.334 7.32363 186.332 8.64651 186.93 10.16C187.57 11.9289 187.947 13.7819 188.05 15.66C188.32 17.86 188.43 20.08 188.55 22.29C188.69 24.94 188.78 27.6 188.88 30.29C189.02 33.94 189.17 37.58 189.27 41.23C189.33 43.44 189.22 45.66 189.35 47.87C189.53 50.94 189.86 54 190.11 57.07C190.18 57.92 190.2 58.78 190.21 59.64C190.22 60.5 190.22 61.28 190.22 62.08ZM171.76 77.23L174.29 80C174.63 80.36 174.92 80.87 175.29 81C176.617 81.5445 178.02 81.8818 179.45 82C183.39 81.94 187.28 82.91 191.28 82.1C193.19 81.71 194.93 81.44 196.45 80.1C196.751 79.8999 196.984 79.6128 197.118 79.277C197.252 78.9412 197.281 78.5725 197.2 78.22C196.97 76.52 196.95 74.8 196.76 73.09C196.657 72.0108 196.456 70.9431 196.16 69.9C196.07 69.59 195.52 69.32 195.16 69.22C192.62 68.58 190.05 68.04 187.53 67.36C187.031 67.2071 186.571 66.9497 186.179 66.6048C185.788 66.2599 185.475 65.8356 185.26 65.36C183.84 62.72 184.55 59.88 184.26 57.14C184.08 55.27 184.16 53.38 184.06 51.5C183.95 49.45 183.71 47.41 183.64 45.36C183.64 44.27 183.85 43.17 183.84 42.07C183.84 39.29 183.69 36.51 183.62 33.72C183.62 32.13 183.62 30.53 183.53 28.93C183.33 25.66 183.09 22.39 182.84 19.12C182.69 17.12 182.63 15.12 182.29 13.12C181.93 10.98 179.72 9.33002 177.96 9.66002C176.858 9.81298 175.776 10.0811 174.73 10.46C173.73 10.88 172.38 11.15 172.21 12.54C172.01 14.25 171.92 15.97 171.88 17.69C171.88 19.74 171.88 21.79 171.88 23.85C171.88 26.58 171.8 29.32 171.88 32.05C171.94 34.05 172.28 35.98 172.36 37.94C172.51 41.75 171.78 45.56 172.6 49.38C172.714 50.7369 172.674 52.1023 172.48 53.45C172.4 58.05 172.39 62.65 172.25 67.25C172.17 70.8 171.92 74.24 171.76 77.23Z" fill="#0E2043"/>
<path d="M81.58 70.73C78.63 69.73 78.06 68.73 77.58 65.66C77.1111 62.2412 76.9804 58.7845 77.19 55.34C77.27 52.68 77.76 50.03 77.93 47.34C78.1 44.65 78.21 42.01 78.15 39.34C78.15 37.54 78.79 36.11 80.27 35.75C80.6483 35.6808 81.0366 35.6871 81.4125 35.7683C81.7883 35.8496 82.1445 36.0043 82.4604 36.2236C82.7763 36.4429 83.0458 36.7224 83.2534 37.0462C83.461 37.3699 83.6026 37.7314 83.67 38.11C84.6609 41.7598 85.0726 45.5425 84.89 49.32C84.78 50.6 85.29 51.92 85.32 53.24C85.32 54.82 85.16 56.41 85.13 58C85.13 59.19 85.34 60.38 85.23 61.56C85.01 63.92 84.67 66.27 84.3 68.62C84.17 69.47 83.73 70.13 82.61 69.98C82.29 70 81.93 70.46 81.58 70.73Z" fill="#0E2043"/>
<path d="M116.15 40.39C116.37 42.84 116.61 45.29 116.8 47.74C116.97 49.99 117.07 52.24 117.21 54.49C117.36 56.9 117.64 59.32 117.66 61.73C117.66 64.0122 117.53 66.2926 117.27 68.56C117.13 69.91 114.42 71.45 113.52 70.73C112.46 69.88 111.25 69.06 110.88 67.63C110.497 66.2569 110.223 64.8559 110.06 63.44C109.82 61.06 109.69 58.67 109.6 56.29C109.6 55.2 109.75 54.11 109.73 53.03C109.67 49.22 109.5 45.41 109.52 41.61C109.558 39.9731 109.783 38.3459 110.19 36.76C110.49 35.55 112.36 34.51 113.29 34.93C113.991 35.1993 114.589 35.6821 115 36.31C115.58 37.6108 116.078 38.9467 116.49 40.31L116.15 40.39Z" fill="#0E2043"/>
<path d="M264.75 48.2H264.82L269.75 32.88H276.65V55.16H272.06V39.37H272L266.53 55.16H262.76L257.29 39.53H257.23V55.16H252.64V32.88H259.54L264.75 48.2Z" fill="#0E2043"/>
<path d="M292.19 39.76C293.375 40.536 294.313 41.6363 294.89 42.93C295.519 44.3208 295.834 45.8335 295.81 47.36V48.17H284.14C284.099 49.2957 284.476 50.3967 285.2 51.26C285.584 51.6157 286.036 51.8881 286.53 52.0602C287.024 52.2323 287.549 52.3003 288.07 52.26C288.603 52.2629 289.132 52.168 289.63 51.98C290.101 51.8089 290.535 51.5512 290.91 51.22C291.225 50.9542 291.463 50.6089 291.6 50.22H295.5C295.056 51.8501 294.085 53.2878 292.74 54.31C291.331 55.2196 289.675 55.6703 288 55.6C286.466 55.6389 284.95 55.2659 283.61 54.52C282.384 53.821 281.39 52.778 280.75 51.52C280.069 50.1545 279.726 48.6455 279.75 47.12C279.713 45.609 280.057 44.113 280.75 42.77C281.421 41.4989 282.432 40.4395 283.67 39.71C284.982 38.9436 286.481 38.5559 288 38.59C289.481 38.5592 290.939 38.9662 292.19 39.76V39.76ZM290.19 42.76C289.529 42.1834 288.666 41.8922 287.79 41.95C286.858 41.9034 285.945 42.2268 285.25 42.85C284.579 43.5264 284.183 44.4281 284.14 45.38H291.35C291.254 44.3991 290.847 43.4744 290.19 42.74V42.76Z" fill="#0E2043"/>
<path d="M310.11 39.76C311.293 40.539 312.229 41.6385 312.81 42.93C313.435 44.3224 313.749 45.8341 313.73 47.36V48.17H302.06C302.019 49.2957 302.396 50.3967 303.12 51.26C303.503 51.6157 303.956 51.8882 304.45 52.0603C304.944 52.2324 305.469 52.3004 305.99 52.26C306.523 52.263 307.052 52.1681 307.55 51.98C308.02 51.8077 308.454 51.5501 308.83 51.22C309.142 50.9514 309.38 50.607 309.52 50.22H313.42C312.968 51.8467 311.999 53.2822 310.66 54.31C309.24 55.2488 307.561 55.7175 305.86 55.65C304.33 55.6876 302.817 55.3147 301.48 54.57C300.254 53.871 299.26 52.828 298.62 51.57C297.94 50.2044 297.597 48.6955 297.62 47.17C297.598 45.6547 297.959 44.1585 298.67 42.82C299.341 41.549 300.352 40.4895 301.59 39.76C302.885 39.0073 304.362 38.6235 305.86 38.65C307.355 38.5912 308.834 38.9775 310.11 39.76V39.76ZM308.11 42.76C307.448 42.1834 306.586 41.8922 305.71 41.95C304.775 41.9051 303.86 42.2282 303.16 42.85C302.496 43.5301 302.104 44.4304 302.06 45.38H309.27C309.169 44.4004 308.763 43.4771 308.11 42.74V42.76Z" fill="#0E2043"/>
<path d="M321.94 38.9999H325.19V41.9999H321.94V49.9999C321.923 50.3957 321.973 50.7914 322.09 51.1699C322.14 51.2937 322.215 51.4061 322.309 51.5006C322.404 51.5951 322.516 51.6697 322.64 51.7199C323.018 51.8411 323.414 51.8953 323.81 51.8799C324.273 51.8884 324.736 51.8448 325.19 51.7499V55.1999C324.318 55.3152 323.439 55.3653 322.56 55.3499C321.219 55.4494 319.88 55.1391 318.72 54.4599C318.291 54.0952 317.956 53.6316 317.745 53.1091C317.535 52.5865 317.454 52.0206 317.51 51.4599V41.9999H314.82V38.9999H317.51V34.1899H321.94V38.9999Z" fill="#0E2043"/>
</g>
</g>
<defs>
<clipPath id="clip0_7_79">
<rect width="325" height="106" fill="white"/>
</clipPath>
<clipPath id="clip1_7_79">
<rect width="303.19" height="93.84" fill="white" transform="translate(22)"/>
</clipPath>
</defs>
</svg>
