<svg width="43" height="45" viewBox="0 0 43 45" fill="none" xmlns="http://www.w3.org/2000/svg">
<g clip-path="url(#clip0_17_24)">
<path d="M25.4601 12.8499C24.6779 12.9106 23.8923 12.9106 23.1101 12.8499C22.3593 12.6887 21.6208 12.4748 20.9001 12.2099C20.9001 13.4499 20.8201 14.8999 20.9001 16.3399C21.1182 18.8232 21.0914 21.3219 20.8201 23.7999C20.6201 25.3299 20.5001 26.8599 20.3801 28.3999C20.1837 30.0005 19.5318 31.5111 18.5018 32.7521C17.4719 33.993 16.1072 34.912 14.5701 35.3999C13.0037 35.6941 11.3836 35.4212 10.0001 34.6299C8.42036 33.766 7.05371 32.5599 6.00011 31.0999C4.63635 29.427 3.7855 27.3954 3.55011 25.2499C3.45011 24.5599 3.21011 23.8899 3.15011 23.1999C3.03025 21.9804 2.98017 20.7551 3.00011 19.5299C3.08011 17.7699 3.27011 15.9999 3.40011 14.2499C3.40011 13.5899 3.40011 12.9299 3.50011 12.2499C3.89036 9.23155 5.10093 6.37806 7.00011 3.99988C7.52829 3.28771 8.24678 2.73909 9.07292 2.41712C9.89906 2.09516 10.7993 2.01292 11.6701 2.17988C12.4801 2.32988 13.3101 2.41988 14.1001 2.63988C15.8698 3.15724 17.4064 4.26999 18.4501 5.78988C18.5301 5.89988 18.6101 5.98988 18.8001 6.21988C18.8119 5.61505 18.8788 5.01255 19.0001 4.41988C19.1475 3.87508 19.4456 3.3829 19.8601 2.99988C20.5414 2.41734 21.414 2.10745 22.3101 2.12988C23.0801 2.12988 23.8501 1.97988 24.6101 1.99988C25.8001 1.99988 27.0001 2.17988 28.1701 2.22988C28.6101 2.22988 29.0501 2.07988 29.4801 2.10988C30.8038 2.06959 32.1249 2.24868 33.3901 2.63988C33.8454 2.79661 34.2607 3.05167 34.6063 3.38696C34.952 3.72224 35.2196 4.12953 35.3901 4.57988C35.5001 4.86988 35.8601 5.05988 35.9901 5.34988C36.4064 5.97699 36.6826 6.68642 36.8001 7.42988C36.7282 9.2972 36.5345 11.1578 36.2201 12.9999C35.8701 15.2599 35.4001 17.5099 34.9501 19.7599C34.6701 21.1699 34.3101 22.5599 34.0101 23.9599C33.7101 25.3599 33.3801 27.0199 33.0101 28.5499C32.6401 30.0799 32.3401 31.5499 32.0101 33.0399C31.8737 33.6304 31.6898 34.209 31.4601 34.7699C30.9401 35.9899 29.8401 36.1699 28.7001 36.1699C27.8201 36.1699 26.9501 36.0399 26.0701 35.9999C25.6803 35.9673 25.3015 35.8545 24.9573 35.6687C24.6132 35.4828 24.3111 35.2279 24.0701 34.9199C23.3531 34.2159 22.7251 33.4267 22.2001 32.5699C21.971 31.9521 21.9327 31.2797 22.0901 30.6399C22.2601 29.4499 22.5901 28.2799 22.8101 27.0899C22.9701 26.2099 23.0501 25.3099 23.2101 24.4299C23.5101 22.7432 23.8434 21.0532 24.2101 19.3599C24.6001 17.3599 25.0301 15.4499 25.4401 13.4899C25.4635 13.2774 25.4702 13.0634 25.4601 12.8499V12.8499ZM10.9401 3.71988C10.4146 3.73078 9.89833 3.85954 9.42929 4.09666C8.96024 4.33377 8.55043 4.6732 8.23011 5.08988C7.57622 5.83592 7.03698 6.67511 6.63011 7.57988C5.71789 9.41425 5.1872 11.4146 5.07011 13.4599C5.01011 15.3299 4.81011 17.1899 4.70011 19.0599C4.62953 21.3289 4.85136 23.5975 5.36011 25.8099C5.83246 28.0074 7.03857 29.9788 8.78011 31.3999C9.55267 31.8788 10.4412 32.1381 11.3501 32.1499C12.1841 32.3501 13.0581 32.3068 13.8682 32.0249C14.6783 31.7431 15.3905 31.2346 15.9201 30.5599C17.1201 29.1399 17.1901 27.3499 17.3901 25.6399C17.5701 24.2099 17.5701 22.7499 17.6601 21.3099C17.7301 20.1699 17.8601 19.0299 17.8601 17.8899C17.8601 16.1699 17.7801 14.4599 17.7101 12.7399C17.7101 11.7399 17.6301 10.6799 17.5201 9.65988C17.3266 8.85835 17.0379 8.08284 16.6601 7.34988C16.1395 6.28691 15.408 5.34103 14.5101 4.56988C13.7301 3.68988 12.5101 3.79988 10.9401 3.71988ZM20.2301 6.55988C20.2301 6.94988 20.2801 7.34988 20.3001 7.74988C20.3001 8.32988 20.5401 8.74988 21.1701 8.74988C22.1701 8.74988 23.1101 8.74988 24.0801 8.74988C24.7601 8.74988 25.4401 8.82988 26.0801 8.74988C27.1401 8.64988 27.8601 9.22988 27.7001 10.2599C27.4701 11.8299 27.1401 13.3799 26.8301 14.9299C26.5501 16.2499 26.2201 17.5599 25.9501 18.8799C25.7201 19.9999 25.5501 21.1199 25.3501 22.2399C25.1901 23.1599 25.0001 24.0899 24.8401 25.0099C24.6801 25.9299 24.6001 26.6599 24.4501 27.4799C24.2301 28.6499 23.9601 29.8199 23.7401 30.9899C23.6501 31.4599 23.7401 31.8299 24.3401 31.8899C25.4101 32.0199 26.4901 32.1199 27.5601 32.2699C27.7192 32.314 27.8892 32.2949 28.0345 32.2167C28.1799 32.1384 28.2894 32.007 28.3401 31.8499C28.5701 31.3499 28.7901 30.8499 29.0101 30.3599C29.6059 28.8464 30.0254 27.2694 30.2601 25.6599C30.5601 24.1299 30.9001 22.6099 31.2601 21.0899C31.5101 19.9699 31.8101 18.8599 32.0401 17.7399C32.2701 16.6199 32.3101 15.4899 32.6301 14.4199C33.2049 12.3625 33.4942 10.236 33.4901 8.09988C33.4725 7.55672 33.5161 7.01329 33.6201 6.47988C33.7209 6.01937 33.6557 5.53806 33.4362 5.12091C33.2166 4.70375 32.8568 4.37755 32.4201 4.19988C31.632 3.98856 30.8122 3.92081 30.0001 3.99988C28.7085 4.0687 27.4134 4.02184 26.1301 3.85988C24.7901 3.85988 23.4601 3.85988 22.1301 3.98988C21.9183 3.99 21.7087 4.03355 21.5143 4.11782C21.32 4.2021 21.145 4.32532 21.0001 4.47988C20.6301 5.08988 20.0001 5.65988 20.2301 6.55988Z" fill="#0E2043"/>
<path d="M13.64 13.51C13.64 15.26 13.74 17.02 13.64 18.76C13.5 20.76 13.16 22.76 12.89 24.76C12.81 25.29 12.52 25.89 11.97 25.76C11.6988 25.7051 11.4428 25.5917 11.22 25.4276C10.9972 25.2635 10.8129 25.0527 10.68 24.81C10.1176 23.682 9.85252 22.4291 9.91004 21.17C9.92631 20.2322 9.89293 19.2942 9.81004 18.36C9.81004 16.52 9.62004 14.65 10.29 12.85C10.65 11.9 10.9 10.91 11.29 9.94998C11.3382 9.84219 11.4078 9.74533 11.4946 9.66529C11.5813 9.58525 11.6835 9.52371 11.7948 9.48441C11.9062 9.44512 12.0243 9.4289 12.1421 9.43673C12.2599 9.44457 12.3749 9.47629 12.48 9.52998C12.6518 9.61072 12.8042 9.72755 12.9267 9.87251C13.0492 10.0175 13.139 10.1872 13.19 10.37C13.4 11.37 13.49 12.45 13.62 13.5L13.64 13.51Z" fill="#0E2043"/>
<path d="M3.90002 43.0001C3.65223 42.8969 3.43771 42.7273 3.28002 42.5101C3.13135 42.2999 3.05421 42.0475 3.06002 41.7901C3.04966 41.687 3.04966 41.5832 3.06002 41.4801C3.07617 41.3884 3.09958 41.2981 3.13002 41.2101H4.13002C4.0891 41.3463 4.06887 41.4879 4.07002 41.6301C4.06262 41.7337 4.07655 41.8378 4.11095 41.9358C4.14535 42.0338 4.19949 42.1238 4.27002 42.2001C4.34176 42.2683 4.42663 42.3212 4.51946 42.3556C4.61229 42.39 4.71115 42.4051 4.81002 42.4001C4.93759 42.3997 5.06365 42.3724 5.18002 42.3201C5.29057 42.2577 5.38347 42.1682 5.45002 42.0601C5.51564 41.9406 5.55004 41.8064 5.55002 41.6701C5.54958 41.5425 5.52232 41.4164 5.47002 41.3001C5.42304 41.1832 5.34738 41.08 5.25002 41.0001C5.13725 40.9357 5.00987 40.9013 4.88002 40.9001H4.64002V40.1801H4.87002C4.94995 40.1868 5.03035 40.175 5.10495 40.1455C5.17955 40.116 5.24631 40.0697 5.30002 40.0101C5.38096 39.9104 5.43153 39.7895 5.44572 39.6618C5.4599 39.5342 5.43709 39.4051 5.38002 39.2901C5.32526 39.2003 5.24983 39.1248 5.16002 39.0701C5.05938 39.0146 4.94452 38.9902 4.83002 39.0001C4.7145 38.9932 4.59957 39.0211 4.50002 39.0801C4.40595 39.1292 4.32918 39.206 4.28002 39.3001C4.23096 39.3995 4.20693 39.5093 4.21002 39.6201C4.20292 39.7033 4.20292 39.7869 4.21002 39.8701H3.21002C3.19112 39.7508 3.19112 39.6293 3.21002 39.5101C3.20929 39.2797 3.28294 39.0552 3.42002 38.8701C3.57187 38.6731 3.77151 38.5182 4.00002 38.4201C4.26679 38.2997 4.55746 38.2416 4.85002 38.2501C5.13156 38.2451 5.41099 38.2996 5.67002 38.4101C5.89964 38.5157 6.09907 38.6773 6.25002 38.8801C6.38737 39.0727 6.46082 39.3035 6.46002 39.5401C6.46453 39.7697 6.40198 39.9955 6.28002 40.1901C6.17812 40.3647 6.01921 40.4989 5.83002 40.5701V40.5701C5.97325 40.6202 6.1032 40.7023 6.21002 40.8101C6.33091 40.9257 6.42628 41.0654 6.49002 41.2201C6.56474 41.3972 6.60219 41.5878 6.60002 41.7801C6.60301 42.0402 6.51849 42.2938 6.36002 42.5001C6.19467 42.718 5.97356 42.8873 5.72002 42.9901C5.4361 43.113 5.12936 43.1743 4.82002 43.1701C4.50464 43.181 4.19067 43.123 3.90002 43.0001V43.0001Z" fill="#161449"/>
<path d="M11.09 42.0999C11.184 41.7204 11.231 41.3308 11.23 40.9399V39.9999C11.2451 39.7583 11.1968 39.517 11.09 39.2999C11.0587 39.2151 11.0031 39.1415 10.9302 39.0881C10.8573 39.0348 10.7703 39.0041 10.68 38.9999C10.6099 38.9982 10.5404 39.0138 10.4776 39.0452C10.4149 39.0765 10.3608 39.1228 10.32 39.1799C10.2233 39.3427 10.178 39.5309 10.19 39.7199V41.7199H9.25V39.7199C9.26205 39.5309 9.21674 39.3427 9.12 39.1799C9.07923 39.1228 9.02511 39.0765 8.96236 39.0452C8.89961 39.0138 8.83014 38.9982 8.76 38.9999C8.67857 38.9974 8.59806 39.0176 8.52744 39.0582C8.45681 39.0988 8.39885 39.1583 8.36 39.2299C8.24779 39.4418 8.19591 39.6805 8.21 39.9199V40.9199C8.2109 41.3101 8.25449 41.6991 8.34 42.0799C8.41088 42.4275 8.52862 42.7639 8.69 43.0799H7.69C7.59121 42.9018 7.51079 42.7142 7.45 42.5199C7.36669 42.2726 7.30644 42.0182 7.27 41.7599C7.22701 41.4819 7.20362 41.2012 7.2 40.9199V39.9199C7.19784 39.6129 7.26269 39.3092 7.39 39.0299C7.50458 38.7857 7.68457 38.578 7.91 38.4299C8.13216 38.2931 8.38919 38.2236 8.65 38.2299C8.87568 38.226 9.09886 38.2775 9.3 38.3799C9.49152 38.4815 9.64046 38.6482 9.72 38.8499V38.8499C9.80568 38.652 9.953 38.4872 10.14 38.3799C10.3616 38.2736 10.6056 38.2227 10.8512 38.2314C11.0967 38.2401 11.3365 38.3082 11.55 38.4299C11.7747 38.5716 11.9523 38.777 12.06 39.0199C12.1894 39.302 12.2543 39.6095 12.25 39.9199V40.9199C12.2464 41.2012 12.223 41.4819 12.18 41.7599C12.1436 42.0182 12.0833 42.2726 12 42.5199C11.9404 42.7162 11.8564 42.9044 11.75 43.0799H10.75C10.9134 42.7728 11.0281 42.4422 11.09 42.0999V42.0999Z" fill="#161449"/>
<path d="M16.55 42.3201C16.6319 42.0477 16.6723 41.7645 16.67 41.4801C16.6842 41.2579 16.6357 41.0361 16.53 40.8401C16.4919 40.776 16.4377 40.723 16.3728 40.6861C16.308 40.6493 16.2346 40.63 16.16 40.6301C16.0963 40.6265 16.0327 40.6405 15.9763 40.6705C15.9199 40.7004 15.8728 40.7453 15.84 40.8001C15.7524 40.9406 15.7104 41.1048 15.72 41.2701V42.2701H14.82V41.2701C14.8279 41.1063 14.7898 40.9435 14.71 40.8001C14.6765 40.746 14.6292 40.7018 14.573 40.6719C14.5168 40.642 14.4536 40.6276 14.39 40.6301C14.3175 40.6288 14.2457 40.6455 14.1812 40.6786C14.1166 40.7118 14.0613 40.7604 14.02 40.8201C13.9087 41.0176 13.8598 41.2443 13.88 41.4701C13.8752 42.0371 14.0275 42.5944 14.32 43.0801H13.32C13.1544 42.8292 13.0327 42.5519 12.96 42.2601C12.8715 41.8732 12.8312 41.4769 12.84 41.0801C12.789 40.4675 12.9832 39.8596 13.38 39.3901C13.7718 39.0038 14.276 38.7517 14.82 38.6701L15.37 38.5601C15.4537 38.5518 15.5351 38.5281 15.61 38.4901C15.6379 38.4779 15.663 38.4601 15.6837 38.4377C15.7043 38.4153 15.7201 38.3889 15.73 38.3601H16.73C16.7093 38.5945 16.6066 38.814 16.44 38.9801C16.2184 39.1633 15.9464 39.2749 15.66 39.3001L15.09 39.3801C14.7428 39.4257 14.4051 39.527 14.09 39.6801C13.9643 39.7375 13.8536 39.8234 13.7668 39.9311C13.68 40.0387 13.6195 40.165 13.59 40.3001C13.6942 40.162 13.8369 40.0576 14 40.0001C14.1372 39.9337 14.2877 39.8995 14.44 39.9001C14.6099 39.9016 14.776 39.95 14.92 40.0401C15.0735 40.1449 15.1947 40.2903 15.27 40.4601V40.4601C15.3616 40.2822 15.5044 40.1359 15.68 40.0401C15.8695 39.9459 16.0785 39.898 16.29 39.9001C16.5319 39.8981 16.77 39.9603 16.98 40.0801C17.19 40.2103 17.3623 40.393 17.48 40.6101C17.6061 40.8647 17.6679 41.1462 17.66 41.4301C17.6655 41.7443 17.6251 42.0576 17.54 42.3601C17.4519 42.6193 17.3345 42.8675 17.19 43.1001H16.19C16.3434 42.8568 16.4644 42.5946 16.55 42.3201V42.3201Z" fill="#161449"/>
<path d="M19 43.0001C18.7572 42.8928 18.5493 42.7196 18.4 42.5001C18.2576 42.2726 18.1846 42.0085 18.19 41.7401C18.1881 41.6133 18.2119 41.4875 18.26 41.3701H19.26C19.2521 41.4666 19.2521 41.5636 19.26 41.6601C19.2564 41.7925 19.2874 41.9234 19.35 42.0401C19.3992 42.1508 19.4835 42.2422 19.59 42.3001C19.7035 42.3614 19.831 42.3924 19.96 42.3901C20.0607 42.3965 20.1617 42.38 20.2552 42.3419C20.3487 42.3038 20.4324 42.2451 20.5 42.1701C20.6362 42.0049 20.7042 41.7938 20.69 41.5801V40.5801C20.6935 40.4382 20.6626 40.2975 20.6 40.1701C20.5541 40.0548 20.4691 39.9592 20.36 39.9001C20.2542 39.8376 20.1328 39.8064 20.01 39.8101C19.9014 39.8092 19.7945 39.8368 19.7 39.8901C19.612 39.9361 19.5416 40.01 19.5 40.1001C19.4521 40.1855 19.428 40.2822 19.43 40.3801C19.421 40.4532 19.421 40.527 19.43 40.6001H18.43C18.3789 40.4352 18.3614 40.2617 18.3786 40.09C18.3958 39.9182 18.4472 39.7516 18.53 39.6001C18.6226 39.4171 18.7692 39.267 18.95 39.1701C19.1508 39.0564 19.3794 39.001 19.61 39.0101C19.8206 39.0056 20.0295 39.0501 20.22 39.1401C20.3885 39.2127 20.5338 39.3304 20.64 39.4801V38.3601H21.64V41.6701C21.6509 41.9625 21.5743 42.2515 21.42 42.5001C21.2699 42.7315 21.054 42.9126 20.8 43.0201C20.2185 43.2381 19.5765 43.231 19 43.0001V43.0001Z" fill="#161449"/>
<path d="M23.1399 42.9999C22.8756 42.867 22.6538 42.6624 22.5 42.4096C22.3462 42.1568 22.2665 41.8659 22.2699 41.5699C22.2634 41.2762 22.3359 40.9861 22.4799 40.7299C22.6002 40.4962 22.7885 40.3045 23.0199 40.1799C23.2548 40.0474 23.5202 39.9785 23.7899 39.9799C23.9968 39.9815 24.201 40.0257 24.3899 40.1099C24.5647 40.1865 24.7139 40.3114 24.8199 40.47V40.47V39.63C24.8298 39.4735 24.7951 39.3175 24.7199 39.1799C24.6856 39.1303 24.639 39.0905 24.5847 39.0642C24.5303 39.0379 24.4702 39.0261 24.4099 39.0299C24.3542 39.0267 24.2984 39.0357 24.2465 39.0565C24.1947 39.0772 24.148 39.1091 24.1099 39.15C24.0386 39.2375 23.9998 39.347 23.9999 39.4599V39.6099H23.1099V39.4799C23.1099 39.2199 22.9699 39.0899 22.6699 39.0899H22.3399V38.2999H22.7699C22.9476 38.2939 23.1236 38.3353 23.2799 38.4199C23.4181 38.5042 23.5211 38.6356 23.5699 38.79V38.79C23.6498 38.6189 23.7832 38.4785 23.9499 38.3899C24.1421 38.306 24.3503 38.2651 24.5599 38.2699C24.7881 38.2617 25.0148 38.3098 25.2199 38.4099C25.4081 38.5035 25.5621 38.6539 25.6599 38.8399C25.7748 39.0476 25.8302 39.2829 25.8199 39.5199V41.5199C25.8254 41.8149 25.7493 42.1056 25.5999 42.3599C25.4622 42.6241 25.2547 42.8455 24.9999 42.9999C24.7084 43.1455 24.3857 43.2176 24.0599 43.2099C23.7409 43.2143 23.4255 43.1423 23.1399 42.9999V42.9999ZM24.4799 42.33C24.6019 42.2612 24.6997 42.1564 24.7599 42.0299C24.8323 41.8982 24.8702 41.7503 24.8699 41.5999C24.8689 41.4478 24.8348 41.2976 24.7699 41.1599C24.7067 41.0356 24.6097 40.9316 24.4899 40.8599C24.3647 40.7905 24.2231 40.756 24.0799 40.7599C23.94 40.7563 23.8017 40.7909 23.6799 40.8599C23.5655 40.9349 23.4724 41.0383 23.4099 41.1599C23.3451 41.2976 23.311 41.4478 23.3099 41.5999C23.3108 41.7489 23.345 41.8959 23.4099 42.0299C23.4731 42.1543 23.5702 42.2583 23.6899 42.33C23.8076 42.4002 23.943 42.4349 24.0799 42.4299C24.2218 42.4276 24.3602 42.386 24.4799 42.31V42.33Z" fill="#161449"/>
<path d="M30.4899 42.0999C30.584 41.7205 30.631 41.3309 30.6299 40.9399V39.9999C30.65 39.7581 30.6015 39.5155 30.4899 39.2999C30.4486 39.2283 30.3887 39.1691 30.3165 39.1286C30.2444 39.0881 30.1626 39.0679 30.0799 39.0699C30.0098 39.0683 29.9403 39.0839 29.8776 39.1152C29.8148 39.1466 29.7607 39.1929 29.7199 39.2499C29.6232 39.4127 29.5779 39.601 29.5899 39.7899V41.7899H28.6599V39.7899C28.669 39.5999 28.6202 39.4116 28.5199 39.2499C28.4798 39.1922 28.4258 39.1455 28.3629 39.114C28.3 39.0826 28.2302 39.0674 28.1599 39.0699C28.0785 39.0675 27.998 39.0877 27.9274 39.1283C27.8567 39.1689 27.7988 39.2283 27.7599 39.2999C27.6477 39.5119 27.5958 39.7506 27.6099 39.9899V40.9899C27.6144 41.3805 27.6614 41.7695 27.7499 42.1499C27.8132 42.4983 27.9278 42.8353 28.0899 43.1499H27.0899C26.9877 42.9723 26.9039 42.7847 26.8399 42.5899C26.766 42.3401 26.7059 42.0864 26.6599 41.8299C26.62 41.5517 26.6 41.271 26.5999 40.9899V39.9899C26.5946 39.6837 26.656 39.38 26.7799 39.0999C26.8945 38.8557 27.0745 38.6481 27.2999 38.4999C27.5221 38.3632 27.7791 38.2937 28.0399 38.2999C28.2687 38.2972 28.4948 38.3486 28.6999 38.4499C28.8869 38.5572 29.0343 38.7221 29.1199 38.9199C29.2082 38.7206 29.3592 38.5556 29.5499 38.4499C29.7697 38.3437 30.0121 38.2928 30.2561 38.3015C30.5001 38.3102 30.7383 38.3783 30.9499 38.4999C31.1747 38.6417 31.3522 38.8471 31.4599 39.0899C31.5923 39.3711 31.6574 39.6793 31.6499 39.9899V40.9899C31.6515 41.2715 31.6281 41.5526 31.5799 41.8299C31.5435 42.0883 31.4832 42.3427 31.3999 42.5899C31.3446 42.7879 31.2603 42.9766 31.1499 43.1499H30.1499C30.3153 42.819 30.4299 42.465 30.4899 42.0999V42.0999Z" fill="#161449"/>
<path d="M33.09 43.0001C32.8374 42.9006 32.6163 42.7347 32.45 42.5201C32.2916 42.3138 32.207 42.0602 32.21 41.8001C32.209 41.6358 32.2395 41.4728 32.3 41.3201H33.3C33.2916 41.3832 33.2916 41.447 33.3 41.5101C33.2945 41.58 33.2945 41.6502 33.3 41.7201C33.2977 41.8396 33.3289 41.9574 33.39 42.0601C33.4563 42.1597 33.5455 42.242 33.65 42.3001C33.764 42.3602 33.8912 42.3911 34.02 42.3901C34.146 42.3935 34.2705 42.3624 34.38 42.3001C34.4873 42.2413 34.5771 42.155 34.64 42.0501C34.6936 41.9412 34.7209 41.8214 34.72 41.7001C34.7216 41.5701 34.6979 41.441 34.65 41.3201C34.6017 41.212 34.5215 41.1213 34.42 41.0601C34.2905 40.9944 34.1428 40.9733 34 41.0001H33.7V40.2301H34.12C34.2353 40.2347 34.3496 40.207 34.45 40.1501C34.4853 40.1232 34.5136 40.0883 34.5327 40.0484C34.5519 40.0084 34.5612 39.9644 34.56 39.9201C34.5631 39.8517 34.5419 39.7844 34.5 39.7301C34.4492 39.6727 34.3882 39.6252 34.32 39.5901L34 39.4401C33.7502 39.3524 33.5218 39.2127 33.33 39.0301C33.1633 38.8467 33.0707 38.6079 33.07 38.3601H34.07C34.0865 38.4674 34.1438 38.5642 34.23 38.6301C34.3165 38.6946 34.4106 38.7483 34.51 38.7901L34.69 38.8701C34.832 38.9266 34.9664 39.0005 35.09 39.0901C35.2024 39.1623 35.2979 39.2578 35.37 39.3701C35.4428 39.5086 35.4773 39.6639 35.47 39.8201C35.4722 39.992 35.4197 40.1601 35.32 40.3001C35.1992 40.4359 35.0436 40.5361 34.87 40.5901V40.5901C35.0114 40.6344 35.1412 40.7095 35.25 40.8101C35.3722 40.9208 35.4678 41.0575 35.53 41.2101C35.612 41.3817 35.6531 41.57 35.65 41.7601C35.6537 42.0249 35.5732 42.284 35.42 42.5001C35.2591 42.7207 35.0414 42.8935 34.79 43.0001C34.5112 43.1157 34.2119 43.1736 33.91 43.1701C33.6286 43.1641 33.3507 43.1065 33.09 43.0001V43.0001Z" fill="#161449"/>
<path d="M38.6699 42.1399C38.733 41.7564 38.7664 41.3686 38.7699 40.9799V40.0499C38.7847 39.7877 38.7221 39.5269 38.5899 39.2999C38.5304 39.2126 38.4495 39.142 38.355 39.0948C38.2605 39.0475 38.1555 39.0252 38.0499 39.0299C37.9458 39.025 37.8421 39.0473 37.7491 39.0946C37.6562 39.142 37.5772 39.2127 37.5199 39.2999C37.3795 39.5238 37.3131 39.7862 37.3299 40.0499V40.9999C37.3319 41.3858 37.3687 41.7707 37.4399 42.1499C37.4855 42.4754 37.5694 42.7943 37.6899 43.0999H36.6899C36.5549 42.8006 36.4607 42.4844 36.4099 42.1599C36.3382 41.7639 36.3014 41.3624 36.2999 40.9599V39.9999C36.2883 39.6523 36.3676 39.3076 36.5299 38.9999C36.6819 38.7441 36.8994 38.5335 37.1599 38.3899C37.4357 38.2512 37.7414 38.1825 38.0499 38.1899C38.3587 38.1813 38.6646 38.25 38.9399 38.3899C39.2071 38.5291 39.4265 38.7451 39.5699 39.0099C39.7428 39.3139 39.8261 39.6606 39.8099 40.0099V40.9199C39.8103 41.323 39.7701 41.725 39.6899 42.1199C39.6377 42.4441 39.5436 42.7601 39.4099 43.0599H38.4099C38.5331 42.7648 38.6204 42.4559 38.6699 42.1399Z" fill="#161449"/>
</g>
<defs>
<clipPath id="clip0_17_24">
<rect width="36.81" height="41.19" fill="white" transform="translate(3 2)"/>
</clipPath>
</defs>
</svg>
