<svg width="440" height="251" viewBox="0 0 440 251" fill="none" xmlns="http://www.w3.org/2000/svg">
<g clip-path="url(#clip0_8_24)">
<path d="M439.77 250.48H3.22998V0H439.78L439.77 250.48Z" fill="#2083FD"/>
<path d="M181.52 1.12006C181.011 1.78129 180.46 2.40924 179.87 3.00006C177.07 5.44006 174.25 7.87006 171.4 10.2601C170.128 11.4466 168.745 12.5081 167.27 13.4301C166.025 14.2175 164.827 15.0755 163.68 16.0001C162.06 17.1401 160.36 18.1801 158.68 19.2801C158.29 19.5401 157.95 19.8901 157.57 20.1801C153.38 23.3301 149.24 26.5401 144.97 29.5801C142.27 31.5101 139.39 33.2001 136.55 34.9401C134.74 36.0501 132.88 37.0901 131.02 38.1301C130.39 38.4901 129.7 38.7601 129.02 39.1301C126.79 40.3301 124.57 41.5601 122.24 42.8301C122.313 43.1328 122.406 43.4302 122.52 43.7201C123.41 45.8101 124.28 47.9201 125.22 49.9901C126.36 52.5001 127.6 54.9901 128.71 57.4801C129.38 58.9901 129.81 60.6101 130.51 62.1101C131.29 63.7901 132.31 65.3601 133.12 67.0301C133.57 67.9666 133.905 68.9536 134.12 69.9701C134.912 73.1597 136.413 76.1299 138.51 78.6601C140.44 81.1601 142.63 83.4601 144.57 85.9501C146.95 89.0301 149.2 92.2101 151.5 95.3501C152.98 97.3501 154.5 99.3501 155.92 101.43C156.22 101.84 156.43 102.31 156.7 102.75C157.52 104.09 158.33 105.44 159.18 106.75C159.48 107.2 159.92 107.57 160.23 108.02C160.81 108.83 161.34 109.66 161.9 110.48C162.051 110.761 162.243 111.017 162.47 111.24C164.445 113.007 166.522 114.656 168.69 116.18C169.82 116.9 171.44 116.87 172.84 117.18C173.33 117.306 173.835 117.363 174.34 117.35C175.58 117.23 176.98 117.35 177.98 116.77C179.41 115.95 181.23 115.42 181.87 113.6C181.99 113.27 182 112.67 181.8 112.5C179.55 110.57 178.14 108.03 176.51 105.64C176.024 104.811 175.472 104.022 174.86 103.28C174.36 102.75 174.23 102.4 174.59 101.74C174.755 101.254 174.836 100.743 174.83 100.23C176.48 99.5001 177.7 99.8601 178.49 101.44C179.49 103.44 181.13 104.76 182.68 106.23C183.29 106.79 183.68 107.57 184.28 108.16C186.01 109.88 187.79 111.54 189.52 113.26C189.98 113.72 190.3 114.33 190.73 114.83C191.42 115.64 192.17 116.39 192.85 117.21C193.369 117.879 194.094 118.359 194.912 118.576C195.731 118.793 196.598 118.735 197.38 118.41C199.75 117.62 202.11 116.8 204.38 115.79C205.01 115.51 205.38 114.53 205.74 113.79C205.98 113.3 205.81 112.52 206.15 112.2C207.79 110.66 206.15 109.87 205.44 108.94C204.02 107.08 202.56 105.24 200.99 103.5C199.82 102.21 198.38 101.17 197.19 99.8901C196.746 99.23 196.409 98.5046 196.19 97.7401C196.157 97.5905 196.114 97.4434 196.06 97.3001C195.83 96.8801 195.22 96.4401 195.87 95.9901C196.515 95.4296 197.288 95.0349 198.12 94.8401C198.597 94.7942 199.077 94.8777 199.51 95.0819C199.942 95.286 200.312 95.6033 200.58 96.0001C200.86 96.3901 201.46 96.5201 201.83 96.8501C203.38 98.2201 205.23 99.3001 206.11 101.31C206.21 101.53 206.37 101.81 206.55 101.87C208.02 102.29 208.4 103.71 209.27 104.69C210.68 106.3 212.2 107.83 213.74 109.31C214.74 110.23 215.74 111.01 216.81 111.86C217.24 112.251 217.743 112.554 218.291 112.749C218.838 112.945 219.419 113.03 220 113C221.33 112.91 222.69 113.28 223.95 112.43C224.32 112.18 224.95 112.32 225.47 112.25C225.774 112.244 226.073 112.165 226.34 112.02C227.58 111.09 228.75 110.02 230.04 109.18C231.76 108.02 231.67 106.08 232.31 104.45C232.606 103.561 233.016 102.714 233.53 101.93C233.76 101.704 233.894 101.398 233.903 101.075C233.912 100.753 233.797 100.439 233.58 100.2C232 98.4001 230.33 96.6701 228.77 94.8401C228.05 94.0001 227.56 92.9601 226.87 92.0801C226.18 91.2001 225.14 90.1501 224.34 89.0801C223.981 88.5594 223.699 87.9904 223.5 87.3901C223.18 86.5601 223.14 85.7601 224.11 85.2901C224.537 85.0653 225.027 84.9933 225.5 85.0861C225.973 85.1789 226.4 85.4308 226.71 85.8001C228.28 87.3901 229.85 88.9801 231.34 90.6301C232 91.3701 232.41 92.3301 233.06 93.0801C233.85 94.0101 234.77 94.8301 235.63 95.7101C237.11 97.2401 238.57 98.8101 240.08 100.32C240.678 100.76 241.382 101.032 242.12 101.109C242.859 101.187 243.604 101.066 244.28 100.76C245.556 99.8975 246.766 98.9415 247.9 97.9001C249.57 96.3601 251.18 94.7501 252.7 93.0701C253.218 92.367 253.617 91.5831 253.88 90.7501C254.593 88.796 254.725 86.6775 254.26 84.6501C253.96 82.9701 253.05 81.4001 252.57 79.7401C252.21 78.4601 252.14 77.1101 251.85 75.8101C251.63 74.8977 251.346 74.0022 251 73.1301C250.5 71.8101 249.92 70.5101 249.43 69.1901C248.54 66.8101 247.72 64.4201 246.84 62.0501C246.26 60.4601 245.97 58.5801 244.93 57.3601C243.21 55.3601 242.87 52.8101 241.48 50.7401C240.693 49.6018 239.988 48.4087 239.37 47.1701C238.68 45.7201 238.18 44.1701 237.56 42.6701C237.34 42.1501 236.92 41.6701 236.73 41.1701C236.319 40.1325 235.985 39.0664 235.73 37.9801C235.24 35.4901 234.4 32.9801 235.11 30.4401C235.306 29.8083 235.6 29.2111 235.98 28.6701C236.05 28.5501 236.61 28.5801 236.8 28.7301C237.96 29.6101 239.17 30.4501 239.63 31.9901C240.063 33.6597 240.621 35.2943 241.3 36.8801C242.91 40.3201 244.67 43.6901 246.38 47.0901C247.38 49.0101 248.32 50.9301 249.28 52.8401C250.24 54.7501 251.17 56.5501 252.07 58.4201C252.374 59.0611 252.611 59.7312 252.78 60.4201C252.823 60.6264 252.908 60.8217 253.029 60.994C253.151 61.1662 253.306 61.3117 253.486 61.4213C253.666 61.531 253.867 61.6026 254.076 61.6316C254.284 61.6606 254.497 61.6465 254.7 61.5901C256.6 61.4201 258.51 61.3901 260.42 61.3701C261.592 61.3668 262.764 61.4236 263.93 61.5401C264.79 61.6201 265.65 61.8201 266.68 61.9901C266.765 61.2659 266.765 60.5342 266.68 59.8101C265.81 56.2601 266 52.6401 266.1 49.0601C266.115 48.065 265.907 47.0792 265.489 46.1757C265.072 45.2721 264.457 44.4739 263.69 43.8401C262.57 42.7701 261.49 41.6601 260.32 40.6401C259.61 40.0201 258.77 39.5501 257.99 38.9901C255.278 37.1827 252.761 35.0982 250.48 32.7701C249.606 31.9037 248.659 31.1141 247.65 30.4101C245.34 28.6601 243.03 26.9201 240.65 25.2301C239.91 24.7001 239.06 24.3401 238.29 23.8601C234.94 21.7701 231.59 19.6801 228.29 17.5501C226.5 16.4101 224.83 15.0701 222.97 14.0601C221.724 13.4926 220.404 13.1021 219.05 12.9001C217.05 12.4701 214.97 12.1301 212.92 11.8301C211.42 11.6101 209.92 11.5901 208.41 11.3501C205.33 10.8601 202.25 10.3501 199.2 9.71006C197.54 9.36006 195.98 8.54006 194.32 8.21006C191.22 7.59006 189.03 5.38006 186.45 3.87006C185.59 3.37006 185.2 2.08006 184.6 1.14006H190.86C192.769 2.38519 194.913 3.22582 197.16 3.61006C200.71 4.06006 204.16 4.94006 207.73 5.55006C209.73 5.89006 211.73 6.02006 213.66 6.31006C215.99 6.65006 218.31 7.14006 220.66 7.42006C223.023 7.79482 225.278 8.67482 227.27 10.0001C229.36 11.2701 231.46 12.5401 233.55 13.8301C234.09 14.1601 234.55 14.6001 235.1 14.9501C236.27 15.7401 237.46 16.5001 238.64 17.2801L244.36 21.0201C245.46 21.7301 246.61 22.3701 247.64 23.1601C249.03 24.1601 250.33 25.3701 251.64 26.4801C253.23 27.7901 254.83 29.0801 256.4 30.4101C257.63 31.4101 258.77 32.6101 260.02 33.6201C261.57 34.8601 263.31 35.8901 264.77 37.2201C266.59 38.8701 268.17 40.7901 269.93 42.5001C271.69 44.2101 271.76 46.5001 271.73 48.8901C271.73 51.9901 272.1 55.0801 272.14 58.1801C272.14 60.0101 273.09 61.8401 272.14 63.7001C272.04 63.9001 272.56 64.6401 272.95 64.8701C274.86 66.0001 277.03 66.7101 278.44 68.6201C279.28 69.7401 280.44 70.6201 281.23 71.7801C281.752 72.8059 282.161 73.8856 282.45 75.0001C282.87 76.1201 283.31 77.2301 283.69 78.3501C283.94 79.1001 284.11 79.8701 284.31 80.6301C284.345 80.8249 284.416 81.0115 284.52 81.1801C285.87 82.7401 285.8 84.7501 286.14 86.5901C286.64 89.3701 286.94 92.1901 287.28 95.0001C287.76 99.0601 288.21 103.13 288.66 107.2C289.05 110.79 289.42 114.39 289.79 117.98C290.18 118.06 290.37 118.12 290.56 118.14C293.32 118.46 294.11 120.54 294.75 122.78C294.97 123.54 295.38 124.24 295.56 125C295.715 125.655 295.745 126.334 295.65 127C295.45 128.35 295.75 128.8 297.02 128.59C299.33 128.22 301.62 127.72 303.94 127.39C306.42 127.05 308.94 126.88 311.41 126.56C313.66 126.27 315.9 125.88 318.15 125.56C321.35 125.11 324.56 124.69 327.76 124.29C330.76 123.92 333.69 123.59 336.65 123.29C339.77 122.93 342.89 122.52 346.02 122.29C349.33 122.02 352.65 121.9 355.96 121.7C356.31 121.7 356.65 121.6 357.13 121.53C356.987 121.254 356.824 120.99 356.64 120.74C356.357 120.379 356.17 119.952 356.097 119.5C356.023 119.047 356.065 118.583 356.219 118.151C356.372 117.719 356.633 117.333 356.976 117.029C357.319 116.724 357.733 116.511 358.18 116.41C359.18 116.17 360.18 115.82 361.12 115.55C361.457 115.42 361.821 115.376 362.18 115.42C363.66 115.81 364.98 115.24 366.33 114.81C366.478 114.746 366.638 114.712 366.8 114.71C368.55 115.08 368.95 113.71 369.61 112.61C369.82 112.26 370.22 111.81 370.61 111.77C372.11 111.61 373.61 111.58 375.15 111.5C375.405 111.485 375.659 111.455 375.91 111.41C378.56 110.87 381.19 110.15 383.86 109.84C387.58 109.41 391.32 109.32 395 108.5C396.562 108.252 398.139 108.105 399.72 108.06C400.949 107.886 402.189 107.796 403.43 107.79C404.066 107.74 404.697 107.941 405.187 108.35C405.677 108.76 405.987 109.345 406.05 109.98C409.21 109.39 412.28 108.76 415.38 108.25C417.24 107.94 418.48 109.76 418.52 111.78C418.52 112.72 418.52 113.66 418.52 114.78C421.64 114.3 424.44 113.78 427.26 113.44C428.208 113.362 429.159 113.338 430.11 113.37C430.23 113.38 430.35 113.38 430.47 113.37L439.27 112.13C439.47 112.13 439.65 112.02 439.85 111.97V118.23C437.76 118.52 435.68 118.84 433.59 119.11C430.89 119.48 428.19 119.86 425.48 120.11C422.77 120.36 420.1 120.49 417.42 120.77C414.9 121.02 412.42 121.38 409.88 121.77C406.97 122.17 404.06 122.63 401.15 122.99C398.24 123.35 395.37 123.54 392.49 123.9C388.24 124.44 384 125.1 379.75 125.64C377.4 125.95 375.03 126.11 372.68 126.36C371.33 126.51 369.99 126.78 368.68 126.88C366.49 127.04 364.3 127.08 362.12 127.22C360.93 127.29 359.76 127.5 358.58 127.59C354.88 127.84 351.19 128.02 347.5 128.32C345.35 128.49 343.23 128.85 341.09 129.1L332.96 130.03L320.96 131.45C317.47 131.88 313.96 132.28 310.48 132.76C308.834 133.145 307.163 133.419 305.48 133.58C303.948 133.594 302.424 133.812 300.95 134.23C299.964 134.467 298.961 134.628 297.95 134.71C294.82 135.05 291.68 135.39 288.54 135.71C286.74 135.88 284.92 135.89 283.13 136.09C278.98 136.55 274.85 137.09 270.71 137.57C269.42 137.72 268.1 137.68 266.8 137.85C264.96 138.1 263.14 138.56 261.3 138.74C258.1 139.06 254.9 139.22 251.7 139.48C248.5 139.74 245.04 140.15 241.7 140.35C239.33 140.49 236.95 140.27 234.58 140.4C232.4 140.52 230.23 140.9 228.06 141.14C225.41 141.42 222.76 141.64 220.13 141.97C217.91 142.24 215.71 142.66 213.49 142.97C212.49 143.1 211.43 143.09 210.4 143.15C206.58 143.36 202.77 143.5 198.96 143.79C195.71 144.03 192.48 144.44 189.24 144.79C186.24 145.13 183.24 145.47 180.24 145.88C177.93 146.19 175.64 146.68 173.33 146.94C169.33 147.38 165.33 148.59 161.27 147.94C161.031 147.905 160.789 147.905 160.55 147.94C157.9 148.32 155.24 148.69 152.55 149.08C151.7 149.2 150.86 149.42 150.02 149.56C147.59 149.98 145.17 150.46 142.73 150.79C139.26 151.25 135.73 151.63 132.29 152.01C129.88 152.28 127.47 152.49 125.05 152.71C123.16 152.88 121.26 153.03 119.37 153.19C117.88 153.32 116.37 153.49 114.89 153.57C113.05 153.67 111.2 153.73 109.35 153.75C107.82 153.75 106.28 153.56 104.76 153.68C100.447 154.02 96.1367 154.42 91.8301 154.88C89.4701 155.14 87.1301 155.81 84.7701 155.88C80.6701 155.96 76.6501 156.88 72.5201 156.77C70.1381 156.84 67.7632 157.064 65.4101 157.44C63.3201 157.64 61.2101 157.75 59.1201 157.97C57.9701 158.09 56.8301 158.39 55.6701 158.53C53.1701 158.83 50.6701 159.08 48.1401 159.34C46.5501 159.51 44.9501 159.72 43.3601 159.81C41.7701 159.9 40.2101 159.81 38.6401 159.92C38.1301 159.92 37.6401 160.18 37.1401 160.23C33.2601 160.61 29.3701 160.92 25.4901 161.35C23.6001 161.56 21.7201 161.94 19.8401 162.35C17.7701 162.77 15.7201 163.35 13.6301 163.72C11.5401 164.09 9.55006 164.04 7.52006 164.32C6.03006 164.52 4.57006 164.93 3.10006 165.25C2.69006 165.34 2.29006 165.46 1.81006 165.59V160.11C3.6846 159.342 5.68458 158.925 7.71006 158.88C9.42249 158.781 11.1263 158.568 12.8101 158.24C13.5401 158.13 13.9001 157.86 13.5501 156.92C13.2961 156.381 13.177 155.787 13.2032 155.192C13.2293 154.596 13.3998 154.015 13.7001 153.5C13.9755 153.114 14.3452 152.804 14.7741 152.601C15.2029 152.398 15.6766 152.308 16.1501 152.34C18.2012 152.047 20.2684 151.88 22.3401 151.84C23.2507 151.93 24.1691 151.782 25.0054 151.411C25.8416 151.039 26.5669 150.456 27.1101 149.72C27.8628 148.867 28.8809 148.293 30.0001 148.09C32.7101 147.46 35.4601 146.96 38.2001 146.51C40.2901 146.17 42.4101 146.05 44.5101 145.74C45.829 145.401 47.164 145.127 48.5101 144.92C51.8601 144.72 55.1501 144.21 58.5101 143.74C60.6501 143.44 62.1901 143.6 62.9101 146.8C64.3201 146.44 65.7101 145.98 67.1401 145.73C68.5701 145.48 70.1401 145.58 71.5101 145.23C72.0654 145.057 72.6536 145.018 73.227 145.116C73.8004 145.213 74.3427 145.444 74.8101 145.79C75.3706 146.258 75.7925 146.87 76.0301 147.56C76.4401 148.67 76.6801 149.84 77.0301 150.92C78.7601 150.78 80.3401 150.73 81.8901 150.52C84.1501 150.22 86.3901 149.78 88.6401 149.44C90.1301 149.22 91.6401 149.05 93.1301 148.88C95.7501 148.58 98.3601 148.16 100.98 148.05C104.54 147.91 108.1 148.05 111.66 148C114.54 147.93 117.41 147.68 120.29 147.48C122.59 147.32 124.9 147.15 127.19 146.92C128.62 146.77 130.04 146.48 131.48 146.3C132.36 146.19 133.25 146.15 134.13 146.08C133.91 143.94 133.78 142.02 133.48 140.08C133.3 138.92 132.71 137.87 133.1 136.6C133.343 135.934 133.772 135.351 134.335 134.921C134.899 134.49 135.574 134.23 136.28 134.17C137.614 134.063 138.928 133.784 140.19 133.34C140.5 133.23 140.7 132.28 140.65 131.75C140.48 130.03 140.18 128.31 139.91 126.59C139.58 124.59 139.09 122.53 138.91 120.47C138.5 116.25 138.25 112 137.91 107.77C137.67 104.92 137.24 102.08 137.1 99.2301C137.012 96.9648 137.079 94.6962 137.3 92.4401C137.332 91.6541 137.526 90.8831 137.87 90.1758C138.214 89.4685 138.701 88.84 139.3 88.3301C139.246 88.1126 139.162 87.9039 139.05 87.7101C137.95 86.3501 136.8 85.0201 135.73 83.6501C135.04 82.7701 134.47 81.8101 133.82 80.9101C133.297 80.3141 132.816 79.6826 132.38 79.0201C131.82 78.0201 131.54 76.8101 130.92 75.8201C129.64 73.7501 129.37 71.3301 128.42 69.1501C127.54 67.1501 126.42 65.1501 125.59 63.1501C124.28 60.1501 123.1 57.0301 121.84 53.9801C121.42 52.9801 120.84 51.9801 120.42 50.9801C120 49.9801 119.51 48.6201 119.03 47.4501C118.7 46.6501 118.32 45.8601 117.89 44.8801C117.18 45.1301 116.45 45.4201 115.71 45.6401C114.99 45.861 114.255 46.0281 113.51 46.1401C112.858 46.2392 112.191 46.1063 111.626 45.7647C111.062 45.423 110.635 44.8941 110.42 44.2701C109.887 43.4503 109.282 42.6804 108.61 41.9701C107.77 40.8901 107.03 39.7101 106.1 38.7101C105.17 37.7101 103.75 36.6501 102.68 35.5301C100.8 33.5301 98.9901 31.5301 97.1901 29.4601C95.2601 27.2501 93.3301 25.0301 91.4701 22.7601C90.2601 21.2701 89.2501 19.6101 88.0001 18.1501C86.3522 15.9998 84.82 13.7633 83.4101 11.4501C81.4132 8.62029 79.1422 5.99425 76.6301 3.61006C75.9615 2.82224 75.3657 1.97544 74.8501 1.08006H82.3201C82.4043 1.4121 82.5392 1.72916 82.7201 2.02006C83.9201 3.43006 85.2001 4.77006 86.3701 6.20006C87.6601 7.79006 88.8601 9.44006 90.0901 11.0801C91.5101 12.9701 92.9201 14.8801 94.3301 16.7901C94.7901 17.4101 95.1901 18.0801 95.6801 18.6801C96.3901 19.5401 97.1601 20.3501 97.9001 21.1901C100.72 24.4401 103.44 27.7701 106.37 30.9101C109.13 33.9101 112.37 36.3901 114.47 39.9101C114.602 40.0937 114.777 40.2431 114.978 40.3458C115.18 40.4484 115.404 40.5013 115.63 40.5001C116.384 40.202 117.102 39.8195 117.77 39.3601C118.68 38.8001 119.54 38.1501 120.47 37.6401C122.06 36.7501 123.7 35.9701 125.29 35.0901C128.29 33.4001 131.29 31.6701 134.29 29.9701C135.89 29.188 137.449 28.3235 138.96 27.3801C142.13 25.1401 144.88 22.3801 148.44 20.6601C148.6 20.5801 148.69 20.3501 148.83 20.2201C150.08 19.0801 151.25 17.8401 152.6 16.8301C154.29 15.5801 156.14 14.5301 157.9 13.3601C159.32 12.4101 160.7 11.3601 162.11 10.4201C163.05 9.78006 164.11 9.28006 164.98 8.57006C166.62 7.23006 168.16 5.77006 169.75 4.38006C171.03 3.26006 172.33 2.17006 173.61 1.06006L181.52 1.12006ZM261.3 89.5001L260.7 89.4401C260.54 90.0501 260.37 90.6701 260.23 91.2801C260.23 91.4701 260.29 91.7101 260.23 91.8701C259.628 93.2809 258.908 94.6389 258.08 95.9301C256.701 97.7248 255.218 99.4377 253.64 101.06C251.868 102.998 249.708 104.541 247.3 105.59C245.452 106.319 243.439 106.53 241.48 106.2C240.63 106.11 239.77 106.05 238.78 105.97C238.757 106.111 238.717 106.249 238.66 106.38C237.79 108.38 238.13 110.65 236.38 112.38C234.346 114.514 231.94 116.259 229.28 117.53C226.3 118.817 223.06 119.385 219.82 119.19C217.314 119.18 214.894 118.271 213 116.63C212.658 116.393 212.28 116.214 211.88 116.1C211.176 117.155 210.418 118.173 209.61 119.15C208.993 119.874 208.238 120.469 207.39 120.9C205.354 121.838 203.267 122.662 201.14 123.37C199.683 123.815 198.186 124.117 196.67 124.27C193.94 124.59 191.84 123.05 189.8 121.58C188.62 120.614 187.504 119.572 186.46 118.46C179.89 124.86 172.46 124.52 164.69 120.46C164.632 120.676 164.599 120.897 164.59 121.12C164.76 123.57 165 126.02 165.09 128.48C165.15 129.96 165.68 130.62 167.09 130.62C167.61 130.62 168.09 130.62 168.64 130.62C169.062 130.553 169.493 130.577 169.904 130.69C170.316 130.802 170.699 131.002 171.027 131.274C171.356 131.547 171.622 131.887 171.809 132.27C171.996 132.654 172.098 133.073 172.11 133.5C172.37 135.69 172.61 137.87 172.81 140.06C172.81 140.69 173.03 140.92 173.69 140.79C174.69 140.6 175.69 140.47 176.76 140.35C179.49 140.02 182.26 139.86 184.97 139.35C189.003 138.57 193.094 138.118 197.2 138C198.38 138 199.57 138 200.75 137.9C201.93 137.8 203.17 137.61 204.39 137.48C205.61 137.35 206.6 137.25 207.71 137.22C209.381 137.308 211.057 137.221 212.71 136.96C214.624 136.579 216.557 136.298 218.5 136.12C220.12 135.92 221.75 135.76 223.38 135.62C225.38 135.44 227.38 135.32 229.38 135.14C231.94 134.91 234.5 134.59 237.06 134.39C239.62 134.19 242.06 134.16 244.58 134C246.47 133.88 248.35 133.69 250.24 133.51C252.51 133.28 254.78 133.03 257.24 132.77C257.087 131.001 256.817 129.243 256.43 127.51C255.93 125.75 256.43 123.99 258.16 123.43C259.28 123.06 260.52 123.06 261.67 122.78C262.5 122.58 263.67 122.65 263.67 121.34C263.688 120.269 263.652 119.197 263.56 118.13C263.32 115.32 263 112.52 262.79 109.71C262.7 108.5 262.88 107.27 262.79 106.07C262.647 104.956 262.44 103.851 262.17 102.76C261.78 100.9 262.92 99.0301 262.11 97.1501C261.967 96.5341 261.907 95.9019 261.93 95.2701L261.3 89.5001ZM139.8 145.41C141.1 145.25 142.44 145.13 143.8 144.89C146.51 144.41 149.19 143.8 151.9 143.36C154.31 142.98 156.75 142.73 159.18 142.47C161.61 142.21 163.75 142.07 166.02 141.82C166.42 141.82 167.08 141.45 167.1 141.21C167.22 139.75 167.19 138.28 167.21 136.82C167.21 136.04 166.76 135.96 166.1 135.96C164.99 135.96 163.88 135.86 162.78 135.8C162.211 135.716 161.635 135.686 161.06 135.71C159.54 135.88 158.06 136.15 156.5 136.36C155.83 136.45 155.15 136.51 154.5 136.54C151.55 136.68 148.61 136.94 145.67 136.85C144.738 136.749 143.796 136.855 142.91 137.16C141.58 137.71 140.26 138.3 138.84 138.92L139.8 145.41ZM289.8 129.12C289.68 127.51 289.55 125.89 289.43 124.27C289.38 123.58 289.12 123.17 288.32 123.17C287.12 123.17 285.88 123.39 284.76 122.65C284.55 122.51 284.12 122.65 283.76 122.75C283.4 122.85 282.82 122.92 282.36 122.95C280.18 123.08 277.97 123.06 275.82 123.38C274.49 123.58 273.26 124.38 271.94 124.75C270.45 125.17 268.94 125.95 267.33 125.29C267.107 125.237 266.871 125.269 266.67 125.38C265.76 125.83 264.85 126.27 263.98 126.79C263.46 127.1 262.64 127.52 262.62 127.94C262.593 129.359 262.654 130.778 262.8 132.19L289.8 129.12ZM400.8 112.73L374.34 116.07C374.41 117.07 374.48 117.79 374.51 118.55C374.54 119.31 374.97 119.69 375.75 119.55L378.59 119.17L387.96 118.04C390.5 117.74 393.05 117.46 395.59 117.17C397.32 116.97 399.05 116.8 400.77 116.57C401.42 116.49 401.77 116.12 401.6 115.4C401.41 114.57 401.14 113.69 400.85 112.73H400.8ZM55.5201 152.86C58.4401 152.93 58.7001 152.61 58.2001 150.22C58.0501 149.5 57.7301 149.13 56.9901 149.22C55.9301 149.36 54.8801 149.58 53.8201 149.68C51.6001 149.9 49.3801 150.07 47.1601 150.51C43.5801 151.22 39.9301 151.51 36.3201 152.08C34.6067 152.34 32.9067 152.657 31.2201 153.03C30.9101 153.1 30.4301 153.6 30.4601 153.84C30.5301 154.35 30.5201 155.09 31.4601 155.02C33.1501 154.89 34.8501 154.85 36.5401 154.75C38.5401 154.64 40.5401 154.54 42.5901 154.38C44.8901 154.2 47.1801 154.01 49.4701 153.74C51.5901 153.49 53.7001 153.13 55.5201 152.86ZM413.4 115.09C413.51 114.62 413.62 114.28 413.67 113.93C413.82 112.93 413.16 112.06 412.26 112.21C410.21 112.57 408.17 112.99 406.12 113.38C406.35 115.5 406.8 115.88 408.84 115.64L413.4 115.09ZM361.53 119.63L361.42 120.04C361.89 120.27 362.35 120.68 362.83 120.7C364.217 120.75 365.605 120.73 366.99 120.64C367.668 120.598 368.338 120.481 368.99 120.29C369.141 120.237 369.277 120.148 369.387 120.032C369.496 119.915 369.576 119.774 369.62 119.62C369.625 118.997 369.575 118.374 369.47 117.76L361.53 119.63ZM17.7801 155.09C17.8801 156.64 18.0001 156.83 19.2301 156.68C21.1101 156.45 22.9801 156.09 24.8401 155.68C25.5301 155.55 25.7201 155.07 25.5101 154.41C25.3001 153.75 24.8201 153.81 24.2701 153.95C23.2701 154.21 22.2701 154.47 21.2701 154.64C20.2701 154.81 19.0001 155 17.7801 155.09ZM72.5301 151.45C72.2601 150.23 72.0401 149.51 70.7901 149.91C70.1644 150.031 69.527 150.082 68.8901 150.06L63.7401 150.5C63.7401 151.75 64.0801 152.03 65.2001 151.76C66.4812 151.539 67.7802 151.439 69.0801 151.46C70.1701 151.42 71.2801 151.45 72.5301 151.45V151.45Z" fill="#0E2043"/>
<path d="M115.72 23.75C115.726 23.4287 115.797 23.1119 115.927 22.8181C116.057 22.5243 116.244 22.2593 116.478 22.0387C116.712 21.8181 116.987 21.6462 117.288 21.5331C117.588 21.42 117.909 21.368 118.23 21.38C118.643 21.3792 119.056 21.4228 119.46 21.51C120.14 21.61 120.83 21.72 121.51 21.84C121.896 21.859 122.274 21.9577 122.62 22.13C125.09 23.91 125.62 26.05 124.99 28.97C124.28 32.13 122.19 33.88 119.18 34.97C117.463 35.6947 115.573 35.9032 113.74 35.57C112.969 35.3604 112.263 34.9629 111.683 34.4132C111.104 33.8634 110.67 33.1786 110.42 32.42C109.96 31.195 109.719 29.8985 109.71 28.59C109.691 27.7591 109.894 26.9381 110.296 26.2108C110.698 25.4836 111.286 24.876 112 24.45C113.05 23.64 114.07 22.66 115.72 23.75ZM115.82 30.87C116.682 30.734 117.508 30.4257 118.249 29.9635C118.989 29.5014 119.629 28.8948 120.13 28.18C120.241 28.0037 120.304 27.8018 120.314 27.5938C120.324 27.3859 120.28 27.1788 120.186 26.9928C120.093 26.8068 119.953 26.6481 119.78 26.5319C119.607 26.4158 119.407 26.3463 119.2 26.33C118.465 26.205 117.724 26.1249 116.98 26.09C116.619 26.084 116.266 26.2003 115.98 26.42C115.458 26.7932 115.038 27.2919 114.76 27.87C114.516 28.5985 114.474 29.3797 114.64 30.13C114.7 30.47 115.46 30.66 115.82 30.87Z" fill="black"/>
<path d="M22.52 182.6C21.7359 182.329 21.0431 181.844 20.52 181.2C19.9757 180.501 19.6551 179.654 19.6 178.77C19.5309 178.24 19.5687 177.701 19.7112 177.186C19.8538 176.671 20.0982 176.189 20.43 175.77C21.1106 174.937 21.9963 174.296 23 173.91C23.6171 173.703 24.1926 173.388 24.7 172.98C24.8579 172.867 24.9846 172.717 25.0686 172.542C25.1525 172.367 25.1908 172.174 25.18 171.98C25.1668 171.78 25.0936 171.588 24.97 171.43C24.8521 171.26 24.6844 171.131 24.49 171.06C24.2744 170.974 24.0406 170.943 23.81 170.97C23.6319 170.978 23.4575 171.024 23.2987 171.105C23.14 171.186 23.0006 171.3 22.89 171.44C22.6726 171.725 22.5757 172.084 22.62 172.44L19.81 172.69C19.7472 172.068 19.88 171.443 20.19 170.9C20.5157 170.329 20.9889 169.856 21.56 169.53C22.1695 169.168 22.8534 168.949 23.56 168.89C24.2696 168.815 24.9871 168.883 25.67 169.09C26.2547 169.28 26.7767 169.626 27.18 170.09C27.5534 170.502 27.7817 171.026 27.83 171.58C27.8941 172.096 27.7699 172.618 27.48 173.05C27.1676 173.476 26.7556 173.82 26.28 174.05V174.14C26.8935 174.211 27.4822 174.423 28 174.76C28.5065 175.086 28.9281 175.529 29.23 176.05C29.5363 176.598 29.7237 177.205 29.78 177.83C29.8869 178.708 29.7229 179.598 29.31 180.38C28.9124 181.107 28.3203 181.71 27.6 182.12C26.8261 182.557 25.9661 182.82 25.08 182.89C24.2157 182.983 23.3416 182.884 22.52 182.6ZM26.05 180.28C26.371 180.053 26.6179 179.737 26.76 179.37C26.9207 178.957 26.979 178.511 26.93 178.07C26.8941 177.605 26.754 177.154 26.52 176.75C26.3172 176.402 26.014 176.123 25.65 175.95C25.2785 175.778 24.8666 175.712 24.46 175.76C24.0634 175.789 23.6826 175.928 23.36 176.16C23.0381 176.396 22.7942 176.724 22.66 177.1C22.5071 177.539 22.4525 178.007 22.5 178.47C22.5324 178.912 22.6695 179.341 22.9 179.72C23.1048 180.056 23.4039 180.323 23.76 180.49C24.1201 180.665 24.5222 180.734 24.92 180.69C25.3267 180.657 25.717 180.516 26.05 180.28V180.28Z" fill="white"/>
<path d="M33.8501 181.51C33.0839 181.217 32.4177 180.71 31.9301 180.05C31.4379 179.389 31.1432 178.602 31.0801 177.78C31.0123 177.02 31.1148 176.255 31.3801 175.54L34.1901 175.28C34.0068 175.95 33.9391 176.647 33.9901 177.34C34.0173 177.779 34.1438 178.207 34.3601 178.59C34.5454 178.935 34.8222 179.222 35.1601 179.42C35.5109 179.612 35.9132 179.689 36.3101 179.64C36.7175 179.618 37.1084 179.471 37.4301 179.22C37.7278 178.971 37.9467 178.641 38.0601 178.27C38.1913 177.853 38.2355 177.414 38.1901 176.98C38.1448 176.442 38.0025 175.917 37.7701 175.43C37.5708 175.017 37.3113 174.637 37.0001 174.3C36.7201 174 36.3301 173.63 35.8301 173.18C35.4288 172.814 35.0545 172.42 34.7101 172C34.3696 171.549 34.0968 171.05 33.9001 170.52C33.6368 169.817 33.4752 169.079 33.4201 168.33L36.3501 168.06C36.3884 168.564 36.5031 169.06 36.6901 169.53C36.8546 169.935 37.0697 170.318 37.3301 170.67C37.6226 171.038 37.9365 171.389 38.2701 171.72C38.8501 172.3 39.2701 172.79 39.6501 173.19C40.0287 173.657 40.3448 174.171 40.5901 174.72C40.8868 175.402 41.0693 176.129 41.1301 176.87C41.2171 177.69 41.0606 178.518 40.6801 179.25C40.29 179.976 39.7091 180.581 39.0001 181C38.2312 181.474 37.3606 181.759 36.4601 181.83C35.577 181.934 34.6819 181.824 33.8501 181.51V181.51Z" fill="white"/>
<path d="M49.6899 177.64C49.78 176.539 49.78 175.432 49.6899 174.33L49.4399 171.69C49.4116 170.942 49.1647 170.219 48.7299 169.61C48.5469 169.373 48.3042 169.189 48.0265 169.076C47.7489 168.964 47.4464 168.927 47.1499 168.97C46.8486 168.982 46.5557 169.073 46.3011 169.235C46.0464 169.396 45.839 169.622 45.6999 169.89C45.3783 170.565 45.2635 171.32 45.3699 172.06L45.6199 174.71C45.7203 175.802 45.9178 176.883 46.2099 177.94C46.4462 178.847 46.7815 179.726 47.2099 180.56L44.3699 180.82C43.9241 180.004 43.5878 179.134 43.3699 178.23C43.0643 177.127 42.8568 175.999 42.7499 174.86L42.5099 172.26C42.4003 171.313 42.5417 170.355 42.9199 169.48C43.2661 168.704 43.8286 168.044 44.5399 167.58C45.2865 167.107 46.1384 166.825 47.0199 166.76C47.8965 166.664 48.7832 166.788 49.5999 167.12C50.4072 167.434 51.1032 167.98 51.5999 168.69C52.1279 169.486 52.4382 170.407 52.4999 171.36L52.5999 174C52.705 175.134 52.705 176.276 52.5999 177.41C52.5363 178.348 52.348 179.272 52.0399 180.16L49.2099 180.42C49.4836 179.517 49.6448 178.583 49.6899 177.64V177.64Z" fill="white"/>
<path d="M57.56 179.31C56.7863 178.991 56.1152 178.465 55.62 177.79C55.1223 177.093 54.8249 176.274 54.76 175.42L54.27 170.13C54.1978 169.623 54.2404 169.107 54.3944 168.619C54.5484 168.131 54.8101 167.683 55.16 167.31C56.0386 166.497 57.1832 166.031 58.38 166L62.78 165.59L62.99 167.84L58.75 168.23C58.2855 168.235 57.8396 168.413 57.5 168.73C57.3717 168.905 57.2799 169.104 57.2301 169.316C57.1803 169.527 57.1734 169.746 57.21 169.96L57.38 171.82C57.645 171.351 58.0366 170.967 58.51 170.71C59.1014 170.382 59.7621 170.198 60.4382 170.173C61.1142 170.149 61.7864 170.285 62.4 170.57C63.0949 170.902 63.6835 171.422 64.1 172.07C64.5608 172.781 64.8358 173.595 64.9 174.44C64.9882 175.293 64.843 176.153 64.48 176.93C64.1215 177.69 63.5567 178.335 62.85 178.79C62.0684 179.289 61.1747 179.584 60.25 179.65C59.339 179.756 58.4158 179.64 57.56 179.31V179.31ZM61.16 177.06C61.4725 176.823 61.7145 176.505 61.86 176.14C62.0129 175.714 62.0675 175.26 62.02 174.81C61.9844 174.354 61.8514 173.91 61.63 173.51C61.4325 173.165 61.1365 172.886 60.78 172.71C60.4161 172.536 60.011 172.467 59.61 172.51C59.2033 172.543 58.8129 172.684 58.48 172.92C58.1563 173.155 57.9065 173.478 57.76 173.85C57.5991 174.284 57.5409 174.75 57.59 175.21C57.6256 175.663 57.766 176.101 58 176.49C58.2143 176.827 58.5192 177.098 58.88 177.27C59.2515 177.442 59.6634 177.508 60.07 177.46C60.4627 177.427 60.8392 177.289 61.16 177.06V177.06Z" fill="white"/>
<path d="M69.88 178C68.8392 177.547 67.948 176.809 67.31 175.87C66.6136 174.813 66.2035 173.593 66.1201 172.33C65.9956 171.201 66.1324 170.058 66.52 168.99C66.8693 168.041 67.4462 167.193 68.2 166.52C68.9336 165.867 69.8053 165.388 70.75 165.12H70.92C70.865 165.016 70.8246 164.905 70.8001 164.79C70.7696 164.669 70.7495 164.545 70.74 164.42L73.14 164.2C73.1682 164.439 73.1682 164.681 73.14 164.92H73.31C74.2869 164.997 75.2321 165.302 76.07 165.81C76.9354 166.335 77.657 167.067 78.17 167.94C78.7509 168.924 79.0934 170.03 79.17 171.17C79.321 172.429 79.1346 173.706 78.63 174.87C78.1768 175.908 77.4337 176.793 76.49 177.42C75.5214 178.044 74.4168 178.425 73.2696 178.531C72.1225 178.637 70.9667 178.465 69.9001 178.03L69.88 178ZM74.93 175.59C75.4617 175.147 75.8541 174.56 76.06 173.9C76.3019 173.09 76.3768 172.24 76.28 171.4C76.2255 170.683 76.0426 169.982 75.74 169.33C75.4852 168.776 75.1252 168.277 74.68 167.86C74.2955 167.5 73.8337 167.234 73.3301 167.08H73.2601C73.3926 167.507 73.5027 167.941 73.59 168.38C73.68 168.87 73.7501 169.38 73.7901 169.79L74.02 172.25L71.35 172.49L71.13 170C71.0295 169.092 71.0463 168.174 71.18 167.27H71.1C70.3366 167.609 69.722 168.213 69.3701 168.97C68.9618 169.945 68.8236 171.013 68.9701 172.06C69.0247 172.902 69.2564 173.723 69.6501 174.47C69.9752 175.085 70.472 175.592 71.0801 175.93C71.6946 176.251 72.3914 176.38 73.0801 176.3C73.7554 176.245 74.3993 175.991 74.93 175.57V175.59Z" fill="white"/>
<path d="M83.4 177C82.6736 176.759 82.0316 176.315 81.55 175.72C81.0852 175.119 80.8039 174.397 80.74 173.64C80.6716 172.995 80.7294 172.343 80.91 171.72L83.72 171.46C83.72 171.77 83.64 172.04 83.62 172.27C83.6009 172.55 83.6009 172.83 83.62 173.11C83.6465 173.507 83.7701 173.892 83.98 174.23C84.1648 174.527 84.4325 174.763 84.75 174.91C85.0846 175.051 85.4489 175.106 85.81 175.07C86.0828 175.059 86.3498 174.988 86.5918 174.862C86.8339 174.736 87.045 174.557 87.21 174.34C87.5317 173.847 87.6599 173.252 87.57 172.67L87.09 167.42C87.0629 166.872 86.8555 166.348 86.5 165.93C86.3257 165.745 86.1091 165.604 85.8689 165.521C85.6286 165.437 85.3717 165.413 85.12 165.45C84.7913 165.467 84.4746 165.579 84.2084 165.772C83.9421 165.966 83.7377 166.233 83.62 166.54C83.5035 166.835 83.459 167.154 83.49 167.47C83.5172 167.785 83.5741 168.096 83.66 168.4L80.8 168.66C80.6513 168.329 80.5665 167.973 80.55 167.61C80.4831 166.917 80.6259 166.22 80.96 165.61C81.3198 164.942 81.8559 164.385 82.51 164C83.2402 163.564 84.0619 163.304 84.91 163.24C85.7841 163.138 86.6699 163.251 87.49 163.57C88.2099 163.868 88.8306 164.364 89.28 165C89.7208 165.61 89.9838 166.33 90.04 167.08L90.55 172.6C90.653 173.39 90.5176 174.193 90.1613 174.906C89.8049 175.618 89.2439 176.208 88.55 176.6C87.7723 177.024 86.9168 177.286 86.0352 177.37C85.1535 177.454 84.2639 177.359 83.42 177.09L83.4 177Z" fill="white"/>
<path d="M102.94 173.25C103.09 172.459 103.124 171.651 103.04 170.85C103.026 170.215 102.832 169.598 102.48 169.07C102.356 168.895 102.188 168.757 101.993 168.669C101.798 168.581 101.583 168.547 101.37 168.57C101.19 168.58 101.016 168.638 100.866 168.738C100.717 168.838 100.597 168.977 100.52 169.14C100.308 169.56 100.231 170.035 100.3 170.5L100.56 173.25L98.0099 173.49L97.7599 170.75C97.7357 170.275 97.5761 169.817 97.2999 169.43C97.1957 169.285 97.0544 169.17 96.8909 169.098C96.7273 169.026 96.5474 168.999 96.3699 169.02C96.1603 169.038 95.9587 169.11 95.7839 169.227C95.6091 169.344 95.4667 169.503 95.3699 169.69C95.1006 170.267 95.0167 170.913 95.1299 171.54C95.2671 173.152 95.8448 174.695 96.7999 176L93.9899 176.26C93.4642 175.577 93.0522 174.814 92.7699 174C92.413 172.925 92.1946 171.81 92.1199 170.68C91.8194 168.956 92.215 167.183 93.2199 165.75C94.2272 164.558 95.5851 163.715 97.0999 163.34L98.6399 162.9C98.8674 162.839 99.0859 162.748 99.2899 162.63C99.4415 162.538 99.5523 162.391 99.5999 162.22L102.51 161.96C102.527 162.631 102.3 163.285 101.87 163.8C101.283 164.372 100.537 164.756 99.7299 164.9L98.1399 165.29C97.1546 165.512 96.2099 165.887 95.3399 166.4C94.9974 166.594 94.7057 166.867 94.4885 167.195C94.2712 167.524 94.1347 167.899 94.0899 168.29H94.1499C94.3782 167.866 94.7259 167.518 95.1499 167.29C95.5221 167.067 95.9384 166.927 96.3699 166.88C96.8582 166.836 97.3485 166.937 97.7799 167.17C98.2421 167.415 98.6188 167.795 98.8599 168.26H98.9199C99.1432 167.74 99.52 167.3 99.9999 167C100.502 166.671 101.081 166.478 101.68 166.44C102.374 166.364 103.075 166.485 103.704 166.787C104.333 167.089 104.865 167.561 105.24 168.15C105.672 168.829 105.927 169.606 105.98 170.41C106.076 171.304 106.035 172.208 105.86 173.09C105.703 173.856 105.434 174.594 105.06 175.28L102.25 175.53C102.568 174.799 102.8 174.034 102.94 173.25Z" fill="white"/>
<path d="M110 174.59C109.274 174.342 108.633 173.895 108.15 173.3C107.683 172.705 107.404 171.984 107.35 171.23C107.278 170.586 107.333 169.934 107.51 169.31L110.32 169.05C110.32 169.35 110.24 169.62 110.23 169.86C110.206 170.139 110.206 170.42 110.23 170.7C110.256 171.097 110.38 171.482 110.59 171.82C110.773 172.119 111.041 172.355 111.36 172.5C111.675 172.635 112.019 172.686 112.36 172.65C112.632 172.641 112.899 172.572 113.141 172.447C113.383 172.323 113.594 172.146 113.76 171.93C114.085 171.438 114.217 170.843 114.13 170.26L113.64 165.01C113.617 164.461 113.409 163.936 113.05 163.52C112.879 163.33 112.663 163.187 112.421 163.103C112.18 163.019 111.922 162.998 111.67 163.04C111.328 163.058 111 163.18 110.73 163.39C110.48 163.582 110.287 163.838 110.17 164.13C110.051 164.425 110.006 164.744 110.04 165.06C110.065 165.376 110.126 165.688 110.22 165.99L107.35 166.25C107.201 165.919 107.116 165.563 107.1 165.2C107.04 164.508 107.182 163.813 107.51 163.2C107.872 162.544 108.404 161.998 109.05 161.62C109.774 161.178 110.594 160.917 111.44 160.86C112.314 160.757 113.2 160.871 114.02 161.19C114.732 161.468 115.352 161.939 115.81 162.55C116.25 163.165 116.516 163.887 116.58 164.64L117.08 170.15C117.168 170.943 117.026 171.745 116.67 172.46C116.305 173.16 115.746 173.74 115.06 174.13C114.29 174.569 113.433 174.832 112.55 174.9C111.688 174.978 110.819 174.872 110 174.59V174.59Z" fill="white"/>
<path d="M122 173.47C121.25 173.207 120.596 172.727 120.12 172.09C119.631 171.409 119.34 170.606 119.28 169.77L118.43 160.51L121.36 160.24L122.19 169.3C122.22 169.731 122.343 170.151 122.55 170.53C122.726 170.873 122.996 171.157 123.33 171.35C123.675 171.537 124.07 171.614 124.46 171.57C124.837 171.543 125.2 171.416 125.51 171.2C125.792 170.996 126.013 170.72 126.15 170.4C126.275 170.082 126.326 169.74 126.3 169.4C126.278 169.11 126.218 168.824 126.12 168.55C126.034 168.337 125.927 168.132 125.8 167.94C125.673 167.767 125.513 167.577 125.32 167.37C125.09 167.1 124.9 166.87 124.76 166.67C124.595 166.42 124.461 166.152 124.36 165.87C124.22 165.487 124.135 165.087 124.11 164.68L126.92 164.42C126.965 164.771 127.077 165.111 127.25 165.42C127.445 165.774 127.673 166.108 127.93 166.42C128.17 166.72 128.38 166.99 128.55 167.24C128.732 167.525 128.88 167.83 128.99 168.15C129.128 168.561 129.215 168.988 129.25 169.42C129.329 170.162 129.164 170.91 128.78 171.55C128.378 172.206 127.804 172.738 127.12 173.09C126.353 173.501 125.508 173.746 124.64 173.81C123.746 173.891 122.844 173.775 122 173.47V173.47Z" fill="white"/>
<path d="M133.27 172.46C132.544 172.212 131.903 171.765 131.42 171.17C130.953 170.574 130.672 169.854 130.61 169.1C130.54 168.452 130.598 167.796 130.78 167.17L133.59 166.91C133.54 167.22 133.51 167.49 133.49 167.73C133.471 168.006 133.471 168.284 133.49 168.56C133.516 168.96 133.64 169.348 133.85 169.69C134.035 169.984 134.303 170.217 134.62 170.36C134.953 170.506 135.319 170.561 135.68 170.52C135.952 170.509 136.218 170.439 136.459 170.315C136.701 170.19 136.913 170.015 137.08 169.8C137.4 169.306 137.528 168.712 137.44 168.13L136.96 162.88C136.935 162.328 136.727 161.801 136.37 161.38C136.196 161.195 135.979 161.055 135.739 160.971C135.498 160.887 135.242 160.863 134.99 160.9C134.648 160.929 134.319 161.05 134.04 161.25C133.793 161.447 133.603 161.705 133.49 162C133.371 162.295 133.326 162.614 133.36 162.93C133.388 163.241 133.445 163.549 133.53 163.85L130.67 164.12C130.523 163.785 130.438 163.426 130.42 163.06C130.354 162.367 130.496 161.671 130.83 161.06C131.188 160.399 131.721 159.849 132.37 159.47C133.121 159.037 133.958 158.773 134.822 158.699C135.686 158.625 136.556 158.741 137.37 159.04C138.082 159.321 138.702 159.796 139.16 160.41C139.602 161.023 139.866 161.746 139.92 162.5L140.43 168.01C140.533 168.8 140.397 169.603 140.041 170.316C139.685 171.028 139.124 171.618 138.43 172.01C137.66 172.457 136.798 172.72 135.91 172.78C135.017 172.868 134.116 172.759 133.27 172.46V172.46Z" fill="white"/>
<path d="M145 171.31C144.191 171 143.488 170.465 142.972 169.769C142.457 169.073 142.151 168.244 142.09 167.38C142.001 166.591 142.115 165.793 142.42 165.06C142.702 164.381 143.153 163.786 143.73 163.33C144.317 162.856 144.999 162.515 145.73 162.33V161.99C145.715 161.773 145.647 161.563 145.53 161.38C145.425 161.221 145.289 161.085 145.13 160.98C144.924 160.85 144.71 160.733 144.49 160.63C144.24 160.521 144.008 160.376 143.8 160.2C143.587 160.002 143.42 159.759 143.31 159.49C143.15 159.094 143.052 158.676 143.02 158.25L145.72 158C145.742 158.278 145.846 158.542 146.02 158.76C146.22 158.986 146.461 159.172 146.73 159.31C147.023 159.459 147.307 159.626 147.58 159.81C147.817 159.99 148.02 160.21 148.18 160.46C148.366 160.762 148.476 161.106 148.5 161.46L148.57 162.21C149.223 162.323 149.844 162.575 150.39 162.95C150.946 163.326 151.411 163.821 151.75 164.4C152.104 165.013 152.319 165.695 152.38 166.4C152.478 167.279 152.321 168.167 151.93 168.96C151.549 169.719 150.959 170.354 150.23 170.79C149.45 171.263 148.569 171.544 147.66 171.61C146.762 171.723 145.85 171.62 145 171.31V171.31ZM148.6 169.03C148.922 168.794 149.166 168.466 149.3 168.09C149.462 167.646 149.517 167.169 149.46 166.7C149.428 166.242 149.291 165.797 149.06 165.4C148.856 165.055 148.553 164.78 148.19 164.61C147.811 164.438 147.393 164.373 146.98 164.42C146.583 164.449 146.203 164.588 145.88 164.82C145.56 165.054 145.316 165.377 145.18 165.75C145.017 166.184 144.962 166.65 145.02 167.11C145.053 167.579 145.186 168.036 145.41 168.45C145.607 168.795 145.903 169.074 146.26 169.25C146.628 169.422 147.037 169.487 147.44 169.44C147.863 169.404 148.268 169.251 148.61 169L148.6 169.03Z" fill="white"/>
<path d="M156.94 170.26C156.192 170 155.537 169.523 155.06 168.89C154.574 168.208 154.284 167.405 154.22 166.57L153.37 157.31L156.3 157.04L157.13 166.1C157.16 166.531 157.283 166.951 157.49 167.33C157.667 167.669 157.938 167.95 158.27 168.14C158.614 168.332 159.01 168.409 159.4 168.36C159.761 168.329 160.106 168.202 160.4 167.99C160.682 167.79 160.903 167.517 161.04 167.2C161.164 166.882 161.216 166.54 161.19 166.2C161.164 165.913 161.1 165.63 161 165.36C160.924 165.142 160.816 164.936 160.68 164.75C160.54 164.547 160.382 164.357 160.21 164.18C159.98 163.91 159.79 163.67 159.65 163.47C159.481 163.226 159.346 162.961 159.25 162.68C159.111 162.297 159.027 161.897 159 161.49L161.81 161.23C161.856 161.581 161.968 161.921 162.14 162.23C162.338 162.582 162.565 162.917 162.82 163.23C163.039 163.488 163.243 163.758 163.43 164.04C163.616 164.324 163.767 164.63 163.88 164.95C164.017 165.365 164.104 165.795 164.14 166.23C164.217 166.972 164.052 167.719 163.67 168.36C163.265 169.013 162.692 169.545 162.01 169.9C161.241 170.306 160.397 170.551 159.53 170.62C158.651 170.692 157.766 170.569 156.94 170.26V170.26Z" fill="white"/>
<path d="M169.3 169.38C169.348 169.861 169.272 170.346 169.08 170.79C168.885 171.256 168.576 171.665 168.18 171.98C167.734 172.337 167.215 172.593 166.66 172.73L166.54 171.38C166.79 171.304 167.017 171.167 167.2 170.98C167.384 170.801 167.524 170.582 167.61 170.34C167.705 170.113 167.743 169.865 167.72 169.62V169.49L166.37 169.62L166.1 166.73L169.05 166.46L169.3 169.38Z" fill="white"/>
<path d="M143.31 198C142.218 197.57 141.269 196.842 140.57 195.9C139.874 194.943 139.458 193.81 139.37 192.63C139.237 191.477 139.406 190.309 139.86 189.24C140.283 188.268 140.978 187.438 141.86 186.85C142.755 186.26 143.79 185.915 144.86 185.85C145.688 185.763 146.525 185.862 147.31 186.14C148.026 186.369 148.659 186.804 149.13 187.39H149.19L148.88 184.06C148.857 183.444 148.66 182.847 148.31 182.34C148.16 182.144 147.96 181.993 147.731 181.901C147.503 181.81 147.253 181.782 147.01 181.82C146.786 181.829 146.567 181.888 146.37 181.994C146.172 182.1 146.002 182.249 145.87 182.43C145.618 182.803 145.508 183.253 145.56 183.7L145.62 184.31L142.08 184.63L142.03 184.08C141.93 183.08 141.31 182.61 140.15 182.72L138.82 182.84L138.53 179.69L140.26 179.53C140.959 179.447 141.667 179.555 142.31 179.84C142.905 180.114 143.373 180.604 143.62 181.21H143.75C144.002 180.491 144.493 179.881 145.14 179.48C145.853 179.049 146.659 178.796 147.49 178.74C148.398 178.637 149.317 178.753 150.17 179.08C150.944 179.39 151.609 179.922 152.08 180.61C152.598 181.406 152.902 182.322 152.96 183.27L153.71 191.38C153.833 192.555 153.633 193.741 153.13 194.81C152.631 195.861 151.844 196.749 150.86 197.37C149.744 198.04 148.49 198.45 147.194 198.569C145.897 198.689 144.59 198.515 143.37 198.06L143.31 198ZM148.41 194.85C148.856 194.521 149.202 194.074 149.41 193.56C149.636 193.01 149.722 192.412 149.66 191.82C149.616 191.217 149.427 190.634 149.11 190.12C148.814 189.656 148.395 189.282 147.9 189.04C147.376 188.806 146.801 188.713 146.23 188.77C145.674 188.813 145.14 189.01 144.69 189.34C144.242 189.663 143.896 190.107 143.69 190.62C143.474 191.18 143.396 191.783 143.46 192.38C143.505 192.973 143.694 193.546 144.01 194.05C144.299 194.519 144.715 194.897 145.21 195.14C145.708 195.375 146.262 195.469 146.81 195.41C147.381 195.39 147.936 195.209 148.41 194.89V194.85Z" fill="white"/>
<path d="M159.8 196.66C158.785 196.315 157.888 195.691 157.21 194.86C156.555 194.026 156.162 193.017 156.08 191.96C155.983 191.054 156.061 190.137 156.31 189.26L160.25 188.9C160.188 189.278 160.144 189.658 160.12 190.04C160.086 190.429 160.086 190.821 160.12 191.21C160.16 191.767 160.335 192.306 160.63 192.78C160.882 193.201 161.26 193.533 161.71 193.73C162.172 193.932 162.679 194.007 163.18 193.95C163.567 193.945 163.948 193.852 164.294 193.679C164.641 193.506 164.944 193.257 165.18 192.95C165.632 192.259 165.813 191.426 165.69 190.61L165.02 183.26C164.98 182.491 164.688 181.757 164.19 181.17C163.947 180.908 163.642 180.709 163.304 180.592C162.965 180.476 162.604 180.444 162.25 180.5C161.772 180.532 161.313 180.703 160.93 180.99C160.589 181.251 160.32 181.595 160.15 181.99C159.989 182.403 159.928 182.849 159.97 183.29C160.008 183.731 160.092 184.166 160.22 184.59L156.22 184.96C156.02 184.491 155.905 183.99 155.88 183.48C155.788 182.501 155.986 181.517 156.45 180.65C156.955 179.731 157.697 178.964 158.6 178.43C159.622 177.818 160.772 177.452 161.96 177.36C163.18 177.224 164.416 177.385 165.56 177.83C166.56 178.218 167.43 178.88 168.07 179.74C168.687 180.597 169.057 181.607 169.14 182.66L169.85 190.38C169.991 191.494 169.795 192.625 169.287 193.627C168.779 194.629 167.982 195.455 167 196C165.92 196.623 164.713 196.992 163.47 197.08C162.231 197.217 160.976 197.074 159.8 196.66V196.66Z" fill="white"/>
<path d="M176.57 195C175.477 194.562 174.533 193.819 173.85 192.86C173.153 191.887 172.734 190.743 172.64 189.55L171.96 182.15C171.851 181.433 171.906 180.7 172.121 180.008C172.336 179.315 172.705 178.68 173.2 178.15C174.442 177.035 176.041 176.4 177.71 176.36L183.88 175.8L184.17 178.95L178.23 179.49C177.577 179.495 176.952 179.749 176.48 180.2C176.3 180.443 176.171 180.719 176.1 181.013C176.03 181.307 176.019 181.612 176.07 181.91L176.31 184.51H176.37C176.76 183.863 177.325 183.339 178 183C178.72 182.585 179.522 182.332 180.35 182.26C181.417 182.153 182.492 182.342 183.457 182.808C184.423 183.274 185.241 183.998 185.82 184.9C186.459 185.898 186.84 187.039 186.93 188.22C187.058 189.411 186.857 190.615 186.35 191.7C185.848 192.769 185.055 193.674 184.06 194.31C182.971 195.012 181.722 195.428 180.43 195.52C179.12 195.67 177.793 195.492 176.57 195ZM181.57 191.85C182.026 191.526 182.374 191.073 182.57 190.55C182.793 189.957 182.872 189.32 182.8 188.69C182.751 188.054 182.563 187.436 182.25 186.88C181.974 186.396 181.56 186.006 181.06 185.76C180.554 185.516 179.989 185.419 179.43 185.48C178.859 185.526 178.31 185.723 177.84 186.05C177.389 186.382 177.042 186.837 176.84 187.36C176.613 187.966 176.531 188.617 176.6 189.26C176.648 189.894 176.847 190.508 177.18 191.05C177.478 191.519 177.9 191.897 178.4 192.14C178.921 192.383 179.499 192.477 180.07 192.41C180.623 192.365 181.152 192.168 181.6 191.84L181.57 191.85Z" fill="white"/>
<path d="M207.25 188.86C207.43 187.353 207.45 185.831 207.31 184.32L206.92 179.99C206.898 179.003 206.604 178.041 206.07 177.21C205.867 176.964 205.608 176.77 205.315 176.644C205.022 176.519 204.704 176.465 204.386 176.487C204.068 176.51 203.76 176.608 203.487 176.774C203.215 176.94 202.986 177.168 202.82 177.44C202.43 178.251 202.301 179.163 202.45 180.05L203 186.05C203.168 187.426 202.986 188.823 202.47 190.11C202.019 191.213 201.249 192.156 200.26 192.82C199.238 193.485 198.066 193.884 196.85 193.98C195.622 194.107 194.382 193.928 193.24 193.46C192.123 192.995 191.167 192.213 190.49 191.21C189.726 190.048 189.278 188.708 189.19 187.32L188.73 182.32C188.57 180.964 188.749 179.59 189.25 178.32C189.686 177.22 190.438 176.274 191.41 175.6C192.379 174.932 193.507 174.532 194.68 174.44C195.738 174.326 196.808 174.481 197.79 174.89C198.691 175.258 199.461 175.889 200 176.7H200.11C200.312 176.098 200.655 175.553 201.11 175.11C201.549 174.642 202.075 174.265 202.66 174C203.24 173.728 203.862 173.559 204.5 173.5C205.572 173.381 206.657 173.565 207.63 174.03C208.604 174.511 209.417 175.265 209.97 176.2C210.617 177.297 210.997 178.53 211.08 179.8L211.46 183.8C211.611 185.395 211.581 187.002 211.37 188.59C211.229 189.861 210.892 191.103 210.37 192.27L206.3 192.64C206.816 191.439 207.137 190.163 207.25 188.86V188.86ZM198.6 189.62C199.04 188.6 199.182 187.477 199.01 186.38L198.56 181.47C198.517 180.355 198.171 179.273 197.56 178.34C197.299 178.003 196.953 177.743 196.557 177.586C196.161 177.43 195.73 177.383 195.31 177.45C194.883 177.467 194.467 177.594 194.104 177.82C193.741 178.047 193.443 178.364 193.24 178.74C192.79 179.753 192.641 180.874 192.81 181.97L193.26 186.9C193.52 189.74 194.62 191.07 196.54 190.9C196.966 190.89 197.382 190.766 197.744 190.541C198.107 190.316 198.402 189.998 198.6 189.62V189.62Z" fill="white"/>
<path d="M217.78 191.35C216.76 191.016 215.849 190.416 215.14 189.61C214.484 188.822 214.086 187.852 214 186.83C213.965 186.421 213.965 186.009 214 185.6C214.031 185.231 214.098 184.866 214.2 184.51L218.09 184.15C217.956 184.706 217.919 185.281 217.98 185.85C217.994 186.258 218.09 186.66 218.262 187.031C218.434 187.402 218.678 187.735 218.98 188.01C219.289 188.258 219.645 188.441 220.026 188.547C220.408 188.654 220.807 188.682 221.2 188.63C221.715 188.588 222.212 188.423 222.65 188.15C223.084 187.889 223.431 187.506 223.65 187.05C223.879 186.557 223.965 186.01 223.9 185.47C223.86 184.959 223.706 184.464 223.45 184.02C223.206 183.588 222.839 183.239 222.395 183.018C221.951 182.797 221.451 182.714 220.96 182.78L219.96 182.86L219.7 180L220.62 179.92C220.941 179.913 221.256 179.835 221.543 179.691C221.83 179.548 222.082 179.342 222.28 179.09C222.64 178.586 222.794 177.964 222.71 177.35C222.68 176.93 222.539 176.526 222.3 176.18C222.066 175.838 221.745 175.566 221.37 175.39C220.949 175.205 220.487 175.133 220.03 175.18C219.565 175.215 219.117 175.37 218.73 175.63C218.384 175.884 218.117 176.231 217.96 176.63C217.797 177.036 217.739 177.476 217.79 177.91C217.807 178.251 217.87 178.587 217.98 178.91L214.07 179.27C213.895 178.822 213.79 178.35 213.76 177.87C213.67 176.953 213.877 176.031 214.35 175.24C214.869 174.368 215.606 173.648 216.49 173.15C217.496 172.578 218.616 172.236 219.77 172.15C220.89 172.041 222.021 172.167 223.09 172.52C224.044 172.839 224.896 173.405 225.56 174.16C226.186 174.872 226.568 175.765 226.65 176.71C226.752 177.609 226.592 178.519 226.19 179.33C225.832 180.054 225.25 180.643 224.53 181.01V181.11C225.119 181.259 225.669 181.535 226.14 181.92C226.66 182.335 227.088 182.852 227.4 183.44C227.745 184.116 227.956 184.853 228.02 185.61C228.137 186.657 227.901 187.712 227.35 188.61C226.767 189.539 225.95 190.298 224.98 190.81C222.761 191.971 220.173 192.209 217.78 191.47V191.35Z" fill="white"/>
<path d="M239.9 185.83C240.03 184.289 240.03 182.741 239.9 181.2L239.56 177.5C239.521 176.45 239.173 175.434 238.56 174.58C238.285 174.268 237.941 174.024 237.554 173.87C237.167 173.716 236.75 173.656 236.336 173.694C235.921 173.732 235.522 173.867 235.17 174.089C234.818 174.311 234.523 174.613 234.31 174.97C233.861 175.92 233.704 176.981 233.86 178.02L234.2 181.72C234.344 183.251 234.618 184.766 235.02 186.25C235.345 187.514 235.801 188.74 236.38 189.91L232.38 190.27C231.727 189.137 231.235 187.919 230.92 186.65C230.491 185.109 230.2 183.533 230.05 181.94L229.71 178.29C229.557 176.966 229.754 175.625 230.28 174.4C230.767 173.315 231.554 172.391 232.55 171.74C233.594 171.077 234.786 170.682 236.02 170.59C237.246 170.461 238.485 170.633 239.63 171.09C240.737 171.544 241.686 172.312 242.36 173.3C243.101 174.415 243.538 175.704 243.63 177.04L243.96 180.66C244.11 182.25 244.11 183.85 243.96 185.44C243.866 186.749 243.601 188.04 243.17 189.28L239.17 189.65C239.565 188.41 239.81 187.128 239.9 185.83Z" fill="white"/>
<path d="M251 188.26C249.949 187.896 249.03 187.228 248.36 186.34C247.678 185.389 247.272 184.267 247.19 183.1L246 170.1L250.09 169.72L251.26 182.4C251.304 183.005 251.475 183.594 251.76 184.13C252.013 184.605 252.394 185 252.86 185.27C253.339 185.533 253.887 185.642 254.43 185.58C254.961 185.541 255.472 185.361 255.91 185.06C256.302 184.773 256.609 184.387 256.8 183.94C256.99 183.478 257.063 182.977 257.01 182.48C256.979 182.076 256.892 181.679 256.75 181.3C256.642 180.995 256.494 180.706 256.31 180.44C256.13 180.2 255.91 179.94 255.64 179.64C255.37 179.34 255.06 178.94 254.86 178.64C254.628 178.29 254.437 177.914 254.29 177.52C254.102 176.984 253.984 176.426 253.94 175.86L257.88 175.5C257.942 175.995 258.098 176.474 258.34 176.91C258.635 177.393 258.97 177.851 259.34 178.28C259.68 178.69 259.96 179.07 260.2 179.42C260.458 179.82 260.666 180.25 260.82 180.7C261.015 181.276 261.136 181.874 261.18 182.48C261.298 183.524 261.069 184.578 260.53 185.48C259.962 186.396 259.157 187.142 258.2 187.64C257.125 188.209 255.943 188.549 254.73 188.64C253.474 188.804 252.197 188.674 251 188.26V188.26Z" fill="white"/>
<path d="M272.51 176.83C271.867 176.601 271.305 176.192 270.89 175.65C270.474 175.061 270.225 174.369 270.17 173.65L269.44 165.65L271.96 165.42L272.67 173.21C272.702 173.581 272.807 173.941 272.98 174.27C273.136 174.563 273.372 174.805 273.66 174.97C273.964 175.139 274.315 175.205 274.66 175.16C274.984 175.138 275.295 175.027 275.56 174.84C275.804 174.666 275.994 174.427 276.11 174.15C276.225 173.868 276.269 173.563 276.24 173.26C276.219 173.011 276.165 172.765 276.08 172.53C276.009 172.342 275.915 172.164 275.8 172C275.674 171.828 275.537 171.664 275.39 171.51C275.2 171.28 275.04 171.08 274.92 170.91C274.773 170.696 274.656 170.464 274.57 170.22C274.453 169.898 274.379 169.562 274.35 169.22L276.77 169C276.816 169.303 276.911 169.597 277.05 169.87C277.19 170.1 277.39 170.38 277.64 170.71C277.832 170.932 278.009 171.166 278.17 171.41C278.332 171.651 278.46 171.914 278.55 172.19C278.671 172.546 278.748 172.915 278.78 173.29C278.847 173.928 278.703 174.571 278.37 175.12C278.025 175.686 277.53 176.147 276.94 176.45C276.279 176.799 275.555 177.01 274.81 177.07C274.035 177.163 273.249 177.081 272.51 176.83V176.83Z" fill="white"/>
<path d="M282.16 175.9C281.5 175.646 280.925 175.209 280.504 174.641C280.082 174.072 279.831 173.396 279.78 172.69C279.725 172.039 279.813 171.383 280.04 170.77L282.46 170.54C282.298 171.115 282.237 171.714 282.28 172.31C282.306 172.689 282.415 173.058 282.6 173.39C282.757 173.688 282.996 173.935 283.29 174.1C283.593 174.273 283.945 174.34 284.29 174.29C284.654 174.284 285.005 174.157 285.29 173.93C285.549 173.72 285.74 173.438 285.84 173.12C285.946 172.757 285.979 172.376 285.94 172C285.909 171.538 285.791 171.087 285.59 170.67C285.421 170.308 285.202 169.972 284.94 169.67C284.69 169.41 284.36 169.09 283.94 168.67C283.581 168.363 283.247 168.029 282.94 167.67C282.641 167.286 282.404 166.858 282.24 166.4C282.007 165.795 281.869 165.157 281.83 164.51L284.34 164.28C284.375 164.716 284.476 165.144 284.64 165.55C284.775 165.908 284.96 166.245 285.19 166.55C285.439 166.868 285.71 167.169 286 167.45C286.5 167.95 286.89 168.37 287.19 168.72C287.516 169.117 287.785 169.558 287.99 170.03C288.247 170.616 288.403 171.242 288.45 171.88C288.514 172.569 288.383 173.263 288.07 173.88C287.743 174.514 287.248 175.047 286.64 175.42C285.982 175.83 285.234 176.074 284.46 176.13C283.686 176.246 282.896 176.167 282.16 175.9V175.9Z" fill="white"/>
<path d="M292.35 175C291.707 174.771 291.145 174.362 290.73 173.82C290.306 173.235 290.056 172.541 290.01 171.82L289.28 163.82L291.79 163.59L292.51 171.38C292.542 171.75 292.647 172.111 292.82 172.44C292.973 172.732 293.205 172.975 293.49 173.14C293.795 173.307 294.145 173.374 294.49 173.33C294.817 173.31 295.132 173.199 295.4 173.01C295.644 172.838 295.832 172.598 295.94 172.32C296.06 172.04 296.105 171.733 296.07 171.43C296.057 171.18 296.007 170.934 295.92 170.7C295.849 170.512 295.755 170.334 295.64 170.17C295.514 169.998 295.377 169.834 295.23 169.68C295.058 169.487 294.897 169.283 294.75 169.07C294.607 168.858 294.49 168.63 294.4 168.39C294.286 168.067 294.216 167.731 294.19 167.39L296.61 167.17C296.647 167.475 296.742 167.77 296.89 168.04C297.07 168.332 297.267 168.612 297.48 168.88C297.668 169.104 297.845 169.338 298.01 169.58C298.168 169.823 298.296 170.085 298.39 170.36C298.507 170.716 298.581 171.086 298.61 171.46C298.68 172.097 298.539 172.74 298.21 173.29C297.862 173.854 297.368 174.314 296.78 174.62C296.118 174.966 295.394 175.177 294.65 175.24C293.875 175.333 293.089 175.251 292.35 175Z" fill="white"/>
<path d="M302.36 174.1C301.699 173.884 301.108 173.494 300.65 172.97C300.215 172.458 299.952 171.821 299.9 171.15C299.86 170.649 299.908 170.145 300.04 169.66L302.47 169.44C302.47 169.63 302.41 169.84 302.39 170.07C302.375 170.29 302.375 170.51 302.39 170.73C302.415 171.064 302.522 171.387 302.7 171.67C302.878 171.939 303.127 172.154 303.42 172.29C303.734 172.428 304.079 172.48 304.42 172.44C304.752 172.412 305.072 172.302 305.35 172.12C305.614 171.933 305.822 171.677 305.95 171.38C306.087 171.024 306.135 170.639 306.09 170.26L305.65 165.5C305.636 165.117 305.507 164.748 305.28 164.44C305.177 164.317 305.043 164.223 304.892 164.167C304.742 164.11 304.579 164.094 304.42 164.12C304.264 164.124 304.113 164.169 303.979 164.25C303.846 164.33 303.736 164.444 303.66 164.58C303.487 164.915 303.427 165.298 303.49 165.67L303.63 167.2L301.29 167.41L301.15 165.9C301.14 165.564 301 165.245 300.76 165.01C300.628 164.905 300.475 164.829 300.311 164.788C300.147 164.746 299.976 164.74 299.81 164.77L299.05 164.84L298.87 162.84L299.71 162.76C300.203 162.697 300.703 162.752 301.17 162.92C301.572 163.102 301.9 163.416 302.1 163.81H302.16C302.323 163.348 302.636 162.953 303.05 162.69C303.496 162.411 304.005 162.246 304.53 162.21C305.139 162.141 305.756 162.216 306.33 162.43C306.841 162.63 307.28 162.978 307.59 163.43C307.91 163.91 308.1 164.465 308.14 165.04L308.61 170.15C308.677 170.839 308.545 171.533 308.23 172.15C307.898 172.773 307.399 173.292 306.79 173.65C306.114 174.041 305.359 174.277 304.58 174.34C303.831 174.414 303.076 174.333 302.36 174.1Z" fill="white"/>
<path d="M319.27 170.85C319.403 170.168 319.433 169.471 319.36 168.78C319.352 168.234 319.185 167.703 318.88 167.25C318.777 167.098 318.633 166.977 318.466 166.901C318.298 166.826 318.113 166.797 317.93 166.82C317.775 166.832 317.626 166.883 317.496 166.969C317.367 167.054 317.261 167.172 317.19 167.31C317.008 167.671 316.945 168.081 317.01 168.48L317.22 170.85L315.03 171.05L314.82 168.7C314.803 168.29 314.667 167.895 314.43 167.56C314.336 167.438 314.212 167.342 314.07 167.28C313.929 167.219 313.774 167.195 313.62 167.21C313.441 167.226 313.268 167.286 313.118 167.386C312.967 167.485 312.845 167.621 312.76 167.78C312.535 168.281 312.462 168.838 312.55 169.38C312.673 170.764 313.171 172.088 313.99 173.21L311.58 173.43C311.129 172.851 310.774 172.203 310.53 171.51C310.22 170.585 310.031 169.624 309.97 168.65C309.711 167.168 310.049 165.643 310.91 164.41C311.778 163.386 312.947 162.661 314.25 162.34L315.58 161.96C315.776 161.908 315.964 161.831 316.14 161.73C316.265 161.647 316.357 161.524 316.4 161.38L318.9 161.15C318.92 161.727 318.724 162.29 318.35 162.73C317.859 163.245 317.219 163.595 316.52 163.73L315.15 164.06C314.299 164.265 313.486 164.602 312.74 165.06C312.446 165.227 312.196 165.461 312.008 165.742C311.821 166.023 311.702 166.345 311.66 166.68C311.848 166.316 312.14 166.016 312.5 165.82C312.82 165.627 313.178 165.507 313.55 165.47C313.968 165.43 314.389 165.514 314.76 165.71C315.156 165.925 315.48 166.252 315.69 166.65H315.74C315.918 166.19 316.237 165.799 316.65 165.53C317.123 165.241 317.659 165.073 318.213 165.042C318.766 165.011 319.318 165.116 319.82 165.35C320.368 165.606 320.833 166.011 321.16 166.52C321.529 167.108 321.746 167.778 321.79 168.47C321.874 169.24 321.844 170.019 321.7 170.78C321.555 171.431 321.323 172.06 321.01 172.65L318.59 172.87C318.902 172.228 319.131 171.55 319.27 170.85V170.85Z" fill="white"/>
<path d="M325.41 172C324.783 171.797 324.223 171.427 323.79 170.93C323.383 170.448 323.138 169.849 323.09 169.22C323.065 168.967 323.065 168.713 323.09 168.46C323.105 168.233 323.145 168.008 323.21 167.79L325.6 167.57C325.521 167.914 325.497 168.268 325.53 168.62C325.539 168.872 325.599 169.119 325.706 169.348C325.812 169.576 325.963 169.781 326.15 169.95C326.339 170.103 326.557 170.215 326.791 170.281C327.025 170.346 327.269 170.363 327.51 170.33C327.827 170.305 328.133 170.202 328.4 170.03C328.659 169.868 328.867 169.635 329 169.36C329.144 169.048 329.196 168.701 329.15 168.36C329.126 168.044 329.034 167.737 328.88 167.46C328.727 167.207 328.51 167 328.25 166.86C327.969 166.718 327.652 166.662 327.34 166.7L326.75 166.76L326.58 165L327.15 164.95C327.343 164.94 327.532 164.89 327.705 164.802C327.877 164.714 328.029 164.591 328.15 164.44C328.365 164.124 328.458 163.74 328.41 163.36C328.394 163.105 328.308 162.859 328.16 162.65C328.017 162.439 327.82 162.27 327.59 162.16C327.329 162.047 327.042 162.005 326.76 162.04C326.478 162.061 326.206 162.154 325.97 162.31C325.757 162.461 325.591 162.669 325.49 162.91C325.395 163.158 325.361 163.426 325.39 163.69C325.398 163.898 325.438 164.104 325.51 164.3L323.11 164.52C322.948 164.121 322.88 163.69 322.909 163.26C322.939 162.831 323.065 162.413 323.28 162.04C323.595 161.505 324.047 161.063 324.59 160.76C325.2 160.401 325.884 160.185 326.59 160.13C327.265 160.066 327.947 160.144 328.59 160.36C329.181 160.549 329.71 160.894 330.12 161.36C330.503 161.795 330.735 162.342 330.78 162.92C330.845 163.472 330.748 164.032 330.5 164.53C330.282 164.962 329.932 165.312 329.5 165.53V165.6C329.867 165.683 330.209 165.851 330.5 166.09C330.818 166.348 331.08 166.667 331.27 167.03C331.49 167.441 331.619 167.895 331.65 168.36C331.719 168.992 331.575 169.629 331.24 170.17C330.885 170.741 330.384 171.207 329.79 171.52C329.125 171.887 328.388 172.106 327.63 172.16C326.887 172.261 326.131 172.207 325.41 172V172Z" fill="white"/>
<path d="M335.14 171.1C334.515 170.889 333.964 170.504 333.55 169.99C333.147 169.478 332.903 168.859 332.85 168.21C332.795 167.655 332.846 167.095 333 166.56L335.42 166.33C335.37 166.6 335.35 166.83 335.33 167.03C335.311 167.27 335.311 167.51 335.33 167.75C335.352 168.103 335.458 168.446 335.64 168.75C335.799 169.003 336.028 169.205 336.3 169.33C336.586 169.454 336.9 169.502 337.21 169.47C337.445 169.463 337.675 169.402 337.883 169.293C338.09 169.184 338.271 169.029 338.41 168.84C338.694 168.421 338.808 167.91 338.73 167.41L338.31 162.89C338.286 162.416 338.107 161.962 337.8 161.6C337.649 161.441 337.462 161.32 337.255 161.249C337.048 161.178 336.827 161.157 336.61 161.19C336.315 161.209 336.032 161.317 335.8 161.5C335.586 161.662 335.42 161.88 335.32 162.13C335.219 162.384 335.181 162.658 335.21 162.93C335.236 163.201 335.286 163.468 335.36 163.73L332.9 163.96C332.774 163.672 332.7 163.364 332.68 163.05C332.622 162.447 332.747 161.84 333.04 161.31C333.349 160.743 333.805 160.27 334.36 159.94C334.987 159.567 335.692 159.344 336.42 159.29C337.169 159.205 337.928 159.305 338.63 159.58C339.245 159.814 339.78 160.22 340.17 160.75C340.553 161.277 340.781 161.9 340.83 162.55L341.27 167.29C341.353 167.978 341.228 168.674 340.91 169.29C340.598 169.893 340.119 170.393 339.53 170.73C338.867 171.105 338.13 171.33 337.37 171.39C336.614 171.46 335.853 171.361 335.14 171.1V171.1Z" fill="white"/>
<path d="M351.81 168.63C351.096 168.461 350.358 168.42 349.63 168.51L344.46 168.98L344.31 167.34L345.89 167.19V167.13C345.306 166.988 344.756 166.733 344.27 166.38C343.753 166.016 343.32 165.545 343 165C342.661 164.416 342.456 163.763 342.4 163.09C342.309 162.299 342.391 161.497 342.64 160.74C342.841 160.104 343.219 159.539 343.73 159.11C344.232 158.703 344.846 158.459 345.49 158.41C346.027 158.358 346.568 158.448 347.06 158.67C347.519 158.873 347.896 159.226 348.13 159.67H348.19C348.26 159.356 348.4 159.062 348.6 158.81C348.798 158.563 349.047 158.362 349.33 158.22C349.609 158.072 349.915 157.983 350.23 157.96C350.566 157.927 350.905 157.958 351.23 158.05C351.538 158.136 351.824 158.286 352.07 158.49C352.322 158.692 352.509 158.963 352.61 159.27H352.68C352.835 158.79 353.135 158.371 353.54 158.07C353.958 157.761 354.453 157.574 354.97 157.53C355.623 157.455 356.283 157.575 356.868 157.874C357.454 158.173 357.938 158.637 358.26 159.21C358.644 159.88 358.869 160.629 358.92 161.4C359.049 162.569 358.96 163.753 358.66 164.89L356.17 165.11C356.471 163.997 356.559 162.836 356.43 161.69C356.408 161.073 356.24 160.47 355.94 159.93C355.843 159.755 355.697 159.612 355.518 159.522C355.34 159.431 355.139 159.395 354.94 159.42C354.785 159.435 354.635 159.486 354.503 159.57C354.371 159.653 354.26 159.766 354.18 159.9C353.997 160.236 353.934 160.624 354 161L354.26 163.9L351.99 164.11L351.72 161.19C351.7 160.822 351.559 160.47 351.32 160.19C351.214 160.073 351.081 159.984 350.933 159.928C350.786 159.872 350.627 159.853 350.47 159.87C350.311 159.882 350.157 159.932 350.022 160.016C349.886 160.099 349.772 160.214 349.69 160.35C349.501 160.684 349.427 161.07 349.48 161.45L349.75 164.36L347.47 164.57L347.21 161.7C347.193 161.307 347.061 160.928 346.83 160.61C346.729 160.489 346.599 160.397 346.452 160.34C346.305 160.284 346.146 160.267 345.99 160.29C345.786 160.305 345.591 160.381 345.432 160.51C345.273 160.639 345.157 160.813 345.1 161.01C344.906 161.603 344.852 162.233 344.94 162.85C344.982 163.574 345.223 164.272 345.636 164.868C346.048 165.465 346.617 165.936 347.28 166.23C347.878 166.498 348.525 166.641 349.18 166.65H349.62C350.02 166.65 350.47 166.65 350.97 166.65C351.47 166.65 351.91 166.65 352.29 166.73C353.142 166.782 353.964 167.062 354.67 167.54C355.231 167.999 355.59 168.659 355.67 169.38L352.91 169.63C352.84 169.376 352.7 169.148 352.505 168.971C352.31 168.794 352.069 168.676 351.81 168.63V168.63Z" fill="white"/>
<path d="M366.6 166.07C366.68 165.125 366.68 164.175 366.6 163.23L366.39 160.95C366.367 160.306 366.155 159.684 365.78 159.16C365.612 158.966 365.401 158.814 365.163 158.718C364.926 158.622 364.668 158.585 364.413 158.608C364.158 158.632 363.912 158.716 363.696 158.853C363.479 158.991 363.299 159.179 363.17 159.4C362.894 159.985 362.796 160.639 362.89 161.28L363.1 163.55C363.193 164.489 363.364 165.419 363.61 166.33C363.804 167.108 364.083 167.862 364.44 168.58L362.01 168.81C361.613 168.11 361.31 167.36 361.11 166.58C360.844 165.632 360.666 164.661 360.58 163.68L360.37 161.44C360.278 160.626 360.399 159.803 360.72 159.05C361.019 158.382 361.505 157.816 362.12 157.42C362.763 157.023 363.49 156.78 364.243 156.711C364.996 156.641 365.755 156.747 366.46 157.02C367.141 157.299 367.725 157.772 368.14 158.38C368.598 159.061 368.867 159.851 368.92 160.67L369.12 162.9C369.21 163.878 369.21 164.862 369.12 165.84C369.056 166.643 368.894 167.435 368.64 168.2L366.2 168.42C366.428 167.656 366.562 166.867 366.6 166.07V166.07Z" fill="white"/>
<path d="M188.51 223.23C187.117 222.739 185.9 221.849 185.01 220.67C184.098 219.411 183.558 217.921 183.45 216.37L181.87 199.15L187.31 198.65L188.85 215.49C188.918 216.291 189.146 217.069 189.52 217.78C189.86 218.416 190.373 218.943 191 219.3C191.637 219.65 192.369 219.79 193.09 219.7C193.808 219.66 194.5 219.421 195.09 219.01C195.615 218.638 196.024 218.125 196.27 217.53C196.527 216.918 196.623 216.25 196.55 215.59C196.509 215.055 196.398 214.527 196.22 214.02C196.065 213.618 195.864 213.235 195.62 212.88C195.342 212.511 195.045 212.158 194.73 211.82C194.31 211.32 193.96 210.89 193.73 210.51C193.416 210.055 193.164 209.561 192.98 209.04C192.722 208.329 192.564 207.585 192.51 206.83L197.74 206.35C197.828 207.009 198.034 207.646 198.35 208.23C198.73 208.863 199.154 209.468 199.62 210.04C200.07 210.59 200.45 211.09 200.76 211.55C201.104 212.082 201.382 212.652 201.59 213.25C201.841 214.019 202.002 214.814 202.07 215.62C202.227 217.013 201.921 218.418 201.2 219.62C200.445 220.836 199.378 221.827 198.11 222.49C196.681 223.246 195.112 223.699 193.5 223.82C191.814 224.011 190.106 223.809 188.51 223.23Z" fill="white"/>
<path d="M209.36 221.23C207.941 220.676 206.705 219.737 205.79 218.52C204.882 217.283 204.335 215.819 204.21 214.29C204.086 212.875 204.281 211.45 204.78 210.12L210.01 209.64C209.657 210.884 209.525 212.18 209.62 213.47C209.679 214.287 209.915 215.082 210.31 215.8C210.652 216.44 211.169 216.971 211.8 217.33C212.453 217.697 213.207 217.844 213.95 217.75C214.688 217.715 215.397 217.451 215.978 216.994C216.559 216.536 216.983 215.909 217.19 215.2C217.436 214.422 217.518 213.601 217.43 212.79C217.355 211.789 217.09 210.812 216.65 209.91C216.286 209.153 215.815 208.452 215.25 207.83C214.73 207.27 214.01 206.57 213.09 205.74C212.329 205.058 211.62 204.319 210.97 203.53C210.333 202.692 209.821 201.766 209.45 200.78C208.968 199.468 208.672 198.094 208.57 196.7L214.01 196.2C214.081 197.14 214.293 198.064 214.64 198.94C214.948 199.695 215.352 200.407 215.84 201.06C216.379 201.749 216.963 202.4 217.59 203.01C218.67 204.08 219.52 205.01 220.16 205.74C220.863 206.607 221.445 207.566 221.89 208.59C222.452 209.856 222.79 211.209 222.89 212.59C223.049 214.118 222.764 215.659 222.07 217.03C221.358 218.395 220.29 219.542 218.98 220.35C217.545 221.207 215.936 221.733 214.272 221.889C212.607 222.044 210.929 221.826 209.36 221.25V221.23Z" fill="white"/>
<path d="M230.69 219.2C229.239 218.61 227.984 217.622 227.07 216.35C226.145 215.057 225.592 213.535 225.47 211.95C225.29 210.4 225.496 208.83 226.07 207.38C226.581 206.083 227.452 204.959 228.58 204.14C229.724 203.332 231.064 202.845 232.46 202.73C233.593 202.627 234.735 202.749 235.82 203.09C236.8 203.379 237.675 203.945 238.34 204.72H238.41L238.12 201.58C238.116 201.025 237.995 200.476 237.764 199.971C237.533 199.466 237.198 199.016 236.78 198.65C235.943 198.044 234.903 197.786 233.88 197.93C233.073 197.979 232.306 198.296 231.7 198.83C231.426 199.071 231.203 199.364 231.043 199.692C230.883 200.019 230.791 200.376 230.77 200.74L225.3 201.25C225.243 200.133 225.533 199.026 226.13 198.08C226.829 196.92 227.8 195.949 228.96 195.25C230.329 194.424 231.875 193.934 233.47 193.82C235.153 193.624 236.859 193.795 238.47 194.32C239.859 194.773 241.081 195.629 241.98 196.78C242.89 197.986 243.426 199.432 243.52 200.94L244.38 210.25C244.548 211.831 244.282 213.429 243.61 214.87C242.953 216.276 241.913 217.468 240.61 218.31C239.144 219.236 237.47 219.782 235.74 219.9C234.025 220.095 232.288 219.854 230.69 219.2ZM237.46 215.03C238.054 214.59 238.514 213.995 238.79 213.31C239.098 212.536 239.208 211.697 239.11 210.87C239.052 210.039 238.798 209.234 238.37 208.52C237.992 207.881 237.431 207.369 236.76 207.05C236.072 206.725 235.306 206.6 234.55 206.69C233.807 206.743 233.093 207.003 232.49 207.44C231.901 207.877 231.455 208.479 231.21 209.17C230.927 209.954 230.828 210.792 230.92 211.62C230.978 212.438 231.232 213.23 231.66 213.93C232.048 214.558 232.601 215.067 233.26 215.4C233.915 215.728 234.651 215.86 235.38 215.78C236.132 215.715 236.851 215.446 237.46 215V215.03Z" fill="white"/>
<path d="M253.51 217.27C252.119 216.776 250.902 215.886 250.01 214.71C249.098 213.447 248.558 211.954 248.45 210.4L246.87 193.18L252.31 192.69L253.85 209.52C253.918 210.32 254.146 211.099 254.52 211.81C254.855 212.443 255.361 212.97 255.98 213.33C256.618 213.678 257.348 213.821 258.07 213.74C258.788 213.7 259.48 213.461 260.07 213.05C260.595 212.678 261.004 212.165 261.25 211.57C261.503 210.957 261.599 210.29 261.53 209.63C261.491 209.094 261.38 208.566 261.2 208.06C261.049 207.656 260.848 207.273 260.6 206.92C260.325 206.549 260.028 206.195 259.71 205.86C259.29 205.36 258.94 204.92 258.71 204.55C258.398 204.09 258.146 203.593 257.96 203.07C257.702 202.359 257.544 201.615 257.49 200.86L262.72 200.38C262.806 201.039 263.013 201.676 263.33 202.26C263.71 202.896 264.134 203.504 264.6 204.08C265.008 204.562 265.388 205.066 265.74 205.59C266.086 206.12 266.364 206.691 266.57 207.29C266.821 208.055 266.982 208.847 267.05 209.65C267.208 211.043 266.902 212.449 266.18 213.65C265.43 214.87 264.362 215.862 263.09 216.52C261.66 217.275 260.092 217.731 258.48 217.86C256.8 218.037 255.102 217.836 253.51 217.27V217.27Z" fill="white"/>
<path d="M274.36 215.26C272.939 214.709 271.702 213.77 270.79 212.55C269.879 211.315 269.331 209.85 269.21 208.32C269.085 206.908 269.28 205.486 269.78 204.16L275.01 203.68C274.656 204.924 274.524 206.22 274.62 207.51C274.681 208.327 274.916 209.122 275.31 209.84C275.655 210.478 276.171 211.008 276.8 211.37C277.456 211.728 278.207 211.875 278.95 211.79C279.688 211.755 280.397 211.491 280.978 211.034C281.559 210.576 281.983 209.949 282.19 209.24C282.435 208.462 282.517 207.641 282.43 206.83C282.356 205.83 282.095 204.853 281.66 203.95C281.289 203.191 280.815 202.488 280.25 201.86C279.73 201.3 279.01 200.6 278.09 199.77C277.326 199.09 276.618 198.351 275.97 197.56C275.332 196.727 274.823 195.804 274.46 194.82C273.97 193.506 273.67 192.129 273.57 190.73L279.01 190.23C279.078 191.171 279.294 192.096 279.65 192.97C279.955 193.724 280.355 194.437 280.84 195.09C281.374 195.783 281.958 196.435 282.59 197.04C283.67 198.11 284.53 199.04 285.16 199.77C285.861 200.639 286.443 201.597 286.89 202.62C287.448 203.887 287.787 205.239 287.89 206.62C288.051 208.145 287.766 209.684 287.07 211.05C286.358 212.415 285.29 213.562 283.98 214.37C282.545 215.227 280.936 215.753 279.272 215.909C277.607 216.064 275.929 215.846 274.36 215.27V215.26Z" fill="white"/>
<path d="M296.46 213.17C295.016 212.573 293.766 211.586 292.85 210.32C291.943 209.015 291.398 207.494 291.27 205.91L289.74 189.25L295.18 188.75L296.18 199.31H296.25C296.746 198.434 297.477 197.713 298.36 197.23C299.46 196.622 300.688 196.281 301.944 196.236C303.2 196.191 304.449 196.442 305.59 196.97C306.881 197.591 307.974 198.556 308.75 199.76C309.605 201.083 310.114 202.599 310.23 204.17C310.395 205.751 310.129 207.348 309.46 208.79C308.784 210.209 307.724 211.411 306.4 212.26C304.926 213.156 303.268 213.704 301.55 213.861C299.833 214.019 298.102 213.783 296.49 213.17H296.46ZM303.17 209C303.763 208.558 304.214 207.954 304.47 207.26C304.768 206.48 304.87 205.639 304.77 204.81C304.711 203.962 304.462 203.138 304.04 202.4C303.674 201.757 303.123 201.238 302.46 200.91C301.787 200.591 301.039 200.467 300.3 200.55C299.544 200.601 298.817 200.86 298.2 201.3C297.593 201.745 297.127 202.356 296.86 203.06C296.559 203.86 296.453 204.721 296.55 205.57C296.604 206.411 296.865 207.225 297.31 207.94C297.708 208.565 298.273 209.067 298.94 209.39C299.631 209.705 300.394 209.829 301.15 209.75C301.88 209.694 302.58 209.434 303.17 209V209Z" fill="white"/>
<path d="M318.57 211.31C317.14 210.85 315.864 210.006 314.88 208.87C313.935 207.77 313.368 206.396 313.26 204.95C313.168 203.864 313.269 202.77 313.56 201.72L318.82 201.24C318.732 201.692 318.675 202.15 318.65 202.61C318.61 203.083 318.61 203.558 318.65 204.03C318.711 204.742 318.945 205.428 319.33 206.03C319.712 206.61 320.249 207.07 320.88 207.36C321.578 207.676 322.35 207.794 323.11 207.7C323.824 207.643 324.513 207.406 325.11 207.01C325.687 206.61 326.135 206.05 326.4 205.4C326.702 204.631 326.808 203.8 326.71 202.98L325.71 192.7C325.683 191.868 325.4 191.065 324.9 190.4C324.668 190.156 324.385 189.967 324.07 189.847C323.756 189.728 323.418 189.681 323.083 189.71C322.748 189.738 322.423 189.842 322.133 190.014C321.844 190.185 321.597 190.42 321.41 190.7C321.046 191.43 320.913 192.253 321.03 193.06L321.34 196.37L316.28 196.83L315.98 193.56C315.961 192.832 315.66 192.14 315.14 191.63C314.854 191.405 314.523 191.243 314.17 191.153C313.817 191.064 313.449 191.049 313.09 191.11L311.45 191.26L311.05 186.91L312.86 186.74C313.925 186.598 315.009 186.715 316.02 187.08C316.891 187.472 317.598 188.154 318.02 189.01H318.16C318.515 188.019 319.191 187.174 320.08 186.61C321.047 186 322.15 185.639 323.29 185.56C324.6 185.413 325.926 185.578 327.16 186.04C328.26 186.466 329.209 187.207 329.89 188.17C330.586 189.197 330.997 190.392 331.08 191.63L332.08 202.63C332.247 204.16 331.959 205.704 331.25 207.07C330.542 208.421 329.463 209.542 328.14 210.3C326.683 211.161 325.048 211.674 323.36 211.8C321.747 211.974 320.115 211.807 318.57 211.31V211.31Z" fill="white"/>
<path d="M355.12 204.28C355.403 202.811 355.467 201.308 355.31 199.82C355.295 198.645 354.948 197.497 354.31 196.51C354.085 196.195 353.783 195.944 353.433 195.779C353.083 195.614 352.696 195.542 352.31 195.57C351.978 195.6 351.658 195.713 351.38 195.898C351.103 196.083 350.876 196.335 350.72 196.63C350.328 197.412 350.188 198.296 350.32 199.16L350.79 204.29L346.05 204.72L345.58 199.63C345.546 198.749 345.254 197.897 344.74 197.18C344.542 196.912 344.277 196.702 343.971 196.57C343.666 196.438 343.33 196.39 343 196.43C342.613 196.464 342.241 196.593 341.917 196.806C341.592 197.019 341.325 197.309 341.14 197.65C340.642 198.727 340.485 199.931 340.69 201.1C340.954 204.095 342.029 206.961 343.8 209.39L338.58 209.87C337.607 208.617 336.841 207.216 336.31 205.72C335.653 203.718 335.247 201.642 335.1 199.54C334.727 195.54 335.393 192.483 337.1 190.37C338.977 188.163 341.499 186.6 344.31 185.9L347.19 185.07C347.613 184.966 348.018 184.797 348.39 184.57C348.671 184.402 348.878 184.134 348.97 183.82L354.38 183.32C354.409 184.571 353.983 185.79 353.18 186.75C352.083 187.81 350.686 188.508 349.18 188.75L346.18 189.47C344.351 189.884 342.597 190.579 340.98 191.53C340.345 191.895 339.803 192.403 339.399 193.014C338.994 193.625 338.738 194.323 338.65 195.05H338.75C339.166 194.269 339.793 193.621 340.56 193.18C341.256 192.775 342.029 192.519 342.83 192.43C343.737 192.342 344.649 192.526 345.45 192.96C346.295 193.42 346.99 194.115 347.45 194.96H347.56C347.96 193.969 348.659 193.126 349.56 192.55C350.5 191.96 351.573 191.616 352.68 191.55C353.97 191.415 355.272 191.641 356.441 192.202C357.609 192.764 358.599 193.639 359.3 194.73C360.099 195.994 360.569 197.438 360.67 198.93C360.85 200.598 360.779 202.283 360.46 203.93C360.169 205.349 359.678 206.72 359 208L353.77 208.48C354.38 207.137 354.833 205.727 355.12 204.28V204.28Z" fill="white"/>
<path d="M376.65 201.38C376.825 199.334 376.825 197.276 376.65 195.23L376.2 190.32C376.155 188.927 375.695 187.58 374.88 186.45C374.517 186.031 374.059 185.704 373.545 185.497C373.03 185.289 372.474 185.208 371.921 185.259C371.369 185.31 370.837 185.491 370.369 185.789C369.901 186.087 369.51 186.491 369.23 186.97C368.648 188.217 368.443 189.608 368.64 190.97L369.09 195.88C369.279 197.908 369.647 199.916 370.19 201.88C370.607 203.562 371.21 205.192 371.99 206.74L366.72 207.22C365.861 205.712 365.212 204.094 364.79 202.41C364.215 200.363 363.827 198.267 363.63 196.15L363.19 191.31C362.982 189.551 363.241 187.768 363.94 186.14C364.58 184.702 365.622 183.48 366.94 182.62C368.334 181.764 369.905 181.241 371.534 181.09C373.162 180.939 374.803 181.165 376.33 181.75C377.801 182.355 379.062 183.377 379.96 184.69C380.95 186.18 381.53 187.905 381.64 189.69L382.09 194.5C382.285 196.609 382.285 198.731 382.09 200.84C381.981 202.58 381.645 204.297 381.09 205.95L375.82 206.43C376.303 204.787 376.582 203.091 376.65 201.38V201.38Z" fill="white"/>
<path d="M397.2 179.84C398.426 180.315 399.494 181.126 400.28 182.18C400.929 183.06 401.335 184.094 401.46 185.18C401.565 186.121 401.497 187.073 401.26 187.99C401.068 188.682 400.756 189.335 400.34 189.92C399.937 190.455 399.478 190.944 398.97 191.38L397.89 192.32C397.306 192.739 396.833 193.294 396.512 193.937C396.192 194.58 396.033 195.292 396.05 196.01L396.14 197.01L391.44 197.44L391.35 196.44C391.201 195.256 391.349 194.053 391.78 192.94C392.274 191.84 392.993 190.855 393.89 190.05C394.51 189.46 394.97 188.99 395.26 188.66C395.562 188.318 395.787 187.915 395.92 187.479C396.052 187.042 396.09 186.582 396.03 186.13C396.003 185.275 395.644 184.465 395.03 183.87C394.715 183.616 394.35 183.432 393.959 183.328C393.568 183.225 393.159 183.205 392.76 183.27C392.252 183.291 391.756 183.435 391.316 183.689C390.875 183.943 390.503 184.3 390.23 184.73C389.643 185.76 389.418 186.957 389.59 188.13L384.47 188.6C384.313 187.032 384.554 185.45 385.17 184C385.742 182.666 386.678 181.519 387.87 180.69C389.143 179.832 390.619 179.322 392.15 179.21C393.86 179.006 395.593 179.222 397.2 179.84V179.84ZM397.11 204.49L391.64 204.99L391.14 199.63L396.62 199.12L397.11 204.49Z" fill="white"/>
<path d="M187.41 166.07C187.528 165.437 187.555 164.791 187.49 164.15C187.476 163.641 187.32 163.146 187.04 162.72C186.939 162.584 186.805 162.477 186.651 162.407C186.498 162.337 186.328 162.307 186.16 162.32C186.015 162.332 185.876 162.381 185.756 162.461C185.635 162.542 185.537 162.651 185.47 162.78C185.307 163.119 185.248 163.498 185.3 163.87L185.5 166.07L183.5 166.26L183.3 164.07C183.287 163.689 183.162 163.32 182.94 163.01C182.854 162.896 182.739 162.806 182.607 162.75C182.476 162.694 182.332 162.673 182.19 162.69C182.023 162.704 181.862 162.76 181.722 162.853C181.582 162.945 181.468 163.072 181.39 163.22C181.179 163.683 181.113 164.199 181.2 164.7C181.308 165.991 181.771 167.227 182.54 168.27L180.29 168.48C179.861 167.942 179.523 167.338 179.29 166.69C179.001 165.829 178.823 164.936 178.76 164.03C178.523 162.649 178.839 161.23 179.64 160.08C180.449 159.134 181.532 158.463 182.74 158.16L183.98 157.8C184.162 157.755 184.337 157.684 184.5 157.59C184.623 157.517 184.713 157.398 184.75 157.26L187.07 157.05C187.091 157.59 186.909 158.118 186.56 158.53C186.092 158.988 185.495 159.292 184.85 159.4L183.58 159.71C182.794 159.895 182.039 160.195 181.34 160.6C181.066 160.755 180.833 160.973 180.659 161.235C180.485 161.498 180.376 161.797 180.34 162.11C180.513 161.77 180.785 161.492 181.12 161.31C181.424 161.127 181.766 161.014 182.12 160.98C182.511 160.944 182.904 161.024 183.25 161.21C183.618 161.406 183.918 161.71 184.11 162.08V162.08C184.284 161.667 184.581 161.318 184.96 161.08C185.363 160.823 185.823 160.668 186.3 160.63C186.856 160.571 187.418 160.67 187.922 160.913C188.425 161.157 188.851 161.537 189.15 162.01C189.494 162.551 189.697 163.17 189.74 163.81C189.814 164.527 189.784 165.252 189.65 165.96C189.517 166.57 189.301 167.158 189.01 167.71L186.76 167.91C187.044 167.323 187.262 166.706 187.41 166.07Z" fill="white"/>
<path d="M200.16 164.41C200.282 163.525 200.306 162.63 200.23 161.74L200.03 159.52C200.011 158.967 199.846 158.428 199.55 157.96C199.439 157.803 199.287 157.679 199.111 157.601C198.935 157.524 198.741 157.496 198.55 157.52C198.393 157.537 198.242 157.592 198.11 157.679C197.978 157.766 197.868 157.883 197.79 158.02C197.599 158.407 197.529 158.843 197.59 159.27L198.01 163.77L195.89 163.97L195.48 159.47C195.463 159.039 195.321 158.621 195.07 158.27C194.965 158.145 194.83 158.048 194.679 157.987C194.527 157.926 194.363 157.903 194.2 157.92C194.015 157.934 193.837 158 193.687 158.109C193.537 158.219 193.42 158.368 193.35 158.54C193.139 159.045 193.069 159.598 193.15 160.14L193.36 162.37C193.443 163.258 193.628 164.134 193.91 164.98C194.137 165.741 194.474 166.466 194.91 167.13L192.6 167.34C192.329 166.961 192.104 166.552 191.93 166.12C191.697 165.572 191.506 165.007 191.36 164.43C191.204 163.813 191.097 163.184 191.04 162.55L190.83 160.33C190.75 159.63 190.835 158.921 191.08 158.26C191.27 157.69 191.617 157.184 192.08 156.8C192.527 156.47 193.052 156.261 193.603 156.191C194.154 156.121 194.714 156.193 195.23 156.4C195.682 156.606 196.052 156.958 196.28 157.4H196.34C196.483 156.928 196.788 156.521 197.2 156.25C197.631 155.968 198.126 155.799 198.64 155.76C199.24 155.694 199.846 155.797 200.39 156.06C200.929 156.338 201.376 156.765 201.68 157.29C202.029 157.903 202.238 158.586 202.29 159.29L202.49 161.51C202.54 162.142 202.54 162.778 202.49 163.41C202.449 164.002 202.365 164.59 202.24 165.17C202.147 165.631 201.996 166.078 201.79 166.5L199.46 166.71C199.806 165.982 200.042 165.207 200.16 164.41V164.41Z" fill="white"/>
<path d="M206.37 165.9C205.745 165.684 205.191 165.3 204.77 164.79C204.336 164.229 204.081 163.549 204.04 162.84C203.979 162.411 204.007 161.973 204.122 161.555C204.237 161.137 204.438 160.747 204.71 160.41C205.242 159.761 205.93 159.259 206.71 158.95C207.205 158.782 207.668 158.531 208.08 158.21C208.202 158.114 208.3 157.991 208.366 157.85C208.432 157.709 208.464 157.555 208.46 157.4C208.449 157.24 208.39 157.086 208.29 156.96C208.192 156.824 208.057 156.719 207.9 156.66C207.729 156.59 207.543 156.566 207.36 156.59C207.218 156.598 207.08 156.636 206.954 156.701C206.828 156.767 206.718 156.859 206.63 156.97C206.453 157.201 206.374 157.492 206.41 157.78L204.16 157.99C204.111 157.49 204.22 156.986 204.47 156.55C204.731 156.094 205.107 155.715 205.56 155.45C206.057 155.166 206.61 154.992 207.18 154.94C207.748 154.883 208.322 154.938 208.87 155.1C209.333 155.249 209.749 155.514 210.08 155.87C210.373 156.202 210.552 156.619 210.59 157.06C210.644 157.473 210.548 157.892 210.32 158.24C210.059 158.594 209.716 158.879 209.32 159.07V159.14C209.812 159.199 210.284 159.37 210.7 159.64C211.108 159.889 211.451 160.232 211.7 160.64C211.949 161.075 212.099 161.56 212.14 162.06C212.216 162.749 212.087 163.444 211.77 164.06C211.45 164.641 210.976 165.122 210.4 165.45C209.785 165.794 209.103 166.002 208.4 166.06C207.72 166.153 207.027 166.098 206.37 165.9V165.9ZM209.2 164.05C209.453 163.859 209.65 163.604 209.77 163.31C209.886 162.99 209.931 162.649 209.9 162.31C209.872 161.939 209.76 161.58 209.57 161.26C209.41 160.982 209.17 160.758 208.88 160.62C208.582 160.487 208.254 160.435 207.93 160.47C207.61 160.494 207.302 160.605 207.04 160.79C206.787 160.985 206.596 161.249 206.49 161.55C206.358 161.897 206.314 162.272 206.36 162.64C206.381 162.995 206.491 163.339 206.68 163.64C206.842 163.908 207.078 164.123 207.36 164.26C207.651 164.392 207.972 164.443 208.29 164.41C208.62 164.374 208.935 164.25 209.2 164.05V164.05Z" fill="white"/>
<path d="M222.54 162.35C222.662 161.469 222.685 160.577 222.61 159.69L222.4 157.47C222.39 156.917 222.228 156.377 221.93 155.91C221.824 155.748 221.673 155.619 221.496 155.541C221.318 155.463 221.122 155.438 220.93 155.47C220.771 155.481 220.618 155.533 220.485 155.621C220.352 155.708 220.243 155.829 220.17 155.97C219.973 156.355 219.903 156.793 219.97 157.22L220.38 161.72L218.27 161.91L217.86 157.41C217.845 156.98 217.699 156.564 217.44 156.22C217.339 156.092 217.207 155.993 217.056 155.931C216.906 155.87 216.742 155.849 216.58 155.87C216.393 155.882 216.213 155.947 216.061 156.057C215.909 156.166 215.791 156.316 215.72 156.49C215.514 156.993 215.448 157.543 215.53 158.08L215.73 160.32C215.818 161.207 216.003 162.082 216.28 162.93C216.507 163.688 216.844 164.409 217.28 165.07L214.97 165.29C214.705 164.904 214.48 164.492 214.3 164.06C213.83 162.924 213.533 161.724 213.42 160.5L213.21 158.28C213.131 157.581 213.214 156.873 213.45 156.21C213.658 155.633 214.026 155.126 214.51 154.75C214.977 154.388 215.541 154.173 216.13 154.13C216.647 154.067 217.172 154.143 217.65 154.35C218.107 154.549 218.479 154.903 218.7 155.35H218.76C218.908 154.878 219.216 154.471 219.63 154.2C220.056 153.914 220.549 153.742 221.06 153.7C221.664 153.637 222.274 153.744 222.82 154.01C223.359 154.288 223.807 154.715 224.11 155.24C224.458 155.854 224.666 156.537 224.72 157.24L224.92 159.46C224.975 160.095 224.975 160.735 224.92 161.37C224.886 161.962 224.806 162.551 224.68 163.13C224.578 163.589 224.423 164.036 224.22 164.46L221.9 164.67C222.226 163.932 222.442 163.151 222.54 162.35V162.35Z" fill="white"/>
<path d="M235 161.71C235.118 161.077 235.145 160.431 235.08 159.79C235.068 159.28 234.912 158.785 234.63 158.36C234.533 158.22 234.4 158.109 234.245 158.038C234.09 157.968 233.919 157.941 233.75 157.96C233.606 157.969 233.467 158.016 233.346 158.095C233.225 158.173 233.127 158.282 233.06 158.41C232.898 158.749 232.839 159.128 232.89 159.5L233.09 161.71L231.09 161.89L230.89 159.7C230.869 159.339 230.744 158.991 230.53 158.7C230.444 158.585 230.33 158.494 230.199 158.436C230.067 158.378 229.923 158.355 229.78 158.37C229.613 158.384 229.452 158.44 229.312 158.533C229.173 158.625 229.058 158.752 228.98 158.9C228.77 159.367 228.704 159.885 228.79 160.39C228.9 161.678 229.363 162.91 230.13 163.95L227.88 164.16C227.449 163.624 227.111 163.018 226.88 162.37C226.592 161.509 226.413 160.616 226.35 159.71C226.111 158.332 226.427 156.915 227.23 155.77C228.038 154.82 229.121 154.146 230.33 153.84L231.57 153.49C231.755 153.446 231.93 153.372 232.09 153.27C232.211 153.198 232.3 153.084 232.34 152.95L234.66 152.74C234.679 153.276 234.497 153.8 234.15 154.21C233.681 154.668 233.085 154.975 232.44 155.09L231.17 155.4C230.381 155.576 229.625 155.877 228.93 156.29C228.656 156.445 228.423 156.663 228.249 156.925C228.076 157.188 227.966 157.487 227.93 157.8C228.112 157.461 228.386 157.181 228.72 156.99C229.025 156.81 229.367 156.7 229.72 156.67C230.111 156.634 230.504 156.714 230.85 156.9C231.221 157.093 231.521 157.397 231.71 157.77C231.881 157.355 232.179 157.006 232.56 156.77C232.963 156.513 233.423 156.358 233.9 156.32C234.456 156.26 235.017 156.357 235.52 156.599C236.024 156.841 236.45 157.219 236.75 157.69C237.092 158.236 237.295 158.857 237.34 159.5C237.414 160.217 237.384 160.941 237.25 161.65C237.117 162.256 236.901 162.842 236.61 163.39L234.36 163.6C234.644 162.996 234.859 162.362 235 161.71Z" fill="white"/>
<path d="M250.94 159.3C251.03 158.202 251.03 157.098 250.94 156L250.69 153.35C250.662 152.602 250.415 151.879 249.98 151.27C249.797 151.033 249.554 150.849 249.277 150.736C248.999 150.624 248.696 150.587 248.4 150.63C248.099 150.642 247.806 150.733 247.551 150.895C247.296 151.056 247.089 151.282 246.95 151.55C246.629 152.229 246.514 152.987 246.62 153.73L246.87 156.37C246.97 157.462 247.168 158.543 247.46 159.6C247.694 160.508 248.03 161.387 248.46 162.22L245.62 162.48C245.172 161.665 244.836 160.794 244.62 159.89C244.314 158.787 244.107 157.659 244 156.52L243.76 153.92C243.65 152.973 243.792 152.015 244.17 151.14C244.516 150.364 245.079 149.705 245.79 149.24C246.539 148.771 247.389 148.49 248.27 148.42C249.146 148.324 250.033 148.448 250.85 148.78C251.66 149.095 252.356 149.645 252.85 150.36C253.378 151.156 253.688 152.077 253.75 153.03L253.99 155.61C254.095 156.748 254.095 157.892 253.99 159.03C253.925 159.964 253.737 160.886 253.43 161.77L250.6 162.03C250.822 161.137 250.936 160.22 250.94 159.3V159.3Z" fill="white"/>
<path d="M258.42 161.13C257.681 160.903 257.013 160.49 256.48 159.93C255.966 159.386 255.662 158.677 255.62 157.93C255.571 157.459 255.616 156.984 255.75 156.53L258.58 156.27C258.544 156.455 258.521 156.642 258.51 156.83C258.51 156.99 258.51 157.19 258.51 157.43C258.536 157.769 258.661 158.092 258.87 158.36C259.079 158.632 259.355 158.845 259.67 158.98C260.008 159.121 260.376 159.172 260.74 159.13C261.099 159.105 261.444 158.984 261.74 158.78C262.024 158.585 262.25 158.317 262.393 158.003C262.536 157.689 262.59 157.342 262.55 157C262.525 156.628 262.419 156.267 262.24 155.94C262.068 155.642 261.815 155.4 261.51 155.24C261.181 155.081 260.813 155.019 260.45 155.06L259.6 155.14L259.4 152.96L260.58 152.85C260.913 152.844 261.235 152.732 261.5 152.53C261.597 152.45 261.673 152.347 261.718 152.229C261.764 152.112 261.778 151.985 261.76 151.86C261.747 151.66 261.662 151.471 261.52 151.33C261.37 151.187 261.194 151.074 261 151C260.78 150.91 260.49 150.82 260.13 150.71C259.401 150.519 258.72 150.178 258.13 149.71C257.613 149.233 257.292 148.581 257.23 147.88L260.13 147.61C260.212 147.918 260.409 148.182 260.68 148.35C260.935 148.513 261.211 148.641 261.5 148.73L262.03 148.91C262.445 149.045 262.85 149.213 263.24 149.41C263.571 149.588 263.858 149.837 264.08 150.14C264.335 150.509 264.484 150.942 264.51 151.39C264.562 151.876 264.449 152.366 264.19 152.78C263.898 153.207 263.483 153.535 263 153.72V153.8C263.408 153.879 263.792 154.054 264.12 154.31C264.501 154.591 264.816 154.953 265.04 155.37C265.308 155.842 265.466 156.368 265.5 156.91C265.585 157.656 265.427 158.41 265.05 159.06C264.657 159.724 264.09 160.267 263.41 160.63C262.652 161.039 261.818 161.288 260.96 161.36C260.106 161.456 259.242 161.377 258.42 161.13V161.13Z" fill="white"/>
<path d="M278.37 156.67C278.527 155.564 278.56 154.444 278.47 153.33L278.21 150.56C278.195 149.867 277.987 149.192 277.61 148.61C277.475 148.417 277.29 148.264 277.076 148.167C276.861 148.071 276.624 148.034 276.39 148.06C276.192 148.077 276.001 148.144 275.835 148.254C275.669 148.364 275.533 148.514 275.44 148.69C275.194 149.17 275.106 149.717 275.19 150.25L275.71 155.88L273.07 156.12L272.55 150.49C272.523 149.949 272.331 149.429 272 149C271.87 148.842 271.701 148.718 271.511 148.641C271.321 148.565 271.114 148.537 270.91 148.56C270.678 148.58 270.455 148.663 270.266 148.801C270.078 148.938 269.93 149.125 269.84 149.34C269.577 149.972 269.494 150.664 269.6 151.34L269.86 154.13C269.964 155.242 270.192 156.339 270.54 157.4C270.825 158.347 271.243 159.249 271.78 160.08L268.89 160.34C268.557 159.864 268.276 159.355 268.05 158.82C267.763 158.132 267.529 157.423 267.35 156.7C267.152 155.932 267.018 155.15 266.95 154.36L266.69 151.59C266.592 150.714 266.698 149.828 267 149C267.255 148.276 267.714 147.641 268.32 147.17C268.875 146.753 269.53 146.487 270.219 146.399C270.908 146.312 271.608 146.405 272.25 146.67C272.815 146.917 273.28 147.346 273.57 147.89H273.64C273.822 147.299 274.204 146.79 274.72 146.45C275.252 146.09 275.869 145.876 276.51 145.83C277.265 145.745 278.028 145.877 278.71 146.21C279.385 146.556 279.945 147.091 280.32 147.75C280.763 148.521 281.023 149.383 281.08 150.27L281.34 153.04C281.4 153.832 281.4 154.628 281.34 155.42C281.29 156.16 281.186 156.895 281.03 157.62C280.909 158.195 280.718 158.752 280.46 159.28L277.56 159.55C277.97 158.635 278.243 157.665 278.37 156.67V156.67Z" fill="white"/>
<path d="M285.94 158.58C285.21 158.351 284.558 157.921 284.06 157.34C283.579 156.778 283.292 156.077 283.24 155.34C283.215 155.047 283.215 154.753 283.24 154.46C283.261 154.199 283.308 153.941 283.38 153.69L286.16 153.43C286.066 153.829 286.039 154.242 286.08 154.65C286.09 154.942 286.159 155.229 286.283 155.493C286.407 155.758 286.582 155.995 286.8 156.19C287.019 156.368 287.272 156.498 287.544 156.574C287.816 156.65 288.1 156.669 288.38 156.63C288.734 156.592 289.076 156.476 289.38 156.29C289.679 156.101 289.918 155.83 290.07 155.51C290.234 155.154 290.296 154.759 290.25 154.37C290.216 154.018 290.106 153.677 289.93 153.37C289.76 153.07 289.506 152.827 289.2 152.67C288.877 152.503 288.511 152.437 288.15 152.48L287.45 152.54L287.26 150.54L287.92 150.48C288.148 150.474 288.371 150.418 288.575 150.316C288.779 150.214 288.958 150.069 289.1 149.89C289.362 149.529 289.476 149.082 289.42 148.64C289.4 148.411 289.334 148.188 289.226 147.985C289.118 147.782 288.969 147.603 288.79 147.459C288.61 147.315 288.403 147.209 288.182 147.147C287.96 147.085 287.728 147.069 287.5 147.1C287.167 147.121 286.845 147.231 286.57 147.42C286.323 147.591 286.132 147.831 286.02 148.11C285.91 148.4 285.869 148.711 285.9 149.02C285.907 149.263 285.955 149.503 286.04 149.73L283.24 149.98C283.115 149.66 283.041 149.323 283.02 148.98C282.959 148.325 283.106 147.667 283.44 147.1C283.811 146.478 284.338 145.964 284.97 145.61C285.68 145.21 286.465 144.963 287.276 144.883C288.087 144.804 288.906 144.895 289.68 145.15C290.366 145.371 290.978 145.775 291.45 146.32C291.896 146.828 292.166 147.466 292.22 148.14C292.3 148.782 292.185 149.434 291.89 150.01C291.641 150.53 291.226 150.952 290.71 151.21V151.28C291.13 151.389 291.522 151.587 291.86 151.86C292.228 152.158 292.531 152.529 292.75 152.95C293.002 153.431 293.155 153.958 293.2 154.5C293.266 155.233 293.098 155.968 292.72 156.6C292.305 157.263 291.722 157.805 291.03 158.17C289.441 158.995 287.592 159.163 285.88 158.64L285.94 158.58Z" fill="white"/>
<path d="M306.1 154.13C306.258 153.024 306.289 151.903 306.19 150.79L305.94 148.01C305.923 147.32 305.715 146.649 305.34 146.07C305.208 145.874 305.024 145.718 304.808 145.621C304.593 145.524 304.354 145.489 304.12 145.52C303.921 145.532 303.73 145.596 303.563 145.705C303.397 145.813 303.261 145.963 303.17 146.14C302.923 146.624 302.835 147.173 302.92 147.71L303.44 153.33L300.8 153.57L300.28 147.95C300.265 147.408 300.083 146.885 299.76 146.45C299.632 146.292 299.465 146.169 299.276 146.094C299.087 146.019 298.882 145.993 298.68 146.02C298.449 146.04 298.227 146.122 298.039 146.258C297.851 146.393 297.703 146.577 297.61 146.79C297.347 147.422 297.264 148.114 297.37 148.79L297.62 151.59C297.733 152.698 297.964 153.791 298.31 154.85C298.588 155.8 299.006 156.703 299.55 157.53L296.66 157.8C296.33 157.319 296.048 156.807 295.82 156.27C295.533 155.586 295.299 154.88 295.12 154.16C294.924 153.392 294.79 152.609 294.72 151.82L294.46 149.04C294.359 148.165 294.462 147.279 294.76 146.45C295.017 145.73 295.475 145.098 296.08 144.63C296.659 144.185 297.353 143.915 298.08 143.85C298.73 143.775 299.388 143.872 299.99 144.13C300.556 144.371 301.019 144.803 301.3 145.35H301.38C301.561 144.759 301.943 144.249 302.46 143.91C302.994 143.554 303.61 143.34 304.25 143.29C305.002 143.21 305.761 143.346 306.44 143.68C307.114 144.026 307.676 144.557 308.06 145.21C308.503 145.981 308.763 146.843 308.82 147.73L309.07 150.51C309.14 151.298 309.14 152.092 309.07 152.88C309.028 153.623 308.928 154.362 308.77 155.09C308.643 155.663 308.452 156.22 308.2 156.75L305.29 157.01C305.702 156.096 305.975 155.125 306.1 154.13V154.13Z" fill="white"/>
<path d="M401.062 138.845L336.394 145.402C335.663 145.476 335.13 146.129 335.204 146.859L335.205 146.869C335.28 147.6 335.932 148.132 336.663 148.058L401.331 141.501C402.062 141.427 402.594 140.774 402.52 140.044L402.519 140.034C402.445 139.303 401.793 138.77 401.062 138.845Z" fill="white"/>
<path d="M58.7931 185.894L1.68596 191.684C0.663951 191.788 -0.0805407 192.701 0.023091 193.723C0.126723 194.745 1.03923 195.489 2.06124 195.385L59.1684 189.595C60.1904 189.491 60.9349 188.579 60.8313 187.557C60.7276 186.535 59.8151 185.79 58.7931 185.894Z" fill="white"/>
</g>
<defs>
<clipPath id="clip0_8_24">
<rect width="439.83" height="250.48" fill="white"/>
</clipPath>
</defs>
</svg>
