<svg width="436" height="300" viewBox="0 0 436 300" fill="none" xmlns="http://www.w3.org/2000/svg">
<g clip-path="url(#clip0_6_4)">
<path d="M203.12 89.23C201.745 80.6288 201.577 71.8778 202.62 63.23C203.31 58.02 203.15 52.72 203.62 47.48C203.86 44.88 204.18 41.74 202.37 38.98C201.37 37.39 200.37 37.08 199.62 35.23C198.87 33.38 199.19 32.07 199.62 28.98C200.62 21.54 200.3 22.5 200.62 21.23C202.14 15.23 204.51 15.83 210.12 5.98005C210.93 4.56005 211.87 2.81005 213.87 1.98005C215.751 1.34717 217.801 1.43627 219.62 2.23005C221.38 2.89005 222.62 3.90005 224.62 5.98005C227.37 8.86005 228.18 10.26 231.12 13.98C235.12 19.1 236.28 19.76 237.12 22.48C237.594 24.1906 237.846 25.9551 237.87 27.73C238.075 30.49 237.907 33.2651 237.37 35.98C236.56 39.9 235.48 40.49 234.62 43.48C233.62 47.05 234.43 48.64 235.12 55.48C235.638 61.1309 235.805 66.8085 235.62 72.48C235.53 79.71 235.09 79.55 235.37 83.73C235.63 87.67 236.26 91.45 235.37 91.73C234.93 91.87 234.59 90.99 232.62 89.48C230.81 88.08 230.38 88.28 229.87 87.48C229.11 86.29 229.64 85.19 229.87 82.23C229.95 81.29 229.87 80.02 229.87 77.48C229.87 74.94 229.68 73.97 229.37 69.98C229.14 66.92 228.98 64.98 228.87 62.48C228.66 57.88 229.61 58.7001 229.37 54.6501C229.13 50.6001 229.7 50.6501 229.62 47.9001C229.56 45.7501 228.88 46.48 228.87 41.98C228.87 38.34 225.41 38.0401 224.95 37.6501C223.59 36.4701 224.02 34.81 218.12 35.98C213.76 36.85 212.87 39.38 211.37 40.48C208.76 42.39 208.68 42.97 208.37 47.23C208.238 50.0656 208.322 52.9071 208.62 55.73C208.92 61.01 208.52 59.73 208.62 71.73C208.62 75.65 207.78 79.61 208.37 83.48C208.57 84.79 208.94 86.67 207.87 87.98C206.8 89.29 203.3 90.8 203.12 89.23Z" fill="#FF5D31"/>
<path d="M435.8 172.67C434.392 173.927 433.057 175.262 431.8 176.67C430.577 178.244 429.486 179.916 428.54 181.67C427.765 182.98 427.281 184.441 427.121 185.954C426.96 187.467 427.127 188.997 427.61 190.44C427.813 190.869 427.886 191.348 427.821 191.818C427.756 192.288 427.555 192.729 427.243 193.087C426.931 193.445 426.521 193.704 426.064 193.832C425.607 193.961 425.123 193.953 424.67 193.81C423.642 193.653 422.65 193.314 421.74 192.81C420.028 191.935 418.105 191.561 416.19 191.73C413.19 191.73 410.28 191.61 407.35 191.82C403.126 191.959 398.994 193.093 395.29 195.13C391.77 197.21 388.29 199.25 385.39 202.13C382.769 204.696 380.709 207.777 379.34 211.18C378.5 213.33 377.76 215.53 377.07 217.73C375.7 221.919 375.14 226.331 375.42 230.73C375.577 232.795 375.912 234.842 376.42 236.85C377.04 239.41 377.84 241.93 378.68 244.42C379.045 245.374 379.536 246.276 380.14 247.1C381.14 248.61 380.89 249.88 379.14 250.35C377.07 250.91 374.94 251.27 372.85 251.77C371.298 252.096 369.771 252.531 368.28 253.07C362.601 255.303 357.743 259.222 354.36 264.3C353.995 264.916 353.661 265.55 353.36 266.2C353.044 266.944 352.476 267.553 351.755 267.919C351.034 268.285 350.207 268.384 349.42 268.2C347.484 267.776 345.496 267.638 343.52 267.79C338 268.46 334.2 271.49 330.96 275.69C328.691 278.594 327.374 282.129 327.19 285.81C327.02 288.39 326.8 290.88 327.81 293.33C328.015 293.774 328.058 294.277 327.932 294.749C327.806 295.222 327.519 295.636 327.12 295.92C326.739 296.235 326.25 296.39 325.757 296.351C325.264 296.312 324.806 296.082 324.48 295.71C321.97 292.88 318.56 292.84 315.25 292.54C314.316 292.426 313.37 292.634 312.57 293.13C310.44 294.79 307.85 295.78 306.15 298.06C305.1 299.46 302.87 298.75 302.42 297C301.869 295.329 301.533 293.595 301.42 291.84C301.42 288.6 299.53 286.46 297.54 284.44C296.179 283.091 294.569 282.018 292.8 281.28C289.069 279.677 285.23 278.34 281.31 277.28C278.05 276.379 274.57 276.736 271.56 278.28C269.31 279.46 266.97 280.46 264.72 281.63C263.945 282.047 263.265 282.619 262.72 283.31C261.64 284.68 260.03 284.98 258.55 285.48C258.319 285.542 258.077 285.551 257.842 285.506C257.607 285.461 257.385 285.364 257.193 285.222C257.001 285.08 256.843 284.896 256.732 284.685C256.621 284.473 256.558 284.239 256.55 284C256.448 283.448 256.471 282.881 256.62 282.34C257.82 279.09 257.28 275.73 257.33 272.41C257.43 265.96 257.44 259.51 257.4 253.05C257.4 249.46 257.17 245.87 257.08 242.28C257.03 240.61 257.08 238.93 257.08 237.28C257.08 235.63 257.24 233.95 256.51 232.28C256.317 231.587 256.276 230.86 256.39 230.15C256.508 226.243 256.381 222.332 256.01 218.44C255.7 214.44 255.87 210.44 255.87 206.5C255.87 196.5 255.94 186.55 255.94 176.58C255.94 173.48 255.87 170.38 255.8 167.28C255.8 166.58 255.68 165.88 255.59 165.01C254.65 165.91 253.82 166.62 253.08 167.42C251.08 169.6 250.15 169.56 247.56 167.6C245.974 166.222 244.49 164.732 243.12 163.14C242.96 163.48 242.68 163.8 242.68 164.14C242.73 170.27 242.94 176.41 242.87 182.54C242.79 190.44 242.39 198.33 242.34 206.23C242.29 213.06 242.53 219.9 242.62 226.74C242.625 227.609 242.524 228.475 242.32 229.32C242.249 229.719 242.034 230.078 241.714 230.327C241.395 230.576 240.994 230.698 240.59 230.67C240.152 230.722 239.709 230.616 239.342 230.37C238.975 230.124 238.709 229.755 238.59 229.33C238.4 228.802 238.332 228.238 238.39 227.68C239.15 222.74 238.19 217.8 238.34 212.87C238.49 207.68 238.69 202.49 238.8 197.3C238.94 190.36 239.01 183.43 239.09 176.49C239.16 171.23 239.25 165.97 239.22 160.71C239.22 158.24 238.99 155.78 238.82 153.31C238.69 151.41 238.49 149.5 238.29 147.38C237.67 147.32 236.98 147.3 236.29 147.19C233.47 146.7 232.47 144.66 233.86 142.35C235.67 139.35 237.22 136.21 238.97 132.98C238.56 132.76 238.09 132.55 237.65 132.29C237.033 131.991 236.534 131.493 236.235 130.876C235.936 130.259 235.853 129.56 236 128.89C236.076 128.028 236.076 127.162 236 126.3L231.81 125.5C232.41 126.86 232.87 127.89 233.34 128.91C235.11 132.74 233.82 135.67 229.84 136.91C227.886 137.604 225.823 137.943 223.75 137.91C221.738 137.888 219.729 138.059 217.75 138.42C214.879 138.79 211.969 138.158 209.51 136.63C207.9 135.71 207.13 133.17 207.68 130.83C207.873 130.057 208.11 129.296 208.39 128.55C208.66 127.8 208.98 127.08 209.33 126.21C208.8 125.995 208.251 125.831 207.69 125.72C206.04 125.59 205.69 125.99 205.47 127.72C205.23 130.1 205.16 132.54 203.11 134.42C203.53 135.07 203.9 135.66 204.29 136.24C205.02 137.35 205.76 138.46 206.5 139.56C206.72 139.89 206.94 140.22 207.18 140.56C207.42 140.9 207.73 141.14 207.97 141.46C210.57 144.87 209.8 147.46 205.81 148.95C205.81 151.95 205.81 154.95 205.81 158.01C205.74 163.35 205.6 168.7 205.51 174.01C205.51 175.44 205.57 176.88 205.57 178.32C205.57 187.49 205.4 196.66 205.42 205.83C205.42 212.91 205.54 220 205.78 227.07C205.92 231.07 206.59 235.01 206.72 238.98C206.83 242.16 206.49 245.36 206.36 248.55C206.29 250.55 206.16 252.55 206.2 254.55C206.29 258.93 206.47 263.31 206.62 267.69C206.659 267.958 206.72 268.222 206.8 268.48C211.8 266.75 216.69 263.94 222.11 266.98C225.11 260.09 228.97 254.57 237.74 254.98C237.74 253.39 237.74 251.81 237.74 250.23C237.87 245.85 238 241.46 238.18 237.08C238.206 236.378 238.398 235.693 238.74 235.08C238.889 234.864 239.088 234.686 239.319 234.561C239.55 234.436 239.807 234.367 240.07 234.36C240.51 234.36 240.95 234.92 241.29 235.36C241.445 235.641 241.511 235.961 241.48 236.28C241.57 239.28 241.63 242.28 241.72 245.36C241.82 248.86 241.927 252.36 242.04 255.86C242.04 256.41 242.18 256.97 242.17 257.53C242.206 257.912 242.155 258.297 242.02 258.656C241.885 259.016 241.67 259.339 241.392 259.603C241.113 259.867 240.779 260.065 240.413 260.18C240.047 260.296 239.66 260.326 239.28 260.27C238.8 260.27 238.28 260.1 237.86 260.05C236.537 259.924 235.203 260.069 233.939 260.477C232.675 260.885 231.507 261.547 230.508 262.423C229.509 263.299 228.699 264.369 228.128 265.569C227.558 266.769 227.239 268.072 227.19 269.4C227.19 270.4 227.19 271.49 227.14 272.52C227.155 272.943 227.046 273.362 226.827 273.725C226.609 274.088 226.29 274.38 225.909 274.565C225.528 274.75 225.101 274.821 224.681 274.769C224.26 274.716 223.864 274.543 223.54 274.27C222.466 273.597 221.461 272.82 220.54 271.95C219.953 271.342 219.221 270.893 218.413 270.645C217.605 270.396 216.747 270.357 215.92 270.53C212.63 271.13 209.38 271.91 207.16 274.87C206.4 275.87 205.41 277.19 203.77 276.54C202.13 275.89 202.41 274.36 202.43 273.03C202.5 268.25 202.63 263.48 202.68 258.71C202.68 257.12 202.48 255.52 202.54 253.93C202.69 249.63 202.98 245.34 203.11 241.04C203.084 239.546 202.954 238.056 202.72 236.58C202.61 235.63 202.32 234.7 202.28 233.75C201.98 226.58 201.58 219.4 201.5 212.22C201.42 205.93 201.74 199.63 201.84 193.34C201.92 188.48 201.84 183.62 201.99 178.77C202.07 175.5 202.37 172.24 202.49 168.97C202.57 166.97 202.49 164.97 202.49 162.36C200.74 165.36 199.31 167.76 197.86 170.19C197.536 170.741 197.161 171.26 196.74 171.74C195.32 173.3 193.92 173.02 193.09 171.11C191.89 168.34 190.61 165.61 189.35 162.87C189.35 162.77 189.11 162.74 188.82 162.58C188.76 163.08 188.67 163.52 188.66 163.95C188.55 169.13 188.41 174.31 188.38 179.49C188.38 182.04 188.65 184.58 188.67 187.13C188.67 191.5 188.94 195.9 188.55 200.24C187.89 207.52 188.7 214.75 188.77 221.99C188.83 228.99 188.57 236.04 188.38 243.06C188.378 246.719 188.164 250.375 187.74 254.01C187.23 257.47 187.58 260.84 187.69 264.25C187.83 268.88 187.8 273.52 187.8 278.15C187.8 279.74 186.89 280.52 185.5 279.85C180.18 277.28 174.43 277.62 168.82 277.45C166.899 277.342 164.977 277.65 163.186 278.352C161.395 279.055 159.776 280.135 158.44 281.52C157.24 282.78 155.84 283.85 154.63 285.09C151.25 288.57 148.25 292.27 148.02 297.44C148.065 297.875 147.976 298.312 147.766 298.695C147.555 299.078 147.232 299.386 146.84 299.58C145.19 300.4 143.94 299.88 143.84 298.01C143.71 296.217 143.197 294.473 142.334 292.896C141.471 291.319 140.28 289.946 138.84 288.87C136.599 286.917 133.712 285.866 130.74 285.92C129.47 285.92 128.19 286.03 126.92 286.1C125.564 286.261 124.298 286.858 123.31 287.8C121.31 289.45 119.52 288.8 119.08 286.23C118.964 284.967 118.997 283.695 119.18 282.44C119.38 279.82 119.96 277.18 119.77 274.59C119.31 268.41 116.47 263.48 110.53 261.19C105.85 259.39 100.96 259.44 96.59 262.45C95.6065 263.223 94.8329 264.23 94.34 265.38C93.65 266.86 91.83 268.49 90.26 268.59C88.34 268.7 87.19 267.59 87.42 265.67C87.4668 264.896 87.3081 264.123 86.96 263.43C85.6931 260.082 83.7686 257.022 81.3 254.43C80.49 253.56 79.89 252.49 79.16 251.55C78.0004 249.827 76.5202 248.344 74.8 247.18C73.0984 245.998 71.4688 244.716 69.92 243.34C67.65 241.59 65.38 239.85 63.05 238.19C62.3413 237.649 61.5374 237.245 60.68 237C58.01 236.34 57.79 235 58.68 232.75C59.49 230.84 60.28 228.93 61.06 227C62.3645 223.638 62.9636 220.043 62.82 216.44C62.71 211.98 62.74 207.52 61.43 203.16C60.2325 199.363 58.5055 195.754 56.3 192.44C54.88 190.23 53.21 188.18 51.61 186.09C49.9525 184.016 47.7243 182.473 45.2 181.65C41.6283 180.235 37.9501 179.105 34.2 178.27C29.42 177.38 24.53 177.14 19.92 179.51C17.86 180.57 16.76 180.26 15.84 178.63C15.6095 178.147 15.503 177.614 15.53 177.08C15.53 170.9 12.93 166.08 8.32001 162.08C7.59621 161.392 6.82059 160.76 6.00001 160.19C5.28941 159.692 4.45591 159.398 3.59001 159.34C0.590014 159.52 -0.589986 158.88 0.310014 154.6C3.48001 154.32 6.59001 154.6 9.19001 156.75C11.5422 158.641 13.6426 160.825 15.44 163.25C16.9796 165.272 18.0766 167.596 18.66 170.07C18.95 171.39 19.22 172.7 19.48 173.9C22.54 173.58 25.48 173.18 28.36 173.01C32.5878 172.838 36.8096 173.473 40.8 174.88C43.07 175.63 45.24 176.64 47.5 177.42C50.4948 178.561 53.1559 180.435 55.24 182.87C58.8324 186.848 61.7478 191.388 63.87 196.31C66.1116 201.277 67.1824 206.693 67 212.14C66.88 215.14 66.85 218.19 66.66 221.21C66.46 224.54 65.04 227.53 63.82 230.57C63.54 231.29 63.26 232.01 63 232.7C65.67 234.54 68.22 236.16 70.63 237.99C72.84 239.67 74.77 241.74 77.05 243.32C78.8484 244.497 80.4174 245.991 81.68 247.73C83.68 250.67 85.8 253.6 87.68 256.61C88.312 257.799 88.8406 259.04 89.26 260.32C89.44 260.74 89.64 261.14 89.95 261.82C90.5444 261.345 91.1089 260.834 91.64 260.29C92.9934 258.705 94.7636 257.531 96.75 256.9C98.46 256.36 99.95 255.43 101.87 255.17C105.02 254.74 107.87 255.54 110.8 256.22C113.73 256.9 116.11 259.01 118.42 260.99C121.59 263.71 122.69 267.37 123.48 271.29C124.19 274.83 123.67 278.29 123.25 281.72C125.25 281.72 127.33 281.82 129.34 281.72C131.968 281.473 134.616 281.907 137.028 282.981C139.44 284.055 141.534 285.732 143.11 287.85C143.74 288.65 144.39 289.43 145.11 290.31L148.95 284.62C149.091 284.335 149.273 284.072 149.49 283.84C152.88 281.2 155.49 277.62 159.27 275.48C162.567 273.583 166.357 272.719 170.15 273C173.01 273.21 175.87 273.49 178.71 273.83C180.52 274.04 182.3 274.41 184.35 274.75C184.653 272.45 184.76 270.128 184.67 267.81C184.67 264.54 184.67 261.26 184.43 258.01C184.02 251.93 184.85 245.9 184.99 239.85C185.08 235.72 185.06 231.58 185.11 227.45C185.11 224.99 185.28 222.52 185.26 220.05C185.24 217.58 185.01 215.12 185.03 212.66C185.03 208.66 185.26 204.71 185.36 200.74C185.36 199.74 185.29 198.67 185.36 197.64C185.43 194.69 185.56 191.73 185.61 188.78C185.77 179.21 185.95 169.64 186.02 160.07C186.02 156.73 185.8 153.38 185.59 150.07C185.484 149.555 185.178 149.102 184.74 148.81C184.232 148.588 183.707 148.408 183.17 148.27C181.11 147.27 180.34 145.53 181.49 143.56C182.93 141.09 184.67 138.8 186.3 136.44C186.84 135.67 187.46 134.95 188.13 134.1C185.52 132.17 187.29 129.15 185.98 126.7C185.23 126.78 184.46 126.85 183.7 126.94C180.64 127.33 176.8 125.02 176.24 122.18C175.63 119.1 175.98 116.09 178.24 113.66C180.5 111.23 183.07 108.57 185.56 106.1C185.947 105.827 186.232 105.434 186.371 104.981C186.511 104.529 186.496 104.043 186.33 103.6C186.12 102.832 186.036 102.035 186.08 101.24C186.08 95.5 186.08 89.77 186.01 84.03C186.01 81.32 185.55 78.59 185.7 75.89C185.91 72.06 185.2 68.29 185.17 64.49C185.17 59.87 185.17 55.26 185 50.65C184.91 47.79 184.38 44.97 184.71 42.06C185.02 39.36 186.49 37.33 187.79 35.16C188.2 34.48 188.79 33.9 189.22 33.24C191.22 30.35 193.82 29.5 197.11 30.68C197.46 30.81 197.83 30.91 198.32 31.06V26.64C198.229 25.8578 198.249 25.0666 198.38 24.29C199.41 20.6865 200.948 17.2484 202.95 14.08C204.306 11.914 205.786 9.82729 207.38 7.83001C209.259 5.56447 211.262 3.40451 213.38 1.36001C214.185 0.723662 215.151 0.322224 216.17 0.200008C218.707 -0.231638 221.314 0.0630389 223.69 1.05001C224.202 1.27008 224.667 1.58572 225.06 1.98001C227.852 4.82647 230.339 7.95679 232.48 11.32C233.95 13.58 235.69 15.66 237.24 17.88C238.79 20.1 239.99 22.31 239.78 25.17C239.796 26.8247 239.96 28.4746 240.27 30.1C243.82 28.74 246.12 30.71 248.45 32.91C250.12 34.49 252.14 35.78 253.04 38C253.61 39.2135 253.949 40.5224 254.04 41.86C254.04 45.86 253.79 49.97 253.8 54.03C253.8 58.96 254.02 63.89 254.13 68.81C254.28 75.35 254.77 81.92 254.42 88.43C254.18 92.74 254.52 97.02 254.36 101.31C254.455 102.793 254.676 104.265 255.02 105.71C256.51 106.63 258.41 107.71 260.13 108.92C263.13 111.1 265.5 113.68 265.13 117.84C265.092 119.246 264.562 120.594 263.632 121.648C262.701 122.703 261.43 123.397 260.04 123.61C258.04 124.01 257.96 124.14 257.87 126.07C257.74 128.93 257.39 129.66 255.04 131.71C256.825 134.032 258.879 136.133 261.16 137.97C261.89 138.59 262.62 139.22 263.38 139.79C263.815 140.081 264.143 140.506 264.312 141.001C264.482 141.496 264.485 142.033 264.32 142.53C264.2 142.995 263.946 143.415 263.591 143.738C263.236 144.061 262.794 144.274 262.32 144.35C259.91 145.03 259.86 145.14 260.04 147.58C260.13 148.76 260.04 149.96 260.04 151.15C259.9 158.41 259.65 165.67 259.65 172.92C259.65 182.18 259.9 191.45 259.96 200.71C259.96 205.55 259.82 210.39 259.84 215.24C259.892 216.915 260.049 218.585 260.31 220.24C260.657 223.632 260.724 227.047 260.51 230.45C260.33 235.23 260.59 240.02 260.69 244.81C260.76 248.31 260.88 251.81 260.97 255.31C261.07 258.98 261.18 262.64 261.23 266.31C261.28 269.81 261.23 273.31 261.23 276.81C261.23 277.44 261.29 278.06 261.32 278.67C261.59 278.67 261.77 278.78 261.89 278.67C264.95 277.14 267.96 275.49 271.08 274.11C272.689 273.403 274.401 272.957 276.15 272.79C278.604 272.54 281.082 272.685 283.49 273.22C287.572 274.274 291.564 275.648 295.43 277.33C298.023 278.416 300.283 280.168 301.98 282.41C302.62 283.22 303.26 284.04 303.93 284.83C305.194 286.073 305.914 287.767 305.93 289.54C306.005 290.6 306.176 291.651 306.44 292.68C307.529 291.94 308.581 291.146 309.59 290.3C310.286 289.64 311.11 289.129 312.012 288.801C312.913 288.472 313.872 288.332 314.83 288.39C317.59 288.5 320.35 288.74 322.98 288.91C323.4 286.05 323.75 283.16 324.28 280.3C324.511 279.052 324.965 277.857 325.62 276.77C327.94 273.04 330.34 269.3 334.19 266.94C338.65 264.2 343.47 262.76 348.77 263.76C349.329 263.955 349.941 263.924 350.477 263.673C351.013 263.423 351.431 262.973 351.64 262.42C354.97 256.19 360.3 252.18 366.64 249.25C368.582 248.353 370.649 247.756 372.77 247.48C373.563 247.304 374.342 247.07 375.1 246.78C374.3 244.12 373.57 241.63 372.79 239.15C370.1 230.57 370.86 222.15 373.84 213.79C375.21 209.98 376.63 206.21 379.1 202.85C381.114 199.976 383.603 197.467 386.46 195.43C389.401 193.397 392.453 191.527 395.6 189.83C397.41 189.037 399.301 188.444 401.24 188.06C407.35 186.37 413.61 187.27 419.8 187.12C420.969 187.223 422.123 187.458 423.24 187.82C423.436 185.937 423.74 184.068 424.15 182.22C425.31 178.03 428.01 174.75 430.8 171.55C432.27 169.87 433.74 168.17 435.92 167.36L435.8 172.67ZM211.12 122.09C211.44 121.19 211.69 120.44 211.98 119.71C212.74 117.79 213.41 115.82 214.31 113.97C214.634 113.133 215.19 112.406 215.913 111.875C216.635 111.344 217.495 111.03 218.39 110.97C219.634 110.916 220.871 111.196 221.971 111.779C223.072 112.363 223.996 113.23 224.65 114.29C225.97 116.38 227.22 118.51 228.58 120.57C228.95 121.14 229.58 121.84 230.14 121.92C232.25 122.251 234.384 122.408 236.52 122.39C239.62 122.33 242.71 121.82 245.8 121.85C250.35 121.838 254.869 121.106 259.19 119.68C259.525 119.612 259.842 119.475 260.121 119.279C260.4 119.082 260.635 118.83 260.812 118.537C260.989 118.245 261.103 117.919 261.147 117.581C261.192 117.242 261.165 116.898 261.07 116.57C260.901 115.748 260.565 114.969 260.083 114.281C259.602 113.593 258.985 113.011 258.27 112.57C256.85 111.545 255.363 110.617 253.82 109.79C246.82 106.12 241.82 100.08 235.95 95.1C235.777 94.9329 235.613 94.7559 235.46 94.57C233.95 92.93 232.46 91.24 230.92 89.68C230.05 88.8622 229.468 87.7855 229.26 86.61C228.493 82.045 228.158 77.4179 228.26 72.79C228.26 66.79 228.68 60.69 228.92 54.64C229.239 50.9745 228.972 47.2817 228.13 43.7C228.03 43.0719 227.799 42.472 227.45 41.94C225.33 39.44 222.706 37.4159 219.75 36C219.462 35.908 219.156 35.8827 218.856 35.926C218.557 35.9693 218.271 36.0801 218.02 36.25C217.187 36.9865 216.411 37.7855 215.7 38.64C214.943 39.5517 214.125 40.4104 213.25 41.21C212.01 42.1477 211.025 43.3814 210.386 44.7983C209.747 46.2152 209.473 47.7699 209.59 49.32C209.76 52.81 209.84 56.32 210.17 59.79C210.612 65.4229 210.668 71.0794 210.34 76.72C210.2 79.99 210.08 83.26 209.92 86.53C209.84 88.19 209.47 89.68 207.62 90.34C207.14 90.51 206.8 91.07 206.41 91.46C204.62 93.25 202.89 95.11 201.03 96.82C197.26 100.25 193.33 103.51 189.63 107.01C186.74 109.75 184.01 112.66 181.39 115.65C180.583 116.732 180.054 117.996 179.85 119.33C179.4 121.6 180.47 123.06 182.77 122.91C187.46 122.61 192.19 123.11 196.83 122.08C198.136 121.736 199.479 121.552 200.83 121.53C204.19 121.64 207.52 121.9 211.12 122.09ZM234.88 87.21C234.88 86.68 234.88 86.31 234.88 85.94C234.67 81.8 234.25 77.66 234.3 73.52C234.552 63.9519 234.218 54.3773 233.3 44.85C232.818 41.6721 233.469 38.4259 235.14 35.68C235.648 34.7886 235.904 33.7757 235.88 32.75C235.88 30.36 235.57 27.97 235.59 25.58C235.59 22.58 233.99 20.49 232.36 18.31C231.12 16.67 229.92 14.99 228.68 13.31C226.68 10.69 224.86 8.00001 222.75 5.50001C221 3.41001 217 3.35001 215 5.12001C210.998 8.67964 207.604 12.8679 204.95 17.52C202.6 21.52 200.46 25.64 201.34 30.57C201.38 30.805 201.38 31.045 201.34 31.28C201.174 32.1503 201.26 33.0501 201.59 33.8726C201.92 34.6951 202.478 35.4057 203.2 35.92C203.865 36.4943 204.403 37.2008 204.78 37.9945C205.157 38.7882 205.365 39.6517 205.39 40.53C205.502 41.8034 205.538 43.0823 205.5 44.36C205.4 49.06 205.22 53.77 205.14 58.47C205.09 61.58 205.14 64.69 205.14 67.8C205.14 69.38 204.8 70.96 204.82 72.53C204.82 74.84 205.09 77.15 205.23 79.45L205.75 87.61C207.2 87.26 207.62 86.53 207.61 85.45C207.6 84.37 207.54 83.54 207.56 82.58C207.63 78.19 207.92 73.79 207.76 69.4C207.52 62.95 207.02 56.51 206.51 50.07C206.329 48.2389 206.529 46.3901 207.097 44.6399C207.664 42.8897 208.588 41.2759 209.81 39.9C211.48 37.98 213.25 36.14 214.94 34.24C216.94 31.96 218.81 31.61 221.55 32.91C224.29 34.21 226.29 36.11 228.55 37.91C230.441 39.5103 231.67 41.7552 232 44.21C232.286 45.5246 232.436 46.8648 232.45 48.21C232.36 53.31 232.04 58.4 232.04 63.49C232.04 69.95 232.24 76.41 232.41 82.87C232.489 83.7439 232.667 84.6061 232.94 85.44C233.044 85.8978 233.286 86.3127 233.633 86.6291C233.979 86.9455 234.415 87.1482 234.88 87.21V87.21ZM201.24 64.11C201.365 63.5466 201.452 62.9753 201.5 62.4C201.63 56.26 201.78 50.13 201.8 43.99C201.8 42.35 201.8 40.38 201.02 39.13C199.846 37.043 198.106 35.3305 196 34.19C194.42 33.46 193.09 33.57 192 34.94C191.31 35.82 190.73 36.78 190.08 37.69C189.088 38.9926 188.381 40.4894 188.006 42.083C187.63 43.6767 187.594 45.3315 187.9 46.94C188.124 48.4397 188.237 49.9537 188.24 51.47C188.31 53.61 188.32 55.76 188.34 57.9C188.34 60.28 188.34 62.66 188.34 65.15L201.24 64.11ZM249.84 63.72C249.974 63.4437 250.071 63.1513 250.13 62.85C250.24 55.69 250.37 48.52 250.4 41.36C250.412 40.4847 250.118 39.6326 249.57 38.95C247.879 37.1573 246.079 35.4708 244.18 33.9C242.71 32.71 241.61 32.96 240.49 34.4C239.61 35.53 238.75 36.67 237.97 37.86C237.052 39.0846 236.592 40.5917 236.67 42.12C236.87 44.58 237.12 47.04 237.22 49.5C237.39 53.5 237.46 57.61 237.59 61.67C237.59 62.43 237.73 63.19 237.78 63.67L249.84 63.72ZM250.42 164.48C251.359 163.578 252.191 162.572 252.9 161.48C253.84 159.728 254.582 157.877 255.11 155.96C256.16 152.658 256.376 149.146 255.74 145.74C251.64 145.89 247.61 146 243.59 146.21C242.11 146.29 241.84 146.86 241.9 148.47C242.07 152.83 243.9 156.62 245.99 160.29C246.856 162.217 248.448 163.723 250.42 164.48V164.48ZM216.12 116.08H215.62C215.38 117.31 215.15 118.54 214.91 119.77C214.815 120.477 214.668 121.175 214.47 121.86C213.47 124.64 212.47 127.39 211.47 130.16C211.275 130.681 211.135 131.22 211.05 131.77C210.83 133.21 211.15 133.91 212.59 134.24C214.048 134.578 215.544 134.722 217.04 134.67C219.42 134.58 221.8 133.98 224.16 134.1C226.229 134.125 228.27 133.623 230.09 132.64C230.197 132.075 230.197 131.495 230.09 130.93C229.09 128.87 227.98 126.85 226.85 124.85C226.3 123.85 225.63 123 225.02 122.07L220.8 115.68L220.23 115.87C220.38 116.92 220.57 117.96 220.66 119.02C220.92 121.94 221.19 124.86 221.32 127.79C221.353 128.314 221.179 128.83 220.834 129.227C220.49 129.624 220.004 129.869 219.48 129.91C218.48 129.91 217.74 129.19 217.56 127.91C217.56 127.59 217.56 127.27 217.56 126.91C217.19 123.28 217.15 119.61 216.12 116.08V116.08ZM201.53 67.7C199.01 67.7 196.88 67.7 194.75 67.7C192.62 67.7 190.61 67.87 188.49 67.96C188.66 73.28 188.82 78.27 189 83.53L201.62 81.53C201.696 80.021 201.696 78.5091 201.62 77C201.28 74.05 200.59 71.09 201.53 67.7ZM238 83.78C238.11 85.3381 238.11 86.9019 238 88.46C237.815 89.3608 237.9 90.2962 238.245 91.1486C238.59 92.0009 239.18 92.7321 239.94 93.25C242.679 95.4262 245.238 97.8207 247.59 100.41C248.534 101.275 249.536 102.073 250.59 102.8V82.88L238 83.78ZM237.7 66.7C237.396 71.3413 237.462 75.9994 237.9 80.63L250.67 79C250.38 74.94 250.78 71.17 250.31 67.6C248.03 67.26 246.07 66.86 244.09 66.72C242.11 66.58 240 66.7 237.73 66.7H237.7ZM189.34 86.6C188.71 88.8 188.34 98.6 188.77 102.69C189 102.69 189.29 102.69 189.43 102.59C193.43 99.17 197.43 95.75 201.33 92.29C201.763 91.9327 202.036 91.4185 202.09 90.86C202.09 89.01 201.84 87.17 201.69 85.41L189.34 86.6ZM184.69 144.6C187.08 145.6 201.41 145.03 204.76 143.83C203.06 141.54 200.97 139.51 199.88 137.05C198.69 134.37 196.81 134.23 194.55 134.26C193.995 134.316 193.437 134.333 192.88 134.31C191.88 134.15 191.32 134.7 190.79 135.5C189.79 136.96 188.71 138.31 187.73 139.75C186.75 141.19 185.71 143 184.69 144.63V144.6ZM257.41 140.79C257.32 140.53 257.31 140.34 257.21 140.24C254.92 137.82 252.65 135.38 250.29 133.03C249.805 132.67 249.2 132.509 248.6 132.58C247.211 132.853 245.809 133.053 244.4 133.18C243.892 133.113 243.377 133.215 242.932 133.47C242.488 133.725 242.139 134.118 241.94 134.59C241.12 136.23 240.17 137.8 239.34 139.43C238.76 140.58 238.28 141.79 237.64 143.23C238.31 143.15 238.64 143.14 238.9 143.08C240.431 142.664 241.988 142.35 243.56 142.14C248.14 141.85 252.78 142.19 257.41 140.82V140.79ZM189.16 149.28C189.9 155.63 192.8 160.67 195.71 165.85C199.12 160.46 201.25 154.96 200.55 148.58L189.16 149.28ZM201.43 130.62C201.84 128.85 202.23 127.33 201.43 125.62L189.08 126.83C189.35 128.09 189.08 129.61 189.96 130.99L201.43 130.62ZM239.62 129.42C244.5 129.91 249.01 128.86 253.62 127.73V125C248.77 126.2 244.01 125.13 239.17 125.75L239.62 129.42Z" fill="#0E2043"/>
<path d="M219.74 43.08C221 43.29 221.86 43.41 222.74 43.59C223.137 43.6585 223.495 43.8727 223.743 44.1908C223.991 44.5089 224.111 44.9079 224.08 45.31C224.088 45.5129 224.055 45.7154 223.984 45.9054C223.912 46.0955 223.803 46.2693 223.664 46.4166C223.524 46.5639 223.356 46.6817 223.17 46.763C222.984 46.8443 222.783 46.8874 222.58 46.89C220.612 46.9999 218.639 46.9999 216.67 46.89C216.22 46.89 215.43 46.28 215.46 46.01C215.47 45.6728 215.549 45.3413 215.694 45.0365C215.838 44.7318 216.045 44.4605 216.3 44.24C217.413 43.7598 218.564 43.3718 219.74 43.08V43.08Z" fill="black"/>
<path d="M96.72 76C96.63 74.72 96.99 74.19 97.78 74C97.9575 73.9671 98.1399 73.9702 98.3162 74.009C98.4926 74.0478 98.6594 74.1216 98.8067 74.2261C98.954 74.3305 99.0789 74.4634 99.1739 74.617C99.269 74.7705 99.3322 74.9416 99.36 75.12C99.93 76.94 100.36 78.8 101.06 80.57C101.451 81.7736 102.143 82.8573 103.071 83.7183C103.999 84.5794 105.131 85.1892 106.36 85.49C107.8 85.85 108.47 86.89 107.93 87.85C107.689 88.2969 107.341 88.6769 106.917 88.9562C106.492 89.2354 106.006 89.4051 105.5 89.45C104.435 89.6281 103.458 90.1517 102.72 90.94C101.522 92.1714 100.559 93.6118 99.88 95.19C99.7437 95.6845 99.6897 96.198 99.72 96.71C99.7267 97.2011 99.6254 97.6877 99.4232 98.1352C99.221 98.5828 98.9229 98.9805 98.55 99.3C98.3266 99.514 98.0293 99.6334 97.72 99.6334C97.4107 99.6334 97.1133 99.514 96.89 99.3C96.6711 99.131 96.4897 98.9184 96.3572 98.6757C96.2246 98.433 96.1439 98.1655 96.12 97.89C96.2997 96.243 95.8337 94.5905 94.82 93.28C93.82 91.96 92.66 90.46 90.74 90.07C89.48 89.82 88.28 89.33 87.02 89.07C86.17 88.88 86.2 88.15 86.02 87.61C85.93 87.34 86.27 86.93 86.4 86.61C87 85 88.4 85.83 89.4 85.7C90.3026 85.621 91.1704 85.3145 91.9223 84.8091C92.6743 84.3037 93.2859 83.6159 93.7 82.81C93.7869 82.6474 93.8982 82.499 94.03 82.37C95.1589 81.1086 95.8835 79.5376 96.11 77.86C96.2783 77.2291 96.4819 76.6081 96.72 76V76ZM97.82 91.37L101.82 87.02C101.062 86.4031 100.347 85.7349 99.68 85.02C99.0654 84.2352 98.5041 83.41 98 82.55L93.88 87.64L97.82 91.37Z" fill="#0E2043"/>
<path d="M116.07 57C116.054 57.4122 115.911 57.8093 115.66 58.1369C115.409 58.4645 115.064 58.7066 114.67 58.83C113.01 59.66 111.4 60.66 110.79 62.57C110.727 63.1326 110.768 63.702 110.91 64.25C110.943 64.4654 110.925 64.6855 110.858 64.8929C110.791 65.1003 110.677 65.2894 110.525 65.4454C110.373 65.6014 110.187 65.72 109.981 65.792C109.776 65.8639 109.556 65.8872 109.34 65.86C108.34 65.78 107.62 65.59 107.27 64.4C106.632 62.7824 105.484 61.4168 104 60.51C103.111 60.0801 102.159 59.7932 101.18 59.66C100.34 59.4384 99.5177 59.1543 98.72 58.81C98.4119 58.5887 98.2021 58.2562 98.1349 57.8829C98.0677 57.5096 98.1484 57.1248 98.36 56.81C98.894 56.264 99.5076 55.8021 100.18 55.44C101.27 54.87 102.51 54.55 103.53 53.89C104.189 53.3265 104.741 52.649 105.16 51.89C105.463 51.4735 105.681 51.0011 105.8 50.5C105.92 49.94 105.74 49.32 105.89 48.78C106.04 48.24 106.34 47.3 106.82 47.06C107.51 46.8818 108.238 46.9273 108.9 47.19C109.1 47.24 109.16 47.87 109.28 48.24C109.519 49.3882 109.906 50.5008 110.43 51.55C111.25 52.806 112.37 53.8373 113.69 54.55C114.409 54.9008 115.081 55.3409 115.69 55.86C115.91 56.09 115.94 56.61 116.07 57ZM108.53 59.58L110.85 57L107.75 54.25L104.75 56.9L108.53 59.58Z" fill="#0E2043"/>
<path d="M74.32 79.88C74.2711 79.0823 74.1267 78.2934 73.89 77.53C73.5545 76.9202 73.0821 76.3964 72.51 76C71.51 75.27 70.51 74.62 69.51 74C69.1225 73.7752 68.8006 73.4529 68.576 73.0653C68.3515 72.6776 68.2322 72.238 68.23 71.79C68.23 70.79 69.01 70.48 69.75 70.16C71.1281 69.6789 72.2836 68.7118 73 67.44C73.8599 66.0439 74.5577 64.5543 75.08 63C75.36 62 76.23 62.43 76.8 62.16C77.02 62.06 77.57 62.43 77.8 62.71C78.0646 63.0427 78.2247 63.4464 78.26 63.87C78.43 66.06 79.77 67.47 81.33 68.78C81.7892 69.211 82.2265 69.6649 82.64 70.14C82.8026 70.3533 82.9984 70.539 83.22 70.69C83.82 70.98 84.47 71.17 85.05 71.49C85.18 71.55 85.23 72.01 85.14 72.2C84.9324 72.8275 84.5449 73.3801 84.0257 73.789C83.5066 74.1979 82.8786 74.4452 82.22 74.5C81.4408 74.7015 80.7425 75.1379 80.22 75.75C79.4805 76.4792 78.8109 77.276 78.22 78.13C77.9907 78.5337 77.8896 78.9975 77.93 79.46C77.8931 80.0777 77.6337 80.6612 77.1999 81.1024C76.766 81.5436 76.187 81.8128 75.57 81.86C74.89 81.86 74.13 80.81 74.32 79.88ZM79.71 72C78.79 71 77.86 69.94 76.89 68.93C76.48 68.5 76.18 68.77 75.89 69.16C75.19 70 74.4 70.77 73.69 71.62C73.54 71.8 73.47 72.3 73.6 72.42C74.53 73.34 75.52 74.21 76.41 75.03L79.71 72Z" fill="#0E2043"/>
</g>
<defs>
<clipPath id="clip0_6_4">
<rect width="435.8" height="299.88" fill="white"/>
</clipPath>
</defs>
</svg>
