<svg width="43" height="45" viewBox="0 0 43 45" fill="none" xmlns="http://www.w3.org/2000/svg">
<g clip-path="url(#clip0_17_24)">
<path d="M3.00002 26.2499C2.33189 22.8742 1.99695 19.4411 2.00002 15.9999C2.00002 11.9999 2.21002 11.3599 3.24002 9.37989C3.50002 8.88989 5.18002 3.19989 9.36002 3.17989C12.2 3.17989 14.42 4.07989 15.06 4.79989C17.13 7.07989 17.13 9.59989 18.06 9.58989C18.99 9.57989 18.82 6.92989 21.06 4.95989C22.398 3.83817 24.0661 3.18495 25.81 3.09989C27.345 2.95595 28.8896 3.24341 30.27 3.92989C31.9522 4.85959 33.2887 6.30832 34.08 8.05989C34.8869 9.82765 35.3355 11.7378 35.4 13.6799C35.85 17.8799 35.05 18.2699 35.73 20.6799C36.57 23.5899 36.34 22.9199 37.05 25.5999C37.18 26.0899 38.43 29.9199 36.05 33.0399C34.12 35.5799 31.91 36.4599 28.94 36.8799C24.56 37.4999 22 35.2699 19.68 31.7499C19.02 30.7499 18.68 32.3699 16.05 33.2399C13.42 34.1099 11.8 34.6599 9.76002 34.2399C5.62002 33.3799 3.76002 29.1599 3.65002 28.9499C3.31151 28.0837 3.09283 27.1753 3.00002 26.2499V26.2499Z" fill="#9F33FF"/>
<path d="M21.9199 8.06C22.2072 6.24811 23.1591 4.60818 24.5899 3.46C24.7162 3.3382 24.8301 3.20422 24.9299 3.06C25.8799 1.91 27.2899 1.68 28.6199 1.28C29.1273 1.09922 29.6613 1.00458 30.1999 1C31.118 1.06544 32.0303 1.19577 32.9299 1.39C33.5747 1.48961 34.1994 1.69219 34.7799 1.99C35.2513 2.35103 35.6777 2.76734 36.0499 3.23C37.0688 4.03841 37.8954 5.0631 38.4699 6.23C38.8199 7.23 39.1899 8.12 39.4699 9.09C39.8498 10.6089 39.9915 12.1776 39.8899 13.74C39.8443 15.5881 39.5068 17.4173 38.8899 19.16C38.8199 19.37 38.6699 19.55 38.6099 19.76C38.5451 19.9513 38.5451 20.1587 38.6099 20.35C39.4471 22.1212 39.9198 24.0426 39.9999 26C40.0805 27.3593 39.9898 28.7233 39.7299 30.06C39.5881 31.6101 38.8494 33.0443 37.6699 34.06C36.844 34.8425 35.8858 35.4722 34.8399 35.92C32.9212 36.4584 30.884 36.3991 28.9999 35.75C28.5208 35.5894 28.0788 35.3344 27.6999 35C26.6897 34.1102 25.7564 33.1367 24.9099 32.09C24.3243 31.2831 23.9217 30.3583 23.7299 29.38C23.3612 27.5318 23.1173 25.6609 22.9999 23.78C22.9586 22.875 23.1227 21.9725 23.4799 21.14C24.0099 19.89 23.3299 19.03 22.7899 18.06C22.7899 18.75 22.7399 19.43 22.6899 20.12C22.5999 21.32 22.4899 22.53 22.3699 23.73C22.2499 24.93 22.2199 25.85 22.0199 26.89C21.8221 27.9513 21.5275 28.9923 21.1399 30C20.6489 31.2201 19.824 32.2771 18.7599 33.05C17.8752 33.6177 16.9018 34.0334 15.8799 34.28C14.5987 34.5743 13.2541 34.3893 12.0999 33.76C11.0882 33.2457 10.1554 32.589 9.32992 31.81C8.71963 31.3332 8.17788 30.7746 7.71992 30.15C7.04687 29.2803 6.49826 28.3211 6.08992 27.3C5.59136 25.7951 5.22661 24.2491 4.99992 22.68C4.45999 19.5565 4.45999 16.3635 4.99992 13.24C5.11992 12.58 4.99992 11.88 5.11992 11.24C5.52157 8.22057 6.74627 5.36986 8.65992 3C9.17824 2.27068 9.89397 1.70446 10.723 1.36789C11.552 1.03132 12.4599 0.938385 13.3399 1.1C14.1823 1.20886 15.0172 1.36916 15.8399 1.58C16.8362 1.87309 17.7645 2.3607 18.5712 3.01465C19.3779 3.6686 20.047 4.47594 20.5399 5.39C20.9999 6.28 21.4799 7.2 21.9199 8.06ZM36.6099 11C36.665 10.5885 36.665 10.1715 36.6099 9.76C36.2199 8.39 35.7899 7.02 35.3099 5.68C35.1252 5.1983 34.8541 4.75436 34.5099 4.37C33.4799 3.1 31.9299 3 30.5699 3C28.8834 2.84904 27.2036 3.35406 25.8799 4.41C25.1054 4.97342 24.4771 5.71405 24.0473 6.56999C23.6176 7.42594 23.3991 8.37231 23.4099 9.33C23.4599 10.74 23.5099 12.15 23.5799 13.56C23.5748 15.3923 24.0176 17.198 24.8699 18.82C25.03 19.0867 25.1291 19.3854 25.1603 19.6949C25.1914 20.0043 25.1537 20.3168 25.0499 20.61C24.8199 21.52 24.6299 22.45 24.4899 23.38C24.4638 23.8159 24.4975 24.2533 24.5899 24.68C24.9299 27.11 25.0399 29.54 26.6999 31.68C27.6999 32.97 30.6399 33.41 31.9299 32.98C33.1622 32.5006 34.2998 31.8065 35.2899 30.93C35.9374 30.4898 36.4612 29.891 36.8113 29.1907C37.1615 28.4904 37.3262 27.7121 37.2899 26.93C37.1799 25.49 37.1099 24.03 36.8699 22.6C36.6299 21.17 36.5199 19.92 34.8699 19.43C34.2799 19.26 34.2899 18.56 34.7799 18.13C34.9699 17.95 35.2099 17.82 35.4099 17.65C36.6299 16.6 36.7399 15.14 36.7799 13.65C36.7799 12.73 36.6599 11.85 36.6099 11ZM6.36992 19.15H6.18992C6.47992 20.99 6.75992 22.83 7.05992 24.67C7.48732 26.8578 8.66507 28.8278 10.3899 30.24C11.1399 30.92 12.1199 30.85 13.0099 31.03C13.8408 31.2452 14.7165 31.2121 15.5287 30.9348C16.3409 30.6575 17.0541 30.1483 17.5799 29.47C18.9899 27.73 18.9599 25.58 19.1499 23.47C19.2399 22.47 19.2299 21.41 19.3099 20.38C19.3899 19.35 19.6099 18.24 19.5999 17.16C19.5999 15.6 19.4199 14.04 19.3399 12.47C19.3399 11.84 19.4299 11.19 19.3399 10.57C19.3165 9.40564 19.1417 8.24927 18.8199 7.13C18.2183 5.64899 17.2681 4.3351 16.0499 3.3C15.8627 3.14575 15.6388 3.04242 15.3999 3C14.3999 2.88 13.3499 2.76 12.3199 2.74C11.8455 2.75001 11.3796 2.86882 10.9583 3.08727C10.537 3.30572 10.1715 3.61799 9.88992 4C8.3071 6.0068 7.25479 8.37967 6.82992 10.9C6.57952 12.717 6.42929 14.5465 6.37992 16.38C6.31992 17.3 6.36992 18.23 6.36992 19.15Z" fill="#161449"/>
<path d="M30.3001 16.9999C30.0193 17.0066 29.7463 16.9074 29.5351 16.7222C29.324 16.537 29.1901 16.2792 29.1601 15.9999C29.0462 15.2612 28.9728 14.5167 28.9401 13.7699C28.8501 12.5699 28.7301 11.3599 28.6901 10.1599C28.547 9.28473 28.6908 8.3867 29.1001 7.59995C29.2105 7.45864 29.3516 7.34433 29.5127 7.26572C29.6739 7.1871 29.8508 7.14624 30.0301 7.14624C30.2094 7.14624 30.3863 7.1871 30.5475 7.26572C30.7086 7.34433 30.8497 7.45864 30.9601 7.59995C31.7001 8.28995 31.6501 9.12995 31.7801 10.0299C31.8749 11.7001 31.7978 13.3756 31.5501 15.0299C31.4694 15.5744 31.2826 16.0976 31.0001 16.5699C30.9301 16.7799 30.5601 16.8599 30.3001 16.9999Z" fill="#161449"/>
<path d="M29.29 25.1201C29.3559 24.1347 29.4727 23.1534 29.64 22.1801C29.7792 21.7324 30.0782 21.3516 30.48 21.1101C30.63 21.0101 31.16 21.3201 31.38 21.5601C31.6225 21.8425 31.7756 22.1906 31.82 22.5601C32.0122 23.7335 32.1059 24.921 32.1 26.1101C32.04 27.1801 31.48 27.6201 30.38 27.6001C29.77 27.6001 29.53 27.1001 29.44 26.6001C29.35 26.1001 29.34 25.6601 29.29 25.1201Z" fill="#161449"/>
<path d="M15.3199 12.44C15.3199 14.19 15.4199 15.95 15.3199 17.69C15.1799 19.69 14.8599 21.64 14.5799 23.6C14.4999 24.17 14.2099 24.83 13.5799 24.69C13.3046 24.6085 13.0495 24.4702 12.8308 24.2842C12.612 24.0983 12.4346 23.8686 12.3099 23.61C11.7857 22.4807 11.5323 21.2446 11.5699 20C11.6899 18.12 11.4799 16.23 11.4999 14.34C11.5547 13.5493 11.6853 12.7658 11.8899 12C12.0699 11.19 12.2799 10.39 12.5299 9.60004C12.7199 9.04004 12.9599 8.47003 13.7199 8.45003C13.8513 8.43477 13.9845 8.44575 14.1117 8.48234C14.2389 8.51892 14.3575 8.58039 14.4608 8.66318C14.564 8.74596 14.6498 8.84842 14.7132 8.96461C14.7765 9.08079 14.8162 9.2084 14.8299 9.34004C14.9799 10.34 15.0999 11.42 15.2399 12.47L15.3199 12.44Z" fill="#161449"/>
<path d="M3.06994 44.0899C2.82325 43.9801 2.60952 43.8078 2.44994 43.5899C2.30609 43.3774 2.22944 43.1266 2.22994 42.8699C2.22055 42.7668 2.22055 42.663 2.22994 42.5599C2.24772 42.4708 2.27452 42.3837 2.30994 42.2999H3.30994C3.25996 42.4342 3.2362 42.5767 3.23994 42.7199C3.23005 42.9257 3.30194 43.127 3.43994 43.2799C3.51085 43.3499 3.59534 43.4047 3.68821 43.4408C3.78108 43.4769 3.88036 43.4936 3.97994 43.4899C4.10896 43.4923 4.2364 43.4613 4.34994 43.3999C4.4639 43.3469 4.55834 43.2595 4.61994 43.1499C4.69021 43.0323 4.72494 42.8968 4.71994 42.7599C4.72535 42.6318 4.69781 42.5044 4.63994 42.3899C4.59455 42.2774 4.51384 42.1826 4.40994 42.1199C4.30335 42.0498 4.17745 42.0148 4.04994 42.0199H3.80994V41.2999H3.99994C4.08116 41.3046 4.16246 41.2919 4.23835 41.2626C4.31424 41.2333 4.38298 41.188 4.43994 41.1299C4.53908 41.0093 4.58907 40.8558 4.57994 40.6999C4.58311 40.5955 4.55898 40.4921 4.50994 40.3999C4.45801 40.3079 4.38194 40.2319 4.28994 40.1799C4.20059 40.1316 4.10142 40.1043 3.99994 40.0999C3.88504 40.0991 3.77171 40.1266 3.66994 40.1799C3.57809 40.2333 3.5048 40.3136 3.45994 40.4099C3.40784 40.505 3.38034 40.6115 3.37994 40.7199C3.36632 40.8027 3.36632 40.8871 3.37994 40.9699H2.37994C2.33598 40.8012 2.32751 40.6253 2.35505 40.4531C2.38259 40.281 2.44555 40.1165 2.53994 39.9699C2.6952 39.7674 2.89779 39.606 3.12994 39.4999C3.40188 39.3727 3.69986 39.3111 3.99994 39.3199C4.28221 39.3181 4.56167 39.376 4.81994 39.4899C5.05333 39.5894 5.25423 39.7522 5.39994 39.9599C5.5405 40.1509 5.61429 40.3828 5.60994 40.6199C5.61785 40.8454 5.55868 41.0681 5.43994 41.2599C5.33149 41.4289 5.17469 41.5613 4.98994 41.6399V41.6399C5.13165 41.6932 5.26096 41.7749 5.36994 41.8799C5.48996 41.9963 5.5852 42.1358 5.64994 42.2899C5.72128 42.4643 5.75535 42.6516 5.74994 42.8399C5.75212 43.0983 5.67152 43.3506 5.51994 43.5599C5.35284 43.7785 5.1325 43.9507 4.87994 44.0599C4.59249 44.1828 4.28251 44.2441 3.96994 44.2399C3.66277 44.2531 3.35624 44.202 3.06994 44.0899V44.0899Z" fill="#9F33FF"/>
<path d="M10.27 43.1801C10.3598 42.7931 10.4068 42.3974 10.4099 42.0001V41.0001C10.4254 40.7574 10.3735 40.5151 10.26 40.3001C10.2178 40.2291 10.1577 40.1705 10.0858 40.1301C10.0138 40.0898 9.93247 40.0691 9.84995 40.0701C9.78027 40.0694 9.71157 40.0865 9.65033 40.1197C9.58909 40.153 9.53734 40.2013 9.49995 40.2601C9.39662 40.4204 9.34754 40.6097 9.35995 40.8001V42.8001H8.42995V40.8001C8.43848 40.6114 8.39341 40.4242 8.29995 40.2601C8.26008 40.199 8.205 40.1494 8.14012 40.1161C8.07524 40.0828 8.00281 40.0669 7.92995 40.0701C7.84771 40.0697 7.76694 40.0919 7.69642 40.1342C7.6259 40.1765 7.56833 40.2374 7.52995 40.3101C7.41774 40.522 7.36585 40.7607 7.37995 41.0001V42.0001C7.38443 42.394 7.43137 42.7862 7.51995 43.1701C7.58006 43.5206 7.69836 43.8586 7.86995 44.1701H6.86995C6.76577 43.9934 6.68191 43.8056 6.61995 43.6101C6.54491 43.3606 6.4848 43.1068 6.43995 42.8501C6.3924 42.5691 6.36566 42.285 6.35995 42.0001V41.0001C6.3525 40.6894 6.41755 40.3812 6.54995 40.1001C6.66428 39.8584 6.84453 39.6539 7.06995 39.5101C7.28745 39.3701 7.5413 39.297 7.79995 39.3001C8.03029 39.2935 8.25819 39.3488 8.45995 39.4601C8.64696 39.5674 8.79428 39.7322 8.87995 39.9301V39.9301C8.96421 39.7281 9.11628 39.5619 9.30995 39.4601C9.52234 39.3498 9.76139 39.3013 9.99995 39.3201C10.265 39.3161 10.5255 39.389 10.7499 39.5301C10.9747 39.6703 11.155 39.8715 11.27 40.1101C11.3958 40.3966 11.4572 40.7072 11.4499 41.0201V42.0201C11.4515 42.2983 11.4281 42.5761 11.38 42.8501C11.3431 43.1075 11.2863 43.3616 11.2099 43.6101C11.1493 43.8078 11.0618 43.9962 10.9499 44.1701H9.94995C10.0993 43.8554 10.2068 43.5226 10.27 43.1801Z" fill="#9F33FF"/>
<path d="M15.7299 43.3899C15.8047 43.1163 15.8417 42.8336 15.8399 42.5499C15.8524 42.3278 15.804 42.1065 15.6999 41.9099C15.6625 41.8452 15.6085 41.7915 15.5434 41.7546C15.4784 41.7177 15.4047 41.6988 15.3299 41.6999C15.2668 41.7003 15.2047 41.7159 15.1489 41.7455C15.0932 41.7751 15.0455 41.8178 15.0099 41.8699C14.9269 42.012 14.8886 42.1758 14.8999 42.3399V43.3399H13.9999V42.3399C14.0084 42.1716 13.9666 42.0045 13.8799 41.8599C13.8465 41.808 13.8007 41.7652 13.7465 41.7355C13.6924 41.7058 13.6316 41.6901 13.5699 41.6899C13.4964 41.6897 13.4241 41.7079 13.3594 41.7429C13.2948 41.7778 13.24 41.8284 13.1999 41.8899C13.0846 42.0825 13.0322 42.3062 13.0499 42.5299C13.0476 43.0966 13.1997 43.6532 13.4899 44.1399H12.4899C12.3299 43.8872 12.2117 43.6103 12.1399 43.3199C12.0449 42.9372 11.9979 42.5442 11.9999 42.1499C11.95 41.5374 12.1441 40.93 12.5399 40.4599C12.9369 40.0698 13.4487 39.8175 13.9999 39.7399L14.5599 39.6399C14.6407 39.6271 14.7186 39.6 14.7899 39.5599C14.8178 39.5477 14.8429 39.5299 14.8635 39.5075C14.8842 39.4851 14.9 39.4587 14.9099 39.4299H15.9099C15.8942 39.6665 15.795 39.8898 15.6299 40.0599C15.4022 40.2377 15.1277 40.3454 14.8399 40.3699L14.2799 40.4599C13.9341 40.5069 13.5972 40.6046 13.2799 40.7499C13.1534 40.809 13.0424 40.8966 12.9556 41.006C12.8688 41.1153 12.8087 41.2433 12.7799 41.3799V41.3799C12.8688 41.2352 13.0021 41.123 13.1599 41.0599C13.2932 40.9915 13.4401 40.9539 13.5899 40.9499C13.7647 40.949 13.9356 41.0013 14.0799 41.0999C14.2296 41.2061 14.3472 41.3514 14.4199 41.5199C14.5115 41.3421 14.6543 41.1958 14.8299 41.0999C15.0171 40.9988 15.2271 40.9472 15.4399 40.9499C15.6826 40.9515 15.9206 41.017 16.1299 41.1399C16.3444 41.2644 16.5181 41.4486 16.6299 41.6699C16.7582 41.9205 16.8234 42.1985 16.8199 42.4799C16.8224 42.7979 16.7786 43.1146 16.6899 43.4199C16.6102 43.6793 16.4922 43.9253 16.3399 44.1499H15.3399C15.4956 43.9106 15.6262 43.6559 15.7299 43.3899V43.3899Z" fill="#9F33FF"/>
<path d="M18.1601 44.0899C17.9142 43.9833 17.7029 43.8101 17.5501 43.5899C17.4062 43.3667 17.333 43.1054 17.3401 42.8399C17.3416 42.7093 17.3688 42.5802 17.4201 42.4599H18.4201C18.4128 42.5598 18.4128 42.6601 18.4201 42.7599C18.4178 42.8921 18.4487 43.0228 18.5101 43.1399C18.5664 43.2465 18.6535 43.3336 18.7601 43.3899C18.8697 43.4615 18.9993 43.4965 19.1301 43.4899C19.2292 43.4948 19.3281 43.4776 19.4198 43.4395C19.5115 43.4015 19.5935 43.3436 19.6601 43.2699C19.7952 43.1002 19.8629 42.8865 19.8501 42.6699V41.6699C19.8506 41.5293 19.8234 41.39 19.7701 41.2599C19.7148 41.1533 19.6319 41.0635 19.5301 40.9999C19.4247 40.9354 19.3036 40.9008 19.1801 40.8999C19.0683 40.8991 18.9582 40.9266 18.8601 40.9799C18.776 41.0353 18.7072 41.111 18.6601 41.1999C18.6126 41.2819 18.5884 41.3752 18.5901 41.4699C18.581 41.543 18.581 41.6169 18.5901 41.6899H17.5901C17.5736 41.5772 17.5736 41.4627 17.5901 41.3499C17.5879 41.1384 17.6359 40.9294 17.7301 40.7399C17.821 40.5532 17.9678 40.3994 18.1501 40.2999C18.3536 40.1932 18.5803 40.1383 18.8101 40.1399C19.0203 40.1394 19.2283 40.1838 19.4201 40.2699C19.5923 40.3413 19.7388 40.4634 19.8401 40.6199V40.6199V39.4299H20.8401V42.7499C20.8448 43.0416 20.7686 43.3289 20.6201 43.5799C20.4639 43.8035 20.2495 43.9799 20.0001 44.0899C19.7129 44.2136 19.4027 44.275 19.0901 44.2699C18.7705 44.2805 18.4526 44.219 18.1601 44.0899V44.0899Z" fill="#9F33FF"/>
<path d="M22.31 44.05C22.0452 43.9185 21.8235 43.714 21.6712 43.4606C21.5188 43.2072 21.4421 42.9156 21.45 42.62C21.4451 42.3276 21.5138 42.0387 21.65 41.78C21.7798 41.55 21.97 41.3598 22.2 41.23C22.4392 41.0784 22.7168 40.9986 23 41C23.2106 40.9966 23.4192 41.041 23.61 41.13C23.7853 41.2008 23.9351 41.3228 24.04 41.48V41.48V40.64C24.046 40.4871 24.0115 40.3353 23.94 40.2C23.9015 40.1555 23.8539 40.1199 23.8004 40.0954C23.747 40.071 23.6888 40.0583 23.63 40.0583C23.5712 40.0583 23.5131 40.071 23.4596 40.0954C23.4061 40.1199 23.3585 40.1555 23.32 40.2C23.2492 40.2872 23.2135 40.3978 23.22 40.51V40.66H22.32V40.52C22.32 40.26 22.18 40.14 21.89 40.14H21.55V39.34H22C22.1752 39.3388 22.3476 39.3836 22.5 39.47C22.5723 39.5084 22.6361 39.5609 22.6876 39.6245C22.7392 39.6881 22.7774 39.7614 22.8 39.84C22.8837 39.6683 23.0205 39.528 23.19 39.44C23.3762 39.3479 23.5824 39.3032 23.79 39.31C24.019 39.3053 24.2456 39.3568 24.45 39.46C24.6379 39.5529 24.7944 39.6989 24.9 39.88C25.0092 40.0934 25.0641 40.3304 25.06 40.57V42.57C25.0606 42.8643 24.9848 43.1538 24.84 43.41C24.6897 43.662 24.4713 43.8665 24.21 44C23.916 44.1447 23.5927 44.22 23.265 44.22C22.9373 44.22 22.614 44.1447 22.32 44L22.31 44.05ZM23.66 43.38C23.7798 43.3084 23.8768 43.2044 23.94 43.08C24.004 42.9457 24.0372 42.7988 24.0372 42.65C24.0372 42.5012 24.004 42.3543 23.94 42.22C23.8798 42.0936 23.782 41.9888 23.66 41.92C23.5362 41.8461 23.3942 41.8081 23.25 41.81C23.1121 41.808 22.9766 41.8462 22.86 41.92C22.7409 41.9894 22.6465 42.0943 22.59 42.22C22.5261 42.3543 22.4929 42.5012 22.4929 42.65C22.4929 42.7988 22.5261 42.9457 22.59 43.08C22.6465 43.2057 22.7409 43.3106 22.86 43.38C22.9779 43.4508 23.1125 43.4888 23.25 43.49C23.394 43.4904 23.5356 43.4525 23.66 43.38V43.38Z" fill="#9F33FF"/>
<path d="M29.6701 43.1801C29.76 42.7931 29.8069 42.3974 29.8101 42.0001V41.0001C29.8256 40.7574 29.7736 40.5151 29.6601 40.3001C29.6196 40.2277 29.5599 40.1679 29.4875 40.1273C29.4152 40.0867 29.333 40.0669 29.2501 40.0701C29.1804 40.0694 29.1117 40.0865 29.0505 40.1197C28.9893 40.153 28.9375 40.2013 28.9001 40.2601C28.7968 40.4204 28.7477 40.6097 28.7601 40.8001V42.8001H27.8301V40.8001C27.8448 40.6109 27.7993 40.4219 27.7001 40.2601C27.6602 40.199 27.6052 40.1494 27.5403 40.1161C27.4754 40.0828 27.403 40.0669 27.3301 40.0701C27.2481 40.0708 27.1678 40.0934 27.0974 40.1356C27.0271 40.1778 26.9693 40.2381 26.9301 40.3101C26.8218 40.5232 26.7735 40.7617 26.7901 41.0001V42.0001C26.791 42.3936 26.8346 42.7859 26.9201 43.1701C26.9851 43.5193 27.1031 43.8566 27.2701 44.1701H26.2701C26.1659 43.9934 26.0821 43.8056 26.0201 43.6101C25.9438 43.3616 25.8869 43.1075 25.8501 42.8501C25.802 42.5761 25.7786 42.2983 25.7801 42.0201V41.0001C25.7727 40.6894 25.8377 40.3812 25.9701 40.1001C26.0879 39.8607 26.2674 39.657 26.4901 39.5101C26.7076 39.3701 26.9615 39.297 27.2201 39.3001C27.4505 39.2935 27.6784 39.3488 27.8801 39.4601C28.0671 39.5674 28.2144 39.7322 28.3001 39.9301C28.3804 39.7289 28.5291 39.5624 28.7201 39.4601C28.9188 39.35 29.1431 39.2948 29.3701 39.3001C29.6352 39.2961 29.8957 39.369 30.1201 39.5101C30.3448 39.6503 30.5251 39.8515 30.6401 40.0901C30.7659 40.3766 30.8274 40.6872 30.8201 41.0001V42.0001C30.82 42.2778 30.8 42.5552 30.7601 42.8301C30.7153 43.0868 30.6552 43.3406 30.5801 43.5901C30.5182 43.7856 30.4343 43.9734 30.3301 44.1501H29.3301C29.4936 43.8466 29.6083 43.5192 29.6701 43.1801V43.1801Z" fill="#9F33FF"/>
<path d="M32.2601 44.0899C32.007 43.9913 31.7857 43.8253 31.6201 43.6099C31.4602 43.4082 31.3753 43.1573 31.3801 42.8999C31.379 42.7356 31.4095 42.5727 31.4701 42.4199H32.4701C32.4664 42.4832 32.4664 42.5467 32.4701 42.6099C32.464 42.6798 32.464 42.7501 32.4701 42.8199C32.469 42.9407 32.5038 43.059 32.5701 43.1599C32.6337 43.2618 32.7235 43.3447 32.8301 43.3999C32.9436 43.4613 33.0711 43.4923 33.2001 43.4899C33.3273 43.4926 33.4524 43.4578 33.5601 43.3899C33.6639 43.3344 33.7504 43.2514 33.8101 43.1499C33.8702 43.0432 33.9012 42.9225 33.9001 42.7999C33.9007 42.669 33.8735 42.5395 33.8201 42.4199C33.7691 42.3109 33.6896 42.2176 33.5901 42.1499C33.4804 42.0784 33.3509 42.0433 33.2201 42.0499H32.9301V41.2799H33.3401C33.456 41.2926 33.5728 41.2643 33.6701 41.1999C33.7085 41.1755 33.7397 41.1413 33.7608 41.101C33.7819 41.0606 33.792 41.0154 33.7901 40.9699C33.7879 40.9007 33.7634 40.834 33.7201 40.7799C33.6747 40.7236 33.6164 40.679 33.5501 40.6499L33.2501 40.5199C33.001 40.4259 32.7732 40.2831 32.5801 40.0999C32.4134 39.9165 32.3207 39.6778 32.3201 39.4299H33.3201C33.3376 39.542 33.3987 39.6427 33.4901 39.7099C33.5732 39.7741 33.6638 39.8279 33.7601 39.8699L33.9401 39.9499C34.0818 40.0096 34.2188 40.0798 34.3501 40.1599C34.4594 40.2325 34.5516 40.328 34.6201 40.4399C34.6963 40.5774 34.7343 40.7328 34.7301 40.8899C34.7375 41.0642 34.6805 41.235 34.5701 41.3699C34.4565 41.5093 34.3029 41.6105 34.1301 41.6599V41.6599C34.2662 41.7045 34.392 41.7759 34.5001 41.8699C34.6209 41.984 34.7192 42.1197 34.7901 42.2699C34.864 42.4473 34.9014 42.6378 34.9001 42.8299C34.9024 43.0945 34.822 43.3532 34.6701 43.5699C34.5102 43.7851 34.2963 43.9541 34.0501 44.0599C33.7729 44.1818 33.4729 44.2432 33.1701 44.2399C32.8595 44.2554 32.5492 44.2043 32.2601 44.0899Z" fill="#9F33FF"/>
<path d="M37.8401 43.21C37.9081 42.8305 37.9416 42.4456 37.9401 42.06V41.13C37.9549 40.8678 37.8923 40.607 37.7601 40.38C37.7003 40.2934 37.6204 40.2225 37.5272 40.1736C37.434 40.1247 37.3303 40.0992 37.2251 40.0992C37.1198 40.0992 37.0161 40.1247 36.923 40.1736C36.8298 40.2225 36.7498 40.2934 36.6901 40.38C36.5579 40.607 36.4953 40.8678 36.5101 41.13V42.06C36.509 42.4455 36.5425 42.8304 36.6101 43.21C36.6602 43.5312 36.744 43.8463 36.8601 44.15H35.8601C35.7211 43.8513 35.6235 43.5351 35.5701 43.21C35.5017 42.8171 35.4682 42.4188 35.4701 42.02V41.1C35.4509 40.7516 35.5307 40.405 35.7001 40.1C35.8429 39.8406 36.0584 39.6286 36.3201 39.49C36.5979 39.351 36.9044 39.2786 37.2151 39.2786C37.5258 39.2786 37.8322 39.351 38.1101 39.49C38.3728 39.6307 38.591 39.842 38.7401 40.1C38.9024 40.4077 38.9817 40.7523 38.9701 41.1V42C38.9687 42.3991 38.9319 42.7974 38.8601 43.19C38.8066 43.5151 38.7091 43.8313 38.5701 44.13H37.5701C37.7022 43.8373 37.7931 43.5277 37.8401 43.21V43.21Z" fill="#9F33FF"/>
</g>
<defs>
<clipPath id="clip0_17_24">
<rect width="38.04" height="43.27" fill="white" transform="translate(2 1)"/>
</clipPath>
</defs>
</svg>
