<svg width="20" height="20" viewBox="0 0 20 20" fill="none" xmlns="http://www.w3.org/2000/svg">
<path d="M2.10999 8.63832L6.54999 8.38832L9.79999 3.70831C10.45 4.39831 11.02 7.26833 12.29 8.26833C14.36 9.89833 15.91 8.35832 16.05 9.32832C16.15 10.0283 15.74 11.0683 13.47 12.5683C13.1616 13.3856 13.0156 14.2552 13.04 15.1283C13.14 16.4283 13.35 17.7383 13.35 17.7383C13.35 17.7383 9.34999 15.8683 9.26999 15.8583C8.06999 15.7783 6.47998 17.5083 5.17999 17.4283C5.30999 15.7783 5.44999 14.1183 5.57999 12.4283" fill="white"/>
<path d="M14.28 18.6883L10.67 17.0483C10.31 16.8883 9.93 16.7483 9.56 16.6083C9.48617 16.5788 9.40383 16.5788 9.33 16.6083C8.35667 17.0083 7.38667 17.4183 6.42 17.8383L4.64 18.6183C4.59453 18.4713 4.56109 18.3208 4.54 18.1683C4.6 16.3983 4.68 14.6283 4.73 12.8683C4.73952 12.7047 4.69373 12.5427 4.6 12.4083C3.91 11.5283 3.23 10.6483 2.51 9.80831C2.17096 9.4566 1.81381 9.12281 1.44 8.80831C1.28396 8.63268 1.1371 8.4491 1 8.25831C1.71725 8.05412 2.44954 7.90699 3.19 7.8183C3.95419 7.69886 4.70689 7.51488 5.44 7.26832L6.44 7.08831L6.54 7.19831C7.19 5.92831 7.83 4.65831 8.54 3.39831C8.75 2.98831 8.99 2.58831 9.23 2.19831C9.47 1.80831 9.7 2.07831 9.85 2.28831C10.15 2.73831 10.42 3.21831 10.7 3.68831C10.98 4.15831 11.34 4.77831 11.7 5.32831C12.0076 5.83515 12.2719 6.36704 12.49 6.91831C12.78 7.71831 13.42 7.83831 14.12 7.97831C14.82 8.11831 15.25 8.30831 15.82 8.44831C16.39 8.58831 16.82 8.64831 17.39 8.74831L18.03 8.86831C17.19 9.70831 16.42 10.4583 15.66 11.2283C15.0267 11.8275 14.4384 12.4726 13.9 13.1583C13.71 13.4283 13.9 13.9583 13.9 14.3583C14.07 15.7683 14.26 17.1683 14.45 18.5683L14.28 18.6883ZM6.28 16.0383L7.8 15.4083C8.235 15.1523 8.72674 15.0082 9.23114 14.989C9.73553 14.9698 10.2368 15.0761 10.69 15.2983C11.3415 15.613 12.0091 15.8934 12.69 16.1383C12.5 15.1383 12.32 14.2283 12.17 13.3383C12.17 13.1383 12.11 12.8583 12.17 12.7383C12.8 12.0283 13.47 11.3583 14.12 10.6783L15.02 9.74831L11.79 9.05831C11.1423 7.52375 10.3451 6.05667 9.41 4.67831L7.6 7.97831C7.53682 8.1027 7.43975 8.20671 7.32 8.27831C7 8.36831 6.67 8.38831 6.32 8.46831C5.52 8.68831 4.73 8.92831 3.81 9.19831C4.57 10.0483 5.26 10.7983 5.91 11.5783C6.0873 11.8054 6.19187 12.0808 6.21 12.3683C6.26 13.5683 6.25 14.7783 6.25 16.0383H6.28Z" fill="#0E2043"/>
</svg>
