<svg width="17" height="16" viewBox="0 0 17 16" fill="none" xmlns="http://www.w3.org/2000/svg">
<path d="M14.6267 0H2.37331C1.06257 0 0 1.07903 0 2.41009V13.5899C0 14.921 1.06257 16 2.37331 16H14.6267C15.9374 16 17 14.921 17 13.5899V2.41009C17 1.07903 15.9374 0 14.6267 0Z" fill="#2083FD"/>
<path d="M6.02222 3.32756C6.31222 2.97756 6.55222 2.45756 6.94222 2.26756C7.66222 1.91756 8.19222 2.39756 8.59222 3.06756C9.89222 1.84756 11.4822 2.24756 12.9522 2.28756C13.5049 2.39914 13.9924 2.72143 14.3116 3.18619C14.6308 3.65095 14.7565 4.2217 14.6622 4.77756C14.3022 7.08756 13.9122 9.39756 13.4022 11.6776C13.3539 12.0193 13.2085 12.3399 12.9831 12.6012C12.7577 12.8626 12.462 13.0537 12.1311 13.1517C11.8002 13.2497 11.4481 13.2505 11.1168 13.154C10.7854 13.0575 10.4888 12.8679 10.2622 12.6076C10.0997 12.3856 9.98478 12.1325 9.92456 11.8641C9.86434 11.5956 9.86014 11.3177 9.91222 11.0476C10.1522 9.55757 10.5322 8.04756 10.8522 6.60756C10.9222 6.29756 10.9522 5.97756 10.9922 5.73756L8.99222 4.94756C9.09222 6.23756 9.21222 7.58756 9.28222 8.94756C9.28222 9.94756 9.28222 11.0176 9.28222 12.0576C9.28222 13.0976 8.74222 13.4876 7.83222 13.2076C7.26269 13.121 6.72414 12.8924 6.26624 12.5429C5.80834 12.1934 5.44585 11.7341 5.21222 11.2076C5.15391 11.4098 5.11704 11.6176 5.10222 11.8276C5.10222 12.8276 4.63222 13.0876 3.75222 13.0976C2.87222 13.1076 2.39222 12.7576 2.32222 11.9276C2.19222 10.2376 2.09222 8.53756 2.02222 6.83756C1.97222 5.65756 2.02222 4.47757 2.02222 3.29757C2.02222 2.29757 2.35222 2.00756 3.35222 2.01756C3.8759 1.95821 4.40562 2.05003 4.87876 2.28218C5.35191 2.51432 5.74869 2.87708 6.02222 3.32756V3.32756ZM8.11222 11.7676C8.11222 10.4776 8.11222 9.27756 8.11222 8.07756C8.11222 6.65756 8.01222 5.22756 7.89222 3.81756C7.89222 3.52756 7.57222 3.26756 7.39222 2.98756C7.25222 3.23756 7.00222 3.48756 6.98222 3.74756C6.88222 4.88756 6.86222 5.88756 6.79222 7.01756C6.73585 7.23566 6.64828 7.44449 6.53222 7.63756C6.32222 7.50756 6.00222 7.41756 5.92222 7.22756C5.73155 6.75003 5.57776 6.2586 5.46222 5.75756C5.31442 4.93275 5.07285 4.12753 4.74222 3.35756C4.53222 2.99756 3.74222 2.89756 3.27222 2.77756C3.13222 2.77756 2.77222 3.05756 2.75222 3.23756C2.66921 4.05144 2.63581 4.86963 2.65222 5.68756C2.65222 7.56756 2.79222 9.43756 2.80222 11.3076C2.80222 11.8976 2.98222 12.1476 3.53222 12.1976C4.08222 12.2476 4.18222 11.8276 4.17222 11.4276C4.17222 10.1876 4.05222 8.94756 4.00222 7.70756C4.00222 7.28756 4.00222 6.86756 4.00222 6.43756L4.30222 6.36757C4.49156 6.60833 4.65261 6.87004 4.78222 7.14756C5.20222 8.31756 5.58222 9.49756 5.98222 10.6776C6.38222 11.8576 6.79222 12.1276 8.11222 11.7676ZM11.4422 2.88756C11.0522 2.88756 10.6622 2.93756 10.2722 2.94756C9.88222 2.95756 9.27222 3.06756 9.40222 3.69756C9.53222 4.32756 9.69222 4.69756 10.4022 4.58756C11.7122 4.43756 11.8122 4.58756 11.6622 5.88756C11.6112 6.18839 11.5411 6.48567 11.4522 6.77756C11.1422 8.24756 10.8022 9.77756 10.5222 11.2076C10.4622 11.5676 10.3122 12.1276 10.9722 12.2076C11.6322 12.2876 12.1422 12.2076 12.2922 11.4276C12.6922 9.42756 12.9822 7.42756 13.4922 5.42756C14.0022 3.42756 13.9222 2.67756 11.4422 2.88756Z" fill="#0E2043"/>
</svg>
