<svg width="290" height="298" viewBox="0 0 290 298" fill="none" xmlns="http://www.w3.org/2000/svg">
<g clip-path="url(#clip0_7_38)">
<path d="M147.3 219.18L113.36 210.18L114.16 169.18C115.47 168.95 120.08 168.38 122.16 169.18C130.58 172.39 135.31 178.11 145.7 181.18C146.24 193.867 146.773 206.533 147.3 219.18Z" fill="#FF5D31"/>
<path d="M107.19 156.45L92.3199 147.72L93.1099 108.84L107.19 114.49V156.45Z" fill="#2083FD"/>
<path d="M242.6 210.5L210.95 219.18V175.65L244.36 169.22L242.6 210.5Z" fill="#9F33FF"/>
<path d="M114.16 210.5L86.67 199.98L85.71 158.28L113.41 166.65L114.16 210.5Z" fill="#2083FD"/>
<path d="M228.58 169.22L184.65 178.68V129.02L228.58 125.41V169.22Z" fill="#2083FD"/>
<path d="M210.96 220.12L178.86 229.57V179.92L210.96 176.31V220.12Z" fill="#2083FD"/>
<path d="M210.95 263L178.86 272.45V222.79L210.95 219.18V263Z" fill="#2083FD"/>
<path d="M178.86 229.57L147.3 221.55L145.46 179.73L179.39 178.68L178.86 229.57Z" fill="#FFCD00"/>
<path d="M244.36 209.65L269.42 202.94L271.42 161.86C270.11 161.63 265.42 164.07 263.27 164.86C254.85 168.07 253.47 166.37 243.08 169.46C242.59 182.11 244.89 197 244.36 209.65Z" fill="#FF5D31"/>
<path d="M270.59 202.13C271.199 203.12 271.714 204.165 272.13 205.25C272.308 206.169 272.345 207.11 272.24 208.04C272.24 209.45 272.19 210.87 272.09 212.28C272.03 213.22 271.8 214.16 271.76 215.11C271.72 216.06 271.84 217.11 271.82 218.05C271.82 220.69 271.68 223.32 271.67 225.95C271.67 227.82 271.93 229.7 271.77 231.54C271.632 233.607 271.598 235.68 271.67 237.75C271.766 238.631 271.574 239.519 271.121 240.28C270.668 241.041 269.98 241.634 269.16 241.97C267.26 242.8 265.39 243.71 263.46 244.47C261.2 245.37 258.9 246.21 256.59 246.97C254.28 247.73 251.76 248.36 249.38 249.12C247.92 249.59 246.52 250.22 245.09 250.74C244.801 250.815 244.499 250.815 244.21 250.74C242.76 250.43 241.66 251.35 240.43 251.8C239.79 252.03 239.19 252.39 238.55 252.56C236.76 253.04 235.29 254.18 233.55 254.83C232.151 255.264 230.728 255.621 229.29 255.9C229.018 255.98 228.754 256.084 228.5 256.21L226.76 256.88L225.44 257.41C222.94 258.48 220.44 259.5 217.96 260.64C215.96 261.58 213.96 262.71 211.96 263.64C210.445 264.385 208.893 265.053 207.31 265.64C205.05 266.43 202.76 267.14 200.46 267.81C198.66 268.34 196.82 268.75 195 269.21C194.047 269.423 193.148 269.832 192.36 270.41C191.32 270.994 190.212 271.448 189.06 271.76C188.12 272.14 187.22 272.6 186.27 272.92C184.63 273.47 182.97 273.92 181.27 274.44C180.57 274.66 179.89 274.98 179.18 275.13C178.207 275.42 177.195 275.559 176.18 275.54C173.5 275.29 171.06 274.12 168.53 273.3C165.53 272.3 162.53 271.03 159.53 269.91C158.02 269.35 156.53 268.91 154.95 268.34C154.33 268.12 153.7 267.92 153.09 267.65C151.3 266.86 149.54 266.01 147.75 265.22C145.34 264.22 142.91 263.22 140.52 262.09C138.943 261.406 137.413 260.617 135.94 259.73C133.993 258.553 131.898 257.642 129.71 257.02C128.4 256.6 127.16 255.94 125.86 255.45C124.28 254.86 122.67 254.34 121.07 253.77C120.46 253.56 119.86 253.28 119.24 253.08C117.56 252.57 115.86 252.08 114.18 251.58C113.09 251.23 112.03 250.77 110.96 250.38C110.35 250.16 109.72 249.98 109.1 249.77C107.45 249.21 105.79 248.67 104.16 248.06C101.53 247.06 98.93 246.06 96.31 245.11C96.12 245.04 95.89 245.06 95.7 245C94.24 244.48 92.77 244 91.32 243.42C90.41 243.07 89.53 242.64 88.66 242.21C88.2336 241.985 87.8314 241.717 87.46 241.41C87.1833 241.129 87.0216 240.755 87.0068 240.361C86.992 239.966 87.1251 239.581 87.38 239.28C87.793 238.819 88.0148 238.219 88 237.6C87.5703 235.685 87.3988 233.721 87.49 231.76C87.54 230.24 87.43 228.76 87.42 227.19C87.4118 226.636 87.4385 226.081 87.5 225.53C87.5589 224.037 87.3903 222.543 87 221.1C86.9164 220.223 86.893 219.341 86.93 218.46C86.9778 217.453 86.8938 216.445 86.68 215.46C86.3539 213.952 86.1996 212.413 86.22 210.87C86.13 209.55 86.07 208.23 86.01 206.87C85.89 204.29 85.8 201.71 85.65 199.14C85.55 197.59 85.33 196.05 85.22 194.5C85.04 192.07 84.91 189.64 84.76 187.21C84.68 186.01 84.63 184.81 84.52 183.62C84.33 181.54 84.09 179.47 83.9 177.4C83.65 174.7 83.34 172 83.2 169.3C83.07 167.109 83.07 164.911 83.2 162.72C83.3497 161.188 83.6341 159.672 84.05 158.19C84.2068 157.705 84.4748 157.264 84.8324 156.901C85.1901 156.538 85.6276 156.264 86.11 156.1C87.244 155.509 88.5315 155.279 89.8 155.44C91.3 155.72 92.64 155.13 94.01 154.7C94.3312 154.574 94.6673 154.49 95.01 154.45C96.93 154.33 98.85 154.23 100.88 154.12C100.48 152.76 99.37 152.71 98.62 152.2C97.87 151.69 97.21 151.38 96.52 150.97C95.6 150.41 94.66 149.89 93.78 149.28C93.08 148.81 92.2 148.35 91.88 147.66C91.5358 146.699 91.3928 145.678 91.46 144.66C91.46 143.38 91.56 142.09 91.61 140.81C91.68 138.61 91.72 136.42 91.79 134.22C91.79 132.89 91.89 131.55 91.95 130.22C91.95 129.55 92.11 128.87 92.1 128.22C92.1 126.69 91.94 125.16 91.96 123.63C91.96 121.81 92.19 120 92.24 118.18C92.24 117.18 92.1 116.18 92.1 115.24C92.1 113.36 92.15 111.48 92.1 109.61C92.1 108.61 92.1 107.53 91.99 106.5C91.9756 106.302 92.0034 106.103 92.0718 105.916C92.1401 105.73 92.2474 105.56 92.3864 105.418C92.5255 105.276 92.6931 105.166 92.8782 105.094C93.0633 105.021 93.2617 104.99 93.46 105C93.734 104.977 94.0098 105.011 94.27 105.1C95.85 105.91 97.53 105.68 99.18 105.54C99.75 105.54 100.3 105.2 100.87 105.13C102.06 104.98 103.27 104.92 104.47 104.8L109.1 104.3C109.28 104.3 109.45 104.23 109.64 104.22C111.25 104.15 112.87 104.14 114.49 104.01C115.76 103.9 117.02 103.64 118.29 103.46C118.65 103.46 119.01 103.46 119.37 103.46C120.6 103.32 121.83 103.16 123.05 103C123.14 103 123.22 102.9 123.3 102.89C125.3 102.79 127.22 102.72 129.18 102.59C129.963 102.514 130.741 102.394 131.51 102.23C132.585 101.962 133.698 101.885 134.8 102C135.937 102.083 137.079 102.056 138.21 101.92C140.38 101.92 142.56 101.92 144.72 101.8C146.36 101.7 147.98 101.35 149.61 101.13C150.02 101.07 150.45 101.13 150.86 101.02C151.99 100.84 153.12 100.63 154.25 100.43C155.75 100.16 157.25 99.8101 158.74 99.6501C160.07 99.5001 161.41 99.5801 162.74 99.5101C164.28 99.4301 165.82 99.34 167.35 99.17C168.88 99 170.58 98.6801 172.19 98.4701C173.8 98.2601 175.64 98.16 177.33 97.85C179.197 97.4855 181.102 97.3645 183 97.49C183.179 97.5203 183.361 97.5203 183.54 97.49C186.2 96.61 188.94 96.74 191.68 96.71C193.454 96.6648 195.224 96.5146 196.98 96.2601C199.2 95.9901 201.39 95.5201 203.61 95.3301C205.67 95.1601 207.76 95.23 209.84 95.25C211.92 95.27 213.77 96.06 215.76 96.31C217.75 96.56 219.47 97.6301 221.28 98.4001C222.63 98.9701 224.04 99.4 225.39 99.99C226.759 100.584 228.094 101.251 229.39 101.99C231.255 102.9 233.192 103.655 235.18 104.25C236.34 104.69 237.57 104.99 238.68 105.53C240.52 106.43 242.29 107.53 244.12 108.43C244.95 108.86 245.85 109.18 246.68 109.61C247.04 109.8 247.3 110.17 247.68 110.39C247.932 110.583 248.234 110.697 248.55 110.72C250.034 110.729 251.496 111.071 252.83 111.72C253.65 112.08 254.54 112.3 255.38 112.61C256.99 113.21 258.59 113.8 260.18 114.44C261.77 115.08 263.08 115.67 264.54 116.27C265.25 116.56 265.98 116.8 266.71 117.06C268.1 117.55 269.62 117.76 270.62 119.06C270.98 119.52 271.48 119.89 271.79 120.38C271.955 120.729 272.027 121.115 272 121.5C272 122.34 271.82 123.18 271.71 124.02C271.606 124.496 271.526 124.976 271.47 125.46C271.37 127.75 271.33 130.05 271.23 132.34C271.17 133.63 270.99 134.92 270.94 136.21C270.94 136.92 271.17 137.63 271.14 138.34C271.08 139.89 270.82 141.44 270.84 142.98C270.84 146.08 271.04 149.17 271.14 152.26C271.13 152.804 271.15 153.348 271.2 153.89C271.276 154.357 271.407 154.814 271.59 155.25C272.31 157.04 273.34 158.72 273.25 160.76C273.16 162.6 273.2 164.43 273.15 166.26C273.08 168.66 273.03 171.07 272.87 173.46C272.75 175.19 272.47 176.91 272.28 178.63C272.28 178.96 272.28 179.29 272.28 179.63C272.28 181.36 272.19 183.09 272.14 184.82C272.14 184.97 272.14 185.12 272.14 185.27C272.14 186.88 272.09 188.49 272.14 190.1C272.14 191.47 272.32 192.84 272.38 194.21C272.54 197 272.27 199.77 270.59 202.13ZM142.61 135C142.493 136.059 142.436 137.124 142.44 138.19C142.54 139.94 142.8 141.67 142.95 143.41C143.04 144.41 143.04 145.47 143.07 146.5C143.13 148.63 143.17 150.76 143.22 152.89C143.22 154 143.22 155.11 143.28 156.22C143.28 157.55 143.37 158.88 143.41 160.22C143.47 162.05 143.52 163.89 143.59 165.72C143.7 168.6 143.8 171.47 143.97 174.35C144.03 175.35 143.46 176.66 144.97 177.17C144.999 177.181 145.024 177.199 145.045 177.221C145.066 177.244 145.081 177.271 145.09 177.3C145.33 178.06 146.01 178.1 146.58 178.06C148.05 177.96 149.52 177.76 150.98 177.58C151.61 177.5 152.22 177.32 152.85 177.25C155.14 177.01 157.44 176.82 159.73 176.56C160.91 176.42 162.08 176.12 163.26 175.94C164.44 175.76 165.59 175.62 166.76 175.49C167.93 175.36 169.39 175.25 170.76 175.11C171.54 175.03 172.32 174.94 173.1 174.83C174.27 174.65 175.43 174.41 176.61 174.27C178.15 174.1 179.71 174.05 181.25 173.84C181.468 173.79 181.671 173.692 181.844 173.551C182.017 173.411 182.156 173.232 182.25 173.03C182.574 171.782 182.808 170.512 182.95 169.23C182.95 168.578 182.91 167.927 182.83 167.28C182.83 166.18 182.91 165.08 182.9 163.99C182.9 162.43 182.78 160.88 182.78 159.33C182.78 156.81 182.85 154.33 182.89 151.76C182.89 149.91 182.89 148.07 182.99 146.22C183.04 144.65 183.15 143.09 183.26 141.53C183.26 141.15 183.5 140.78 183.51 140.4C183.51 138.88 183.59 137.34 183.51 135.82C183.476 135.239 183.235 134.689 182.83 134.27C181.98 133.53 180.83 133.08 180.07 132.27C179.626 131.82 179.073 131.492 178.466 131.317C177.858 131.141 177.216 131.125 176.6 131.27C174.97 131.49 173.37 131.88 171.74 132.12C170.8 132.25 169.84 132.24 168.89 132.28C168.45 132.28 168.01 132.28 167.57 132.28C167.13 132.28 166.88 132.52 166.57 132.53C164.12 132.65 161.67 132.72 159.22 132.84C158.216 132.888 157.214 132.989 156.22 133.14C154.94 133.33 153.69 133.65 152.41 133.8C150.25 134.05 148.08 134.17 145.92 134.4C144.88 134.5 143.9 134.74 142.61 135ZM187.1 173L190.5 172.7C190.975 172.692 191.449 172.659 191.92 172.6C193.47 172.29 195 171.9 196.56 171.6C197.114 171.559 197.671 171.583 198.22 171.67C199.376 171.837 200.542 171.921 201.71 171.92C203.95 171.75 206.18 171.35 208.42 171.16C209.93 171.03 211.42 171.09 212.97 171.05C213.206 171.01 213.437 170.946 213.66 170.86C214.022 170.734 214.393 170.637 214.77 170.57C216.17 170.41 217.57 170.29 218.98 170.15C219.45 170.1 219.98 169.98 220.4 169.93C221.67 169.8 222.93 169.71 224.19 169.56C224.432 169.499 224.643 169.349 224.78 169.14C225.073 168.685 225.315 168.199 225.5 167.69C225.935 166.575 226.269 165.424 226.5 164.25C226.57 163.141 226.57 162.029 226.5 160.92C226.5 159.62 226.61 158.31 226.58 157.01C226.58 155.29 226.39 153.58 226.38 151.87C226.38 150.5 226.54 149.13 226.55 147.75C226.55 146.68 226.39 145.6 226.43 144.52C226.43 143 226.69 141.52 226.79 139.94C226.92 137.94 227.17 135.82 227.1 133.77C226.976 131.857 226.712 129.955 226.31 128.08C226.177 127.543 225.844 127.077 225.38 126.776C224.916 126.476 224.355 126.363 223.81 126.46C222.14 126.66 220.46 126.78 218.81 126.97C217.3 127.14 215.81 127.36 214.28 127.58C213.12 127.75 211.97 127.99 210.81 128.12C209.91 128.22 209 128.12 208.11 128.26C205.93 128.51 203.76 128.97 201.58 129.05C199.991 129.104 198.41 129.284 196.85 129.59C195.758 129.774 194.656 129.897 193.55 129.96C193.17 129.96 192.72 129.84 192.41 129.96C191.01 130.64 189.64 131.38 188.28 132.15C187.868 132.384 187.527 132.725 187.293 133.137C187.059 133.549 186.94 134.016 186.95 134.49C186.87 136.81 186.81 139.143 186.77 141.49C186.72 144.29 186.65 147.1 186.69 149.9C186.74 153.4 186.91 156.9 186.99 160.4C187.05 163.09 187.07 165.79 187.09 168.48C187.11 170 187.1 171.56 187.1 173ZM239 124.33L238.94 124.13C238.25 124.4 237.58 124.69 236.89 124.95C236.211 125.267 235.5 125.512 234.77 125.68C232.03 126.06 230.77 127.18 230.69 130.1C230.69 131.02 230.89 131.95 230.89 132.88C230.89 135.08 230.843 137.28 230.75 139.48C230.68 141.67 230.56 143.87 230.46 146.06C230.37 147.98 230.21 149.91 230.23 151.83C230.23 154.01 230.48 156.18 230.57 158.36C230.67 160.76 230.71 163.17 230.78 165.58C230.781 165.761 230.841 165.936 230.95 166.08C231.697 166.89 232.514 167.633 233.39 168.3C233.73 168.53 234.45 168.21 234.99 168.14H235.18C238.29 167.67 241.41 167.21 244.52 166.72C247.03 166.32 249.52 165.85 252.03 165.45C253.09 165.29 254.17 165.3 255.23 165.14C256.89 164.88 258.54 164.49 260.23 164.24C262.539 164.043 264.745 163.193 266.59 161.79C266.949 161.526 267.21 161.149 267.33 160.72C267.483 159.275 267.536 157.822 267.49 156.37C267.38 153.77 267.11 151.18 266.97 148.58C266.91 147.51 267.05 146.42 267.08 145.34C267.16 142.43 267.2 139.51 267.33 136.6C267.41 134.75 267.64 132.91 267.76 131.06C267.89 129.06 267.94 127.06 268.1 125.06C268.059 124.333 267.74 123.65 267.21 123.151C266.68 122.652 265.978 122.376 265.25 122.38C264.05 122.56 262.83 122.65 261.62 122.76C261.08 122.76 260.55 122.76 260.01 122.76C259.585 122.711 259.158 122.691 258.73 122.7C256.34 123.06 253.97 123.63 251.57 123.81C247.38 124.09 243.19 124.16 239 124.33ZM184 227.6C184.84 227.4 185.69 227.23 186.52 227C188.26 226.53 189.99 226 191.73 225.55C191.73 225.55 191.82 225.47 191.88 225.45C193.02 224.93 194.13 224.33 195.31 223.91C196.84 223.37 198.43 222.97 199.99 222.52C200.383 222.446 200.77 222.346 201.15 222.22C201.61 222 202 221.64 202.46 221.43C204.04 220.72 205.63 220.05 207.22 219.38C207.775 219.075 208.376 218.862 209 218.75C210 218.69 210 218.09 210 217.39C210 216.69 209.8 215.77 209.82 214.96C209.82 213.68 210.12 212.4 210.12 211.12C210.12 208.68 210 206.24 209.93 203.81C209.87 202.03 209.76 200.26 209.75 198.48C209.75 196.193 209.787 193.897 209.86 191.59C209.91 190.46 210.11 189.33 210.23 188.2C210.3 187.55 210.33 186.91 210.39 186.26C210.39 185.91 210.52 185.56 210.52 185.2C210.52 184 210.52 182.8 210.52 181.59C210.506 180.75 210.198 179.941 209.651 179.303C209.103 178.666 208.349 178.24 207.52 178.1C206.501 178.161 205.493 178.349 204.52 178.66C203.32 178.97 202.15 179.37 200.97 179.72C200.49 179.85 199.97 179.9 199.5 180.04C197.7 180.57 195.91 181.14 194.1 181.64C192.85 181.99 191.57 182.23 190.31 182.56C188.85 182.94 187.41 183.35 185.96 183.77C184.51 184.19 182.86 184.5 181.82 186.06C180.927 187.334 180.433 188.845 180.4 190.4C180.4 192.2 180.4 194 180.4 195.8C180.4 197.6 180.48 199.58 180.51 201.47C180.51 202.4 180.51 203.33 180.51 204.26C180.51 205.45 180.4 206.64 180.35 207.83C180.363 207.919 180.386 208.007 180.42 208.09C180.546 208.611 180.642 209.138 180.71 209.67C180.71 210.15 180.63 210.67 180.63 211.12C180.63 212.12 180.69 213.12 180.63 214.18C180.63 215.05 180.37 215.93 180.37 216.81C180.37 219.22 180.51 221.63 180.54 224.05C180.491 224.37 180.538 224.698 180.675 224.992C180.812 225.285 181.033 225.532 181.31 225.7C181.551 225.831 181.741 226.039 181.85 226.29C181.895 226.523 181.988 226.744 182.123 226.939C182.258 227.133 182.432 227.298 182.635 227.421C182.837 227.544 183.063 227.624 183.299 227.655C183.534 227.686 183.773 227.667 184 227.6ZM177 227.44C177 225.82 177 224.35 177 222.88C177 221.88 176.77 220.8 176.82 219.78C176.984 218.808 177.007 217.818 176.89 216.84C176.79 216.38 177.16 215.84 177.18 215.34C177.18 214.29 177.18 213.23 177.18 212.18C177.18 209.63 177.18 207.09 177.18 204.55C177.18 202.44 177.11 200.34 177.06 198.24C177.06 197.88 177.06 197.53 176.99 197.17C176.93 195.93 176.87 194.7 176.82 193.46C176.76 191.88 176.72 190.29 176.66 188.71C176.583 187.863 176.182 187.078 175.54 186.52C175.324 186.311 175.138 186.072 174.99 185.81C174.712 185.24 174.288 184.755 173.761 184.403C173.234 184.052 172.623 183.847 171.99 183.81C170.84 183.61 169.7 183.37 168.55 183.22C166.73 182.98 164.91 182.76 163.09 182.59C161.27 182.42 159.6 182.34 157.86 182.19C157.4 182.19 156.94 182 156.48 181.92C155.01 181.68 153.53 181.47 152.06 181.19C151.7 181.13 151.39 180.67 151.06 180.68C149.98 180.68 148.91 180.86 147.83 180.96C147.22 182.68 147.91 184.34 147.91 186.02C147.91 187.23 148.2 188.45 148.23 189.66C148.23 191.6 148.17 193.53 148.23 195.47C148.23 196.91 148.34 198.35 148.42 199.79C148.5 201.23 148.74 202.79 148.71 204.28C148.71 206.34 148.3 208.41 148.87 210.46C148.895 210.673 148.895 210.887 148.87 211.1C148.92 212.29 149 213.48 149.04 214.67C149.08 215.86 149.04 216.84 149.04 217.91C149.04 218.24 149.26 218.75 149.51 218.85C150.69 219.31 151.91 219.67 153.12 220.04C155.36 220.74 157.63 221.39 159.86 222.13C163.3 223.28 166.72 224.48 170.13 225.7C171.081 226.037 171.998 226.462 172.87 226.97C174.17 227.76 175.56 227.22 177 227.44ZM179.35 269.72C179.35 270.88 179.99 271.79 180.75 271.62C181.744 271.379 182.722 271.079 183.68 270.72C185.06 270.22 186.42 269.65 187.78 269.1C188.78 268.71 189.78 268.33 190.69 267.88C191.786 267.27 192.915 266.719 194.07 266.23C195.86 265.62 197.74 265.23 199.56 264.72C201.14 264.24 202.68 263.63 204.25 263.1C204.953 262.746 205.716 262.529 206.5 262.46C207.57 262.54 208.13 261.74 208.96 261.46C209.06 261.46 209.13 261.14 209.12 260.98C209.055 259.52 209.085 258.057 209.21 256.6C209.37 253.7 209.21 250.77 209.12 247.86C209.12 246.75 208.95 245.64 209 244.54C209.09 242.54 209.27 240.54 209.43 238.54C209.743 236.516 209.887 234.468 209.86 232.42C209.86 231.97 209.86 231.53 209.86 231.08C209.81 229.08 209.77 227.08 209.72 225.03C209.72 224.32 209.72 223.62 209.65 222.91C209.61 222.828 209.549 222.757 209.474 222.704C209.399 222.652 209.311 222.619 209.22 222.61C208.356 222.755 207.517 223.025 206.73 223.41C204.65 224.682 202.406 225.664 200.06 226.33C196.75 227.33 193.54 228.64 190.27 229.77C189.166 230.007 188.08 230.321 187.02 230.71C185.657 231.27 184.193 231.539 182.72 231.5C181.05 231.61 180.88 231.61 180.72 233.3C180.63 234.71 180.54 236.11 180.44 237.51C180.36 238.58 180.22 239.64 180.2 240.71C180.18 241.78 180.32 242.83 180.36 243.89C180.4 244.556 180.4 245.224 180.36 245.89C180.22 247.89 180.02 249.83 179.86 251.8C179.861 252.067 179.878 252.335 179.91 252.6C179.99 253.75 180.14 254.89 180.11 256.03C180.11 257.87 179.87 259.71 179.78 261.55C179.72 262.92 179.78 264.3 179.66 265.67C179.54 267.04 179.45 268.36 179.33 269.72H179.35ZM213.35 217.36C214.26 217.1 214.93 216.96 215.56 216.72C217.142 215.949 218.772 215.281 220.44 214.72C222.54 214.18 224.44 212.99 226.68 212.89C227.37 212.814 228.045 212.632 228.68 212.35C230.15 211.79 231.6 211.15 233.08 210.61C233.95 210.29 234.89 210.14 235.78 209.86C237.52 209.3 239.25 208.717 240.97 208.11C241.077 208.055 241.17 207.975 241.241 207.878C241.312 207.781 241.36 207.669 241.38 207.55C241.44 206.14 241.38 204.73 241.49 203.33C241.54 202.27 241.68 201.21 241.72 200.15C241.638 198.45 241.719 196.745 241.96 195.06C242.37 193.39 241.96 191.8 242.16 190.18C242.31 189.07 242.16 187.94 242.22 186.82C242.29 185.35 242.43 183.87 242.55 182.4C242.6 181.81 242.74 181.21 242.74 180.62C242.74 179.39 242.65 178.16 242.65 176.93C242.65 175.1 242.71 173.27 242.65 171.44C242.65 171.24 242.27 170.85 242.11 170.87C240.51 171.08 238.92 171.38 237.32 171.61C236.5 171.74 235.67 171.8 234.85 171.88C234.03 171.96 233 172.08 232.08 172.16C231.092 172.185 230.107 172.272 229.13 172.42C227.26 172.85 225.44 173.42 223.58 173.9C222.76 174.1 221.92 174.15 221.36 174.9C221.22 175.11 220.84 175.18 220.56 175.27C218.32 175.98 216.08 176.64 213.86 177.4C213.647 177.487 213.457 177.623 213.306 177.796C213.155 177.97 213.047 178.177 212.99 178.4C212.996 179.46 213.066 180.519 213.2 181.57C213.26 182.34 213.39 183.12 213.39 183.9C213.39 185.61 213.39 187.33 213.33 189.04C213.33 190.94 213.25 192.83 213.22 194.72C213.22 195.27 213.22 195.81 213.22 196.36C213.22 198.06 213.22 199.76 213.22 201.47C213.22 203.18 213.34 204.69 213.38 206.3C213.38 207.62 213.45 208.94 213.38 210.3C213.38 211.83 213.31 213.36 213.28 214.88C213.3 215.72 213.31 216.53 213.31 217.36H213.35ZM115.55 169.28C115.521 169.544 115.467 169.806 115.39 170.06C114.743 171.477 114.481 173.039 114.63 174.59C114.705 175.899 114.705 177.211 114.63 178.52C114.63 179.63 114.69 180.73 114.75 181.84C114.81 182.95 114.93 183.91 114.96 184.94C114.96 186.38 114.96 187.82 114.96 189.26C114.96 190.08 114.96 190.9 114.96 191.72C114.827 192.822 114.754 193.93 114.74 195.04C114.85 196.9 115.16 198.74 115.35 200.59C115.38 201.073 115.38 201.557 115.35 202.04C115.35 202.49 115.27 202.94 115.27 203.38C115.27 203.61 115.42 203.84 115.42 204.07C115.42 205.25 115.42 206.42 115.49 207.6C115.5 207.748 115.543 207.893 115.615 208.022C115.688 208.152 115.789 208.264 115.91 208.35C117.59 209 119.28 209.64 121 210.18C123.25 210.89 125.56 211.4 127.78 212.18C129.22 212.69 130.68 213.09 132.14 213.5C133.14 213.79 134.26 213.96 135.29 214.28C138.29 215.2 141.29 216.17 144.34 217.13C144.95 217.32 145.27 216.87 145.11 216.49C144.71 215.56 145.11 214.56 144.89 213.75C144.37 212.12 144.89 210.52 144.71 208.91C144.542 206.544 144.508 204.17 144.61 201.8C144.61 200.87 144.77 199.93 144.77 199C144.77 196.89 144.67 194.78 144.61 192.66C144.61 190.81 144.46 188.95 144.42 187.1C144.38 185.25 144.42 183.3 144.42 181.41C144.381 181.134 144.314 180.863 144.22 180.6C143.781 180.679 143.336 180.72 142.89 180.72C141.68 180.6 140.49 180.33 139.29 180.29C137.488 180.124 135.796 179.352 134.49 178.1C134.021 177.748 133.522 177.437 133 177.17C132.408 176.87 131.833 176.537 131.28 176.17C130.03 175.23 128.85 174.17 127.59 173.27C126.33 172.37 124.75 171.27 123.26 170.2C121.96 171.08 120.58 170.54 119.18 170.15C118 169.84 116.8 169.58 115.55 169.28ZM148.88 223.51C148.94 224.37 149.03 225.2 149.04 226.04C149.04 227.66 149.04 229.28 149.04 230.91C149.04 232.71 149.19 234.5 149.25 236.3C149.25 237.38 149.25 238.46 149.25 239.54C149.32 241.54 149.44 243.59 149.48 245.61C149.59 247.448 149.59 249.292 149.48 251.13C149.235 254.626 149.235 258.134 149.48 261.63C149.498 261.738 149.541 261.84 149.605 261.928C149.67 262.017 149.753 262.089 149.85 262.14C151.15 262.74 152.46 263.31 153.78 263.87C154.45 264.16 155.12 264.42 155.78 264.68C157.51 265.36 159.23 266.05 160.96 266.68C162.52 267.26 164.1 267.78 165.66 268.36C166.832 268.941 168.058 269.406 169.32 269.75C170.878 270.012 172.404 270.441 173.87 271.03C174.74 271.37 175.66 271.58 176.66 271.87C176.66 271.36 176.73 271.09 176.74 270.87C176.79 269 176.81 267.12 176.88 265.24C176.88 264.16 177.1 263.09 177.13 262.02C177.13 260.43 177.13 258.84 177.13 257.25C177.13 255.85 177.03 254.44 177.03 253.04C177.058 252.499 177.125 251.961 177.23 251.43C177.292 251.167 177.329 250.9 177.34 250.63C177.22 248.81 177.06 247 176.96 245.18C176.96 244.47 177.06 243.75 177.05 243.04C177.05 242.04 176.95 241.04 176.95 240.11C176.95 239.31 177.05 238.51 177.08 237.71C177.066 236.999 177.093 236.288 177.16 235.58C177.41 234.12 176.97 233.48 175.48 233.28C175.331 233.253 175.186 233.206 175.05 233.14C173.6 232.51 172.13 231.9 170.69 231.25C169.9 230.88 169.17 230.38 168.36 230.06C166.77 229.44 165.14 228.93 163.55 228.34C162.35 227.89 161.05 227.82 159.95 226.97C159.138 226.549 158.269 226.249 157.37 226.08C155.76 225.52 154.17 224.88 152.55 224.38C151.39 224 150.19 223.81 148.88 223.51ZM115.88 213.08C115.836 213.223 115.812 213.371 115.81 213.52C115.9 215.24 116.01 216.95 116.1 218.67C116.19 220.54 116.26 222.4 116.32 224.27C116.32 225.34 116.32 226.43 116.32 227.5C116.43 228.78 116.75 230.05 116.84 231.33C116.93 232.61 116.84 234.13 116.84 235.53C116.854 235.711 116.877 235.891 116.91 236.07C117.05 237.45 117.24 238.83 117.3 240.22C117.36 241.61 117.3 242.93 117.3 244.28V249C119.93 249.81 122.48 250.53 124.98 251.4C127.48 252.27 130.17 253.3 132.71 254.4C134.71 255.25 136.63 256.31 138.61 257.23C140.22 257.97 141.86 258.64 143.48 259.38C144 259.61 144.48 259.94 145.02 260.25C145.02 259.56 145.02 258.75 145.02 257.93C145.02 255.84 145.11 253.75 145.14 251.65C145.14 250.65 145.14 249.54 145.14 248.48C145.14 245.35 145.14 242.21 145.14 239.08C145.14 238.45 145.14 237.81 145.14 237.18C145.14 235.56 145.06 233.94 145.05 232.32C145.04 230.7 145.05 229.12 145.05 227.52C145.05 225.92 144.87 224.61 144.86 223.15C144.86 222.15 144.56 221.65 143.86 221.51C142.33 221.2 140.8 220.88 139.29 220.51C138.609 220.299 137.942 220.049 137.29 219.76C136.29 219.39 135.41 218.95 134.44 218.66C133.26 218.31 132.03 218.13 130.85 217.78C127.94 216.93 125.14 215.78 122.13 215.13C119.994 214.574 117.894 213.889 115.84 213.08H115.88ZM241 211.94L240.63 211.64C239.84 211.99 239.07 212.41 238.25 212.69C236.49 213.29 234.7 213.81 232.93 214.4C231.57 214.85 230.23 215.4 228.86 215.84C226.31 216.67 223.74 217.45 221.19 218.26C220.48 218.49 219.78 218.73 219.1 219.01C217.4 219.7 215.73 220.47 214 221.09C213.43 221.29 213.09 221.48 213.13 222.09C213.13 222.94 213.28 223.78 213.29 224.62C213.29 226.88 213.23 229.14 213.36 231.38C213.445 234.429 213.365 237.48 213.12 240.52C213.05 241.94 212.95 243.36 212.91 244.78C212.87 246.2 212.91 247.43 212.91 248.78C212.91 249.2 212.91 249.62 212.96 250.03C213.06 251.19 213.25 252.35 213.27 253.51C213.27 254.86 213.17 256.2 213.1 257.51C213.1 258.13 213.02 258.75 212.97 259.58L214.21 258.94C214.7 258.67 215.21 258.36 215.68 258.13C216.91 257.56 218.16 257.05 219.39 256.49C220.88 255.8 222.32 254.95 223.86 254.4C226.46 253.47 229.13 252.73 231.76 251.89C232.206 251.734 232.64 251.547 233.06 251.33C233.93 250.92 234.77 250.46 235.66 250.1C237.13 249.5 238.66 248.99 240.09 248.36C240.24 248.241 240.362 248.088 240.445 247.915C240.528 247.742 240.571 247.552 240.57 247.36C240.48 245.69 240.25 244.03 240.18 242.36C240.08 239.55 240.75 236.77 240.39 233.95C240.404 233.297 240.458 232.646 240.55 232C240.55 230.42 240.44 228.84 240.44 227.26C240.44 225.68 240.51 224.12 240.54 222.56C240.54 221.21 240.54 219.86 240.59 218.51C240.7 216.34 240.87 214.14 241 211.94ZM112.72 207V201.75C112.72 200.43 112.8 199.11 112.72 197.75C112.66 196.04 112.52 194.32 112.44 192.61C112.44 191.68 112.44 190.75 112.38 189.82C112.38 188.72 112.38 187.61 112.38 186.51C112.38 185.41 112.52 184.29 112.46 183.18C112.33 180.53 112.13 177.88 111.94 175.23C111.927 173.888 111.797 172.549 111.55 171.23C111.14 169.59 111.35 167.54 109.03 166.85C108.55 166.7 108.03 166.65 107.58 166.5C106.37 166.1 105.17 165.69 103.98 165.28C102.98 164.93 101.98 164.54 100.98 164.22C99.55 163.75 98.08 163.38 96.67 162.86C95.26 162.34 93.86 161.61 92.44 161.05C91.02 160.49 89.82 160.17 88.52 159.68C88.3726 159.603 88.2084 159.564 88.0422 159.567C87.876 159.57 87.713 159.614 87.5681 159.695C87.4232 159.776 87.3008 159.893 87.2121 160.033C87.1234 160.174 87.0711 160.334 87.06 160.5C86.95 161.33 86.84 162.16 86.74 163C86.5947 163.789 86.5078 164.588 86.48 165.39C86.48 166.33 86.73 167.26 86.81 168.19C86.89 169.12 86.88 170.07 86.94 171C87.03 172.27 87.16 173.54 87.25 174.81C87.37 176.38 87.44 177.94 87.56 179.5C87.7 181.24 87.92 182.98 88.01 184.72C88.08 186.28 87.94 187.85 88.01 189.41C88.21 192.32 88.49 195.24 88.8 198.15C88.8487 198.322 88.9349 198.482 89.0525 198.616C89.17 198.751 89.3161 198.858 89.48 198.93C90.1331 199.189 90.8009 199.41 91.48 199.59C92.77 200 94.07 200.39 95.35 200.81C96.63 201.23 97.63 201.59 98.76 202.01C99.5777 202.413 100.427 202.747 101.3 203.01C104.559 203.483 107.696 204.579 110.54 206.24C111.235 206.578 111.966 206.833 112.72 207V207ZM245 247.39C245.89 247.19 246.79 247.03 247.65 246.77C248.51 246.51 249.03 246.15 249.75 245.91C251.03 245.48 252.36 245.18 253.62 244.69C255.31 244.03 256.95 243.24 258.62 242.5C259.01 242.33 259.39 242.14 259.79 241.99C260.54 241.7 261.32 241.44 262.06 241.12C262.8 240.8 263.68 240.31 264.51 239.97C265.34 239.63 266.02 239.53 266.75 239.23C268.64 238.47 268.63 238.46 268.59 236.39C268.59 236.08 268.59 235.78 268.59 235.48C268.75 234.02 269.01 232.56 269.05 231.09C269.05 229.91 268.8 228.71 268.77 227.52C268.77 225.32 268.77 223.12 268.77 220.92C268.77 220.57 268.77 220.23 268.77 219.92C268.77 218.92 268.6 218 268.65 217.05C268.75 215.32 268.98 213.61 269.08 211.88C269.15 210.81 269.08 209.73 269.08 208.65C269.163 207.799 269.13 206.942 268.98 206.1C268.74 205.33 268.55 204.26 267.36 204.24C266.619 204.188 265.874 204.221 265.14 204.34C263.27 204.75 261.41 205.23 259.58 205.78C258.18 206.2 256.84 206.78 255.45 207.28C254.06 207.78 252.73 208.07 251.37 208.49C249.73 208.99 248.08 209.49 246.46 210.06C245.773 210.235 245.14 210.578 244.62 211.06C244.15 211.684 243.856 212.423 243.77 213.2C243.54 214.88 243.41 216.59 243.34 218.29C243.27 219.99 243.34 221.61 243.34 223.29C243.34 224.63 243.26 225.97 243.26 227.29C243.26 229.15 243.34 231.01 243.35 232.87C243.35 233.43 243.19 234 243.2 234.57C243.2 235.65 243.37 236.73 243.36 237.81C243.36 240.41 243.28 243.02 243.28 245.63C243.28 246.75 243.77 247.16 245 247.39ZM89.05 202.65C89.05 203.6 89.13 204.38 89.15 205.15C89.15 206.74 89.23 208.32 89.26 209.91C89.26 211.65 89.26 213.4 89.35 215.14C89.48 217.42 89.72 219.69 89.88 221.97C89.8333 223.107 89.8936 224.245 90.06 225.37C90.58 227.3 89.49 229.22 90.19 231.11C90.19 231.11 90.19 231.23 90.19 231.29C90.13 232.47 90.02 233.66 90.03 234.85C90.03 236.49 90.13 238.13 90.24 239.77C90.2548 239.945 90.3105 240.114 90.4026 240.263C90.4946 240.413 90.6205 240.538 90.77 240.63C92.41 241.26 94.07 241.83 95.77 242.37C98.07 243.12 100.38 243.83 102.68 244.55L102.93 244.66C103.85 245.04 104.76 245.46 105.7 245.78C106.46 246.03 107.26 246.15 108.04 246.36C109.53 246.75 111.04 247.13 112.48 247.57C112.682 247.665 112.906 247.705 113.128 247.685C113.351 247.665 113.564 247.587 113.746 247.458C113.928 247.328 114.072 247.153 114.165 246.95C114.257 246.746 114.293 246.522 114.27 246.3C114.21 244.73 114.16 243.17 114.06 241.6C113.95 239.8 113.76 238.01 113.66 236.22C113.6 235.05 113.66 233.88 113.66 232.71C113.66 231.54 113.31 230.5 113.28 229.39C113.19 226.39 113.17 223.39 113.16 220.33C113.16 219.4 113.34 218.46 113.3 217.53C113.24 216.13 113.01 214.74 112.93 213.34C112.961 212.816 112.801 212.299 112.479 211.885C112.157 211.471 111.695 211.189 111.18 211.09C110.529 210.944 109.897 210.719 109.3 210.42C108.35 209.94 107.49 209.24 106.5 208.84C104.98 208.23 103.39 207.84 101.83 207.29C100.27 206.74 98.57 206.29 96.97 205.67C95.85 205.26 94.78 204.73 93.67 204.29C93.23 204.11 92.73 204.07 92.28 203.9C91.15 203.51 90.13 203.08 89.05 202.65ZM244.69 207C245.393 206.904 246.091 206.77 246.78 206.6C248.84 206 250.87 205.32 252.94 204.75C254.07 204.44 255.27 204.36 256.41 204.04C257.55 203.72 258.55 203.1 259.68 202.88C262.24 202.272 264.764 201.52 267.24 200.63C267.37 200.596 267.493 200.536 267.599 200.453C267.706 200.371 267.794 200.268 267.86 200.15C268.4 199.092 268.836 197.983 269.16 196.84C269.365 195.744 269.385 194.622 269.22 193.52C269.07 192.41 269.69 191.46 269.42 190.28C268.98 188.35 269.82 186.37 269.68 184.37C269.662 183.033 269.736 181.697 269.9 180.37C270.067 178.21 270.247 176.043 270.44 173.87C270.53 172.96 270.74 172.05 270.75 171.14C270.75 169.14 270.69 167.07 270.7 165.04C270.75 164.531 270.854 164.028 271.01 163.54C270.807 163.588 270.632 163.714 270.52 163.89C269.59 165.1 268.73 166.38 266.94 166.33C266.821 166.356 266.706 166.4 266.6 166.46C265.86 166.82 265.095 167.124 264.31 167.37C262.54 167.82 260.76 168.23 258.96 168.53C257.46 168.78 255.96 168.87 254.41 169.01C254.117 168.995 253.823 168.995 253.53 169.01C251.94 169.32 250.36 169.7 248.76 170.01C247.53 170.24 246.29 170.39 245.13 170.55C245.19 171.16 245.25 171.6 245.27 172.04C245.37 173.78 245.5 175.52 245.55 177.26C245.592 178.55 245.568 179.842 245.48 181.13C245.33 182.99 245 184.83 244.91 186.68C244.82 188.53 244.91 190.3 244.97 192.11C244.985 192.29 244.985 192.47 244.97 192.65C244.88 193.89 244.69 195.12 244.7 196.35C244.7 197.91 244.99 199.46 244.99 201.02C245 203 244.79 204.9 244.69 207ZM139.56 158.89H139.77C139.61 158.7 139.34 158.53 139.33 158.34C139.33 157.56 139.33 156.78 139.33 156C139.33 153.64 139.33 151.28 139.33 148.92C139.33 148.53 139.33 148.14 139.33 147.74C139.33 146.64 139.51 145.54 139.45 144.44C139.31 142.04 138.94 139.64 138.92 137.23C138.906 136.674 138.738 136.132 138.435 135.666C138.131 135.2 137.703 134.827 137.2 134.59C134.2 132.65 131.11 130.81 128.08 128.91C127.42 128.49 126.87 127.91 126.22 127.5C125.827 127.319 125.414 127.185 124.99 127.1C124.82 127.49 124.699 127.9 124.63 128.32C124.63 129.32 124.63 130.43 124.63 131.49C124.63 133.84 124.43 136.2 124.45 138.55C124.45 140.65 124.7 142.75 124.75 144.84C124.8 147.12 124.75 149.4 124.75 151.68C124.75 153.19 125.02 154.68 125.06 156.2C125.13 158.5 125.16 160.8 125.13 163.11C125.13 164.53 124.94 165.94 124.88 167.36C124.877 167.513 124.904 167.666 124.961 167.808C125.018 167.951 125.102 168.081 125.21 168.19C127.41 169.903 129.627 171.593 131.86 173.26C133.134 174.376 134.558 175.308 136.09 176.03C137.038 176.483 137.963 176.983 138.86 177.53C139.47 177.83 140.05 177.58 140.03 177.09C140.03 175.6 139.92 174.09 139.88 172.62C139.88 171.81 139.88 171 139.88 170.19C139.75 168.45 139.55 166.7 139.42 164.95C139.33 163.85 139.25 162.74 139.26 161.64C139.34 160.75 139.48 159.82 139.56 158.89ZM108.5 117.31C108.5 118.4 108.5 119.31 108.5 120.18C108.58 121.97 108.72 123.76 108.81 125.55C108.97 128.4 109.13 131.25 109.26 134.1C109.26 135.02 109.19 135.94 109.26 136.86C109.33 137.78 109.45 138.49 109.42 139.3C109.35 141.43 109.15 143.56 109.12 145.68C109.12 147.29 109.28 148.89 109.36 150.49C109.36 151.09 109.36 151.68 109.42 152.27C109.47 153.27 109.48 154.27 109.6 155.27C109.654 155.807 109.839 156.322 110.14 156.77C110.486 157.131 110.906 157.414 111.37 157.6C112.967 158.32 114.379 159.394 115.5 160.74C115.6 160.88 115.8 160.94 115.94 161.05C117.539 162.089 119.05 163.256 120.46 164.54C121.13 165.23 121.96 165.37 122.63 165.98C122.63 163.62 122.57 161.32 122.47 159.03C122.29 155.16 122.05 151.3 121.95 147.44C121.95 145.75 122.2 144.05 122.17 142.36C122.17 140.95 121.82 139.55 121.74 138.14C121.64 136.41 121.59 134.67 121.65 132.93C121.86 131.607 121.887 130.261 121.73 128.93C121.519 128.328 121.475 127.681 121.602 127.056C121.728 126.431 122.021 125.852 122.45 125.38L108.5 117.31ZM106.4 153.66V148C106.4 146.52 106.4 145 106.4 143.57C106.4 142.65 106.51 141.73 106.52 140.8C106.52 139.52 106.52 138.23 106.45 136.94C106.4 134.85 106.36 132.75 106.28 130.66C106.2 128.37 106.07 126.08 105.99 123.79C105.91 121.5 105.93 119.07 105.79 116.72C105.688 116.141 105.374 115.621 104.91 115.26C104.228 114.79 103.512 114.369 102.77 114C100.58 112.71 98.41 111.41 96.23 110.11L95.14 109.44C94.9698 110.209 94.8462 110.987 94.77 111.77C94.77 113.83 94.77 115.89 94.77 117.95C94.77 119.86 94.58 121.76 94.48 123.66C94.48 124.25 94.41 124.85 94.48 125.44C94.55 126.03 94.64 126.44 94.61 126.86C94.54 128.04 94.4 129.23 94.29 130.41C94.29 130.55 94.4 130.69 94.41 130.83C94.41 131.49 94.49 132.14 94.5 132.83C94.5 133.27 94.5 133.7 94.43 134.14C94.43 135.31 94.33 136.47 94.29 137.64C94.29 138.42 94.29 139.2 94.29 139.98C94.29 140.76 94.43 141.28 94.38 141.92C94.29 142.92 94.05 143.99 93.98 145.03C93.9238 145.522 94.0521 146.017 94.34 146.42C94.9452 146.886 95.599 147.285 96.29 147.61C97.94 148.61 99.59 149.61 101.23 150.61C101.59 150.83 101.85 151.21 102.23 151.42C103.51 152.11 104.91 152.85 106.4 153.66ZM128.2 123.71L128.1 123.92L135.27 128.47C135.81 128.81 136.27 129.18 136.87 129.47C137.87 130.03 138.87 130.47 139.87 131.13C141.01 131.92 142.05 132.56 143.57 132.13C145.025 131.789 146.502 131.548 147.99 131.41C148.54 131.34 149.12 131.41 149.67 131.41C150.22 131.41 150.84 131.16 151.43 131.06C153.01 130.81 154.6 130.59 156.18 130.33C156.541 130.205 156.908 130.098 157.28 130.01C158.62 129.94 159.97 130.01 161.28 129.88C162.59 129.75 163.96 129.62 165.28 129.51C165.87 129.51 166.48 129.51 167.07 129.45C168.87 129.25 170.66 129.02 172.45 128.8C172.99 128.74 173.53 128.67 174.06 128.58L177.86 127.94L178.97 127.79C178.484 127.396 177.976 127.029 177.45 126.69C175.77 125.743 174.077 124.82 172.37 123.92C171.37 123.4 170.37 122.92 169.37 122.44C168.52 122.08 167.61 121.87 166.76 121.51C165.49 120.99 164.35 119.99 162.82 120.51C162.74 120.51 162.64 120.51 162.55 120.51C161.34 120.63 160.13 120.71 158.92 120.87C156.75 121.17 154.59 121.61 152.41 121.87C149.48 122.15 146.53 122.28 143.58 122.46C142.01 122.56 140.44 122.64 138.87 122.72C137.74 122.79 136.61 122.83 135.49 122.92C135.01 122.92 134.49 123.14 134.06 123.19C132.15 123.37 130.17 123.53 128.2 123.71ZM173 120C174.48 120.75 175.8 121.39 177.09 122.09C178.38 122.79 179.68 123.61 180.99 124.35C181.452 124.544 181.903 124.764 182.34 125.01C183.48 125.83 184.97 126.12 185.87 127.31C185.96 127.384 186.064 127.439 186.176 127.472C186.287 127.504 186.404 127.514 186.52 127.5C187.861 127.517 189.201 127.403 190.52 127.16C192.64 126.59 194.82 126.77 196.97 126.29C200.034 125.754 203.126 125.383 206.23 125.18C209.14 124.84 212.06 124.46 214.97 124.09C216.71 123.86 218.45 123.62 220.18 123.37C220.55 123.31 220.91 123.18 221.45 123.04C220.56 122.58 219.85 122.2 219.12 121.84C217.68 121.15 216.24 120.45 214.79 119.78C213.653 119.347 212.547 118.836 211.48 118.25C210.193 117.44 208.701 117.017 207.18 117.03C205.175 117.056 203.172 117.187 201.18 117.42C200.71 117.42 200.23 117.42 199.76 117.53C198.76 117.67 197.76 117.88 196.76 118C194.97 118.21 193.17 118.36 191.38 118.58C189.24 118.83 187.11 119.21 184.97 119.4C183.57 119.52 182.15 119.4 180.74 119.4C178.19 119.56 175.7 119.78 173 120ZM204.36 114.93C203.86 114.67 203.54 114.48 203.2 114.33C202.06 113.82 200.89 113.33 199.76 112.81C198.11 112.02 196.51 111.15 194.87 110.36C193.23 109.57 191.6 108.81 189.94 108.09C189.464 107.824 188.925 107.693 188.38 107.71C186.18 108.05 184.02 108.59 181.82 108.91C179.45 109.27 177.06 109.46 174.68 109.72C172.77 109.93 170.85 110.09 168.94 110.35C166.33 110.71 163.73 111.15 161.13 111.54C159.87 111.72 158.61 111.86 157.35 112.02C157.69 112.53 158.04 113.02 158.45 113.02C159.548 113.326 160.569 113.857 161.45 114.58C162.19 115.03 162.93 115.47 163.7 115.85C164.563 116.178 165.401 116.566 166.21 117.01C167.115 117.539 168.17 117.753 169.21 117.62C171.27 117.62 173.34 117.5 175.41 117.43C176.82 117.43 178.24 117.37 179.66 117.32C181.56 117.25 183.47 117.19 185.38 117.09C186.89 117.01 188.38 116.92 189.92 116.75C191 116.62 192.06 116.25 193.15 116.14C195.94 115.85 198.74 115.66 201.54 115.39C202.39 115.35 203.27 115.12 204.38 114.92L204.36 114.93ZM197.06 107.36V107.54C197.463 107.832 197.884 108.1 198.32 108.34C201.16 109.72 203.98 111.12 206.85 112.41C208.85 113.29 210.85 114.01 212.85 114.79C212.962 114.843 213.086 114.867 213.21 114.86C214.492 114.785 215.763 114.574 217 114.23C219 113.46 221.16 113.73 223.24 113.49C224.82 113.31 226.45 113.7 228 112.94C228.635 112.666 229.311 112.497 230 112.44C231.14 112.28 232.3 112.22 233.46 112.1C235.07 111.94 236.68 111.77 238.28 111.58C238.965 111.587 239.645 111.458 240.28 111.2C241.128 110.664 242.132 110.428 243.13 110.53C243.57 110.53 244.01 110.53 244.46 110.53C243.596 109.968 242.686 109.48 241.74 109.07C240.44 108.51 239.13 107.95 237.74 107.5C235.951 107.086 234.206 106.5 232.53 105.75C232.083 105.417 231.559 105.202 231.007 105.123C230.455 105.045 229.892 105.105 229.37 105.3C228.611 105.663 227.761 105.788 226.93 105.66C226.46 105.658 225.991 105.705 225.53 105.8C224.702 105.934 223.868 106.025 223.03 106.07C221.62 106.07 220.22 105.89 218.81 105.92C217.04 105.92 215.26 106.15 213.49 106.28C212.35 106.36 211.22 106.5 210.08 106.54C208.94 106.58 208.02 106.45 207 106.54C205.17 106.64 203.33 106.81 201.5 106.96C201.364 106.998 201.23 107.045 201.1 107.1C200.647 107.237 200.181 107.331 199.71 107.38C198.85 107.39 198 107.35 197.08 107.35L197.06 107.36ZM262.06 119.09L262.13 118.81C261.992 118.662 261.834 118.534 261.66 118.43C260.38 117.86 259.09 117.3 257.8 116.75C255.86 115.92 253.93 115.06 251.95 114.32C250.755 113.891 249.528 113.557 248.28 113.32C247.139 113.095 245.982 112.955 244.82 112.9C243.663 112.823 242.501 112.857 241.35 113C239.35 113.29 237.46 113.77 235.51 114.08C234.51 114.25 233.51 114.17 232.51 114.32C230.69 114.6 228.88 114.97 227.07 115.32C226.664 115.395 226.253 115.445 225.84 115.47C225.28 115.47 224.72 115.47 224.17 115.47C223.23 115.57 222.31 115.75 221.37 115.86C219.8 116.04 218.24 116.2 216.54 116.38C216.73 116.66 216.75 116.74 216.8 116.76C219.54 118.06 222.28 119.38 225.05 120.62C226.231 121.298 227.525 121.756 228.87 121.97C231.058 121.989 233.245 121.839 235.41 121.52C238.22 121.22 241.01 120.71 243.82 120.52C246.3 120.3 248.82 120.33 251.29 120.24C252.005 120.25 252.72 120.21 253.43 120.12C254.14 120 254.82 119.66 255.53 119.54C256.77 119.35 258.02 119.22 259.28 119.14C260.25 119 261.19 119.08 262.13 119.08L262.06 119.09ZM160.26 118.35C159.43 117.78 158.87 117.35 158.26 116.97C156.44 115.97 154.59 115.05 152.76 114.07C151.49 113.39 150.31 112.48 148.71 112.99C148.209 113.11 147.695 113.173 147.18 113.18C145.61 113.33 144.04 113.49 142.46 113.59C141.07 113.68 139.67 113.7 138.27 113.75C138.06 113.75 137.86 113.81 137.65 113.83C136.16 114.02 134.65 114.21 133.19 114.38C132.78 114.38 132.36 114.38 131.95 114.38C130.59 114.5 129.24 114.67 127.89 114.78C126.35 114.9 124.82 114.95 123.29 115.08C120.82 115.28 118.37 115.54 115.91 115.77L114.16 115.91L117.57 117.82C118.57 118.37 119.52 118.95 120.51 119.5C121.75 120.167 123 120.857 124.26 121.57C124.408 121.601 124.562 121.601 124.71 121.57H127.71C127.853 121.584 127.997 121.584 128.14 121.57C129.004 121.299 129.882 121.075 130.77 120.9C132.32 120.68 133.89 120.6 135.46 120.43C137.64 120.19 139.84 120.61 142.04 120.16C143.414 119.998 144.797 119.921 146.18 119.93C147.73 119.81 149.27 119.58 150.82 119.5C151.82 119.44 152.88 119.72 153.82 119.58C155.42 119.35 156.98 118.89 158.56 118.58C159.13 118.51 159.65 118.45 160.33 118.34L160.26 118.35ZM145.14 110.46V110.14C144 109.65 142.81 109.23 141.72 108.65C139.82 107.65 137.99 106.52 136.11 105.48C135.109 104.777 133.887 104.461 132.67 104.59C131.21 104.85 129.73 104.96 128.26 105.12C126.46 105.31 124.63 105.36 122.86 105.7C121.259 106.074 119.61 106.205 117.97 106.09C117.697 106.085 117.425 106.116 117.16 106.18C115.49 106.44 113.83 106.72 112.16 106.94C110.87 107.11 109.58 107.23 108.28 107.32C106.82 107.42 105.36 107.44 103.9 107.54C102.44 107.64 101.2 107.78 99.64 107.92C99.7859 108.062 99.9395 108.195 100.1 108.32C101.28 108.93 102.47 109.51 103.63 110.15C105.43 111.15 107.25 112.09 109 113.15C109.604 113.528 110.287 113.763 110.995 113.837C111.704 113.912 112.42 113.824 113.09 113.58C114.686 112.986 116.393 112.751 118.09 112.89C118.863 112.901 119.634 112.803 120.38 112.6C121.38 112.45 122.45 112.25 123.49 112.17C124.53 112.09 125.79 112.26 126.89 112.06C129.1 111.67 131.27 111.06 133.54 111.54C133.659 111.559 133.781 111.559 133.9 111.54C135.24 111.33 136.58 111.03 137.9 110.92C140.39 110.68 142.81 110.59 145.21 110.45L145.14 110.46ZM141.14 104.38C142.36 105.01 143.53 105.65 144.73 106.22C146.56 107.08 148.59 107.63 150.22 108.77C151.85 109.91 153.81 109.43 155.6 109.59C156.456 109.534 157.299 109.348 158.1 109.04C158.66 108.92 159.22 108.82 159.78 108.73C160.67 108.57 161.56 108.37 162.46 108.29C162.99 108.29 163.54 108.46 164.07 108.4C166.07 108.18 167.88 107.28 169.98 107.31C172.392 107.186 174.793 106.909 177.17 106.48C179.78 106.17 182.39 105.88 185 105.58C184.547 105.021 183.972 104.573 183.32 104.27C181.81 103.62 180.27 103.06 178.74 102.46C178.52 102.37 178.32 102.21 178.1 102.11L174.57 100.62C174.482 100.595 174.388 100.595 174.3 100.62C172.3 101.13 170.04 100.68 168.05 101.62C167.788 101.702 167.513 101.729 167.24 101.7L160.73 101.76C160.281 101.715 159.829 101.715 159.38 101.76C157.68 102.1 155.98 102.51 154.28 102.85C151.793 103.348 149.273 103.662 146.74 103.79C145 103.87 143.14 104.16 141.19 104.37L141.14 104.38ZM181.14 99.84C181.603 100.217 182.098 100.552 182.62 100.84C183.62 101.29 184.62 101.61 185.62 102.03C186.62 102.45 187.83 103.03 188.91 103.51C189.37 103.73 189.76 104.08 190.23 104.27C190.97 104.616 191.754 104.859 192.56 104.99C193.37 104.974 194.179 104.904 194.98 104.78C196.6 104.71 198.22 104.78 199.83 104.63C201.22 104.5 202.48 103.41 204 103.98C204 103.98 204.11 103.98 204.17 103.92C206.17 103.73 208.09 103.43 210.06 103.4C211.068 103.453 212.079 103.358 213.06 103.12C214.234 102.828 215.441 102.697 216.65 102.73C218.36 102.73 220.08 102.73 221.8 102.73C222.49 102.685 223.178 102.605 223.86 102.49V102.14C223.23 101.89 222.61 101.6 221.97 101.39C221.135 101.196 220.313 100.949 219.51 100.65C217.4 99.6501 215.39 98.43 212.91 98.5C212.22 98.3943 211.547 98.1958 210.91 97.9101C210.549 97.8072 210.176 97.7534 209.8 97.75C209.08 97.75 208.36 97.88 207.65 97.86C206.515 97.7278 205.373 97.6644 204.23 97.67C201.79 97.89 199.37 98.3601 196.93 98.5801C194.49 98.8001 192.14 98.85 189.74 98.96C189.38 98.96 189.02 98.96 188.66 98.96C187.17 99.12 185.66 99.3001 184.21 99.4701L181.14 99.84Z" fill="#0E2043"/>
<path d="M204.6 51C204.5 49.73 204.86 49.2 205.65 49C206.44 48.8 206.96 49.25 207.24 50.12C207.8 51.94 208.24 53.8 208.93 55.58C209.325 56.7818 210.018 57.8636 210.945 58.7241C211.872 59.5847 213.002 60.1957 214.23 60.5C215.67 60.85 216.34 61.9 215.8 62.85C215.557 63.2965 215.209 63.6767 214.785 63.9574C214.362 64.238 213.876 64.4106 213.37 64.46C212.3 64.6574 211.324 65.198 210.59 66C209.391 67.2304 208.428 68.6711 207.75 70.25C207.613 70.741 207.559 71.2513 207.59 71.76C207.599 72.2519 207.499 72.7397 207.299 73.189C207.099 73.6382 206.802 74.038 206.43 74.36C206.208 74.5763 205.91 74.6973 205.6 74.6973C205.29 74.6973 204.992 74.5763 204.77 74.36C204.557 74.1966 204.379 73.992 204.247 73.7584C204.114 73.5247 204.03 73.2668 204 73C204.184 71.3557 203.718 69.7045 202.7 68.4C201.7 67.07 200.54 65.58 198.62 65.19C197.37 64.93 196.16 64.45 194.9 64.19C194.05 64 194.08 63.27 193.9 62.72C193.81 62.45 194.15 62.05 194.29 61.72C194.88 60.11 196.29 60.94 197.29 60.81C198.194 60.728 199.063 60.4192 199.817 59.9124C200.57 59.4055 201.183 58.7168 201.6 57.91C201.682 57.7472 201.79 57.5987 201.92 57.47C203.047 56.211 203.771 54.6439 204 52.97C204.162 52.3025 204.363 51.6448 204.6 51V51ZM205.69 66.37L209.69 62.02C208.934 61.4008 208.219 60.7327 207.55 60.02C206.964 59.2393 206.429 58.4209 205.95 57.57L201.84 62.66L205.69 66.37Z" fill="#0E2043"/>
<path d="M223.94 32C223.924 32.4121 223.781 32.8092 223.53 33.1368C223.279 33.4644 222.934 33.7065 222.54 33.83C220.88 34.66 219.27 35.66 218.66 37.57C218.597 38.1359 218.638 38.7085 218.78 39.26C218.811 39.4747 218.792 39.6936 218.724 39.8997C218.657 40.1058 218.543 40.2935 218.391 40.4483C218.239 40.6031 218.053 40.7208 217.848 40.7922C217.644 40.8636 217.425 40.8868 217.21 40.86C216.21 40.78 215.49 40.59 215.14 39.41C214.504 37.7887 213.355 36.4193 211.87 35.51C211.13 34.96 210 34.96 209.05 34.67C208.21 34.445 207.387 34.1575 206.59 33.81C206.28 33.5903 206.068 33.2576 206.001 32.8836C205.934 32.5095 206.016 32.124 206.23 31.81C206.768 31.2677 207.385 30.8092 208.06 30.45C209.14 29.88 210.38 29.55 211.4 28.89C212.042 28.361 212.584 27.7208 213 27C213.305 26.5844 213.522 26.1116 213.64 25.61C213.76 25.06 213.58 24.43 213.74 23.89C213.9 23.35 214.18 22.42 214.66 22.18C215.348 21.9979 216.077 22.0399 216.74 22.3C216.94 22.36 217.01 22.98 217.13 23.35C217.36 24.5026 217.743 25.6193 218.27 26.67C219.09 27.926 220.21 28.9572 221.53 29.67C222.227 30.0315 222.882 30.471 223.48 30.98C223.78 31.12 223.81 31.64 223.94 32ZM216.4 34.59L218.72 32L215.62 29.24L212.62 31.9L216.4 34.59Z" fill="#0E2043"/>
<path d="M182.19 54.91C182.141 54.1123 181.997 53.3233 181.76 52.56C181.428 51.9392 180.956 51.4049 180.38 51C179.43 50.27 178.38 49.63 177.38 49C176.992 48.7746 176.67 48.4506 176.447 48.0607C176.224 47.6709 176.107 47.2291 176.11 46.78C176.11 45.84 176.88 45.47 177.62 45.16C178.978 44.678 180.118 43.7231 180.83 42.47C181.734 41.0746 182.463 39.5733 183 38C183.28 37 184.16 37.42 184.73 37.15C184.94 37.05 185.49 37.42 185.73 37.71C185.998 38.0408 186.158 38.4455 186.19 38.87C186.36 41.05 187.71 42.46 189.26 43.77C189.74 44.18 190.13 44.68 190.57 45.13C190.73 45.3456 190.926 45.5318 191.15 45.68C191.75 45.97 192.4 46.17 192.99 46.48C193.11 46.55 193.16 47 193.07 47.19C192.865 47.8188 192.478 48.3728 191.958 48.7821C191.439 49.1914 190.809 49.4377 190.15 49.49C189.373 49.6962 188.676 50.1318 188.15 50.74C187.408 51.4665 186.738 52.2636 186.15 53.12C185.912 53.5242 185.807 53.9929 185.85 54.46C185.811 55.0759 185.55 55.657 185.117 56.0961C184.683 56.5353 184.105 56.803 183.49 56.85C182.76 56.89 182 55.84 182.19 54.91ZM187.58 47C186.66 46 185.73 44.94 184.76 43.93C184.35 43.51 184.06 43.78 183.76 44.16C183.06 45 182.27 45.77 181.56 46.62C181.41 46.8 181.34 47.3 181.47 47.42C182.4 48.35 183.39 49.22 184.28 50.03L187.58 47Z" fill="#0E2043"/>
<path d="M87.72 219.18L89.3 242.18C100.45 246.45 114.06 249.8 125.21 254.07C143.26 260.98 158.85 268.81 176.89 275.72L18.9 251C18.4127 250.926 17.9635 250.693 17.622 250.337C17.2805 249.982 17.0658 249.524 17.0111 249.034C16.9565 248.544 17.0649 248.05 17.3196 247.628C17.5743 247.206 17.9611 246.88 18.42 246.7L87.72 219.18Z" fill="#0E2043"/>
</g>
<defs>
<clipPath id="clip0_7_38">
<rect width="256.26" height="253.74" fill="white" transform="translate(17 22)"/>
</clipPath>
</defs>
</svg>
