<svg width="1748" height="1096" viewBox="0 0 1748 1096" fill="none" xmlns="http://www.w3.org/2000/svg">
<g clip-path="url(#clip0_6_61)">
<path d="M390.331 743.791C470.718 743.791 535.884 679.132 535.884 599.371C535.884 519.611 470.718 454.952 390.331 454.952C309.944 454.952 244.778 519.611 244.778 599.371C244.778 679.132 309.944 743.791 390.331 743.791Z" fill="white"/>
<path d="M1748 581.93C1730.38 590.75 1712.68 599.491 1695.14 608.509C1675.64 618.482 1656.1 628.374 1636.88 638.863C1620.87 647.485 1605.49 656.821 1589.91 665.959C1579.78 671.879 1569.89 677.878 1559.76 684.037C1551.75 688.844 1543.38 693.731 1534.98 698.101C1527.17 702.074 1518.96 705.213 1511.15 709.345C1500.22 715.185 1489.73 721.82 1478.84 727.7C1451.37 742.48 1423.86 757.26 1396.15 771.404C1377.77 780.899 1358.87 789.362 1340.49 798.817C1327.48 805.492 1315.02 813.12 1302.25 820.232C1295.88 823.808 1289.4 827.145 1282.99 830.602C1266.45 839.422 1250 848.441 1233.34 857.062C1222.41 862.704 1211.19 867.75 1198.42 873.908C1198.08 876.612 1198.08 879.348 1198.42 882.052C1201.07 895.57 1198.27 909.579 1190.61 921.068C1189.3 923.259 1187.58 925.175 1185.53 926.709C1175.36 934.298 1165.23 941.886 1154.74 948.998C1151.66 950.633 1148.25 951.582 1144.77 951.779C1134.95 953.413 1124.91 953.014 1115.26 950.607C1105.61 948.2 1096.57 943.837 1088.71 937.794C1071.41 974.187 1047.22 999.058 1002.13 991.708C1001.42 996.291 999.729 1000.67 997.182 1004.56C994.636 1008.45 991.288 1011.76 987.359 1014.27C972.984 1022.66 960.971 1035.85 942.872 1036.88C937.186 1037.24 931.42 1036.48 925.694 1036.52C910.198 1036.52 896.784 1030.25 884.171 1023.25C878.405 1031.99 873.159 1040.46 867.433 1048.6C855.42 1065.61 838.322 1073.04 818.141 1075.78C803.5 1077.47 788.701 1074.43 775.937 1067.12C770.66 1064.43 766.186 1060.42 762.96 1055.49C759.735 1050.55 757.872 1044.86 757.557 1038.99C757.357 1037.4 757.117 1035.85 756.877 1034.3C756.877 1034.06 756.476 1033.82 755.836 1033.03C753.667 1034 751.555 1035.08 749.509 1036.29C732.491 1047.33 714.752 1051.9 694.171 1046.77C670.88 1041.07 649.915 1028.41 634.107 1010.5C626.099 1001.48 622.936 989.404 622.095 977.207C621.895 974.743 621.814 972.24 621.614 969.26C614.657 969.955 607.663 970.22 600.672 970.055C578.889 968.267 560.63 959.805 549.218 940.218C545.214 933.662 541.21 927.305 536.765 921.028C531.612 913.913 528.318 905.641 527.179 896.953C526.04 888.265 527.091 879.432 530.238 871.246C530.354 870.655 530.354 870.048 530.238 869.458C523.529 867.887 516.923 865.91 510.457 863.538C498.809 858.26 488.698 850.141 481.066 839.938C480.312 838.572 479.223 837.416 477.901 836.576C476.579 835.736 475.065 835.239 473.498 835.131C454.879 834.813 437.18 828.774 419.001 825.755C400.822 822.735 382.042 818.603 363.703 814.471C346.284 810.498 329.026 806.088 311.648 801.678C292.308 796.99 273.168 792.143 254.148 786.66C243.456 783.64 233.005 779.628 222.434 776.211C202.733 769.814 182.953 763.696 163.372 757.061C150.478 752.651 137.785 747.605 125.052 742.679C116.202 739.262 107.633 735.011 98.5838 732.11C77.6417 725.436 56.4194 719.675 35.4773 712.921C24.3456 709.265 13.6544 704.299 2.88303 699.968V674.223C12.0527 674.621 19.2202 678.673 26.9083 681.812C38.3604 686.54 50.333 690.076 62.1054 694.009C83.8082 701.28 105.591 708.193 127.174 715.741C137.104 719.238 146.474 724.323 156.365 727.66C177.72 735.262 199.17 742.533 220.712 749.472C242.215 756.465 263.918 762.941 285.541 769.576C288.009 770.154 290.509 770.592 293.028 770.887C298.754 765.166 299.355 757.736 301.037 750.784C304.721 737.434 308.565 724.085 312.409 710.775C313.173 708.921 313.285 706.865 312.725 704.939C312.166 703.014 310.968 701.333 309.326 700.167C296.752 688.606 282.417 678.514 273.768 663.297C269.571 656.219 265.865 648.865 262.676 641.287C257.225 629.106 253.583 616.205 251.865 602.987C251.144 594.763 250.303 586.578 250.023 578.354C249.736 562.188 252.451 546.107 258.032 530.916C261.903 519.862 267.394 509.433 274.329 499.966C278.333 494.205 279.574 493.291 289.104 490.868C293.109 492.974 293.109 496.152 291.267 499.728C289.264 504.019 287.262 508.349 285.42 512.72C276.131 534.492 269.724 556.979 270.765 580.857C271.219 606.39 278.771 631.303 292.588 652.848C301.798 666.516 315.292 676.686 328.626 686.699C332.39 689.519 336.194 692.34 340.198 694.645C357.584 705.391 376.955 712.59 397.178 715.821C418.48 719.277 440.183 722.019 461.646 715.543C472.813 712.871 483.414 708.257 492.959 701.915C496.936 699.323 501.053 696.949 505.292 694.804C512.424 690.552 518.479 684.735 522.99 677.799C527.731 671.429 532.102 664.796 536.084 657.934C540.017 650.68 543.017 642.965 545.014 634.97C551.201 608.731 551.201 581.43 545.014 555.191C541.834 542.214 536.164 529.966 528.316 519.116C517.509 503.683 504.21 490.125 488.955 478.989C472.416 467.391 453.071 460.358 432.896 458.607C418.938 456.929 404.8 457.465 391.012 460.196C382.483 461.984 373.793 463.335 365.144 464.566C355.078 466.532 345.466 470.33 336.795 475.77C334.914 476.961 332.931 477.985 330.868 478.83C328.509 479.836 325.875 480.014 323.4 479.335C320.925 478.656 318.757 477.161 317.254 475.095C315.517 472.816 314.662 469.994 314.846 467.143C315.029 464.292 316.239 461.601 318.255 459.56C319.482 458.037 320.925 456.699 322.54 455.587C340.078 445.496 358.297 437.431 378.959 436.398C380.673 436.227 382.372 435.935 384.044 435.524C386.687 421.539 389.21 408.03 391.812 394.284C377.477 389.436 363.503 384.351 349.288 379.981C335.954 376.008 322.219 373.107 309.246 368.578C296.272 364.049 283.178 358.328 270.365 352.686C245.619 341.76 220.712 331.112 196.407 319.193C180.39 311.247 165.534 301.474 150.038 292.733C143.151 288.76 135.743 285.78 128.976 281.688C102.067 265.359 75.079 249.109 48.5711 232.144C34.6765 223.682 21.3825 213.312 8.00842 203.419C6.08514 202.245 4.51844 200.576 3.47493 198.589C2.43141 196.603 1.95011 194.372 2.08219 192.136C2.44257 185.541 2.16227 178.786 2.16227 170.84L20.0211 183.475C33.3951 193.089 47.2097 202.108 60.0632 212.438C68.5922 219.351 78.5227 223.443 87.5722 229.284C98.9842 236.673 110.516 243.904 122.209 250.857C140.788 261.862 159.528 272.669 178.268 283.515C185.956 287.965 193.844 292.177 201.572 296.547C225.798 310.175 252.266 318.955 277.212 331.073C280.936 332.9 284.66 334.688 288.464 336.357C305.034 343.599 322.143 349.563 339.637 354.196C360.219 359.798 380.24 367.307 400.381 374.418C417.967 381.007 435.971 386.435 454.278 390.668C467.973 393.568 481.307 398.296 494.921 401.673C512.548 405.998 530.427 409.235 548.457 411.368C568.679 413.831 588.7 417.883 608.881 420.625C630.624 423.525 652.447 425.949 674.27 428.174C693.57 430.12 712.91 431.551 732.291 433.1C750.71 434.57 769.13 436.04 787.589 437.073C791.379 437.05 795.115 436.181 798.52 434.53C808.731 430.2 818.942 425.75 828.872 420.784C836.881 416.811 844.329 412.043 851.977 407.514C861.547 401.872 870.997 395.992 880.607 390.39C885.492 387.529 890.657 385.066 895.663 382.444C898.018 381.481 900.196 380.139 902.109 378.471C908.356 371.399 917.005 370.128 925.454 368.697C927.156 368.331 928.915 368.315 930.623 368.649C932.331 368.984 933.951 369.663 935.385 370.644C943.113 378.868 953.644 382.047 963.174 386.973C981.434 395.983 999.174 405.998 1016.31 416.97C1029.28 425.629 1042.72 433.586 1056.55 440.808C1073.17 449.389 1090.47 456.7 1107.45 464.646C1112.09 466.831 1116.66 469.096 1121.1 471.519C1122.85 472.63 1124.89 473.221 1126.97 473.221C1129.05 473.221 1131.08 472.63 1132.83 471.519C1149.77 462.063 1166.99 453.045 1183.85 443.47C1195.42 436.914 1206.35 429.207 1218.12 423.048C1225.93 419.075 1234.14 415.619 1241.75 411.129C1252.08 404.852 1263.17 399.806 1273.5 393.568C1287.36 385.185 1300.81 376.047 1314.5 367.346C1337.81 352.487 1361.23 337.787 1384.54 322.888C1399.27 313.472 1413.81 303.698 1428.58 294.362C1438.51 288.084 1448.6 281.847 1458.98 276.404C1474.84 267.567 1489.98 257.511 1504.26 246.328C1521.88 233.336 1539.54 220.344 1557.44 207.71C1565.45 201.989 1574.3 197.38 1582.43 191.818C1599.48 180.098 1616.14 167.98 1633.2 156.259C1650.26 144.539 1667.88 133.772 1684.85 122.091C1700.35 111.483 1715.37 100.16 1730.58 89.1549L1748 76.5604V112.794C1738.55 119.151 1728.98 125.349 1719.69 131.905C1707.24 140.645 1695.22 150.022 1682.57 158.524C1666.79 169.172 1650.54 178.906 1634.52 189.553C1611.86 204.81 1589.55 220.622 1567.05 236.117C1548.75 248.712 1530.37 261.227 1512.07 273.821C1497.98 283.515 1484.04 293.686 1469.71 302.944C1454.37 312.558 1438.19 320.822 1422.66 330.079C1409.36 338.025 1396.39 346.567 1383.02 355.03C1383.84 357.375 1384.8 359.67 1385.9 361.903C1391.82 371.995 1397.82 382.033 1403.88 392.019C1412.13 405.567 1420.66 418.916 1428.66 432.544C1434.75 442.913 1440.32 453.601 1445.92 464.328C1451.53 475.055 1456.89 485.067 1461.94 495.556C1467.87 507.475 1473.51 519.394 1479.32 531.313C1484 540.928 1488.97 550.384 1493.41 560.038C1498.75 571.799 1503.93 583.718 1508.95 595.796C1515.88 612.443 1522.52 629.209 1529.29 645.935L1537.3 666.357C1541.19 665.093 1544.95 663.484 1548.55 661.549C1559.88 653.454 1572.14 646.719 1585.07 641.485C1586.48 640.799 1587.82 639.973 1589.07 639.022C1599.76 632.069 1610.38 624.997 1621.11 618.204C1627.55 614.231 1634.12 610.257 1640.85 606.721C1655.82 598.775 1670.8 591.266 1685.93 583.837C1704.23 574.897 1720.97 562.939 1740.47 556.343C1743.01 555.065 1745.38 553.477 1747.52 551.616L1748 581.93ZM1106.73 746.016C1107.21 748.122 1107.17 748.876 1107.53 749.274C1116.58 759.524 1125.58 769.735 1134.75 779.866C1139.84 785.428 1145.57 790.474 1150.21 796.394C1157.7 805.81 1164.55 815.703 1171.59 825.476C1174.72 829.847 1177.88 834.257 1180.72 838.826C1184.17 844.388 1187.33 850.109 1190.93 856.387L1336.41 772.953C1334.48 766.08 1333.12 759.921 1331.08 754.041C1323.07 730.68 1314.66 707.438 1306.5 684.116C1305.37 680.898 1304.85 677.402 1303.41 674.303C1295.72 658.013 1287.84 641.764 1279.99 625.554C1274.1 613.277 1268.42 600.881 1262.09 588.843C1253.88 573.269 1244.99 558.012 1236.66 542.478C1233.7 536.915 1231.7 530.837 1228.85 525.155C1220.52 508.389 1212.09 491.689 1203.55 475.055C1201.87 471.797 1199.74 468.778 1197.58 465.202C1194.22 467.348 1191.85 468.897 1189.57 470.367C1184.3 473.914 1178.81 477.113 1173.11 479.942C1161.1 485.067 1150.57 493.212 1137.08 494.086C1136.11 494.13 1135.17 494.462 1134.39 495.04C1128.75 499.728 1123.1 497.781 1117.42 495.04C1110.17 491.742 1102.88 488.643 1095.75 485.147C1080.42 477.598 1064.84 470.486 1050.07 461.984C1031.61 451.376 1013.79 439.576 995.728 428.213C990.362 424.796 985.357 420.784 979.711 417.764C963.534 408.997 947.197 400.455 930.7 392.138C929.307 391.462 927.789 391.074 926.24 390.999C924.691 390.924 923.143 391.163 921.69 391.701C913.063 395.777 904.728 400.437 896.744 405.646C879.573 417.036 861.692 427.333 843.208 436.477C838.122 439.02 832.636 440.847 827.511 443.311C816.7 448.555 806.289 454.793 795.157 459.203C768.769 469.811 744.424 484.312 719.077 496.947C716.663 498.114 714.631 499.934 713.214 502.198C711.797 504.461 711.053 507.075 711.068 509.74C708.466 531.433 704.982 553.006 701.618 574.58C700.818 579.864 699.136 584.989 697.895 590.233C695.252 601.278 692.849 612.363 689.886 623.368C684.641 643.472 679.155 663.576 673.869 683.917C675.832 685.068 677.896 686.039 680.036 686.818C704.381 692.42 725.724 685.308 743.663 669.376C766.577 648.675 786.758 625.18 803.726 599.451C811.142 588.818 817.145 577.281 821.585 565.124C825.229 554.675 828.592 544.107 831.996 533.578C832.548 531.083 833.916 528.839 835.885 527.194C837.854 525.549 840.316 524.595 842.887 524.48C852.097 523.884 852.017 523.923 855.42 531.631C856.782 534.77 858.584 537.71 860.386 541.166C865.999 541.524 871.63 541.524 877.243 541.166C885.252 540.133 893.26 537.948 901.589 536.597C908.716 535.445 913.602 537.71 915.203 542.597C916.208 545.435 916.194 548.531 915.166 551.361C914.137 554.191 912.156 556.582 909.557 558.131C907.195 559.641 904.752 561.032 902.47 562.462C901.629 574.063 905.153 584.631 908.436 595.12C910.999 603.066 914.723 611.012 917.406 619.197C922.715 636.208 932.194 651.648 944.995 664.132C947.206 665.938 949.318 667.861 951.321 669.893C960.806 680.997 972.593 689.941 985.878 696.115C1006.98 706.325 1028.44 714.986 1052.11 716.735C1063.56 717.569 1075.17 719.754 1086.42 718.642C1103.48 716.933 1120.3 712.801 1137.24 709.822C1140.36 709.17 1143.54 708.89 1146.73 708.987C1151.65 709.265 1159.1 715.463 1159.46 719.039C1159.81 722.341 1159.13 725.669 1157.5 728.57C1155.87 731.471 1153.38 733.804 1150.37 735.249C1143.48 737.633 1136.52 739.897 1129.43 741.606C1122.34 743.314 1114.53 744.546 1106.73 746.016V746.016ZM501.007 457.693C507.294 463.096 513.701 467.944 519.307 473.585C527.876 482.087 535.804 491.265 544.253 499.887C555.742 512.278 563.787 527.421 567.597 543.828C573.083 564.727 573.123 586.419 572.122 607.993C572.122 611.966 569.84 616.217 570.32 620.15C571.642 630.48 567.197 639.459 564.074 648.557C558.87 662.169 551.576 674.901 542.451 686.301C537.114 694.129 530.319 700.871 522.43 706.166C521.047 706.951 519.932 708.127 519.226 709.543C515.222 719.118 506.413 723.846 498.164 728.137C476.08 739.862 451.048 744.995 426.089 742.917C417.119 742.202 416.518 745.46 415.197 751.419C411.753 767.311 408.95 783.005 405.667 800.009C427.37 803.506 448.232 810.975 471.256 813.756C471.256 807.359 470.896 801.837 471.256 796.672C472.137 785.786 474.66 775.098 482.708 767.152C492.993 757.254 504.432 748.611 516.784 741.407C522.236 738.805 527.448 735.734 532.36 732.229C539.139 726.495 546.668 721.697 554.744 717.966C563.495 714.045 571.03 707.872 576.567 700.088C581.652 692.499 589.621 690.672 598.47 691.347C613.786 692.822 628.366 698.581 640.514 707.954C646.461 711.793 650.989 717.445 653.416 724.06C655.842 730.674 656.036 737.892 653.968 744.625C653.448 746.612 653.288 748.598 652.847 751.499C679.635 745.38 703.38 748.201 722.841 767.947C730.934 763.939 739.264 760.423 747.787 757.418C762.162 753.128 776.217 757.935 789.991 761.391C801.686 764.735 812.581 770.383 822.025 777.999C831.836 785.508 839.083 793.653 840.164 806.605C841.074 817.667 840.264 828.802 837.762 839.62C836.721 844.15 835.76 848.719 834.558 854.201C842.567 854.201 849.094 853.764 855.701 854.201C860.485 854.492 865.149 855.807 869.373 858.057C873.596 860.307 877.278 863.437 880.166 867.233C887.374 876.53 890.217 887.416 893.34 898.501C899.627 920.75 898.746 942.959 895.463 965.327C893.621 977.763 891.699 990.119 889.777 1002.67C893.528 1004.75 897.437 1006.53 901.469 1008C909.573 1010.77 917.927 1012.77 926.415 1013.96C933.655 1014.84 941.003 1013.99 947.838 1011.45C956.918 1007 965.541 1001.67 973.585 995.562C974.563 994.898 975.389 994.036 976.008 993.032C976.628 992.029 977.026 990.907 977.177 989.74C977.328 988.573 977.229 987.388 976.886 986.262C976.543 985.136 975.964 984.094 975.186 983.206C973.65 981.176 972.309 979.008 971.182 976.73C966.858 966.241 959.17 958.335 951.441 950.349C943.713 942.363 936.426 934.854 929.538 926.511C918.327 913.161 907.595 899.415 896.824 885.747C894.224 882.583 891.981 879.146 890.137 875.497C889.618 874.077 889.394 872.568 889.477 871.06C889.561 869.552 889.952 868.076 890.625 866.722C891.298 865.367 892.24 864.161 893.395 863.177C894.55 862.193 895.893 861.451 897.345 860.995C899.959 860.167 902.769 860.17 905.383 861.003C907.996 861.837 910.281 863.459 911.92 865.644C919.928 875.179 927.937 884.675 935.505 894.289C942.272 902.593 948.598 911.294 955.526 919.359C968.78 934.695 984.036 948.323 993.766 966.479C994.809 968.37 996.543 969.792 998.611 970.452C1010.4 973.352 1022.86 971.941 1033.69 966.479C1046.49 959.713 1056.67 948.927 1062.64 935.807C1063.77 933.885 1064.24 931.651 1063.99 929.438C1063.74 927.226 1062.77 925.154 1061.24 923.531C1051.95 912.684 1042.46 901.997 1033.21 891.19C1025.2 881.854 1016.91 872.557 1009.18 863.022C1000.65 852.851 992.565 842.282 983.956 832.151C974.346 820.788 964.335 809.783 954.565 798.539C950.561 794.01 946.556 789.521 942.953 784.713C938.228 778.356 933.863 771.721 929.378 765.206C924.894 758.69 930.7 754.399 933.382 750.188C936.065 745.976 940.95 747.724 944.554 750.188C948.165 752.611 951.413 755.527 954.204 758.849C961.452 767.589 967.979 776.966 975.267 785.706C982.554 794.447 991.083 803.108 998.651 812.087C1010.1 825.675 1021.15 839.62 1032.53 853.327C1041.42 864.015 1050.23 874.822 1059.68 885.112C1069.93 896.196 1077.97 909.546 1091.99 916.896C1095.99 918.962 1100 921.068 1103.6 923.451C1113.74 929.734 1125.98 931.79 1137.64 929.173C1153.21 926.232 1163.1 914.552 1172.35 902.712C1173.27 901.055 1173.75 899.198 1173.76 897.309C1175.36 883.302 1171.38 869.227 1162.66 858.095C1161.34 856.307 1160.22 854.4 1159.02 852.533C1150.4 838.529 1140.65 825.242 1129.87 812.803C1119.49 801.307 1109.14 789.759 1098.84 778.158C1090.83 769.139 1083.18 759.842 1075.01 751.022C1072.85 748.818 1070.05 747.345 1067 746.81C1058.55 745.539 1049.99 744.983 1041.5 744.228C1026.34 742.354 1011.55 738.201 997.65 731.912C988 727.939 978.51 723.409 969.22 718.642C957.308 712.475 946.489 704.423 937.186 694.804C929.899 687.374 923.492 678.911 916.925 670.965C908.156 660.04 900.308 648.637 896.904 634.572C895.102 626.984 891.338 619.872 889.176 612.323C884.811 597.266 880.927 582.089 876.683 566.316C869.515 566.316 861.667 566.038 853.859 566.554C852.7 566.866 851.636 567.457 850.763 568.275C849.89 569.093 849.234 570.112 848.853 571.242C846.051 583.559 839.203 593.928 833.117 604.655C823.469 621.439 812.046 637.155 799.041 651.537C787.749 664.291 775.016 675.654 762.603 687.533C752.172 698.255 739.101 706.088 724.683 710.259C704.662 715.543 685.441 717.688 666.021 708.034C653.288 701.677 645.6 692.459 650.885 677.759C652.287 673.786 653.568 669.813 654.649 665.84C660.055 645.458 664.579 624.799 670.946 604.695C678.955 579.784 682.959 554.198 687.604 528.731C689.846 516.573 692.769 504.575 696.013 492.656C696.99 489.389 699.104 486.574 701.979 484.71C714.272 477.439 726.965 470.844 739.418 463.851C743.983 461.348 748.268 458.408 754.074 454.793C751.981 454.145 749.838 453.666 747.667 453.363C732.731 452.846 717.755 452.727 702.82 451.972C675.431 450.581 648.042 449.27 621.094 443.43C612.685 441.602 604.116 440.41 595.587 439.457C580.131 437.351 564.594 435.484 549.098 433.458C536.204 431.67 523.351 429.485 510.177 427.776C507.214 436.835 504.411 445.218 501.728 453.641C501.364 454.967 501.122 456.323 501.007 457.693V457.693ZM1215.28 454.793C1222.89 469.374 1229.73 482.604 1236.62 495.675L1254.24 529.247C1258.24 537.193 1262.25 545.14 1266.69 552.768C1272.5 562.939 1279.15 572.633 1284.47 583.082C1292.48 599.173 1299.97 615.661 1307.78 631.95C1313.78 644.465 1320.59 656.662 1325.96 669.416C1332.2 684.235 1337.37 699.531 1342.89 714.629C1344.5 719.039 1345.74 723.608 1347.22 728.097C1350.06 736.798 1352.94 745.539 1355.95 754.2C1356.95 757.061 1358.35 759.802 1359.55 762.623C1365.72 759.643 1371.12 757.14 1376.45 754.399C1397.27 743.566 1418.08 732.693 1438.87 721.78C1446.31 718.206 1453.54 714.227 1460.54 709.861C1474.72 700.143 1489.71 691.637 1505.34 684.434C1512.51 681.136 1512.87 680.461 1510.63 672.753C1503.66 650.125 1495.14 627.997 1485.12 606.523C1477.76 590.035 1471.03 573.308 1463.82 556.78C1456.61 540.253 1446.16 524.202 1438.99 506.919C1430.51 486.577 1418.97 467.427 1408.52 447.88C1398.07 428.332 1387.22 408.428 1376.49 388.801C1372.72 381.967 1368.48 375.451 1363.64 367.585C1339.61 382.96 1316.03 398.694 1291.8 412.957C1267.57 427.22 1241.63 440.371 1215.28 454.793ZM648.683 977.763C647.802 985.073 654.289 995.045 664.7 1002.36C673.132 1008.07 681.994 1013.13 691.207 1017.49C705.943 1024.84 720.398 1022.1 733.892 1014.04C737.278 1011.78 739.736 1008.4 740.82 1004.5C746.906 980.464 757.117 957.977 767.047 935.41C772.613 922.657 779.06 910.38 785.106 897.786C790.072 887.257 794.316 876.371 799.482 866.001C801.531 860.681 804.873 855.945 809.212 852.215C817.54 846.613 818.301 838.786 818.381 830.602C818.381 815.703 817.02 802.314 800.282 794.527C787.171 787.847 772.852 783.823 758.158 782.687C754.344 782.234 750.48 782.926 747.066 784.673C740.845 789.047 735.101 794.054 729.928 799.612C717.395 812.842 713.911 830.999 705.062 846.295C698.775 857.261 694.171 869.14 688.044 880.185C680.036 894.846 670.586 908.831 662.497 923.491C654.409 938.152 649.804 954.521 648.683 977.763ZM706.343 785.389C703.24 782.082 699.632 779.28 695.652 777.085C680.837 771.642 665.901 769.616 652.006 780.065C643.117 786.739 633.827 792.977 625.378 799.93C613.966 809.545 603.475 820.232 592.023 829.728C578.199 841.492 566.393 855.407 557.066 870.928C551.581 879.788 548.657 890.475 554.223 900.845C558.228 908.076 562.832 914.87 567.437 921.743C570.561 926.431 573.203 932.113 577.568 935.251C584.262 940.483 592.368 943.63 600.863 944.294C609.358 944.959 617.86 943.112 625.298 938.986C627.391 937.662 628.949 935.651 629.703 933.305C636.59 912.764 647.882 894.528 659.374 876.371C661.376 873.193 663.699 870.173 665.38 866.796C676.112 845.302 686.683 823.728 697.414 802.195C699.937 797.03 702.82 791.825 706.223 785.389H706.343ZM827.351 872.557C825.872 874.611 824.534 876.761 823.347 878.993C819.342 888.211 815.939 897.706 811.574 906.804C800.206 929.812 790.829 953.736 783.545 978.319C778.298 995.061 778.298 1012.99 783.545 1029.73C786.628 1039.07 792.794 1047.33 803.566 1048.05C819.583 1049.12 834.999 1047.29 846.131 1032.59C852.42 1024.71 857.136 1015.72 860.025 1006.09C865.027 989.443 868.511 972.383 870.436 955.116C872.298 935.272 870.946 915.259 866.432 895.839C864.15 886.145 858.784 878 847.012 876.649C840.885 876.013 834.598 874.067 827.231 872.557H827.351ZM493.319 807.598C493.64 817.173 493.92 820.669 500.247 826.708C506.725 833.022 514.089 838.375 522.11 842.6C528.797 845.977 534.763 840.852 539.808 836.283C556.025 821.662 572.362 807.081 588.419 792.222C600.712 780.859 613.646 769.894 621.414 754.637C623.648 750.119 625.432 745.395 626.74 740.533C627.416 738.228 627.238 735.76 626.239 733.574C625.241 731.388 623.486 729.628 621.294 728.614C617.361 725.921 613.177 723.606 608.801 721.701C598.95 718.165 589.26 716.298 580.291 724.879C575.275 729.281 569.814 733.155 563.994 736.441C543.201 748.634 523.448 762.493 504.931 777.88C499.773 781.636 496.319 787.262 495.321 793.533C494.681 798.261 493.88 802.91 493.199 807.598H493.319ZM314.891 777.999C338.636 782.687 360.379 790.633 383.964 794.606C388.529 776.251 392.813 758.849 397.338 740.613C386.025 738.14 374.851 735.076 363.863 731.435C352.658 726.685 341.699 721.381 331.028 715.543C325.463 736.838 320.337 756.664 314.771 777.999H314.891ZM485.711 422.81C482.465 421.302 479.136 419.975 475.741 418.837C456.801 413.632 437.821 408.586 418.841 403.461C413.115 401.912 411.874 402.706 410.312 408.745C408.75 414.784 407.068 420.307 405.747 426.108C405.505 428.22 405.505 430.352 405.747 432.464C431.134 433.815 455.6 436.954 479.985 446.449L485.711 422.81Z" fill="#0E2043"/>
<path d="M732.771 364.208C732.771 373.385 726.965 377.557 720.238 375.253C716.749 373.895 713.524 371.946 710.708 369.492C696.013 357.573 681.477 345.376 666.942 333.218C664.331 330.957 662.662 327.811 662.262 324.395C661.862 320.979 662.76 317.538 664.78 314.743C665.665 313.308 666.873 312.095 668.31 311.201C669.747 310.307 671.373 309.755 673.061 309.59C674.748 309.424 676.452 309.649 678.037 310.247C679.623 310.845 681.047 311.799 682.198 313.035C697.574 327.1 712.71 341.522 727.646 356.063C729.728 358.528 731.453 361.27 732.771 364.208V364.208Z" fill="#0E2043"/>
<path d="M840.605 252.168C853.618 254.195 857.983 258.525 856.221 270.921C854.339 284.27 857.262 297.342 856.862 310.651C856.862 315.061 856.862 319.511 856.501 323.882C856.512 325.852 855.785 327.756 854.461 329.225C853.136 330.693 851.309 331.621 849.334 331.828C844.889 332.424 840.365 331.47 839.003 326.941C836.801 320.052 835.324 312.955 834.598 305.765C833.437 293.567 833.718 281.211 832.356 269.054C831.475 260.909 836 256.777 840.605 252.168Z" fill="#0E2043"/>
<path d="M1001.49 344.382C1003.42 340.917 1005.66 337.632 1008.18 334.569C1018.27 324.358 1031.01 317.564 1042.94 309.857C1047.34 307.415 1052.27 306.053 1057.31 305.884C1058.53 305.771 1059.76 305.937 1060.9 306.367C1062.04 306.798 1063.07 307.482 1063.91 308.368C1064.74 309.254 1065.36 310.318 1065.72 311.478C1066.07 312.638 1066.16 313.864 1065.96 315.061C1065.99 318.236 1065.15 321.36 1063.53 324.097C1061.91 326.834 1059.56 329.081 1056.75 330.596C1044.74 337.588 1032.73 345.177 1021.27 352.924C1019.44 354.445 1017.2 355.389 1014.82 355.637C1012.45 355.885 1010.05 355.424 1007.94 354.315C1006.02 353.443 1004.4 352.044 1003.25 350.284C1002.11 348.524 1001.5 346.476 1001.49 344.382V344.382Z" fill="#0E2043"/>
<path d="M433.657 595.478C431.134 607.397 428.972 617.608 426.809 627.779C426.627 629.544 425.752 631.167 424.373 632.297C422.994 633.427 421.223 633.973 419.442 633.818C418.503 633.595 417.618 633.188 416.84 632.622C416.061 632.056 415.405 631.341 414.909 630.519C414.413 629.697 414.087 628.786 413.951 627.838C413.815 626.889 413.871 625.924 414.116 624.997C416.479 615.184 419.041 605.371 422.124 595.716C423.126 592.419 425.648 588.922 429.853 590.551C431.695 591.346 432.816 594.405 433.657 595.478Z" fill="#0E2043"/>
<path d="M357.656 608.43C357.937 612.403 355.574 614.826 352.411 614.032C350.283 613.515 348.359 612.381 346.885 610.774C341.359 604.655 336.114 598.299 330.868 592.021C330.487 591.516 330.164 590.97 329.907 590.392C328.931 588.909 328.531 587.125 328.782 585.371C329.032 583.617 329.916 582.013 331.269 580.857C334.912 578.036 338.156 580.619 340.278 583.32C345.884 590.551 351.049 598.14 356.295 605.609C356.835 606.506 357.291 607.45 357.656 608.43Z" fill="#0E2043"/>
<path d="M461.606 600.722C458.402 610.257 455.239 619.793 451.996 629.328C451.807 630.026 451.458 630.672 450.976 631.214C450.494 631.756 449.892 632.18 449.217 632.453C448.543 632.727 447.813 632.841 447.087 632.788C446.36 632.736 445.656 632.517 445.028 632.149C443.547 631.473 442.786 628.891 441.985 627.063C441.789 626.133 441.872 625.166 442.225 624.282C444.468 615.462 446.79 606.682 448.952 597.862C449.153 596.281 449.96 594.837 451.205 593.831C452.451 592.825 454.039 592.333 455.639 592.458C458.643 592.538 461.005 596.67 461.606 600.722Z" fill="#0E2043"/>
<path d="M408.83 544.305C407.028 552.251 405.347 560.197 403.184 568.143C403.008 569.006 402.634 569.817 402.091 570.513C401.547 571.209 400.849 571.771 400.051 572.155C399.253 572.54 398.376 572.736 397.489 572.729C396.602 572.723 395.728 572.513 394.936 572.116C393.727 571.259 392.735 570.134 392.04 568.831C391.345 567.528 390.966 566.081 390.932 564.607C391.477 560.218 392.552 555.909 394.135 551.774C395.176 548.119 396.537 544.583 397.458 540.928C398.139 538.147 398.179 534.69 402.063 534.889C403.685 535.028 405.207 535.722 406.369 536.853C407.53 537.984 408.259 539.481 408.43 541.087C408.67 541.961 408.71 542.954 408.83 544.305Z" fill="#0E2043"/>
<path d="M377.237 616.813C379.519 607.278 381.241 599.53 383.364 591.942C384.062 589.795 385.473 587.946 387.368 586.697C388.261 586.146 389.264 585.793 390.308 585.663C391.351 585.533 392.411 585.628 393.414 585.943C394.215 586.589 394.848 587.418 395.259 588.358C395.671 589.299 395.848 590.323 395.777 591.346C394.455 599.292 392.653 606.88 390.731 614.548C390.302 616.714 389.109 618.658 387.368 620.031C386.356 620.653 385.224 621.059 384.045 621.224C382.866 621.388 381.666 621.306 380.521 620.985C378.558 620.309 377.678 617.488 377.237 616.813Z" fill="#0E2043"/>
<path d="M348.647 541.842C345.964 551.973 344.002 560.952 340.999 569.653C340.233 570.917 339.17 571.978 337.901 572.746C336.632 573.514 335.194 573.966 333.711 574.063C330.268 574.063 329.707 570.09 330.508 567.229C332.51 558.012 334.512 548.834 337.275 539.776C338.156 536.756 340.799 533.498 344.362 535.366C346.565 536.359 347.486 539.975 348.647 541.842Z" fill="#0E2043"/>
<path d="M363.583 582.486C362.742 579.268 361.1 576.606 361.621 574.54C363.943 565.124 366.826 555.827 369.629 546.729C370.51 543.987 372.552 541.127 375.916 542.756C377.718 543.59 379.92 546.729 379.92 548.239C378.118 559.601 376.917 571.362 367.907 580.023C366.531 580.952 365.085 581.775 363.583 582.486V582.486Z" fill="#0E2043"/>
<path d="M472.137 558.568C469.814 564.885 467.252 572.99 463.888 580.738C462.206 584.711 457.802 584.194 455.88 580.46C455.068 579.109 454.717 577.535 454.879 575.97C456.56 567.667 458.322 559.403 460.565 551.258C461.01 550.332 461.684 549.534 462.524 548.936C463.364 548.339 464.343 547.962 465.37 547.841C467.62 548.619 469.566 550.078 470.936 552.013C471.736 553.046 471.536 555.032 472.137 558.568Z" fill="#0E2043"/>
<path d="M469.414 643.075C467.216 642.816 465.045 642.364 462.927 641.724C462.163 641.475 461.457 641.075 460.852 640.548C460.247 640.021 459.756 639.378 459.408 638.658C459.06 637.938 458.863 637.156 458.828 636.358C458.792 635.56 458.92 634.764 459.204 634.016C460.044 630.56 462.487 629.646 465.81 630.282C468.013 630.679 470.255 630.758 472.457 631.116C477.503 631.91 480.065 634.374 479.945 638.108C479.825 641.843 477.383 643.273 469.414 643.075Z" fill="#0E2043"/>
<path d="M362.461 540.332C359.543 539.662 356.728 538.607 354.093 537.193C352.331 536.041 350.329 532.982 350.729 531.393C351.238 530.281 352.023 529.315 353.011 528.586C353.998 527.856 355.155 527.387 356.375 527.221C360.469 527.258 364.529 527.97 368.388 529.327C369.232 529.72 369.966 530.314 370.525 531.055C371.083 531.797 371.45 532.663 371.591 533.578C371.283 535.677 370.18 537.581 368.508 538.902C367.146 539.975 364.864 539.895 362.461 540.332Z" fill="#0E2043"/>
<path d="M413.595 592.816C410.078 591.388 406.711 589.618 403.545 587.532C402.769 586.799 402.227 585.857 401.985 584.822C401.742 583.787 401.811 582.705 402.181 581.708C402.551 580.711 403.208 579.843 404.069 579.212C404.93 578.581 405.959 578.213 407.028 578.155C410.19 578.292 413.305 578.964 416.238 580.142C417.011 580.34 417.734 580.694 418.362 581.183C418.99 581.673 419.508 582.286 419.884 582.984C420.261 583.683 420.487 584.451 420.549 585.241C420.61 586.03 420.506 586.824 420.242 587.571C419.442 589.876 415.998 591.068 413.595 592.816Z" fill="#0E2043"/>
<path d="M353.853 588.009C350.114 585.244 346.738 582.027 343.802 578.434C342.28 575.97 345.964 572.951 349.728 573.03C354.573 573.03 359.939 577.003 359.098 580.46C358.498 582.923 356.375 584.79 353.853 588.009Z" fill="#0E2043"/>
<path d="M1471.15 646.412C1471.24 652.769 1470.06 659.081 1467.66 664.976C1465.26 670.872 1461.69 676.231 1457.17 680.739C1455.45 682.377 1453.38 683.612 1451.12 684.354C1448.85 685.097 1446.45 685.327 1444.08 685.03C1428.58 685.03 1414.09 682.289 1402.08 671.124C1396.83 665.959 1393.6 659.119 1392.95 651.815C1390.06 631.037 1401.24 608.788 1424.3 604.139C1436.31 601.795 1446.8 606.801 1456.33 613.158C1468.51 621.144 1470.83 633.46 1471.15 646.412ZM1440.08 661.589C1442.4 658.994 1444.13 655.934 1445.15 652.615C1446.17 649.297 1446.46 645.799 1446 642.36C1446 636.519 1442.44 633.659 1437.15 631.474C1429.42 628.176 1423.9 632.983 1417.45 635.089C1416.97 638.546 1416.45 641.645 1416.13 644.743C1415.33 652.69 1417.41 655.868 1424.9 657.974C1429.75 659.523 1434.71 660.318 1440.08 661.589V661.589Z" fill="#0E2043"/>
</g>
<defs>
<clipPath id="clip0_6_61">
<rect width="1748" height="1096" fill="white"/>
</clipPath>
</defs>
</svg>
