<svg width="19" height="19" viewBox="0 0 19 19" fill="none" xmlns="http://www.w3.org/2000/svg">
<circle cx="9.5" cy="9.5" r="9.5" fill="black"/>
<path d="M7.01455 14H5.14866V7.99116H7.01455V14ZM6.0806 7.1715C5.48395 7.1715 5 6.67729 5 6.08063C5 5.79403 5.11385 5.51917 5.3165 5.31651C5.51915 5.11385 5.79401 5 6.0806 5C6.3672 5 6.64205 5.11385 6.8447 5.31651C7.04736 5.51917 7.16121 5.79403 7.16121 6.08063C7.16121 6.67729 6.67705 7.1715 6.0806 7.1715ZM13.998 14H12.1361V11.0749C12.1361 10.3778 12.1221 9.48383 11.166 9.48383C10.1959 9.48383 10.0472 10.2412 10.0472 11.0247V14H8.18335V7.99116H9.9729V8.81082H9.99902C10.2481 8.33871 10.8566 7.84049 11.7645 7.84049C13.6529 7.84049 14 9.08404 14 10.6993V14H13.998Z" fill="white"/>
</svg>
