<svg width="74" height="39" viewBox="0 0 74 39" fill="none" xmlns="http://www.w3.org/2000/svg">
<path d="M40.9732 32.63C38.3632 37.96 30.9032 37.41 26.9732 33.1C26.6632 33.54 26.3232 33.94 26.0732 34.38C25.4232 35.53 24.2632 35.86 23.1732 36.38C21.6332 37.16 20.0732 36.87 18.5532 36.72C16.6276 36.5179 14.8012 35.7644 13.2932 34.55C11.0432 32.76 10.5532 30.26 10.7732 27.55C10.9332 25.55 10.9132 23.55 11.0532 21.48C11.0579 20.5141 11.2981 19.564 11.7529 18.7119C12.2077 17.8598 12.8634 17.1315 13.6632 16.59C14.189 16.2918 14.7334 16.0279 15.2932 15.8C14.1532 14.96 13.1532 14.29 12.3132 13.47C11.895 12.9461 11.5331 12.3796 11.2332 11.78C11.1039 11.5476 10.9044 11.3621 10.6632 11.25C9.98117 11.0992 9.34382 10.791 8.80209 10.3499C8.26036 9.90891 7.82927 9.34731 7.54325 8.71C6.9809 7.45429 6.85078 6.04756 7.17325 4.71C7.33325 3.35 9.09325 2.31 10.5932 2.43C11.978 2.60829 13.3482 2.88567 14.6932 3.26C14.9057 3.32162 15.1298 3.33199 15.3471 3.29027C15.5644 3.24855 15.7687 3.15593 15.9432 3.02C16.6208 2.53028 17.4199 2.23623 18.2532 2.17C19.672 2.03611 21.0967 2.35466 22.3232 3.08C23.2332 3.72 24.0632 4.46 24.9232 5.15L25.7232 5.81C25.7367 5.18996 25.9013 4.58258 26.2028 4.0406C26.5043 3.49863 26.9335 3.03844 27.4532 2.7C28.1427 2.2877 28.9213 2.04759 29.7232 2C30.6451 2.02905 31.5593 2.17694 32.4432 2.44C33.1451 2.5777 33.7794 2.94939 34.2426 3.49432C34.7058 4.03925 34.9704 4.72518 34.9932 5.44C34.9884 5.46645 34.9884 5.49356 34.9932 5.52C35.0832 6.13 34.9932 6.98 35.3132 7.3C35.9206 7.75402 36.6551 8.00587 37.4132 8.02C38.093 8.06558 38.7464 8.30047 39.2995 8.6981C39.8526 9.09574 40.2835 9.64024 40.5432 10.27L40.7732 10.64C40.7523 10.3345 40.7123 10.0305 40.6532 9.73C40.3883 8.15104 40.3883 6.53896 40.6532 4.96C40.8732 3.08 42.7632 2.38 44.4432 2.4C45.1532 2.4 45.8532 2.48 46.5632 2.53C47.2965 2.72133 47.9574 3.12371 48.464 3.68723C48.9707 4.25075 49.3007 4.95062 49.4132 5.7C49.4132 6.35 49.4132 7 49.4132 7.7C49.9332 7.76 50.4132 7.86 50.8832 7.88C51.7408 8.01803 52.5211 8.45735 53.0838 9.11904C53.6465 9.78073 53.9548 10.6214 53.9532 11.49C53.9532 13 53.9532 14.49 54.0332 16.02C54.0332 16.27 54.3632 16.59 54.6232 16.73C55.4752 17.1673 56.1786 17.8469 56.6448 18.6833C57.1111 19.5197 57.3193 20.4754 57.2432 21.43C57.3383 23.6162 57.3183 25.8059 57.1832 27.99C57.0232 29.71 57.2332 31.55 56.1832 33.13C55.526 34.4128 54.5344 35.4943 53.3132 36.26C52.1362 37.0404 50.6999 37.3277 49.3132 37.06C48.4797 36.9598 47.6519 36.8163 46.8332 36.63C45.3855 36.0669 43.9902 35.3776 42.6632 34.57C42.0162 34.0013 41.4478 33.3489 40.9732 32.63V32.63ZM12.3932 26.99C12.3482 27.8294 12.3482 28.6706 12.3932 29.51C12.4101 30.7665 12.9201 31.966 13.8132 32.85C14.8613 33.6972 16.1127 34.2557 17.4432 34.47C18.1975 34.6348 18.9775 34.6438 19.7354 34.4965C20.4933 34.3491 21.2131 34.0486 21.8508 33.6132C22.4884 33.1778 23.0303 32.6168 23.4435 31.9645C23.8566 31.3123 24.1321 30.5825 24.2532 29.82C24.5032 27.82 24.5732 25.73 24.7432 23.69C24.8336 23.2472 24.9004 22.7999 24.9432 22.35C24.8632 20.85 24.7132 19.35 24.6132 17.86C24.5332 16.73 24.3932 15.59 24.4232 14.46C24.4532 13.33 24.6632 12.05 24.7332 10.85C24.8586 10.1064 24.8142 9.34402 24.6032 8.62C23.9132 7.07 23.2732 5.48 21.6032 4.62C20.8449 4.14 19.9658 3.88517 19.0682 3.88517C18.1707 3.88517 17.2916 4.14 16.5332 4.62C15.9696 4.91973 15.325 5.03183 14.6932 4.94C13.5832 4.8 12.5132 4.4 11.4032 4.25C10.7614 4.1686 10.1095 4.2441 9.50325 4.47C8.50325 4.86 8.05325 6.97 8.91325 7.59C9.48595 7.99948 10.1357 8.28863 10.8232 8.44C12.5432 8.79 12.6932 8.83 12.8232 10.54C12.9532 12.25 13.5232 12.54 15.0732 12.93C16.1932 13.18 16.8232 12.69 17.0732 11.56C17.1928 10.7902 17.3734 10.0312 17.6132 9.29C17.6876 9.11364 17.8009 8.95637 17.9447 8.82996C18.0884 8.70355 18.2588 8.61126 18.4432 8.56C18.8838 8.57566 19.3019 8.75794 19.6132 9.07C19.8495 9.38112 20.0149 9.74013 20.0978 10.1219C20.1807 10.5036 20.1791 10.8989 20.0932 11.28C20.0932 12.63 20.1432 13.98 20.1532 15.28C20.1532 15.91 19.8332 16.28 19.2132 16.41C18.0932 16.73 17.0032 17.15 15.9032 17.51C15.0012 17.7597 14.2117 18.3104 13.666 19.0708C13.1202 19.8312 12.8511 20.7555 12.9032 21.69C12.8744 22.1739 12.8109 22.6552 12.7132 23.13C12.5572 23.7352 12.4403 24.3498 12.3632 24.97C12.3286 25.6433 12.3386 26.3181 12.3932 26.99V26.99ZM50.6832 11.32C50.8132 9.51 50.7932 9.48 49.5932 9.32C49.1332 9.25 48.6732 9.2 48.2232 9.15C47.0332 9 46.7832 8.79 46.5132 7.59C46.3832 6.99 46.3032 6.37 46.2132 5.76C46.1144 5.29197 45.8657 4.86891 45.5048 4.55493C45.1439 4.24095 44.6905 4.05316 44.2132 4.02C43.7653 3.98673 43.3198 4.1116 42.9543 4.37289C42.5889 4.63417 42.3267 5.01532 42.2132 5.45C42.0732 6.22 42.0932 7.02 42.0032 7.8C41.8221 8.83614 42.0088 9.90302 42.531 10.8161C43.0533 11.7291 43.8783 12.4309 44.8632 12.8C44.9886 12.8647 45.0988 12.9551 45.1867 13.0654C45.2746 13.1757 45.3382 13.3034 45.3732 13.44C45.5132 14.54 45.6132 15.65 45.6432 16.76C45.6159 16.9061 45.5582 17.0448 45.4737 17.1671C45.3893 17.2894 45.2801 17.3926 45.1532 17.47C42.5532 18.47 41.9432 20.72 41.8132 23.12C41.6848 25.2558 41.7116 27.3981 41.8932 29.53C42.0732 31.45 42.6632 33.3 44.8432 33.98C46.0032 34.35 47.1832 34.67 48.3632 34.98C48.5445 35.0192 48.732 35.0192 48.9132 34.98C49.6658 34.8694 50.3874 34.6044 51.0327 34.2017C51.678 33.7991 52.2331 33.2674 52.6632 32.64C53.7331 31.3937 54.2748 29.7794 54.1732 28.14C54.0632 27.08 54.1732 25.99 54.1732 24.92C54.2417 23.6258 54.1679 22.3281 53.9532 21.05C53.7918 20.4014 53.4895 19.7964 53.0678 19.2779C52.6461 18.7594 52.1153 18.3402 51.5132 18.05C51.203 17.9175 50.9408 17.6931 50.762 17.407C50.5832 17.121 50.4964 16.7869 50.5132 16.45C50.5332 14.53 50.6232 12.64 50.6832 11.32ZM29.1532 22.02C28.4632 21.84 28.0832 22.26 27.9132 22.86C27.734 23.4827 27.6233 24.1232 27.5832 24.77C27.5832 26.4 27.6832 28.05 27.4832 29.66C27.4405 30.1868 27.5234 30.7161 27.725 31.2046C27.9267 31.6931 28.2414 32.1268 28.6432 32.47C29.8232 33.84 31.3932 34.15 33.1732 34.22C34.3849 34.2448 35.5675 33.8473 36.5181 33.0956C37.4687 32.3438 38.1281 31.2848 38.3832 30.1C38.5989 28.3421 38.6691 26.5694 38.5932 24.8C38.5932 23.16 38.4432 21.51 38.5932 19.89C38.8452 17.2136 38.6765 14.5142 38.0932 11.89C37.9956 11.3586 37.7374 10.8699 37.3532 10.49C36.6324 9.72058 35.6534 9.24356 34.6032 9.15C33.9801 9.08872 33.368 8.94409 32.7832 8.72C32.5014 8.68302 32.2433 8.543 32.0587 8.32695C31.874 8.1109 31.7759 7.83412 31.7832 7.55C31.8147 6.88133 31.7778 6.21119 31.6732 5.55C31.6554 5.20013 31.5427 4.86171 31.3471 4.57104C31.1516 4.28036 30.8806 4.04839 30.5632 3.9C30.2132 3.71201 29.8151 3.63253 29.4197 3.67171C29.0243 3.7109 28.6496 3.86696 28.3432 4.12C27.956 4.45781 27.6563 4.88445 27.47 5.36338C27.2836 5.84232 27.2161 6.35928 27.2732 6.87C27.3063 8.07903 27.4401 9.2832 27.6732 10.47C27.7522 10.9294 27.9892 11.3468 28.3432 11.65C29.5241 12.6749 31.0206 13.2643 32.5832 13.32C32.8649 13.3365 33.1406 13.4088 33.3941 13.5327C33.6476 13.6566 33.874 13.8296 34.06 14.0418C34.2461 14.2539 34.3882 14.5009 34.478 14.7684C34.5678 15.0359 34.6036 15.3186 34.5832 15.6C34.5832 18.49 34.6632 21.39 34.5832 24.28C34.5832 25.55 35.0232 26.84 34.4432 28.12C34.2841 28.474 34.0254 28.7741 33.6987 28.9836C33.372 29.1931 32.9914 29.3031 32.6032 29.3C31.7132 29.13 31.6732 28.4 31.6032 27.72C31.5432 26.54 31.4932 25.35 31.5032 24.16C31.3986 23.5958 31.1124 23.0812 30.6881 22.6949C30.2638 22.3085 29.7248 22.0715 29.1532 22.02V22.02ZM33.1532 21.39C33.1532 19.59 33.1532 17.85 33.1532 16.12C33.1532 15.24 32.8732 14.86 32.0332 14.79C30.7873 14.7213 29.5824 14.3208 28.5432 13.63C28.2714 13.465 27.9872 13.3212 27.6932 13.2V20.29C29.6032 20.47 31.5632 19.74 33.1532 21.39ZM41.8132 18.07C42.1549 17.7188 42.5456 17.4191 42.9732 17.18C44.1432 16.78 44.1732 15.9 44.0832 14.93C44.0784 14.9036 44.0784 14.8764 44.0832 14.85C44.2132 14.22 43.9032 13.85 43.3832 13.55C42.9114 13.2432 42.4783 12.8806 42.0932 12.47C41.8373 12.1752 41.6001 11.8646 41.3832 11.54L41.8132 18.07Z" fill="#0E2043"/>
<path d="M66.7633 33.67C66.7449 34.247 66.589 34.8114 66.3087 35.3162C66.0284 35.8209 65.6317 36.2516 65.1516 36.5723C64.6715 36.893 64.1218 37.0946 63.5482 37.1603C62.9745 37.2259 62.3935 37.1539 61.8533 36.95C60.9933 36.55 60.1033 36.22 59.2933 35.74C58.8152 35.469 58.4263 35.0646 58.1741 34.5763C57.9219 34.0879 57.8174 33.5367 57.8733 32.99C57.9633 31.58 58.2133 30.29 59.7333 29.56C60.5478 29.1889 61.4715 29.1354 62.3233 29.41C62.7633 29.52 63.1933 29.67 63.6233 29.81C64.0533 29.95 64.8833 30.01 65.2333 30.37C65.7054 30.782 66.0856 31.2888 66.3492 31.8573C66.6128 32.4258 66.7539 33.0434 66.7633 33.67V33.67ZM61.4433 34.27C61.6577 34.2938 61.8747 34.2723 62.0802 34.2069C62.2858 34.1415 62.4753 34.0337 62.6365 33.8904C62.7977 33.7471 62.927 33.5715 63.016 33.3751C63.1051 33.1786 63.1518 32.9656 63.1533 32.75C63.1533 31.95 62.4633 31.37 61.4033 31.34C61.2077 31.3052 61.0068 31.3161 60.8161 31.3718C60.6254 31.4275 60.4502 31.5265 60.3041 31.661C60.1579 31.7955 60.0448 31.962 59.9736 32.1474C59.9023 32.3328 59.8749 32.5322 59.8933 32.73C59.892 32.9334 59.9312 33.1351 60.0088 33.3232C60.0863 33.5113 60.2006 33.6821 60.3449 33.8255C60.4893 33.9689 60.6607 34.082 60.8493 34.1584C61.0379 34.2347 61.2399 34.2726 61.4433 34.27Z" fill="#0E2043"/>
<path d="M19.9133 24.17C19.9133 25.44 19.9633 26.7 19.9133 27.97C19.8633 29.24 19.0633 29.71 18.0533 29.26C17.7941 29.1168 17.57 28.9178 17.3971 28.6774C17.2241 28.437 17.1067 28.1612 17.0533 27.87C16.9934 26.2524 17.0334 24.6326 17.1733 23.02C17.1887 22.7008 17.3184 22.3979 17.5387 22.1665C17.759 21.9351 18.0553 21.7908 18.3733 21.76C19.0533 21.67 19.3733 22.22 19.5633 22.76C19.7533 23.3 19.9633 23.7 20.1633 24.17H19.9133Z" fill="#0E2043"/>
<path d="M46.5933 27.3599C46.6433 26.2899 46.6833 25.0499 46.7833 23.8099C46.796 23.4881 46.9178 23.1802 47.1285 22.9367C47.3393 22.6932 47.6266 22.5286 47.9433 22.4699C48.6633 22.3399 48.9433 22.9399 49.2333 23.4699C49.9233 24.4699 49.5833 25.5699 49.6733 26.6199C49.6889 27.2881 49.6554 27.9566 49.5733 28.6199C49.4933 29.5299 48.9533 30.1599 48.2933 30.1399C47.8538 30.1346 47.4342 29.9563 47.1253 29.6437C46.8164 29.3311 46.6432 28.9093 46.6433 28.4699C46.6133 28.1799 46.6133 27.8599 46.5933 27.3599Z" fill="#0E2043"/>
</svg>
