<svg width="438" height="614" viewBox="0 0 438 614" fill="none" xmlns="http://www.w3.org/2000/svg">
<g clip-path="url(#clip0_8_86)">
<g clip-path="url(#clip1_8_86)">
<path d="M368.51 668.26C369.04 661.57 369.62 654.88 370.1 648.18C370.45 643.18 370.62 638.18 370.99 633.26C371.33 628.68 371.93 624.13 372.24 619.56C372.57 614.65 372.66 609.72 372.92 604.81C373.173 598.696 373.787 592.602 374.76 586.56C375.56 581.98 376.28 577.39 377.04 572.8C377.048 572.402 377.14 572.01 377.31 571.65C378.52 569.98 378.75 568 379.31 566.1C380.095 563.706 381.04 561.367 382.14 559.1C384.223 554.273 386.029 549.332 387.55 544.3C389.16 539.38 390.9 534.49 392.65 529.62C394.1 525.55 395.72 521.55 397.14 517.48C397.74 515.79 397.96 513.98 398.46 512.26C399.36 509.2 400.37 506.18 401.27 503.13C402.17 500.08 402.99 497.28 403.76 494.33C404.35 492.02 404.76 489.66 405.35 487.33C405.547 486.222 405.439 485.082 405.04 484.03C404.45 481.45 404.04 478.82 403.21 476.3C402.347 473.367 401.275 470.499 400 467.72C398.55 464.72 396.68 461.83 395 458.87C394.33 457.66 393.84 456.35 393.23 455.1C391.49 451.59 389.76 448.1 387.98 444.59C386.2 441.08 384.64 437.79 382.03 434.95C380.32 433.1 378.76 431.11 377.16 429.16C376.31 428.16 375.43 427.3 373.93 427.84C373.539 427.919 373.133 427.874 372.77 427.71C369.77 426.59 366.77 427.18 363.77 427.71C359.69 428.622 355.521 429.072 351.34 429.05C349.18 428.95 346.99 429.53 344.81 429.71C342.369 429.829 339.943 430.164 337.56 430.71C335.669 431.052 333.752 431.233 331.83 431.25C327.83 431.6 323.74 431.79 319.74 432.37C317.97 432.63 316 432.27 314.36 433.53C313.94 433.85 313.08 433.6 312.36 433.59C310.983 433.477 309.601 433.443 308.22 433.49C303.33 433.96 298.46 434.62 293.57 435.05C289.57 435.41 285.48 435.49 281.45 435.8C278.14 436.05 274.86 436.5 271.55 436.8C270.17 436.91 268.78 436.8 267.38 436.8C265.062 436.601 262.739 437.114 260.72 438.27C260.411 438.457 260.157 438.722 259.982 439.038C259.806 439.353 259.716 439.709 259.72 440.07C259.561 442.464 259.719 444.868 260.19 447.22C260.415 447.902 260.682 448.57 260.99 449.22C261.61 450.91 262.12 452.64 262.82 454.29C263.849 456.671 265.314 458.838 267.14 460.68C270 463.68 273.59 465.49 277.14 467.44C280.791 469.482 284.672 471.083 288.7 472.21C290.759 472.719 292.851 473.083 294.96 473.3C301.45 474.14 307.96 473.86 314.5 473.85C318.678 473.803 322.85 473.536 327 473.05C330.48 472.67 333.92 471.94 337.38 471.35C340.05 470.9 342.73 470.43 345.38 469.96C345.953 469.815 346.534 469.705 347.12 469.63C348.082 469.469 349.066 469.489 350.02 469.69C351.396 470.172 352.906 470.1 354.23 469.49C357.033 468.377 360.089 468.062 363.06 468.58C363.636 468.596 364.183 468.835 364.584 469.248C364.986 469.661 365.21 470.214 365.21 470.79C365.289 471.289 365.176 471.799 364.894 472.219C364.612 472.638 364.182 472.935 363.69 473.05C362.618 473.411 361.507 473.646 360.38 473.75C358.118 473.886 355.907 474.478 353.88 475.49C350.96 476.92 348.06 478.41 345.22 479.99C343.953 480.718 342.772 481.586 341.7 482.58C339 485.04 336.39 487.58 333.7 490.11C330.375 493.471 327.513 497.262 325.19 501.38C323.59 503.99 321.83 506.5 320.19 509.06C317.887 512.394 316.06 516.032 314.76 519.87C314.2 521.69 313.43 523.45 312.95 525.29C311.789 529.515 310.94 533.82 310.41 538.17C309.98 541.256 310.03 544.39 310.56 547.46C310.732 547.937 310.725 548.46 310.541 548.932C310.357 549.404 310.009 549.794 309.56 550.03C309.078 550.323 308.516 550.459 307.953 550.418C307.39 550.376 306.854 550.16 306.42 549.8C305.631 549.183 305.004 548.381 304.597 547.466C304.189 546.551 304.011 545.55 304.08 544.55C304.16 539.97 304.3 535.37 305.57 530.9C306.22 528.61 306.57 526.23 307.13 523.9C308.002 520.145 309.364 516.52 311.18 513.12C312.98 509.81 314.95 506.58 316.91 503.35C318.53 500.68 320.27 498.09 321.91 495.44C323.569 492.637 325.586 490.062 327.91 487.78C330.93 484.893 333.93 482 336.91 479.1C336.99 479.02 336.99 478.87 337.11 478.51C336.11 478.62 335.23 478.71 334.34 478.82C330.25 479.34 326.18 480.1 322.08 480.35C317.19 480.65 312.28 480.52 307.37 480.56C304.79 480.56 302.203 480.56 299.61 480.56C298.82 480.56 298.03 480.38 297.23 480.35C296.23 480.35 295.3 480.35 294.31 480.35C294.619 482.772 294.796 485.209 294.84 487.65C294.7 491.76 294.47 495.88 292.68 499.75C291.83 501.6 291.47 503.68 290.75 505.61C289.75 508.4 287.6 510.53 285.82 512.83C284.561 514.234 282.898 515.216 281.06 515.64C277.927 516.521 274.671 516.885 271.42 516.72C267.432 516.559 263.502 515.713 259.8 514.22C259.545 514.156 259.283 514.12 259.02 514.11C259.02 514.59 259.02 515.02 259.02 515.44C259.21 518.29 259.53 521.14 259.56 524C259.629 528.004 258.852 531.977 257.28 535.66C256.077 538.65 253.937 541.17 251.18 542.84C247.53 544.98 243.75 546.04 239.55 545.12C238.715 544.904 237.897 544.63 237.1 544.3C232.513 542.37 228.183 539.877 224.21 536.88C223.529 536.286 222.785 535.769 221.99 535.34C222.5 536.8 222.99 538.25 223.53 539.73C224.42 542.43 225.25 545.16 226.16 547.86C228.1 553.64 229.95 559.47 232.08 565.19C234.35 571.29 236.08 577.54 237.72 583.83C238.533 587.174 239.101 590.573 239.42 594C239.6 595.52 239.96 597 240.03 598.53C240.29 603.58 240.56 608.62 240.62 613.67C240.68 618.72 240.62 624.03 240.45 629.21C240.37 632.59 240.01 635.96 239.93 639.33C239.85 642.7 240.08 646.38 239.93 649.9C239.68 655.9 239.25 661.9 238.93 667.83C238.915 667.96 238.915 668.09 238.93 668.22H232.53C233.416 663.041 233.845 657.794 233.81 652.54C233.81 648.63 233.96 644.72 234.08 640.82C234.28 634.51 234.62 628.2 234.7 621.88C234.77 616.77 234.62 611.65 234.44 606.53C234.3 602.75 234.07 598.96 233.69 595.18C232.988 589.438 231.862 583.756 230.32 578.18C229.15 573.58 227.32 569.23 225.85 564.75C225.07 562.36 224.43 559.91 223.68 557.5C222.74 554.5 221.75 551.44 220.8 548.4C220.08 546.12 219.41 543.82 218.67 541.54C218.14 539.9 217.54 538.28 216.97 536.66C216.06 534.09 215.17 531.52 214.24 528.96C213.76 527.442 213.169 525.961 212.47 524.53C211.445 522.755 210.316 521.042 209.09 519.4C208.17 518.1 207.09 516.95 206.16 515.63C205.456 514.51 204.841 513.336 204.32 512.12C202.92 509.12 201.59 506.07 200.21 503.05C199.28 500.99 198.21 498.99 197.41 496.88C195.73 492.48 194.19 488.03 192.59 483.61C192.428 483.102 192.234 482.604 192.01 482.12C190.775 479.462 190.094 476.58 190.01 473.65C189.88 472.06 189.52 470.5 189.36 468.92C189.154 467.215 189.057 465.498 189.07 463.78C189.135 461 189.355 458.225 189.73 455.47C189.989 453.819 190.623 452.249 191.583 450.881C192.544 449.513 193.805 448.384 195.27 447.58C198.142 445.915 201.2 444.593 204.38 443.64C204.949 443.457 205.542 443.363 206.14 443.36C208.53 443.36 210.93 443.36 213.3 443.56C214.732 443.814 216.136 444.209 217.49 444.74C218.11 444.93 218.71 445.17 219.43 445.43C219.476 444.714 219.476 443.996 219.43 443.28C218.8 439.28 219.23 435.17 219.55 431.15C219.823 426.68 221.28 422.362 223.77 418.64C225.993 415.473 229.227 413.157 232.94 412.07C236.77 410.8 240.68 410.91 244.6 410.9C246.193 410.78 247.796 410.885 249.36 411.21C252.57 412.15 255.94 412.76 258.57 415.21C260.055 416.412 261.619 417.515 263.25 418.51C262.69 416.93 262.25 415.65 261.8 414.38C259.93 409.27 258.06 404.15 256.38 398.96C255.13 395.11 254 391.22 252.66 387.4C251.32 383.58 249.52 379.87 248 376C246.62 372.41 245.45 368.74 244.15 365.11C243.37 362.92 242.54 360.74 241.69 358.57C238.79 351.19 236.28 343.67 235.21 335.8C234.468 330.934 234.221 326.006 234.47 321.09C234.524 320.292 234.658 319.501 234.87 318.73C235.87 315.21 236.42 311.58 238.12 308.28C239.9 304.83 242.63 302.28 245.62 299.91C247.984 297.779 250.964 296.455 254.13 296.13C256.699 295.862 259.296 296.069 261.79 296.74C264.769 297.456 267.521 298.911 269.79 300.97C269.938 301.103 270.107 301.211 270.29 301.29C273.09 302.53 274.81 304.92 276.66 307.19C279.94 311.19 281.95 315.93 284.12 320.54C285.439 323.226 286.555 326.007 287.46 328.86C288.74 333.12 290.21 337.32 291.59 341.54C293.59 347.48 295.59 353.39 297.45 359.36C298.73 363.48 299.69 367.7 300.86 371.85C301.47 374.03 302.26 376.15 302.86 378.32C304.45 383.88 305.96 389.47 307.57 395.02C308.38 397.83 309.34 400.58 310.29 403.53C310.48 403.27 310.73 403.1 310.72 402.92C310.66 399.53 310.57 396.14 310.49 392.75C310.38 388.04 310.15 383.32 310.19 378.61C310.24 373.44 310.55 368.27 310.73 363.1C310.82 360.31 310.83 357.52 310.95 354.73C311.08 351.41 311.29 348.09 311.45 344.73C311.55 342.73 311.6 340.63 311.68 338.58C311.79 335.92 311.83 333.25 312.05 330.58C312.18 329.01 312.62 327.46 312.88 325.89C313.059 325.045 313.149 324.184 313.15 323.32C313.16 320.147 313.698 316.997 314.74 314C315.55 311.12 316.47 308.28 317.31 305.41C317.38 304.959 317.38 304.501 317.31 304.05C317.31 302.93 317.18 301.82 317.16 300.7C317.08 294.85 320 290 322.5 285.07C322.65 284.78 322.78 284.48 322.97 284.07C321.35 282.65 319.79 281.23 318.18 279.86C315 277.22 311.9 274.55 308.7 272C305.05 269 301.35 266.12 297.64 263.22C296.64 262.45 295.87 261.41 294.48 261.22C294.19 261.22 293.72 260.34 293.82 260.01C293.908 259.726 294.06 259.467 294.265 259.252C294.47 259.037 294.721 258.872 295 258.77C296.036 258.535 297.102 258.464 298.16 258.56C301.27 258.86 304.36 259.31 307.46 259.66C311.55 260.11 315.64 260.59 319.74 260.94C325.43 261.42 331.15 261.74 336.84 262.25C342.73 262.78 348.6 263.5 354.49 264.02C355.939 264.034 357.387 263.934 358.82 263.72C359.578 263.622 360.349 263.718 361.06 263.998C361.772 264.277 362.401 264.732 362.89 265.32C364.037 266.744 365.429 267.953 367 268.89C369 270.22 371.16 271.28 373.07 272.7C376.805 275.38 380.831 277.631 385.07 279.41C386.149 279.932 387.183 280.545 388.16 281.24C391.527 283.48 394.887 285.737 398.24 288.01C398.582 288.218 398.886 288.481 399.14 288.79C399.298 288.986 399.407 289.217 399.455 289.464C399.504 289.711 399.492 289.966 399.42 290.207C399.348 290.448 399.219 290.669 399.043 290.848C398.867 291.028 398.65 291.163 398.41 291.24C397.929 291.367 397.437 291.444 396.94 291.47C396.94 292.47 396.94 293.47 396.94 294.47C397.01 299.79 397.06 305.12 397.17 310.47C397.184 311.183 397.403 311.877 397.8 312.47C398.213 312.937 398.457 313.528 398.493 314.15C398.53 314.772 398.356 315.389 398 315.9C397.765 316.219 397.627 316.598 397.6 316.993C397.573 317.388 397.66 317.783 397.85 318.13C398.38 319.42 398.85 320.75 399.4 322.01C399.605 322.314 399.699 322.679 399.664 323.044C399.629 323.409 399.469 323.75 399.21 324.01C398.56 324.71 397.9 324.46 397.21 324.01C396.87 323.8 396.56 323.55 396.51 323.52C395.41 323.52 394.61 323.52 393.8 323.52C393.43 323.495 393.06 323.495 392.69 323.52C391.44 323.67 390.99 323.21 391.18 321.94C391.18 321.74 391.18 321.49 391.29 321.36C392.55 319.91 392.36 317.97 393 316.36C393.22 315.804 393.318 315.207 393.29 314.61C393.196 314.054 393.252 313.482 393.452 312.955C393.653 312.428 393.99 311.963 394.43 311.61C394.796 311.167 394.985 310.604 394.96 310.03C395.05 307.38 395.09 304.72 395.1 302.03C395.1 298.65 395.1 295.26 395.1 291.87C395.1 290.3 395 290.3 393.43 290.2C388.53 289.89 383.63 289.45 378.72 289.14C376.21 288.98 373.72 288.98 371.16 288.88C369.86 288.88 368.56 288.74 367.1 288.66C366.96 290.44 366.8 292.01 366.7 293.59C366.52 296.51 366.46 299.43 366.2 302.34C366.04 304.12 365.6 305.88 365.28 307.65C365.269 307.848 365.195 308.037 365.07 308.19C363.72 309.33 364.07 310.81 364.16 312.27C364.33 315.27 364.48 318.35 364.59 321.4C364.69 324.26 364.81 327.12 364.77 329.98C364.72 333.5 364.5 336.98 364.36 340.55L364 349.47C364 349.74 364 350.01 364 350.27C363.77 353.51 363.52 356.75 363.3 359.99C362.98 364.63 362.65 369.28 362.38 373.92C362.13 378.3 362.09 382.69 361.72 387.06C361.37 391.24 361.77 395.39 361.77 399.55C361.77 401.47 361.37 403.39 361.29 405.32C361.12 409.57 361.03 413.83 360.94 418.08C360.94 419.18 361.01 420.28 361.05 421.6C362.05 421.45 362.73 421.38 363.42 421.22C366.647 420.349 370.04 420.301 373.29 421.08C373.92 421.25 374.63 421.13 375.29 421.32C376.315 421.561 377.304 421.937 378.23 422.44C379.23 423.089 380.144 423.862 380.95 424.74C382.55 426.42 384.06 428.19 385.6 429.93C386.34 430.78 387.08 431.63 387.77 432.53C390.299 436.023 392.477 439.758 394.27 443.68C395.78 446.68 397.53 449.63 399.11 452.62C400.79 455.8 402.61 458.88 404.47 461.96C405.996 464.599 407.249 467.387 408.21 470.28C409.213 472.666 409.912 475.169 410.29 477.73C410.521 478.97 410.825 480.195 411.2 481.4C411.543 482.621 411.461 483.921 410.97 485.09C410.629 486.284 410.447 487.518 410.43 488.76C409.801 492.695 408.871 496.576 407.65 500.37C406.65 503.76 405.76 507.16 404.74 510.53C402.91 516.53 401.08 522.61 399.13 528.61C398.37 530.94 397.21 533.14 396.37 535.44C395.74 537.19 395.37 539.02 394.8 540.79C393.63 544.53 392.55 548.31 391.21 551.99C389.3 557.23 387.21 562.4 385.21 567.61C384.97 568.364 384.776 569.132 384.63 569.91C384.58 570.572 384.411 571.219 384.13 571.82C382.84 573.6 382.87 575.7 382.5 577.72C381.92 580.86 381.23 583.98 380.78 587.14C380.33 590.3 380.08 593.49 379.78 596.67C379.48 599.67 379.11 602.73 378.92 605.77C378.71 609.15 378.77 612.55 378.53 615.92C378.12 621.63 377.53 627.33 377.09 633.03C376.92 635.03 376.74 637.03 376.61 638.96C376.26 644.27 375.94 649.57 375.61 654.88C375.39 658.53 375.2 662.18 374.97 665.88C374.92 666.67 374.77 667.46 374.67 668.24L368.51 668.26ZM308.71 427.83C308.52 426.92 308.42 426.28 308.26 425.65C307.89 424.23 307.45 422.83 307.11 421.41C306.4 418.41 305.92 415.26 304.99 412.29C304.06 409.32 303.75 406.08 302.71 403.08C301.67 400.08 301.02 397.25 300.16 394.34C299.52 392.18 298.81 390.03 298.16 387.87C297.86 386.87 297.69 385.81 297.4 384.79C296.23 380.69 295.04 376.61 293.86 372.52C292.71 368.58 291.59 364.63 290.39 360.7C289.45 357.58 288.45 354.49 287.39 351.4C286.05 347.4 284.62 343.4 283.27 339.33C282.47 336.95 281.75 334.53 280.99 332.13C280.44 330.37 279.99 328.55 279.28 326.86C278.28 324.35 276.93 321.96 275.82 319.47C274.289 315.783 272.077 312.418 269.3 309.55C267.306 307.612 265.114 305.89 262.76 304.41C261.35 303.51 259.55 303.24 257.91 302.71C257.649 302.659 257.381 302.659 257.12 302.71L254 302.9C253.501 302.903 253.007 303.009 252.551 303.212C252.095 303.415 251.686 303.711 251.35 304.08C250.974 304.453 250.562 304.788 250.12 305.08C248.75 306.08 247.06 306.89 246.06 308.2C243.169 312.052 241.381 316.619 240.89 321.41C240.695 323.859 240.695 326.32 240.89 328.77C240.923 331.364 241.127 333.953 241.5 336.52C242.715 342.789 244.468 348.942 246.74 354.91C247.57 357.22 248.56 359.47 249.43 361.77C249.95 363.13 250.37 364.53 250.84 365.9C251.61 368.16 252.4 370.41 253.17 372.67C253.299 373.245 253.491 373.805 253.74 374.34C256.27 378.55 257.47 383.27 259.03 387.85C259.78 390.05 260.47 392.27 261.2 394.48C261.47 395.29 261.83 396.08 262.09 396.9C263.32 400.82 264.48 404.77 265.77 408.67C267.29 413.27 268.96 417.82 270.48 422.42C271.42 425.25 272.2 428.13 273.07 431.08C285 429.91 296.82 429.63 308.71 427.83ZM324.16 304.06C322.27 308.38 321.23 312.98 319.93 317.49C319.14 320.22 319.37 323.02 318.93 325.76C318.594 327.112 318.33 328.48 318.14 329.86C317.82 334.86 317.64 339.86 317.34 344.78C317.18 347.49 316.78 350.2 316.66 352.92C316.51 356.36 316.58 359.79 316.31 363.24C315.89 368.66 315.91 374.12 315.83 379.57C315.76 385.48 315.83 391.4 315.77 397.32C315.77 401.91 315.77 406.5 315.77 411.09C315.77 415.48 315.65 419.87 315.64 424.26C315.709 425.197 315.839 426.13 316.03 427.05C328.82 425.77 341.32 423.99 353.93 422.74V412.56C353.93 411.76 353.93 410.96 353.93 410.17C354.2 406.99 354.5 403.82 354.78 400.65C354.8 400.45 354.8 400.249 354.78 400.05C354.269 395.488 354.172 390.889 354.49 386.31C354.49 385.06 354.81 383.81 354.86 382.56C354.95 380.31 354.86 378.05 355 375.8C355.36 369.91 355.84 364.02 356.21 358.12C356.51 353.067 356.763 348.017 356.97 342.97C357.22 337.07 357.41 331.16 357.6 325.26C357.6 323.94 357.65 322.61 357.6 321.26C357.44 318.54 357.19 315.83 357 313.11C357.015 312.712 356.904 312.318 356.684 311.986C356.463 311.654 356.143 311.4 355.77 311.26C354.49 310.71 353.29 309.97 352.02 309.4C350.711 308.758 349.349 308.23 347.95 307.82C344.3 306.82 340.62 305.98 336.95 305.18C334.656 304.687 332.335 304.327 330 304.1C328.2 303.92 326.33 304.06 324.16 304.06ZM287.05 479L284.41 478C282.202 477.284 280.035 476.446 277.92 475.49C274.44 473.7 271.1 471.63 267.68 469.71C264.925 467.981 262.491 465.785 260.49 463.22C259.435 462.025 258.568 460.676 257.92 459.22C256.76 456.48 255.82 453.64 254.92 450.81C254.377 449.31 254.008 447.754 253.82 446.17C253.354 442.587 253.855 438.944 255.27 435.62C256.61 432.77 258.65 431.34 261.83 431.46C263.23 431.52 264.63 431.52 266.02 431.46C266.65 431.394 267.275 431.284 267.89 431.13C266.26 429.28 264.98 427.6 263.46 426.13C261.94 424.66 260.29 423.89 258.92 422.55C255.968 419.729 252.237 417.858 248.21 417.18C244.21 416.42 240.21 417.01 236.29 417.39C235.433 417.509 234.598 417.752 233.81 418.11C232.093 418.694 230.603 419.803 229.55 421.28C228.189 423.248 227.136 425.413 226.43 427.7C225.924 429.891 225.622 432.123 225.53 434.37C224.98 440.23 226.01 445.89 227.53 451.48C228.46 454.94 229.68 458.33 230.9 461.71C231.769 464.211 232.77 466.665 233.9 469.06C235.58 472.52 237.45 475.9 239.26 479.29C240.11 480.641 240.888 482.036 241.59 483.47C243.37 487.9 246.77 491.16 249.59 494.85C251.79 497.76 254.16 500.54 256.53 503.32C257.388 504.322 258.347 505.233 259.39 506.04C260.894 507.135 262.59 507.939 264.39 508.41C269.39 509.87 274.29 510.41 279.24 508.5C280.096 508.17 280.851 507.622 281.43 506.91C283.48 504.29 285.34 501.53 285.81 498.09C285.907 497.499 286.093 496.926 286.36 496.39C287.63 493.65 287.53 490.64 287.8 487.78C288.07 484.92 287.34 482.1 287.05 479ZM252.83 509.45C252.24 508.76 251.66 508.13 251.11 507.45C249.01 504.89 246.93 502.31 244.81 499.77C241.546 495.914 238.653 491.759 236.17 487.36C233.82 483.13 231.6 478.82 229.45 474.48C228.1 471.75 226.85 468.96 225.77 466.1C224.49 462.7 223.33 459.24 222.32 455.74C222.046 454.647 221.503 453.641 220.74 452.813C219.976 451.984 219.017 451.361 217.95 451C214.688 449.679 211.139 449.228 207.65 449.69C204.97 450.185 202.393 451.132 200.03 452.49C197.8 453.63 196.03 455.36 195.91 458.2C195.436 464.233 195.885 470.302 197.24 476.2C197.69 477.728 198.224 479.231 198.84 480.7C200.49 485.11 202.16 489.52 203.84 493.93C204.23 494.98 204.52 496.09 204.99 497.11C206.26 499.88 207.58 502.63 208.9 505.38C210.602 509.206 212.822 512.78 215.5 516C217.86 518.7 220.15 521.47 222.44 524.22C223.62 525.65 224.7 527.16 225.93 528.54C226.842 529.676 227.901 530.685 229.08 531.54C232.08 533.54 235.16 535.33 238.27 537.12C239.228 537.731 240.305 538.129 241.43 538.288C242.555 538.446 243.701 538.362 244.79 538.04C248.79 536.77 250.96 533.65 251.84 529.79C252.77 525.558 252.811 521.179 251.96 516.93C251.44 514.43 251.15 511.83 252.83 509.48V509.45Z" fill="#0E2043"/>
<path d="M386.24 247.47C386.53 248.443 386.54 249.479 386.267 250.457C385.995 251.435 385.452 252.317 384.7 253C383.42 254.06 382.12 255.09 380.82 256.11C379.14 257.41 377.45 258.69 375.76 259.98C375.444 260.228 375.109 260.451 374.76 260.65C373.44 261.39 372.92 261.33 372.14 260.41C371.763 260.023 371.552 259.505 371.552 258.965C371.552 258.425 371.763 257.907 372.14 257.52C373.35 256.2 374.65 254.96 375.99 253.76C377.52 252.39 379.22 251.19 380.69 249.76C382.16 248.33 384.14 247.82 386.24 247.47Z" fill="#0E2043"/>
<path d="M329.14 235C329.964 235.207 330.72 235.623 331.335 236.208C331.95 236.793 332.403 237.528 332.65 238.34C333.696 241.369 335.161 244.236 337 246.86C337.318 247.362 337.529 247.923 337.62 248.51C337.93 250.01 337.69 250.63 336.77 251.08C336.248 251.398 335.624 251.505 335.025 251.379C334.427 251.252 333.899 250.902 333.55 250.4C332.537 249.165 331.662 247.824 330.94 246.4C329.78 243.87 328.94 241.2 327.83 238.65C327.06 236.92 327.38 236.1 329.14 235Z" fill="#0E2043"/>
<path d="M291.85 284.65C292.7 284.76 293.55 284.86 294.4 284.99C296.11 285.25 297.82 285.47 299.51 285.81C300.213 285.968 300.875 286.275 301.45 286.71C301.796 286.982 302.042 287.361 302.151 287.788C302.259 288.215 302.224 288.665 302.05 289.07C301.96 289.461 301.755 289.816 301.461 290.089C301.166 290.362 300.797 290.54 300.4 290.6C299.556 290.786 298.694 290.87 297.83 290.85C295.12 290.52 292.42 290.13 289.75 289.62C289.421 289.555 289.108 289.427 288.829 289.241C288.551 289.055 288.311 288.815 288.125 288.536C287.94 288.258 287.811 287.945 287.746 287.616C287.682 287.287 287.683 286.948 287.75 286.62C287.84 285.85 289.67 284.62 290.66 284.62C291.06 284.62 291.45 284.7 291.85 284.75V284.65Z" fill="#0E2043"/>
</g>
<g clip-path="url(#clip2_8_86)">
<path d="M237.426 198.646L58.4993 206.739C52.4303 207.014 47.733 212.156 48.0076 218.225L50.4369 271.93C50.7114 277.999 55.8538 282.697 61.9228 282.422L240.85 274.328C246.919 274.054 251.616 268.911 251.341 262.842L248.912 209.137C248.638 203.068 243.495 198.371 237.426 198.646Z" fill="white"/>
<path d="M209.66 298.65L206.78 262.65H242.63L209.66 298.65Z" fill="white"/>
<path d="M212.67 273.24C211.61 273.24 210.53 273.24 209.45 273.24C206.17 273.34 202.88 273.44 199.59 273.61C197.36 273.72 195.14 273.98 192.91 274.11C190.47 274.25 188.03 274.31 185.59 274.41C181.42 274.59 177.26 274.79 173.09 274.98L164.44 275.35L161.71 275.52C159.71 275.64 157.62 275.8 155.57 275.88C152.23 276 148.88 276.05 145.57 276.19C142.9 276.29 140.22 276.48 137.57 276.64C135.48 276.76 133.4 276.92 131.31 277.01C128.04 277.15 124.77 277.22 121.51 277.36C117.37 277.54 113.24 277.78 109.1 277.96C105.68 278.1 102.27 278.18 98.85 278.32C96.01 278.43 93.17 278.58 90.34 278.73C87.9 278.85 85.47 279.02 83.03 279.1C80.26 279.2 77.48 279.21 74.7 279.29C73.38 279.29 72.06 279.53 70.7 279.56C66.77 279.64 62.84 279.89 58.91 279.98C58.01 279.98 56.84 280.29 56.41 279.12C56.2214 278.379 56.1439 277.614 56.18 276.85C56.12 275.31 56.11 273.77 56.06 272.23C56.06 271.76 55.93 271.29 55.91 270.81C55.81 268.31 55.7167 265.81 55.63 263.31C55.52 260.5 55.43 257.7 55.29 254.9C55.15 252.1 54.94 249 54.82 246.1C54.77 245.1 54.93 244 54.89 242.96C54.75 238.96 54.5767 234.96 54.37 230.96C54.21 228.14 53.97 225.32 53.74 222.51C53.74 222.07 53.55 221.65 53.49 221.22C53.3496 220.736 53.3155 220.228 53.39 219.73C53.92 218.2 53.45 216.73 53.31 215.24C53.17 213.75 52.89 212.42 52.8 211C52.71 209.42 52.71 207.82 52.8 206.24C52.8302 204.437 53.3863 202.682 54.4 201.19C55.16 200.1 56.4 200.05 57.49 199.91C59.14 199.69 60.81 199.64 62.49 199.52C64.17 199.4 65.64 199.26 67.22 199.17C69.46 199.04 71.69 198.96 73.93 198.85L84.59 198.29C88 198.12 91.38 197.7 94.8 197.79C98.22 197.88 101.8 197.13 105.35 197.32C106.688 197.288 108.023 197.188 109.35 197.02C111.03 196.93 112.71 196.9 114.35 196.84C115.35 196.84 116.44 196.76 117.49 196.7C119.69 196.56 121.88 196.4 124.08 196.27C125.9 196.17 127.73 196.12 129.55 196.02C131.13 195.93 132.72 195.79 134.31 195.7C136.6 195.57 138.9 195.41 141.2 195.34C144.66 195.22 148.13 195.22 151.58 195.06C153.91 194.96 156.23 194.59 158.58 194.47C161.93 194.31 165.28 194.32 168.58 194.18C170.4 194.11 172.2 193.88 174.01 193.74C175.6 193.63 177.2 193.51 178.79 193.47C180.38 193.43 181.79 193.53 183.21 193.47C184.63 193.41 186.21 193.15 187.72 193.05C190.79 192.84 193.87 192.63 196.95 192.49C199.59 192.37 202.23 192.37 204.88 192.26C207.53 192.15 210 191.79 212.55 191.91C214.04 191.97 215.4 191.43 216.89 191.55C218.347 191.563 219.803 191.486 221.25 191.32C222.77 191.25 224.25 191.22 225.81 191.14C228.51 191.01 231.2 190.82 233.91 190.7C235.05 190.7 236.2 190.78 237.34 190.76C238.27 190.76 239.21 190.63 240.14 190.58C243 190.4 245.69 190.34 248.4 190.05C249.508 189.833 250.658 190.009 251.65 190.547C252.643 191.086 253.417 191.953 253.84 193C254.07 193.49 254.41 193.93 254.65 194.42C254.81 194.74 255.22 195.13 254.56 195.42C254.49 195.42 254.45 195.72 254.5 195.85C255.5 198.92 255.38 202.09 255.39 205.25C255.39 207.65 255.33 210.05 255.39 212.45C255.39 212.98 255.65 213.51 255.65 214.04C255.65 215.18 255.51 216.31 255.52 217.45C255.52 219.87 255.66 222.29 255.72 224.72C255.72 225.42 255.45 226.08 255.88 226.85C256.17 227.34 255.88 228.16 255.88 228.85C255.93 230.78 256.04 232.72 256.1 234.65C256.1 235.29 256.02 235.93 256.02 236.58C256.02 238.48 256.11 240.38 256.11 242.28C256.11 244.18 256 246.07 256 247.96C256 249.85 256.06 251.89 256.14 253.86C256.29 257.14 256.5 260.42 256.63 263.7C256.63 264.51 256.36 265.33 256.44 266.12C256.509 266.924 256.748 267.705 257.14 268.41C257.67 269.28 257.05 269.84 256.76 270.41C256.621 270.744 256.368 271.019 256.046 271.186C255.724 271.352 255.354 271.4 255 271.32C254.632 271.27 254.258 271.27 253.89 271.32C252.99 271.39 252.1 271.5 251.2 271.54C249.28 271.62 247.35 271.66 245.43 271.73C243.8 271.79 242.17 271.88 240.55 271.94C239.55 271.94 238.55 271.94 237.55 272.02C237.191 271.981 236.829 272.078 236.538 272.293C236.248 272.508 236.048 272.825 235.98 273.18C235.929 273.344 235.836 273.492 235.71 273.61C234.71 274.61 233.71 275.54 232.81 276.52C232.3 277.05 231.81 277.65 231.34 278.18C229.51 280.18 227.61 282.03 225.86 284.04C224.79 285.26 224.05 286.77 222.98 287.98C221.63 289.5 220.08 290.84 218.62 292.26C217.97 292.9 217.35 293.57 216.68 294.19C215.84 294.99 214.98 295.85 213.68 295.51C211.99 295.07 211.92 293.98 212.33 292.31C212.42 291.96 212.62 291.55 212.52 291.31C211.81 289.46 212.13 287.61 212.35 285.73C212.64 283.18 212.89 280.63 213.01 278.07C212.98 276.455 212.866 274.843 212.67 273.24ZM61.14 276.14L73.06 275.62C76.68 275.44 80.29 275.24 83.91 275.05C86.65 274.91 89.39 274.79 92.13 274.63C95.13 274.46 98.22 274.24 101.26 274.07C103.7 273.94 106.14 273.87 108.58 273.75C110.48 273.65 112.38 273.51 114.27 273.41C116.71 273.27 119.15 273.15 121.59 273.05C122.94 272.99 124.29 273.05 125.59 272.96C129.19 272.773 132.793 272.567 136.4 272.34L142.19 272C143.26 271.93 144.32 271.82 145.39 271.78C146.46 271.74 147.47 271.78 148.51 271.78C150.31 271.78 152.11 271.7 153.91 271.61C155.91 271.52 157.83 271.34 159.79 271.24C162.39 271.11 164.99 271.05 167.58 270.92C171.01 270.74 174.44 270.48 177.87 270.32C181.3 270.16 184.53 270.07 187.87 269.95C188.68 269.95 189.49 269.85 190.3 269.8C191.73 269.72 193.15 269.61 194.58 269.55C196.51 269.48 198.45 269.44 200.38 269.37C202.96 269.28 205.53 269.17 208.11 269.06L212.97 268.81C213.92 268.76 214.86 268.67 215.81 268.67C216.19 268.686 216.559 268.802 216.879 269.008C217.199 269.213 217.459 269.5 217.631 269.84C217.803 270.179 217.882 270.558 217.859 270.938C217.836 271.317 217.712 271.684 217.5 272C217.327 272.249 217.236 272.546 217.24 272.85C217.24 274 217.32 275.15 217.41 276.3C217.599 279.506 217.421 282.724 216.88 285.89C216.88 286.04 216.98 286.21 217.06 286.47C218.176 285.419 219.181 284.256 220.06 283C221.48 280.45 223.66 278.59 225.56 276.48C225.81 276.21 226.1 275.98 226.33 275.7C227.08 274.83 227.77 273.92 228.54 273.07C229.31 272.22 230.21 271.44 231.02 270.59C231.164 270.363 231.24 270.099 231.24 269.83C231.46 268.11 232.38 267.21 234.13 267.41C236.902 267.585 239.685 267.495 242.44 267.14C244.74 266.95 247.05 266.83 249.36 266.72C250.11 266.72 250.79 266.42 250.68 265.66C250.581 264.46 250.608 263.254 250.76 262.06C250.76 260.54 250.68 259.021 250.52 257.51C250.39 254.44 250.26 251.36 250.16 248.29C250.16 247.29 250.16 246.29 250.16 245.35C250.16 243.53 250.31 241.71 250.3 239.89C250.3 237.14 250.17 234.4 250.1 231.65C250.1 231.42 250.1 231.18 250.1 230.94C250.1 229.76 250.18 228.58 250.1 227.41C249.99 225.21 249.7 223.01 249.66 220.81C249.66 217.99 249.97 215.19 249.71 212.35C249.5 210.06 249.71 207.73 249.66 205.42C249.66 204.61 249.66 203.8 249.58 202.99C249.49 201.4 249.46 199.81 249.27 198.23C249.1 196.9 248.64 195.68 246.92 195.73C246.65 195.73 246.38 195.73 246.11 195.73C244.11 195.84 242.18 195.96 240.21 196.05C237.74 196.16 235.26 196.25 232.79 196.35C230.79 196.43 228.73 196.53 226.69 196.58C226.06 196.58 225.42 196.37 224.79 196.41C223.08 196.53 221.37 196.8 219.65 196.9C215.36 197.13 211.07 197.31 206.78 197.49C203.13 197.64 199.48 197.75 195.83 197.89C195.626 197.903 195.422 197.926 195.22 197.96C192.75 198.14 190.28 198.37 187.81 198.5C185.81 198.61 183.81 198.58 181.75 198.66C178.02 198.82 174.29 199.04 170.56 199.19C167.86 199.3 165.15 199.3 162.45 199.41C161.13 199.41 159.81 199.66 158.45 199.73C154.69 199.937 150.93 200.127 147.17 200.3C146.57 200.3 145.97 200.17 145.37 200.13C145.081 200.1 144.789 200.1 144.5 200.13C143.94 200.21 143.38 200.38 142.82 200.41C139.76 200.563 136.697 200.693 133.63 200.8C131.06 200.88 128.48 200.89 125.91 201C122.79 201.13 119.68 201.36 116.56 201.51C113.44 201.66 110.45 201.71 107.4 201.85C104.05 202 100.7 202.21 97.35 202.36C93.02 202.56 88.7 202.73 84.35 202.9C83.78 202.9 83.2 202.83 82.64 202.9C81.18 203 79.73 203.18 78.27 203.26C74.82 203.43 71.37 203.55 67.93 203.71C66.1114 203.919 64.2794 203.989 62.45 203.92C61.0386 203.759 59.6096 203.976 58.31 204.55C57.9 204.73 57.36 205.24 57.31 205.62C57.1351 207.642 57.095 209.673 57.19 211.7C57.34 213.92 57.88 216.11 58.08 218.33C58.32 221.06 58.37 223.8 58.55 226.53C58.62 227.53 58.88 228.61 58.95 229.66C59.04 231.1 58.95 232.55 59.06 233.99C59.3883 237.223 59.4418 240.478 59.22 243.72C59.2103 243.89 59.2103 244.06 59.22 244.23C59.36 247.04 59.51 249.85 59.64 252.66C59.6579 253.782 59.7785 254.9 60 256C60.25 257.09 59.89 258.12 60.12 259.23C60.4243 261.169 60.588 263.127 60.61 265.09C60.8 268.7 61 272.35 61.14 276.14Z" fill="#0E2043"/>
<path d="M193.83 215.65C193.774 214.947 193.872 214.24 194.117 213.578C194.362 212.917 194.749 212.317 195.25 211.82C195.33 211.76 195.37 211.58 195.42 211.58C197.27 211.72 196.71 210.32 196.71 209.43C196.71 208.54 197.3 208.36 197.83 208.26C198.15 208.2 198.57 208.64 198.94 208.87C198.992 208.913 199.028 208.973 199.04 209.04C199.242 209.712 199.592 210.33 200.065 210.85C200.537 211.369 201.12 211.775 201.77 212.04C202.59 212.46 203.09 213.91 203.33 214.98C203.56 216.196 203.56 217.444 203.33 218.66C202.99 220.74 200.33 222.86 197.9 222.11C195.07 221.17 193.84 219.52 193.83 215.65ZM196.83 214.82C196.609 215.417 196.545 216.061 196.645 216.69C196.745 217.318 197.005 217.911 197.4 218.41C197.663 218.63 197.968 218.795 198.296 218.893C198.625 218.991 198.97 219.02 199.31 218.98C199.67 218.98 200.09 218.22 200.31 217.74C200.68 216.61 200.57 215.91 200.14 215.48C199.19 217 198.38 217.33 196.84 214.82H196.83Z" fill="#0E2043"/>
<path d="M81.53 246.55C80.71 246.66 80.01 245.91 79.13 245.47C77.7901 244.733 76.7763 243.52 76.29 242.07C76.0151 241.506 75.8566 240.891 75.824 240.264C75.7913 239.637 75.8852 239.01 76.1 238.42C76.2356 238.062 76.4417 237.734 76.7063 237.457C76.9708 237.18 77.2883 236.959 77.6399 236.807C77.9916 236.655 78.3702 236.575 78.7533 236.572C79.1363 236.569 79.5161 236.643 79.87 236.79C80.54 237.1 80.87 236.95 81.31 236.44C83.37 234.25 86.01 233.99 87.89 236.33C88.2395 236.785 88.429 237.342 88.429 237.915C88.429 238.488 88.2395 239.046 87.89 239.5C85.4 242.39 82.78 242.5 79.73 239.97C79.3633 239.728 78.975 239.52 78.57 239.35C78.5098 239.898 78.5098 240.452 78.57 241C78.714 241.46 78.972 241.876 79.32 242.21C79.5613 242.435 79.8805 242.557 80.21 242.55C80.8818 242.577 81.5398 242.75 82.1388 243.055C82.7378 243.361 83.2636 243.792 83.68 244.32C84.34 245.56 83.47 246.58 81.53 246.55ZM82.88 238.8C83.267 238.974 83.6942 239.039 84.1154 238.988C84.5365 238.937 84.9358 238.771 85.27 238.51C85.3606 238.442 85.4328 238.352 85.4799 238.249C85.5271 238.146 85.5477 238.033 85.54 237.92C85.4819 237.825 85.4015 237.745 85.3057 237.687C85.2099 237.63 85.1015 237.596 84.99 237.59C84.5542 237.532 84.1113 237.619 83.7299 237.837C83.3485 238.056 83.0498 238.394 82.88 238.8Z" fill="#0E2043"/>
<path d="M175 249.17C174.851 249.678 174.671 250.175 174.46 250.66C174.18 251.23 173.92 252.08 173.46 252.24C173 252.4 172.26 251.88 171.46 251.61L171 253.67C172.145 253.81 173.274 254.061 174.37 254.42C174.688 254.6 174.966 254.842 175.189 255.131C175.412 255.42 175.575 255.751 175.668 256.105C175.761 256.458 175.783 256.826 175.731 257.187C175.68 257.549 175.557 257.897 175.37 258.21C174.47 260.09 173.5 260.11 171.76 259.55C170.835 259.288 170.018 258.736 169.431 257.974C168.844 257.212 168.517 256.282 168.5 255.32C168.383 252.971 168.971 250.641 170.19 248.63C170.376 248.221 170.714 247.902 171.133 247.739C171.551 247.576 172.017 247.584 172.43 247.76C172.59 247.785 172.754 247.771 172.907 247.719C173.06 247.666 173.199 247.578 173.31 247.46C173.623 247.014 174.06 246.669 174.566 246.466C175.072 246.264 175.626 246.213 176.16 246.32C176.657 246.461 177.098 246.753 177.42 247.157C177.743 247.56 177.932 248.054 177.96 248.57C178.1 249.3 178.24 250.03 178.36 250.76C178.4 251.062 178.4 251.368 178.36 251.67C178.29 252.52 177.54 253.49 176.93 253.44C175.98 253.35 175.93 252.5 175.74 251.8C175.55 251.1 175.5 250.09 175.4 249.24L175 249.17Z" fill="#0E2043"/>
<path d="M79.29 219.78C78.8555 220.024 78.3817 220.19 77.89 220.27C77.64 220.27 77.28 219.77 77.17 219.43C77.0844 219.087 77.1133 218.726 77.2523 218.401C77.3913 218.076 77.6328 217.805 77.94 217.63C78.3854 217.311 78.9099 217.119 79.4564 217.077C80.003 217.035 80.5506 217.143 81.04 217.39C81.3334 217.625 81.5741 217.919 81.7464 218.254C81.9187 218.588 82.0187 218.955 82.04 219.33C82.0135 219.619 82.0667 219.91 82.1936 220.17C82.3205 220.431 82.5164 220.652 82.76 220.81C83.5458 221.31 84.2014 221.99 84.6726 222.793C85.1438 223.596 85.4172 224.5 85.47 225.43C85.562 225.948 85.5922 226.475 85.56 227C85.4014 227.66 85.0694 228.266 84.5982 228.755C84.1271 229.243 83.5338 229.597 82.88 229.78C81.9323 230.228 80.8695 230.372 79.8368 230.193C78.804 230.014 77.8517 229.52 77.11 228.78C75.8 227.59 75.97 226.18 76.25 224.78C76.516 223.468 77.2702 222.307 78.36 221.53C78.8475 221.032 79.2556 220.462 79.57 219.84L79.29 219.78ZM81.79 222.78C80.84 223.41 79.98 223.71 79.56 224.32C79.1748 225.011 79.014 225.804 79.1 226.59C79.1 227.22 80.66 227.59 81.65 227.19C82.34 226.95 83.17 226.69 82.84 225.66C82.51 224.63 82.2 223.94 81.79 222.83V222.78Z" fill="#0E2043"/>
<path d="M160.2 250.91C160.59 252.61 160.99 254.38 161.43 256.15C161.478 256.284 161.557 256.405 161.659 256.504C161.761 256.602 161.885 256.676 162.02 256.72C162.95 256.87 163.9 256.9 164.84 257.03C165.242 257.064 165.626 257.21 165.95 257.45C166.099 257.573 166.22 257.726 166.308 257.897C166.396 258.069 166.447 258.257 166.46 258.45C166.386 258.648 166.264 258.825 166.106 258.964C165.947 259.104 165.756 259.202 165.55 259.25C163.933 259.33 162.312 259.29 160.7 259.13C160.389 259.065 160.098 258.929 159.848 258.733C159.599 258.537 159.397 258.286 159.26 258C158.639 255.653 158.152 253.272 157.8 250.87C157.57 249.19 158.8 247.49 160.22 247.55C161.613 247.675 163.013 247.705 164.41 247.64C165.04 247.59 165.95 248.47 166.41 249.15C166.949 250.089 167.353 251.099 167.61 252.15C167.772 252.604 167.801 253.095 167.693 253.564C167.585 254.034 167.344 254.463 167 254.8C166.781 254.965 166.529 255.079 166.262 255.136C165.994 255.193 165.717 255.191 165.45 255.13C165.08 255.03 164.55 254.3 164.64 254.02C165.07 252.65 164.5 251.51 164.03 250.38C163.49 250.93 163.03 251.81 162.37 251.95C161.71 252.09 161.05 251.35 160.2 250.91Z" fill="#0E2043"/>
<path d="M106.78 218.64C106.16 220.83 105.1 220.91 103.53 219.44C103.44 219.62 103.27 219.79 103.26 219.96C103.26 220.79 102.71 221.26 102.01 220.96C101.737 220.832 101.496 220.645 101.305 220.411C101.115 220.177 100.98 219.903 100.91 219.61C100.67 217.89 102.44 216.04 104.19 215.93C104.611 215.884 105.012 215.725 105.35 215.47C106.43 214.65 108.76 215.05 109.27 216.29C109.892 217.696 110.361 219.164 110.67 220.67C110.9 222.162 110.95 223.676 110.82 225.18C110.727 225.788 110.495 226.367 110.142 226.871C109.789 227.374 109.324 227.79 108.784 228.085C108.245 228.38 107.644 228.547 107.029 228.572C106.414 228.597 105.802 228.48 105.24 228.23C105.01 228.128 104.804 227.978 104.635 227.791C104.466 227.604 104.339 227.384 104.261 227.144C104.182 226.905 104.155 226.652 104.181 226.401C104.207 226.151 104.285 225.908 104.41 225.69C104.515 225.418 104.723 225.199 104.989 225.079C105.255 224.959 105.557 224.949 105.83 225.05C107.52 225.4 108.02 225.05 107.91 223.41C107.727 221.771 107.46 220.142 107.11 218.53L106.78 218.64Z" fill="#0E2043"/>
<path d="M156.66 214.81C156.426 215.286 156.255 215.79 156.15 216.31C156.1 217.02 156.08 217.77 155.29 217.96C155.099 218.013 154.898 218.027 154.702 217.999C154.505 217.971 154.316 217.903 154.147 217.799C153.978 217.694 153.833 217.556 153.719 217.393C153.606 217.23 153.528 217.045 153.49 216.85C153.49 216.8 153.4 216.76 153.1 216.48L152.3 220.71C152.655 220.711 153.009 220.684 153.36 220.63C154.015 220.412 154.727 220.443 155.36 220.718C155.993 220.993 156.502 221.493 156.79 222.12C156.894 222.376 156.941 222.652 156.929 222.928C156.917 223.204 156.846 223.474 156.72 223.72C155.72 225.18 154.54 226.26 152.94 225.72C152.557 225.587 152.213 225.36 151.94 225.06C151.073 224.142 150.465 223.01 150.178 221.78C149.892 220.551 149.937 219.267 150.31 218.06C150.5 217.133 150.813 216.235 151.24 215.39C151.428 215.06 151.681 214.771 151.984 214.541C152.286 214.311 152.632 214.144 153 214.05C153.432 214.01 153.851 213.883 154.232 213.677C154.614 213.47 154.95 213.189 155.22 212.85C155.588 212.479 156.057 212.223 156.568 212.113C157.079 212.003 157.611 212.043 158.1 212.23C159.16 212.49 159.4 213.51 159.58 214.37C159.761 215.154 159.73 215.972 159.49 216.74C159.346 216.982 159.145 217.184 158.905 217.329C158.664 217.474 158.391 217.556 158.11 217.57C157.75 217.57 157.36 216.82 157.11 216.34C156.983 215.864 156.922 215.373 156.93 214.88L156.66 214.81Z" fill="#0E2043"/>
<path d="M172.33 234.38C171.838 236.674 172.072 239.065 173 241.22C173.142 241.529 173.164 241.88 173.06 242.204C172.957 242.528 172.735 242.801 172.44 242.97C172.242 243.072 172.024 243.13 171.802 243.142C171.58 243.154 171.357 243.118 171.15 243.038C170.942 242.958 170.753 242.834 170.597 242.676C170.44 242.518 170.318 242.328 170.24 242.12C169.813 240.75 169.508 239.344 169.33 237.92C169.19 236.719 169.21 235.505 169.39 234.31C169.61 232.75 170.18 231.31 172.06 231.04C172.437 230.96 172.83 230.992 173.19 231.13C174.44 231.752 175.408 232.824 175.9 234.13C177.011 236.572 177.577 239.227 177.56 241.91C177.56 243.16 176.96 243.65 176.09 243.53C175.639 243.428 175.237 243.174 174.952 242.809C174.668 242.444 174.519 241.992 174.53 241.53C174.512 239.074 173.865 236.664 172.65 234.53C172.65 234.53 172.53 234.48 172.33 234.38Z" fill="#0E2043"/>
<path d="M97.69 255.59C95.46 255.51 94.36 254.06 93.5 252.41C93 251.45 94.62 249 96 249.14C97.2508 249.344 98.3837 249.999 99.185 250.981C99.9863 251.963 100.401 253.204 100.35 254.47C100.35 255.32 100.65 255.47 101.41 255.47C101.856 255.494 102.29 255.62 102.68 255.837C103.071 256.054 103.406 256.358 103.661 256.724C103.917 257.09 104.085 257.51 104.155 257.951C104.224 258.392 104.191 258.843 104.06 259.27C103.5 260.86 102.57 261.99 100.73 262.08C100.19 262.067 99.6652 261.899 99.2182 261.596C98.7713 261.293 98.4213 260.867 98.21 260.37C97.31 258.83 97.9 257.23 97.69 255.59ZM100.39 257.73L100.1 258.06L100.49 259.35L100.81 259.49L101.53 258.41L100.39 257.73Z" fill="#0E2043"/>
<path d="M168.89 218.85C169.33 218.47 169.49 218.35 169.62 218.21C171.26 216.4 173.42 216.56 174.86 218.62C175.51 219.55 176.32 220.49 175.77 221.77C175.5 222.353 175.164 222.903 174.77 223.41C174.67 223.474 174.556 223.514 174.438 223.526C174.32 223.538 174.201 223.522 174.09 223.48C173.844 223.118 173.674 222.71 173.59 222.28C173.53 221.9 173.86 221.36 173.69 221.13C173.216 220.543 172.672 220.015 172.07 219.56C171.99 219.5 171.59 219.73 171.42 219.9C171.113 220.193 170.878 220.553 170.732 220.952C170.586 221.351 170.534 221.778 170.58 222.2C170.68 223.06 169.88 224.08 169.2 224.05C168.27 224.05 167.85 223.44 167.73 222.53C167.634 222.066 167.458 221.623 167.21 221.22C166.153 219.152 165.732 216.817 166 214.51C166.21 212.14 169 210.33 171.06 211.33C171.913 211.843 172.605 212.584 173.06 213.47C173.25 213.79 172.87 214.63 172.51 215.01C172.34 215.19 171.62 214.89 171.16 214.77C171.02 214.77 170.94 214.5 170.79 214.42C170.38 214.2 169.79 213.73 169.57 213.86C169.03 214.23 168.4 214.66 168.57 215.57C168.74 216.48 168.75 217.57 168.89 218.85Z" fill="#0E2043"/>
<path d="M180.86 216.46C180.5 214.32 179.86 213.22 178.67 212.41C178.438 212.926 178.146 213.412 177.8 213.86C177.662 214.01 177.49 214.125 177.299 214.196C177.108 214.267 176.903 214.293 176.7 214.27C176.517 214.157 176.364 214.001 176.252 213.817C176.141 213.633 176.075 213.425 176.06 213.21C175.994 212.604 176.096 211.991 176.355 211.438C176.615 210.886 177.021 210.416 177.53 210.08C178.9 209.23 180.25 210.08 181.14 210.96C182.233 212.145 182.968 213.615 183.26 215.2C183.831 217.253 183.868 219.418 183.37 221.49C183.187 222.126 182.812 222.69 182.296 223.105C181.781 223.52 181.15 223.766 180.49 223.81C179.702 223.696 178.967 223.35 178.377 222.815C177.788 222.281 177.371 221.583 177.18 220.81C177.095 220.276 177.126 219.73 177.272 219.209C177.417 218.688 177.673 218.204 178.023 217.791C178.372 217.378 178.806 217.046 179.296 216.816C179.786 216.586 180.319 216.465 180.86 216.46ZM180.86 221.28L180.78 219.59C180.53 219.59 180.16 219.59 180.05 219.74C179.54 220.4 180 220.75 180.82 221.28H180.86Z" fill="#0E2043"/>
<path d="M107 252.39L108 254.91C108.996 255.184 109.974 255.518 110.93 255.91C111.455 256.145 111.876 256.563 112.117 257.085C112.358 257.607 112.402 258.198 112.24 258.75C112.164 259.345 111.933 259.909 111.572 260.388C111.211 260.867 110.731 261.243 110.18 261.48C107.91 262.28 106.45 261.48 105.9 259.02C105.66 257.94 105.64 256.82 105.39 255.75C105.125 254.768 104.791 253.805 104.39 252.87C104.24 252.471 104.195 252.04 104.259 251.619C104.324 251.198 104.495 250.8 104.757 250.464C105.019 250.128 105.362 249.864 105.755 249.699C106.148 249.534 106.577 249.472 107 249.52C108.61 249.7 110.23 249.8 111.85 249.99C112.16 249.99 112.61 250.21 112.71 250.45C112.756 250.62 112.763 250.797 112.732 250.97C112.701 251.143 112.632 251.307 112.53 251.45C112.104 251.95 111.552 252.325 110.93 252.536C110.309 252.747 109.642 252.787 109 252.65C108.36 252.61 107.74 252.49 107 252.39ZM108.89 259.27C109.72 258.21 109.62 257.99 108.26 257.78L108.89 259.27Z" fill="#0E2043"/>
<path d="M140.39 227.79C139.738 227.877 139.075 227.772 138.481 227.488C137.888 227.204 137.391 226.753 137.05 226.19C136.05 224.45 135.86 222.74 137.21 221.09C138.38 219.67 138.21 218.4 136.58 217.53C136.02 217.22 134.96 215.23 135.18 214.66C135.253 214.463 135.37 214.286 135.523 214.142C135.675 213.998 135.859 213.891 136.06 213.83C136.289 213.821 136.516 213.864 136.726 213.956C136.936 214.048 137.122 214.186 137.27 214.36C137.74 215.05 138.09 215.51 139.08 215.25C139.78 215.07 140.55 216.11 140.46 216.95C140.335 217.907 140.543 218.878 141.05 219.7C141.479 220.47 142 221.185 142.6 221.83C143.6 222.9 144.25 224.14 143.6 225.62C143.358 226.271 142.919 226.831 142.343 227.22C141.767 227.609 141.085 227.808 140.39 227.79ZM139.21 223L138.81 223.25C138.943 223.78 139.17 224.281 139.48 224.73C139.71 224.95 140.32 224.79 140.76 224.8C140.76 224.5 140.86 224.05 140.71 223.92C140.235 223.575 139.733 223.267 139.21 223Z" fill="#0E2043"/>
<path d="M223.69 237C223.13 239.61 222.55 242.35 221.97 245.09C221.53 247.09 221.15 249.18 220.65 251.2C220.445 252.073 220.078 252.901 219.57 253.64C219.03 254.38 218.17 254.09 217.57 253.64C217.23 253.273 217.028 252.799 217 252.3C216.995 251.882 217.062 251.465 217.2 251.07C217.94 247.95 218.69 244.84 219.43 241.72C219.6 241.03 219.73 240.33 219.88 239.64C220.2 238.22 220.49 236.79 220.88 235.38C220.95 235.09 221.41 234.66 221.6 234.7C222.07 234.81 222.78 234.37 222.99 235.25C223.18 235.85 223.414 236.435 223.69 237Z" fill="#0E2043"/>
<path d="M130.47 234C130.041 234.664 129.704 235.384 129.47 236.14C129.448 236.467 129.304 236.775 129.068 237.002C128.831 237.23 128.518 237.361 128.19 237.37C127.38 237.44 127.19 236.78 127.02 236.18C126.952 235.876 126.787 235.602 126.55 235.4C126.455 235.714 126.324 236.016 126.16 236.3C125.827 236.683 125.473 237.047 125.1 237.39C124.808 237.063 124.55 236.708 124.33 236.33C123.51 234.55 125.39 232.97 127.4 233.28C127.663 233.362 127.946 233.353 128.203 233.255C128.461 233.157 128.678 232.976 128.82 232.74C129.99 231.17 131.17 231.23 132.49 232.74C133.49 233.83 133.37 235.19 133.61 236.48C134.065 238.295 134.065 240.195 133.61 242.01C133.471 242.583 133.249 243.132 132.95 243.64C132.766 244.03 132.451 244.343 132.06 244.526C131.67 244.709 131.227 244.749 130.81 244.64C129.75 244.37 128.59 244.43 127.53 244.13C127.331 244.067 127.147 243.964 126.989 243.829C126.831 243.693 126.701 243.527 126.608 243.341C126.515 243.155 126.46 242.951 126.446 242.743C126.433 242.535 126.461 242.327 126.53 242.13C126.62 241.74 127.32 241.43 127.81 241.23C127.966 241.219 128.123 241.248 128.264 241.315C128.406 241.381 128.528 241.483 128.62 241.61C129.03 242.69 129.99 242.55 130.68 242.35C130.938 242.191 131.155 241.973 131.313 241.714C131.471 241.455 131.566 241.162 131.59 240.86C131.63 239.525 131.576 238.188 131.43 236.86C131.34 235.94 131.1 235.03 130.93 234.12L130.47 234Z" fill="#0E2043"/>
<path d="M89.1001 220.43C89.1001 222.22 89.0501 224.02 89.1001 225.81C89.1001 226.57 89.4901 227.32 89.5601 228.09C89.5819 228.305 89.5565 228.522 89.4857 228.725C89.4148 228.929 89.3003 229.115 89.1501 229.27C88.9608 229.342 88.7569 229.365 88.5563 229.339C88.3557 229.313 88.1646 229.238 88.0001 229.12C87.4089 228.475 87.0075 227.679 86.8401 226.82C86.7533 224.456 86.8068 222.088 87.0001 219.73C87.0171 219.121 87.1885 218.526 87.4981 218.002C87.8076 217.477 88.2453 217.039 88.7701 216.73C89.0487 216.524 89.3978 216.436 89.7409 216.487C90.0839 216.537 90.3929 216.722 90.6001 217C91.5663 217.997 92.3191 219.181 92.8126 220.479C93.306 221.778 93.5297 223.163 93.4701 224.55C93.4701 225.39 93.5601 226.24 93.5901 227.08C93.5448 227.494 93.3647 227.882 93.0774 228.184C92.7901 228.486 92.4115 228.684 92.0001 228.75C91.6063 228.705 91.2421 228.519 90.974 228.227C90.7059 227.935 90.5519 227.556 90.5401 227.16C90.5401 225.83 90.6201 224.49 90.4801 223.16C90.3034 222.188 90.039 221.234 89.6901 220.31L89.1001 220.43Z" fill="#0E2043"/>
<path d="M144.89 251.79C144.14 251.98 143.59 252.11 143.57 252.96C143.57 253.26 143.01 253.8 142.75 253.77C142.512 253.746 142.282 253.669 142.078 253.544C141.874 253.419 141.7 253.251 141.57 253.05C141.352 252.642 141.29 252.169 141.395 251.718C141.5 251.267 141.764 250.87 142.14 250.6C142.717 250.114 143.34 249.686 144 249.32C144.299 249.174 144.625 249.092 144.957 249.08C145.29 249.068 145.621 249.126 145.929 249.251C146.238 249.375 146.517 249.563 146.748 249.803C146.979 250.042 147.157 250.327 147.27 250.64C148.602 253.326 149.196 256.319 148.99 259.31C148.954 259.68 148.833 260.036 148.635 260.351C148.438 260.666 148.171 260.931 147.854 261.125C147.537 261.319 147.179 261.437 146.809 261.469C146.438 261.501 146.066 261.447 145.72 261.31C144.817 261.049 143.988 260.58 143.3 259.94C141.86 258.28 142.5 257.28 143.75 256.05C144.245 255.693 144.775 255.384 145.33 255.13C145.52 255.01 145.79 254.72 145.75 254.58C145.48 253.64 145.18 252.74 144.89 251.79Z" fill="#0E2043"/>
<path d="M114.34 223.23C114.542 223.164 114.736 223.077 114.92 222.97C116.54 221.76 117.92 222.61 119.25 223.52C120.25 224.23 120.25 226.71 119.25 227.38C119.161 227.453 119.055 227.502 118.941 227.521C118.828 227.541 118.712 227.532 118.603 227.494C118.495 227.455 118.398 227.39 118.322 227.304C118.246 227.217 118.194 227.113 118.17 227C118.03 226.58 118.06 226.06 117.81 225.74C117.56 225.42 116.97 224.92 116.61 224.98C116.453 224.996 116.302 225.05 116.17 225.136C116.038 225.221 115.928 225.337 115.849 225.474C115.77 225.61 115.724 225.764 115.716 225.921C115.707 226.079 115.736 226.236 115.8 226.38C116.05 227.12 116.09 227.8 115.33 228.26C115.182 228.362 115.014 228.431 114.837 228.46C114.659 228.49 114.478 228.48 114.305 228.431C114.132 228.382 113.972 228.296 113.836 228.178C113.701 228.061 113.593 227.914 113.52 227.75C111.21 224.29 111.29 220.53 112.15 216.75C112.41 215.59 114.46 213.95 115.91 214.5C116.392 214.731 116.814 215.073 117.14 215.496C117.467 215.92 117.689 216.415 117.79 216.94C117.714 217.24 117.535 217.504 117.285 217.687C117.035 217.869 116.729 217.959 116.42 217.94C116.225 217.881 116.034 217.808 115.85 217.72C114.63 217.21 114.46 217.24 114.36 218.57C114.25 220.05 114.34 221.6 114.34 223.23Z" fill="#0E2043"/>
<path d="M137.29 239.11C138.028 238.81 138.783 238.553 139.55 238.34C140.078 238.154 140.654 238.165 141.174 238.371C141.694 238.577 142.122 238.964 142.38 239.46C142.615 239.95 142.718 240.492 142.679 241.034C142.641 241.576 142.462 242.098 142.16 242.55C141.835 242.815 141.418 242.941 141 242.9C140.77 242.9 140.45 242.55 140.36 242.29C140.233 241.771 140.15 241.243 140.11 240.71C139.11 241.55 138.92 242.71 138.47 243.71C138.27 244.14 137.94 244.71 137.59 244.81C137.403 244.867 137.207 244.884 137.013 244.861C136.82 244.837 136.633 244.774 136.466 244.674C136.298 244.574 136.153 244.44 136.04 244.281C135.927 244.122 135.849 243.941 135.81 243.75C135.273 241.748 134.842 239.718 134.52 237.67C134.468 236.061 135.021 234.491 136.07 233.27C136.43 232.789 136.831 232.34 137.27 231.93C137.584 231.639 137.997 231.477 138.425 231.477C138.853 231.477 139.266 231.639 139.58 231.93C140.58 232.75 140.98 233.87 140.39 234.59C140.227 234.749 140.029 234.866 139.811 234.932C139.594 234.998 139.364 235.011 139.14 234.97C138.28 234.67 138.01 235.1 137.7 235.75C137.177 236.788 137.032 237.976 137.29 239.11Z" fill="#0E2043"/>
<path d="M213.8 211.3C214.086 211.172 214.384 211.071 214.69 211C214.882 210.953 215.082 210.951 215.275 210.995C215.468 211.04 215.647 211.129 215.799 211.255C215.951 211.382 216.071 211.542 216.149 211.724C216.228 211.905 216.262 212.103 216.25 212.3C216.25 212.74 216.25 213.18 216.31 213.62C216.31 214.57 216.37 215.34 217.74 215.43C218.92 215.52 219.67 218 219.22 219.12C218.51 220.88 215.99 221.74 214.29 221.36C212.97 221.07 211.67 218.88 211.9 217.57C211.94 217.019 212.129 216.489 212.446 216.037C212.762 215.584 213.196 215.226 213.7 215C213.9 214.92 213.92 214.44 214.02 214.14C213.799 214.031 213.563 213.953 213.32 213.91C212 213.91 211.63 213.58 211.46 212.28C211.39 211.75 211.46 211.19 211.33 210.66C211.2 210.13 210.97 209.66 211.71 209.42C211.989 209.294 212.306 209.284 212.592 209.39C212.879 209.497 213.112 209.713 213.24 209.99C213.467 210.408 213.654 210.847 213.8 211.3Z" fill="#0E2043"/>
<path d="M80.28 254.93C79.84 255.75 79.47 256.43 79.1 257.1C78.73 257.77 78.34 257.74 77.91 257.21C77.26 256.38 77.65 254.21 78.62 253.13C79.0099 252.748 79.5143 252.504 80.0561 252.435C80.5978 252.366 81.1471 252.477 81.62 252.75C83.0164 253.785 84.122 255.163 84.83 256.75C85.1555 257.585 85.3124 258.476 85.2918 259.372C85.2712 260.268 85.0735 261.151 84.71 261.97C84.5143 262.475 84.1938 262.922 83.7783 263.269C83.3629 263.616 82.8662 263.852 82.3346 263.955C81.8031 264.058 81.2542 264.024 80.7392 263.857C80.2242 263.69 79.76 263.395 79.39 263C79.1782 262.717 79.0264 262.393 78.9438 262.049C78.8613 261.706 78.8498 261.348 78.91 261C79.41 258.51 79.57 258.89 82.03 256.88L80.28 254.93Z" fill="#0E2043"/>
<path d="M153 251.9C151.25 254.03 152 256.06 153.14 258.06C153.46 258.62 153.71 259.26 153.05 259.54C152.775 259.631 152.482 259.655 152.195 259.612C151.909 259.568 151.636 259.458 151.4 259.29C150.369 258.373 149.678 257.134 149.438 255.775C149.198 254.415 149.425 253.015 150.08 251.8C150.75 250.62 151.35 249.39 152.02 248.21C152.166 247.967 152.375 247.767 152.625 247.632C152.874 247.497 153.156 247.431 153.439 247.441C153.723 247.451 153.999 247.537 154.238 247.69C154.478 247.843 154.671 248.057 154.8 248.31C155.34 249.552 155.756 250.845 156.04 252.17C156.36 253.51 156.54 254.88 156.78 256.24C156.78 256.48 156.88 256.71 156.92 256.94C156.977 257.113 156.997 257.295 156.981 257.476C156.965 257.657 156.913 257.832 156.827 257.992C156.741 258.152 156.623 258.293 156.481 258.406C156.339 258.519 156.175 258.602 156 258.65C155.27 258.81 154.83 258.35 154.4 257.65C153.638 256.138 153.261 254.462 153.3 252.77C153.245 252.466 153.144 252.173 153 251.9Z" fill="#0E2043"/>
<path d="M207.24 256.46C207.74 255.88 208.24 255.31 208.75 254.7C208.852 254.539 208.986 254.4 209.143 254.292C209.3 254.185 209.477 254.11 209.664 254.072C209.851 254.035 210.044 254.036 210.231 254.075C210.417 254.114 210.594 254.191 210.75 254.3C211.4 254.68 211.41 255.3 211.25 256C211.021 256.869 210.586 257.669 209.982 258.334C209.378 258.999 208.623 259.509 207.78 259.82C207.389 259.937 206.977 259.973 206.572 259.926C206.166 259.879 205.774 259.749 205.42 259.545C205.066 259.341 204.757 259.067 204.513 258.739C204.269 258.412 204.094 258.038 204 257.64C203.736 256.074 203.605 254.488 203.61 252.9C203.644 251.305 203.269 249.728 202.52 248.32C202.399 248.067 202.335 247.79 202.335 247.51C202.335 247.23 202.399 246.953 202.52 246.7C202.746 246.549 203.004 246.455 203.274 246.426C203.544 246.396 203.817 246.432 204.07 246.53C204.664 246.825 205.155 247.292 205.48 247.87C206.489 249.764 206.917 251.914 206.71 254.05C206.704 254.839 206.747 255.627 206.84 256.41L207.24 256.46Z" fill="#0E2043"/>
<path d="M121.74 218.28C120.8 218.52 120.17 218.47 120.06 217.39C119.95 216.31 120.19 215.68 121.06 215.48C121.956 215.202 122.906 215.143 123.83 215.31C125.18 215.71 125.34 216.59 124.73 218.37C127.42 220.29 127.8 222.96 127.12 225.94C127.071 226.28 126.953 226.606 126.774 226.898C126.594 227.191 126.356 227.443 126.075 227.64C125.794 227.837 125.475 227.974 125.139 228.042C124.803 228.111 124.456 228.11 124.12 228.04C123.119 227.958 122.137 227.718 121.21 227.33C121.007 227.206 120.84 227.031 120.724 226.824C120.608 226.617 120.547 226.383 120.547 226.145C120.547 225.907 120.608 225.673 120.724 225.466C120.84 225.258 121.007 225.084 121.21 224.96C122.05 224.33 122.73 223.96 123.55 224.96C123.85 225.32 124.33 225.2 124.55 224.61C124.712 224.092 124.759 223.546 124.686 223.008C124.613 222.471 124.424 221.956 124.13 221.5C124.021 221.384 123.889 221.292 123.743 221.23C123.597 221.168 123.439 221.137 123.28 221.14C121.55 221.09 120.92 220.11 121.74 218.28Z" fill="#0E2043"/>
<path d="M117.13 253.62C116.18 255.28 115.62 256.89 116.18 258.68C116.48 259.63 116.18 260.24 115.26 260.46C114.34 260.68 113.99 260.19 113.61 259.37C112.68 257.37 113.23 255.53 113.93 253.67C114.17 253.03 114.49 252.43 114.73 251.8C114.915 251.299 115.258 250.872 115.707 250.584C116.157 250.295 116.688 250.16 117.22 250.2C117.61 250.256 117.984 250.392 118.318 250.6C118.652 250.809 118.939 251.084 119.16 251.41C120.22 253.1 121.16 254.88 120.92 257.03C120.926 257.374 120.997 257.713 121.13 258.03C121.228 258.285 121.274 258.556 121.266 258.829C121.258 259.101 121.195 259.369 121.083 259.618C120.97 259.866 120.81 260.09 120.61 260.276C120.41 260.461 120.176 260.606 119.92 260.7C119.771 260.794 119.602 260.851 119.426 260.865C119.25 260.88 119.074 260.851 118.912 260.782C118.749 260.713 118.606 260.606 118.495 260.47C118.383 260.334 118.306 260.173 118.27 260C118.125 259.442 118.055 258.867 118.06 258.29C118.119 256.682 117.8 255.083 117.13 253.62Z" fill="#0E2043"/>
<path d="M188.39 250.38C188.085 250.468 187.774 250.535 187.46 250.58C187.123 250.639 186.776 250.601 186.46 250.47C186.27 250.34 186.23 249.87 186.29 249.58C186.351 249.275 186.474 248.986 186.653 248.732C186.832 248.478 187.062 248.264 187.329 248.104C187.595 247.944 187.892 247.841 188.201 247.802C188.509 247.764 188.822 247.79 189.12 247.88C189.619 247.977 190.113 248.101 190.6 248.25C190.981 248.369 191.319 248.599 191.568 248.91C191.818 249.222 191.968 249.602 192 250C192.093 250.518 192.357 250.99 192.75 251.34C193.405 251.974 193.879 252.773 194.122 253.652C194.364 254.531 194.367 255.459 194.13 256.34C193.53 257.94 192.77 259.6 190.84 259.64C189.39 259.64 187.7 259.97 186.53 258.64C186.414 258.474 186.332 258.287 186.289 258.089C186.246 257.892 186.242 257.688 186.278 257.489C186.315 257.29 186.39 257.1 186.5 256.93C186.61 256.76 186.753 256.614 186.92 256.5C187.57 256.01 188.16 255.59 188.92 256.5C189.151 256.674 189.42 256.791 189.705 256.841C189.99 256.892 190.283 256.874 190.56 256.79C190.826 256.656 191.063 256.469 191.253 256.241C191.444 256.012 191.586 255.746 191.67 255.46C191.759 255.152 191.769 254.827 191.7 254.514C191.63 254.201 191.483 253.911 191.272 253.67C191.061 253.429 190.793 253.245 190.492 253.135C190.191 253.025 189.867 252.992 189.55 253.04C189.07 253.069 188.597 252.911 188.23 252.6C187.68 251.87 187.77 251.54 188.39 250.38Z" fill="#0E2043"/>
<path d="M232 219.24C232.42 218.66 232.75 218.24 233.05 217.78C233.65 216.89 234.56 216.41 235.14 216.72C235.464 217.039 235.694 217.441 235.803 217.882C235.913 218.324 235.898 218.787 235.76 219.22C235.26 220.538 234.272 221.612 233 222.22C232.471 222.416 231.896 222.455 231.346 222.331C230.796 222.206 230.293 221.925 229.9 221.52C228.2 220.23 227.6 218.28 227.29 216.26C227.03 214.49 226.84 212.71 226.65 210.93C226.56 210.499 226.609 210.051 226.79 209.65C227.08 209.23 227.69 208.65 228.03 208.74C228.322 208.818 228.592 208.961 228.821 209.159C229.049 209.356 229.23 209.603 229.35 209.88C229.78 211.78 230.04 213.72 230.35 215.64C230.493 216.988 231.072 218.252 232 219.24Z" fill="#0E2043"/>
<path d="M125.74 255.25C125.8 256.09 125.8 256.95 125.92 257.78C126.04 258.61 126.45 258.78 127.17 258.27C127.753 257.757 128.364 257.276 129 256.83C129.42 256.59 130.25 256.35 130.45 256.55C130.906 257.018 131.177 257.637 131.21 258.29C131.237 258.45 131.23 258.615 131.191 258.772C131.151 258.93 131.079 259.078 130.979 259.207C130.88 259.335 130.755 259.442 130.612 259.52C130.469 259.598 130.312 259.646 130.15 259.66C129.93 259.66 129.71 260 129.54 260.22C128.949 261.059 128.053 261.633 127.044 261.82C126.035 262.007 124.992 261.791 124.14 261.22C123.696 260.863 123.352 260.398 123.14 259.87C122.47 258.37 122.68 256.78 122.71 255.2C122.71 253.81 122.91 252.36 122.03 251.07C121.921 250.944 121.843 250.795 121.802 250.635C121.76 250.474 121.756 250.306 121.79 250.143C121.824 249.981 121.895 249.828 121.997 249.698C122.099 249.567 122.23 249.462 122.38 249.39C122.747 249.205 123.169 249.16 123.568 249.261C123.966 249.362 124.315 249.603 124.55 249.94C125.513 251.356 125.945 253.067 125.77 254.77C125.77 254.94 125.77 255.11 125.77 255.28L125.74 255.25Z" fill="#0E2043"/>
<path d="M207.38 219.08C207.697 217.143 207.396 215.156 206.52 213.4C206.03 213.67 205.42 214.21 205.19 214.08C204.672 213.77 204.287 213.278 204.11 212.7C204.062 212.179 204.164 211.655 204.405 211.19C204.646 210.726 205.016 210.34 205.47 210.08C206.033 209.829 206.671 209.8 207.254 209.998C207.838 210.197 208.326 210.608 208.62 211.15C209.438 212.343 210.011 213.687 210.306 215.103C210.602 216.519 210.613 217.979 210.34 219.4C210.327 220.053 210.119 220.688 209.744 221.222C209.368 221.757 208.841 222.167 208.23 222.4C207.368 222.584 206.469 222.469 205.68 222.075C204.892 221.68 204.26 221.03 203.89 220.23C203.838 220.018 203.835 219.797 203.882 219.584C203.929 219.371 204.024 219.172 204.16 219.002C204.297 218.832 204.47 218.695 204.668 218.603C204.866 218.511 205.082 218.465 205.3 218.47C206.006 218.629 206.7 218.833 207.38 219.08Z" fill="#0E2043"/>
<path d="M159.32 236.55C159.52 234.48 159.86 232.82 161.47 231.74C163.47 230.37 165.47 231.65 166.28 233.3C166.652 234.039 166.905 234.832 167.03 235.65C167.018 235.871 166.953 236.086 166.842 236.277C166.731 236.468 166.576 236.63 166.39 236.75C166.197 236.816 165.992 236.833 165.791 236.8C165.59 236.767 165.401 236.684 165.24 236.56C164.73 236.05 164.39 235.36 163.93 234.8C163.623 234.508 163.288 234.247 162.93 234.02C162.641 234.318 162.396 234.654 162.2 235.02C161.62 236.57 162.31 238.02 162.96 239.29C163.3 239.97 164.32 240.35 165.09 240.73C166.09 241.24 166.47 241.81 166.09 242.73C165.71 243.65 164.98 243.88 163.93 243.51C162.959 243.202 162.082 242.653 161.383 241.913C160.683 241.173 160.183 240.267 159.93 239.28C159.71 238.25 159.49 237.26 159.32 236.55Z" fill="#0E2043"/>
<path d="M188.44 214.43C188.693 214.597 188.961 214.74 189.24 214.86C192.24 215.86 193.1 220.41 191.24 222.86C190.881 223.367 190.365 223.74 189.771 223.921C189.177 224.102 188.54 224.08 187.96 223.86C187.127 223.586 186.324 223.231 185.56 222.8C185.411 222.717 185.281 222.604 185.179 222.468C185.076 222.332 185.004 222.176 184.966 222.01C184.928 221.843 184.926 221.671 184.959 221.504C184.993 221.337 185.061 221.179 185.16 221.04C185.44 220.62 186.23 220.54 186.8 220.34C186.89 220.34 187.03 220.5 187.16 220.52C187.78 220.6 188.6 220.93 188.97 220.66C189.57 220.22 189.18 218.49 188.47 218.01C187.886 217.603 187.246 217.283 186.57 217.06C185.64 216.78 184.95 216.36 184.8 215.34C184.727 214.817 184.809 214.284 185.037 213.807C185.264 213.331 185.627 212.932 186.08 212.66L186.16 212.6C186.8 212.27 187.57 211.79 188.16 212.43C188.55 212.87 188.51 213.67 188.66 214.3L188.44 214.43Z" fill="#0E2043"/>
<path d="M145.55 234.87C144.8 235.23 144.18 235.45 143.67 234.58C143.572 234.429 143.506 234.259 143.478 234.081C143.449 233.903 143.458 233.721 143.504 233.546C143.55 233.372 143.633 233.209 143.746 233.069C143.859 232.928 144 232.813 144.16 232.73C144.799 232.244 145.536 231.902 146.32 231.73C148.11 231.42 149.1 232.63 148.59 234.48C148.39 235.21 148.59 235.48 149.18 235.81C149.789 236.104 150.307 236.557 150.677 237.123C151.047 237.688 151.257 238.344 151.282 239.02C151.308 239.695 151.149 240.365 150.823 240.957C150.497 241.549 150.015 242.041 149.43 242.38C148.689 242.921 147.87 243.346 147 243.64C145.37 243.89 144.51 243.48 144.23 241.64C144.22 241.443 144.262 241.247 144.351 241.071C144.44 240.896 144.574 240.746 144.738 240.638C144.903 240.53 145.093 240.467 145.29 240.455C145.487 240.443 145.683 240.483 145.86 240.57C146.202 240.712 146.576 240.756 146.942 240.698C147.307 240.64 147.649 240.481 147.93 240.24C148.5 239.84 148.93 239.42 148.7 238.75C148.573 238.405 148.341 238.108 148.035 237.904C147.73 237.699 147.367 237.596 147 237.61C146.352 237.575 145.73 237.341 145.22 236.94C144.66 236.32 144.93 235.54 145.55 234.87Z" fill="#0E2043"/>
<path d="M90.0599 255.5C89.1299 257.15 88.6099 258.65 89.7499 260.26C89.9599 260.56 90.0599 260.95 90.2799 261.26C90.3991 261.381 90.4857 261.529 90.5315 261.693C90.5773 261.856 90.5809 262.028 90.5419 262.193C90.5029 262.358 90.4226 262.51 90.3086 262.636C90.1945 262.761 90.0505 262.856 89.8899 262.91C89.6209 262.996 89.3346 263.014 89.057 262.961C88.7794 262.909 88.5192 262.788 88.2999 262.61C87.0699 261.04 86.0699 259.25 86.6199 257.19C87.0473 255.77 87.6521 254.409 88.4199 253.14C88.5861 252.908 88.8001 252.714 89.0474 252.571C89.2948 252.429 89.5698 252.341 89.854 252.313C90.1382 252.286 90.425 252.319 90.6951 252.412C90.9652 252.505 91.2124 252.654 91.4199 252.85C92.4153 253.664 93.1176 254.78 93.4199 256.03C93.5999 257.03 93.9999 258.03 94.2599 259.03C94.3315 259.466 94.2828 259.914 94.1189 260.324C93.955 260.735 93.6822 261.093 93.3299 261.36C92.6299 262.07 91.5699 261.36 91.3799 260.3C91.1499 259.02 90.8399 257.74 90.5199 256.47C90.4019 256.131 90.2476 255.806 90.0599 255.5Z" fill="#0E2043"/>
<path d="M134.69 220.47C134.75 221.47 134.81 222.47 134.86 223.39C134.94 224.96 133.25 226.93 131.68 226.81C130.678 226.673 129.723 226.303 128.89 225.73C128.679 225.539 128.521 225.297 128.43 225.028C128.339 224.758 128.318 224.47 128.37 224.19C128.68 223.72 129.44 223.54 130.03 223.27C130.13 223.22 130.29 223.27 130.43 223.33C131.85 223.66 131.85 223.66 131.86 222.27C131.905 221.457 131.905 220.643 131.86 219.83C131.817 219.266 131.664 218.716 131.41 218.21C130.65 216.73 130.41 216.7 129.3 217.9C128.9 218.35 128.48 218.62 127.9 218.21C127.63 217.959 127.457 217.621 127.412 217.255C127.366 216.89 127.45 216.52 127.65 216.21C128.85 214.42 131.37 213.55 133.15 215.92C134.14 217.231 134.68 218.827 134.69 220.47Z" fill="#0E2043"/>
<path d="M158.56 237.87C158.71 241.28 156.13 243.33 153.01 243.54C152.631 243.569 152.254 243.453 151.957 243.216C151.66 242.978 151.465 242.636 151.41 242.26C151.34 242.113 151.306 241.951 151.312 241.788C151.319 241.625 151.365 241.466 151.447 241.325C151.529 241.184 151.644 241.066 151.782 240.979C151.92 240.893 152.077 240.842 152.24 240.83C152.69 240.637 153.151 240.47 153.62 240.33C155.37 240.05 156.15 238.63 155.62 236.61C155.51 236.22 155.38 235.83 155.28 235.44C154.98 234.27 154.42 234.04 153.41 234.69C152.59 235.21 152.09 235 151.9 234.03C151.806 233.497 151.915 232.948 152.206 232.491C152.496 232.033 152.947 231.702 153.47 231.56C154.109 231.476 154.759 231.539 155.371 231.743C155.983 231.947 156.54 232.288 157 232.74C158.053 234.24 158.599 236.038 158.56 237.87Z" fill="#0E2043"/>
<path d="M99.77 227L100.49 225.15C101.61 224.98 101.98 225.22 102.29 226.31C102.76 228.01 102.29 229.31 100.97 229.71C100.321 229.904 99.636 229.942 98.97 229.82C96.91 229.37 95.25 228.23 95.13 225.6C95.02 223.33 94.46 221.07 94.13 218.8C94.0198 218.408 94.0198 217.992 94.13 217.6C94.411 217.18 94.7474 216.8 95.13 216.47C95.4959 216.769 95.8309 217.104 96.13 217.47C97.7 219.85 97.56 222.63 97.89 225.3C98.06 226.69 98.24 226.81 99.77 227Z" fill="#0E2043"/>
<path d="M198.55 260.08C197.736 259.716 196.97 259.252 196.27 258.7C196.1 258.465 195.987 258.193 195.94 257.907C195.894 257.62 195.914 257.327 196 257.05C196.25 256.4 197 256.49 197.6 256.73C198.82 257.18 199.19 257.05 199.6 255.94C199.657 255.741 199.672 255.533 199.644 255.328C199.617 255.123 199.547 254.927 199.44 254.75C198.61 253.62 197.57 252.62 196.83 251.44C196.09 250.26 195.51 249.24 196.1 247.9C196.213 247.595 196.431 247.341 196.716 247.183C197 247.025 197.332 246.974 197.65 247.04C198.31 247.12 198.54 247.44 198.72 248.13C199.038 249.103 199.5 250.023 200.09 250.86C200.85 252.08 201.84 253.17 202.51 254.43C203.55 256.47 200.83 260.07 198.55 260.08Z" fill="#0E2043"/>
<path d="M181.81 251.26C181.58 251.44 181.43 251.49 181.39 251.6C181.359 251.752 181.292 251.895 181.196 252.017C181.099 252.139 180.976 252.237 180.835 252.303C180.695 252.369 180.54 252.401 180.385 252.397C180.229 252.393 180.077 252.353 179.94 252.28C179.2 251.96 179.25 251.22 179.45 250.61C179.94 249.07 180.78 247.72 181.98 248.1C182.574 248.319 183.115 248.66 183.57 249.1C183.993 249.487 184.351 249.939 184.63 250.44C185.438 251.736 185.838 253.245 185.78 254.771C185.721 256.297 185.205 257.77 184.3 259C183.3 260.42 182.3 260.32 180.88 259.42C179.88 258.81 179.59 256.97 180.39 256.26C180.81 255.88 181.66 255.97 182.52 255.81C183.35 254.35 182.54 252.87 181.81 251.26Z" fill="#0E2043"/>
<path d="M121.4 241.83C121.605 241.366 121.882 240.938 122.22 240.56C122.6 240.25 123.22 239.91 123.61 240.05C123.841 240.192 124.04 240.382 124.193 240.606C124.346 240.83 124.451 241.083 124.5 241.35C124.498 241.867 124.349 242.372 124.071 242.807C123.793 243.243 123.398 243.591 122.93 243.81C122.57 243.979 122.234 244.194 121.93 244.45C120.81 245.32 118.93 244.26 118.35 243.15C117.05 240.77 117.74 238.15 116.99 235.74C116.99 235.64 116.99 235.53 116.99 235.44C116.892 235.298 116.824 235.138 116.789 234.969C116.755 234.799 116.755 234.625 116.789 234.456C116.824 234.287 116.892 234.127 116.99 233.985C117.088 233.843 117.214 233.722 117.36 233.63C118.03 233.23 119.27 233.92 119.5 234.84C119.85 236.21 120.02 237.62 120.27 239.01C120.42 239.85 120.59 240.68 120.75 241.52L121.4 241.83Z" fill="#0E2043"/>
<path d="M106.29 246C105.65 246.04 105.017 245.852 104.502 245.47C103.988 245.087 103.625 244.534 103.48 243.91C102.98 242.23 102.61 240.52 102.2 238.82C102.02 238.1 101.86 237.37 101.69 236.65C101.52 235.93 101.37 235.16 102.23 234.96C102.523 234.903 102.824 234.916 103.111 234.998C103.398 235.08 103.661 235.228 103.88 235.43C104.484 236.491 104.964 237.619 105.31 238.79C105.65 239.88 105.82 241.03 106.06 242.16C106.19 242.78 106.48 242.93 107.06 242.65C107.581 242.403 108.138 242.241 108.71 242.17C108.857 242.168 109.003 242.198 109.136 242.259C109.27 242.319 109.389 242.408 109.485 242.52C109.58 242.632 109.65 242.763 109.689 242.905C109.728 243.047 109.735 243.195 109.71 243.34C109.385 244.018 108.906 244.611 108.313 245.072C107.719 245.534 107.027 245.851 106.29 246Z" fill="#0E2043"/>
<path d="M95.93 243.06C96.0006 243.597 95.8892 244.142 95.6136 244.607C95.3381 245.073 94.9143 245.433 94.41 245.63C93.2691 245.939 92.0743 245.993 90.91 245.79C90.4763 245.715 90.0796 245.499 89.7813 245.175C89.483 244.851 89.2997 244.438 89.26 244C89.26 243.67 89.26 243.09 89.4 243C89.8192 242.848 90.2713 242.81 90.71 242.89C91.17 242.96 91.6 243.23 92.05 243.29C92.2076 243.319 92.3698 243.309 92.5229 243.262C92.6761 243.215 92.8157 243.132 92.93 243.02C92.9904 242.869 93.0129 242.705 92.9954 242.543C92.978 242.381 92.9212 242.225 92.83 242.09C91.99 241.09 91.11 240.09 90.18 239.18C89.25 238.27 89.12 237.51 89.7 236.66C90.0385 236.303 90.4828 236.065 90.9673 235.98C91.4518 235.896 91.9506 235.969 92.39 236.19C92.61 236.33 92.86 236.76 92.79 236.91C92.47 237.64 92.94 237.91 93.37 238.35C94.4993 239.19 95.3157 240.383 95.69 241.74L95.93 243.06Z" fill="#0E2043"/>
<path d="M222.4 221.15C221.774 220.762 221.187 220.314 220.65 219.81C220.23 219.34 221.24 218.19 222.1 218.02C222.499 217.941 222.869 217.754 223.17 217.48C223.57 217.07 223.52 216.62 223.09 216.14C222.205 215.16 221.371 214.135 220.59 213.07C220.243 212.582 220.014 212.021 219.92 211.43C219.92 211.18 220.29 210.82 220.55 210.56C220.654 210.436 220.784 210.336 220.931 210.268C221.078 210.199 221.238 210.164 221.4 210.164C221.562 210.164 221.722 210.199 221.869 210.268C222.016 210.336 222.146 210.436 222.25 210.56C223.67 212.14 225.06 213.77 226.35 215.47C226.94 216.25 226.28 218.82 225.35 219.47C224.42 220.12 223.84 221.2 222.49 220.92L222.4 221.15Z" fill="#0E2043"/>
<path d="M163.08 220.89C162.78 220.4 162.24 219.55 161.73 218.7C161.22 217.85 160.8 217.17 160.38 216.38C160.274 216.213 160.207 216.024 160.185 215.828C160.162 215.631 160.185 215.432 160.25 215.245C160.316 215.059 160.422 214.889 160.563 214.75C160.703 214.61 160.873 214.504 161.06 214.44C161.476 214.336 161.915 214.378 162.303 214.56C162.691 214.743 163.005 215.053 163.19 215.44C163.52 216.92 164.7 217.87 165.32 219.16C166.42 221.46 165.87 224.72 162.56 225.46C161.983 225.47 161.412 225.335 160.9 225.067C160.389 224.8 159.952 224.409 159.63 223.93C159.5 223.55 159.63 222.79 159.82 222.65C160.312 222.403 160.878 222.346 161.41 222.49C162.62 222.86 163.16 222.57 163.08 220.89Z" fill="#0E2043"/>
<path d="M114.15 241.9C113.62 240.98 113.26 240.26 112.81 239.6C112.142 238.84 111.555 238.012 111.06 237.13C110.742 236.119 110.623 235.056 110.71 234C110.71 233.68 111.46 233.16 111.87 233.15C112.28 233.14 113.01 233.64 113.05 233.98C113.29 236.42 115.05 238.04 116.11 240.07C116.75 241.33 116.53 243.38 115.37 244.07C114.772 244.494 114.034 244.673 113.308 244.569C112.582 244.465 111.924 244.086 111.47 243.51C111.358 243.353 111.291 243.168 111.275 242.976C111.259 242.784 111.296 242.591 111.381 242.418C111.466 242.244 111.596 242.097 111.758 241.992C111.92 241.887 112.107 241.828 112.3 241.82C112.918 241.792 113.537 241.818 114.15 241.9Z" fill="#0E2043"/>
<path d="M220 258.51C220 259.51 219.63 259.94 218.43 260C218.157 260.018 217.882 259.979 217.625 259.887C217.367 259.794 217.131 259.65 216.931 259.462C216.731 259.275 216.572 259.048 216.464 258.797C216.355 258.545 216.299 258.274 216.3 258C216.294 257.776 216.335 257.553 216.418 257.346C216.502 257.138 216.627 256.95 216.787 256.792C216.946 256.635 217.136 256.512 217.344 256.431C217.553 256.349 217.776 256.312 218 256.32C219.28 256.31 220 257.07 220 258.51Z" fill="#0E2043"/>
</g>
<g clip-path="url(#clip3_8_86)">
<path d="M52.1115 543.756L66.093 567.807C66.2532 568.083 66.1165 568.435 65.811 568.532L51.8296 572.976C51.5049 573.079 51.1738 572.838 51.1738 572.501V544.005C51.1738 543.495 51.8542 543.314 52.1115 543.756Z" fill="white"/>
<path d="M67.7238 566.028L54.1888 542.749C53.9763 542.383 54.2892 541.936 54.7089 542.007L69.4198 544.488C69.6718 544.531 69.8513 544.755 69.8374 545.008L68.6604 565.806C68.6327 566.302 67.9737 566.457 67.7238 566.028Z" fill="white"/>
<path d="M48.0075 543.868L36.0788 562.518C35.9399 562.733 35.9891 563.018 36.1909 563.177L48.1196 572.545C48.4496 572.803 48.9345 572.57 48.9345 572.153V544.135C48.9345 543.635 48.2766 543.446 48.0075 543.868Z" fill="white"/>
<path d="M79.2254 559.286C79.6707 559.286 80.0403 559.123 80.3318 558.798C80.6234 558.472 80.7686 558.062 80.7686 557.565C80.7686 557.074 80.6213 556.665 80.3254 556.336C80.0296 556.008 79.6632 555.844 79.2254 555.844C78.78 555.844 78.4105 556.007 78.1189 556.335C77.8273 556.66 77.6821 557.071 77.6821 557.565C77.6821 558.066 77.8252 558.478 78.1136 558.802C78.4008 559.124 78.7714 559.286 79.2254 559.286ZM82.3771 557.565C82.3771 557.986 82.298 558.381 82.1432 558.749C81.9872 559.117 81.7598 559.447 81.4618 559.739C81.1606 560.026 80.8167 560.248 80.4301 560.405C80.0435 560.561 79.6419 560.638 79.2254 560.638C78.8035 560.638 78.3998 560.561 78.0142 560.405C77.6287 560.248 77.2901 560.026 76.9964 559.739C76.6931 559.447 76.4635 559.116 76.3054 558.746C76.1484 558.375 76.0704 557.981 76.0704 557.565C76.0704 557.146 76.1484 556.752 76.3054 556.383C76.4635 556.012 76.6931 555.683 76.9964 555.392C77.2901 555.103 77.6287 554.882 78.0142 554.726C78.3998 554.57 78.8035 554.491 79.2254 554.491C79.644 554.491 80.0477 554.57 80.4365 554.726C80.8242 554.882 81.1659 555.103 81.4618 555.392C81.7576 555.679 81.984 556.009 82.141 556.38C82.298 556.751 82.3771 557.146 82.3771 557.565Z" fill="white"/>
<path d="M83.4666 560.482V554.623H87.5218L87.0807 555.908H85.0344V556.925H86.9643V558.181H85.0344V560.482H83.4666Z" fill="white"/>
<path d="M92.2954 559.17H92.5657C93.1969 559.17 93.6572 559.041 93.9477 558.784C94.2382 558.526 94.3824 558.117 94.3824 557.557C94.3824 556.996 94.2382 556.586 93.9477 556.324C93.6572 556.063 93.1969 555.932 92.5657 555.932H92.2954V559.17ZM90.7041 560.482V554.623H91.9323C92.8487 554.623 93.497 554.666 93.8772 554.752C94.2574 554.837 94.5906 554.979 94.8779 555.179C95.2517 555.438 95.5358 555.77 95.7291 556.174C95.9224 556.578 96.0186 557.039 96.0186 557.557C96.0186 558.074 95.9224 558.535 95.7291 558.939C95.5358 559.344 95.2517 559.676 94.8779 559.933C94.5938 560.132 94.2691 560.272 93.9028 560.357C93.5376 560.44 92.9715 560.482 92.2025 560.482H91.9323H90.7041Z" fill="white"/>
<path d="M97.1488 554.623H98.7733V560.482H97.1488V554.623Z" fill="white"/>
<path d="M102.958 558.325V557.097H106.117C106.12 557.136 106.123 557.181 106.124 557.228C106.125 557.276 106.126 557.347 106.126 557.441C106.126 558.449 105.858 559.232 105.321 559.788C104.785 560.345 104.031 560.623 103.058 560.623C102.58 560.623 102.155 560.551 101.783 560.408C101.411 560.265 101.078 560.048 100.786 559.754C100.507 559.474 100.289 559.142 100.135 558.759C99.9803 558.376 99.9034 557.975 99.9034 557.557C99.9034 557.119 99.9782 556.717 100.129 556.35C100.279 555.983 100.504 555.653 100.802 555.36C101.097 555.074 101.437 554.858 101.819 554.711C102.202 554.565 102.615 554.491 103.058 554.491C103.636 554.491 104.148 554.604 104.592 554.831C105.036 555.058 105.411 555.396 105.715 555.844L104.32 556.508C104.153 556.281 103.966 556.113 103.758 556.002C103.55 555.891 103.317 555.836 103.058 555.836C102.578 555.836 102.199 555.996 101.922 556.314C101.645 556.633 101.508 557.068 101.508 557.621C101.508 558.179 101.645 558.618 101.922 558.937C102.199 559.258 102.578 559.418 103.058 559.418C103.467 559.418 103.807 559.318 104.08 559.12C104.353 558.921 104.512 558.656 104.558 558.325H102.958Z" fill="white"/>
<path d="M107.232 554.623H108.856V560.482H107.232V554.623Z" fill="white"/>
<path d="M111.086 560.482V556.008H109.765V554.623H114.487L114.015 556.008H112.693V560.482H111.086Z" fill="white"/>
<path d="M116.109 558.293H117.709L117.108 556.361C117.089 556.301 117.064 556.207 117.032 556.076C116.999 555.945 116.958 555.777 116.907 555.571C116.871 555.716 116.837 555.854 116.804 555.984C116.77 556.114 116.736 556.24 116.702 556.361L116.109 558.293ZM113.856 560.482L115.891 554.623H117.906L119.945 560.482H118.345L118.047 559.433H115.763L115.456 560.482H113.856Z" fill="white"/>
<path d="M120.592 560.482V554.623H122.199V559.114H124.434L123.962 560.482H120.592Z" fill="white"/>
<path d="M76.3599 564.394H77.9832V570.253H76.3599V564.394Z" fill="white"/>
<path d="M79.364 570.253V564.394H80.9158L83.1437 567.408C83.1865 567.469 83.2569 567.592 83.3552 567.778C83.4535 567.963 83.5613 568.184 83.6799 568.441C83.6478 568.198 83.6243 567.981 83.6094 567.792C83.5944 567.603 83.587 567.435 83.587 567.288V564.394H85.1302V570.253H83.587L81.3591 567.228C81.3131 567.167 81.2416 567.044 81.1433 566.858C81.0451 566.673 80.9383 566.454 80.8229 566.204C80.855 566.449 80.8785 566.666 80.8934 566.856C80.9084 567.045 80.9158 567.213 80.9158 567.36V570.253H79.364Z" fill="white"/>
<path d="M88.0702 568.941H88.3404C88.9716 568.941 89.432 568.812 89.7225 568.555C90.013 568.297 90.1571 567.888 90.1571 567.328C90.1571 566.767 90.013 566.357 89.7225 566.095C89.432 565.834 88.9716 565.703 88.3404 565.703H88.0702V568.941ZM86.4789 570.253V564.394H87.7071C88.6235 564.394 89.2718 564.437 89.652 564.523C90.0322 564.608 90.3654 564.75 90.6527 564.95C91.0265 565.209 91.3106 565.541 91.5039 565.945C91.6972 566.349 91.7933 566.811 91.7933 567.328C91.7933 567.845 91.6972 568.306 91.5039 568.71C91.3106 569.115 91.0265 569.447 90.6527 569.705C90.3686 569.903 90.0439 570.043 89.6776 570.128C89.3123 570.211 88.7463 570.253 87.9773 570.253H87.7071H86.4789Z" fill="white"/>
<path d="M92.8475 564.394H94.4517V567.244C94.4517 567.662 94.4624 567.963 94.4837 568.146C94.5051 568.329 94.5414 568.482 94.5927 568.604C94.6546 568.754 94.7614 568.868 94.9152 568.947C95.0679 569.025 95.2548 569.064 95.4749 569.064C95.6949 569.064 95.8807 569.025 96.0324 568.947C96.1851 568.868 96.293 568.754 96.357 568.604C96.4083 568.482 96.4446 568.329 96.466 568.146C96.4873 567.963 96.498 567.662 96.498 567.244V566.843V564.394H98.0979V567.491C98.0979 568.135 98.0595 568.609 97.9815 568.915C97.9035 569.22 97.7722 569.48 97.5863 569.697C97.3845 569.934 97.1078 570.112 96.7565 570.231C96.404 570.35 95.9768 570.409 95.4749 570.409C94.9697 570.409 94.5425 570.35 94.1911 570.231C93.8408 570.112 93.5631 569.934 93.3591 569.697C93.1765 569.48 93.0451 569.22 92.9661 568.915C92.8871 568.609 92.8475 568.135 92.8475 567.491V566.884V564.394Z" fill="white"/>
<path d="M99.6638 568.36C99.903 568.63 100.139 568.831 100.371 568.965C100.604 569.098 100.835 569.164 101.066 569.164C101.281 569.164 101.458 569.107 101.596 568.992C101.735 568.878 101.804 568.732 101.804 568.556C101.804 568.361 101.744 568.212 101.625 568.106C101.505 568.001 101.234 567.892 100.812 567.78C100.234 567.625 99.8261 567.424 99.5869 567.175C99.3476 566.927 99.2291 566.588 99.2291 566.155C99.2291 565.595 99.4171 565.138 99.7951 564.785C100.172 564.43 100.661 564.254 101.264 564.254C101.588 564.254 101.897 564.298 102.189 564.384C102.48 564.471 102.756 564.602 103.016 564.778L102.513 565.927C102.331 565.772 102.143 565.655 101.95 565.577C101.758 565.498 101.568 565.459 101.38 565.459C101.187 565.459 101.03 565.505 100.909 565.597C100.788 565.688 100.728 565.807 100.728 565.951C100.728 566.098 100.781 566.215 100.887 566.303C100.993 566.392 101.197 566.475 101.502 566.555L101.573 566.575C102.229 566.751 102.661 566.945 102.868 567.155C103.008 567.299 103.113 567.472 103.186 567.674C103.259 567.875 103.295 568.098 103.295 568.344C103.295 568.966 103.089 569.465 102.678 569.843C102.267 570.221 101.719 570.409 101.034 570.409C100.623 570.409 100.249 570.339 99.9116 570.202C99.5741 570.063 99.2505 569.845 98.9386 569.549L99.6638 568.36Z" fill="white"/>
<path d="M105.13 570.253V565.779H103.809V564.394H108.37L107.898 565.779H106.737V570.253H105.13Z" fill="white"/>
<path d="M110.435 567.164H110.733C111.08 567.164 111.333 567.105 111.492 566.988C111.652 566.87 111.733 566.686 111.733 566.435C111.733 566.142 111.658 565.933 111.508 565.809C111.36 565.685 111.109 565.622 110.757 565.622H110.435V567.164ZM108.928 570.253V564.394H110.608C111.267 564.394 111.725 564.424 111.985 564.484C112.243 564.545 112.467 564.646 112.655 564.787C112.867 564.947 113.03 565.15 113.145 565.399C113.259 565.647 113.316 565.92 113.316 566.22C113.316 566.673 113.204 567.042 112.98 567.326C112.755 567.61 112.429 567.799 111.999 567.892L113.606 570.253H111.789L110.435 567.96V570.253H108.928Z" fill="white"/>
<path d="M114.342 564.394H115.966V570.253H114.342V564.394Z" fill="white"/>
<path d="M117.346 570.253V564.394H120.96V565.679H118.914V566.696H120.844V567.952H118.914V568.941H120.96V570.253H117.346Z" fill="white"/>
<path d="M122.369 568.36C122.608 568.63 122.844 568.831 123.076 568.965C123.309 569.098 123.54 569.164 123.771 569.164C123.986 569.164 124.163 569.107 124.301 568.992C124.44 568.878 124.509 568.732 124.509 568.556C124.509 568.361 124.449 568.212 124.33 568.106C124.21 568.001 123.939 567.892 123.517 567.78C122.939 567.625 122.531 567.424 122.292 567.175C122.053 566.927 121.934 566.588 121.934 566.155C121.934 565.595 122.122 565.138 122.5 564.785C122.877 564.43 123.366 564.254 123.969 564.254C124.293 564.254 124.602 564.298 124.894 564.384C125.185 564.471 125.461 564.602 125.721 564.778L125.218 565.927C125.036 565.772 124.848 565.655 124.655 565.577C124.463 565.498 124.273 565.459 124.085 565.459C123.892 565.459 123.735 565.505 123.614 565.597C123.493 565.688 123.433 565.807 123.433 565.951C123.433 566.098 123.486 566.215 123.592 566.303C123.699 566.392 123.903 566.475 124.207 566.555L124.278 566.575C124.934 566.751 125.366 566.945 125.573 567.155C125.713 567.299 125.819 567.472 125.891 567.674C125.964 567.875 126 568.098 126 568.344C126 568.966 125.794 569.465 125.383 569.843C124.972 570.221 124.424 570.409 123.739 570.409C123.328 570.409 122.954 570.339 122.617 570.202C122.279 570.063 121.956 569.845 121.644 569.549L122.369 568.36Z" fill="white"/>
<path d="M78.552 546.278L77.5737 548.526H79.5303L78.552 546.278ZM78.552 544.672L81.3492 551.02H80.5556L79.7578 549.148H77.3548L76.557 551.02H75.7634L78.552 544.672Z" fill="white"/>
<path d="M86.9086 546.374C86.6149 546.057 86.3009 545.822 85.9676 545.671C85.6344 545.52 85.266 545.444 84.8633 545.444C84.5386 545.444 84.2214 545.51 83.9117 545.64C83.602 545.77 83.3339 545.953 83.1075 546.186C82.8725 546.428 82.6952 546.699 82.5778 546.998C82.4603 547.297 82.4015 547.627 82.4015 547.988C82.4015 548.272 82.4368 548.534 82.5073 548.772C82.5767 549.012 82.6814 549.231 82.8223 549.432C83.068 549.78 83.3713 550.047 83.7312 550.235C84.0911 550.423 84.4788 550.516 84.8964 550.516C85.2884 550.516 85.6526 550.435 85.989 550.274C86.3244 550.113 86.6309 549.872 86.9086 549.553V550.516C86.6031 550.736 86.2752 550.902 85.9239 551.014C85.5725 551.127 85.2094 551.184 84.8334 551.184C84.5087 551.184 84.1926 551.135 83.8839 551.04C83.5764 550.943 83.288 550.803 83.0189 550.621C82.5714 550.312 82.2285 549.932 81.9925 549.482C81.7554 549.031 81.6368 548.537 81.6368 547.997C81.6368 547.527 81.7159 547.099 81.8739 546.713C82.0331 546.329 82.2744 545.979 82.5991 545.664C82.9131 545.364 83.2602 545.139 83.6404 544.991C84.0217 544.842 84.4372 544.768 84.889 544.768C85.2435 544.768 85.5885 544.821 85.9217 544.928C86.2549 545.035 86.5839 545.202 86.9086 545.427V546.374Z" fill="white"/>
<path d="M90.1865 546.278L89.2082 548.526H91.1648L90.1865 546.278ZM90.1865 544.672L92.9837 551.02H92.1901L91.3923 549.148H88.9893L88.1915 551.02H87.3979L90.1865 544.672Z" fill="white"/>
<path d="M94.4435 550.337H94.9103C95.6653 550.337 96.1897 550.304 96.4802 550.239C96.7718 550.173 97.0143 550.061 97.2076 549.903C97.4596 549.694 97.6508 549.426 97.7832 549.096C97.9146 548.766 97.9797 548.388 97.9797 547.963C97.9797 547.535 97.9146 547.159 97.7854 546.834C97.6551 546.511 97.4618 546.244 97.2076 546.032C97.0143 545.87 96.7686 545.756 96.4706 545.688C96.1716 545.62 95.6515 545.586 94.9103 545.586H94.4435V550.337ZM93.7045 551.021V544.914H94.8846C95.7583 544.914 96.3734 544.958 96.7302 545.045C97.0879 545.133 97.4009 545.279 97.6689 545.485C98.0225 545.756 98.2895 546.1 98.4721 546.519C98.6537 546.939 98.7444 547.423 98.7444 547.971C98.7444 548.517 98.6537 548.998 98.4742 549.417C98.2927 549.835 98.0246 550.18 97.6689 550.449C97.4009 550.655 97.0944 550.801 96.7515 550.889C96.4087 550.977 95.8747 551.021 95.1495 551.021H94.8846H93.7045Z" fill="white"/>
<path d="M100.028 551.021V544.914H103.27V545.577H100.758V547.329H103.27V548.005H100.758V550.345H103.27V551.021H100.028Z" fill="white"/>
<path d="M107.46 551.259L105.549 546.871L104.776 551.021H104.062L105.309 544.672L107.46 549.724L109.611 544.672L110.858 551.021H110.144L109.363 546.871L107.46 551.259Z" fill="white"/>
<path d="M113.242 551.021V548.226L111.158 544.914H112.003L113.611 547.563L115.211 544.914H116.051L113.972 548.226V551.021H113.242Z" fill="white"/>
</g>
</g>
<defs>
<clipPath id="clip0_8_86">
<rect width="438" height="614" fill="white"/>
</clipPath>
<clipPath id="clip1_8_86">
<rect width="325.09" height="385.23" fill="white" transform="translate(113 229)"/>
</clipPath>
<clipPath id="clip2_8_86">
<rect width="209.28" height="108.65" fill="white" transform="translate(48 190)"/>
</clipPath>
<clipPath id="clip3_8_86">
<rect width="90" height="31" fill="white" transform="translate(36 542)"/>
</clipPath>
</defs>
</svg>
