<svg width="26" height="26" viewBox="0 0 26 26" fill="none" xmlns="http://www.w3.org/2000/svg">
<circle cx="13" cy="13" r="13" fill="#E84C88"/>
<path d="M13.0001 1.56006C6.69201 1.56006 1.56006 6.69201 1.56006 13.0001C1.56006 19.3081 6.69201 24.4401 13.0001 24.4401C19.3081 24.4401 24.4401 19.3081 24.4401 13.0001C24.4401 6.69201 19.3081 1.56006 13.0001 1.56006ZM20.5638 6.83565C21.9248 8.49842 22.7489 10.6162 22.7704 12.9226C22.4483 12.8545 19.2177 12.1992 15.9663 12.6081C15.701 11.9604 15.4505 11.3906 15.1075 10.6885C18.7204 9.21342 20.3578 7.11432 20.5638 6.83565V6.83565ZM19.4775 5.70567C19.3018 5.95602 17.8309 7.93306 14.3563 9.23542C12.755 6.2935 10.9803 3.8767 10.7102 3.51505C13.809 2.76809 17.0745 3.57364 19.4775 5.70567V5.70567ZM8.84572 4.17188C9.10335 4.52519 10.8495 6.94498 12.4686 9.82311C7.89777 11.0369 3.87195 11.0194 3.43493 11.0137C4.06856 7.98145 6.11198 5.46133 8.84572 4.17188ZM3.22855 13.015C3.22855 12.915 3.23053 12.8156 3.23353 12.7164C3.66105 12.7251 8.39629 12.7862 13.2761 11.3258C13.5558 11.8732 13.823 12.4289 14.0683 12.9841C10.5349 13.9793 7.32453 16.8371 5.74059 19.5485C4.17991 17.8162 3.22855 15.5247 3.22855 13.015ZM7.00222 20.7237C8.02292 18.6372 10.793 15.9437 14.7325 14.5998C16.1044 18.1648 16.6717 21.1526 16.817 22.0099C13.6751 23.3482 9.89696 22.981 7.00222 20.7237V20.7237ZM18.4598 21.1153C18.3596 20.5209 17.8395 17.6604 16.5615 14.1483C19.6235 13.6581 22.3137 14.4605 22.648 14.566C22.2125 17.2849 20.6519 19.633 18.4598 21.1153Z" fill="white"/>
</svg>
