<svg width="94" height="33" viewBox="0 0 94 33" fill="none" xmlns="http://www.w3.org/2000/svg">
<g clip-path="url(#clip0_17_169)">
<path d="M16.6456 2.8604L31.0969 27.6325C31.1374 27.6991 31.162 27.774 31.169 27.8515C31.1759 27.9289 31.1649 28.007 31.1369 28.0796C31.1089 28.1523 31.0645 28.2176 31.0072 28.2707C30.9499 28.3238 30.8811 28.3632 30.8061 28.386L16.3549 32.972C16.277 32.9951 16.1948 32.9999 16.1147 32.986C16.0347 32.9722 15.9589 32.9401 15.8935 32.8923C15.828 32.8446 15.7747 32.7823 15.7376 32.7106C15.7005 32.6389 15.6807 32.5596 15.6797 32.479V3.07435C15.6864 2.96843 15.7262 2.86722 15.7935 2.78472C15.8608 2.70222 15.9523 2.64254 16.0554 2.61392C16.1584 2.5853 16.2679 2.58918 16.3686 2.62501C16.4693 2.66083 16.5563 2.72684 16.6175 2.81389" fill="#2083FD"/>
<path d="M32.8225 25.8001L18.7557 1.77216C18.7022 1.68354 18.6765 1.58115 18.6818 1.47799C18.6872 1.37483 18.7233 1.27557 18.7856 1.19282C18.8479 1.11007 18.9336 1.04756 19.0318 1.01324C19.13 0.978919 19.2363 0.974336 19.3372 1.00007L34.5386 3.56751C34.6635 3.59179 34.7756 3.65946 34.8546 3.75836C34.9337 3.85726 34.9746 3.9809 34.97 4.10705L33.7603 25.5675C33.7485 25.6712 33.7052 25.7688 33.6359 25.8474C33.5666 25.9259 33.4748 25.9815 33.3728 26.0068C33.2708 26.0322 33.1634 26.0259 33.065 25.9889C32.9666 25.952 32.882 25.8861 32.8225 25.8001" fill="#2083FD"/>
<path d="M12.4068 2.92553L0.0843275 22.1813C0.0145965 22.2881 -0.0125105 22.4169 0.00829692 22.5425C0.0291044 22.668 0.0963331 22.7814 0.196862 22.8604L12.5287 32.5255C12.6047 32.5848 12.6958 32.6217 12.7919 32.632C12.8879 32.6424 12.985 32.6257 13.0719 32.5841C13.1589 32.5424 13.2324 32.4773 13.2839 32.3962C13.3354 32.3151 13.3629 32.2214 13.3633 32.1255V3.2046C13.3602 3.09714 13.323 2.99339 13.2571 2.90808C13.1911 2.82277 13.0998 2.76023 12.996 2.72934C12.8922 2.69845 12.7812 2.70078 12.6788 2.736C12.5764 2.77121 12.4878 2.83753 12.4256 2.92553" fill="#2083FD"/>
<path d="M47.9207 17.0652C47.9264 17.4829 47.8467 17.8975 47.6862 18.2838C47.429 18.8654 47.0063 19.3601 46.47 19.707C45.9336 20.054 45.3069 20.2383 44.6666 20.2373C44.239 20.2371 43.8155 20.1549 43.4193 19.9954C43.025 19.8405 42.6674 19.6061 42.369 19.307C42.0606 19.0183 41.8148 18.6701 41.6469 18.2838C41.3218 17.5034 41.3218 16.627 41.6469 15.8466C41.8148 15.4602 42.0606 15.112 42.369 14.8233C42.6674 14.5243 43.025 14.2899 43.4193 14.1349C43.8155 13.9754 44.239 13.8933 44.6666 13.8931C45.0971 13.8941 45.5235 13.9762 45.9232 14.1349C46.318 14.2942 46.6779 14.528 46.9829 14.8233C47.282 15.114 47.5182 15.4622 47.6769 15.8466C47.8428 16.2315 47.9259 16.6465 47.9207 17.0652V17.0652ZM44.6666 18.8419C44.8828 18.8467 45.0974 18.8041 45.2951 18.7173C45.4928 18.6305 45.6689 18.5015 45.8107 18.3396C46.1163 17.9857 46.277 17.5309 46.2608 17.0652C46.2777 16.6005 46.1131 16.1473 45.8013 15.8C45.6627 15.6361 45.4888 15.5051 45.2924 15.4165C45.0961 15.328 44.8822 15.2842 44.6666 15.2884C44.4504 15.2837 44.2358 15.3262 44.0381 15.413C43.8403 15.4999 43.6643 15.6288 43.5225 15.7907C43.2168 16.1446 43.0562 16.5994 43.0723 17.0652C43.0562 17.5309 43.2168 17.9857 43.5225 18.3396C43.663 18.503 43.8388 18.6331 44.0368 18.72C44.2349 18.807 44.4501 18.8486 44.6666 18.8419" fill="#232323"/>
<path d="M49.0461 20.079V14.0325H53.238L52.7879 15.3534H50.6685V16.4046H52.666V17.6976H50.6685V20.079H49.0461Z" fill="#232323"/>
<path d="M56.5295 20.0791V14.0233H57.7956C58.4703 13.9997 59.1458 14.0434 59.8118 14.1535C60.1817 14.2291 60.5326 14.3778 60.8433 14.5907C61.2211 14.8547 61.5246 15.2102 61.7249 15.6233C61.9229 16.0737 62.0251 16.5598 62.0251 17.0512C62.0251 17.5426 61.9229 18.0287 61.7249 18.4791C61.5219 18.8879 61.2188 19.2397 60.8433 19.5024C60.5394 19.7091 60.199 19.8574 59.8399 19.9396C59.2581 20.0414 58.6675 20.085 58.0769 20.0698H56.5295V20.0791ZM58.1425 18.721H58.4239C58.9325 18.7664 59.4401 18.6239 59.8493 18.321C60.0117 18.1546 60.1359 17.9555 60.2136 17.7371C60.2913 17.5188 60.3206 17.2864 60.2994 17.0558C60.3195 16.8239 60.2897 16.5904 60.2121 16.3708C60.1345 16.1511 60.0109 15.9502 59.8493 15.7814C59.4401 15.4784 58.9325 15.336 58.4239 15.3814H58.1425V18.721Z" fill="#232323"/>
<path d="M64.8666 14.0325H63.188V20.079H64.8666V14.0325Z" fill="#232323"/>
<path d="M69.1897 17.8466V16.5815H72.4532C72.4585 16.6278 72.4585 16.6747 72.4532 16.721V16.935C72.5103 17.8204 72.2139 18.6925 71.6279 19.3629C71.3182 19.6588 70.9499 19.8877 70.5463 20.0351C70.1427 20.1824 69.7127 20.2449 69.2834 20.2187C68.8356 20.2259 68.3904 20.1502 67.9705 19.9954C67.581 19.8506 67.2287 19.6218 66.939 19.3257C66.6466 19.0333 66.4169 18.6852 66.2638 18.3024C66.1059 17.9056 66.0263 17.4825 66.0293 17.0559C66.0236 16.6291 66.1033 16.2054 66.2638 15.8094C66.4225 15.425 66.6586 15.0768 66.9577 14.7861C67.261 14.4977 67.6176 14.2703 68.0081 14.1164C68.4159 13.9655 68.8482 13.8898 69.2834 13.8931C69.8326 13.8835 70.3761 14.0047 70.8683 14.2466C71.3413 14.4867 71.7424 14.846 72.0311 15.2885L70.587 15.9768C70.4368 15.7606 70.2376 15.5822 70.0055 15.4559C69.7854 15.3334 69.5358 15.2723 69.2834 15.2792C69.0634 15.2697 68.844 15.3091 68.6412 15.3944C68.4384 15.4797 68.2574 15.6087 68.1112 15.7722C67.8096 16.1562 67.6565 16.6347 67.6798 17.121C67.6534 17.6106 67.8066 18.0931 68.1112 18.4792C68.2556 18.6453 68.4361 18.7769 68.6392 18.8639C68.8422 18.9509 69.0625 18.9911 69.2834 18.9815C69.6576 18.993 70.0257 18.8854 70.3338 18.6745C70.4694 18.5777 70.5835 18.4542 70.669 18.3118C70.7545 18.1694 70.8096 18.011 70.8308 17.8466H69.1897Z" fill="#232323"/>
<path d="M75.2853 14.0325H73.6067V20.079H75.2853V14.0325Z" fill="#232323"/>
<path d="M77.5923 20.079V15.4557H76.2231V14.0325H81.109L80.6213 15.4557H79.2522V20.079H77.5923Z" fill="#232323"/>
<path d="M80.4524 20.079L82.5249 14.0232H84.6162L86.7168 20.0697H85.0944L84.785 18.9813H82.4217L82.1123 20.0697L80.4524 20.079ZM82.7781 17.8185H84.4005L83.7815 15.8185L83.6971 15.5302C83.6971 15.3906 83.6221 15.2232 83.5658 15.0092C83.5658 15.1581 83.5002 15.2976 83.4627 15.4371C83.4252 15.5767 83.397 15.6976 83.3595 15.8185L82.7781 17.8185Z" fill="#232323"/>
<path d="M87.4109 20.079V14.0325H89.0801V18.665H91.3871L90.8994 20.079H87.4109Z" fill="#232323"/>
<path d="M43.3818 24.1162H41.7031V30.1627H43.3818V24.1162Z" fill="#232323"/>
<path d="M44.8074 30.1627V24.1162H46.411L48.7648 27.2232C48.7648 27.2883 48.8773 27.4185 48.9805 27.6046C49.0837 27.7906 49.1962 28.0232 49.3181 28.293C49.3181 28.0418 49.2618 27.8185 49.2431 27.6232C49.2243 27.4278 49.2431 27.2511 49.2431 27.1023V24.1162H50.8373V30.1627H49.2431L46.8892 27.0464C46.8062 26.9242 46.731 26.7968 46.6642 26.665L46.336 25.986C46.336 26.2464 46.3922 26.4697 46.411 26.665C46.4297 26.8604 46.411 27.0371 46.411 27.186V30.172L44.8074 30.1627Z" fill="#232323"/>
<path d="M52.1594 30.1628V24.1163H53.4536C54.1251 24.0975 54.797 24.1411 55.4604 24.2465C55.8304 24.3221 56.1812 24.4708 56.492 24.6838C56.8749 24.9422 57.1796 25.2991 57.3735 25.7163C57.5715 26.1667 57.6737 26.6528 57.6737 27.1442C57.6737 27.6356 57.5715 28.1217 57.3735 28.5721C57.179 28.9864 56.8742 29.3402 56.492 29.5954C56.1896 29.805 55.8487 29.9535 55.4886 30.0326C54.9099 30.1345 54.3224 30.1781 53.7349 30.1628H52.1594ZM53.8099 28.8047H54.0913C54.5997 28.8483 55.1067 28.7061 55.5167 28.4047C55.6791 28.2383 55.8033 28.0392 55.881 27.8209C55.9587 27.6025 55.988 27.3701 55.9668 27.1396C55.9863 26.9077 55.9562 26.6744 55.8787 26.4548C55.8011 26.2352 55.6778 26.0343 55.5167 25.8651C55.1067 25.5638 54.5997 25.4215 54.0913 25.4651H53.8099V28.8047Z" fill="#232323"/>
<path d="M58.7427 24.1162H60.4025V27.0464C60.383 27.3562 60.383 27.6669 60.4025 27.9767C60.4175 28.1384 60.4521 28.2977 60.5057 28.4511C60.571 28.6058 60.6911 28.7315 60.8433 28.8046C61.0239 28.8922 61.2238 28.9338 61.4247 28.9255C61.6225 28.9326 61.819 28.8911 61.9968 28.8046C62.149 28.7315 62.269 28.6058 62.3344 28.4511C62.3958 28.2995 62.4337 28.1395 62.4469 27.9767C62.4469 27.7906 62.4469 27.4744 62.4469 27.0464V24.1162H64.0974V27.3069C64.1152 27.7999 64.0743 28.2932 63.9755 28.7767C63.9035 29.0747 63.7622 29.3519 63.5629 29.586C63.3348 29.8434 63.0395 30.0333 62.7095 30.1348C61.8425 30.3827 60.9226 30.3827 60.0555 30.1348C59.7256 30.0333 59.4302 29.8434 59.2022 29.586C59.0028 29.3519 58.8615 29.0747 58.7895 28.7767C58.6955 28.2926 58.6547 27.7998 58.6676 27.3069V24.1162H58.7427Z" fill="#232323"/>
<path d="M65.7855 28.2093C65.997 28.4517 66.2435 28.6618 66.517 28.8326C66.7348 28.964 66.9842 29.0347 67.2391 29.0372C67.4362 29.0471 67.63 28.9841 67.783 28.8605C67.8501 28.8066 67.9043 28.7386 67.9416 28.6613C67.9789 28.5841 67.9984 28.4996 67.9987 28.414C68.0061 28.3273 67.9931 28.2401 67.9605 28.1593C67.9279 28.0786 67.8768 28.0065 67.8112 27.9488C67.558 27.7817 67.2745 27.6648 66.9765 27.6046C66.5053 27.5147 66.0677 27.2992 65.7105 26.9814C65.4502 26.694 65.3154 26.316 65.3354 25.9302C65.3272 25.6665 65.3756 25.404 65.4774 25.1602C65.5793 24.9164 65.7323 24.6969 65.9262 24.5163C66.3396 24.1414 66.8858 23.9441 67.4454 23.9674C67.7632 23.9687 68.0791 24.0157 68.3832 24.107C68.6867 24.1961 68.9745 24.331 69.2366 24.507L68.7114 25.6977C68.537 25.5486 68.341 25.4264 68.13 25.3349C67.9399 25.2427 67.732 25.1919 67.5204 25.186C67.347 25.1793 67.176 25.2282 67.0328 25.3256C66.9752 25.3689 66.9289 25.4253 66.8979 25.49C66.8668 25.5548 66.852 25.626 66.8546 25.6977C66.8513 25.7662 66.8639 25.8346 66.8916 25.8975C66.9192 25.9605 66.9611 26.0162 67.014 26.0605C67.2093 26.1842 67.4253 26.2724 67.6517 26.3209H67.7268C68.2128 26.409 68.6699 26.6134 69.0584 26.9163C69.2084 27.0685 69.3207 27.2532 69.3866 27.4558C69.4641 27.6771 69.5022 27.91 69.4992 28.1442C69.5125 28.4321 69.4623 28.7194 69.3522 28.9861C69.2421 29.2528 69.0746 29.4925 68.8615 29.6884C68.3945 30.0961 67.7853 30.3064 67.1641 30.2744C66.7693 30.2779 66.3775 30.2052 66.0106 30.0605C65.6328 29.9038 65.2889 29.6764 64.9978 29.3907L65.7855 28.2093Z" fill="#232323"/>
<path d="M71.4405 30.1627V25.5395H70.0713V24.1162H74.7883L74.3007 25.5395H73.1003V30.1627H71.4405Z" fill="#232323"/>
<path d="M75.3604 30.1629V24.1163H77.0953C77.5723 24.0993 78.05 24.1305 78.5207 24.2094C78.7713 24.2618 79.0078 24.3665 79.2146 24.5163C79.4317 24.6972 79.6021 24.9268 79.7117 25.1861C79.829 25.4532 79.8897 25.7413 79.8899 26.0326C79.9042 26.4415 79.7822 26.8436 79.5429 27.1768C79.2878 27.4872 78.928 27.6954 78.5301 27.7629L80.1899 30.2001H78.3144L76.8983 27.7908V30.1629H75.3604ZM76.8983 26.9722H77.2078C77.4824 26.9937 77.757 26.9321 77.9955 26.7954C78.0792 26.7252 78.1449 26.6363 78.1873 26.5361C78.2297 26.4358 78.2475 26.3271 78.2393 26.2187C78.251 26.1019 78.2369 25.984 78.198 25.8732C78.1592 25.7623 78.0965 25.6612 78.0143 25.5768C77.7848 25.4257 77.5102 25.3568 77.2359 25.3815H76.8983V26.9722Z" fill="#232323"/>
<path d="M82.6374 24.1162H80.9587V30.1627H82.6374V24.1162Z" fill="#232323"/>
<path d="M84.063 30.1627V24.1162H87.7954V25.4371H85.676V26.4883H87.6735V27.7906H85.676V28.8046H87.7954V30.1627H84.063Z" fill="#232323"/>
<path d="M89.2489 28.2094C89.4603 28.4519 89.7068 28.6619 89.9803 28.8327C90.1981 28.9641 90.4476 29.0348 90.7024 29.0373C90.8936 29.0597 91.0865 29.0135 91.2464 28.9071C91.3135 28.8532 91.3677 28.7852 91.405 28.708C91.4423 28.6307 91.4618 28.5462 91.462 28.4606C91.4695 28.3739 91.4564 28.2867 91.4238 28.206C91.3913 28.1252 91.3401 28.0531 91.2745 27.9955C91.0213 27.8283 90.7379 27.7114 90.4399 27.6513C89.9687 27.5613 89.531 27.3459 89.1738 27.028C89.0432 26.8869 88.9426 26.721 88.8782 26.5404C88.8137 26.3598 88.7867 26.1681 88.7987 25.9769C88.7905 25.7131 88.8389 25.4506 88.9408 25.2068C89.0426 24.963 89.1956 24.7435 89.3895 24.5629C89.8029 24.188 90.3491 23.9907 90.9087 24.0141C91.2266 24.0137 91.5428 24.0607 91.8465 24.1536C92.1536 24.2408 92.4448 24.3758 92.7093 24.5536L92.1841 25.7443C92.0097 25.5953 91.8137 25.473 91.6027 25.3815C91.4162 25.3014 91.2151 25.2603 91.0119 25.2606C90.8385 25.2538 90.6674 25.3028 90.5243 25.4001C90.4666 25.4434 90.4203 25.4998 90.3893 25.5646C90.3583 25.6293 90.3435 25.7006 90.3461 25.7722C90.3427 25.8408 90.3554 25.9092 90.3831 25.9721C90.4107 26.035 90.4526 26.0908 90.5055 26.135C90.7008 26.2587 90.9167 26.3469 91.1432 26.3955H91.2182C91.7036 26.4857 92.1602 26.6898 92.5499 26.9908C92.6999 27.1431 92.8122 27.3278 92.8781 27.5303C92.9556 27.7516 92.9937 27.9845 92.9906 28.2187C93.004 28.5066 92.9538 28.794 92.8437 29.0607C92.7335 29.3274 92.5661 29.567 92.3529 29.7629C91.886 30.1706 91.2768 30.381 90.6555 30.349C90.2607 30.3524 89.869 30.2798 89.5021 30.135C89.1242 29.9783 88.7804 29.7509 88.4893 29.4652L89.2489 28.2094Z" fill="#232323"/>
<path d="M43.9727 3.79077L46.8893 10.3024H46.0452L45.22 8.36752H42.7349L41.9096 10.3024H41.0938L43.9727 3.79077ZM43.9727 5.45589L42.9599 7.73496H45.0137L43.9727 5.45589Z" fill="#232323"/>
<path d="M52.6096 5.51164C52.346 5.21326 52.0278 4.96706 51.6718 4.78606C51.3111 4.63001 50.9213 4.55079 50.5277 4.5535C50.2044 4.55838 49.8855 4.62799 49.59 4.75816C49.2775 4.88956 48.9947 5.08147 48.758 5.32267C48.5213 5.56386 48.3354 5.84949 48.2114 6.16281C47.9818 6.7581 47.9554 7.41169 48.1364 8.02327C48.2039 8.26853 48.3116 8.5011 48.4552 8.71164C48.701 9.05416 49.0215 9.33717 49.393 9.53955C49.7624 9.73396 50.1752 9.83313 50.5934 9.82792C50.9829 9.83087 51.368 9.74493 51.7187 9.57676C52.0772 9.39162 52.3957 9.13883 52.6565 8.83257V9.79071C52.3281 10.0194 51.9636 10.1923 51.5781 10.3023C51.2152 10.422 50.8351 10.4817 50.4527 10.4791C50.1342 10.4779 49.8179 10.4277 49.5149 10.3302C49.1833 10.2328 48.8675 10.0887 48.5771 9.90234C48.1373 9.59698 47.7773 9.19198 47.5268 8.72095C47.2807 8.24652 47.1551 7.71961 47.1611 7.18606C47.157 6.73438 47.2397 6.28607 47.4049 5.86513C47.5743 5.45634 47.8301 5.08836 48.1551 4.78606C48.4608 4.48042 48.8284 4.24262 49.2336 4.08839C49.6424 3.92843 50.0789 3.84942 50.5184 3.85583C50.8782 3.85634 51.2358 3.91284 51.5781 4.02327C51.9424 4.14277 52.2869 4.31518 52.6002 4.5349L52.6096 5.51164Z" fill="#232323"/>
<path d="M55.995 3.79077L58.8833 10.3024H58.0675L57.2047 8.37682H54.7571L53.9318 10.3024H53.116L55.995 3.79077ZM55.995 5.45589L54.9822 7.73496H57.0078L55.995 5.45589Z" fill="#232323"/>
<path d="M59.6335 10.3023V4.00459H60.8527C61.4811 3.98434 62.1099 4.03112 62.7282 4.14413C63.068 4.23342 63.3867 4.38831 63.666 4.59994C64.05 4.8676 64.3571 5.22989 64.5569 5.65111C64.7538 6.12574 64.8496 6.63565 64.8382 7.14878C64.8483 7.65879 64.7525 8.1654 64.5569 8.63715C64.3922 9.06066 64.1211 9.43533 63.7692 9.72552C63.4895 9.93448 63.1707 10.0863 62.8314 10.172C62.2888 10.2836 61.7347 10.3304 61.1809 10.3116H59.6335V10.3023ZM60.3932 9.59529H60.8714C61.4174 9.61097 61.9636 9.57672 62.5032 9.49297C62.7759 9.43501 63.0322 9.31742 63.2534 9.14878C63.5188 8.92404 63.7222 8.6359 63.8442 8.31157C63.9896 7.94126 64.0597 7.54608 64.0505 7.14878C64.0604 6.7484 63.9903 6.35004 63.8442 5.97669C63.7183 5.65702 63.5155 5.37278 63.2534 5.14878C63.0276 4.97429 62.7646 4.85338 62.4844 4.79529C61.9502 4.72106 61.4103 4.69615 60.8714 4.72087H60.3932V9.59529Z" fill="#232323"/>
<path d="M66.1606 10.3116V4.00464H69.5179V4.69301H66.9202V6.49766H69.5179V7.19534H66.9202V9.61394H69.5179V10.3116H66.1606Z" fill="#232323"/>
<path d="M73.8411 10.5534L71.8717 6.02319L71.0746 10.3116H70.3337L71.6185 3.75342L73.8411 8.97202L76.0636 3.75342L77.3577 10.3116H76.6169L75.8104 6.02319L73.8411 10.5534Z" fill="#232323"/>
<path d="M79.8148 10.3116V7.42789L77.6672 4.00464H78.5394L80.1993 6.73952L81.8591 4.00464H82.7219L80.5744 7.42789V10.3116H79.8148Z" fill="#232323"/>
</g>
<defs>
<clipPath id="clip0_17_169">
<rect width="93" height="32" fill="white" transform="translate(0 1)"/>
</clipPath>
</defs>
</svg>
