<svg width="19" height="19" viewBox="0 0 19 19" fill="none" xmlns="http://www.w3.org/2000/svg">
<circle cx="9.5" cy="9.5" r="9.5" fill="black"/>
<path d="M9.501 7.19251C8.22404 7.19251 7.19403 8.22275 7.19403 9.5C7.19403 10.7773 8.22404 11.8075 9.501 11.8075C10.778 11.8075 11.808 10.7773 11.808 9.5C11.808 8.22275 10.778 7.19251 9.501 7.19251ZM9.501 11.0002C8.67579 11.0002 8.00117 10.3274 8.00117 9.5C8.00117 8.6726 8.67379 7.99983 9.501 7.99983C10.3282 7.99983 11.0008 8.6726 11.0008 9.5C11.0008 10.3274 10.3262 11.0002 9.501 11.0002V11.0002ZM12.4404 7.09813C12.4404 7.39736 12.1995 7.63634 11.9023 7.63634C11.6032 7.63634 11.3643 7.39535 11.3643 7.09813C11.3643 6.8009 11.6052 6.55991 11.9023 6.55991C12.1995 6.55991 12.4404 6.8009 12.4404 7.09813ZM13.9684 7.64437C13.9342 6.92341 13.7696 6.28478 13.2416 5.75862C12.7155 5.23246 12.077 5.06778 11.3562 5.03163C10.6133 4.98946 8.38667 4.98946 7.64378 5.03163C6.92499 5.06577 6.2865 5.23045 5.75845 5.75661C5.2304 6.28277 5.06776 6.9214 5.03162 7.64236C4.98946 8.38542 4.98946 10.6126 5.03162 11.3556C5.06576 12.0766 5.2304 12.7152 5.75845 13.2414C6.2865 13.7675 6.92298 13.9322 7.64378 13.9684C8.38667 14.0105 10.6133 14.0105 11.3562 13.9684C12.077 13.9342 12.7155 13.7696 13.2416 13.2414C13.7676 12.7152 13.9322 12.0766 13.9684 11.3556C14.0105 10.6126 14.0105 8.38743 13.9684 7.64437V7.64437ZM13.0086 12.1529C12.852 12.5465 12.5489 12.8498 12.1533 13.0084C11.561 13.2434 10.1555 13.1892 9.501 13.1892C8.84646 13.1892 7.43898 13.2414 6.84869 13.0084C6.45516 12.8518 6.15198 12.5485 5.99336 12.1529C5.75845 11.5605 5.81266 10.1547 5.81266 9.5C5.81266 8.84531 5.76046 7.43752 5.99336 6.84709C6.14997 6.45348 6.45315 6.15023 6.84869 5.99158C7.44099 5.75661 8.84646 5.81083 9.501 5.81083C10.1555 5.81083 11.563 5.75862 12.1533 5.99158C12.5468 6.14822 12.85 6.45147 13.0086 6.84709C13.2436 7.43953 13.1893 8.84531 13.1893 9.5C13.1893 10.1547 13.2436 11.5625 13.0086 12.1529Z" fill="white"/>
</svg>
