<svg width="19" height="19" viewBox="0 0 19 19" fill="none" xmlns="http://www.w3.org/2000/svg">
<circle cx="9.5" cy="9.5" r="9.5" fill="black"/>
<path d="M13.8119 7.09526C13.7084 6.66414 13.4035 6.32461 13.0162 6.20938C12.3144 6 9.5 6 9.5 6C9.5 6 6.68564 6 5.98376 6.20938C5.59654 6.32462 5.29157 6.66414 5.18806 7.09526C5 7.87669 5 9.50707 5 9.50707C5 9.50707 5 11.1375 5.18806 11.9189C5.29157 12.35 5.59654 12.6754 5.98376 12.7906C6.68564 13 9.5 13 9.5 13C9.5 13 12.3144 13 13.0162 12.7906C13.4035 12.6754 13.7084 12.35 13.8119 11.9189C14 11.1375 14 9.50707 14 9.50707C14 9.50707 14 7.87669 13.8119 7.09526V7.09526ZM8.57954 10.9873V8.02681L10.9318 9.50711L8.57954 10.9873V10.9873Z" fill="white"/>
</svg>
