<svg width="384" height="509" viewBox="0 0 384 509" fill="none" xmlns="http://www.w3.org/2000/svg">
<g clip-path="url(#clip0_6_2)">
<g clip-path="url(#clip1_6_2)">
<path d="M326.55 509.27L326.49 497C326.49 495.69 326.42 494.38 326.41 493.07C326.41 488.01 326.3 482.94 326.49 477.89C326.55 476.16 327.35 474.44 327.85 472.73C329.596 466.569 332.796 460.917 337.18 456.25C339.92 453.35 343.04 450.82 345.74 447.89C350.41 442.84 354.95 437.67 357.54 431.13C358.93 427.62 360.54 424.21 361.79 420.65C363.195 416.726 364.154 412.658 364.65 408.52C365.33 402.1 366.24 395.69 366.9 389.26C367.65 382.01 368.25 374.74 368.9 367.48C369.25 363.4 369.63 359.33 369.76 355.24C369.88 351.73 369.63 348.24 369.58 344.69C369.58 341.69 369.58 338.62 369.58 335.58C369.5 331.82 369.32 328.06 369.2 324.3C369.2 323.9 369.3 323.49 369.31 323.09C369.43 318.67 369.54 314.253 369.64 309.84C369.615 309.594 369.615 309.346 369.64 309.1C370.88 303.52 367.16 300.26 363.81 296.94C361.336 294.636 358.34 292.965 355.08 292.07C354.677 291.98 354.287 291.839 353.92 291.65C349.68 289.05 344.78 288.59 340.11 287.47C334.56 286.14 328.92 285.12 323.3 284.06C321.62 283.74 319.87 283.85 318.17 283.59C315.499 283.277 312.85 282.796 310.24 282.15C307.24 281.32 304.24 281.43 301.24 281.15C295.06 280.62 288.86 280.26 282.68 279.72C280.24 279.51 277.84 278.92 275.41 278.66C272.01 278.3 268.59 278.05 265.17 277.83C262.08 277.64 258.97 277.56 255.87 277.45C254.87 277.45 253.87 277.45 252.93 277.45C249.58 277.59 246.23 277.79 242.87 277.91C241.55 277.96 240.12 277.8 239.17 278.91C237.87 280.37 236.54 281.91 236.36 283.98C236.273 285.196 236.357 286.418 236.61 287.61C237.209 291.01 238.382 294.284 240.08 297.29C240.419 297.852 240.688 298.453 240.88 299.08C241.99 303.44 244.88 306.74 247.59 310.08C251.564 315.054 256.456 319.22 262 322.35C265.55 324.35 269 326.65 272.6 328.51C276.338 330.534 280.293 332.128 284.39 333.26C289.31 334.49 294.17 335.94 299.06 337.26C303.034 338.24 306.953 339.432 310.8 340.83C313.12 341.73 315.74 341.83 318.22 342.33C320.12 342.73 320.73 344.21 319.62 345.55C319.418 345.798 319.152 345.985 318.85 346.09C316.55 346.75 314.25 347.21 311.92 346.17C311.559 345.977 311.159 345.868 310.75 345.85C307.86 345.97 305.46 344.26 302.75 343.7C300.53 343.24 298.31 342.7 296.1 342.18C293.16 341.45 290.23 340.71 287.31 339.93C284.57 339.19 281.79 338.55 279.14 337.6C275.99 336.46 272.96 335.03 269.88 333.73C269.31 333.49 268.75 333.23 267.88 332.85C267.72 334.42 267.5 335.68 267.47 336.95C267.38 340.89 267.41 344.82 267.29 348.76C267.19 352.17 267.12 355.6 266.73 358.99C266.399 361.995 265.81 364.966 264.97 367.87C264.18 370.58 261.75 371.95 259.33 373.01C255.529 374.559 251.359 374.965 247.33 374.18C243.05 373.49 238.73 372.86 234.54 371.76C231.148 370.72 227.81 369.508 224.54 368.13C223.06 370.58 221.72 373.02 220.17 375.32C217.97 378.59 214.67 380.42 211.01 381.55C208.37 382.37 205.56 382.68 202.95 383.55C200.34 384.42 197.75 384.04 195.17 383.89C190.756 383.52 186.536 381.908 183 379.24C181.18 377.95 179.77 376.09 178.07 374.39C173.46 376.29 168.66 378.39 163.8 380.24C162.025 380.866 160.193 381.319 158.33 381.59C156.08 381.99 153.79 382.22 151.38 382.59C151.251 383.13 151.154 383.678 151.09 384.23C150.919 389.556 151.221 394.887 151.99 400.16C152.41 403.23 152.56 406.35 152.85 409.44C153.08 412.05 153.29 414.66 153.59 417.26C154.26 423.2 155 429.13 155.66 435.07C156.18 439.79 156.66 444.51 157.08 449.25C157.31 452.02 157.31 454.81 157.43 457.59C157.56 460.53 157.8 463.47 157.82 466.42C157.82 470.42 157.71 474.42 157.65 478.42C157.59 482.02 157.65 485.62 157.48 489.21C157.31 493.47 157.04 497.72 156.76 501.97C156.59 504.42 156.3 506.86 156.07 509.31H149.63C149.97 503.76 150.38 498.21 150.63 492.65C150.78 489.3 150.48 485.92 150.76 482.58C151.05 479.07 150.67 475.58 150.76 472.1C150.91 467.01 150.22 461.99 149.88 456.95C149.72 454.66 149.88 452.34 149.64 450.06C149.12 444.11 148.5 438.17 147.91 432.23C147.7 430.23 147.5 428.15 147.27 426.11C146.84 422.38 146.38 418.64 145.97 414.91C145.48 410.35 145.03 405.8 144.57 401.24C144.21 397.59 143.74 393.94 143.57 390.24C143.4 387.16 143.57 384.06 143.57 380.71C139.57 378.3 137.57 374.23 136.23 369.71C135.661 367.911 134.993 366.145 134.23 364.42C131.379 357.968 129.937 350.983 130 343.93C130 340.75 129.6 337.56 129.58 334.37C129.58 331.02 129.8 327.68 129.87 324.37C129.87 323.23 129.68 322.09 129.68 320.95C129.68 315.23 129.61 309.49 130.6 303.82C131.1 300.93 131.96 298.1 132.6 295.22C133.35 291.7 133.9 288.14 134.71 284.63C135.94 279.28 137.48 274 140.53 269.37C142.495 266.153 145.115 263.387 148.22 261.25C149.402 260.515 150.743 260.076 152.13 259.97C155.244 259.679 158.383 260.099 161.31 261.2C164.58 262.48 167.95 263.48 171.31 264.63C172.54 265.06 173.75 265.55 175.31 266.14C176.01 264.71 176.72 263.28 177.39 261.84C178.39 259.76 179.19 257.61 180.25 255.59C182.18 251.93 185.5 250.3 189.43 249.86C191.93 249.57 194.43 249.56 196.99 249.46C198.99 249.38 200.92 249.51 202.85 249.25C207.28 248.65 211.24 250.33 215.28 251.58C216.99 252.11 218.62 252.87 220.39 253.58C221.94 250.76 223.49 248.07 224.91 245.33C225.757 243.644 226.958 242.16 228.43 240.98C230.797 238.977 233.508 237.418 236.43 236.38C238.758 235.574 241.271 235.466 243.66 236.07C244.609 236.339 245.593 236.467 246.58 236.45C248.537 236.49 250.459 236.976 252.2 237.87C256.75 239.7 261.2 241.68 265.74 243.62C266.67 244.02 267.56 244.53 268.74 245.13C268.59 242.31 268.41 239.88 268.33 237.44C268.19 233.51 268.13 229.57 268.02 225.63C267.91 222.29 267.73 218.95 267.67 215.63C267.67 213.63 267.9 211.53 267.76 209.5C267.525 205.833 267.602 202.153 267.99 198.5C268.17 196.8 268.58 195.14 268.83 193.5C269.08 191.86 269.31 190.25 269.48 188.63C269.96 184.07 270.41 179.52 270.87 174.97C271.01 173.58 271.05 172.17 271.3 170.81C272.2 165.91 273.25 161.05 274.11 156.14C275.06 150.72 277.49 145.88 280.29 141.3C282.84 137.12 285.93 133.22 290.44 130.83C290.802 130.657 291.139 130.435 291.44 130.17C297.11 124.81 303.81 124.25 310.88 126.23C314.432 127.304 317.456 129.665 319.36 132.85C320.81 135.12 321.85 137.63 323.13 140C325.61 144.58 326.13 149.62 326.92 154.65C327.704 160.355 328.065 166.111 328 171.87C327.99 172.033 327.99 172.197 328 172.36C328.295 177.269 328.295 182.191 328 187.1C327.78 191.6 328.41 196.1 328.72 200.55C329.17 207.09 329.36 213.65 329.54 220.21C329.66 224.21 329.46 228.21 329.54 232.21C329.62 236.21 330.03 240.38 330.21 244.46C330.35 247.46 330.41 250.37 330.4 253.32C330.39 256.27 329.88 259.25 330.24 262.13C330.82 266.66 330.35 271.29 331.68 275.74C331.843 276.46 331.943 277.193 331.98 277.93C334.98 278.57 337.98 279.13 340.89 279.85C345.34 280.93 349.89 281.69 354.16 283.36C359.41 285.45 364.87 287.36 369.16 291.36C372.72 294.68 375.4 298.36 376.35 303.36C376.913 306.641 377.085 309.978 376.86 313.3C376.7 316.72 376.64 320.14 376.65 323.57C376.65 327.16 376.78 330.75 376.86 334.34C376.96 338.5 377.15 342.65 377.14 346.81C377.14 352.87 376.92 358.93 376.81 364.99C376.825 365.073 376.825 365.157 376.81 365.24C375.66 368.86 376.1 372.66 375.57 376.36C375.21 378.93 375.43 381.57 375.15 384.16C374.53 389.94 373.66 395.69 373.07 401.47C372.734 406.417 372.043 411.333 371 416.18C369.141 423.062 366.651 429.757 363.56 436.18C361.422 440.508 358.733 444.542 355.56 448.18C353.26 451 350.33 453.3 347.73 455.88C344.66 458.93 341.24 461.72 338.73 465.18C335.391 469.693 333.32 475.017 332.73 480.6C332.33 484.66 332.59 488.78 332.53 492.88C332.47 496.49 332.35 500.09 332.33 503.7C332.33 505.56 332.46 507.43 332.53 509.29L326.55 509.27ZM323.55 276.55C323.618 276.164 323.652 275.772 323.65 275.38C322.54 268.49 322.65 261.54 322.65 254.59C322.65 250.91 322.49 247.23 322.36 243.59C322.16 238.37 321.87 233.14 321.72 227.92C321.61 224.23 321.72 220.55 321.65 216.86C321.65 214.17 321.36 211.49 321.27 208.8C321.17 205.94 321.4 203.05 321.03 200.24C320.389 195.703 320.141 191.119 320.29 186.54C320.4 183.85 320.29 181.15 320.29 178.46C320.29 175.11 320.49 171.75 320.29 168.46C319.91 162.71 319.68 156.94 318.44 151.25C318.078 149.164 317.515 147.118 316.76 145.14C316.542 144.699 316.371 144.237 316.25 143.76C315.619 141.196 314.385 138.82 312.65 136.83C311.193 135.031 309.184 133.762 306.933 133.22C304.683 132.678 302.316 132.892 300.2 133.83C295.51 136.06 291.3 138.91 288.2 143.25C286.953 144.853 285.861 146.57 284.94 148.38C284.05 150.28 283.09 152.16 282.32 154.11C280.932 157.608 279.972 161.261 279.46 164.99C278.87 169.11 277.96 173.19 277.37 177.31C276.69 182.01 276.25 186.73 275.64 191.44C275.42 193.05 274.94 194.63 274.64 196.24C274.316 197.675 274.106 199.132 274.01 200.6C273.86 207.72 273.79 214.85 273.72 221.98C273.72 225.49 273.35 229.06 273.81 232.52C274.438 238.37 274.771 244.247 274.81 250.13C274.99 256.35 274.94 262.58 275 268.81V271C275.274 271.168 275.57 271.296 275.88 271.38C279.93 271.97 283.98 272.7 288.05 273.06C292.36 273.44 296.7 273.47 301.05 273.63C305.739 273.822 310.404 274.394 315 275.34C317.79 275.89 320.63 276.15 323.54 276.55H323.55ZM221.55 364.21C220.99 363.04 220.67 362.39 220.38 361.73C219.546 360.229 218.876 358.644 218.38 357C217.38 351.87 216.38 346.72 215.77 341.54C215.465 338.126 215.345 334.697 215.41 331.27C215.35 327.1 215.41 322.93 215.41 318.76C215.41 315.16 215.41 311.56 215.41 307.96C215.41 303.86 215.6 299.76 215.5 295.67C215.218 291.418 215.292 287.15 215.72 282.91C215.95 281.3 216.18 279.68 216.33 278.06C216.52 276.06 216.56 273.97 216.77 271.94C217.17 268.11 217.6 264.28 218.12 260.47C218.3 259.19 217.8 258.67 216.68 258.36C214.56 257.77 212.48 257.05 210.36 256.49C207.13 255.65 203.9 254.79 200.48 255.38C198.88 255.66 197.22 255.63 195.59 255.79C193.483 255.99 191.377 256.22 189.27 256.48C188.368 256.591 187.514 256.946 186.798 257.506C186.083 258.066 185.534 258.811 185.21 259.66C184 262.34 182.76 265.01 181.57 267.66C181.213 268.401 180.96 269.189 180.82 270C180.45 272.59 180.19 275.19 179.82 277.79C179.2 282.63 178.62 287.48 177.88 292.31C177.14 297.14 176.13 301.79 175.47 306.56C174.51 313.013 174.249 319.551 174.69 326.06C175.08 331.13 175.25 336.22 175.78 341.27C176.16 344.84 176.91 348.38 177.61 351.91C178.03 354.07 178.67 356.2 179.18 358.35C179.495 360.363 179.963 362.348 180.58 364.29C181.604 366.782 182.859 369.173 184.33 371.43C185.271 373.087 186.754 374.369 188.53 375.06C189.69 375.46 190.75 376.2 191.93 376.48C194.77 377.15 197.62 377.92 200.59 377.07C203.26 376.3 206 375.77 208.65 374.93C210.03 374.433 211.341 373.761 212.55 372.93C214.69 371.55 215.88 369.37 217 367.17C217.87 365.5 218.74 363.78 221.57 364.21H221.55ZM174.45 368.07C173.92 365.26 173.45 362.71 172.95 360.15C172.79 359.35 172.65 358.54 172.45 357.76C171.722 355.508 171.118 353.218 170.64 350.9C169.89 345.64 169.29 340.35 168.81 335.05C168.42 330.74 168.29 326.42 168.06 322.05C168.005 321.147 168.005 320.242 168.06 319.34C168.37 314.8 168.65 310.25 169.06 305.71C169.29 303.19 169.71 300.71 170.13 298.18C170.85 293.93 171.67 289.7 172.39 285.45C172.64 284.02 172.64 282.54 172.84 281.09C173.29 277.95 173.84 274.81 174.28 271.65C173.812 271.333 173.3 271.087 172.76 270.92C170.983 270.739 169.255 270.223 167.67 269.4C167.282 269.279 166.884 269.196 166.48 269.15C165.22 268.82 163.96 268.48 162.71 268.15C160.43 267.51 158.18 266.75 155.87 266.24C154.84 265.936 153.748 265.914 152.706 266.176C151.665 266.438 150.713 266.975 149.95 267.73C147.628 270.039 145.663 272.681 144.12 275.57C141.92 279.93 140.93 284.64 140.05 289.4C139.2 293.91 138.45 298.46 137.3 302.9C136.477 306.491 136.028 310.157 135.96 313.84C135.83 316.84 135.91 319.84 135.96 322.84C135.96 326.69 136.1 330.53 136.17 334.38C136.22 337.58 136.4 340.78 136.26 343.96C136.153 348.453 136.9 352.925 138.46 357.14C139.31 359.61 140.25 362.04 141.19 364.47C142.19 367.07 143.19 369.69 144.27 372.23C144.629 373.249 145.295 374.131 146.176 374.756C147.057 375.381 148.11 375.717 149.19 375.72C153.28 375.64 157.4 375.37 161.24 373.77C165.65 372 170.05 370 174.47 368.07H174.45ZM269.36 270.63C269.47 268.63 269.99 266.72 269.58 265.05C268.8 261.88 268.96 258.69 268.94 255.53C268.94 252.91 268.54 251.03 265.65 250.53C265.342 250.423 265.047 250.282 264.77 250.11C262.01 248.9 259.27 247.67 256.5 246.48C254.63 245.68 252.72 244.98 250.87 244.13C249.25 243.39 247.73 242.4 245.79 242.73C245.217 242.796 244.637 242.695 244.12 242.44C243.133 242.022 242.072 241.806 241 241.806C239.928 241.806 238.867 242.022 237.88 242.44C234.88 243.44 232.01 244.96 230.53 247.81C227.76 253.12 224.53 258.28 224.03 264.51C224.03 264.75 223.9 264.99 223.87 265.23C223.6 267.01 223.26 268.78 223.1 270.57C222.8 273.99 222.61 277.42 222.36 280.84C222.25 282.38 222.02 283.93 222 285.47C222 289.81 222 294.15 222 298.47C222 300.47 221.64 302.39 221.66 304.35C221.72 310.88 221.81 317.35 222.01 323.93C222.18 329.55 221.95 335.16 222.45 340.8C223 346.584 224.14 352.297 225.85 357.85C226.145 358.926 226.65 359.932 227.337 360.811C228.024 361.69 228.878 362.424 229.85 362.97C231.584 363.867 233.44 364.504 235.36 364.86C240 365.8 244.68 366.61 249.36 367.34C252.051 367.715 254.791 367.187 257.15 365.84C257.56 365.62 258.08 365.26 258.15 364.84C258.71 362.71 259.26 360.56 259.61 358.39C259.737 356.924 259.784 355.451 259.75 353.98C260 348.85 260.3 343.72 260.52 338.59C260.627 335.81 260.667 333.03 260.64 330.25C260.64 329.33 260.78 328.34 259.64 327.68C257.563 326.507 255.559 325.208 253.64 323.79C251.11 321.88 248.31 320.3 246.3 317.72C244.44 315.34 242.54 312.97 240.46 310.79C238.773 308.997 237.418 306.918 236.46 304.65C235.589 302.188 234.588 299.775 233.46 297.42C231.983 294.589 230.852 291.591 230.09 288.49C229.391 286.12 229.37 283.601 230.03 281.22C230.832 278.107 232.652 275.351 235.2 273.39C237.234 271.862 239.663 270.95 242.2 270.76C247.1 270.54 252 270.46 256.9 270.38C258.9 270.38 260.9 270.51 262.97 270.54C265.04 270.57 267.13 270.63 269.38 270.63H269.36Z" fill="#0E2043"/>
</g>
<path d="M98.95 198.27C149.898 198.27 191.2 156.968 191.2 106.02C191.2 55.0718 149.898 13.77 98.95 13.77C48.0017 13.77 6.7 55.0718 6.7 106.02C6.7 156.968 48.0017 198.27 98.95 198.27Z" fill="white"/>
<path d="M232.45 146.02L170.59 155.48L183.97 106.02" fill="white"/>
<path d="M206.83 139.15C201.48 136.04 196.17 132.86 190.76 129.86C188.06 128.37 185.45 126.69 182.41 125.86C180.73 125.38 179.41 122.45 180.13 120.8C180.783 118.948 181.094 116.993 181.05 115.03C181.25 110.53 181.59 106.03 181.74 101.52C181.81 99.65 181.52 97.76 181.41 95.88C181.27 93.68 181.23 91.46 181 89.26C180.813 87.6426 180.506 86.0415 180.08 84.47C178.84 79.81 177.57 75.16 176.2 70.55C175.81 69.23 174.92 68.06 174.51 66.75C172.81 61.42 169.74 56.87 166.34 52.56C164.34 50.02 161.73 47.97 159.53 45.56C156.11 41.83 151.58 39.56 147.61 36.56C145.565 34.9572 143.284 33.6789 140.85 32.77C138.72 32.02 136.85 30.64 134.71 29.77C132.078 28.6483 129.388 27.6702 126.65 26.84C124.23 26.11 121.72 25.69 119.24 25.14C119.01 25.14 118.76 25.07 118.52 25.01C114.89 24.01 111.31 22.86 107.63 22.15C104.424 21.5221 101.167 21.1874 97.9 21.15C94.3806 21.1265 90.8643 21.3638 87.38 21.86C80.51 22.8 73.69 23.98 67.45 27.34C63.85 29.28 60 30.76 56.45 32.76C53.7 34.3 51.22 36.33 48.62 38.14C48.28 38.38 48 38.68 47.62 38.9C43.5626 41.6505 39.9047 44.9483 36.75 48.7C34.9983 50.735 33.3687 52.8721 31.87 55.1C29.57 58.38 27.18 61.61 25.17 65.1C22.62 69.47 20.08 73.89 18.72 78.81C18.06 81.23 18.1 83.81 17.5 86.28C16.9571 88.8179 16.6756 91.4047 16.66 94C16.53 98.17 16.16 102.33 16.12 106.49C16.1988 108.453 16.4769 110.403 16.95 112.31C17.43 114.8 17.95 117.31 18.64 119.72C19.42 122.38 20.44 124.98 21.38 127.59C21.9 129.04 22.49 130.48 23.02 131.93C24.8158 136.915 27.0234 141.741 29.62 146.36C31.32 149.36 33.62 152.11 35.49 155.04C36.1626 156.22 36.7507 157.447 37.25 158.71C35.18 159.85 34.03 159.71 32.75 158.24C30.97 156.13 29.33 153.9 27.58 151.77C24.35 147.87 21.93 143.44 19.37 139.12C17.72 136.33 16.71 133.12 15.37 130.12C15.1261 129.434 14.8355 128.766 14.5 128.12C13.4218 126.298 12.6958 124.29 12.36 122.2C11.67 118.52 10.36 114.95 9.36 111.33C8.30379 107.872 7.96353 104.234 8.36 100.64C8.69 98.05 8.47 95.39 8.77 92.8C9.24 88.8 9.97 84.89 10.54 80.93C10.8272 79.0944 11.2245 77.2778 11.73 75.49C13.0561 70.7793 15.0784 66.2931 17.73 62.18C19.5 59.32 21.22 56.43 23.15 53.68C25.08 50.93 27.34 48.23 29.44 45.52C29.49 45.46 29.58 45.42 29.62 45.35C32.27 40.77 36.42 37.71 40.52 34.59C43.25 32.51 45.85 30.25 48.67 28.31C53.4319 25.2813 58.4084 22.6042 63.56 20.3C71.4 16.48 79.81 14.85 88.34 13.75C91.3115 13.2439 94.3315 13.0828 97.34 13.27C102.21 13.79 107.15 13.58 111.94 15.05C115.37 16.11 119 16.51 122.46 17.49C126.54 18.64 130.55 20.08 134.57 21.43C135.95 21.9 137.33 22.43 138.66 23C144.66 25.68 150.49 28.54 155.66 32.69C157.96 34.54 160.59 35.98 162.79 37.92C165.48 40.28 167.79 43.12 170.44 45.48C172.265 46.9673 173.809 48.769 175 50.8C177 54.54 179 58.33 180.86 62.14C181.55 63.52 182.03 65.01 182.59 66.45C184.277 70.6249 185.576 74.9466 186.47 79.36C186.87 81.52 187.61 83.64 187.91 85.81C188.29 88.48 188.25 91.21 188.62 93.88C189.37 99.31 188.62 104.7 188.34 110.1C188.12 112.452 187.766 114.789 187.28 117.1C186.82 119.94 187.14 120.38 189.76 121.55C192.22 122.66 194.64 123.9 196.99 125.23C199.83 126.85 202.54 128.7 205.37 130.33C208.2 131.96 210.84 133.33 213.6 134.76C215.7 135.87 217.88 136.82 219.95 138C223.16 139.82 223.6 141.85 221.67 144.91C221.296 145.45 220.792 145.886 220.205 146.18C219.618 146.474 218.966 146.615 218.31 146.59C214.58 146.89 210.85 147.15 207.12 147.48C200.68 148.06 194.247 148.66 187.82 149.28C186.027 149.445 184.245 149.705 182.48 150.06C181.881 150.188 181.356 150.548 181.02 151.06C178.74 155.38 175.43 158.87 172.25 162.5C169.996 165.209 167.243 167.46 164.14 169.13C162.59 169.92 161.43 171.44 160.06 172.59C159.31 173.21 158.46 173.7 157.69 174.3C155.478 176.247 152.943 177.793 150.2 178.87C149.807 178.988 149.438 179.174 149.11 179.42C145.49 182.31 141.22 183.6 136.79 184.59C133.79 185.26 130.79 186.18 127.79 186.9C126.2 187.27 124.55 187.37 122.96 187.73C118.185 188.864 113.269 189.292 108.37 189C101.86 188.54 95.3 188.09 88.93 186.5C87.5 186.14 86.12 185.59 84.72 185.12C80.09 183.54 75.39 182.12 70.86 180.32C64.86 177.92 59.27 174.6 53.71 171.32C52.6103 170.474 51.6488 169.462 50.86 168.32C49.86 167.19 50.26 165.98 50.94 164.92C51.62 163.86 52.64 163.81 53.77 164.3C54.35 164.55 55.04 164.56 55.61 164.83C59.51 166.72 63.4 168.65 67.29 170.57C67.51 170.68 67.76 170.73 67.97 170.86C72.97 173.96 78.73 175.11 84.21 176.96C87.53 178.07 90.92 178.96 94.3 179.9C95.3399 180.096 96.3927 180.216 97.45 180.26C100.7 180.61 103.94 181.11 107.21 181.26C112.34 181.68 117.504 181.306 122.52 180.15C125.29 179.43 128.11 178.92 130.91 178.3C135.96 177.17 140.96 175.93 145.23 172.76C146.06 172.239 146.937 171.797 147.85 171.44C152.03 169.44 155.25 166.1 158.85 163.27C159.423 162.69 160.077 162.195 160.79 161.8C163.28 160.8 164.88 158.88 166.53 156.96C168.62 154.56 170.66 152.11 172.72 149.68C172.951 149.446 173.138 149.171 173.27 148.87C174.7 144.73 178.27 143.77 181.97 143.09C187.085 142.075 192.259 141.377 197.46 141C199.9 140.86 202.33 140.48 204.76 140.18C205.394 140.068 206.022 139.921 206.64 139.74L206.83 139.15Z" fill="#0E2043"/>
<path d="M104.81 125.34C104.74 127.01 104.66 128.68 104.6 130.34C104.6 130.91 104.77 131.58 104.54 132.03C104.231 132.744 103.683 133.327 102.99 133.68C102.649 133.699 102.308 133.635 101.998 133.492C101.688 133.349 101.417 133.132 101.21 132.86C100.655 131.983 100.268 131.009 100.07 129.99C99.9662 128.992 99.7619 128.007 99.46 127.05L98.86 127.12C98.722 128.536 98.6786 129.959 98.73 131.38C99.03 134.22 99.51 137.04 99.93 139.86C100 140.35 100.14 140.86 100.17 141.32C100.23 142.2 99.97 143.15 99.04 143.23C98.6599 143.237 98.283 143.159 97.937 143.001C97.5909 142.844 97.2844 142.611 97.04 142.32C96.5889 141.28 96.2535 140.193 96.04 139.08C94.9919 135.533 94.5589 131.833 94.76 128.14C94.7592 126.993 94.9909 125.857 95.4412 124.802C95.8915 123.746 96.551 122.793 97.38 122C98.21 121.21 99.23 120.66 100.25 121.25C101.44 121.94 102.25 121.44 103.18 120.87C103.632 120.56 104.145 120.35 104.684 120.254C105.224 120.158 105.778 120.179 106.309 120.314C106.84 120.449 107.336 120.697 107.764 121.039C108.192 121.382 108.542 121.811 108.79 122.3C110.137 124.936 110.823 127.86 110.79 130.82C110.79 131.67 110.96 132.51 111.02 133.13C111.851 131.946 112.767 130.823 113.76 129.77C115.58 128.07 115.91 125.77 116.56 123.51C115.607 123.265 114.68 122.93 113.79 122.51C112.747 121.921 111.805 121.168 111 120.28C110.715 119.912 110.587 119.446 110.643 118.983C110.699 118.521 110.935 118.099 111.3 117.81C112.08 117.05 112.79 117.61 113.47 118.12C115.041 119.32 116.974 119.948 118.95 119.9C121.27 119.9 121.95 121.1 121.08 123.23C120.67 124.23 120.33 125.23 119.93 126.23C120.49 126.75 120.99 127.16 121.43 127.62C122.702 128.913 123.617 130.515 124.083 132.268C124.55 134.021 124.552 135.866 124.09 137.62C124.014 138.1 123.778 138.541 123.42 138.87C120.86 140.78 117.12 142.38 114.05 138.96C113.05 137.89 112.26 136.7 111.17 135.32C111.12 136.16 111.06 136.9 111.04 137.64C111.02 138.38 111.04 138.96 111.04 139.64C110.92 141.24 110.04 142.35 109.04 142.27C108.442 142.139 107.902 141.818 107.502 141.355C107.101 140.892 106.862 140.311 106.82 139.7C106.71 137.49 106.82 135.26 106.62 133.06C106.41 130.48 106.03 127.91 105.73 125.33L104.81 125.34ZM119.25 132.23C116.39 133.28 115.86 133.72 116.38 134.58C116.752 135.198 117.318 135.676 117.99 135.94C118.56 136.14 119.29 135.83 120.22 135.71C119.85 134.38 119.57 133.39 119.25 132.23Z" fill="#0E2043"/>
<path d="M170.7 93.37C170.486 94.4765 170.192 95.566 169.82 96.63C167.97 100.9 166.02 105.13 164.15 109.4C162.99 112.02 161.93 114.68 160.78 117.3C160.35 118.3 159.78 119.16 159.29 120.12C157.57 123.73 155.9 127.37 154.16 130.97C153.865 131.636 153.424 132.228 152.87 132.7C151.05 134.09 149.23 133.26 149.09 130.96C149.112 130.063 149.288 129.177 149.61 128.34C152.17 119.89 154.79 111.45 157.34 103C158.529 99.0933 160.09 95.3094 162 91.7C162.8 90.17 166.07 88.43 167.65 88.85C169.61 89.36 170.29 89.69 170.7 93.37Z" fill="#0E2043"/>
<path d="M119.48 68.2499L117.48 69.5599C115.64 68.7099 115.27 67.8399 116.27 66.4499C117.27 65.0599 118.27 64.0399 120.07 64.1399C123.22 64.3299 124.73 66.5399 123.67 69.5999C123.437 70.0584 123.359 70.5799 123.447 71.0865C123.536 71.593 123.786 72.0574 124.16 72.4099C125.086 73.7464 125.867 75.1778 126.49 76.6799C126.596 76.2345 126.68 75.7839 126.74 75.3299C126.87 73.7099 126.87 72.0699 127.13 70.4799C127.77 66.4799 128.62 65.7499 132.62 65.3699C133.11 65.3199 133.62 65.3099 134.1 65.2999C134.555 65.233 135.018 65.3459 135.392 65.6147C135.765 65.8835 136.019 66.2871 136.1 66.7399C136.212 67.227 136.138 67.7383 135.891 68.1733C135.645 68.6082 135.245 68.9352 134.77 69.0899C133.757 69.3762 132.729 69.6066 131.69 69.7799C130.76 72.1599 131 74.7799 130.76 77.6999C131.276 77.2982 131.841 76.9622 132.44 76.6999C133.349 76.4156 134.298 76.2805 135.25 76.2999C136.72 76.4299 138.93 80.0199 138.82 81.5199C138.63 84.0499 138.27 85.9899 135.9 87.0099C135.048 87.4355 134.083 87.5767 133.145 87.4129C132.207 87.2491 131.347 86.7889 130.69 86.0999C128.966 84.3586 127.561 82.3277 126.54 80.0999C126.47 81.0999 126.39 82.0199 126.33 82.9899C126.256 83.8383 125.977 84.656 125.516 85.3721C125.055 86.0882 124.427 86.6812 123.685 87.0998C122.944 87.5183 122.111 87.7498 121.26 87.7743C120.409 87.7987 119.564 87.6153 118.8 87.2399C118.23 86.9499 117.69 86.5799 117.05 86.2399C117.05 85.7199 117.05 85.2399 117.05 84.7499C117.16 82.8099 117.89 82.3299 119.73 82.9699C121.8 83.6899 122.36 83.3299 122.35 81.0699C122.344 79.706 122.227 78.3449 122 76.9999C121.864 76.3134 121.564 75.67 121.125 75.1249C120.686 74.5798 120.122 74.1492 119.48 73.8699C117.66 72.8699 117.58 72.3299 118.7 70.5899L119.96 68.5899L119.48 68.2499ZM134 80.3499C133.32 80.8899 132.32 81.2099 133 82.3499C133.19 82.6799 134.12 83.0099 134.32 82.8499C135.25 81.9999 134.89 81.1999 134 80.3499Z" fill="#0E2043"/>
<path d="M106.31 69C107.043 68.3221 107.836 67.7128 108.68 67.18C110.39 66.29 111.49 66.65 112.32 68.34C112.729 69.1354 112.967 70.0073 113.02 70.9C113.14 74.83 113.16 78.75 113.2 82.68C113.2 84.38 113.28 86.1 113.2 87.8C113.211 88.166 113.148 88.5305 113.015 88.8716C112.882 89.2128 112.681 89.5237 112.426 89.7859C112.17 90.0481 111.864 90.2561 111.527 90.3977C111.189 90.5393 110.826 90.6115 110.46 90.61C109.992 90.3245 109.617 89.9082 109.383 89.4124C109.148 88.9167 109.064 88.3631 109.14 87.82C109.14 83.88 109.14 79.95 109.14 76.01C109.162 75.3835 108.952 74.7709 108.55 74.29C108.339 75.0158 108.172 75.7538 108.05 76.5C107.93 77.5 107.99 78.5 106.68 78.79C106.403 78.8945 106.106 78.9362 105.811 78.912C105.515 78.8878 105.229 78.7983 104.973 78.65C104.716 78.5017 104.496 78.2983 104.328 78.0544C104.16 77.8106 104.048 77.5324 104 77.24C104 77.14 103.81 77.08 103.31 76.65C103.51 79.6 103.7 82.18 103.86 84.76C104.01 85.7208 104.01 86.6991 103.86 87.66C103.731 87.9777 103.534 88.2627 103.281 88.4945C103.028 88.7263 102.728 88.8989 102.4 89C102.06 89.09 101.33 88.41 101.07 87.91C100.683 87.188 100.445 86.3957 100.37 85.58C100.02 81.26 99.65 76.93 99.49 72.58C99.5071 71.0315 99.7703 69.4957 100.27 68.03C100.318 67.7212 100.443 67.4297 100.634 67.1828C100.826 66.9359 101.077 66.7418 101.364 66.6187C101.651 66.4957 101.965 66.4478 102.275 66.4795C102.586 66.5112 102.884 66.6215 103.14 66.8C104.243 67.4634 105.302 68.1983 106.31 69V69Z" fill="#0E2043"/>
<path d="M43.29 113.36C43.4122 108.986 41.9967 104.708 39.29 101.27C38.43 101.63 38.45 102.36 38.52 103.11C38.6236 103.772 38.6804 104.44 38.69 105.11C38.69 106.11 38.34 106.91 37.24 107.11C36.14 107.31 35.59 106.64 35.24 105.72L34.08 102.82C33.715 103.178 33.4599 103.632 33.3448 104.13C33.2296 104.628 33.2592 105.148 33.43 105.63C33.55 106.43 33.53 107.15 32.59 107.41C31.65 107.67 31.29 106.9 30.94 106.27C29.82 104.27 30.17 102.27 30.83 100.27C31.37 98.7 32.64 98.27 34.39 98.93C34.7607 99.1005 35.1758 99.1498 35.5762 99.0708C35.9765 98.9918 36.3418 98.7885 36.62 98.49C37.0251 98.1043 37.475 97.7686 37.96 97.49C39.47 96.63 40.15 96.75 41.35 98.06C44.598 101.652 46.5486 106.229 46.89 111.06C47.1987 114.408 46.5939 117.778 45.14 120.81C44.6825 121.831 43.8855 122.662 42.8847 123.161C41.8838 123.661 40.7408 123.798 39.65 123.55C37.81 123.23 35.65 121.4 35.58 119.55C35.58 118.98 35.37 118.42 35.31 117.85C34.94 114.46 37.16 112.3 40.52 112.85C41.37 112.87 42.23 113.12 43.29 113.36ZM39.46 116.36C39.1729 116.844 39.0437 117.406 39.0903 117.966C39.1369 118.527 39.357 119.06 39.72 119.49C42.16 119.3 42.35 119.1 42.36 116.72L39.46 116.36Z" fill="#0E2043"/>
<path d="M153.36 83.14C150.65 84.29 149.67 83.77 149.43 81.01C149.22 78.59 149.13 76.16 148.82 73.69C148.01 75.22 148.82 77.81 145.88 77.82C144.14 76.82 143.79 75.04 143.88 73.06C143.5 76.18 143.48 79.25 144.77 82.13C145.038 82.5453 145.132 83.0489 145.033 83.5331C144.934 84.0172 144.649 84.4432 144.24 84.72C143.54 85.24 142.39 84.59 141.69 83.49C139.69 80.42 139.64 76.97 139.82 73.49C139.749 71.62 140.034 69.7535 140.66 67.99C141.75 65.51 142.91 64.73 145.56 65.41C145.87 65.49 146.18 65.61 146.56 65.72C147.05 65.41 147.56 65.09 148 64.79C149.9 63.61 151.44 64.02 152.33 66.09C152.724 67.0127 152.951 67.998 153 69C153.22 73.08 153.35 77.17 153.5 81.26C153.47 81.88 153.39 82.53 153.36 83.14Z" fill="#0E2043"/>
<path d="M64.73 108C65.41 107.76 66.17 107.47 66.93 107.21C67.5401 106.942 68.2209 106.878 68.87 107.03C69.5192 107.181 70.1016 107.539 70.53 108.05C71.3499 108.961 72.0551 109.968 72.63 111.05C73.99 113.82 73.55 116.25 71.41 117.91C69.03 119.76 67.41 119.63 64.63 117.91C63.5489 117.314 62.6267 116.467 61.9411 115.44C61.2554 114.413 60.8264 113.237 60.69 112.01C60.3465 109.652 59.8724 107.315 59.27 105.01C59.0176 104.144 58.6617 103.311 58.21 102.53C57.8432 101.835 57.6322 101.069 57.5916 100.284C57.551 99.4994 57.6818 98.7153 57.9749 97.9863C58.268 97.2573 58.7164 96.6009 59.2889 96.0627C59.8614 95.5245 60.5443 95.1176 61.29 94.87C63.85 93.87 66.29 94.62 68.82 94.54C69.0477 94.5165 69.2778 94.5403 69.4958 94.61C69.7139 94.6797 69.9151 94.7937 70.087 94.9449C70.2589 95.0961 70.3976 95.2812 70.4945 95.4886C70.5914 95.696 70.6443 95.9212 70.65 96.15C70.7045 96.3999 70.7032 96.6587 70.6463 96.9081C70.5894 97.1574 70.4782 97.3911 70.3206 97.5926C70.1631 97.7941 69.9631 97.9583 69.7348 98.0737C69.5065 98.189 69.2556 98.2527 69 98.26C68.0363 98.4066 67.0644 98.4934 66.09 98.52C65.36 98.52 64.61 98.4 63.89 98.52C61.8 98.82 61.52 99.52 62.34 101.52C63.16 103.52 63.87 105.58 64.73 108ZM67.25 111C66.34 111 65.31 111.89 65.36 112.57C65.43 113.44 67.13 114.87 68.05 114.66C68.2965 114.571 68.517 114.422 68.6915 114.226C68.8661 114.031 68.9893 113.795 69.05 113.54C69.16 112.36 68.08 110.94 67.25 111Z" fill="#0E2043"/>
<path d="M46.68 132.16C48.3963 133.769 50.0221 135.471 51.55 137.26C52.4352 138.345 52.9789 139.668 53.1124 141.061C53.2459 142.455 52.9632 143.857 52.3 145.09C51.19 147.32 48.2 149.36 45.51 149.09C42.9042 148.912 40.4362 147.854 38.51 146.09C34.75 142.54 35.71 138.31 38.51 134.94C39.05 134.29 40.24 134.14 41.17 133.94C42.83 133.48 43.54 132.14 43.02 130.22C42.1088 130.717 41.163 131.148 40.19 131.51C39.9292 131.549 39.663 131.53 39.4105 131.454C39.158 131.378 38.9256 131.247 38.73 131.07C38.6388 130.864 38.6028 130.637 38.6255 130.413C38.6483 130.188 38.7291 129.974 38.86 129.79C39.9415 128.596 41.2076 127.583 42.61 126.79C44.5 125.98 46.98 128.31 46.95 130.61C46.9046 131.133 46.8143 131.652 46.68 132.16ZM45.43 145.05C46.0399 145.04 46.6383 144.883 47.1746 144.592C47.7108 144.301 48.1689 143.886 48.51 143.38C49.56 141.77 49.16 140.02 47.22 137.92C45.93 136.51 45.52 136.47 43.47 137.53C43.175 137.659 42.8708 137.766 42.56 137.85C42.0368 137.992 41.562 138.274 41.1861 138.665C40.8102 139.056 40.5473 139.541 40.4252 140.069C40.3031 140.597 40.3265 141.149 40.4929 141.665C40.6592 142.181 40.9624 142.642 41.37 143C42.6561 143.809 44.0154 144.495 45.43 145.05V145.05Z" fill="#0E2043"/>
<path d="M84.31 128.25L85.53 133.35C86.9677 133.214 88.4158 133.231 89.85 133.4C92.48 134.02 94.04 136.57 94.1 139.82C94.15 142.14 92.64 143.7 90.21 144.82C87.78 145.94 85.76 145.25 83.86 143.82C82.8706 143.16 82.081 142.241 81.5768 141.164C81.0726 140.087 80.8731 138.892 81 137.71C81.2562 135.101 80.9142 132.467 80 130.01C79.36 128.35 79.93 126.94 80.45 125.51C80.5933 125.224 80.7944 124.97 81.0405 124.765C81.2866 124.561 81.5724 124.409 81.88 124.32C83.77 123.81 85.69 123.39 87.62 123.07C88.2712 123.015 88.9244 123.15 89.5 123.46C89.7654 123.576 89.9951 123.761 90.1654 123.995C90.3357 124.229 90.4405 124.505 90.469 124.793C90.4976 125.081 90.4487 125.372 90.3276 125.635C90.2065 125.898 90.0175 126.124 89.78 126.29C89.118 126.743 88.3844 127.081 87.61 127.29C86.68 127.67 85.65 127.89 84.31 128.25ZM85.72 139.48C87.29 141.13 88.08 141.48 89.09 140.55C89.3292 140.301 89.5147 140.006 89.6351 139.683C89.7555 139.359 89.8083 139.015 89.79 138.67C89.7227 138.366 89.5855 138.083 89.3893 137.841C89.1932 137.6 88.9434 137.408 88.66 137.28C88.23 137.14 87.51 137.55 87.06 137.89C86.5609 138.373 86.112 138.906 85.72 139.48V139.48Z" fill="#0E2043"/>
<path d="M80.36 96.9199C79.8492 97.2959 79.4494 97.8028 79.203 98.3872C78.9566 98.9716 78.8726 99.6118 78.96 100.24C79.36 104.553 79.7667 108.86 80.18 113.16C80.24 113.89 80.36 114.63 80.38 115.36C80.4106 115.76 80.2832 116.155 80.0252 116.462C79.7671 116.769 79.399 116.962 79 117C78.8187 117.043 78.6308 117.049 78.4469 117.019C78.2631 116.989 78.0871 116.923 77.929 116.824C77.7709 116.726 77.634 116.597 77.526 116.445C77.418 116.293 77.3412 116.122 77.3 115.94C77.0719 115.415 76.8846 114.874 76.74 114.32C75.94 109.41 74.91 104.53 75.02 99.4999C75.1754 97.3643 76.0991 95.3572 77.62 93.8499C78.04 93.3608 78.577 92.986 79.181 92.7603C79.7849 92.5347 80.4361 92.4655 81.074 92.5594C81.7118 92.6532 82.3156 92.9069 82.8289 93.2969C83.3423 93.687 83.7486 94.2006 84.01 94.7899C84.9583 96.789 85.6279 98.9088 86 101.09C86.76 104.76 87.31 108.47 87.8 112.19C87.8089 113.071 87.5883 113.94 87.16 114.71C87.0268 115.062 86.7638 115.349 86.4253 115.512C86.0867 115.676 85.6983 115.704 85.34 115.59C84.9261 115.535 84.5397 115.353 84.2349 115.068C83.93 114.783 83.722 114.409 83.64 114C83.09 110.37 82.54 106.74 82.08 103.09C81.8562 100.951 81.2748 98.8658 80.36 96.9199V96.9199Z" fill="#0E2043"/>
<path d="M72.59 147.66C70.07 147.66 68.06 146.31 67.49 144.45C66.59 141.45 65.86 138.45 65.08 135.45C64.59 133.56 64.08 131.65 63.69 129.74C63.48 128.79 63.61 127.85 64.69 127.56C64.9066 127.489 65.1352 127.462 65.3624 127.48C65.5896 127.499 65.8108 127.563 66.0129 127.668C66.2151 127.773 66.3942 127.918 66.5397 128.093C66.6851 128.269 66.794 128.472 66.86 128.69C66.9006 128.761 66.9374 128.835 66.97 128.91C67.68 130.91 68.47 132.91 69.07 134.91C69.78 137.34 70.3 139.83 70.95 142.28C71.24 143.36 72.18 143.56 72.95 142.78C73.5441 142.149 73.9268 141.349 74.0451 140.49C74.1634 139.632 74.0113 138.758 73.61 137.99C72.9 136.6 72 135.33 71.22 133.99C69.66 131.28 70.22 128.63 72.54 127.4C73.94 126.67 75.09 126.93 75.6 128.23C75.7156 128.512 75.7701 128.816 75.7597 129.121C75.7494 129.426 75.6745 129.726 75.54 130C74.54 131.26 74.91 132.15 75.81 133.26C76.57 134.19 76.95 135.43 77.65 136.42C79.46 139.02 77.89 144.57 75.47 146.24C74.5554 146.8 73.5914 147.276 72.59 147.66V147.66Z" fill="#0E2043"/>
<path d="M69.47 74.24C69.21 75.99 68.82 77.73 68.73 79.49C68.59 82.1 68.66 84.72 68.65 87.34C68.7205 87.7423 68.7035 88.155 68.6 88.55C68.31 89.08 67.88 89.82 67.42 89.89C67.1183 89.8785 66.8243 89.7909 66.5656 89.6353C66.3068 89.4797 66.0916 89.2612 65.94 89C65.3305 87.1361 64.9477 85.2055 64.8 83.25C64.7468 80.3924 64.9039 77.5346 65.27 74.7C65.491 73.3201 65.9766 71.9958 66.7 70.8C68.95 66.86 71.49 68.29 73.25 70.91C73.8746 71.9675 74.2762 73.1416 74.43 74.36C75.1164 78.399 75.1434 82.5225 74.51 86.57C74.4369 86.9742 74.3126 87.3673 74.14 87.74C73.67 88.81 72.47 89.59 71.65 89.24C71.1929 89.0464 70.8147 88.704 70.5769 88.2682C70.3391 87.8325 70.2556 87.3292 70.34 86.84C70.47 84.39 70.66 81.93 70.65 79.48C70.65 77.71 70.37 75.94 70.22 74.16L69.47 74.24Z" fill="#0E2043"/>
<path d="M94.09 79C93.8405 76.3612 93.2489 73.7661 92.33 71.28C91.61 71.97 91.27 72.51 90.8 72.68C90.2296 72.8949 89.6004 72.8949 89.03 72.68C88.8195 72.5117 88.6536 72.294 88.5473 72.0463C88.4409 71.7987 88.3971 71.5286 88.42 71.26C88.556 70.4055 88.8714 69.5895 89.3453 68.8656C89.8193 68.1417 90.4412 67.5263 91.17 67.06C91.5562 66.817 91.9928 66.6653 92.4465 66.6165C92.9002 66.5676 93.3591 66.6229 93.7882 66.7782C94.2173 66.9334 94.6053 67.1845 94.9228 67.5124C95.2402 67.8402 95.4787 68.2361 95.62 68.67C96.3292 70.5006 96.8714 72.3917 97.24 74.32C97.7518 76.8761 98.1091 79.4608 98.31 82.06C98.3375 83.1809 98.1179 84.2942 97.6669 85.3208C97.2158 86.3474 96.5443 87.2621 95.7 88C93.98 89.72 91.7 89.48 89.55 87.64C89.25 87.37 89.05 86.98 88.74 86.73C87.2 85.49 86.41 84.12 87.13 82.03C87.85 79.94 89.54 79.49 91.27 79.03C92.2058 78.9127 93.1519 78.9026 94.09 79V79ZM91.38 83.34C93.13 84.93 93.13 84.93 93.92 82.91L91.38 83.34Z" fill="#0E2043"/>
<path d="M50.64 99.8299C50.1105 100.399 49.6162 101 49.16 101.63C48.72 102.37 48.24 102.73 47.37 102.39C46.9883 102.236 46.6761 101.947 46.4919 101.579C46.3078 101.211 46.2645 100.788 46.37 100.39C46.5 98.7399 48.72 96.2 50.16 95.98C51.2256 95.8468 52.3041 96.0922 53.2071 96.6735C54.11 97.2548 54.78 98.1348 55.1 99.16C56.0503 101.511 56.8062 103.936 57.36 106.41C57.9954 109.951 58.3631 113.534 58.46 117.13C58.54 120.91 54.24 123.23 50.88 121.39C50.5765 121.217 50.3157 120.978 50.1167 120.69C49.9177 120.403 49.7856 120.075 49.73 119.73C49.9355 118.99 50.3567 118.329 50.94 117.83C51.2784 117.598 51.6798 117.476 52.09 117.48C54.34 117.2 54.38 117.15 54.34 115.04C54.2423 110.29 53.3185 105.593 51.61 101.16C51.4961 100.853 51.359 100.556 51.2 100.27C51.1 100.15 50.94 100.07 50.64 99.8299Z" fill="#0E2043"/>
<path d="M168.32 76.3799C168.441 77.6432 168.209 78.9152 167.649 80.0541C167.089 81.193 166.224 82.154 165.15 82.83C164.499 83.2995 163.762 83.6353 162.981 83.8181C162.2 84.001 161.39 84.0271 160.599 83.8951C159.807 83.763 159.05 83.4754 158.371 83.0488C157.691 82.6223 157.103 82.0653 156.64 81.41C156.313 81.0314 156.141 80.5442 156.155 80.0444C156.17 79.5446 156.372 79.0685 156.72 78.7099C157.024 78.3691 157.444 78.1529 157.898 78.1031C158.352 78.0532 158.809 78.1732 159.18 78.44C159.39 78.56 159.59 78.7099 159.79 78.8499C161.44 79.9499 162.19 79.9399 163.18 78.8499C163.734 78.3476 164.072 77.6492 164.12 76.9026C164.169 76.156 163.925 75.4199 163.44 74.8499C161.63 72.4399 159.78 70.0499 157.99 67.6299C157.493 66.9778 157.079 66.2655 156.76 65.51C156.559 65.0958 156.506 64.6249 156.612 64.1767C156.718 63.7285 156.975 63.3306 157.34 63.0499C157.678 62.7386 158.121 62.5658 158.58 62.5658C159.039 62.5658 159.482 62.7386 159.82 63.0499C160.16 63.2717 160.472 63.5336 160.75 63.83C162.75 66.48 164.68 69.2399 166.85 71.7699C167.389 72.4024 167.796 73.1357 168.048 73.9272C168.301 74.7187 168.393 75.5524 168.32 76.3799V76.3799Z" fill="#0E2043"/>
<path d="M42.61 82.69C43.29 83.25 44.05 83.81 44.73 84.46C45.86 85.55 47.02 85.51 47.53 84.04C47.9191 82.9916 47.9191 81.8384 47.53 80.79C46.38 78.47 44.87 76.33 43.53 74.12C43.36 73.85 43.1 73.63 42.94 73.35C42.6572 72.8155 42.5468 72.2066 42.6237 71.6068C42.7007 71.0071 42.9614 70.4458 43.37 70C43.8821 69.7437 44.4522 69.6255 45.0239 69.6571C45.5957 69.6887 46.1493 69.8689 46.63 70.18C46.9392 70.4464 47.1998 70.7644 47.4 71.12C49.0702 73.63 50.6057 76.227 52 78.9C52.6831 80.3977 52.8787 82.0719 52.5593 83.6867C52.24 85.3014 51.4217 86.7752 50.22 87.9C49.3757 88.6885 48.3217 89.2164 47.1846 89.4204C46.0475 89.6244 44.8758 89.4958 43.81 89.05C42.9164 88.6507 42.1438 88.023 41.57 87.23C40.35 85.65 40.69 84.28 42.61 82.69Z" fill="#0E2043"/>
<path d="M138 129.43C137.52 133.61 136.81 137.09 133 138.7C131.63 139.217 130.184 139.501 128.72 139.54C128.177 139.524 127.662 139.295 127.288 138.902C126.913 138.508 126.709 137.983 126.72 137.44C126.709 137.186 126.756 136.934 126.857 136.701C126.958 136.468 127.111 136.261 127.303 136.095C127.496 135.93 127.723 135.81 127.968 135.745C128.214 135.68 128.471 135.671 128.72 135.72C129.666 135.804 130.613 135.568 131.41 135.052C132.208 134.536 132.809 133.768 133.12 132.87C134.12 130.5 133.19 128.52 131.72 126.8C130.25 125.08 128.5 123.55 126.94 121.87C126.329 121.265 125.97 120.453 125.933 119.594C125.896 118.736 126.184 117.895 126.74 117.24C127.49 116.47 128.41 116.31 129.11 117.11C131.69 120.11 134.26 123.03 136.65 126.11C137.264 127.143 137.719 128.262 138 129.43V129.43Z" fill="#0E2043"/>
<path d="M59.13 84.59C59.37 83.91 59.58 83.21 59.86 82.59C60.0774 82.0075 60.5089 81.53 61.0665 81.2549C61.624 80.9799 62.2655 80.928 62.86 81.11C64 81.45 64.43 82.44 64.06 83.89C63.894 84.4322 63.7571 84.983 63.65 85.54C63.23 88.35 61.75 89 59.31 89.43C58.3176 89.5061 57.3288 89.2428 56.5057 88.6832C55.6826 88.1236 55.0741 87.3008 54.78 86.35C54.1401 84.2425 53.7212 82.0741 53.53 79.88C53.34 77.28 53.53 74.65 53.53 72.03C53.5582 71.5394 53.6217 71.0514 53.72 70.57C53.7399 70.1115 53.9324 69.6774 54.2587 69.3548C54.5851 69.0321 55.0213 68.8447 55.48 68.83C56.48 68.83 56.78 69.73 56.96 70.52C57.1521 71.395 57.2692 72.2849 57.31 73.18C57.52 75.96 57.64 78.74 57.91 81.51C58.1016 82.5956 58.386 83.6629 58.76 84.7L59.13 84.59Z" fill="#0E2043"/>
<path d="M80.18 85C80.7301 84.4449 81.1423 83.7685 81.3837 83.0252C81.6251 82.2819 81.6889 81.4924 81.57 80.72C81.4301 78.3527 80.7456 76.0496 79.57 73.99C78.9191 72.5849 78.4358 71.1081 78.13 69.59C78.4876 69.0293 78.8889 68.4977 79.33 68C79.5173 67.7801 79.7566 67.6106 80.0262 67.507C80.2958 67.4033 80.587 67.3688 80.8734 67.4066C81.1597 67.4444 81.432 67.5532 81.6655 67.7233C81.899 67.8933 82.0862 68.1191 82.21 68.38C83.98 72.57 86.21 76.6 85.96 81.38C85.9581 83.9409 84.9738 86.4034 83.21 88.26C81.54 89.95 77.56 89.26 76.74 87.01C76.5529 86.2533 76.6677 85.4535 77.06 84.78C77.1643 84.6275 77.2996 84.4988 77.4571 84.4023C77.6146 84.3058 77.7908 84.2438 77.974 84.2201C78.1572 84.1965 78.3433 84.2119 78.5201 84.2653C78.697 84.3187 78.8605 84.4089 79 84.53C79.379 84.7206 79.7738 84.8778 80.18 85Z" fill="#0E2043"/>
<path d="M58.93 143.93C59.4762 143.102 59.726 142.114 59.6389 141.126C59.5517 140.138 59.1327 139.209 58.45 138.49C57.23 137.06 55.91 135.71 54.73 134.26C53.9693 133.305 53.2997 132.28 52.73 131.2C52.4562 130.617 52.3358 129.973 52.38 129.33C52.344 128.833 52.4877 128.339 52.7851 127.939C53.0824 127.539 53.5135 127.259 54 127.15C54.4898 127.056 54.9969 127.144 55.4272 127.396C55.8575 127.648 56.1818 128.047 56.34 128.52C57.2289 130.552 58.5655 132.357 60.25 133.8C60.7713 134.325 61.2621 134.879 61.72 135.46C64.37 138.62 64.13 142.13 62.79 145.66C62.12 147.42 59.68 148.4 57.79 147.9C57.0094 147.66 56.2501 147.356 55.52 146.99C54.74 146.63 54.04 146.16 54.24 145.14C54.38 144.624 54.6947 144.172 55.1306 143.862C55.5665 143.552 56.0964 143.403 56.63 143.44C57.0354 143.513 57.4361 143.61 57.83 143.73C58.15 143.8 58.46 143.84 58.93 143.93Z" fill="#0E2043"/>
<path d="M35 85C35.31 84.09 35.52 83.41 35.78 82.75C35.8796 82.3486 36.1229 81.9977 36.4638 81.7637C36.8047 81.5296 37.2197 81.4287 37.63 81.48C38.0737 81.4611 38.5111 81.5903 38.8732 81.8474C39.2354 82.1045 39.5016 82.4749 39.63 82.9C40.38 85 39.36 86.58 38.17 88.07C37.6328 88.7522 36.8955 89.2492 36.0616 89.4913C35.2278 89.7334 34.339 89.7084 33.52 89.42C32.6248 89.2159 31.822 88.722 31.2362 88.0151C30.6504 87.3081 30.3143 86.4275 30.28 85.51C30.04 80.86 30.05 76.19 29.98 71.51C29.9156 71.1054 29.9859 70.6908 30.18 70.33C30.5884 69.7734 31.1625 69.3604 31.82 69.15C32.0279 69.1363 32.2363 69.1655 32.4324 69.2357C32.6285 69.3059 32.8081 69.4157 32.96 69.5583C33.112 69.7008 33.233 69.873 33.3155 70.0643C33.3981 70.2555 33.4404 70.4617 33.44 70.67C33.57 71.8 33.51 72.95 33.59 74.09C33.85 77.44 34.13 80.78 34.43 84.09C34.49 84.29 34.69 84.47 35 85Z" fill="#0E2043"/>
<path d="M153 141.71C153 144.33 151.52 146.09 149.16 146.18C148.172 146.205 147.213 145.844 146.487 145.174C145.761 144.503 145.324 143.577 145.27 142.59C145.21 139.82 146.96 137.69 149.27 137.71C149.783 137.709 150.292 137.813 150.763 138.017C151.234 138.221 151.658 138.521 152.008 138.896C152.358 139.272 152.627 139.715 152.797 140.2C152.968 140.684 153.037 141.198 153 141.71Z" fill="#0E2043"/>
</g>
<defs>
<clipPath id="clip0_6_2">
<rect width="384" height="509" fill="white"/>
</clipPath>
<clipPath id="clip1_6_2">
<rect width="265.53" height="389.29" fill="white" transform="translate(119 120)"/>
</clipPath>
</defs>
</svg>
