<svg width="43" height="45" viewBox="0 0 43 45" fill="none" xmlns="http://www.w3.org/2000/svg">
<g clip-path="url(#clip0_17_24)">
<path d="M12.6101 37.1699C11.7307 37.1851 10.8531 37.0843 10.0001 36.8699C9.23221 36.461 8.52812 35.9422 7.9101 35.3299C7.7601 35.2099 7.7401 34.9299 7.6001 34.8499C6.3201 34.1699 6.2701 32.9399 6.2101 31.7399C6.1601 30.7399 6.2101 29.7899 6.2101 28.8099C6.2101 27.8299 5.8801 26.9999 5.9101 25.9999C5.9101 24.4399 6.1601 22.8899 6.2701 21.3299C6.2701 20.7399 6.2701 20.1499 6.2701 19.5499C6.3301 18.3699 6.4301 17.1799 6.5001 15.9899C6.5701 14.7999 6.5901 13.8499 6.6301 12.7799C6.6301 12.3299 6.6301 11.8699 6.7101 11.4099C6.8401 10.2499 5.9101 10.1499 5.1901 9.76992C4.52352 9.49481 3.9334 9.06251 3.4701 8.50992C3.11584 7.84395 2.95315 7.0928 3.0001 6.33992C3.10752 5.36727 3.2745 4.40213 3.5001 3.44992C3.59357 2.99998 3.78916 2.57752 4.07177 2.21515C4.35439 1.85278 4.71648 1.56018 5.1301 1.35992C5.52216 1.19788 5.9475 1.13271 6.3701 1.16992C8.5301 1.09992 10.6801 0.999922 12.8401 0.999922C13.288 0.987483 13.7299 1.10444 14.113 1.33678C14.4961 1.56913 14.8041 1.907 15.0001 2.30992C15.0795 2.48652 15.1876 2.64873 15.3201 2.78992C16.8701 4.13992 17.0001 5.90992 16.8601 7.78992C16.9021 8.12695 16.9656 8.46096 17.0501 8.78992C17.3101 12.0941 17.3301 15.4128 17.1101 18.7199C16.9001 22.0599 16.8101 25.3999 16.6701 28.7199C16.6001 30.5199 16.5401 32.3199 16.4801 34.1199C16.4778 34.8657 16.1853 35.5813 15.6645 36.1151C15.1437 36.649 14.4356 36.9591 13.6901 36.9799L12.6101 37.0499V37.1699ZM7.5501 2.88992C7.2601 2.88992 6.9701 2.88992 6.6801 2.88992C5.6801 2.88992 5.4201 3.08992 5.1301 4.03992C4.86505 4.73595 4.70333 5.46704 4.6501 6.20992C4.62491 6.81996 4.8322 7.41682 5.2301 7.87992C5.50832 8.14768 5.83771 8.35654 6.19854 8.494C6.55938 8.63147 6.94425 8.6947 7.3301 8.67992C7.6901 8.67992 8.3301 9.04992 8.3301 9.32992C8.45697 10.281 8.5038 11.241 8.4701 12.1999C8.4701 12.8199 8.3301 13.4399 8.3101 14.0699C8.2301 16.4799 8.2101 18.8999 8.1001 21.3099C8.0401 22.6299 7.7101 23.9399 7.7401 25.2499C7.7401 27.6499 7.9701 30.0499 8.1501 32.4399C8.16878 32.588 8.21853 32.7305 8.29607 32.858C8.37362 32.9855 8.47722 33.0952 8.6001 33.1799C9.12324 33.5253 9.72281 33.7377 10.3467 33.7987C10.9706 33.8597 11.6 33.7674 12.1801 33.5299C12.3929 33.4595 12.5795 33.3263 12.7151 33.1478C12.8508 32.9693 12.9292 32.7539 12.9401 32.5299C13.1301 29.6799 13.3301 26.8299 13.4701 23.9799C13.5501 22.4999 13.5401 20.9799 13.5501 19.5199C13.5601 18.0599 13.5501 16.5999 13.5501 15.1399C13.5501 13.5299 13.6901 11.9099 13.7001 10.2999C13.7001 8.34992 13.6301 6.39992 13.5901 4.43992C13.5901 3.29992 13.1301 2.86992 12.0001 2.86992L7.5501 2.88992Z" fill="#0E2043"/>
<path d="M33.6199 27.18C33.5199 28.68 33.3999 30.18 33.3299 31.66C33.3299 32.42 33.3299 33.19 33.3299 33.96C33.3631 34.3465 33.3157 34.7357 33.1906 35.103C33.0655 35.4702 32.8654 35.8074 32.6031 36.0932C32.3408 36.3791 32.0219 36.6073 31.6667 36.7634C31.3116 36.9194 30.9278 37 30.5399 37C29.3219 37.123 28.0925 37.0691 26.8899 36.84C26.0711 36.4757 25.3308 35.9561 24.7099 35.31C24.5699 35.2 24.5499 34.91 24.3999 34.83C23.1299 34.15 23.0699 32.93 23.0099 31.73C22.9599 30.73 23.0099 29.73 23.0099 28.8C23.0099 27.87 22.7499 26.99 22.7799 26.1C22.8399 24.49 23.0499 22.89 23.1599 21.29C23.2299 20.29 23.2199 19.29 23.2499 18.29C23.2499 16.94 23.3199 15.59 23.3999 14.24C23.4451 13.5266 23.5454 12.8179 23.6999 12.12C23.7727 11.6103 23.6547 11.0916 23.3687 10.6635C23.0827 10.2353 22.6487 9.92785 22.1499 9.79998C21.5799 9.55195 21.0532 9.21435 20.5899 8.79998C19.7599 8.11998 19.9199 7.07998 19.8799 6.19998C19.9351 5.29472 20.0791 4.39708 20.3099 3.51998C20.4067 3.06377 20.603 2.63455 20.8847 2.26291C21.1665 1.89128 21.5268 1.58638 21.9399 1.36998C22.3313 1.20528 22.7565 1.13671 23.1799 1.16998C25.3599 1.09998 27.5399 0.999981 29.7299 0.999981C30.1649 0.99391 30.5929 1.11083 30.9644 1.33728C31.3359 1.56373 31.6359 1.89051 31.8299 2.27998C31.9197 2.47838 32.0413 2.66078 32.1899 2.81998C33.7199 4.15998 33.8199 5.91998 33.6999 7.75998C33.7389 8.11394 33.8024 8.46478 33.8899 8.80998C34.172 12.116 34.2088 15.4385 33.9999 18.75C33.7999 21.56 33.6999 24.37 33.5599 27.18H33.6199ZM24.4599 2.87998C22.2799 3.03998 22.4599 2.60998 21.7299 4.73998C21.5387 5.2341 21.4437 5.7602 21.4499 6.28998C21.4526 6.86008 21.6462 7.41284 21.9999 7.85998C22.2846 8.13984 22.6223 8.36005 22.9932 8.50773C23.3641 8.6554 23.7607 8.72756 24.1599 8.71998C24.3766 8.73334 24.5872 8.79729 24.7747 8.90669C24.9623 9.0161 25.1216 9.16792 25.2399 9.34998C25.4268 9.89601 25.4983 10.4749 25.4499 11.05C25.3999 12.9 25.3199 14.75 25.2199 16.59C25.1599 17.65 25.0099 18.69 24.9399 19.75C24.8399 21.37 24.7199 22.99 24.6899 24.62C24.6899 25.91 24.7499 27.2 24.8099 28.49C24.8699 29.78 24.9399 31.18 25.0499 32.49C25.0706 32.6269 25.1195 32.7581 25.1935 32.8751C25.2675 32.9922 25.365 33.0926 25.4799 33.17C25.9822 33.4999 26.5535 33.7102 27.1499 33.7848C27.7463 33.8593 28.3518 33.7961 28.9199 33.6C29.2084 33.5193 29.4594 33.3401 29.6294 33.0934C29.7993 32.8467 29.8773 32.5483 29.8499 32.25C29.9099 30.25 29.9999 28.25 30.1099 26.25C30.1099 25.48 30.3499 24.73 30.3799 23.97C30.4399 22.48 30.4399 20.97 30.4599 19.51C30.4799 18.05 30.4599 16.59 30.4599 15.13C30.4599 13.67 30.6099 11.9 30.6199 10.29C30.6199 8.28998 30.5499 6.33998 30.5099 4.35998C30.5099 3.27998 30.0299 2.82998 28.9399 2.82998L24.4599 2.87998Z" fill="#0E2043"/>
<path d="M4.30993 44.1101C4.06324 44.0002 3.84952 43.8279 3.68993 43.6101C3.54608 43.3975 3.46943 43.1467 3.46993 42.8901C3.46054 42.7869 3.46054 42.6832 3.46993 42.5801C3.48771 42.4909 3.51451 42.4038 3.54993 42.3201H4.54993C4.49995 42.4543 4.47619 42.5969 4.47993 42.7401C4.47004 42.9458 4.54193 43.1471 4.67993 43.3001C4.75084 43.3701 4.83533 43.4248 4.9282 43.4609C5.02107 43.497 5.12035 43.5138 5.21993 43.5101C5.34895 43.5124 5.47639 43.4814 5.58993 43.4201C5.70389 43.3671 5.79834 43.2796 5.85993 43.1701C5.9302 43.0524 5.96493 42.917 5.95993 42.7801C5.96534 42.6519 5.9378 42.5245 5.87993 42.4101C5.83454 42.2975 5.75383 42.2028 5.64993 42.1401C5.55097 42.0576 5.42845 42.0086 5.29993 42.0001H5.04993V41.2801H5.27993C5.36115 41.2848 5.44245 41.272 5.51834 41.2427C5.59423 41.2134 5.66297 41.1682 5.71993 41.1101C5.8218 40.9904 5.8753 40.8371 5.86993 40.6801C5.86958 40.5748 5.84203 40.4715 5.78993 40.3801C5.738 40.2881 5.66193 40.212 5.56993 40.1601C5.46862 40.1055 5.35497 40.0779 5.23993 40.0801C5.12503 40.0792 5.0117 40.1067 4.90993 40.1601C4.81808 40.2135 4.74479 40.2937 4.69993 40.3901C4.64783 40.4851 4.62033 40.5917 4.61993 40.7001C4.60631 40.7828 4.60631 40.8673 4.61993 40.9501H3.61993C3.60223 40.8341 3.60223 40.7161 3.61993 40.6001C3.62936 40.3837 3.70241 40.175 3.82993 40.0001C3.97893 39.7955 4.17889 39.6334 4.40993 39.5301C4.67274 39.4074 4.95993 39.3458 5.24993 39.3501C5.5322 39.3482 5.81166 39.4062 6.06993 39.5201C6.30332 39.6196 6.50422 39.7824 6.64993 39.9901C6.79049 40.181 6.86428 40.413 6.85993 40.6501C6.86784 40.8755 6.80867 41.0982 6.68993 41.2901C6.58148 41.459 6.42468 41.5914 6.23993 41.6701V41.6701C6.38164 41.7233 6.51095 41.805 6.61993 41.9101C6.73995 42.0265 6.83519 42.1659 6.89993 42.3201C6.97127 42.4944 7.00534 42.6818 6.99993 42.8701C7.00211 43.1285 6.92151 43.3808 6.76993 43.5901C6.60283 43.8087 6.38249 43.9808 6.12993 44.0901C5.84248 44.2129 5.5325 44.2742 5.21993 44.2701C4.90871 44.2814 4.5986 44.2269 4.30993 44.1101V44.1101Z" fill="#161449"/>
<path d="M11.5099 43.2C11.6013 42.8065 11.6482 42.404 11.6499 42V41C11.6654 40.7573 11.6135 40.515 11.4999 40.3C11.4578 40.229 11.3977 40.1704 11.3258 40.13C11.2538 40.0897 11.1725 40.069 11.0899 40.07C11.0203 40.0693 10.9516 40.0864 10.8903 40.1196C10.8291 40.1529 10.7773 40.2012 10.7399 40.26C10.6366 40.4203 10.5875 40.6096 10.5999 40.8V42.8H9.66994V40.8C9.67847 40.6113 9.6334 40.4241 9.53994 40.26C9.50007 40.1989 9.44499 40.1493 9.38011 40.116C9.31524 40.0827 9.2428 40.0668 9.16994 40.07C9.0877 40.0696 9.00693 40.0918 8.93641 40.1341C8.86589 40.1764 8.80832 40.2373 8.76994 40.31C8.65773 40.5219 8.60584 40.7606 8.61994 41V42C8.62442 42.3939 8.67136 42.7862 8.75994 43.17C8.82005 43.5205 8.93835 43.8585 9.10994 44.17H8.10994C8.00576 43.9933 7.9219 43.8055 7.85994 43.61C7.7849 43.3605 7.72479 43.1067 7.67994 42.85C7.63239 42.569 7.60565 42.2849 7.59994 42V41C7.59249 40.6893 7.65754 40.3812 7.78994 40.1C7.90427 39.8583 8.08452 39.6538 8.30994 39.51C8.52008 39.3913 8.75872 39.3325 8.99994 39.34C9.23028 39.3334 9.45818 39.3887 9.65994 39.5C9.84695 39.6073 9.99427 39.7721 10.0799 39.97V39.97C10.1642 39.7681 10.3163 39.6018 10.5099 39.5C10.7086 39.3899 10.9329 39.3347 11.1599 39.34C11.425 39.336 11.6855 39.4089 11.9099 39.55C12.1347 39.6902 12.315 39.8914 12.4299 40.13C12.5558 40.4165 12.6172 40.7271 12.6099 41.04V42.04C12.6115 42.3182 12.5881 42.596 12.5399 42.87C12.5031 43.1274 12.4463 43.3815 12.3699 43.63C12.3093 43.8277 12.2218 44.0161 12.1099 44.19H11.1099C11.2869 43.8793 11.4214 43.5464 11.5099 43.2V43.2Z" fill="#161449"/>
<path d="M16.9999 43.4099C17.0747 43.1363 17.1117 42.8536 17.1099 42.5699C17.1275 42.3475 17.0788 42.1248 16.9699 41.9299C16.9325 41.8652 16.8785 41.8115 16.8135 41.7746C16.7484 41.7377 16.6747 41.7188 16.5999 41.7199C16.5368 41.7203 16.4747 41.7359 16.419 41.7655C16.3632 41.7951 16.3155 41.8378 16.2799 41.8899C16.1969 42.032 16.1586 42.1958 16.1699 42.3599V43.3599H15.2699V42.3599C15.2784 42.1916 15.2366 42.0245 15.1499 41.8799C15.1165 41.828 15.0707 41.7852 15.0165 41.7555C14.9624 41.7258 14.9017 41.7102 14.8399 41.7099C14.7665 41.7097 14.6941 41.7279 14.6295 41.7629C14.5649 41.7978 14.51 41.8484 14.4699 41.9099C14.3546 42.1025 14.3022 42.3262 14.3199 42.5499C14.3177 43.1166 14.4698 43.6732 14.7599 44.1599H13.7599C13.5999 43.9072 13.4817 43.6303 13.4099 43.3399C13.3209 42.9532 13.2806 42.5567 13.2899 42.1599C13.24 41.5474 13.4341 40.94 13.8299 40.4699C14.219 40.0855 14.7194 39.8336 15.2599 39.7499L15.8199 39.6499C15.9007 39.6371 15.9786 39.61 16.0499 39.5699C16.1071 39.5432 16.1531 39.4971 16.1799 39.4399H17.1799C17.1642 39.6765 17.065 39.8998 16.8999 40.0699C16.6753 40.2464 16.4044 40.354 16.1199 40.3799L15.5499 40.4699C15.2042 40.5169 14.8672 40.6147 14.5499 40.7599C14.4234 40.819 14.3124 40.9066 14.2256 41.016C14.1389 41.1253 14.0787 41.2533 14.0499 41.3899V41.3899C14.1389 41.2452 14.2721 41.133 14.4299 41.0699C14.5662 41.0001 14.7168 40.9624 14.8699 40.9599C15.0414 40.9604 15.2087 41.0127 15.3499 41.1099C15.4997 41.2161 15.6173 41.3614 15.6899 41.5299C15.7815 41.3521 15.9243 41.2058 16.0999 41.1099C16.2872 41.0088 16.4971 40.9572 16.7099 40.9599C16.9526 40.9615 17.1906 41.027 17.3999 41.1499C17.6144 41.2744 17.7881 41.4586 17.8999 41.6799C18.0282 41.9305 18.0934 42.2085 18.0899 42.4899C18.0924 42.8079 18.0486 43.1246 17.9599 43.4299C17.8802 43.6893 17.7622 43.9354 17.6099 44.1599H16.6099C16.765 43.9238 16.8957 43.6725 16.9999 43.4099Z" fill="#161449"/>
<path d="M19.4001 44.11C19.1541 44.0033 18.9429 43.8301 18.7901 43.61C18.6462 43.3868 18.573 43.1254 18.5801 42.86C18.5816 42.7293 18.6088 42.6002 18.6601 42.4799H19.6601C19.6528 42.5798 19.6528 42.6801 19.6601 42.7799C19.6578 42.9122 19.6887 43.0428 19.7501 43.16C19.8064 43.2665 19.8935 43.3536 20.0001 43.41C20.1097 43.4815 20.2393 43.5165 20.3701 43.5099C20.4692 43.5148 20.5681 43.4976 20.6598 43.4596C20.7515 43.4215 20.8335 43.3636 20.9001 43.29C21.0352 43.1202 21.1028 42.9065 21.0901 42.6899V41.6899C21.0906 41.5494 21.0634 41.41 21.0101 41.2799C20.9392 41.156 20.8306 41.0579 20.7001 41C20.5946 40.9354 20.4736 40.9009 20.3501 40.9C20.2263 40.8998 20.105 40.9345 20.0001 41C19.916 41.0553 19.8472 41.131 19.8001 41.22C19.7526 41.3019 19.7284 41.3953 19.7301 41.49C19.721 41.563 19.721 41.6369 19.7301 41.7099H18.7301C18.7136 41.5972 18.7136 41.4827 18.7301 41.3699C18.7279 41.1584 18.7759 40.9494 18.8701 40.7599C18.961 40.5732 19.1078 40.4194 19.2901 40.32C19.4936 40.2133 19.7203 40.1583 19.9501 40.16C20.1603 40.1595 20.3683 40.2038 20.5601 40.29C20.7323 40.3614 20.8788 40.4834 20.9801 40.6399V40.6399V39.45H21.9801V42.77C21.9847 43.0616 21.9086 43.3489 21.7601 43.5999C21.6039 43.8235 21.3895 43.9999 21.1401 44.11C20.8529 44.2337 20.5427 44.295 20.2301 44.29C19.9441 44.2863 19.6618 44.2251 19.4001 44.11V44.11Z" fill="#161449"/>
<path d="M23.55 44.0701C23.2852 43.9385 23.0635 43.734 22.9112 43.4807C22.7588 43.2273 22.682 42.9356 22.69 42.6401C22.685 42.3477 22.7538 42.0588 22.89 41.8001C23.0198 41.5701 23.21 41.3799 23.44 41.2501C23.6717 41.1196 23.9342 41.054 24.2 41.0601C24.4106 41.0566 24.6192 41.1011 24.81 41.1901C24.9853 41.2608 25.1351 41.3828 25.24 41.5401V41.5401V40.7001C25.246 40.5472 25.2115 40.3954 25.14 40.2601C25.1015 40.2156 25.0539 40.1799 25.0004 40.1555C24.9469 40.131 24.8888 40.1184 24.83 40.1184C24.7712 40.1184 24.7131 40.131 24.6596 40.1555C24.6061 40.1799 24.5585 40.2156 24.52 40.2601C24.4491 40.3473 24.4135 40.4579 24.42 40.5701V40.7201H23.53V40.5801C23.53 40.3201 23.38 40.2001 23.09 40.2001H22.75V39.4001H23.19C23.3652 39.3989 23.5376 39.4437 23.69 39.5301C23.7623 39.5685 23.8261 39.621 23.8776 39.6846C23.9292 39.7481 23.9674 39.8214 23.99 39.9001C24.0737 39.7283 24.2105 39.5881 24.38 39.5001C24.5662 39.4079 24.7724 39.3633 24.98 39.3701C25.209 39.3653 25.4356 39.4168 25.64 39.5201C25.8279 39.613 25.9844 39.759 26.09 39.9401C26.1992 40.1534 26.2541 40.3904 26.25 40.6301V42.6301C26.2506 42.9244 26.1748 43.2138 26.03 43.4701C25.8797 43.7221 25.6613 43.9266 25.4 44.0601C25.106 44.2048 24.7827 44.28 24.455 44.28C24.1273 44.28 23.804 44.2048 23.51 44.0601L23.55 44.0701ZM24.9 43.4001C25.0198 43.3285 25.1168 43.2245 25.18 43.1001C25.244 42.9657 25.2772 42.8188 25.2772 42.6701C25.2772 42.5213 25.244 42.3744 25.18 42.2401C25.1198 42.1136 25.022 42.0088 24.9 41.9401C24.7766 41.8652 24.6344 41.827 24.49 41.8301C24.3521 41.8281 24.2166 41.8663 24.1 41.9401C23.9809 42.0094 23.8865 42.1143 23.83 42.2401C23.766 42.3744 23.7328 42.5213 23.7328 42.6701C23.7328 42.8188 23.766 42.9657 23.83 43.1001C23.8865 43.2258 23.9809 43.3307 24.1 43.4001C24.2179 43.4709 24.3525 43.5089 24.49 43.5101C24.634 43.5105 24.7756 43.4725 24.9 43.4001V43.4001Z" fill="#161449"/>
<path d="M30.9101 43.2001C31.0014 42.8066 31.0484 42.4041 31.0501 42.0001V41.0001C31.0655 40.7574 31.0136 40.5151 30.9001 40.3001C30.8596 40.2277 30.7999 40.1679 30.7275 40.1273C30.6552 40.0867 30.573 40.0669 30.4901 40.0701C30.4204 40.0694 30.3517 40.0865 30.2905 40.1197C30.2292 40.153 30.1775 40.2013 30.1401 40.2601C30.0368 40.4204 29.9877 40.6097 30.0001 40.8001V42.8001H29.0701V40.8001C29.0848 40.6109 29.0393 40.4219 28.9401 40.2601C28.9018 40.1998 28.8485 40.1506 28.7853 40.1173C28.7222 40.0839 28.6514 40.0677 28.5801 40.0701C28.4966 40.0701 28.4146 40.0923 28.3425 40.1345C28.2705 40.1767 28.2109 40.2373 28.1701 40.3101C28.0662 40.5247 28.0181 40.762 28.0301 41.0001V42.0001C28.031 42.3936 28.0746 42.7859 28.1601 43.1701C28.225 43.5193 28.3431 43.8566 28.5101 44.1701H27.5101C27.4059 43.9934 27.322 43.8056 27.2601 43.6101C27.1837 43.3616 27.1269 43.1075 27.0901 42.8501C27.0341 42.5701 27.0039 42.2856 27.0001 42.0001V41.0001C26.9926 40.6894 27.0577 40.3812 27.1901 40.1001C27.3079 39.8607 27.4874 39.657 27.7101 39.5101C27.9276 39.3701 28.1814 39.297 28.4401 39.3001C28.6704 39.2935 28.8983 39.3488 29.1001 39.4601C29.2871 39.5674 29.4344 39.7322 29.5201 39.9301C29.623 39.7336 29.7935 39.5809 30.0001 39.5001C30.1987 39.39 30.4231 39.3348 30.6501 39.3401C30.9151 39.3361 31.1757 39.409 31.4001 39.5501C31.6248 39.6903 31.8051 39.8915 31.9201 40.1301C32.0459 40.4166 32.1073 40.7272 32.1001 41.0401V42.0401C32.1 42.3178 32.08 42.5952 32.0401 42.8701C31.9952 43.1268 31.9351 43.3806 31.8601 43.6301C31.7981 43.8256 31.7143 44.0134 31.6101 44.1901H30.6101C30.7617 43.878 30.8629 43.5438 30.9101 43.2001V43.2001Z" fill="#161449"/>
<path d="M33.5001 44.11C33.247 44.0113 33.0256 43.8453 32.8601 43.63C32.7002 43.4283 32.6153 43.1773 32.6201 42.92C32.619 42.7557 32.6495 42.5927 32.7101 42.44H33.7101C33.7063 42.5032 33.7063 42.5667 33.7101 42.63C33.704 42.6998 33.704 42.7701 33.7101 42.84C33.709 42.9607 33.7438 43.079 33.8101 43.18C33.8737 43.2818 33.9635 43.3647 34.0701 43.42C34.1836 43.4813 34.311 43.5123 34.4401 43.51C34.5673 43.5126 34.6924 43.4778 34.8001 43.41C34.9039 43.3545 34.9904 43.2714 35.0501 43.17C35.1102 43.0632 35.1412 42.9425 35.1401 42.82C35.1407 42.689 35.1135 42.5595 35.0601 42.44C35.009 42.3309 34.9296 42.2377 34.8301 42.17C34.7204 42.0984 34.5909 42.0634 34.4601 42.07H34.1701V41.3H34.5801C34.696 41.3126 34.8128 41.2843 34.9101 41.22C34.9415 41.1931 34.966 41.1591 34.9817 41.1208C34.9973 41.0826 35.0036 41.0411 35.0001 41C34.9979 40.9307 34.9733 40.8641 34.9301 40.81C34.8847 40.7536 34.8264 40.709 34.7601 40.68L34.4601 40.55C34.211 40.4559 33.9832 40.3132 33.7901 40.13C33.6234 39.9466 33.5307 39.7078 33.5301 39.46H34.5301C34.5476 39.5721 34.6087 39.6727 34.7001 39.74C34.7832 39.8042 34.8738 39.8579 34.9701 39.9L35.1501 39.98C35.2927 40.0375 35.43 40.1078 35.5601 40.19C35.6694 40.2625 35.7615 40.3581 35.8301 40.47C35.9063 40.6074 35.9442 40.7628 35.9401 40.92C35.9475 41.0942 35.8905 41.265 35.7801 41.4C35.6665 41.5393 35.5129 41.6405 35.3401 41.69V41.69C35.4762 41.7345 35.602 41.8059 35.7101 41.9C35.8309 42.014 35.9292 42.1497 36.0001 42.3C36.074 42.4773 36.1114 42.6678 36.1101 42.86C36.1124 43.1246 36.0319 43.3833 35.8801 43.6C35.7202 43.8151 35.5063 43.9841 35.2601 44.09C34.9829 44.2118 34.6829 44.2732 34.3801 44.27C34.0788 44.278 33.7792 44.2235 33.5001 44.11V44.11Z" fill="#161449"/>
<path d="M39.0801 43.23C39.1481 42.8505 39.1816 42.4656 39.1801 42.08V41.15C39.1949 40.8878 39.1323 40.627 39.0001 40.4C38.9403 40.3134 38.8604 40.2426 38.7672 40.1937C38.674 40.1447 38.5703 40.1192 38.4651 40.1192C38.3598 40.1192 38.2562 40.1447 38.163 40.1937C38.0698 40.2426 37.9899 40.3134 37.9301 40.4C37.7979 40.627 37.7353 40.8878 37.7501 41.15V42.08C37.749 42.4656 37.7825 42.8504 37.8501 43.23C37.9002 43.5513 37.984 43.8663 38.1001 44.17H37.1001C36.9604 43.8724 36.8661 43.5556 36.8201 43.23C36.744 42.8246 36.7105 42.4124 36.7201 42V41.08C36.7009 40.7317 36.7807 40.385 36.9501 40.08C37.0936 39.8177 37.3133 39.605 37.5801 39.47C37.8546 39.3271 38.1606 39.2549 38.4701 39.26C38.7794 39.2569 39.0848 39.329 39.3601 39.47C39.6228 39.6107 39.841 39.822 39.9901 40.08C40.1524 40.3877 40.2317 40.7324 40.2201 41.08V42C40.2187 42.3992 40.1819 42.7974 40.1101 43.19C40.0566 43.5151 39.9591 43.8313 39.8201 44.13H38.8201C38.9424 43.8415 39.0297 43.5393 39.0801 43.23V43.23Z" fill="#161449"/>
</g>
<defs>
<clipPath id="clip0_17_24">
<rect width="37.22" height="43.29" fill="white" transform="translate(3 1)"/>
</clipPath>
</defs>
</svg>
