<svg width="22" height="22" viewBox="0 0 22 22" fill="none" xmlns="http://www.w3.org/2000/svg">
<path d="M11 22C17.0751 22 22 17.0751 22 11C22 4.92487 17.0751 0 11 0C4.92487 0 0 4.92487 0 11C0 17.0751 4.92487 22 11 22Z" fill="#0E2043"/>
<path d="M13.6338 11.313H11.8743V16.9156H9.30508V11.313H8.07446V9.15404H9.30508V7.69672C9.27638 7.35011 9.32278 7.00138 9.44114 6.67433C9.55949 6.34728 9.747 6.04962 9.99088 5.80164C10.2348 5.55367 10.5293 5.36122 10.8543 5.23743C11.1793 5.11365 11.5272 5.06144 11.8743 5.08436H13.7958V7.24334H12.4356C12.3575 7.23933 12.2795 7.25269 12.2072 7.28244C12.1349 7.3122 12.0701 7.35762 12.0174 7.41544C11.9648 7.47325 11.9256 7.54202 11.9027 7.61679C11.8798 7.69156 11.8738 7.77047 11.8851 7.84785V9.11086H13.8497L13.6338 11.313Z" fill="white"/>
</svg>
