<svg width="43" height="45" viewBox="0 0 43 45" fill="none" xmlns="http://www.w3.org/2000/svg">
<g clip-path="url(#clip0_17_24)">
<path d="M20.56 30.8801C19.8978 32.2532 19.16 33.5886 18.35 34.8801C17.2034 36.3709 15.5416 37.3801 13.69 37.7101C12.244 37.9977 10.7434 37.7899 9.43 37.1201C8.30942 36.5658 7.27529 35.8517 6.36 35.0001C5.67273 34.4297 5.04305 33.7934 4.48 33.1001C3.61352 32.1176 2.96586 30.962 2.58 29.7101C2.14 28.0001 1.7 26.3001 1.43 24.5601C0.840064 21.0917 0.840064 17.5485 1.43 14.0801C1.55 13.4301 1.43 12.7301 1.51 12.0801C1.63635 10.7573 1.92175 9.45455 2.36 8.20009C3.17013 6.40692 4.09885 4.66974 5.14 3.00009C5.57292 2.26683 6.16708 1.64175 6.87745 1.17222C7.58781 0.702685 8.39574 0.401019 9.24 0.290087C10.6157 0.0937198 12.0184 0.230907 13.33 0.690087C14.5948 1.07008 15.7683 1.7054 16.778 2.55679C17.7876 3.40818 18.6119 4.45756 19.2 5.64009C19.4336 6.06119 19.7011 6.46252 20 6.84009C20.33 6.22009 20.63 5.57009 21 4.97009C21.8674 3.62984 22.9844 2.46879 24.29 1.55009C25.3074 0.804975 26.5206 0.373923 27.78 0.310087C28.7401 0.336353 29.7007 0.276109 30.65 0.130087C31.8215 -0.0654909 33.0247 0.0875142 34.11 0.570087C35.5844 1.06145 36.877 1.98475 37.82 3.22009C38.7729 4.22272 39.5444 5.38332 40.1 6.65009C40.4864 7.79179 40.6526 8.99641 40.59 10.2001C40.6427 12.5313 40.2067 14.8476 39.31 17.0001C39.2704 17.0916 39.2499 17.1903 39.2499 17.2901C39.2499 17.3898 39.2704 17.4885 39.31 17.5801C39.71 18.2101 40.15 18.8101 40.58 19.4101C41.9 21.2601 41.92 23.4101 41.77 25.5101C41.6039 27.3444 41.0879 29.1299 40.25 30.7701C40.02 31.2601 39.95 31.7701 39.71 32.3001C38.7579 34.0809 37.3847 35.6017 35.71 36.7301C34.6742 37.6416 33.3744 38.1986 32 38.3201C30.9416 38.2799 29.8973 38.0637 28.91 37.6801C27.3921 37.2197 25.9324 36.5855 24.56 35.7901C23.2471 35.1616 22.1885 34.103 21.56 32.7901C21.2794 32.1272 20.945 31.4884 20.56 30.8801V30.8801ZM2.94 20.6601H2.76C3.08 22.7301 3.39 24.8101 3.76 26.8801C4.24232 29.3452 5.57264 31.5636 7.52 33.1501C8.37 33.9101 9.52 33.8301 10.52 34.0301C11.456 34.2701 12.4418 34.2303 13.3554 33.9157C14.269 33.6011 15.0702 33.0255 15.66 32.2601C17.24 30.2601 17.21 27.8801 17.42 25.5501C17.51 24.4101 17.5 23.2701 17.58 22.1401C17.66 21.0101 17.94 19.6701 17.93 18.4401C17.93 16.6501 17.72 14.8701 17.64 13.0801C17.5899 12.4144 17.5899 11.7458 17.64 11.0801C17.742 8.81424 17.0604 6.58242 15.71 4.76009C15.241 4.12108 14.7083 3.53138 14.12 3.00009C13.8537 2.70519 13.5055 2.49631 13.12 2.40009C11.9708 2.22905 10.8117 2.13218 9.65 2.11009C9.10625 2.13157 8.57511 2.28028 8.09925 2.54426C7.62339 2.80824 7.21607 3.18014 6.91 3.63009C5.15312 5.86188 3.97488 8.49319 3.48 11.2901C3.19786 13.2794 3.02095 15.2822 2.95 17.2901C2.89 18.4201 2.94 19.5401 2.94 20.6601ZM21.46 26.9001C21.3917 28.3353 21.763 29.7572 22.5242 30.9758C23.2854 32.1945 24.4003 33.1519 25.72 33.7201C25.983 33.9082 26.2644 34.069 26.56 34.2001C28.2878 34.6503 30.1022 34.6503 31.83 34.2001C32.7763 34.0986 33.6589 33.6749 34.33 33.0001C34.91 32.2401 35.56 31.5201 36.11 30.7301C37.0158 29.4787 37.6587 28.0567 38 26.5501C38.15 25.8501 38.13 25.1201 38.23 24.4101C38.6015 22.9567 38.4197 21.4171 37.72 20.0901C37.6661 20.0054 37.6319 19.9097 37.62 19.8101C37.4635 19.2982 37.2059 18.8228 36.8623 18.4123C36.5188 18.0018 36.0963 17.6644 35.62 17.4201C34.7 16.7501 34.45 16.2801 34.98 15.2801C35.28 14.7201 35.72 14.2801 35.98 13.6501C36.35 12.7901 36.57 11.8601 36.92 10.9901C37.4256 9.47105 37.4256 7.82913 36.92 6.31009C36.45 4.42009 34.92 3.31009 33.07 2.61009C31.6223 2.18612 30.0971 2.09721 28.61 2.35009C27.4124 2.42302 26.2537 2.80254 25.2451 3.45221C24.2364 4.10189 23.4117 4.99991 22.85 6.06009C21.85 7.81009 21.98 9.80009 21.85 11.7301C21.85 11.9301 22.3 12.3301 22.55 12.3401C23.7308 12.4501 24.9192 12.4501 26.1 12.3401C26.4306 12.3074 26.7367 12.1514 26.9573 11.903C27.1778 11.6546 27.2966 11.3322 27.29 11.0001C27.2994 10.1835 27.4377 9.37349 27.7 8.60009C27.795 8.34142 27.944 8.10597 28.1372 7.9094C28.3303 7.71283 28.5631 7.55966 28.82 7.46009C29.4219 7.27342 30.0692 7.29527 30.6572 7.52211C31.2452 7.74895 31.7394 8.16751 32.06 8.71009C32.514 9.35456 32.7822 10.1115 32.8351 10.898C32.888 11.6846 32.7236 12.4706 32.36 13.1701C31.66 14.5301 30.36 14.8901 28.98 15.1701C28.49 15.2501 28.19 15.4201 28.19 15.9501C28.19 16.3001 28.12 16.6501 28.19 16.9501C28.33 18.5001 28.69 19.4801 30.69 19.8501C31.0576 19.9701 31.3722 20.214 31.58 20.5401C32.76 22.2701 32.58 24.1701 32.08 26.0401C31.9902 26.5083 31.7589 26.9377 31.4173 27.2703C31.0758 27.6029 30.6404 27.8227 30.17 27.9001C29.23 28.0401 28.67 27.4101 28.17 26.7201C27.7129 25.8829 27.508 24.9312 27.58 23.9801C27.52 23.1101 27.21 22.5401 26.36 22.4501C25.0801 22.3352 23.7939 22.3051 22.51 22.3601C22.3 22.3601 21.97 22.7401 21.94 22.9801C21.71 24.2401 21.6 25.5701 21.46 26.9001ZM21.16 14.9001L21.46 20.2901H26.75L25.75 16.4601C24.9778 16.4805 24.2058 16.41 23.45 16.2501C22.6443 15.8762 21.8773 15.424 21.16 14.9001V14.9001Z" fill="#0E2043"/>
<path d="M12.9999 13.0901C12.9999 15.0901 13.1099 17.0401 12.9999 19.0001C12.8399 21.2301 12.4699 23.4401 12.1699 25.6601C12.0799 26.2701 11.7699 26.9901 11.1099 26.8801C10.8029 26.8199 10.5129 26.6928 10.2606 26.5079C10.0083 26.3229 9.79977 26.0847 9.64992 25.8101C9.0217 24.5382 8.7291 23.1269 8.79993 21.7101C8.91993 20.7101 8.65992 19.5901 8.67992 18.5401C8.67992 16.4601 8.46992 14.3601 9.22992 12.3401C9.62992 11.2601 9.90993 10.1401 10.3099 9.07007C10.3675 8.95045 10.4483 8.84348 10.5476 8.7554C10.647 8.66733 10.7628 8.59992 10.8885 8.5571C11.0142 8.51429 11.1471 8.49692 11.2795 8.50601C11.412 8.51511 11.5413 8.55048 11.6599 8.61007C11.8586 8.7062 12.033 8.84612 12.1698 9.01933C12.3066 9.19254 12.4024 9.39451 12.4499 9.61007C12.6799 10.7701 12.7799 11.9501 12.9299 13.1301L12.9999 13.0901Z" fill="#0E2043"/>
<path d="M2.43992 44.8099C2.19213 44.7067 1.97761 44.5371 1.81992 44.3199C1.67125 44.1097 1.59411 43.8573 1.59992 43.5999C1.59007 43.4968 1.59007 43.393 1.59992 43.2899C1.62475 43.1905 1.65821 43.0935 1.69992 42.9999H2.69992C2.659 43.1361 2.63877 43.2777 2.63992 43.4199C2.63252 43.5235 2.64645 43.6276 2.68085 43.7256C2.71525 43.8236 2.76939 43.9136 2.83992 43.9899C2.91166 44.0581 2.99653 44.111 3.08936 44.1454C3.18219 44.1798 3.28105 44.1949 3.37992 44.1899C3.50749 44.1894 3.63355 44.1622 3.74992 44.1099C3.8504 44.0543 3.93612 43.9754 3.99992 43.8799C4.06677 43.7572 4.10119 43.6196 4.09992 43.4799C4.09323 43.3509 4.05914 43.2247 3.99992 43.1099C3.9489 43.0009 3.86944 42.9076 3.76992 42.8399C3.65769 42.7742 3.52995 42.7397 3.39992 42.7399H3.17992V41.9999H3.40992C3.48894 42.0064 3.56844 41.9955 3.64275 41.9678C3.71707 41.9402 3.78439 41.8965 3.83992 41.8399C3.94004 41.7264 3.99673 41.5812 3.99992 41.4299C4.00309 41.3255 3.97896 41.2221 3.92992 41.1299C3.87516 41.0401 3.79973 40.9646 3.70992 40.9099C3.61036 40.8509 3.49543 40.823 3.37992 40.8299C3.2644 40.823 3.14947 40.8509 3.04992 40.9099C2.95585 40.959 2.87908 41.0358 2.82992 41.1299C2.78086 41.2293 2.75682 41.3391 2.75992 41.4499C2.74698 41.5327 2.74698 41.6171 2.75992 41.6999H1.75992C1.72427 41.5833 1.70739 41.4618 1.70992 41.3399C1.73178 41.1 1.83396 40.8745 1.99992 40.6999C2.14562 40.4922 2.34653 40.3294 2.57992 40.2299C2.84589 40.1061 3.13658 40.0445 3.42992 40.0499C3.71146 40.0449 3.99089 40.0994 4.24992 40.2099C4.47954 40.3155 4.67897 40.4771 4.82992 40.6799C4.96727 40.8725 5.04072 41.1033 5.03992 41.3399C5.04312 41.5679 4.98437 41.7926 4.86992 41.9899C4.76192 42.1631 4.60045 42.2965 4.40992 42.3699V42.3699C4.55469 42.4229 4.68732 42.5046 4.79992 42.6099C4.88769 42.7279 4.95528 42.8597 4.99992 42.9999C5.07464 43.177 5.11209 43.3676 5.10992 43.5599C5.11291 43.82 5.02839 44.0736 4.86992 44.2799C4.70457 44.4978 4.48346 44.6671 4.22992 44.7699C3.946 44.8928 3.63926 44.9541 3.32992 44.9499C3.02672 44.966 2.72352 44.9183 2.43992 44.8099V44.8099Z" fill="#161449"/>
<path d="M9.6301 43.8999C9.72412 43.5204 9.77114 43.1308 9.7701 42.7399V41.7399C9.78425 41.4984 9.73604 41.2573 9.6301 41.0399C9.58876 40.9682 9.52885 40.909 9.4567 40.8685C9.38454 40.8281 9.30281 40.8078 9.2201 40.8099C9.14874 40.8075 9.07799 40.8237 9.01485 40.857C8.95171 40.8904 8.89837 40.9396 8.8601 40.9999C8.7617 41.1583 8.71617 41.3439 8.7301 41.5299V43.5299H7.7901V41.5299C7.80402 41.3439 7.7585 41.1583 7.6601 40.9999C7.62183 40.9396 7.56848 40.8904 7.50534 40.857C7.4422 40.8237 7.37145 40.8075 7.3001 40.8099C7.21908 40.8096 7.13941 40.8307 7.06917 40.8711C6.99893 40.9115 6.94061 40.9697 6.9001 41.0399C6.78788 41.2518 6.736 41.4905 6.7501 41.7299V42.7299C6.75051 43.1202 6.79411 43.5092 6.8801 43.8899C6.95097 44.2375 7.06872 44.5739 7.2301 44.8899H6.2301C6.13412 44.7083 6.05705 44.5173 6.0001 44.3199C5.91545 44.073 5.85516 43.8185 5.8201 43.5599C5.7771 43.2819 5.75371 43.0012 5.7501 42.7199V41.7199C5.74712 41.4096 5.81197 41.1025 5.9401 40.8199C6.05468 40.5757 6.23467 40.368 6.4601 40.2199C6.68416 40.0876 6.93989 40.0185 7.2001 40.0199C7.42577 40.016 7.64896 40.0675 7.8501 40.1699C8.04162 40.2715 8.19056 40.4382 8.2701 40.6399V40.6399C8.35577 40.442 8.50309 40.2772 8.6901 40.1699C8.89165 40.0686 9.11455 40.0172 9.3401 40.0199C9.6074 40.0121 9.87128 40.0815 10.1001 40.2199C10.3248 40.3616 10.5024 40.567 10.6101 40.8099C10.7393 41.0956 10.8042 41.4063 10.8001 41.7199V42.7199C10.7965 43.0012 10.7731 43.2819 10.7301 43.5599C10.695 43.8185 10.6347 44.073 10.5501 44.3199C10.4904 44.5162 10.4065 44.7044 10.3001 44.8799H9.3001C9.45555 44.5703 9.56664 44.2404 9.6301 43.8999V43.8999Z" fill="#161449"/>
<path d="M15.1 44.1199C15.1735 43.846 15.2105 43.5635 15.21 43.2799C15.2241 43.0577 15.1756 42.8359 15.07 42.6399C15.0319 42.5758 14.9777 42.5228 14.9128 42.4859C14.8479 42.4491 14.7746 42.4298 14.7 42.4299C14.6364 42.4274 14.5733 42.4419 14.5171 42.4717C14.4609 42.5016 14.4136 42.5458 14.38 42.5999C14.2923 42.7404 14.2504 42.9046 14.26 43.0699V44.0699H13.36V43.0699C13.3679 42.9061 13.3298 42.7433 13.25 42.5999C13.2173 42.5451 13.1701 42.5002 13.1137 42.4703C13.0573 42.4403 12.9938 42.4264 12.93 42.4299C12.8564 42.4288 12.7837 42.4466 12.7189 42.4816C12.6541 42.5166 12.5994 42.5677 12.56 42.6299C12.4517 42.825 12.4031 43.0475 12.42 43.2699C12.4152 43.8369 12.5675 44.3942 12.86 44.8799H11.86C11.6984 44.6268 11.577 44.3502 11.5 44.0599C11.4115 43.673 11.3712 43.2767 11.38 42.8799C11.3301 42.2674 11.5242 41.66 11.92 41.1899C12.313 40.8053 12.8166 40.5535 13.36 40.4699L13.91 40.3599C13.9937 40.3516 14.075 40.3279 14.15 40.2899C14.1779 40.2777 14.203 40.2599 14.2237 40.2375C14.2443 40.2151 14.2601 40.1887 14.27 40.1599H15.27C15.2557 40.3959 15.152 40.6176 14.98 40.7799C14.7584 40.9631 14.4864 41.0747 14.2 41.0999L13.63 41.1799C13.2837 41.2301 12.9467 41.3312 12.63 41.4799C12.5042 41.5373 12.3936 41.6232 12.3068 41.7309C12.22 41.8385 12.1595 41.9648 12.13 42.0999V42.0999C12.225 41.9643 12.3521 41.8543 12.5 41.7799C12.6371 41.7135 12.7876 41.6793 12.94 41.6799C13.1099 41.6814 13.276 41.7298 13.42 41.8199C13.5734 41.9247 13.6946 42.0701 13.77 42.2399C13.8616 42.0621 14.0044 41.9157 14.18 41.8199C14.3694 41.7257 14.5785 41.6778 14.79 41.6799C15.0319 41.678 15.2699 41.7401 15.48 41.8599C15.6899 41.9901 15.8623 42.1728 15.98 42.3899C16.106 42.6445 16.1678 42.926 16.16 43.2099C16.1655 43.5241 16.125 43.8374 16.04 44.1399C15.9577 44.4014 15.8399 44.6504 15.69 44.8799H14.69C14.8546 44.6427 14.9921 44.3877 15.1 44.1199Z" fill="#161449"/>
<path d="M17.52 44.8199C17.2772 44.7126 17.0693 44.5394 16.92 44.3199C16.7776 44.0924 16.7046 43.8283 16.71 43.5599C16.7081 43.4331 16.7319 43.3073 16.78 43.1899H17.78C17.7726 43.2864 17.7726 43.3834 17.78 43.4799C17.7764 43.6123 17.8074 43.7432 17.87 43.8599C17.922 43.9687 18.0057 44.0593 18.11 44.1199C18.2235 44.1812 18.351 44.2122 18.48 44.2099C18.5768 44.2152 18.6735 44.1992 18.7634 44.1629C18.8533 44.1266 18.9341 44.071 19 43.9999C19.1362 43.8347 19.2042 43.6236 19.19 43.4099V42.4099C19.1935 42.268 19.1626 42.1273 19.1 41.9999C19.0541 41.8846 18.9691 41.789 18.86 41.7299C18.759 41.6739 18.6455 41.6445 18.53 41.6445C18.4145 41.6445 18.301 41.6739 18.2 41.7299C18.112 41.7759 18.0417 41.8498 18 41.9399C17.9522 42.0253 17.928 42.122 17.93 42.2199C17.921 42.293 17.921 42.3669 17.93 42.4399H16.93C16.8972 42.3295 16.8804 42.215 16.88 42.0999C16.876 41.8838 16.9276 41.6703 17.03 41.4799C17.1226 41.2969 17.2692 41.1468 17.45 41.0499C17.6508 40.9362 17.8794 40.8808 18.11 40.8899C18.3207 40.8854 18.5295 40.9299 18.72 41.0199C18.8898 41.0953 19.0352 41.2165 19.14 41.3699V40.1599H20.14V43.4699C20.1509 43.7623 20.0743 44.0513 19.92 44.2999C19.7699 44.5313 19.554 44.7124 19.3 44.8199C18.718 45.047 18.072 45.047 17.49 44.8199H17.52Z" fill="#161449"/>
<path d="M21.6801 44.78C21.4152 44.6485 21.1936 44.444 21.0412 44.1906C20.8888 43.9372 20.8121 43.6455 20.8201 43.35C20.81 43.0571 20.8791 42.7669 21.0201 42.51C21.1432 42.2784 21.3308 42.0874 21.5601 41.96C21.7711 41.8486 22.004 41.7846 22.2423 41.7725C22.4807 41.7605 22.7188 41.8005 22.9401 41.89C23.1094 41.9707 23.2544 42.0949 23.3601 42.25V42.25V41.41C23.3684 41.2556 23.3301 41.1023 23.2501 40.97C23.2177 40.9178 23.1717 40.8754 23.1171 40.8472C23.0626 40.819 23.0014 40.8062 22.9401 40.81C22.8843 40.8067 22.8285 40.8158 22.7767 40.8365C22.7248 40.8572 22.6782 40.8892 22.6401 40.93C22.5688 41.0176 22.5299 41.1271 22.5301 41.24V41.4H21.6401V41.26C21.6401 41 21.5001 40.87 21.2101 40.87H20.8701V40.08H21.3001C21.4777 40.0739 21.6537 40.1154 21.8101 40.2C21.9486 40.2863 22.0542 40.4166 22.1101 40.57C22.1911 40.3988 22.3289 40.261 22.5001 40.18C22.686 40.087 22.8923 40.0423 23.1001 40.05C23.3282 40.0417 23.5549 40.0898 23.7601 40.19C23.9483 40.2835 24.1022 40.434 24.2001 40.62C24.3135 40.8282 24.3688 41.0631 24.3601 41.3V43.35C24.3656 43.6449 24.2894 43.9356 24.1401 44.19C23.9869 44.4397 23.7693 44.6435 23.5101 44.78C23.2185 44.9255 22.8958 44.9976 22.5701 44.99C22.2611 44.9897 21.9565 44.9178 21.6801 44.78ZM23.0001 44.11C23.1228 44.039 23.2233 43.9351 23.2901 43.81C23.355 43.6759 23.3892 43.529 23.3901 43.38C23.3938 43.2273 23.3594 43.0761 23.2901 42.94C23.2267 42.8183 23.1294 42.7176 23.0101 42.65C22.8881 42.5718 22.7448 42.5333 22.6001 42.54C22.4586 42.5347 22.3189 42.5732 22.2001 42.65C22.086 42.7211 21.9928 42.8211 21.9301 42.94C21.8652 43.0777 21.8311 43.2278 21.8301 43.38C21.8309 43.529 21.8651 43.6759 21.9301 43.81C22.033 43.9908 22.2031 44.1237 22.4034 44.1799C22.6037 44.2361 22.8181 44.211 23.0001 44.11V44.11Z" fill="#161449"/>
<path d="M29 43.9C29.086 43.5193 29.1296 43.1303 29.13 42.74V41.74C29.149 41.4982 29.1005 41.2559 28.99 41.04C28.9495 40.9676 28.8898 40.9078 28.8174 40.8672C28.745 40.8266 28.6629 40.8068 28.58 40.81C28.5088 40.8085 28.4384 40.8252 28.3754 40.8585C28.3125 40.8917 28.259 40.9404 28.22 41C28.1216 41.1584 28.0761 41.344 28.09 41.53V43.53H27.2V41.53C27.2109 41.3429 27.1619 41.1572 27.06 41C27.0233 40.9382 26.9703 40.8878 26.9067 40.8543C26.8432 40.8208 26.7717 40.8054 26.7 40.81C26.619 40.8097 26.5393 40.8308 26.4691 40.8712C26.3988 40.9116 26.3405 40.9698 26.3 41.04C26.1878 41.2519 26.1359 41.4906 26.15 41.73V42.73C26.1539 43.1206 26.2009 43.5096 26.29 43.89C26.3532 44.2383 26.4678 44.5753 26.63 44.89H25.63C25.5277 44.7124 25.444 44.5247 25.38 44.33C25.3049 44.0805 25.2448 43.8267 25.2 43.57C25.1601 43.2918 25.14 43.0111 25.14 42.73V41.73C25.1325 41.4193 25.1976 41.1112 25.33 40.83C25.4376 40.5844 25.6149 40.3758 25.84 40.23C26.0557 40.1161 26.296 40.0566 26.54 40.0566C26.7839 40.0566 27.0242 40.1161 27.24 40.23C27.427 40.3373 27.5743 40.5021 27.66 40.7C27.7482 40.5006 27.8992 40.3356 28.09 40.23C28.3057 40.1161 28.546 40.0566 28.79 40.0566C29.0339 40.0566 29.2742 40.1161 29.49 40.23C29.7147 40.3717 29.8922 40.5771 30 40.82C30.1339 41.1042 30.199 41.4159 30.19 41.73V42.73C30.1915 43.0115 30.1681 43.2926 30.12 43.57C30.0849 43.8286 30.0246 44.0831 29.94 44.33C29.8846 44.5279 29.8004 44.7166 29.69 44.89H28.69C28.8353 44.5746 28.9395 44.2419 29 43.9V43.9Z" fill="#161449"/>
<path d="M31.6301 44.8199C31.377 44.7212 31.1557 44.5553 30.9901 44.3399C30.8316 44.1336 30.7471 43.88 30.7501 43.6199C30.749 43.4556 30.7795 43.2926 30.8401 43.1399H31.8401C31.8326 43.203 31.8326 43.2668 31.8401 43.3299C31.8346 43.3998 31.8346 43.47 31.8401 43.5399C31.8377 43.6594 31.8689 43.7772 31.9301 43.8799C31.9964 43.9795 32.0855 44.0618 32.1901 44.1199C32.3041 44.18 32.4312 44.2109 32.5601 44.2099C32.686 44.2133 32.8105 44.1822 32.9201 44.1199C33.0293 44.0637 33.1196 43.9768 33.1801 43.8699C33.2411 43.7635 33.2722 43.6426 33.2701 43.5199C33.2685 43.3892 33.2413 43.2601 33.1901 43.1399C33.1418 43.0318 33.0615 42.9411 32.9601 42.8799C32.8493 42.8107 32.7206 42.7759 32.5901 42.7799H32.2901V41.9999H32.7101C32.8255 42.0061 32.9403 41.9783 33.0401 41.9199C33.0766 41.8942 33.1059 41.8596 33.1252 41.8193C33.1445 41.779 33.153 41.7345 33.1501 41.6899C33.1531 41.6215 33.1319 41.5542 33.0901 41.4999C33.0392 41.4425 32.9782 41.395 32.9101 41.3599L32.6201 41.2299C32.3702 41.1422 32.1419 41.0025 31.9501 40.8199C31.7834 40.6365 31.6907 40.3977 31.6901 40.1499H32.6901C32.7065 40.2572 32.7639 40.354 32.8501 40.4199C32.9379 40.4852 33.0316 40.5421 33.1301 40.5899L33.3101 40.6599C33.4501 40.7203 33.5841 40.794 33.7101 40.8799C33.8224 40.9521 33.9179 41.0475 33.9901 41.1599C34.0628 41.2984 34.0973 41.4537 34.0901 41.6099C34.0944 41.7821 34.0417 41.9508 33.9401 42.0899C33.8247 42.232 33.6671 42.3336 33.4901 42.3799V42.3799C33.6326 42.4215 33.763 42.497 33.8701 42.5999C33.9901 42.7124 34.0854 42.8486 34.1501 42.9999C34.2321 43.1715 34.2731 43.3598 34.2701 43.5499C34.2737 43.8147 34.1932 44.0738 34.0401 44.2899C33.8818 44.513 33.6633 44.6865 33.4101 44.7899C33.1313 44.9055 32.8319 44.9634 32.5301 44.9599C32.2235 44.9787 31.9165 44.9309 31.6301 44.8199V44.8199Z" fill="#161449"/>
<path d="M37.2099 43.9401C37.2779 43.5572 37.3114 43.169 37.3099 42.7801V41.8501C37.3247 41.5878 37.2621 41.327 37.1299 41.1001C37.0675 41.0172 36.9867 40.95 36.8938 40.9038C36.801 40.8575 36.6987 40.8334 36.5949 40.8334C36.4912 40.8334 36.3889 40.8575 36.296 40.9038C36.2032 40.95 36.1224 41.0172 36.0599 41.1001C35.9195 41.324 35.853 41.5863 35.8699 41.8501V42.7801C35.8789 43.1698 35.9224 43.558 35.9999 43.9401C36.0466 44.262 36.1305 44.5775 36.2499 44.8801H35.2499C35.1148 44.5807 35.0207 44.2646 34.9699 43.9401C34.8982 43.5441 34.8614 43.1425 34.8599 42.7401V41.8201C34.8439 41.472 34.9235 41.1262 35.0899 40.8201C35.2388 40.5593 35.4568 40.3448 35.7199 40.2001C35.9972 40.0657 36.3018 39.9973 36.6099 40.0001C36.918 39.9973 37.2226 40.0657 37.4999 40.2001C37.768 40.3415 37.99 40.5566 38.1399 40.8201C38.3022 41.1277 38.3815 41.4724 38.3699 41.8201V42.7301C38.3703 43.1331 38.3301 43.5351 38.2499 43.9301C38.1977 44.2542 38.1036 44.5702 37.9699 44.8701H36.9999C37.1067 44.5696 37.1772 44.2573 37.2099 43.9401V43.9401Z" fill="#161449"/>
</g>
<defs>
<clipPath id="clip0_17_24">
<rect width="40.85" height="44.99" fill="white" transform="translate(1)"/>
</clipPath>
</defs>
</svg>
