<svg width="437" height="371" viewBox="0 0 437 371" fill="none" xmlns="http://www.w3.org/2000/svg">
<g clip-path="url(#clip0_17_169)">
<path d="M436.54 370.89V340.91L0 1V198.67L235.36 370.89H436.54Z" fill="#2083FD"/>
<path d="M313.93 253C315.81 254 316.07 255.85 316.41 257.67C316.79 259.76 317.26 261.84 317.72 263.91C318.427 267.11 319.147 270.303 319.88 273.49C320.88 278.03 322 282.56 322.97 287.12C323.49 289.5 323.91 291.91 324.2 294.33C324.41 296.02 322.32 297.47 320.64 297.44C319.084 297.326 317.594 296.763 316.35 295.82C313.64 294.07 310.7 292.67 308.57 290.04C307.57 288.8 305.93 288.04 304.57 287.13C303.57 286.5 302.57 286.02 301.57 285.4C301.48 285.311 301.371 285.243 301.252 285.199C301.133 285.155 301.006 285.136 300.88 285.145C300.753 285.153 300.63 285.188 300.518 285.248C300.406 285.307 300.308 285.39 300.23 285.49C299.31 286.49 298.32 287.44 297.51 288.49C295.82 290.72 294.26 293.04 292.59 295.28C292.096 295.834 291.55 296.339 290.96 296.79C290.83 296.9 290.62 296.95 290.55 297.08C289.88 298.46 288.76 298.71 287.35 298.56C286.16 298.42 284.96 297.85 284.86 296.43C284.615 294.017 284.001 291.656 283.04 289.43C282.497 287.825 282.04 286.193 281.67 284.54C281.57 284.18 281.51 283.81 281.44 283.44C281.06 281.66 280.71 279.87 280.3 278.1C280.08 277.1 279.72 276.1 279.49 275.15C278.98 272.94 278.56 270.71 278.02 268.52C277.55 266.63 276.94 264.78 276.33 262.67C276.07 263.22 275.87 263.56 275.74 263.92C274.74 266.76 273.74 269.64 272.6 272.42C271.46 275.2 270.01 277.8 268.77 280.52C268.21 281.75 267.87 283.08 267.34 284.32C266.34 286.8 265.18 289.24 264.12 291.71C263.38 293.42 262.78 295.2 261.97 296.88C260.83 299.27 259.64 301.64 258.29 303.88C257.942 304.415 257.451 304.842 256.874 305.114C256.296 305.386 255.654 305.492 255.02 305.42C254.11 305.36 252.91 303.99 252.67 302.95C252.085 300.571 251.094 298.312 249.74 296.27C248.34 294.04 247.2 291.64 245.91 289.34C245.36 288.34 244.72 287.45 244 286.34L239.46 288.7H239.37C236.5 289.7 234.04 291.56 231.28 292.82C229.83 293.48 228.46 294.33 227.01 295C226.105 295.451 225.148 295.787 224.16 296C222.72 296.26 221.16 294.76 221.44 293.49C221.614 292.787 221.89 292.113 222.26 291.49C223.5 289.37 224.85 287.32 226.07 285.19C227.87 282.02 229.64 278.83 231.34 275.61C233.14 272.19 234.86 268.72 236.56 265.25C237.31 263.71 237.88 262.09 238.56 260.53C239.24 258.97 239.95 257.76 240.56 256.35C240.9 255.6 241.12 254.78 241.4 254C242.11 251.95 242.82 249.91 243.55 247.88C243.93 246.83 244.38 245.81 244.74 244.76C244.938 244.071 244.907 243.337 244.651 242.667C244.395 241.998 243.928 241.43 243.32 241.05C242.946 240.827 242.608 240.547 242.32 240.22C240.2 237.553 238.093 234.86 236 232.14C235.681 231.7 235.403 231.231 235.17 230.74C233.85 228.23 232.55 225.74 231.23 223.2C229.188 219.136 227.785 214.782 227.07 210.29C226.759 207.942 226.579 205.578 226.53 203.21C226.41 202.128 226.36 201.039 226.38 199.95C226.57 196.79 226.67 193.61 227.15 190.49C227.57 187.79 228.46 185.15 229.15 182.49C229.743 180.303 230.571 178.188 231.62 176.18C232.35 174.73 232.78 173.18 233.51 171.68C234.24 170.18 235.23 168.68 236.14 167.24C236.94 165.95 237.76 164.67 238.64 163.43C239.4 162.35 240.21 161.31 241.07 160.31C242.25 158.95 243.43 157.58 244.72 156.31C246.39 154.7 248.14 153.18 249.91 151.69C251.465 150.324 253.094 149.045 254.79 147.86C256.735 146.555 258.755 145.366 260.84 144.3C262.84 143.3 264.98 142.41 267.09 141.56C268.054 141.239 269.035 140.975 270.03 140.77C270.957 140.485 271.899 140.248 272.85 140.06C275 139.75 277.15 139.48 279.31 139.31C280.91 139.19 282.53 139.31 284.15 139.25C285.326 139.19 286.504 139.19 287.68 139.25C289.36 139.41 291.03 139.69 292.68 139.98C294.77 140.35 296.88 140.69 298.92 141.23C300.96 141.77 303.21 142.23 305.05 143.59C305.896 144.062 306.779 144.463 307.69 144.79C308.246 145.036 308.756 145.374 309.2 145.79C309.46 146.08 309.46 146.61 309.58 147.03L309.31 147.15C310.6 147.81 311.92 148.42 313.17 149.15C314.87 150.117 316.537 151.14 318.17 152.22C320.03 153.45 321.87 154.73 323.66 156.06C324.291 156.625 324.889 157.226 325.45 157.86C326.37 158.72 327.33 159.54 328.23 160.42C328.594 160.822 328.928 161.25 329.23 161.7C329.54 162.1 329.86 162.49 330.17 162.88C331.1 164.01 332.08 165.09 332.93 166.26C333.914 167.594 334.816 168.986 335.63 170.43C336.48 171.96 337.17 173.59 337.9 175.19C338.42 176.32 338.96 177.45 339.38 178.62C340.767 182.377 341.821 186.249 342.53 190.19C343.308 194.75 343.533 199.386 343.2 204C342.962 207.357 342.522 210.696 341.88 214C340.979 218.537 339.416 222.918 337.24 227C336.05 229.29 335.01 231.7 333.6 233.86C331.97 236.36 330.02 238.65 328.19 241.01C327.591 241.802 326.921 242.538 326.19 243.21C324.44 244.79 322.66 246.35 320.8 247.8C318.66 249.47 316.42 251.01 314.23 252.61C314.121 252.733 314.021 252.863 313.93 253V253ZM304 145.28V145.13C303.84 145.013 303.665 144.919 303.48 144.85C300.77 144.11 298.08 143.27 295.33 142.7C293.159 142.277 290.96 142.01 288.75 141.9C287.1 141.8 285.42 142.01 283.75 142.01C279.901 142.05 276.08 142.677 272.42 143.87C269.883 144.662 267.406 145.638 265.01 146.79C262.485 148.021 260.038 149.403 257.68 150.93C256.098 151.995 254.606 153.189 253.22 154.5C251.77 155.81 250.43 157.25 249.06 158.65C246.111 161.514 243.497 164.704 241.27 168.16C239.617 170.551 238.226 173.112 237.12 175.8C236.17 178.55 234.93 181.2 234.02 183.97C233.32 186.11 232.94 188.37 232.41 190.57C232.177 191.276 232.009 192.003 231.91 192.74C231.79 195.16 231.76 197.59 231.73 200.02C231.61 201.875 231.61 203.735 231.73 205.59C232.002 207.915 232.439 210.217 233.04 212.48C234.1 216.986 235.865 221.295 238.27 225.25C239.62 227.36 240.97 229.48 242.45 231.51C243.67 233.139 244.971 234.704 246.35 236.2C247.635 237.716 249.018 239.146 250.49 240.48C252.373 242.067 254.343 243.55 256.39 244.92C257.997 245.999 259.666 246.981 261.39 247.86C262.747 248.559 264.15 249.164 265.59 249.67C268.93 250.9 272.27 252.11 275.66 253.21C276.876 253.527 278.118 253.737 279.37 253.84C281.26 254.1 283.14 254.44 285.04 254.53C287.041 254.633 289.046 254.589 291.04 254.4C292.81 254.23 294.62 254.46 296.36 253.77C299.62 252.49 303.15 251.94 306.24 250.2C308.58 248.88 310.82 247.36 313.24 246.2C315.66 245.04 317.31 243.2 319.24 241.71C321.138 240.125 322.843 238.323 324.32 236.34C326.26 233.91 327.99 231.34 329.8 228.77C329.902 228.593 329.983 228.405 330.04 228.21C330.56 227.09 331.04 225.96 331.59 224.84C332.414 223.417 333.126 221.933 333.72 220.4C334.88 216.61 336.22 212.89 336.64 208.87C336.94 206.01 337.05 203.16 337.23 200.31C337.306 197.664 337.146 195.017 336.75 192.4C336.523 190.512 336.156 188.643 335.65 186.81C335.11 184.81 334.3 182.98 333.65 181.04C332.632 177.656 331.075 174.459 329.04 171.57C327.111 168.896 325.041 166.326 322.84 163.87C321.191 162.073 319.357 160.454 317.37 159.04C314.92 157.28 312.29 155.76 309.67 154.25C307.45 152.97 305.14 151.83 302.87 150.64C301.22 149.77 299.58 148.88 297.87 148.04C297.17 147.69 296.4 147.46 295.69 147.12C295.2 146.89 294.53 146.68 294.34 146.27C294.286 146.018 294.293 145.756 294.361 145.507C294.429 145.259 294.555 145.03 294.73 144.84C295.149 144.497 295.679 144.319 296.22 144.34C297.81 144.34 299.41 144.5 300.99 144.68C302.11 144.82 303.05 145.09 304 145.28ZM255.83 295.36H256.22C261.52 282.98 266.827 270.567 272.14 258.12C263.903 255.813 256.161 252.009 249.3 246.9C248.81 248.16 248.36 249.25 247.95 250.35C247.46 251.68 247.03 253.02 246.52 254.35C246.14 255.35 245.67 256.35 245.26 257.35C244.66 258.79 244.11 260.25 243.48 261.69C242.85 263.13 242.1 264.69 241.39 266.2C240.28 268.53 239.18 270.87 238.05 273.2C237.18 274.97 236.28 276.71 235.36 278.45C234.44 280.19 233.58 281.73 232.69 283.37L231.12 286.37C233.087 285.588 235.013 284.707 236.89 283.73C237.77 283.29 238.59 282.73 239.49 282.32C240.66 281.81 241.88 281.42 243.08 280.98C244.74 280.37 246.31 280.12 247.19 281.14C247.728 281.657 248.217 282.223 248.65 282.83C250.14 285.45 251.52 288.14 253 290.77C253.89 292.27 254.88 293.8 255.83 295.36ZM288.72 290.62H289.09C289.64 289.62 290.16 288.62 290.75 287.62C292.694 284.557 295.15 281.851 298.01 279.62C298.735 279.063 299.626 278.767 300.54 278.78C302.44 278.933 304.276 279.532 305.9 280.53C309.128 282.393 312.168 284.564 314.98 287.01C315.245 287.195 315.53 287.349 315.83 287.47C315.91 287.22 315.98 287.12 315.97 287.04C315.49 284.81 314.97 282.58 314.53 280.36C314.01 277.98 313.45 275.61 312.94 273.23C312.66 271.94 312.46 270.64 312.18 269.35C311.7 267.25 311.197 265.157 310.67 263.07C310.49 262.35 310.09 261.67 309.98 260.95C309.7 259.06 309.52 257.16 309.29 255.21C300.2 259.46 290.79 261.5 280.57 259.74C283.58 270 285.45 280.52 288.72 290.62Z" fill="#0E2043"/>
<path d="M273.65 159.45C270.73 159.15 268.42 160.31 266.07 161.66C263.4 163.2 261.22 165.33 258.74 167.08C257.023 168.49 255.455 170.071 254.06 171.8C251.665 174.537 249.718 177.635 248.29 180.98C247.44 182.74 246.744 184.57 246.21 186.45C245.397 189.39 244.73 192.36 244.21 195.36C243.6 198.69 243.21 202.07 242.72 205.42C242.54 206.64 242.04 207.12 241.04 207.08C240.04 207.04 239.81 206.33 239.66 205.49C239.062 201.243 239.218 196.923 240.12 192.73C240.43 191 240.65 189.25 241.12 187.56C241.7 185.44 242.42 183.35 243.18 181.29C243.61 180.13 244.27 179.06 244.81 177.94C245.35 176.82 245.75 175.68 246.37 174.63C247.393 172.727 248.57 170.91 249.89 169.2C251.903 166.826 254.067 164.584 256.37 162.49C258.399 160.713 260.537 159.063 262.77 157.55C264.087 156.497 265.571 155.673 267.16 155.11C269.76 154.41 272.43 153.32 275.22 154.48C275.49 154.576 275.738 154.727 275.947 154.924C276.156 155.121 276.322 155.358 276.435 155.622C276.547 155.886 276.604 156.171 276.602 156.458C276.599 156.745 276.537 157.028 276.42 157.29C275.85 158.58 275.08 159.52 273.65 159.45Z" fill="#0E2043"/>
</g>
<defs>
<clipPath id="clip0_17_169">
<rect width="436.54" height="369.89" fill="white" transform="translate(0 1)"/>
</clipPath>
</defs>
</svg>
