<svg width="43" height="45" viewBox="0 0 43 45" fill="none" xmlns="http://www.w3.org/2000/svg">
<g clip-path="url(#clip0_17_24)">
<path d="M15.84 7.76999C16.26 6.96999 16.62 6.11999 17.11 5.35999C17.6716 4.52095 18.3039 3.73141 19 2.99999C19.3831 2.71083 19.808 2.48155 20.26 2.31999C20.81 1.99999 21.32 1.61999 21.89 1.31999C22.2636 1.15887 22.6635 1.06737 23.07 1.04999C23.8591 0.964452 24.6562 0.98463 25.44 1.10999C26.871 1.43656 28.2725 1.88142 29.63 2.43999C30.7778 3.06268 31.7246 3.99915 32.36 5.13999C32.99 6.03999 33.69 6.89999 34.24 7.83999C35.1148 9.27224 35.5687 10.9218 35.55 12.6C35.4796 14.1401 35.1412 15.6561 34.55 17.08C34.1101 18.1983 33.5921 19.2843 33 20.33C32.3854 21.3638 31.7179 22.3651 31 23.33C30.57 23.96 30.05 24.53 29.5 25.21L30.06 25.49C30.5438 25.7278 31.0145 25.9915 31.47 26.28C31.84 26.53 32.1 26.97 32.47 27.17C32.844 27.4088 33.1513 27.7387 33.3629 28.1288C33.5745 28.5188 33.6836 28.9562 33.68 29.4C33.8485 30.5032 33.9553 31.6149 34 32.73C34.07 34.37 33.1 35.06 31.73 35.47C29.9828 35.9328 28.1757 36.1284 26.37 36.05C25.17 36.05 23.96 36.25 22.76 36.23C22.1193 36.2898 21.4733 36.2109 20.8659 35.9986C20.2585 35.7864 19.704 35.4458 19.24 35C19.1673 34.9142 19.0791 34.8429 18.98 34.79C17.26 34.03 17.21 32.44 16.98 30.91C16.9605 30.46 16.9671 30.0092 17 29.56C17.0252 28.2412 17.3683 26.9479 18 25.79C18.77 24.24 19.32 22.58 20.11 21.05C20.73 19.85 21.57 18.76 22.31 17.62C22.43 17.45 22.59 17.29 22.78 17.06C21.78 16.91 20.78 16.82 19.85 16.62C19.3953 16.5093 18.9714 16.2973 18.61 16C17.82 15.45 17.05 14.86 16.16 14.2C16.11 15 16.07 15.69 16.03 16.37C15.89 19.11 15.74 21.84 15.62 24.57C15.55 26.07 15.53 27.57 15.46 29.08C15.39 30.59 15.46 32.03 15.22 33.49C15.1524 34.0582 14.8728 34.5799 14.4371 34.9507C14.0013 35.3216 13.4416 35.5142 12.87 35.49C11.7283 35.591 10.5784 35.5405 9.44997 35.34C8.70997 35.16 8.10997 34.43 7.44997 33.93C7.31997 33.83 7.29997 33.56 7.15997 33.49C5.99997 32.93 5.99997 31.8 5.89997 30.7C5.89997 29.8 5.89997 28.91 5.89997 28.01C5.89997 27.11 5.65997 26.31 5.68997 25.47C5.68997 24.04 5.91997 22.61 6.01997 21.19C6.01997 20.65 6.01997 20.1 6.01997 19.56C6.01997 18.47 6.15997 17.38 6.21997 16.29C6.27997 15.2 6.29997 14.29 6.33997 13.35C6.33997 12.93 6.33997 12.51 6.40997 12.09C6.53997 11.09 5.73997 10.92 5.07997 10.61C4.59184 10.4054 4.13152 10.14 3.70997 9.81999C3.40547 9.48918 3.18266 9.09167 3.05937 8.65928C2.93608 8.2269 2.91573 7.77165 2.99997 7.32999C3.05548 6.43336 3.22002 5.54683 3.48997 4.68999C3.5893 4.10397 3.89913 3.57435 4.36128 3.20058C4.82343 2.82681 5.40613 2.63458 5.99997 2.65999C8.06997 2.58999 10.14 2.52999 12.2 2.51999C12.5754 2.5279 12.9415 2.63828 13.2588 2.83921C13.576 3.04013 13.8323 3.32396 14 3.65999C14.08 3.79999 14.15 3.93999 14.23 4.05999C14.6748 4.59268 15.0698 5.16509 15.41 5.76999C15.6174 6.42125 15.7614 7.09103 15.84 7.76999V7.76999ZM28 32.71V32.91L30.14 32.58C30.3966 32.545 30.6296 32.4119 30.79 32.2086C30.9504 32.0053 31.0256 31.7477 31 31.49C31 30.81 31 30.12 31 29.49C31.0191 29.169 30.9722 28.8474 30.8621 28.5453C30.752 28.2431 30.581 27.9668 30.3598 27.7334C30.1385 27.5 29.8718 27.3144 29.5759 27.1883C29.2801 27.0621 28.9616 26.9981 28.64 27C27.73 27.07 26.84 27.26 25.94 27.3C25.5212 27.3093 25.1096 27.1907 24.76 26.96C24.33 26.65 24.45 26.14 24.68 25.75C25.28 24.75 25.89 23.69 26.56 22.75C27.23 21.81 28.25 20.64 28.96 19.5C29.79 18.16 30.96 16.98 31.37 15.42C31.8075 14.1149 32.1419 12.7774 32.37 11.42C32.4185 10.0662 32.097 8.72472 31.44 7.53999C30.66 5.78999 29.67 4.24999 27.73 3.59999C27.0124 3.32511 26.2775 3.09795 25.53 2.91999C24.1258 2.60861 22.6573 2.78864 21.37 3.42999C20.343 3.81318 19.4499 4.48732 18.8 5.36999C18 6.66999 17 7.99999 17 9.63999C17 10.64 17 11.64 17.08 12.64C17.0791 12.7473 17.1009 12.8535 17.1439 12.9518C17.187 13.05 17.2504 13.138 17.33 13.21C17.9641 13.6974 18.7402 13.9642 19.54 13.97C20.2008 13.8454 20.8688 13.7619 21.54 13.72C22.18 13.72 22.24 13.4 22.28 12.9C22.2249 11.4223 22.5704 9.95731 23.28 8.65999C23.3821 8.46294 23.5267 8.29102 23.7033 8.15661C23.88 8.0222 24.0842 7.92867 24.3014 7.88275C24.5185 7.83684 24.7431 7.83968 24.9591 7.89108C25.175 7.94248 25.3768 8.04116 25.55 8.17999C26.69 8.90999 26.72 10.04 26.7 11.18C26.647 13.0011 26.0858 14.771 25.08 16.29C24.08 17.81 23.08 19.29 22.08 20.82C21.35 22.04 20.76 23.36 20.15 24.65C19.81 25.36 19.57 26.13 19.23 26.84C18.8003 27.8042 18.6017 28.8555 18.65 29.91C18.6443 30.3496 18.6845 30.7887 18.77 31.22C18.9283 31.8051 19.1323 32.3768 19.38 32.93C19.4207 32.9909 19.4757 33.041 19.5402 33.0759C19.6046 33.1107 19.6767 33.1293 19.75 33.13C21.06 33.13 22.37 33.13 23.68 33.03C24.99 32.93 26.58 32.81 28 32.71ZM7.38997 27.91C7.52997 29.4 7.62997 30.48 7.75997 31.56C7.77991 31.6554 7.81956 31.7456 7.87639 31.8248C7.93322 31.9041 8.00596 31.9705 8.08997 32.02C8.53974 32.3186 9.04972 32.5147 9.58373 32.5942C10.1177 32.6737 10.6627 32.6347 11.18 32.48C11.4825 32.4154 11.751 32.2425 11.9351 31.994C12.1192 31.7454 12.2063 31.4382 12.18 31.13C12.18 29.48 12.28 27.82 12.39 26.13C12.6351 23.9018 12.7552 21.6616 12.75 19.42C12.69 18.13 12.75 16.84 12.75 15.54C12.75 14.04 12.89 12.54 12.9 11.04C12.9 9.21999 12.84 7.40999 12.8 5.59999C12.8 4.59999 12.38 4.20999 11.43 4.19999C9.92997 4.19999 8.42997 4.19999 6.94997 4.19999C5.22997 4.30999 5.19997 4.34999 4.71997 5.99999C4.55228 6.45426 4.47089 6.93585 4.47997 7.41999C4.49189 7.92865 4.67511 8.4184 4.99997 8.80999C5.54007 9.31982 6.25731 9.59955 6.99997 9.58999C7.33997 9.58999 7.92997 9.95999 7.99997 10.23C8.07519 11.1284 8.07519 12.0316 7.99997 12.93C7.99997 13.48 7.88997 14.02 7.86997 14.57C7.80997 16.75 7.78997 18.92 7.68997 21.09C7.62997 22.51 7.43997 23.94 7.36997 25.36C7.33997 26.35 7.38997 27.33 7.38997 27.91Z" fill="#0E2043"/>
<path d="M4.40002 43.05C4.15508 42.9465 3.94384 42.7768 3.79002 42.56C3.63843 42.3507 3.55783 42.0984 3.56002 41.84C3.54966 41.7369 3.54966 41.6331 3.56002 41.53C3.5793 41.438 3.60606 41.3477 3.64002 41.26H4.64002C4.59097 41.3945 4.56723 41.5369 4.57002 41.68C4.56069 41.8887 4.63234 42.0929 4.77002 42.25C4.91737 42.384 5.11092 42.4557 5.31002 42.45C5.44069 42.4484 5.56979 42.4212 5.69002 42.37C5.81838 42.3185 5.92697 42.2274 6.00002 42.11C6.07028 41.9924 6.10501 41.8569 6.10002 41.72C6.0984 41.5902 6.064 41.4629 6.00002 41.35C5.949 41.241 5.86954 41.1477 5.77002 41.08C5.6615 41.0142 5.53693 40.9796 5.41002 40.98H5.15002V40.26H5.38002C5.45995 40.2667 5.54035 40.2549 5.61495 40.2254C5.68955 40.1959 5.75631 40.1496 5.81002 40.09C5.86781 40.036 5.91435 39.971 5.94696 39.899C5.97957 39.8269 5.9976 39.7491 6.00002 39.67C5.99967 39.5648 5.97211 39.4614 5.92002 39.37C5.87165 39.2787 5.79897 39.2025 5.71002 39.15C5.6096 39.0931 5.49532 39.0654 5.38002 39.07C5.26141 39.0641 5.14354 39.0918 5.04002 39.15C4.95106 39.2025 4.87838 39.2787 4.83002 39.37C4.77787 39.4686 4.75042 39.5784 4.75002 39.69C4.73708 39.7728 4.73708 39.8571 4.75002 39.94H3.75002C3.71437 39.8234 3.69749 39.7019 3.70002 39.58C3.69929 39.3496 3.77294 39.1251 3.91002 38.94C4.05806 38.732 4.25804 38.5665 4.49002 38.46C4.75352 38.3404 5.04075 38.2823 5.33002 38.29C5.61156 38.285 5.89099 38.3395 6.15002 38.45C6.3813 38.5529 6.58136 38.7151 6.73002 38.92C6.87482 39.1093 6.95225 39.3416 6.95002 39.58C6.95453 39.8095 6.89198 40.0354 6.77002 40.23C6.66156 40.399 6.50476 40.5314 6.32002 40.61V40.61C6.46325 40.6601 6.5932 40.7422 6.70002 40.85C6.82091 40.9656 6.91628 41.1053 6.98002 41.26C7.05474 41.4371 7.09219 41.6277 7.09002 41.82C7.09301 42.0801 7.00849 42.3337 6.85002 42.54C6.68231 42.7556 6.4619 42.9243 6.21002 43.03C5.9261 43.1529 5.61936 43.2142 5.31002 43.21C4.99882 43.2211 4.68877 43.1665 4.40002 43.05V43.05Z" fill="#161449"/>
<path d="M11.6001 42.1399C11.6877 41.7661 11.7347 41.3838 11.7401 40.9999V39.9999C11.7577 39.757 11.7056 39.5142 11.5901 39.2999C11.5505 39.2267 11.4909 39.1663 11.4184 39.1255C11.3458 39.0848 11.2632 39.0655 11.1801 39.0699C11.1115 39.069 11.0437 39.085 10.9827 39.1164C10.9217 39.1477 10.8693 39.1936 10.8301 39.2499C10.7298 39.4116 10.681 39.5999 10.6901 39.7899V41.7899H9.76007V39.7899C9.77212 39.6009 9.7268 39.4127 9.63007 39.2499C9.5893 39.1928 9.53518 39.1465 9.47243 39.1152C9.40968 39.0838 9.3402 39.0682 9.27007 39.0699C9.18736 39.0678 9.10562 39.0881 9.03347 39.1286C8.96131 39.169 8.90141 39.2282 8.86007 39.2999C8.75622 39.5145 8.70807 39.7518 8.72007 39.9899V40.9899C8.72096 41.3801 8.76455 41.7691 8.85007 42.1499C8.9162 42.4988 9.03417 42.8359 9.20007 43.1499H8.20007C8.09726 42.9738 8.01665 42.7857 7.96007 42.5899C7.87676 42.3426 7.8165 42.0882 7.78007 41.8299C7.72581 41.5564 7.6957 41.2787 7.69007 40.9999V39.9999C7.68417 39.6926 7.74918 39.388 7.88007 39.1099C7.99465 38.8657 8.17463 38.658 8.40007 38.5099C8.61866 38.3734 8.87243 38.3039 9.13007 38.3099C9.35902 38.3052 9.58565 38.3567 9.79007 38.4599C9.97707 38.5672 10.1244 38.732 10.2101 38.9299V38.9299C10.2957 38.732 10.4431 38.5672 10.6301 38.4599C10.8312 38.3575 11.0544 38.306 11.2801 38.3099C11.5442 38.3023 11.8048 38.3718 12.0301 38.5099C12.2551 38.6541 12.4353 38.8585 12.5501 39.0999C12.676 39.3828 12.7375 39.6903 12.7301 39.9999V40.9999C12.73 41.281 12.7099 41.5617 12.6701 41.8399C12.6241 42.0963 12.564 42.3501 12.4901 42.5999C12.4261 42.7946 12.3423 42.9823 12.2401 43.1599H11.2401C11.4144 42.8416 11.5359 42.4971 11.6001 42.1399V42.1399Z" fill="#161449"/>
<path d="M17.0601 42.3599C17.1385 42.087 17.1756 41.8038 17.1701 41.5199C17.1888 41.2973 17.1401 41.0743 17.0301 40.8799C16.9927 40.8151 16.9387 40.7615 16.8736 40.7246C16.8086 40.6877 16.7348 40.6688 16.6601 40.6699C16.5979 40.6682 16.5365 40.683 16.482 40.7129C16.4275 40.7428 16.382 40.7866 16.3501 40.8399C16.2624 40.9804 16.2205 41.1446 16.2301 41.3099V42.3099H15.3301V41.3099C15.3397 41.1446 15.2977 40.9804 15.2101 40.8399C15.1789 40.7859 15.1336 40.7414 15.0789 40.7114C15.0242 40.6815 14.9624 40.6671 14.9001 40.6699C14.8273 40.6677 14.7553 40.684 14.6906 40.7172C14.6258 40.7504 14.5706 40.7995 14.5301 40.8599C14.4146 41.0561 14.3622 41.283 14.3801 41.5099C14.3788 42.0778 14.5345 42.635 14.8301 43.1199H13.8301C13.6718 42.8662 13.5538 42.5896 13.4801 42.2999C13.3915 41.913 13.3512 41.5167 13.3601 41.1199C13.309 40.5073 13.5033 39.8994 13.9001 39.4299C14.2891 39.0455 14.7895 38.7935 15.3301 38.7099L15.8901 38.5999C15.9737 38.5916 16.0551 38.5679 16.1301 38.5299C16.158 38.5177 16.183 38.4999 16.2037 38.4775C16.2244 38.4551 16.2401 38.4287 16.2501 38.3999H17.2501C17.2425 38.6237 17.1536 38.837 17.0001 38.9999C16.7766 39.1799 16.5056 39.2911 16.2201 39.3199L15.6501 39.3999C15.303 39.4467 14.9655 39.5479 14.6501 39.6999C14.5252 39.7586 14.4152 39.8449 14.3286 39.9523C14.242 40.0597 14.1809 40.1854 14.1501 40.3199V40.3199C14.2478 40.183 14.3785 40.0729 14.5301 39.9999C14.6672 39.9335 14.8177 39.8993 14.9701 39.8999C15.1399 39.9014 15.3061 39.9498 15.4501 40.0399C15.6042 40.1413 15.723 40.288 15.7901 40.4599V40.4599C15.8872 40.2827 16.0329 40.137 16.2101 40.0399C16.3963 39.9469 16.6019 39.899 16.8101 39.8999C17.0519 39.8979 17.29 39.96 17.5001 40.0799C17.7125 40.207 17.8855 40.3904 18.0001 40.6099C18.1341 40.8619 18.1996 41.1446 18.1901 41.4299C18.1975 41.7449 18.1536 42.059 18.0601 42.3599C17.9804 42.6224 17.8625 42.8718 17.7101 43.0999H16.7101C16.8569 42.8687 16.9745 42.6201 17.0601 42.3599Z" fill="#161449"/>
<path d="M19.49 43.0599C19.2472 42.9526 19.0393 42.7794 18.89 42.5599C18.7475 42.3324 18.6746 42.0683 18.68 41.7999C18.6781 41.6731 18.7019 41.5473 18.75 41.4299H19.75C19.7421 41.5264 19.7421 41.6234 19.75 41.7199C19.7483 41.8509 19.7757 41.9807 19.83 42.0999C19.8862 42.2091 19.9731 42.2995 20.08 42.3599C20.193 42.4226 20.3208 42.4537 20.45 42.4499C20.5507 42.4563 20.6516 42.4398 20.7452 42.4017C20.8387 42.3636 20.9224 42.3049 20.99 42.2299C21.122 42.0624 21.1894 41.853 21.18 41.6399V40.6399C21.1615 40.4795 21.0992 40.3273 21 40.1999C20.9476 40.0887 20.8642 39.995 20.76 39.9299C20.6536 39.8689 20.5326 39.8378 20.41 39.8399C20.3014 39.839 20.1945 39.8666 20.1 39.9199C20.0114 39.9685 19.9385 40.0413 19.89 40.1299C19.8469 40.2172 19.823 40.3126 19.82 40.4099C19.8119 40.483 19.8119 40.5568 19.82 40.6299H18.82C18.788 40.5194 18.7712 40.405 18.77 40.2899C18.7678 40.0752 18.8157 39.8629 18.91 39.6699C19.0069 39.49 19.1524 39.341 19.33 39.2399C19.5317 39.1286 19.7596 39.0733 19.99 39.0799C20.2038 39.0756 20.4158 39.1201 20.61 39.2099C20.7785 39.2825 20.9238 39.4002 21.03 39.5499V38.3999H22.03V41.7099C22.0409 42.0023 21.9643 42.2913 21.81 42.5399C21.6573 42.7689 21.4421 42.9494 21.19 43.0599C20.901 43.1766 20.5916 43.2344 20.28 43.2299C20.0086 43.2205 19.7411 43.163 19.49 43.0599V43.0599Z" fill="#161449"/>
<path d="M23.64 43C23.3808 42.8635 23.1632 42.6597 23.01 42.41C22.8572 42.1566 22.7776 41.8658 22.78 41.57C22.7751 41.2776 22.8438 40.9887 22.98 40.73C23.1073 40.498 23.2981 40.3072 23.53 40.18C23.7644 40.0461 24.0302 39.9771 24.3 39.98C24.5067 39.9826 24.7108 40.0268 24.9 40.11C25.0748 40.1865 25.224 40.3114 25.33 40.47V39.63C25.3399 39.4735 25.3052 39.3175 25.23 39.18C25.1916 39.1372 25.1446 39.1029 25.092 39.0795C25.0395 39.0561 24.9826 39.044 24.925 39.044C24.8675 39.044 24.8106 39.0561 24.7581 39.0795C24.7055 39.1029 24.6585 39.1372 24.62 39.18C24.5487 39.2675 24.5099 39.377 24.51 39.49V39.64H23.62V39.5C23.62 39.24 23.47 39.11 23.18 39.11H22.84V38.32H23.28C23.4574 38.3171 23.6326 38.3583 23.79 38.44C23.9282 38.5242 24.0312 38.6557 24.08 38.81C24.1637 38.6382 24.3005 38.498 24.47 38.41C24.6619 38.3251 24.8703 38.2841 25.08 38.29C25.3082 38.2817 25.5349 38.3298 25.74 38.43C25.9256 38.5271 26.0786 38.6767 26.18 38.86C26.2949 39.0676 26.3503 39.3029 26.34 39.54V41.59C26.3455 41.8849 26.2694 42.1756 26.12 42.43C25.9669 42.6797 25.7492 42.8835 25.49 43.02C25.1985 43.1655 24.8758 43.2376 24.55 43.23C24.2331 43.2236 23.9219 43.145 23.64 43V43ZM25 42.35C25.1198 42.2784 25.2169 42.1744 25.28 42.05C25.3494 41.9175 25.3838 41.7695 25.38 41.62C25.3837 41.4673 25.3494 41.3161 25.28 41.18C25.2236 41.0542 25.1292 40.9493 25.01 40.88C24.8848 40.8105 24.7432 40.776 24.6 40.78C24.4599 40.7747 24.3212 40.8094 24.2 40.88C24.0833 40.9522 23.9896 41.0563 23.93 41.18C23.8607 41.3161 23.8263 41.4673 23.83 41.62C23.8263 41.7695 23.8607 41.9175 23.93 42.05C23.9896 42.1737 24.0833 42.2778 24.2 42.35C24.3231 42.4156 24.4605 42.45 24.6 42.45C24.7396 42.45 24.8769 42.4156 25 42.35V42.35Z" fill="#161449"/>
<path d="M30.9999 42.1399C31.0876 41.7661 31.1345 41.3838 31.1399 40.9999V39.9999C31.1575 39.757 31.1055 39.5142 30.9899 39.2999C30.9503 39.2267 30.8908 39.1663 30.8182 39.1255C30.7457 39.0848 30.663 39.0655 30.5799 39.0699C30.5113 39.069 30.4436 39.085 30.3825 39.1164C30.3215 39.1477 30.2691 39.1936 30.2299 39.2499C30.1332 39.4127 30.0879 39.6009 30.0999 39.7899V41.7899H29.1599V39.7899C29.172 39.6009 29.1267 39.4127 29.0299 39.2499C28.9892 39.1928 28.935 39.1465 28.8723 39.1152C28.8095 39.0838 28.7401 39.0682 28.6699 39.0699C28.5885 39.0674 28.508 39.0876 28.4374 39.1282C28.3667 39.1689 28.3088 39.2283 28.2699 39.2999C28.1577 39.5118 28.1058 39.7505 28.1199 39.9899V40.9899C28.1208 41.3801 28.1644 41.7691 28.2499 42.1499C28.3161 42.4988 28.434 42.8359 28.5999 43.1499H27.5999C27.4971 42.9738 27.4165 42.7857 27.3599 42.5899C27.2766 42.3426 27.2164 42.0882 27.1799 41.8299C27.1318 41.5525 27.1084 41.2714 27.1099 40.9899V39.9999C27.1078 39.6929 27.1726 39.3892 27.2999 39.1099C27.4145 38.8657 27.5945 38.658 27.8199 38.5099C28.039 38.3745 28.2924 38.305 28.5499 38.3099C28.7789 38.3052 29.0055 38.3567 29.2099 38.4599C29.3969 38.5672 29.5443 38.732 29.6299 38.9299C29.7156 38.732 29.8629 38.5672 30.0499 38.4599C30.2515 38.3586 30.4744 38.3072 30.6999 38.3099C30.9641 38.3023 31.2247 38.3718 31.4499 38.5099C31.68 38.6481 31.8617 38.8542 31.9699 39.0999C32.0993 39.3821 32.1642 39.6895 32.1599 39.9999V40.9999C32.1563 41.2812 32.1329 41.5619 32.0899 41.8399C32.0535 42.0982 31.9932 42.3526 31.9099 42.5999C31.8503 42.7963 31.7663 42.9844 31.6599 43.1599H30.6599C30.8273 42.8403 30.9421 42.4959 30.9999 42.1399V42.1399Z" fill="#161449"/>
<path d="M33.59 43.0599C33.3388 42.9579 33.1183 42.7925 32.95 42.5799C32.7916 42.3736 32.707 42.12 32.71 41.8599C32.7124 41.695 32.7463 41.532 32.81 41.3799H33.81C33.8022 41.443 33.8022 41.5068 33.81 41.5699C33.81 41.6299 33.81 41.6999 33.81 41.7799C33.8064 41.901 33.8414 42.0201 33.91 42.1199C33.9736 42.2218 34.0634 42.3046 34.17 42.3599C34.2836 42.4212 34.411 42.4522 34.54 42.4499C34.6657 42.451 34.7896 42.42 34.9 42.3599C35.0043 42.3005 35.0906 42.2141 35.15 42.1099C35.2111 42.0035 35.2422 41.8825 35.24 41.7599C35.2446 41.6286 35.2171 41.4982 35.16 41.3799C35.1147 41.2699 35.0337 41.1783 34.93 41.1199C34.8235 41.0497 34.6975 41.0148 34.57 41.0199H34.27V40.2499H34.69C34.8053 40.2545 34.9196 40.2268 35.02 40.1699C35.0553 40.143 35.0836 40.1081 35.1027 40.0681C35.1219 40.0282 35.1312 39.9842 35.13 39.9399C35.1323 39.9051 35.1272 39.8702 35.1151 39.8375C35.1031 39.8048 35.0843 39.7749 35.06 39.7499C35.0153 39.6904 34.957 39.6424 34.89 39.6099L34.59 39.4799C34.3418 39.3889 34.1141 39.2495 33.92 39.0699C33.757 38.885 33.6679 38.6464 33.67 38.3999H34.67C34.6909 38.508 34.7516 38.6043 34.84 38.6699C34.9252 38.7365 35.0195 38.7904 35.12 38.8299L35.29 38.9099C35.435 38.9665 35.5727 39.0404 35.7 39.1299C35.8114 39.1999 35.9041 39.296 35.97 39.4099C36.0462 39.5474 36.0842 39.7028 36.08 39.8599C36.0822 40.0318 36.0297 40.1999 35.93 40.3399C35.8092 40.4757 35.6536 40.5759 35.48 40.6299V40.6299C35.6195 40.6719 35.7466 40.7474 35.85 40.8499C35.9786 40.9569 36.0783 41.0944 36.14 41.2499C36.2186 41.4223 36.2562 41.6105 36.25 41.7999C36.2581 42.0653 36.1771 42.3258 36.02 42.5399C35.8605 42.7577 35.6467 42.9301 35.4 43.0399C35.121 43.1547 34.8218 43.2125 34.52 43.2099C34.2031 43.2232 33.8867 43.1722 33.59 43.0599Z" fill="#161449"/>
<path d="M39.1799 42.18C39.2408 41.7896 39.2709 41.3951 39.2699 41V40.07C39.2848 39.8077 39.2222 39.5469 39.0899 39.32C39.0275 39.2371 38.9467 39.1699 38.8538 39.1237C38.761 39.0774 38.6587 39.0533 38.5549 39.0533C38.4512 39.0533 38.3489 39.0774 38.2561 39.1237C38.1632 39.1699 38.0824 39.2371 38.0199 39.32C37.8877 39.5469 37.8251 39.8077 37.8399 40.07V41C37.8385 41.3855 37.8719 41.7705 37.9399 42.15C37.993 42.4749 38.0801 42.7933 38.2 43.1H37.2C37.0603 42.8023 36.9659 42.4855 36.9199 42.16C36.8431 41.7647 36.8063 41.3627 36.81 40.96V40.04C36.7983 39.6923 36.8776 39.3476 37.04 39.04C37.1864 38.7799 37.4053 38.568 37.6699 38.43C37.9453 38.2901 38.2512 38.2213 38.56 38.23C38.8685 38.2226 39.1742 38.2913 39.45 38.43C39.7171 38.5692 39.9365 38.7851 40.08 39.05C40.2494 39.355 40.3291 39.7016 40.31 40.05V41C40.3136 41.4027 40.2768 41.8047 40.2 42.2C40.1477 42.5241 40.0536 42.8401 39.9199 43.14H38.9199C39.0414 42.8304 39.1285 42.5085 39.1799 42.18Z" fill="#161449"/>
</g>
<defs>
<clipPath id="clip0_17_24">
<rect width="37.31" height="42.23" fill="white" transform="translate(3 1)"/>
</clipPath>
</defs>
</svg>
