<svg width="437" height="614" viewBox="0 0 437 614" fill="none" xmlns="http://www.w3.org/2000/svg">
<g clip-path="url(#clip0_8_86)">
<g clip-path="url(#clip1_8_86)">
<path d="M437 457.7C436.739 458.052 436.377 458.315 435.963 458.454C435.548 458.594 435.1 458.603 434.68 458.48C434.048 458.379 433.424 458.239 432.81 458.06C428.81 456.9 424.58 457.53 420.48 457.15C418.57 456.98 416.67 456.85 414.76 456.71C411.91 456.51 409.05 456.4 406.21 456.09C404.08 455.86 401.98 455.37 399.86 455.02C398.13 454.73 396.41 454.42 394.67 454.23C391.814 454.019 389.087 452.956 386.84 451.18C382.25 447.48 378.77 442.85 375.1 438.35C372.787 435.517 370.527 432.64 368.32 429.72C365.92 426.55 363.64 423.29 361.32 420.1C357.82 415.39 354.19 410.76 350.81 405.96C349.34 404.065 348.315 401.864 347.81 399.52C347.648 398.991 347.444 398.476 347.2 397.98C346.806 396.94 346.472 395.878 346.2 394.8C345.79 392.96 345.69 391.03 345.15 389.23C343.32 383.07 343.07 376.69 342.38 370.38C341.38 361.38 340.5 352.46 339.53 343.5C339 339.32 338.4 335.15 338 331C337.57 327 337.28 322.91 336.92 318.86C336.5 314.02 336.01 309.18 335.65 304.33C335.41 301.08 335.35 297.81 335.19 294.55C335.19 293.6 335.03 292.65 334.97 291.7C334.71 287.81 334.49 283.92 334.21 280.03C333.98 276.87 333.63 273.72 333.44 270.56C333.29 268.19 333.33 265.81 333.22 263.43C333.07 260.27 332.86 257.1 332.67 253.93C332.59 253.542 332.553 253.146 332.56 252.75C333.15 249.88 332.63 247.03 332.56 244.17C332.41 240.03 332.28 235.89 332.08 231.75C331.813 226.25 331.503 220.753 331.15 215.26C330.68 207.71 330.25 200.15 329.62 192.61C328.92 184.13 328.43 175.66 328.47 167.15C328.47 161.01 328.59 154.86 328.4 148.73C328.3 145.63 328.4 142.53 328.4 139.47C328.4 136.66 328.02 133.79 327.93 130.94C327.8 126.41 327.51 121.88 327.37 117.36C327.23 112.84 327.1 108.44 327 104C326.88 98 326.71 91.93 326.31 85.9C326.09 82.65 326.31 79.37 326.19 76.1C326.02 72.21 325.71 68.31 325.37 64.42C325.06 60.86 324.48 57.34 324.44 53.72C324.38 47.72 324.23 41.8 323.58 35.85C323.034 29.9163 322.911 23.9513 323.21 18C323.32 14.77 323 11.59 323 8.41C323 5.64 323.21 2.88 323.34 0H331.07C331.07 2.6 331.25 5.11 331.19 7.62C331.12 10.97 330.77 14.32 330.77 17.67C330.77 21.8 330.96 25.93 331.16 30.06C331.34 33.87 331.67 37.68 331.9 41.5C332.2 46.3267 332.483 51.1633 332.75 56.01C332.83 57.59 332.84 59.17 332.94 60.75C333.3 66.47 333.74 72.18 334.04 77.9C334.22 81.14 334.16 84.4 334.28 87.64C334.46 92.26 334.77 96.87 334.89 101.49C335.01 106.41 334.89 111.34 335.05 116.26C335.17 120.71 335.47 125.16 335.7 129.61C335.7 130.08 335.81 130.56 335.81 131.04C335.81 133.49 335.72 135.94 335.74 138.39C335.74 142.61 335.803 146.827 335.93 151.04C336.01 154.6 336.17 158.16 336.28 161.73C336.41 166.26 336.68 170.8 336.6 175.33C336.52 179.86 336.87 184.33 337.2 188.9C337.673 195.253 338.113 201.607 338.52 207.96C338.76 211.76 338.89 215.58 339.11 219.38C339.39 224.23 339.77 229.06 339.98 233.91C340.23 239.91 340.31 245.85 340.52 251.81C340.64 255.07 340.89 258.32 341.03 261.58C341.25 266.51 341.31 271.45 341.65 276.37C342.11 282.96 342.8 289.54 343.35 296.13C343.48 297.78 343.35 299.45 343.46 301.13C343.61 304.31 343.74 307.48 343.99 310.65C344.31 314.77 344.75 318.88 345.13 323C345.51 326.947 345.887 330.897 346.26 334.85C346.68 339.21 347.12 343.57 347.52 347.94C347.79 350.88 347.97 353.83 348.23 356.77C348.81 363.36 349.36 369.95 350.06 376.52C350.392 378.473 350.833 380.406 351.38 382.31C351.83 384.41 352.13 386.54 352.62 388.63C354.169 394.851 357.38 400.533 361.91 405.07C363.162 406.171 364.672 406.938 366.3 407.3C370.741 408.586 375.337 409.258 379.96 409.3C382.18 409.3 384.41 409.63 386.63 409.83C392.48 410.35 398.33 411.1 404.19 411.33C410.46 411.58 416.75 411.33 423.03 411.33C424.225 411.315 425.418 411.425 426.59 411.66C430.08 412.39 433.59 413.23 437.04 414.02L437 457.7Z" fill="#0E2043"/>
<path d="M437 478.81C432.918 477.495 428.756 476.443 424.54 475.66C420.655 474.92 416.704 474.585 412.75 474.66C409.57 474.59 406.33 474.96 403.21 474.52C399.7 474.04 396.21 474.36 392.72 474.01C388.687 473.724 384.649 474.489 381 476.23C378.552 477.184 376.207 478.384 374 479.81C371.28 481.71 369.53 484.34 367.85 487.01C366.8 488.872 365.923 490.827 365.23 492.85C364.3 495.22 363.6 497.68 362.64 500.03C361.282 503.616 360.515 507.398 360.37 511.23C359.88 518.63 359.37 526.04 359.28 533.45C359.13 541.57 359.37 549.69 359.42 557.81C359.42 559.81 359.29 561.81 359.33 563.81C359.277 565.081 359.52 566.348 360.041 567.509C360.561 568.67 361.345 569.694 362.33 570.5C365.515 573.046 369.372 574.609 373.43 575C376.49 575.37 379.5 576.22 382.56 576.61C384.773 576.823 386.998 576.897 389.22 576.83C394.72 576.83 400.22 576.83 405.72 576.83C408.42 576.83 411.12 576.74 413.81 576.66C417.23 576.56 420.64 576.43 424.05 576.31C424.609 576.348 425.17 576.314 425.72 576.21C429.41 575.06 433.26 575.27 437.04 574.83V611.83H375.18C375.021 611.146 374.804 610.477 374.53 609.83C373.1 607.18 371.62 604.56 370.15 601.94C369.6 600.94 369.01 600.01 368.43 599.06C365.91 594.9 363.383 590.75 360.85 586.61C360.23 585.61 359.44 584.66 358.85 583.61C357.37 580.98 355.93 578.32 354.56 575.61C353.95 574.41 353.65 573.06 353.02 571.88C350.75 567.63 351.26 563.04 351.26 558.51C351.26 553.43 351.26 548.353 351.26 543.28C351.26 542.08 351.49 540.89 351.49 539.69C351.49 536.44 351.3 533.18 351.39 529.93C351.52 524.84 351.74 519.75 352.09 514.67C352.289 511.285 352.67 507.914 353.23 504.57C354.42 498.53 356.359 492.661 359 487.1C359.51 485.95 360.13 484.85 360.61 483.69C362.14 479.94 365.05 477.28 367.95 474.69C370.433 472.44 373.33 470.694 376.48 469.55C378.88 468.7 381.19 467.55 383.64 466.9C385.631 466.436 387.666 466.181 389.71 466.14C392.23 466.01 394.71 466.06 397.29 466.05C398.008 466.023 398.727 466.056 399.44 466.15C404.1 466.95 408.8 466.71 413.44 466.85C416.68 466.95 419.91 467.58 423.14 467.96C423.983 468.188 424.862 468.253 425.73 468.15C427.271 467.683 428.925 467.753 430.42 468.35C432.57 469.17 434.82 468.88 437.01 469.2L437 478.81Z" fill="#0E2043"/>
</g>
</g>
<defs>
<clipPath id="clip0_8_86">
<rect width="437" height="614" fill="white"/>
</clipPath>
<clipPath id="clip1_8_86">
<rect width="114.04" height="611.73" fill="white" transform="translate(323)"/>
</clipPath>
</defs>
</svg>
