<svg width="74" height="39" viewBox="0 0 74 39" fill="none" xmlns="http://www.w3.org/2000/svg">
<path d="M1 11.1402C1.07 10.4102 1.07 9.67018 1.21 8.95018C1.36662 8.19914 1.56696 7.45787 1.81 6.73018C2.47 4.60018 4.41 3.73018 6.1 2.78018C7.08085 2.33238 8.14211 2.08747 9.22 2.06018C10.1481 2.01899 11.078 2.05579 12 2.17018C12.3048 2.16849 12.6011 2.27078 12.84 2.46018C13.67 3.31018 14.52 2.77018 15.41 2.64018C16.5086 2.5135 17.6165 2.48672 18.72 2.56018C19.5913 2.54416 20.4545 2.7299 21.2421 3.10288C22.0297 3.47586 22.7203 4.02596 23.26 4.71018C23.83 5.45018 24.26 6.28018 24.69 6.92018C25.4619 5.90314 26.3329 4.96522 27.29 4.12018C28.0204 3.54658 28.8718 3.14674 29.7797 2.95096C30.6876 2.75518 31.6281 2.76859 32.53 2.99018C33.41 3.21018 34.26 3.51018 35.13 3.74018C35.3559 3.79194 35.5927 3.76367 35.8 3.66018C36.2 3.43018 36.55 3.12018 36.93 2.86018C38.1918 2.07695 39.7087 1.81517 41.16 2.13018C43.468 2.36249 45.5932 3.48969 47.08 5.27018C47.162 5.33973 47.2488 5.40323 47.34 5.46018C47.4784 5.17682 47.6019 4.88642 47.71 4.59018C47.8852 3.94366 48.2811 3.3788 48.829 2.99344C49.3769 2.60809 50.0423 2.42652 50.71 2.48018C51.6562 2.49635 52.6009 2.56311 53.54 2.68018C54.0662 2.77103 54.5554 3.01044 54.95 3.37018C55.5322 3.86279 56.0015 4.47505 56.3259 5.16529C56.6504 5.85552 56.8223 6.60755 56.83 7.37018C56.83 8.18018 56.83 8.99018 56.83 9.79018C56.83 10.8902 56.91 11.9902 57.04 13.0802C57.04 13.3302 57.48 13.5902 57.76 13.7202C59.3627 14.3148 60.8116 15.2614 62 16.4902C63.2574 18.0382 63.9363 19.9759 63.92 21.9702C63.98 23.8302 63.98 25.7002 64.03 27.5602C64.1718 29.829 63.6432 32.0895 62.51 34.0602C60.97 36.5302 58.58 37.5102 55.61 37.3602C53.8267 37.1352 52.1443 36.4067 50.76 35.2602C50.03 34.7502 49.35 34.1602 48.6 33.5702C48.52 33.9602 48.47 34.3502 48.37 34.7302C47.88 36.4402 46.57 36.9002 44.92 36.7302C44.1 36.6302 43.31 36.3502 42.5 36.1802C42.1515 36.1173 41.8244 35.9681 41.5484 35.7463C41.2724 35.5244 41.0563 35.237 40.92 34.9102C40.74 34.5202 40.51 34.1502 40.29 33.7502C39.5091 34.5781 38.6739 35.3532 37.79 36.0702C36.6908 36.9053 35.3277 37.317 33.95 37.2302C30.8244 36.9546 27.8548 35.7417 25.43 33.7502C25.01 35.0302 24.43 36.1902 22.95 36.5402C21.7078 36.8905 20.3857 36.8309 19.18 36.3702C16.46 35.2802 16.37 33.0402 16.27 30.7502C16.19 28.9202 16.27 27.0802 16.27 25.2502C16.2435 25.0666 16.1999 24.8858 16.14 24.7102C14.4 24.6302 12.55 25.0002 10.9 23.6202C10.9 24.9902 10.9 26.2402 10.9 27.5002C10.83 29.6002 10.79 31.7202 10.55 33.8102C10.5491 34.5159 10.3372 35.2053 9.94164 35.7897C9.54606 36.3742 8.98484 36.827 8.33 37.0902C7.5768 37.4232 6.74014 37.5193 5.93107 37.3657C5.12199 37.2121 4.37876 36.816 3.8 36.2302C3.41 35.8302 2.8 35.6002 2.48 35.2302C1.7257 34.3351 1.3145 33.2007 1.32 32.0302C1.25482 31.6527 1.14748 31.2837 1 30.9302V20.7902C1.09221 20.6349 1.15968 20.4662 1.2 20.2902C1.2 19.5302 1.2 18.7702 1.2 18.0202C1.2 16.8102 1.07 15.6102 1 14.4102V11.1402ZM25.85 15.3402C25.85 17.3902 25.85 19.4402 25.85 21.4802C25.95 24.7302 26.11 27.9802 26.26 31.2302C26.312 31.4811 26.4067 31.7213 26.54 31.9402C27.06 33.1002 28.21 33.5502 29.19 34.1102C30.0374 34.6549 31.0227 34.9463 32.03 34.9502C33.77 34.7702 35.53 34.5002 36.79 32.8902C37.6018 31.9112 38.0816 30.6996 38.16 29.4302C38.26 27.2702 38.16 25.0902 38.06 22.9202C38.06 21.6802 37.93 20.4402 37.94 19.2002C37.94 17.3002 38.04 15.4102 38.09 13.5202C38.09 12.5202 38.09 11.4602 38.21 10.4502C38.3164 10.0381 38.5438 9.66742 38.8628 9.3858C39.1819 9.10419 39.5779 8.9246 40 8.87018C40.72 8.87018 41.25 9.47018 41.41 10.4202C41.483 10.8495 41.5165 11.2847 41.51 11.7202C41.51 13.0202 41.37 14.3202 41.38 15.6202C41.38 17.9702 41.47 20.3202 41.52 22.6202C41.52 24.6202 41.52 26.6202 41.65 28.6202C41.7 30.0502 41.83 31.4902 41.96 32.9202C41.9679 33.3632 42.1494 33.7854 42.4655 34.0958C42.7816 34.4063 43.2069 34.5803 43.65 34.5802C44.1335 34.5521 44.5936 34.3623 44.9563 34.0413C45.3191 33.7203 45.5634 33.2867 45.65 32.8102C45.65 31.1002 45.65 29.4002 45.65 27.6902C45.65 25.3802 45.65 23.0702 45.65 20.7702C45.65 18.9402 45.77 17.1002 45.78 15.2702C45.8799 13.9919 45.7991 12.7059 45.54 11.4502C45.3759 10.6107 45.3121 9.75471 45.35 8.90018C45.3536 8.18777 45.1942 7.48398 44.8839 6.84266C44.5737 6.20135 44.1208 5.63952 43.56 5.20018C42.7544 4.47275 41.7362 4.02366 40.6558 3.91922C39.5754 3.81478 38.49 4.06053 37.56 4.62018C36.9 5.04018 36.37 5.78018 35.43 5.46018C34.81 5.26018 34.2 5.03018 33.59 4.82018C31.73 4.18018 28.87 4.46018 27.42 6.29018C26.5222 7.22086 25.9714 8.43182 25.86 9.72018C25.83 11.6102 25.85 13.4902 25.85 15.3402V15.3402ZM7 12.5602C7 12.0202 7 11.4802 7 10.9302C7.00884 10.6788 7.06803 10.4318 7.17407 10.2037C7.28011 9.97561 7.43085 9.77113 7.61734 9.60235C7.80383 9.43358 8.0223 9.30394 8.2598 9.22112C8.49729 9.13829 8.749 9.10397 9 9.12018C9.81 9.12018 10.26 9.80018 10.26 10.9002C10.26 13.1402 10.26 15.3802 10.26 17.6202C10.2735 18.5311 10.4252 19.4348 10.71 20.3002C10.9965 20.7824 11.4252 21.1642 11.9372 21.3934C12.4492 21.6225 13.0195 21.6878 13.57 21.5802C13.9569 21.4676 14.292 21.2227 14.5168 20.8882C14.7416 20.5537 14.8418 20.151 14.8 19.7502C14.89 17.4002 14.93 15.0502 14.98 12.7502C14.98 11.9902 14.98 11.2202 14.98 10.4602C14.9767 10.1761 15.076 9.90027 15.2597 9.68349C15.4434 9.46671 15.6992 9.32351 15.98 9.28018C16.1179 9.23321 16.2645 9.21695 16.4094 9.23255C16.5542 9.24814 16.694 9.29522 16.8188 9.37047C16.9435 9.44572 17.0504 9.54734 17.1318 9.6682C17.2132 9.78907 17.2672 9.92626 17.29 10.0702C17.4435 10.8351 17.5371 11.6107 17.57 12.3902C17.57 13.6902 17.57 15.0102 17.57 16.3102C17.63 18.5202 17.78 20.7202 17.8 22.9302C17.8 25.9302 17.71 28.8802 17.8 31.8602C17.8663 32.5653 18.0846 33.2476 18.44 33.8602C18.7076 34.2889 19.1275 34.6005 19.6154 34.7322C20.1033 34.8639 20.623 34.806 21.07 34.5702C21.7142 34.0329 22.2242 33.3526 22.5592 32.5836C22.8943 31.8145 23.0452 30.9778 23 30.1402C22.8404 29.2625 22.7601 28.3723 22.76 27.4802C22.76 24.5302 22.76 21.5902 22.76 18.6402C22.76 17.0902 22.69 15.5402 22.64 14.0002C22.58 12.1902 22.64 10.3702 22.43 8.58018C22.3808 7.71972 22.0849 6.8916 21.5778 6.19473C21.0706 5.49785 20.3736 4.96166 19.57 4.65018C18.5291 4.19233 17.3924 3.99495 16.2581 4.07509C15.1238 4.15524 14.0261 4.51052 13.06 5.11018C12.8493 5.22599 12.6016 5.2547 12.37 5.19018C11.72 4.96018 11.09 4.66018 10.45 4.40018C9.59575 3.91868 8.58626 3.79295 7.64 4.05018C6.9526 4.30179 6.2842 4.60257 5.64 4.95018C4.21 5.76018 2.94 6.75018 2.74 8.54018C2.61164 9.67229 2.54821 10.8108 2.55 11.9502C2.55 14.7402 2.55 17.5302 2.55 20.3202C2.55 23.4102 2.4 26.5002 2.46 29.5902C2.54617 30.9172 2.80158 32.2279 3.22 33.4902C3.53 34.6302 4.64 34.8402 5.71 34.2802C7.33 33.4402 7.43 32.0002 7.41 30.4602C7.41 27.8202 7.32 25.1702 7.29 22.5302C7.29 21.1302 7.36 19.7402 7.29 18.3502C7.27 16.4002 7.14 14.4902 7 12.5602ZM49 19.0702H49.17V24.3502C49.17 25.6102 49.17 26.8702 49.22 28.1202C49.2746 28.6517 49.2946 29.1861 49.28 29.7202C49.2792 30.3879 49.4343 31.0465 49.7329 31.6437C50.0315 32.2409 50.4654 32.7602 51 33.1602C52.1351 33.8922 53.4137 34.373 54.75 34.5702C56.28 34.6902 57.63 34.7402 58.85 33.5702C60.2929 32.1481 61.1189 30.2158 61.15 28.1902C61.23 26.6502 61.15 25.1002 61.07 23.5602C60.98 21.7702 61.07 20.0002 59.56 18.5602C58.05 17.1202 56.66 16.0702 54.56 16.2302C53.8 16.2902 53.46 15.7502 53.62 14.9902C53.7243 14.4931 53.7845 13.9878 53.8 13.4802C53.8 11.2102 53.8 8.95018 53.86 6.68018C53.8958 6.08969 53.6976 5.50887 53.3083 5.06343C52.919 4.618 52.37 4.3438 51.78 4.30018C50.47 4.01018 49.58 4.41018 49.26 5.60018C49.0747 6.35246 48.9873 7.12552 49 7.90018C49 10.2502 49.08 12.6102 49.11 14.9602C49.1 16.3302 49.08 17.7002 49.08 19.0702H49Z" fill="#0E2043"/>
<path d="M73.55 33.4302C73.72 35.8502 70.73 37.7002 68.65 36.7302C67.8 36.3302 66.9 36.0002 66.1 35.5202C65.6191 35.2516 65.2275 34.848 64.9733 34.3593C64.7192 33.8706 64.6138 33.3182 64.67 32.7702C64.76 31.3602 65 30.0702 66.53 29.3402C67.3444 28.9705 68.2664 28.9136 69.12 29.1802C69.56 29.2902 69.99 29.4502 70.42 29.5902C70.85 29.7302 71.68 29.7802 72.03 30.1502C72.5002 30.5589 72.8787 31.0624 73.1407 31.6277C73.4027 32.193 73.5421 32.8072 73.55 33.4302ZM68.29 34.0502C68.5081 34.0761 68.7292 34.0548 68.9382 33.9877C69.1473 33.9206 69.3395 33.8092 69.5017 33.6612C69.664 33.5132 69.7924 33.332 69.8784 33.13C69.9644 32.9279 70.0059 32.7097 70 32.4902C70 31.7002 69.24 31.1302 68.2 31.1302C68.0041 31.1007 67.8041 31.1171 67.6156 31.1781C67.4271 31.239 67.2553 31.3429 67.1138 31.4815C66.9723 31.6201 66.8648 31.7897 66.8 31.9769C66.7351 32.1641 66.7146 32.3637 66.74 32.5602C66.7531 32.9617 66.9224 33.3421 67.212 33.6205C67.5015 33.8988 67.8884 34.053 68.29 34.0502V34.0502Z" fill="#0E2043"/>
<path d="M30.5 26.7303C30.5 25.0703 30.5 23.4103 30.5 21.7303C30.5 20.5503 30.36 19.3603 30.4 18.1803C30.4 16.5103 30.62 14.8503 30.71 13.1803C30.77 12.1803 30.71 11.1803 30.83 10.1303C30.95 9.08033 31.42 8.66033 32.35 8.82033C33.28 8.98033 33.81 9.63033 33.74 10.7003C33.64 12.2103 33.67 13.7003 33.61 15.2503C33.55 16.8003 33.45 18.1003 33.43 19.5303C33.43 22.4503 33.43 25.3703 33.43 28.2803C33.4092 28.5238 33.3358 28.7598 33.2149 28.9721C33.0941 29.1845 32.9286 29.3681 32.73 29.5103C32.5133 29.5929 32.2805 29.6242 32.0497 29.6016C31.8189 29.5791 31.5965 29.5033 31.4 29.3803C30.985 29.0043 30.6778 28.5245 30.51 27.9903C30.407 27.5717 30.3599 27.1413 30.37 26.7103L30.5 26.7303Z" fill="#0E2043"/>
<path d="M53.6001 25.8603C53.6701 25.0303 53.7501 23.9203 53.8801 22.8603C53.9401 22.3503 54.1701 21.8603 54.8001 21.9103C55.1691 21.9282 55.5219 22.0672 55.8039 22.3058C56.0859 22.5444 56.2814 22.8693 56.3601 23.2303C56.4401 24.1603 56.3601 25.1103 56.4201 26.0603C56.4201 26.6203 56.4201 27.1903 56.4701 27.7503C56.5701 28.8803 55.9401 29.5703 54.8801 29.4803C54.6329 29.4818 54.3939 29.3916 54.2092 29.2273C54.0245 29.0629 53.9073 28.836 53.8801 28.5903C53.7901 27.7503 53.7101 26.9403 53.6001 25.8603Z" fill="#0E2043"/>
</svg>
