<svg width="21" height="21" viewBox="0 0 21 21" fill="none" xmlns="http://www.w3.org/2000/svg">
<g clip-path="url(#clip0_11_3)">
<path d="M10.5 21C16.299 21 21 16.299 21 10.5C21 4.70101 16.299 0 10.5 0C4.70101 0 0 4.70101 0 10.5C0 16.299 4.70101 21 10.5 21Z" fill="#0E2043"/>
<path d="M15.7605 10.7964V14.4481H13.6436V11.0399C13.6436 10.1825 13.3366 9.60033 12.5851 9.60033C12.3508 9.60506 12.1235 9.68173 11.9342 9.81994C11.7449 9.95816 11.6026 10.1512 11.5267 10.373C11.4674 10.5392 11.4422 10.7156 11.4526 10.8917V14.4481H9.33564C9.33564 14.4481 9.33564 8.67947 9.33564 8.09731H11.4526V9.02876C11.6452 8.69452 11.9254 8.41926 12.2631 8.23271C12.6007 8.04616 12.9829 7.95542 13.3684 7.97029C14.755 7.97029 15.8029 8.88058 15.8029 10.8387L15.7605 10.7964ZM6.00146 14.4481H8.1184V8.09731H6.00146V14.4481ZM8.18191 5.91687C8.18191 6.12621 8.11983 6.33086 8.00352 6.50492C7.88722 6.67898 7.72191 6.81465 7.5285 6.89476C7.33509 6.97488 7.12227 6.99584 6.91694 6.955C6.71162 6.91415 6.52302 6.81335 6.37499 6.66532C6.22696 6.51729 6.12615 6.32869 6.08531 6.12336C6.04447 5.91804 6.06543 5.70522 6.14554 5.51181C6.22566 5.3184 6.36132 5.15309 6.53539 5.03678C6.70945 4.92048 6.9141 4.8584 7.12344 4.8584C7.40416 4.8584 7.67339 4.96991 7.87189 5.16842C8.07039 5.36692 8.18191 5.63614 8.18191 5.91687Z" fill="white"/>
</g>
<defs>
<clipPath id="clip0_11_3">
<rect width="21" height="21" fill="white"/>
</clipPath>
</defs>
</svg>
