<svg width="439" height="154" viewBox="0 0 439 154" fill="none" xmlns="http://www.w3.org/2000/svg">
<g clip-path="url(#clip0_7_131)">
<path d="M148.81 95.83L77.3601 97.5C75.6963 97.5379 74.0845 96.919 72.8736 95.7774C71.6627 94.6357 70.9501 93.0631 70.8901 91.4L70.0001 65.72C69.9447 64.0756 70.5317 62.4743 71.6368 61.2553C72.7419 60.0364 74.2781 59.2956 75.9201 59.19L146.15 54.71C147.811 54.6025 149.447 55.1545 150.703 56.246C151.959 57.3375 152.734 58.8805 152.86 60.54L155 89.05C155.063 89.907 154.95 90.7677 154.669 91.5796C154.387 92.3916 153.944 93.1376 153.364 93.7722C152.785 94.4068 152.082 94.9166 151.299 95.2704C150.516 95.6242 149.669 95.8146 148.81 95.83Z" fill="#2083FD"/>
<path d="M258.26 100C256.62 100.25 254.98 100.55 253.33 100.71C252.17 100.82 251 100.71 249.83 100.71C249.14 100.71 248.46 100.95 247.77 100.98C245.86 101.06 243.95 101.07 242.04 101.14C238.77 101.28 235.51 101.41 232.25 101.61C230.098 101.902 227.931 102.065 225.76 102.1C222.06 101.86 218.41 102.6 214.7 102.4C211.7 102.24 208.7 102.55 205.76 102.49C202.57 102.42 199.38 102.1 196.19 101.99C191.62 101.83 187.06 101.75 182.49 101.68C181.26 101.68 180.02 101.78 178.79 101.87C176.37 102.05 175.15 100.51 174.13 98.67C172.578 95.8822 171.75 92.7502 171.72 89.56C171.816 87.407 171.736 85.2498 171.48 83.11C170.85 79.64 171.9 76.31 171.86 72.91C171.86 70.63 171.79 68.36 171.86 66.09C171.898 64.9157 172.212 63.767 172.777 62.7367C173.341 61.7065 174.141 60.8237 175.11 60.16C175.96 59.7157 176.912 59.502 177.87 59.54C180.19 59.39 182.53 59.33 184.87 59.27C187.53 59.21 190.19 59.27 192.87 59.14C195.05 59.07 197.22 58.87 199.39 58.78C201.3 58.71 203.21 58.78 205.11 58.68C207.01 58.58 209.11 58.55 211.11 58.48C213.11 58.41 215.41 58.33 217.56 58.23C218.553 58.0807 219.556 58.0172 220.56 58.04C223.269 58.2437 225.992 58.1465 228.68 57.75C230.45 57.6 232.25 57.75 234.04 57.75C235.43 57.75 236.81 57.55 238.2 57.46C241.94 57.24 245.69 57.01 249.44 56.83C251.88 56.7 254.33 56.67 256.78 56.55C257.936 56.37 259.101 56.2532 260.27 56.2C261.414 56.1854 262.539 56.494 263.515 57.0901C264.492 57.6863 265.28 58.5458 265.79 59.57C265.956 59.8367 266.043 60.1455 266.04 60.46C265.7 62.46 267.25 63.4 268.27 64.66C268.52 64.96 268.89 65.28 268.93 65.66C269.13 67.39 269.16 69.15 269.38 70.88C269.84 74.43 270.53 77.96 270.83 81.52C270.816 83.4025 270.659 85.2812 270.36 87.14C270.252 88.3969 270.218 89.6591 270.26 90.92C270.489 92.4565 270.151 94.024 269.31 95.33C268.64 96.5432 267.632 97.5365 266.41 98.19C264.813 98.7552 263.179 99.2096 261.52 99.55C260.52 99.8 259.41 99.96 258.36 100.16L258.26 100ZM177.16 88.19C177.64 90.63 178.04 92.68 178.44 94.73C178.444 94.9728 178.507 95.211 178.624 95.4236C178.741 95.6362 178.909 95.8166 179.113 95.949C179.316 96.0814 179.549 96.1617 179.791 96.1828C180.033 96.2039 180.277 96.1651 180.5 96.07C181.432 95.8914 182.382 95.8276 183.33 95.88C184.858 96.1046 186.412 96.1046 187.94 95.88C189.266 95.7063 190.606 95.6661 191.94 95.76C194.48 95.69 197.03 95.59 199.57 95.49C201.7 95.41 203.84 95.33 205.97 95.23C208.549 94.9807 211.139 94.8705 213.73 94.9C216.49 95.08 219.14 94.36 221.87 94.36C224.12 94.36 226.38 94.03 228.64 93.91C230.43 93.81 232.24 93.91 234.02 93.73C236.82 93.45 239.62 93.01 242.41 92.62C245.2 92.23 248.16 91.84 251.02 91.4C253.54 91.02 256.02 90.66 258.55 90.11C260.85 89.6 260.93 89.75 260.87 87.59C260.87 86.44 261.03 85.29 261.01 84.13C261.01 81.13 262.01 78.07 260.69 75.13C260.621 74.9001 260.597 74.6589 260.62 74.42C260.62 71.77 260.68 69.11 260.69 66.42C260.69 65.08 260.69 63.75 260.57 62.42C260.57 62.18 260.08 61.75 259.92 61.79C257.92 62.34 255.82 60.95 253.84 62.03C253.689 62.0813 253.529 62.1017 253.37 62.09C251.11 62.21 248.84 62.36 246.58 62.45C243.91 62.57 241.23 62.66 238.58 62.74C237.07 62.74 235.58 62.74 234.05 62.84C232.52 62.94 231.19 62.84 229.75 63.01C227.557 63.3749 225.327 63.4723 223.11 63.3C221.89 63.1389 220.658 63.0921 219.43 63.16C215.89 63.32 212.35 63.43 208.81 63.57C206.42 63.67 204.03 63.84 201.64 63.88C199.64 63.88 197.64 63.74 195.64 63.73C194.37 63.73 193.09 63.87 191.81 63.88C188.92 63.88 186.02 63.75 183.14 63.88C181.441 64.0817 179.767 64.4501 178.14 64.98C177.87 65.06 177.6 65.55 177.54 65.89C177.48 66.4483 177.48 67.0116 177.54 67.57C177.6 69.47 177.77 71.38 177.73 73.29C177.67 75.99 177.01 78.65 177.2 81.39C177.28 83.81 177.16 86.19 177.16 88.22V88.19Z" fill="#0E2043"/>
<path d="M158.14 65.56C160.21 65.19 161.14 66.1 161.7 67.8C162.189 69.5182 162.328 71.317 162.11 73.09C162.01 75.14 162.32 77.2 162.35 79.26C162.41 83.07 162.45 86.89 162.35 90.7C162.35 91.4 161.64 92.06 161.35 92.76C160.968 93.6377 160.634 94.5357 160.35 95.45C159.5 98.53 157.13 99.92 154.35 100.45C150.68 101.11 146.95 101.39 143.24 101.84C142.41 101.94 141.58 102.06 140.75 102.14C136.258 102.42 131.752 102.42 127.26 102.14C124.8 102.07 122.33 102.14 119.87 102.26C117.19 102.36 114.5 102.58 111.87 102.7C108.87 102.83 105.87 102.98 102.87 102.96C100.78 103.075 98.6844 102.883 96.65 102.39C94.06 101.56 91.49 102.09 88.94 101.76C85.83 101.36 82.71 100.91 79.64 100.26C78.3908 100.03 77.2335 99.4479 76.3049 98.5814C75.3763 97.7148 74.7153 96.6004 74.4 95.37C73.736 93.4201 73.1719 91.4375 72.71 89.43C72.34 87.43 72.37 85.33 72.19 83.28C72 82.19 71.78 81.1 71.77 80C71.77 78.69 71.91 77.39 71.96 76.08C71.96 75.29 71.96 74.5 71.96 73.71C72.08 71.65 72.24 69.6 72.39 67.55C72.39 67.35 72.5 67.16 72.51 66.96C72.5707 66.1305 72.8943 65.3419 73.4338 64.7089C73.9733 64.0759 74.7006 63.6314 75.51 63.44C75.8747 63.3977 76.2206 63.2559 76.51 63.03C77.83 61.53 79.61 61.38 81.42 61.18C83.23 60.98 85.06 60.56 86.89 60.43C89.42 60.24 91.97 60.29 94.5 60.13C95.99 60.04 97.5 59.65 98.95 59.56C101.01 59.45 103.08 59.56 105.14 59.45C106.49 59.45 107.83 59.13 109.14 59.1C112.77 59.02 116.4 59.1 120.02 58.97C122.71 58.84 125.39 58.31 128.08 58.06C130.98 57.78 133.89 57.62 136.79 57.39C138.68 57.25 140.56 57.03 142.45 56.93C143.524 56.8715 144.602 56.9083 145.67 57.04C147.563 57.2586 149.442 57.5791 151.3 58C152.205 58.2792 153.052 58.7196 153.8 59.3C155.53 60.53 157.43 61.66 157.53 64.19C157.648 64.68 157.855 65.1443 158.14 65.56V65.56ZM131.63 93.33L131.7 93.71C134.7 93.27 137.7 92.88 140.7 92.37C143.961 91.8377 147.165 91.0007 150.27 89.87C151.58 89.39 151.82 88.96 151.7 87.59C151.563 85.8903 151.516 84.1846 151.56 82.48C151.56 80.26 151.74 78.05 151.85 75.83C151.96 73.61 152.1 71.43 152.22 69.22C152.32 67.22 153.22 65.06 150.91 63.64C150.193 63.111 149.396 62.6992 148.55 62.42C147.471 62.2058 146.369 62.1219 145.27 62.17C142.62 62.17 139.97 62.17 137.27 62.35C134.57 62.53 131.91 62.89 129.27 63.21C127.37 63.44 125.48 63.84 123.58 63.97C121.12 64.13 118.64 64.1 116.17 64.17C115.59 64.17 115.01 64.33 114.43 64.33C112.43 64.33 110.37 64.21 108.34 64.27C105.82 64.35 103.34 64.58 100.78 64.72C98.53 64.85 96.28 64.96 94.04 65.07C93.2 65.07 92.37 65.13 91.54 65.15C89.69 65.15 87.83 65.21 85.98 65.28C83.98 65.36 81.92 65.47 79.88 65.58C79.7606 65.5992 79.6531 65.6636 79.58 65.76C78.81 66.76 77.49 67.47 77.49 68.95C77.49 70.07 77.63 71.18 77.66 72.3C77.8 74.0405 77.8 75.7895 77.66 77.53C77.4818 79.7853 77.5961 82.0541 78 84.28C78.31 86.66 78.87 89.01 79.2 91.39C79.4 93 80.79 94.85 82.27 95C84.17 95.21 86.08 95.23 87.98 95.34C88.7192 95.4397 89.4642 95.4898 90.21 95.49C91.99 95.38 93.76 95.09 95.53 95.03C98.79 94.92 102.05 94.92 105.3 94.88L118.69 94.71C120.03 94.71 121.37 94.71 122.69 94.71C123.841 94.7038 124.991 94.6169 126.13 94.45C128 94.15 129.8 93.71 131.63 93.33Z" fill="#0E2043"/>
<path d="M367.18 77.09C367.46 79.6 367.89 82.09 367.99 84.63C368.1 87.5 368.11 90.48 365.74 92.63C364.74 93.51 363.87 94.63 362.25 94.63C361.25 94.63 360.36 95.63 359.36 95.76C356.88 96.17 354.36 96.33 351.87 96.67C350.47 96.86 349.1 97.26 347.7 97.44C346.919 97.4796 346.136 97.4495 345.36 97.35C345.132 97.3106 344.901 97.2905 344.67 97.29C342.51 97.68 340.36 98.2 338.19 98.45C336.02 98.7 333.78 98.72 331.57 98.85C330.23 98.94 328.89 99.06 327.57 99.17C327.5 99.17 327.42 99.25 327.35 99.25C325.35 99.33 323.24 99.46 321.19 99.47C319.14 99.48 317.19 99.33 315.19 99.31C312.33 99.31 309.48 99.31 306.62 99.31C305.47 99.31 304.32 99.49 303.17 99.43C301.945 99.3479 300.726 99.1909 299.52 98.96C299.36 98.9374 299.207 98.8822 299.069 98.7979C298.932 98.7136 298.813 98.602 298.72 98.47C298.12 96.82 296.72 97.42 295.65 97.42C293.55 97.42 291.44 97.58 289.34 97.6C287.42 97.6 286.18 96.39 285.07 95.04C284.292 94.2097 283.62 93.2859 283.07 92.29C282.568 91.1366 282.231 89.9178 282.07 88.67C281.677 86.05 281.377 83.42 281.17 80.78C281.05 79.32 281.47 77.78 281.17 76.39C280.64 74.26 281.03 72.14 280.82 70.03C280.768 69.4751 280.641 68.93 280.44 68.41C279.63 66.32 280.24 64.16 280.17 62.04C280.171 60.9708 280.457 59.9213 281 59C281.526 58.1853 282.317 57.5776 283.24 57.28C285.039 56.8496 286.873 56.5785 288.72 56.47C291.02 56.29 293.33 56.36 295.64 56.19C297.03 56.09 298.4 55.66 299.8 55.56C301.5 55.43 303.21 55.56 304.92 55.47C305.45 55.47 305.98 55.23 306.52 55.18C310.88 54.76 315.24 54.3 319.62 53.97C324 53.64 328.38 53.49 332.76 53.18C334.84 53.03 336.9 52.67 338.97 52.47C340.3 52.32 341.66 52.29 343 52.24C345.88 52.15 348.77 51.93 351.65 52.02C353.034 51.999 354.407 52.2654 355.682 52.8025C356.958 53.3395 358.108 54.1355 359.06 55.14C359.461 55.5758 359.779 56.0806 360 56.63C360.29 57.4 360.47 58 361.56 57.87C361.847 57.9234 362.119 58.0411 362.355 58.2143C362.59 58.3875 362.783 58.6116 362.92 58.87C363.914 60.5378 364.764 62.2875 365.46 64.1C365.907 65.7048 366.222 67.3436 366.4 69C366.76 71.1 367.12 73.2 367.46 75.3C367.524 75.8946 367.557 76.492 367.56 77.09H367.18ZM358.39 73.23L358.77 73.15C358.55 71.75 358.43 70.33 358.1 68.96C357.4 66.07 356.61 63.21 355.82 60.35C355.687 59.7512 355.424 59.1887 355.051 58.7016C354.678 58.2146 354.203 57.8148 353.66 57.53C351.88 56.53 350.07 57.02 348.29 56.92C346.533 56.8971 344.776 56.9839 343.03 57.18C340.09 57.37 337.15 57.61 334.21 57.76C332.76 57.84 331.31 57.76 329.86 57.76C329.036 57.7314 328.211 57.7581 327.39 57.84C326.1 58 324.82 58.34 323.53 58.46C320.69 58.72 317.84 58.89 314.99 59.1C314.32 59.1 313.65 59.24 312.99 59.3L309.45 59.56C307.52 59.68 305.58 59.81 303.65 59.89C301.72 59.97 300.07 59.89 298.28 59.99C295.98 60.08 293.67 60.12 291.39 60.41C289.76 60.61 288.19 61.3 286.56 61.57C286.37 61.5819 286.185 61.6329 286.016 61.7199C285.847 61.8068 285.697 61.9278 285.577 62.0753C285.457 62.2227 285.368 62.3934 285.317 62.5766C285.266 62.7598 285.254 62.9516 285.28 63.14C285.35 64.63 285.7 66.09 285.89 67.57C286.227 69.3637 286.398 71.1848 286.4 73.01C286.249 73.9666 286.367 74.9463 286.74 75.84C286.868 76.2575 286.926 76.6935 286.91 77.13C287.21 81.13 287.46 85.22 287.82 89.25C287.882 90.0509 288.237 90.8007 288.819 91.3547C289.401 91.9087 290.167 92.2276 290.97 92.25C291.541 92.2064 292.108 92.1296 292.67 92.02C296.003 91.84 299.363 91.67 302.75 91.51C305.01 91.4 307.27 91.25 309.53 91.22C311.79 91.19 314.11 91.37 316.39 91.22C319.86 91.07 323.31 90.75 326.77 90.5C329.13 90.33 331.5 90.62 333.85 90.02C335.173 89.7999 336.509 89.6696 337.85 89.63C339.99 89.39 342.12 89.06 344.26 88.87C346.11 88.71 347.97 88.78 349.81 88.6C351.159 88.4136 352.495 88.1431 353.81 87.79C355.49 87.4 357.17 87.01 358.81 86.5C359.049 86.3961 359.259 86.2351 359.421 86.0311C359.583 85.8271 359.693 85.5863 359.74 85.33C359.63 83.13 359.35 80.93 359.17 78.73C359.17 78.23 359.33 77.73 359.24 77.21C359 75.89 358.69 74.57 358.39 73.23Z" fill="#0E2043"/>
<path d="M193.43 75.4501C192.79 76.7201 192.08 77.9601 191.55 79.2701C191.411 79.8028 191.113 80.2802 190.694 80.6379C190.276 80.9955 189.758 81.2162 189.21 81.2701C187.86 81.2701 187.09 80.1401 186.82 78.8001C186.82 78.6401 186.75 78.4901 186.64 78.1101C186.15 80.7201 186.7 83.0301 187.03 85.3501C187.03 85.6601 187.24 86.0501 187.12 86.2901C186.79 86.9501 186.48 87.8501 185.9 88.1201C185.06 88.5201 184.54 87.6801 184.28 86.9501C183.271 84.3627 182.808 81.5948 182.92 78.8201C182.916 77.5982 182.823 76.3782 182.64 75.1701C182.412 73.7176 182.291 72.2503 182.28 70.7801C182.348 69.8983 182.762 69.0791 183.43 68.5001C183.777 68.3556 184.155 68.301 184.529 68.3412C184.903 68.3814 185.261 68.5151 185.57 68.7301C186.345 69.574 186.986 70.5318 187.47 71.5701C188.03 72.5701 188.47 73.6501 189.01 74.8201C190.46 72.7001 191.82 70.6701 193.2 68.6701C194.2 67.2401 195.76 67.4401 196.75 68.8901C197.91 70.6101 197.75 72.5401 197.93 74.4201C198.24 77.7001 198.45 80.9901 198.73 84.2701C198.668 84.8503 198.449 85.4028 198.097 85.8679C197.744 86.3331 197.272 86.6934 196.73 86.9101C196.232 86.9706 195.729 86.8418 195.322 86.5492C194.914 86.2565 194.632 85.8214 194.53 85.3301C194.258 83.5642 194.081 81.785 194 80.0001C193.89 78.4801 193.9 76.9501 193.86 75.4301L193.43 75.4501Z" fill="#0E2043"/>
<path d="M210.6 87.24C211.666 87.247 212.729 87.3677 213.77 87.6C215.883 88.2129 218.133 88.1676 220.22 87.47C221.34 87.16 221.79 85.68 221.22 84.17C220.93 83.4 220.5 82.67 220.22 81.99C219.44 82.2306 218.694 82.57 218 83C216.7 84.06 215.47 83.07 214.42 82.77C213.63 82.54 213.01 81.22 212.6 80.26C212.144 79.0768 211.809 77.8506 211.6 76.6C211.549 76.4458 211.531 76.2824 211.547 76.1207C211.563 75.9589 211.614 75.8025 211.695 75.6617C211.776 75.5209 211.887 75.3989 212.018 75.3038C212.15 75.2087 212.301 75.1427 212.46 75.11C212.776 74.9918 213.081 74.8445 213.37 74.67C215.05 75.54 215.37 77.23 215.9 78.81C216.24 79.81 216.53 79.9 217.3 79.2C217.676 78.8243 217.961 78.3679 218.135 77.8654C218.308 77.3629 218.364 76.8276 218.3 76.3C218.3 74.12 218.84 73.49 220.84 73.79C222 73.97 222.15 74.92 222.41 75.79C222.84 77.19 223.19 78.62 223.64 80C224.09 81.38 224.78 82.92 225.23 84.42C225.551 85.6693 225.39 86.9936 224.78 88.13C223.09 91.97 219.78 92.13 216.48 92.13C214.53 92.13 212.58 91.8 210.63 91.64C210.005 91.6631 209.393 91.4526 208.914 91.0497C208.436 90.6467 208.124 90.0801 208.04 89.46C207.8 88.34 208.98 87.32 210.56 87.29L210.6 87.24Z" fill="#0E2043"/>
<path d="M229.9 70.94C229.74 73.29 230.11 73.58 231.74 73.51C233.62 73.42 235.39 73.75 236.65 75.4C236.87 75.7 237.3 75.84 237.58 76.12C239.58 78.12 239.41 80.63 237.85 82.99C236.29 85.35 234.14 85.53 231.85 85.84C230.35 86.05 227.76 83.96 227.31 82.19C227.185 81.195 227.125 80.1929 227.13 79.19C226.883 77.03 226.6 74.8767 226.28 72.73C226.03 71.04 225.59 69.37 225.48 67.68C225.48 67.21 226.19 66.53 226.74 66.25C226.993 66.1902 227.257 66.1975 227.506 66.2711C227.755 66.3448 227.98 66.4823 228.16 66.67C228.94 68.24 229.51 69.92 229.9 70.94ZM230.83 79.71C230.83 81.45 231.16 81.81 232.83 81.89C233.83 81.89 235.38 80.5 234.98 79.69C234.387 78.8008 233.545 78.1054 232.56 77.69C232.28 77.55 231.48 78.3 231.01 78.75C230.86 78.94 230.9 79.38 230.83 79.71Z" fill="#0E2043"/>
<path d="M245.87 80.39C246.462 80.8857 247.192 81.1872 247.962 81.2534C248.731 81.3196 249.502 81.1473 250.17 80.76C250.5 80.54 250.85 80.37 251.17 80.15C251.354 79.977 251.573 79.8447 251.812 79.7619C252.051 79.679 252.304 79.6474 252.556 79.6691C252.808 79.6908 253.053 79.7653 253.274 79.8878C253.495 80.0103 253.688 80.178 253.84 80.38C254.63 81.33 253.84 82.14 253.36 82.84C250.55 86.61 243.63 85.96 241.84 81.21C241.393 80.0709 241.224 78.8415 241.347 77.624C241.471 76.4065 241.883 75.2361 242.55 74.21C243.453 72.6588 244.783 71.399 246.38 70.58C247.221 70.2278 248.138 70.098 249.044 70.2031C249.949 70.3082 250.812 70.6446 251.55 71.18C252.203 71.7115 252.693 72.4172 252.962 73.2153C253.231 74.0134 253.268 74.8714 253.07 75.69C252.683 76.9221 251.971 78.0269 251.008 78.8877C250.045 79.7484 248.868 80.3331 247.6 80.58C247.018 80.5775 246.438 80.5138 245.87 80.39V80.39ZM245.87 76.67C247.26 77.36 248.22 76.84 248.87 75.55C249.01 75.28 249.21 74.85 249.1 74.72C248.981 74.5983 248.84 74.5011 248.684 74.4342C248.528 74.3673 248.36 74.3319 248.19 74.33C247.2 74.3 246.27 75.3 245.92 76.67H245.87Z" fill="#0E2043"/>
<path d="M210.62 87.2201C210.51 87.1101 210.41 86.9101 210.29 86.9101C208.64 86.8501 207.87 85.6701 207.09 84.4601C206.973 84.3398 206.827 84.2511 206.666 84.2022C206.505 84.1533 206.335 84.1457 206.17 84.1801C205.439 84.5922 204.609 84.7969 203.771 84.7723C202.932 84.7476 202.116 84.4944 201.41 84.0401C200.598 83.6274 199.931 82.9759 199.501 82.1731C199.07 81.3704 198.895 80.455 199 79.5501C199.3 77.0101 201.36 73.6601 204.88 74.7801C205.36 74.9301 206.02 74.5801 206.58 74.4101C207.76 74.0601 208.44 74.2801 208.81 75.4101C209.18 76.5401 209.24 77.6501 209.47 78.7601C209.624 79.7157 209.861 80.656 210.18 81.5701C210.435 82.1427 210.839 82.6364 211.35 83.0001C212.77 84.0501 212.75 85.5101 211.27 86.4601C211.012 86.6964 210.789 86.9693 210.61 87.2701L210.62 87.2201ZM205.12 77.8601C203.46 78.0201 202.46 79.0001 202.83 80.2301C202.93 80.5601 203.72 80.9001 204.19 80.8801C205.18 80.8501 205.49 79.7801 205.12 77.8601Z" fill="#0E2043"/>
<path d="M115.56 80.26C116.56 81.61 117.7 82.97 119.67 83.26C121.27 83.49 122.81 83.62 124.15 82.41C124.79 81.83 125.72 81.56 126.28 82.35C126.704 82.992 126.865 83.7725 126.73 84.53C126.12 87.1 124.91 87.79 122.14 87.48C120.821 87.4242 119.506 87.2973 118.2 87.1C117.151 86.8926 116.165 86.4441 115.32 85.79C113.01 83.79 111.01 81.49 110.5 78.33C110.08 75.65 111.5 73.66 113.5 72.24C115.387 70.7816 117.493 69.6307 119.74 68.83C120.827 68.4588 121.998 68.4135 123.111 68.6996C124.223 68.9856 125.227 69.5906 126 70.44C127.47 72.12 127.35 74.2 126.89 76.25C126.838 76.4458 126.722 76.6184 126.56 76.74C124.85 77.74 123.46 79.27 121.13 79.24C119.244 79.3953 117.378 79.7369 115.56 80.26ZM115.47 75.57L115.69 76.18C117.36 75.94 119.06 75.78 120.69 75.44C121.491 75.2619 122.246 74.9215 122.91 74.44C123.035 74.3652 123.135 74.2554 123.198 74.1241C123.26 73.9929 123.283 73.846 123.263 73.702C123.242 73.5579 123.18 73.4231 123.084 73.3142C122.987 73.2054 122.861 73.1274 122.72 73.09C122.067 72.7988 121.335 72.732 120.64 72.9C118.88 73.66 117.19 74.66 115.47 75.57Z" fill="#0E2043"/>
<path d="M141.32 68.36C141.16 68.82 141 69.28 140.83 69.74C140.676 70.1434 140.401 70.4894 140.043 70.731C139.685 70.9726 139.262 71.0979 138.83 71.09C138.131 71.1925 137.44 71.3395 136.76 71.53V71.94C138.9 72.49 141.04 73.06 143.18 73.6C144.082 73.8954 144.851 74.4972 145.356 75.301C145.86 76.1047 146.067 77.0597 145.94 78C145.59 81.51 143.41 83.66 140.57 84.93C138.13 86.02 135.35 86.62 132.7 85.06C132.161 84.8203 131.721 84.4018 131.455 83.8752C131.189 83.3486 131.113 82.7462 131.24 82.17C131.58 81.17 132.55 80.67 134.02 80.92C134.694 81.042 135.362 81.1989 136.02 81.39C138.43 82.04 140.92 80.28 141.77 78.28C142.08 77.56 141.77 77.19 141.15 77.03C139.974 76.7017 138.779 76.4511 137.57 76.28C136.055 76.1797 134.599 75.6527 133.37 74.76C132.14 73.82 131.83 70.85 132.95 69.76C134.8 68.02 136.86 66.67 139.6 67.37C139.958 67.5263 140.294 67.728 140.6 67.97C140.81 68.13 141.08 68.24 141.32 68.36Z" fill="#0E2043"/>
<path d="M101.33 76.75C101.803 75.9077 102.324 75.0931 102.89 74.31C103.784 73.1762 104.749 72.1006 105.78 71.09C105.993 70.9736 106.232 70.9125 106.475 70.9125C106.718 70.9125 106.957 70.9736 107.17 71.09C107.384 71.2395 107.56 71.4365 107.685 71.6655C107.81 71.8945 107.88 72.1493 107.89 72.41C107.754 73.2725 107.411 74.0891 106.89 74.79C105.09 76.97 104.21 79.61 102.89 82.04C101.77 84.12 100.89 86.37 99.14 88.04C98.29 88.86 96.62 89.13 95.86 88.44C95.1 87.75 95.11 86.44 96.28 85.44C97.92 84.12 98.49 82.15 99.5 80.44C99.5381 80.2973 99.5416 80.1475 99.5103 80.0032C99.479 79.8589 99.4138 79.7241 99.32 79.61C97.57 77.61 95.81 75.54 94.02 73.53C93.6869 73.2064 93.4767 72.7769 93.4256 72.3153C93.3745 71.8536 93.4857 71.3886 93.74 71C93.9604 70.7731 94.225 70.594 94.5174 70.4736C94.8098 70.3531 95.1239 70.2941 95.44 70.3C95.82 70.3 96.27 70.82 96.59 71.19C98.14 73 99.66 74.8 101.33 76.75Z" fill="#0E2043"/>
<path d="M318.9 76.71C319.179 73.7186 318.987 70.7019 318.33 67.7701C318.176 66.9462 318.123 66.1068 318.17 65.2701C318.222 64.9332 318.343 64.6107 318.524 64.3222C318.706 64.0337 318.944 63.7853 319.225 63.5924C319.506 63.3995 319.824 63.266 320.158 63.2003C320.493 63.1345 320.837 63.1379 321.17 63.21C322.17 63.32 322.6 64.31 322.6 65.7C322.6 67.09 322.95 68.5301 323.01 69.9401C323.11 72.2401 323.15 74.54 323.11 76.84C323.11 78.14 322.86 79.43 322.71 80.73C322.713 81.1108 322.59 81.4818 322.36 81.7856C322.13 82.0893 321.807 82.3088 321.44 82.41C320.6 82.64 319.88 82.9001 319.03 82.1201C317.31 80.5501 315.4 79.1901 313.61 77.6901C312.61 76.8401 311.66 75.88 310.51 74.8C310.67 76.18 310.89 77.32 310.93 78.47C310.99 80.23 310.93 81.99 310.93 83.76C310.93 84.68 309.8 85.64 309.09 85.25C308.768 85.0575 308.489 84.8026 308.267 84.5004C308.046 84.1981 307.887 83.8546 307.8 83.49C307.44 81.49 307.29 79.49 307.12 77.49C306.83 74.19 305.12 71.31 304.43 68.14C304.21 67.4334 304.21 66.6767 304.43 65.97C304.615 65.666 304.878 65.4167 305.191 65.2481C305.505 65.0795 305.857 64.9976 306.213 65.0108C306.569 65.0241 306.915 65.132 307.215 65.3235C307.515 65.515 307.758 65.783 307.92 66.1C309.3 68.4901 311.45 70.1 313.4 71.89C314.83 73.21 316.31 74.4901 317.78 75.7801C318 76.0901 318.38 76.32 318.9 76.71Z" fill="#0E2043"/>
<path d="M345.91 73.14C345.75 77.02 343.22 79.64 339.53 81.44C336.81 82.77 334.42 81.7 332.04 80.54C330.229 79.6518 328.691 78.2905 327.59 76.6C326.969 75.6431 326.554 74.5678 326.369 73.4422C326.185 72.3165 326.237 71.1649 326.52 70.06C326.731 68.7928 327.205 67.5837 327.91 66.51C329.59 64.17 331.59 62.15 334.82 62.21C335.012 62.179 335.208 62.179 335.4 62.21C337.6 63.21 339.85 64.06 341.95 65.21C344.82 66.82 346.11 69.39 345.91 73.14ZM334.37 65.85C333.42 66.62 332.2 67.23 331.58 68.22C330.814 69.3784 330.394 70.7314 330.37 72.12C330.412 72.9347 330.655 73.7264 331.077 74.4244C331.499 75.1224 332.088 75.7049 332.79 76.12C334.13 76.94 335.47 78.01 337.17 77.74C338.14 77.5824 339.048 77.1641 339.799 76.53C340.549 75.8959 341.113 75.0698 341.43 74.14C342.04 72.61 341.57 70.24 340.58 69.47C339.308 68.319 337.705 67.5982 336 67.41C335.34 67.37 333.79 67.65 334.37 65.85V65.85Z" fill="#0E2043"/>
</g>
<defs>
<clipPath id="clip0_7_131">
<rect width="298.02" height="50.97" fill="white" transform="translate(70 52)"/>
</clipPath>
</defs>
</svg>
