<svg width="43" height="45" viewBox="0 0 43 45" fill="none" xmlns="http://www.w3.org/2000/svg">
<g clip-path="url(#clip0_17_24)">
<path d="M3.84006 43.62C3.59337 43.5102 3.37965 43.3379 3.22006 43.12C3.07139 42.9098 2.99426 42.6574 3.00006 42.4C2.99021 42.2969 2.99021 42.1931 3.00006 42.09C3.01472 41.9969 3.04162 41.9061 3.08006 41.82H4.08006C4.03845 41.9595 4.01822 42.1045 4.02006 42.25C4.0123 42.4555 4.08392 42.656 4.22006 42.81C4.29036 42.8803 4.375 42.9345 4.4682 42.9691C4.5614 43.0036 4.66096 43.0175 4.76006 43.01C4.88821 43.0154 5.0156 42.9879 5.13006 42.93C5.24226 42.8744 5.33602 42.7876 5.40006 42.68C5.47033 42.5624 5.50506 42.427 5.50006 42.29C5.49848 42.1594 5.4713 42.0302 5.42006 41.91C5.36904 41.801 5.28959 41.7077 5.19006 41.64C5.08053 41.5777 4.95603 41.5466 4.83006 41.55H4.58006V40.83H4.81006C4.89129 40.8347 4.97258 40.822 5.04847 40.7927C5.12437 40.7634 5.1931 40.7181 5.25006 40.66C5.34371 40.5365 5.39302 40.385 5.39006 40.23C5.39324 40.1256 5.36911 40.0222 5.32006 39.93C5.26813 39.838 5.19206 39.762 5.10006 39.71C4.99876 39.6555 4.88511 39.6279 4.77006 39.63C4.65502 39.6279 4.54137 39.6555 4.44006 39.71C4.34529 39.7628 4.26862 39.843 4.22006 39.94C4.17019 40.0355 4.14607 40.1424 4.15006 40.25C4.13712 40.3329 4.13712 40.4172 4.15006 40.5H3.15006C3.13181 40.3807 3.13181 40.2593 3.15006 40.14C3.14714 39.9109 3.21718 39.6867 3.35006 39.5C3.49547 39.2809 3.70006 39.1075 3.94006 39C4.20287 38.8774 4.49006 38.8158 4.78006 38.82C5.06358 38.8164 5.34413 38.878 5.60006 39C5.83275 39.0959 6.03376 39.2553 6.18006 39.46C6.31742 39.6526 6.39087 39.8835 6.39006 40.12C6.39482 40.3483 6.33595 40.5733 6.22006 40.77C6.11206 40.9433 5.95059 41.0767 5.76006 41.15V41.15C5.90719 41.193 6.04125 41.2721 6.15006 41.38C6.26468 41.5009 6.35921 41.6393 6.43006 41.79C6.50056 41.9681 6.53457 42.1585 6.53006 42.35C6.53225 42.6084 6.45164 42.8607 6.30006 43.07C6.13296 43.2886 5.91262 43.4608 5.66006 43.57C5.37022 43.6838 5.06142 43.7415 4.75006 43.74C4.44178 43.7605 4.1325 43.7197 3.84006 43.62V43.62Z" fill="#161449"/>
<path d="M11.0001 42.7001C11.0941 42.3206 11.1411 41.931 11.1401 41.5401V40.5401C11.1542 40.2986 11.106 40.0575 11.0001 39.8401C10.9572 39.7698 10.897 39.7117 10.8251 39.6714C10.7533 39.6312 10.6724 39.61 10.5901 39.6101C10.5187 39.6077 10.448 39.6239 10.3848 39.6572C10.3217 39.6906 10.2683 39.7398 10.2301 39.8001C10.1309 39.9619 10.0854 40.1509 10.1001 40.3401V42.3401H9.20006V40.3401C9.21247 40.1497 9.16339 39.9604 9.06006 39.8001C9.02256 39.7391 8.96936 39.6893 8.90604 39.6559C8.84272 39.6224 8.77158 39.6066 8.70006 39.6101C8.61783 39.6097 8.53706 39.6319 8.46654 39.6742C8.39602 39.7165 8.33844 39.7773 8.30006 39.8501C8.18666 40.058 8.13465 40.2938 8.15006 40.5301V41.5301C8.154 41.9207 8.20095 42.3097 8.29006 42.6901C8.35333 43.0384 8.46791 43.3754 8.63006 43.6901H7.63006C7.52589 43.5134 7.44202 43.3256 7.38006 43.1301C7.30502 42.8805 7.24492 42.6268 7.20006 42.3701C7.16055 42.0952 7.1405 41.8178 7.14006 41.5401V40.5401C7.13395 40.2306 7.19537 39.9234 7.32006 39.6401C7.43128 39.4 7.60918 39.1969 7.83258 39.055C8.05598 38.9132 8.31545 38.8386 8.58006 38.8401C8.81015 38.8358 9.03745 38.8909 9.24006 39.0001C9.43104 39.1024 9.57977 39.2688 9.66006 39.4701V39.4701C9.74376 39.2645 9.90046 39.0971 10.1001 39.0001C10.2956 38.8913 10.5164 38.8361 10.7401 38.8401C11.0069 38.836 11.2698 38.9052 11.5001 39.0401C11.7225 39.1845 11.8994 39.3891 12.0101 39.6301C12.144 39.9143 12.2091 40.226 12.2001 40.5401V41.5401C12.2012 41.8183 12.1778 42.096 12.1301 42.3701C12.095 42.6287 12.0347 42.8832 11.9501 43.1301C11.896 43.3285 11.8117 43.5174 11.7001 43.6901H10.7001C10.8461 43.3758 10.947 43.0425 11.0001 42.7001Z" fill="#161449"/>
<path d="M16.5 42.92C16.5742 42.6462 16.6112 42.3636 16.61 42.08C16.6225 41.8579 16.5741 41.6365 16.47 41.44C16.4318 41.3759 16.3776 41.3228 16.3128 41.286C16.2479 41.2492 16.1746 41.2299 16.1 41.23C16.0369 41.2303 15.9748 41.2459 15.919 41.2756C15.8633 41.3052 15.8156 41.3479 15.78 41.4C15.6923 41.5404 15.6504 41.7047 15.66 41.87V42.87H14.76V41.87C14.774 41.7024 14.7356 41.5347 14.65 41.39C14.6157 41.3366 14.5682 41.2929 14.5122 41.2631C14.4562 41.2333 14.3934 41.2185 14.33 41.22C14.2565 41.2198 14.1842 41.238 14.1195 41.2729C14.0549 41.3078 14 41.3584 13.96 41.42C13.8517 41.615 13.803 41.8375 13.82 42.06C13.8187 42.6265 13.9708 43.1828 14.26 43.67H13.26C13.1017 43.4163 12.9837 43.1397 12.91 42.85C12.8125 42.4645 12.7688 42.0674 12.78 41.67C12.7585 41.3684 12.7969 41.0656 12.893 40.779C12.9891 40.4923 13.141 40.2276 13.34 40C13.729 39.6155 14.2294 39.3636 14.77 39.28L15.33 39.18C15.4096 39.1628 15.4869 39.1359 15.56 39.1C15.5879 39.0878 15.613 39.0699 15.6336 39.0476C15.6543 39.0252 15.6701 38.9988 15.68 38.97H16.68C16.6616 39.2078 16.5587 39.4313 16.39 39.6C16.1672 39.7795 15.8953 39.8876 15.61 39.91L15.05 39.99C14.7046 40.0443 14.3682 40.1453 14.05 40.29C13.9251 40.3486 13.8152 40.4349 13.7285 40.5424C13.6419 40.6498 13.5809 40.7755 13.55 40.91V40.91C13.6449 40.7743 13.7721 40.6644 13.92 40.59C14.0579 40.5257 14.2079 40.4916 14.36 40.49C14.5348 40.489 14.7057 40.5413 14.85 40.64C15.0034 40.7377 15.1223 40.8811 15.19 41.05V41.05C15.2861 40.8754 15.4278 40.7303 15.6 40.63C15.7894 40.5358 15.9984 40.4878 16.21 40.49C16.4552 40.4896 16.6959 40.5565 16.9057 40.6835C17.1155 40.8104 17.2865 40.9925 17.4 41.21C17.526 41.461 17.5878 41.7392 17.58 42.02C17.5862 42.3342 17.5457 42.6476 17.46 42.95C17.3823 43.2133 17.2643 43.4629 17.11 43.69H16.11C16.2663 43.4475 16.397 43.1894 16.5 42.92Z" fill="#161449"/>
<path d="M18.92 43.62C18.6751 43.5161 18.4664 43.3421 18.32 43.12C18.1789 42.8956 18.106 42.6351 18.11 42.37C18.1121 42.2403 18.1358 42.1119 18.18 41.99H19.18C19.1679 42.0896 19.1679 42.1904 19.18 42.29C19.1777 42.419 19.2087 42.5465 19.27 42.66C19.3253 42.7666 19.4082 42.8564 19.51 42.92C19.6236 42.9813 19.751 43.0123 19.88 43.01C19.98 43.0176 20.0804 43.0027 20.1739 42.9664C20.2674 42.93 20.3515 42.8732 20.42 42.8C20.5552 42.6303 20.6228 42.4166 20.61 42.2V41.2C20.6125 41.0592 20.5853 40.9195 20.53 40.79C20.4723 40.6825 20.39 40.59 20.29 40.52C20.1836 40.459 20.0627 40.4279 19.94 40.43C19.8283 40.4292 19.7182 40.4567 19.62 40.51C19.532 40.556 19.4617 40.6298 19.42 40.72C19.3722 40.8054 19.348 40.9021 19.35 41C19.3455 41.0733 19.3455 41.1467 19.35 41.22H18.35C18.3342 41.1072 18.3342 40.9928 18.35 40.88C18.3442 40.6649 18.3924 40.4518 18.49 40.26C18.5826 40.077 18.7292 39.9269 18.91 39.83C19.1108 39.7163 19.3394 39.6609 19.57 39.67C19.7807 39.6655 19.9895 39.71 20.18 39.8C20.3498 39.8754 20.4953 39.9966 20.6 40.15V39H21.6V42.31C21.6092 42.6036 21.529 42.893 21.37 43.14C21.2235 43.3707 21.011 43.5519 20.76 43.66C20.4689 43.7814 20.1553 43.8393 19.84 43.83C19.5215 43.8297 19.2071 43.7579 18.92 43.62Z" fill="#161449"/>
<path d="M23.08 43.5801C22.8152 43.4486 22.5936 43.2441 22.4412 42.9907C22.2888 42.7373 22.2121 42.4457 22.22 42.1501C22.2151 41.8578 22.2839 41.5689 22.42 41.3101C22.5473 41.0782 22.7381 40.8874 22.97 40.7601C23.2017 40.6297 23.4642 40.564 23.73 40.5701C23.9406 40.5667 24.1492 40.6111 24.34 40.7001C24.5126 40.771 24.6592 40.8931 24.76 41.0501V41.0501V40.2101C24.7684 40.0557 24.7301 39.9024 24.65 39.7701C24.6185 39.7171 24.5727 39.6741 24.5179 39.6458C24.4631 39.6175 24.4015 39.6052 24.34 39.6101C24.2843 39.6068 24.2285 39.6159 24.1767 39.6366C24.1248 39.6574 24.0782 39.6893 24.04 39.7301C24.0009 39.8143 23.987 39.9081 24 40.0001V40.1601H23.1V40.0201C23.1 39.7601 22.96 39.6301 22.67 39.6301H22.33V38.8401H22.77C22.9458 38.8342 23.1194 38.8794 23.27 38.9701C23.342 39.009 23.4055 39.0616 23.457 39.1251C23.5085 39.1886 23.5469 39.2617 23.57 39.3401V39.3401C23.6713 39.1819 23.8227 39.0622 24 39.0001C24.1863 38.908 24.3924 38.8633 24.6 38.8701C24.8277 38.8671 25.0532 38.9149 25.26 39.0101C25.4483 39.1071 25.6046 39.2564 25.71 39.4401C25.818 39.6503 25.8729 39.8838 25.87 40.1201V42.1201C25.8725 42.416 25.7929 42.7068 25.64 42.9601C25.4965 43.2139 25.2807 43.4193 25.02 43.5501C24.7242 43.6885 24.4016 43.7602 24.075 43.7602C23.7485 43.7602 23.4259 43.6885 23.13 43.5501L23.08 43.5801ZM24.43 42.9101C24.5498 42.8385 24.6469 42.7345 24.71 42.6101C24.7794 42.4776 24.8138 42.3296 24.81 42.1801C24.8138 42.0274 24.7794 41.8762 24.71 41.7401C24.6467 41.6184 24.5494 41.5177 24.43 41.4501C24.3062 41.3762 24.1643 41.3382 24.02 41.3401C23.8821 41.3381 23.7466 41.3763 23.63 41.4501C23.5136 41.5183 23.4198 41.6191 23.36 41.7401C23.2907 41.8762 23.2563 42.0274 23.26 42.1801C23.2563 42.3296 23.2907 42.4776 23.36 42.6101C23.4165 42.7358 23.5109 42.8408 23.63 42.9101C23.7437 42.971 23.8711 43.002 24 43.0001C24.149 43.0108 24.2979 42.9796 24.43 42.9101Z" fill="#161449"/>
<path d="M30.4401 42.6999C30.5292 42.3195 30.5762 41.9305 30.5801 41.5399V40.5399C30.5966 40.2971 30.5446 40.0546 30.4301 39.8399C30.388 39.7689 30.3279 39.7103 30.2559 39.6699C30.1839 39.6296 30.1026 39.6088 30.0201 39.6099C29.9504 39.6092 29.8817 39.6263 29.8205 39.6595C29.7592 39.6928 29.7075 39.7411 29.6701 39.7999C29.5668 39.9602 29.5177 40.1495 29.5301 40.3399V42.3399H28.6001V40.3399C28.6148 40.1507 28.5693 39.9617 28.4701 39.7999C28.4302 39.7388 28.3751 39.6892 28.3103 39.6559C28.2454 39.6225 28.173 39.6067 28.1001 39.6099C28.0181 39.6106 27.9377 39.6332 27.8674 39.6754C27.7971 39.7176 27.7393 39.7778 27.7001 39.8499C27.5867 40.0578 27.5347 40.2936 27.5501 40.5299V41.5299C27.554 41.9205 27.601 42.3095 27.6901 42.6899C27.7562 43.0388 27.8742 43.3759 28.0401 43.6899H27.0001C26.8959 43.5132 26.8121 43.3254 26.7501 43.1299C26.6738 42.8814 26.6169 42.6272 26.5801 42.3699C26.5324 42.0958 26.509 41.8181 26.5101 41.5399V40.5399C26.5026 40.2292 26.5677 39.921 26.7001 39.6399C26.8089 39.3946 26.9904 39.1886 27.2201 39.0499C27.4376 38.9099 27.6914 38.8368 27.9501 38.8399C28.1804 38.8333 28.4083 38.8886 28.6101 38.9999C28.8011 39.1022 28.9498 39.2686 29.0301 39.4699C29.0723 39.3637 29.1358 39.2672 29.2166 39.1864C29.2974 39.1056 29.3939 39.0421 29.5001 38.9999C29.6987 38.8898 29.9231 38.8346 30.1501 38.8399C30.4136 38.8372 30.6729 38.9063 30.9001 39.0399C31.1228 39.1868 31.3023 39.3905 31.4201 39.6299C31.5459 39.9164 31.6074 40.227 31.6001 40.5399V41.5399C31.5997 41.8176 31.5796 42.095 31.5401 42.3699C31.4952 42.6266 31.4351 42.8803 31.3601 43.1299C31.2981 43.3254 31.2143 43.5132 31.1101 43.6899H30.1101C30.271 43.3791 30.3823 43.0451 30.4401 42.6999V42.6999Z" fill="#161449"/>
<path d="M32.9999 43.62C32.7468 43.5213 32.5255 43.3553 32.3599 43.14C32.2015 42.9337 32.117 42.6801 32.12 42.42C32.1189 42.2557 32.1494 42.0927 32.2099 41.94H33.2099C33.2099 42.01 33.2099 42.08 33.2099 42.13C33.2042 42.2032 33.2042 42.2768 33.2099 42.35C33.2089 42.4662 33.2401 42.5804 33.2999 42.68C33.367 42.7826 33.4602 42.8654 33.5699 42.92C33.6835 42.9813 33.8109 43.0123 33.9399 43.01C34.0656 43.0111 34.1895 42.9801 34.2999 42.92C34.4035 42.8602 34.4894 42.7742 34.5491 42.6706C34.6088 42.567 34.6401 42.4496 34.6399 42.33C34.6416 42.199 34.6143 42.0692 34.5599 41.95C34.5146 41.8375 34.4338 41.7427 34.3299 41.68C34.2197 41.6097 34.0906 41.5748 33.9599 41.58H33.6699V40.81H34.0799C34.1955 40.8175 34.3106 40.7896 34.4099 40.73C34.4465 40.7043 34.4758 40.6697 34.4951 40.6294C34.5143 40.5891 34.5229 40.5446 34.5199 40.5C34.5214 40.4318 34.5003 40.365 34.4599 40.31C34.4085 40.2532 34.3476 40.2059 34.2799 40.17L33.9999 40C33.7501 39.9123 33.5217 39.7726 33.3299 39.59C33.1548 39.4376 33.0381 39.229 32.9999 39H33.9999C34.0088 39.0541 34.0284 39.1058 34.0576 39.1522C34.0868 39.1986 34.125 39.2386 34.1699 39.27C34.2529 39.3372 34.3435 39.3943 34.4399 39.44L34.62 39.52C34.7617 39.5797 34.8987 39.6499 35.0299 39.73C35.1374 39.8048 35.2291 39.8999 35.2999 40.01C35.3761 40.1475 35.4141 40.3029 35.4099 40.46C35.4174 40.6342 35.3604 40.8051 35.2499 40.94C35.1363 41.0793 34.9828 41.1805 34.8099 41.23V41.23C34.9447 41.2821 35.0698 41.3565 35.1799 41.45C35.3031 41.562 35.4018 41.6981 35.47 41.85C35.5447 42.0271 35.5821 42.2178 35.58 42.41C35.5822 42.6715 35.5017 42.927 35.3499 43.14C35.1932 43.3605 34.9787 43.5336 34.7299 43.64C34.1617 43.8665 33.5282 43.8665 32.9599 43.64L32.9999 43.62Z" fill="#161449"/>
<path d="M38.61 42.74C38.6776 42.3604 38.7111 41.9756 38.71 41.59V40.65C38.722 40.3881 38.6595 40.128 38.53 39.9C38.4676 39.8172 38.3867 39.75 38.2939 39.7037C38.2011 39.6574 38.0987 39.6334 37.995 39.6334C37.8913 39.6334 37.789 39.6574 37.6961 39.7037C37.6033 39.75 37.5224 39.8172 37.46 39.9C37.3305 40.128 37.268 40.3881 37.28 40.65V41.59C37.2794 41.9756 37.3128 42.3604 37.38 42.74C37.4314 43.061 37.5152 43.3759 37.63 43.68H36.63C36.4995 43.379 36.4055 43.0634 36.35 42.74C36.2782 42.3474 36.2414 41.9492 36.24 41.55V40.63C36.2239 40.2807 36.3071 39.934 36.48 39.63C36.6199 39.3684 36.8362 39.1556 37.1 39.02C37.3779 38.881 37.6843 38.8086 37.995 38.8086C38.3057 38.8086 38.6121 38.881 38.89 39.02C39.1547 39.158 39.3736 39.3699 39.52 39.63C39.6823 39.9377 39.7616 40.2824 39.75 40.63V41.55C39.7481 41.9491 39.7113 42.3473 39.64 42.74C39.585 43.0647 39.4875 43.3808 39.35 43.68H38.35C38.4791 43.38 38.5666 43.0638 38.61 42.74V42.74Z" fill="#161449"/>
<path d="M27.6099 17C26.6099 16.85 25.6099 16.76 24.7099 16.56C24.2828 16.4465 23.8796 16.2568 23.5199 16C23.0199 15.67 22.5199 15.28 21.9999 14.84C21.9999 15.79 21.9399 16.55 21.9999 17.31C22.2118 19.9054 22.1179 22.5166 21.7199 25.09C21.5699 26.2 21.6099 27.34 21.3999 28.44C21.2055 29.3919 20.9105 30.3205 20.5199 31.21C20.0274 32.4909 19.1462 33.5855 17.9999 34.34C17.1233 34.7825 16.2139 35.1569 15.2799 35.46C13.9399 36.01 12.6799 35.46 11.5099 34.98C10.5105 34.4901 9.59031 33.853 8.77993 33.09C8.16969 32.5782 7.61346 32.0052 7.11993 31.38C6.33847 30.518 5.75787 29.4934 5.41993 28.38C5.00759 26.8751 4.6738 25.3497 4.41993 23.81C3.89485 20.7323 3.89485 17.5878 4.41993 14.51C4.55993 13.71 4.49993 12.88 4.58993 12.07C4.66778 11.6206 4.7849 11.179 4.93993 10.75C4.93993 10.6 5.09993 10.47 5.11993 10.32C5.48222 8.03991 6.48046 5.90826 7.99993 4.17003C8.51958 3.42444 9.24674 2.84787 10.0912 2.51188C10.9356 2.17588 11.8601 2.09527 12.7499 2.28003C13.5882 2.39374 14.4195 2.55399 15.2399 2.76003C17.2478 3.36707 18.9339 4.74397 19.9299 6.59003C20.0599 6.82003 20.1899 7.05003 20.3399 7.27003C20.4691 7.44237 20.6094 7.60605 20.7599 7.76003L21.9999 5.41003C22.4365 4.47778 23.0753 3.65451 23.8699 3.00003C24.4287 2.64562 25.0177 2.34111 25.6299 2.09003C25.7624 2.02917 25.8867 1.9519 25.9999 1.86003C26.9999 0.930034 28.1299 1.00003 29.2999 1.00003C30.2093 0.903752 31.1247 1.115 31.8999 1.60003C31.9428 1.60922 31.9871 1.60922 32.0299 1.60003C34.5699 1.68003 36.0899 3.28003 37.4199 5.19003C37.9999 6.04003 38.6599 6.84003 39.1799 7.73003C40.0827 9.19847 40.5411 10.8968 40.4999 12.62C40.4157 14.1195 40.0776 15.5938 39.4999 16.98C39.0737 18.1315 38.5726 19.2539 37.9999 20.34C37.3875 21.3751 36.7199 22.3766 35.9999 23.34C35.5599 23.96 34.9999 24.54 34.5899 25.11C34.6499 25.23 34.6699 25.29 34.6899 25.3C35.9799 25.43 36.5599 26.61 37.5299 27.19C38.6999 27.89 38.6599 29.05 38.7999 30.19C38.8999 31.02 38.9099 31.86 38.9399 32.69C39.0099 34.37 38.0699 35.04 36.6999 35.46C34.9743 35.9283 33.186 36.124 31.3999 36.04C30.1499 36.04 28.8999 36.25 27.6599 36.22C27.0292 36.2796 26.3931 36.2014 25.7957 35.9907C25.1983 35.7801 24.6538 35.442 24.1999 35C24.131 34.9145 24.0461 34.8432 23.9499 34.79C22.1999 33.99 22.0899 32.39 21.9499 30.79C21.9499 30.37 21.8799 29.95 21.8699 29.54C21.8863 28.201 22.2296 26.8862 22.8699 25.71C23.6199 24.21 24.1499 22.58 24.9199 21.09C25.5907 19.9045 26.3251 18.7562 27.1199 17.65C27.2699 17.4236 27.4335 17.2065 27.6099 17V17ZM32.9299 32.7V32.91L35.1299 32.56C35.7299 32.47 35.9099 32.03 35.9299 31.56C35.9299 30.85 35.9299 30.14 35.9299 29.44C35.942 29.1233 35.8906 28.8074 35.7789 28.5108C35.6672 28.2143 35.4974 27.943 35.2794 27.7129C35.0614 27.4828 34.7997 27.2986 34.5096 27.171C34.2195 27.0435 33.9068 26.9751 33.5899 26.97C32.6899 27.04 31.7899 27.23 30.8899 27.26C30.4538 27.2721 30.0244 27.1499 29.6599 26.91C29.2299 26.6 29.3799 26.08 29.6099 25.69C30.2199 24.69 30.8599 23.61 31.5499 22.61C32.2399 21.61 33.1799 20.56 33.8599 19.46C34.6999 18.09 35.8599 16.9 36.3099 15.31C36.7486 14.0053 37.083 12.6677 37.3099 11.31C37.3486 9.97629 37.0273 8.65676 36.3799 7.49003C35.5899 5.72003 34.5999 4.15003 32.6299 3.49003C31.9137 3.21389 31.1785 2.98997 30.4299 2.82003C29.0465 2.50906 27.5981 2.6857 26.3299 3.32003C25.2945 3.68753 24.3949 4.36049 23.7499 5.25003C23.0049 6.35016 22.416 7.54822 21.9999 8.81003C21.8622 10.165 21.8891 11.5316 22.0799 12.88C22.0941 12.9438 22.1209 13.004 22.1586 13.0572C22.1964 13.1105 22.2445 13.1556 22.2999 13.19C22.9859 13.6778 23.8083 13.9368 24.6499 13.93C25.3699 13.82 26.0899 13.77 26.7999 13.63C26.9499 13.63 27.1299 13.33 27.1599 13.15C27.3199 12.1 27.4399 11.06 27.5699 10.01C27.6074 9.61491 27.7283 9.23226 27.9249 8.88746C28.1214 8.54265 28.389 8.24356 28.7099 8.01003C29.6399 7.36003 31.1799 8.19003 31.4599 9.44003C31.8085 11.1404 31.6126 12.9073 30.8999 14.49C29.9787 16.348 28.891 18.1186 27.6499 19.78C26.7287 21.3069 25.8908 22.8826 25.1399 24.5C24.7599 25.24 24.5299 26.06 24.1399 26.82C23.706 27.7825 23.5137 28.8364 23.5799 29.89C23.5731 30.2857 23.6066 30.6811 23.6799 31.07C23.8498 31.6764 24.0501 32.2738 24.2799 32.86C24.3176 32.921 24.3688 32.9725 24.4294 33.0106C24.4901 33.0487 24.5587 33.0725 24.6299 33.08C25.9699 33.08 27.2999 33.08 28.6299 32.98C29.9599 32.88 31.5099 32.8 32.9299 32.7ZM5.72993 20.36H5.60993C5.82993 21.99 6.03993 23.63 6.27993 25.25C6.64908 27.6775 7.89843 29.8844 9.78993 31.45C10.5604 31.9267 11.4442 32.1891 12.3499 32.21C13.1822 32.4187 14.0568 32.3846 14.8703 32.1117C15.6837 31.8388 16.402 31.3385 16.9399 30.67C18.1699 29.24 18.2399 27.44 18.4399 25.67C18.6099 24.23 18.6199 22.78 18.7099 21.33C18.7799 20.24 18.9199 19.15 18.9199 18.05C18.9199 16.31 18.8299 14.57 18.7599 12.83C18.7599 11.83 18.6799 10.77 18.5799 9.75003C18.3876 8.92752 18.0955 8.13161 17.7099 7.38003C17.2699 6.17003 16.2699 5.52003 15.5599 4.60003C15.0099 3.89003 14.0599 3.93003 13.2299 3.82003C12.5062 3.65764 11.7519 3.69463 11.0475 3.92709C10.343 4.15955 9.7149 4.57875 9.22993 5.14003C7.65172 7.13447 6.59955 9.49325 6.16993 12C5.89714 13.7679 5.74014 15.5517 5.69993 17.34C5.67993 18.38 5.72993 19.37 5.72993 20.36Z" fill="#0E2043"/>
<path d="M14.69 13.5901C14.69 15.3601 14.79 17.1401 14.69 18.9001C14.55 20.9001 14.22 22.9001 13.94 24.8101C13.86 25.3601 13.57 25.9701 12.94 25.8701C12.6792 25.8086 12.4341 25.6932 12.2205 25.5313C12.0069 25.3694 11.8296 25.1646 11.7 24.9301C11.1465 23.799 10.882 22.5484 10.93 21.2901C11.03 20.3501 10.81 19.3701 10.83 18.4101C10.83 16.5901 10.65 14.7501 11.3 12.9701C11.57 12.2401 11.66 11.4401 11.92 10.7101C12.0434 10.312 12.2882 9.96234 12.62 9.7101C12.7643 9.60914 12.9328 9.54809 13.1083 9.53315C13.2838 9.5182 13.4602 9.54988 13.6195 9.62498C13.7788 9.70009 13.9155 9.81594 14.0157 9.96083C14.1159 10.1057 14.176 10.2745 14.19 10.4501C14.36 11.4501 14.47 12.5401 14.61 13.5801L14.69 13.5901Z" fill="#0E2043"/>
</g>
<defs>
<clipPath id="clip0_17_24">
<rect width="37.51" height="42.79" fill="white" transform="translate(3 1)"/>
</clipPath>
</defs>
</svg>
