<svg width="105" height="59" viewBox="0 0 105 59" fill="none" xmlns="http://www.w3.org/2000/svg">
<g clip-path="url(#clip0_8_3)">
<path d="M82.88 56.78L9.59002 58.89C8.73326 58.8876 7.88563 58.7138 7.09708 58.3788C6.30853 58.0438 5.59501 57.5543 4.99858 56.9392C4.40214 56.3242 3.93486 55.5959 3.62425 54.7974C3.31364 53.999 3.166 53.1464 3.19002 52.29V26.07C3.14737 24.4088 3.74749 22.7952 4.86529 21.5656C5.98308 20.3361 7.53231 19.5853 9.19002 19.47L82.47 16.39C83.3339 16.3815 84.1906 16.5477 84.9887 16.8786C85.7867 17.2096 86.5096 17.6985 87.114 18.3159C87.7183 18.9333 88.1916 19.6665 88.5054 20.4714C88.8192 21.2764 88.967 22.1364 88.94 23V50.17C88.9846 51.8426 88.3774 53.467 87.2467 54.7004C86.1159 55.9337 84.5502 56.6794 82.88 56.78V56.78Z" fill="white"/>
<path d="M99.3701 7.63002C98.7701 8.50002 98.0001 9.25002 97.3701 10.08C96.5701 11.08 95.8201 12.15 95.0501 13.19L93.3001 15.48L96.0901 17.72C97.4701 18.83 98.8701 19.91 100.2 21.07C100.666 21.5835 100.966 22.226 101.061 22.913C101.155 23.6001 101.04 24.2997 100.73 24.92C100.24 25.73 98.0401 26.24 97.0301 25.75C96.4801 25.48 95.9601 25.15 95.1001 24.66C95.2701 26.32 95.4401 27.76 95.5801 29.21C95.7801 31.11 95.9501 33.02 96.1601 34.92C96.2201 35.52 96.4101 36.12 96.5101 36.72C96.797 38.8585 96.7124 41.0304 96.2601 43.14C96.0815 44.4674 96.0815 45.8127 96.2601 47.14C96.3603 48.6079 95.9723 50.0677 95.1566 51.2921C94.3409 52.5166 93.1433 53.437 91.7501 53.91C89.2603 54.8198 86.6476 55.349 84.0001 55.48C82.0701 55.61 80.1701 56.14 78.2401 56.28C75.6501 56.46 73.0501 56.44 70.4601 56.52L62.6401 56.78C61.1501 56.78 59.6401 56.78 58.1901 56.86C57.1901 56.86 56.1901 57.15 55.1201 57.21C54.0501 57.27 53.2601 57.14 52.3301 57.21C51.2101 57.26 50.0901 57.44 48.9701 57.52C47.1801 57.64 45.3801 57.75 43.5901 57.81C41.5901 57.87 39.5301 57.88 37.5101 57.87C36.1401 57.87 34.7701 57.74 33.4001 57.7C32.1801 57.7 30.9701 57.7 29.7601 57.62C28.2401 57.56 26.7601 57.43 25.2001 57.39C20.7301 57.27 16.2601 57.16 11.7901 57.09C10.5701 57.09 9.3401 57.16 8.1201 57.26C5.8201 57.44 4.6901 55.95 3.7301 54.26C2.26619 51.6376 1.47591 48.693 1.4301 45.69C1.47413 43.58 1.38729 41.4693 1.1701 39.37C0.630097 35.97 1.5701 32.68 1.5601 29.37C1.5601 27.26 1.5601 25.15 1.5601 23.04C1.56589 21.8945 1.84799 20.7673 2.38244 19.7541C2.9169 18.7409 3.68794 17.8716 4.6301 17.22C5.43718 16.7776 6.35073 16.5665 7.2701 16.61C9.5501 16.45 11.8301 16.38 14.1201 16.32C16.6401 16.25 19.1201 16.26 21.6801 16.2C23.4701 16.2 25.2601 16.04 27.0401 15.98L33.4601 15.77L39.2701 15.58L45.4701 15.33C46.4129 15.1861 47.3666 15.1258 48.3201 15.15C50.9624 15.3471 53.6183 15.2532 56.2401 14.87C57.9501 14.73 59.6801 14.87 61.4001 14.87C62.6601 14.87 63.9101 14.68 65.1701 14.61C68.8101 14.39 72.4501 14.17 76.1001 13.97C78.3601 13.85 80.6301 13.77 82.9001 13.68L83.0801 13.29C82.8101 12.9 82.5501 12.5 82.2501 12.14C81.0001 10.65 79.6901 9.27002 78.5901 7.73002C77.8701 6.73002 79.0501 5.16002 80.3601 5.02002C82.1501 4.83002 83.1701 6.02002 84.2401 7.09002C85.4801 8.38002 87.9101 14.24 89.1701 15.52L99.3701 7.63002ZM86.9201 24.11L86.6601 24.01C86.1501 24.58 85.6601 25.15 85.1401 25.71C84.8505 26.0558 84.4495 26.2899 84.006 26.372C83.5625 26.4541 83.1043 26.3792 82.7101 26.16C81.9101 25.78 81.2501 25.24 81.6401 24.16C82.0901 22.93 83.2501 21.74 83.7401 20.52C83.9401 20.01 84.4201 19.47 83.8201 18.98C82.7001 18.98 82.1001 18.85 80.7401 18.79C80.5201 18.79 80.3001 18.93 80.0701 18.94C78.1601 19.03 76.2501 19.13 74.3401 19.19C70.4301 19.33 66.5201 19.42 62.6101 19.6C60.3201 19.71 58.0201 19.6 55.7401 19.92C54.1254 20.2577 52.4651 20.3186 50.8301 20.1C49.6941 19.903 48.5357 19.8693 47.3901 20C43.9901 20.14 40.5801 20.24 37.1801 20.37C34.8401 20.46 32.5001 20.64 30.1801 20.67C28.2401 20.67 26.3101 20.54 24.3701 20.53C23.1801 20.53 21.9901 20.67 20.8001 20.68C18.0201 20.68 15.2301 20.55 12.4601 20.68C10.8179 20.8661 9.1993 21.2213 7.6301 21.74C7.44782 21.8605 7.29602 22.0216 7.18669 22.2108C7.07736 22.4 7.01348 22.6119 7.0001 22.83C6.9201 24.13 7.0001 25.45 7.0001 26.75C7.0001 28.75 6.9301 30.75 6.8301 32.75C6.7701 33.95 6.4601 35.16 6.5001 36.35C6.5701 38.74 6.8501 41.12 6.9801 43.51C6.99724 45.8416 7.3337 48.1598 7.9801 50.4C8.3301 51.4 8.8201 51.83 9.9201 51.63C10.8575 51.467 11.8094 51.4033 12.7601 51.44C14.1948 51.6148 15.6454 51.6148 17.0801 51.44C18.8998 51.2022 20.7361 51.1152 22.5701 51.18C24.7101 51.12 26.8501 51.08 28.9901 51C31.6601 50.91 34.3301 50.74 36.9901 50.68C39.3201 50.62 41.6501 50.74 43.9901 50.68C45.8001 50.61 47.6101 50.3 49.4201 50.15C52.3601 49.91 55.2901 49.61 58.2301 49.52C62.492 49.509 66.7401 49.0362 70.9001 48.11C72.6401 47.67 74.4401 47.45 76.2101 47.11C79.5701 46.55 82.9301 46.05 86.2801 45.44C86.4997 45.3601 86.696 45.2269 86.8513 45.0524C87.0067 44.8778 87.1162 44.6674 87.1701 44.44C87.3301 43.11 87.2701 41.76 87.3801 40.44C87.5301 38.55 87.7701 36.67 87.9501 34.79C87.9485 34.6068 87.9076 34.4261 87.8301 34.26C87.0824 32.2136 86.7658 30.0346 86.9001 27.86C87.0001 26.67 86.9201 25.38 86.9201 24.11V24.11Z" fill="#0E2043"/>
<path d="M12.5299 29.29C13.5544 29.2721 14.5785 29.3458 15.5899 29.51C16.3283 29.6829 17.01 30.042 17.5702 30.5532C18.1304 31.0644 18.5503 31.7105 18.7899 32.43C19.6699 34.99 19.3599 38.3099 17.0199 40.2599C16.3682 40.8903 15.5703 41.349 14.6976 41.5951C13.825 41.8412 12.9049 41.8669 12.0199 41.6699C11.1899 41.4699 10.5099 40.95 10.6399 40.07C11.0999 36.96 9.82992 34.07 9.39992 31.15C9.16992 29.53 9.16992 29.4899 10.7899 29.3899C11.3599 29.3899 11.9299 29.27 12.4999 29.2L12.5299 29.29ZM11.9999 31.92C12.3599 33.92 12.6599 35.75 12.9999 37.58C13.1799 38.47 14.1399 38.67 14.8999 38.09C16.2899 37.03 16.2999 35.5599 16.2999 34.0299C16.3326 33.6403 16.2167 33.2527 15.9757 32.9449C15.7346 32.637 15.386 32.4317 14.9999 32.37C14.0599 32.14 13.0699 32.07 11.9999 31.92Z" fill="#0E2043"/>
<path d="M75.6901 32.47C75.5301 31.62 75.4401 30.74 75.2001 29.92C74.6201 27.92 74.8801 27.66 76.9101 27.47C78.3133 27.326 79.7298 27.5501 81.0201 28.12C83.9201 29.39 85.5201 34.12 82.7601 36.65C82.079 37.4178 81.184 37.9645 80.1901 38.22C79.2501 38.29 78.3601 38.43 77.4501 38.58C77.2397 38.5596 77.0379 38.4867 76.8632 38.3678C76.6884 38.249 76.5463 38.0881 76.4501 37.9C76.0501 36.12 75.7701 34.31 75.4501 32.51L75.6901 32.47ZM78.4301 35.35C79.6001 35.76 80.2701 34.97 80.8301 34.27C81.1387 33.8917 81.3073 33.4183 81.3073 32.93C81.3073 32.4417 81.1387 31.9684 80.8301 31.59C80.5169 31.1092 80.0862 30.7163 79.5787 30.4486C79.0712 30.1808 78.5037 30.0471 77.9301 30.06L78.4301 35.35Z" fill="#0E2043"/>
<path d="M44.2499 34.7201C44.1699 35.4201 44.1099 36.2501 43.9799 37.0701C43.8499 37.8901 43.6199 38.5401 42.7499 38.4801C41.8799 38.4201 41.7499 37.7901 41.6799 36.9801C41.6099 34.6201 41.4499 32.2701 41.3499 29.9101C41.3025 29.5305 41.365 29.1452 41.5299 28.8001C41.7899 28.3801 42.1999 27.8001 42.5899 27.8001C42.862 27.7996 43.1306 27.8616 43.3751 27.9812C43.6195 28.1008 43.8332 28.2749 43.9999 28.4901C44.9999 30.0601 45.8699 31.7301 46.7899 33.3501C46.8376 33.4433 46.9054 33.5249 46.9884 33.5888C47.0714 33.6528 47.1675 33.6976 47.2699 33.7201C47.0904 32.7638 47.0001 31.793 46.9999 30.8201C47.1185 30.1601 47.4741 29.5662 47.9999 29.1501C48.1449 29.0323 48.3199 28.9576 48.5052 28.9342C48.6905 28.9109 48.8786 28.9399 49.0482 29.0179C49.2179 29.096 49.3623 29.22 49.4651 29.3759C49.5679 29.5318 49.625 29.7134 49.6299 29.9001C49.7799 32.2401 49.8899 34.5901 49.8099 36.9001C49.7261 37.2645 49.5671 37.6075 49.3433 37.9071C49.1195 38.2067 48.8356 38.4563 48.5099 38.6401C48.2099 38.8201 47.2999 38.3701 46.9199 37.9601C45.9099 37.0001 45.1099 35.8101 44.2499 34.7201Z" fill="#0E2043"/>
<path d="M34.25 38.09C33.43 39.5 31.93 39.87 31.06 38.66C30.6692 38.0466 30.3884 37.3698 30.23 36.66C29.86 35.39 29.63 34.08 29.23 32.81C29.03 32.16 28.86 31.56 29.62 31.26C30.38 30.96 30.88 31.38 31.13 32.09C31.6 33.42 32.03 34.77 32.51 36.19C32.8616 35.5263 33.2593 34.8881 33.7 34.28C33.95 33.97 34.48 33.6 34.78 33.67C35.2314 33.8595 35.5904 34.2186 35.78 34.67C36.1025 35.3988 36.3797 36.1469 36.61 36.91L37.06 36.85C37.1535 36.5576 37.2138 36.2557 37.24 35.95C37.24 34.38 37.13 32.82 37.09 31.25C37.0352 30.9456 37.0593 30.6323 37.16 30.34C37.47 29.85 37.88 29.07 38.28 29.05C38.4741 29.0341 38.6693 29.0598 38.8527 29.1254C39.0361 29.1909 39.2034 29.2949 39.3434 29.4302C39.4835 29.5655 39.5931 29.7291 39.6649 29.9101C39.7367 30.0912 39.7691 30.2854 39.76 30.48C39.76 32.24 39.76 34 39.7 35.77C39.7 35.92 39.61 36.06 39.59 36.22C39.29 39.02 39.29 39.1 36.59 39.12C35.7534 38.9232 34.9601 38.574 34.25 38.09V38.09Z" fill="#0E2043"/>
<path d="M67 32.86C67 34.86 66.43 36.68 64.32 37.5C62.21 38.32 59.14 36.06 59.43 33.72C59.59 32.41 59.9 31.13 60.09 29.82C60.146 29.222 60.3963 28.6587 60.8026 28.2163C61.2089 27.7738 61.7489 27.4766 62.34 27.37C62.9543 27.2708 63.584 27.3467 64.1571 27.589C64.7302 27.8313 65.2233 28.2302 65.58 28.74C66.5765 29.8733 67.0867 31.3534 67 32.86V32.86ZM63.1 30.37C61.88 31.06 61.4 33.56 62.32 34.49C62.4459 34.627 62.6015 34.7333 62.7748 34.8009C62.9482 34.8685 63.1346 34.8956 63.32 34.88C63.5092 34.8056 63.6792 34.6897 63.8177 34.5408C63.9561 34.392 64.0594 34.214 64.12 34.02C64.3004 33.3765 64.3007 32.6959 64.1209 32.0523C63.941 31.4086 63.5879 30.8267 63.1 30.37V30.37Z" fill="#0E2043"/>
<path d="M67.4099 36.88C67.5647 36.4059 67.685 35.9214 67.7699 35.43C67.7072 34.7648 67.7072 34.0952 67.7699 33.43C67.9999 32.74 69.1199 33 69.1999 32C69.3231 30.6444 69.581 29.3044 69.9699 28C70.1279 27.3443 70.5326 26.7748 71.0999 26.41C71.8699 26.1 72.4199 26.66 72.6099 27.54C72.8729 28.8899 73.2067 30.2251 73.6099 31.54C74.2199 33.37 74.1699 35.4 75.3299 37.07C75.5345 37.4014 75.606 37.798 75.5299 38.18C75.4453 38.6556 75.1978 39.0869 74.8299 39.4C74.7058 39.5003 74.5594 39.5695 74.4031 39.6018C74.2468 39.634 74.085 39.6283 73.9313 39.5853C73.7776 39.5422 73.6365 39.4629 73.5197 39.3542C73.4029 39.2454 73.3138 39.1102 73.2599 38.96C72.7099 37.96 72.2599 36.83 71.6899 35.77C71.5699 35.52 71.3699 35.12 71.2299 35.12C70.8564 35.1237 70.4985 35.2704 70.2299 35.53C69.8099 36.06 69.5599 36.72 69.1699 37.27C68.9699 37.56 68.4599 37.97 68.3599 37.91C67.9995 37.6098 67.6801 37.2635 67.4099 36.88Z" fill="#0E2043"/>
<path d="M23.9401 40C21.7301 40.18 19.7801 37.9 19.9401 35.54C20.0409 34.2841 20.3803 33.0589 20.9401 31.93C21.1951 31.5007 21.5434 31.1342 21.9592 30.8577C22.3749 30.5812 22.8476 30.4017 23.3421 30.3326C23.8366 30.2635 24.3404 30.3064 24.8161 30.4583C25.2917 30.6102 25.7272 30.8671 26.0901 31.21C26.8362 31.8417 27.3935 32.667 27.7005 33.5951C28.0075 34.5232 28.0524 35.5181 27.8301 36.47C27.643 37.3964 27.1646 38.2387 26.4648 38.8738C25.7649 39.5089 24.8802 39.9035 23.9401 40V40ZM22.7101 35.2H22.6501C22.6501 35.47 22.5901 35.79 22.7101 35.99C22.9901 36.44 23.4101 37.18 23.7101 37.15C24.1801 37.09 24.9101 36.56 24.9601 36.15C24.9935 35.3467 24.8678 34.5446 24.5901 33.79C24.5201 33.57 23.9701 33.28 23.8001 33.36C23.3973 33.5857 23.0544 33.9046 22.8001 34.29C22.5901 34.5 22.7101 34.89 22.7101 35.2Z" fill="#0E2043"/>
<path d="M54.44 36.3301C55.7 36.3301 56.88 36.3301 58.06 36.3301C58.88 36.3301 59.55 36.5501 59.7 37.4301C59.8 38.0201 58.51 39.1701 57.81 38.9701C56.37 38.5701 55.02 38.9701 53.62 39.1001C53.4303 39.1342 53.2355 39.1282 53.0482 39.0824C52.861 39.0367 52.6854 38.9522 52.5327 38.8344C52.3801 38.7166 52.2539 38.5682 52.1621 38.3987C52.0703 38.2291 52.0151 38.0422 52 37.8501C51.59 35.2001 51.26 32.5401 50.77 29.9101C50.62 29.0901 50.77 28.5901 51.46 28.3101C52.15 28.0301 52.6 28.6101 52.82 29.1901C53.1422 30.0412 53.4061 30.9132 53.61 31.8001C53.9 33.3001 54.15 34.8101 54.44 36.3301Z" fill="#0E2043"/>
<path d="M102.66 27.29C102.379 27.6038 102.036 27.8551 101.651 28.0274C101.267 28.1997 100.851 28.2891 100.43 28.29C99.6925 28.2911 98.9806 28.0205 98.43 27.53L91.49 21.3C91.3672 21.1891 91.2226 21.1051 91.0655 21.0532C90.9083 21.0014 90.7421 20.9828 90.5774 20.9988C90.4128 21.0148 90.2532 21.065 90.109 21.1461C89.9648 21.2273 89.8391 21.3376 89.74 21.47L84.65 28.33C84.3706 28.7058 84.0071 29.0109 83.5886 29.2211C83.1701 29.4312 82.7082 29.5404 82.24 29.54C81.6214 29.5427 81.0172 29.354 80.51 29C80.1798 28.7434 79.9042 28.4235 79.6993 28.059C79.4944 27.6945 79.3644 27.2927 79.3169 26.8773C79.2694 26.4618 79.3054 26.0411 79.4226 25.6397C79.5399 25.2384 79.7362 24.8645 80 24.54L85.32 17.39C85.5274 17.1171 85.6241 16.7759 85.5907 16.4347C85.5573 16.0935 85.3963 15.7776 85.14 15.55L76.66 8C76.3662 7.73688 76.1271 7.41842 75.9565 7.06283C75.7859 6.70724 75.6871 6.3215 75.6658 5.92769C75.6444 5.53387 75.7009 5.13971 75.832 4.76775C75.9632 4.3958 76.1664 4.05335 76.43 3.76C77.53 2.53 80.06 2.66 81.29 3.76L88.55 10.6C88.6867 10.7205 88.847 10.8114 89.0206 10.8669C89.1942 10.9225 89.3774 10.9414 89.5588 10.9226C89.7401 10.9039 89.9155 10.8477 90.0741 10.7578C90.2326 10.6678 90.3708 10.546 90.48 10.4L96.57 2.21C97.0561 1.60412 97.7582 1.21042 98.5287 1.11173C99.2992 1.01303 100.078 1.21704 100.701 1.68082C101.324 2.14461 101.743 2.83201 101.87 3.59841C101.996 4.3648 101.821 5.15043 101.38 5.79L94.72 14.79C94.5508 15.0189 94.4734 15.3029 94.503 15.5861C94.5326 15.8692 94.6671 16.131 94.88 16.32L102.43 23.1C103.008 23.6297 103.356 24.3649 103.399 25.1481C103.442 25.9313 103.177 26.7002 102.66 27.29V27.29Z" fill="#FF5D31"/>
</g>
<defs>
<clipPath id="clip0_8_3">
<rect width="102.43" height="57.89" fill="white" transform="translate(1 1)"/>
</clipPath>
</defs>
</svg>
