<svg width="21" height="21" viewBox="0 0 21 21" fill="none" xmlns="http://www.w3.org/2000/svg">
<circle cx="10.5" cy="10.5" r="10.5" fill="#0E2043"/>
<path d="M13.7641 14.187C13.4033 14.2003 13.0436 14.1391 12.7075 14.0071C12.3714 13.8752 12.0662 13.6753 11.8109 13.4199C11.5556 13.1646 11.3557 12.8594 11.2237 12.5233C11.0917 12.1872 11.0305 11.8276 11.0439 11.4667C11.032 11.1068 11.0943 10.7483 11.227 10.4134C11.3596 10.0786 11.5597 9.77467 11.8149 9.52051C12.07 9.26634 12.3748 9.06741 12.7101 8.93607C13.0454 8.80472 13.4042 8.74379 13.7641 8.75706C14.1231 8.74528 14.4808 8.80731 14.8148 8.93931C15.1489 9.07132 15.4524 9.27049 15.7064 9.52449C15.9604 9.77849 16.1595 10.0819 16.2915 10.416C16.4235 10.7501 16.4856 11.1077 16.4738 11.4667V11.6784H12.5257C12.5271 12.0138 12.6538 12.3366 12.881 12.5834C13.1082 12.8301 13.4194 12.983 13.7535 13.0121C14.0437 13.0131 14.3236 12.9047 14.5374 12.7085C14.7512 12.5124 14.8833 12.2428 14.9073 11.9536H16.3574C16.2956 12.5881 15.9915 13.1743 15.5085 13.5902C15.0255 14.0062 14.4007 14.22 13.7641 14.187ZM13.7641 9.88962C13.4869 9.88623 13.2177 9.98278 13.0059 10.1616C12.794 10.3404 12.6536 10.5896 12.6104 10.8634H14.9178C14.8726 10.5905 14.7316 10.3426 14.5202 10.1642C14.3088 9.98573 14.0408 9.8884 13.7641 9.88962ZM5 14.187V7H8.55645C8.9423 6.99982 9.31823 7.12224 9.62999 7.34959C9.94176 7.57693 10.1732 7.89745 10.291 8.26489C10.4088 8.63233 10.4067 9.02769 10.2852 9.39391C10.1637 9.76013 9.92898 10.0783 9.61492 10.3024H9.67843C10.0092 10.4399 10.2921 10.6719 10.4917 10.9693C10.6913 11.2668 10.7987 11.6166 10.8004 11.9748C10.8004 12.5531 10.5707 13.1077 10.1618 13.5166C9.75285 13.9255 9.19825 14.1552 8.61996 14.1552L5 14.187ZM6.4501 12.7051H8.36593C8.4849 12.7047 8.60254 12.68 8.71171 12.6327C8.82088 12.5854 8.9193 12.5164 9.00101 12.4299C9.15441 12.2669 9.23798 12.0504 9.23387 11.8266C9.23387 11.001 8.34476 10.9587 8.1754 10.9587H6.42893L6.4501 12.7051ZM6.4501 9.83669H8.1754C8.27856 9.83683 8.38046 9.81412 8.47379 9.7702C8.56713 9.72628 8.64958 9.66223 8.71522 9.58266C8.78254 9.50115 8.83078 9.40562 8.85642 9.30307C8.88206 9.20051 8.88445 9.09352 8.86341 8.98992C8.82429 8.83578 8.73593 8.69863 8.61175 8.59929C8.48757 8.49995 8.33437 8.44385 8.1754 8.43952H6.42893L6.4501 9.83669ZM12.187 8.43952V7.38105H15.3624V8.43952H12.187Z" fill="white"/>
</svg>
