<svg width="100" height="36" viewBox="0 0 100 36" fill="none" xmlns="http://www.w3.org/2000/svg">
<g clip-path="url(#clip0_17_169)">
<path d="M17.75 2.99993L33.16 29.6299C33.2032 29.7015 33.2295 29.782 33.2369 29.8653C33.2443 29.9486 33.2326 30.0325 33.2027 30.1106C33.1728 30.1887 33.1255 30.2589 33.0644 30.316C33.0033 30.3731 32.9299 30.4155 32.85 30.4399L17.44 35.3699C17.3569 35.3947 17.2693 35.3999 17.1839 35.385C17.0985 35.3701 17.0177 35.3357 16.948 35.2843C16.8782 35.2329 16.8212 35.166 16.7817 35.0889C16.7421 35.0118 16.721 34.9266 16.72 34.8399V3.22993C16.7272 3.11607 16.7696 3.00726 16.8414 2.91858C16.9131 2.8299 17.0107 2.76573 17.1206 2.73497C17.2304 2.70421 17.3472 2.70837 17.4545 2.74689C17.5619 2.7854 17.6547 2.85636 17.72 2.94993" fill="#2083FD"/>
<path d="M34.9999 27.6601L19.9999 1.83008C19.9429 1.73481 19.9155 1.62474 19.9211 1.51385C19.9268 1.40295 19.9653 1.29625 20.0318 1.20729C20.0982 1.11833 20.1896 1.05113 20.2943 1.01424C20.3991 0.977344 20.5124 0.972417 20.6199 1.00008L36.8299 3.76008C36.9631 3.78618 37.0826 3.85893 37.1669 3.96525C37.2512 4.07156 37.2949 4.20448 37.2899 4.34008L35.9999 27.4101C35.9874 27.5215 35.9412 27.6265 35.8673 27.7109C35.7935 27.7953 35.6956 27.8552 35.5868 27.8824C35.478 27.9096 35.3634 27.9029 35.2585 27.8631C35.1537 27.8234 35.0634 27.7525 34.9999 27.6601" fill="#2083FD"/>
<path d="M13.2301 3.07004L0.090069 23.77C0.0157119 23.8848 -0.0131936 24.0232 0.00899433 24.1582C0.0311823 24.2932 0.102871 24.4151 0.210069 24.5L13.3601 34.89C13.441 34.9537 13.5383 34.9934 13.6407 35.0045C13.7431 35.0156 13.8466 34.9978 13.9393 34.9529C14.0321 34.9081 14.1104 34.8382 14.1653 34.751C14.2203 34.6639 14.2496 34.5631 14.2501 34.46V3.37004C14.2467 3.25452 14.2071 3.14299 14.1368 3.05128C14.0664 2.95957 13.969 2.89234 13.8583 2.85913C13.7476 2.82593 13.6293 2.82843 13.5201 2.86629C13.4109 2.90415 13.3164 2.97544 13.2501 3.07004" fill="#2083FD"/>
<path d="M51.0999 18.2701C51.106 18.7192 51.021 19.1648 50.8499 19.5801C50.5756 20.2054 50.1249 20.7371 49.553 21.1101C48.981 21.4831 48.3127 21.6812 47.6299 21.6801C47.174 21.6799 46.7224 21.5916 46.2999 21.4201C45.8794 21.2535 45.4981 21.0016 45.1799 20.6801C44.851 20.3697 44.589 19.9954 44.4099 19.5801C44.0632 18.7412 44.0632 17.799 44.4099 16.9601C44.589 16.5448 44.851 16.1705 45.1799 15.8601C45.4981 15.5386 45.8794 15.2867 46.2999 15.1201C46.7224 14.9486 47.174 14.8603 47.6299 14.8601C48.089 14.8613 48.5437 14.9495 48.9699 15.1201C49.3909 15.2913 49.7747 15.5426 50.0999 15.8601C50.4189 16.1726 50.6707 16.5469 50.8399 16.9601C51.0169 17.3739 51.1055 17.8201 51.0999 18.2701V18.2701ZM47.6299 20.1801C47.8605 20.1852 48.0893 20.1395 48.3001 20.0461C48.511 19.9528 48.6987 19.8142 48.8499 19.6401C49.1758 19.2597 49.3471 18.7708 49.3299 18.2701C49.3479 17.7706 49.1724 17.2834 48.8399 16.9101C48.6921 16.7339 48.5067 16.593 48.2973 16.4978C48.0879 16.4027 47.8599 16.3556 47.6299 16.3601C47.3994 16.355 47.1706 16.4007 46.9597 16.4941C46.7488 16.5874 46.5611 16.726 46.4099 16.9001C46.084 17.2805 45.9127 17.7694 45.9299 18.2701C45.9127 18.7708 46.084 19.2597 46.4099 19.6401C46.5598 19.8158 46.7472 19.9556 46.9584 20.0491C47.1696 20.1426 47.3991 20.1873 47.6299 20.1801" fill="#232323"/>
<path d="M52.3 21.51V15.01H56.7701L56.2901 16.43H54.03V17.56H56.16V18.95H54.03V21.51H52.3Z" fill="#232323"/>
<path d="M60.28 21.5101V15.0001H61.63C62.3496 14.9748 63.0698 15.0217 63.78 15.1401C64.1745 15.2213 64.5486 15.3811 64.88 15.6101C65.2829 15.8939 65.6065 16.276 65.82 16.7201C66.0312 17.2043 66.1402 17.7268 66.1402 18.2551C66.1402 18.7833 66.0312 19.3059 65.82 19.7901C65.6036 20.2296 65.2804 20.6077 64.88 20.8901C64.5559 21.1123 64.193 21.2717 63.81 21.3601C63.1896 21.4695 62.5598 21.5165 61.93 21.5001H60.28V21.5101ZM62 20.0501H62.3C62.8424 20.0989 63.3836 19.9458 63.82 19.6201C63.9932 19.4413 64.1257 19.2272 64.2085 18.9925C64.2913 18.7578 64.3226 18.5079 64.3 18.2601C64.3214 18.0108 64.2897 17.7597 64.2069 17.5236C64.1242 17.2874 63.9923 17.0715 63.82 16.8901C63.3836 16.5644 62.8424 16.4112 62.3 16.4601H62V20.0501Z" fill="#232323"/>
<path d="M69.1699 15.01H67.3799V21.51H69.1699V15.01Z" fill="#232323"/>
<path d="M73.78 19.11V17.75H77.26C77.2657 17.7998 77.2657 17.8501 77.26 17.9V18.1299C77.3209 19.0818 77.0048 20.0193 76.38 20.74C76.0497 21.0581 75.657 21.3042 75.2266 21.4626C74.7962 21.6209 74.3377 21.6881 73.88 21.66C73.4024 21.6677 72.9277 21.5863 72.48 21.42C72.0646 21.2642 71.6889 21.0183 71.38 20.7C71.0682 20.3856 70.8233 20.0115 70.66 19.6C70.4916 19.1734 70.4067 18.7185 70.41 18.26C70.4039 17.8011 70.4889 17.3457 70.66 16.92C70.8292 16.5067 71.081 16.1324 71.4 15.82C71.7233 15.5099 72.1037 15.2654 72.52 15.1C72.9549 14.9378 73.4158 14.8564 73.88 14.86C74.4656 14.8496 75.0452 14.9799 75.57 15.24C76.0744 15.4981 76.502 15.8843 76.81 16.36L75.27 17.1C75.1098 16.8675 74.8975 16.6757 74.65 16.54C74.4152 16.4082 74.1491 16.3426 73.88 16.35C73.6453 16.3398 73.4114 16.3822 73.1951 16.4738C72.9789 16.5655 72.7858 16.7043 72.63 16.88C72.3083 17.2928 72.1451 17.8072 72.17 18.33C72.1418 18.8562 72.3052 19.3749 72.63 19.79C72.7839 19.9686 72.9764 20.11 73.1929 20.2035C73.4094 20.2971 73.6443 20.3403 73.88 20.33C74.279 20.3423 74.6714 20.2267 75 20C75.1446 19.8958 75.2663 19.7631 75.3574 19.61C75.4486 19.4569 75.5073 19.2867 75.53 19.11H73.78Z" fill="#232323"/>
<path d="M80.28 15.01H78.49V21.51H80.28V15.01Z" fill="#232323"/>
<path d="M82.74 21.51V16.54H81.28V15.01H86.49L85.97 16.54H84.51V21.51H82.74Z" fill="#232323"/>
<path d="M85.79 21.51L88 15H90.23L92.47 21.5H90.74L90.41 20.33H87.89L87.56 21.5L85.79 21.51ZM88.27 19.08H90L89.34 16.93L89.25 16.62C89.25 16.47 89.17 16.29 89.11 16.06C89.11 16.22 89.04 16.37 89 16.52C88.96 16.67 88.93 16.8 88.89 16.93L88.27 19.08Z" fill="#232323"/>
<path d="M93.21 21.51V15.01H94.99V19.99H97.45L96.93 21.51H93.21Z" fill="#232323"/>
<path d="M46.26 25.8501H44.47V32.3501H46.26V25.8501Z" fill="#232323"/>
<path d="M47.78 32.3501V25.8501H49.49L52 29.1901C52 29.2601 52.12 29.4001 52.23 29.6001C52.34 29.8001 52.46 30.0501 52.59 30.3401C52.59 30.0701 52.53 29.8301 52.51 29.6201C52.49 29.4101 52.51 29.2201 52.51 29.0601V25.8501H54.21V32.3501H52.51L50 29.0001C49.9114 28.8686 49.8313 28.7317 49.76 28.5901L49.41 27.8601C49.41 28.1401 49.47 28.3801 49.49 28.5901C49.51 28.8001 49.49 28.9901 49.49 29.1501V32.3601L47.78 32.3501Z" fill="#232323"/>
<path d="M55.6201 32.35V25.85H57.0001C57.7163 25.8298 58.4327 25.8767 59.1401 25.99C59.5346 26.0713 59.9087 26.2311 60.2401 26.46C60.6484 26.7378 60.9734 27.1216 61.1801 27.57C61.3913 28.0542 61.5003 28.5768 61.5003 29.105C61.5003 29.6333 61.3913 30.1558 61.1801 30.64C60.9727 31.0854 60.6477 31.4657 60.2401 31.74C59.9177 31.9653 59.5541 32.125 59.1701 32.21C58.5531 32.3196 57.9266 32.3665 57.3001 32.35H55.6201ZM57.3801 30.89H57.6801C58.2223 30.937 58.7629 30.784 59.2001 30.46C59.3733 30.2812 59.5058 30.0671 59.5886 29.8324C59.6714 29.5977 59.7027 29.3479 59.6801 29.1C59.7009 28.8508 59.6688 28.5999 59.5861 28.3639C59.5034 28.1278 59.3719 27.9118 59.2001 27.73C58.7629 27.406 58.2223 27.2531 57.6801 27.3H57.3801V30.89Z" fill="#232323"/>
<path d="M62.6401 25.8501H64.4101V29.0001C64.3893 29.3331 64.3893 29.6671 64.4101 30.0001C64.426 30.1739 64.463 30.3452 64.5201 30.5101C64.5898 30.6764 64.7178 30.8115 64.8801 30.8901C65.0728 30.9843 65.2859 31.029 65.5001 31.0201C65.7111 31.0277 65.9206 30.9831 66.1101 30.8901C66.2724 30.8115 66.4004 30.6764 66.4701 30.5101C66.5356 30.3471 66.5761 30.1752 66.5901 30.0001C66.5901 29.8001 66.5901 29.4601 66.5901 29.0001V25.8501H68.3501V29.2801C68.3691 29.81 68.3255 30.3404 68.2201 30.8601C68.1434 31.1805 67.9927 31.4784 67.7801 31.7301C67.5369 32.0068 67.222 32.211 66.8701 32.3201C65.9456 32.5865 64.9646 32.5865 64.0401 32.3201C63.6882 32.211 63.3733 32.0068 63.1301 31.7301C62.9175 31.4784 62.7669 31.1805 62.6901 30.8601C62.5899 30.3397 62.5463 29.8099 62.5601 29.2801V25.8501H62.6401Z" fill="#232323"/>
<path d="M70.1501 30.25C70.3756 30.5106 70.6384 30.7364 70.9301 30.92C71.1622 31.0613 71.4283 31.1373 71.7001 31.14C71.9102 31.1506 72.1169 31.0829 72.2801 30.95C72.3516 30.8921 72.4094 30.819 72.4492 30.7359C72.489 30.6529 72.5098 30.5621 72.5101 30.47C72.518 30.3768 72.504 30.2831 72.4693 30.1963C72.4346 30.1095 72.38 30.032 72.3101 29.97C72.0401 29.7903 71.7378 29.6647 71.4201 29.6C70.9176 29.5033 70.4509 29.2717 70.0701 28.93C69.7925 28.6211 69.6487 28.2147 69.6701 27.8C69.6613 27.5164 69.7129 27.2343 69.8215 26.9722C69.9301 26.7101 70.0933 26.4742 70.3001 26.28C70.7409 25.877 71.3233 25.6649 71.9201 25.69C72.2589 25.6913 72.5957 25.7418 72.9201 25.84C73.2437 25.9358 73.5506 26.0808 73.8301 26.27L73.2701 27.55C73.084 27.3898 72.875 27.2583 72.6501 27.16C72.4473 27.0608 72.2257 27.0063 72.0001 27C71.8151 26.9927 71.6327 27.0453 71.4801 27.15C71.4186 27.1965 71.3692 27.2571 71.3362 27.3268C71.3031 27.3964 71.2873 27.473 71.2901 27.55C71.2865 27.6237 71.3 27.6972 71.3295 27.7649C71.359 27.8325 71.4037 27.8924 71.4601 27.94C71.6683 28.073 71.8986 28.1678 72.1401 28.22H72.2201C72.7384 28.3147 73.2258 28.5344 73.6401 28.86C73.8 29.0237 73.9198 29.2222 73.9901 29.44C74.0727 29.6778 74.1133 29.9282 74.1101 30.18C74.1243 30.4895 74.0708 30.7984 73.9533 31.0851C73.8359 31.3718 73.6573 31.6294 73.4301 31.84C72.9321 32.2783 72.2825 32.5044 71.6201 32.47C71.199 32.4737 70.7813 32.3956 70.3901 32.24C69.9872 32.0716 69.6205 31.8271 69.3101 31.52L70.1501 30.25Z" fill="#232323"/>
<path d="M76.18 32.3501V27.3801H74.72V25.8501H79.75L79.23 27.3801H77.95V32.3501H76.18Z" fill="#232323"/>
<path d="M80.3601 32.3501V25.8501H82.2101C82.7189 25.8317 83.2282 25.8653 83.7301 25.9501C83.9973 26.0065 84.2496 26.119 84.4701 26.2801C84.7015 26.4745 84.8832 26.7213 85.0001 27.0001C85.1253 27.2871 85.1899 27.5969 85.1901 27.9101C85.2054 28.3496 85.0753 28.7819 84.8201 29.1401C84.5481 29.4738 84.1644 29.6976 83.7401 29.7701L85.5101 32.3901H83.5101L82.0001 29.8001V32.3501H80.3601ZM82.0001 28.9201H82.3301C82.6229 28.9433 82.9158 28.877 83.1701 28.7301C83.2593 28.6546 83.3294 28.5591 83.3746 28.4513C83.4198 28.3435 83.4388 28.2266 83.4301 28.1101C83.4425 27.9845 83.4275 27.8578 83.386 27.7387C83.3446 27.6195 83.2777 27.5108 83.1901 27.4201C82.9454 27.2576 82.6526 27.1836 82.3601 27.2101H82.0001V28.9201Z" fill="#232323"/>
<path d="M88.1201 25.8501H86.3301V32.3501H88.1201V25.8501Z" fill="#232323"/>
<path d="M89.6399 32.3501V25.8501H93.6199V27.2701H91.3599V28.4001H93.4899V29.8001H91.3599V30.8901H93.6199V32.3501H89.6399Z" fill="#232323"/>
<path d="M95.1701 30.25C95.3956 30.5107 95.6584 30.7364 95.9501 30.92C96.1823 31.0613 96.4483 31.1373 96.7201 31.14C96.924 31.1641 97.1297 31.1144 97.3001 31C97.3717 30.9421 97.4295 30.869 97.4692 30.786C97.509 30.703 97.5298 30.6121 97.5301 30.52C97.538 30.4269 97.5241 30.3332 97.4893 30.2463C97.4546 30.1595 97.4001 30.082 97.3301 30.02C97.0601 29.8404 96.7579 29.7147 96.4401 29.65C95.9377 29.5533 95.471 29.3217 95.0901 28.98C94.9508 28.8283 94.8436 28.65 94.7748 28.4558C94.7061 28.2617 94.6773 28.0556 94.6901 27.85C94.6813 27.5665 94.7329 27.2843 94.8416 27.0223C94.9502 26.7602 95.1133 26.5242 95.3201 26.33C95.7609 25.927 96.3434 25.7149 96.9401 25.74C97.2791 25.7396 97.6162 25.7902 97.9401 25.89C98.2676 25.9838 98.5781 26.1289 98.8601 26.32L98.3001 27.6C98.1141 27.4398 97.9051 27.3084 97.6801 27.21C97.4812 27.124 97.2668 27.0797 97.0501 27.08C96.8652 27.0728 96.6828 27.1254 96.5301 27.23C96.4686 27.2766 96.4193 27.3372 96.3862 27.4068C96.3532 27.4764 96.3373 27.553 96.3401 27.63C96.3366 27.7037 96.3501 27.7773 96.3795 27.8449C96.409 27.9125 96.4537 27.9725 96.5101 28.02C96.7183 28.153 96.9486 28.2478 97.1901 28.3H97.2701C97.7877 28.397 98.2746 28.6165 98.6901 28.94C98.85 29.1037 98.9699 29.3022 99.0401 29.52C99.1227 29.7579 99.1633 30.0083 99.1601 30.26C99.1743 30.5695 99.1208 30.8784 99.0034 31.1651C98.8859 31.4518 98.7074 31.7095 98.4801 31.92C97.9822 32.3583 97.3326 32.5844 96.6701 32.55C96.2491 32.5538 95.8313 32.4757 95.4401 32.32C95.0372 32.1516 94.6705 31.9072 94.3601 31.6L95.1701 30.25Z" fill="#232323"/>
<path d="M46.8901 4L50.0001 11H49.1001L48.2201 8.92H45.5701L44.6901 11H43.8201L46.8901 4ZM46.8901 5.79L45.8101 8.24H48.0001L46.8901 5.79Z" fill="#232323"/>
<path d="M56.1 5.84997C55.8189 5.5292 55.4796 5.26454 55.1 5.06997C54.7153 4.90222 54.2997 4.81705 53.88 4.81997C53.5353 4.82521 53.1951 4.90004 52.88 5.03997C52.5469 5.18122 52.2452 5.38754 51.9928 5.64682C51.7404 5.9061 51.5423 6.21315 51.41 6.54997C51.1652 7.18991 51.1371 7.89252 51.33 8.54997C51.402 8.81362 51.5168 9.06363 51.67 9.28997C51.9321 9.65817 52.2739 9.96241 52.67 10.18C53.0639 10.389 53.5041 10.4956 53.95 10.49C54.3654 10.4931 54.776 10.4008 55.15 10.22C55.5322 10.0209 55.8719 9.74919 56.15 9.41997V10.45C55.7998 10.6958 55.4112 10.8816 55 11C54.6131 11.1286 54.2077 11.1928 53.8 11.19C53.4604 11.1887 53.1231 11.1347 52.8 11.03C52.4464 10.9252 52.1097 10.7703 51.8 10.57C51.331 10.2417 50.9471 9.80633 50.68 9.29997C50.4175 8.78996 50.2836 8.22353 50.29 7.64997C50.2856 7.16441 50.3739 6.68247 50.55 6.22997C50.7306 5.79051 51.0034 5.39494 51.35 5.06997C51.676 4.7414 52.0679 4.48577 52.5 4.31997C52.936 4.14801 53.4014 4.06308 53.87 4.06997C54.2538 4.07052 54.6351 4.13126 55 4.24997C55.3885 4.37843 55.7559 4.56377 56.09 4.79997L56.1 5.84997Z" fill="#232323"/>
<path d="M59.7099 4L62.7899 11H61.9199L60.9999 8.93H58.3899L57.5099 11H56.6399L59.7099 4ZM59.7099 5.79L58.6299 8.24H60.7899L59.7099 5.79Z" fill="#232323"/>
<path d="M63.5901 11V4.23004H64.8901C65.5602 4.20826 66.2307 4.25855 66.8901 4.38004C67.2524 4.47602 67.5922 4.64253 67.8901 4.87004C68.2996 5.15776 68.627 5.54723 68.8401 6.00004C69.0501 6.51027 69.1522 7.05842 69.1401 7.61004C69.1508 8.15829 69.0487 8.7029 68.8401 9.21004C68.6645 9.66531 68.3753 10.0681 68.0001 10.38C67.7018 10.6047 67.3619 10.7678 67.0001 10.86C66.4215 10.9799 65.8306 11.0303 65.2401 11.01H63.5901V11ZM64.4001 10.24H64.9101C65.4922 10.2569 66.0747 10.2201 66.6501 10.13C66.941 10.0677 67.2143 9.94133 67.4501 9.76004C67.7331 9.51844 67.95 9.20869 68.0801 8.86004C68.2351 8.46195 68.3099 8.03713 68.3001 7.61004C68.3107 7.17963 68.2359 6.75139 68.0801 6.35004C67.9459 6.0064 67.7296 5.70084 67.4501 5.46004C67.2093 5.27246 66.9288 5.14248 66.6301 5.08004C66.0605 5.00024 65.4847 4.97346 64.9101 5.00004H64.4001V10.24Z" fill="#232323"/>
<path d="M70.55 11.01V4.22998H74.13V4.96998H71.36V6.90998H74.13V7.65998H71.36V10.26H74.13V11.01H70.55Z" fill="#232323"/>
<path d="M78.74 11.27L76.64 6.39996L75.79 11.01H75L76.37 3.95996L78.74 9.56996L81.11 3.95996L82.49 11.01H81.7L80.84 6.39996L78.74 11.27Z" fill="#232323"/>
<path d="M85.1101 11.01V7.90998L82.8201 4.22998H83.7501L85.5201 7.16998L87.2901 4.22998H88.2101L85.9201 7.90998V11.01H85.1101Z" fill="#232323"/>
</g>
<defs>
<clipPath id="clip0_17_169">
<rect width="99.17" height="34.4" fill="white" transform="translate(0 1)"/>
</clipPath>
</defs>
</svg>
