<svg width="43" height="45" viewBox="0 0 43 45" fill="none" xmlns="http://www.w3.org/2000/svg">
<g clip-path="url(#clip0_17_24)">
<path d="M38 29.3099C37.9 30.8399 37.89 32.3099 37.68 33.7699C37.5 34.9999 36.77 35.7099 35 35.9099C34.1201 36.0048 33.2344 36.0349 32.35 35.9999C31.9605 36.0112 31.5751 35.9179 31.234 35.7298C30.8928 35.5416 30.6083 35.2654 30.41 34.9299C30.1287 34.5347 29.7449 34.2235 29.3 34.0299C28.935 33.8671 28.6237 33.604 28.4024 33.2712C28.1811 32.9384 28.0589 32.5495 28.05 32.1499C28 31.2699 28 30.3999 28 29.4999C26.89 29.4999 25.78 29.4999 24.67 29.4999C23.9867 29.4527 23.3212 29.2606 22.7178 28.9365C22.1143 28.6123 21.5867 28.1636 21.17 27.6199C20.74 27.0999 20.28 26.6199 19.82 26.0699C19.6932 27.2771 19.4962 28.4758 19.23 29.6599C18.8519 31.6657 17.7259 33.4529 16.08 34.6599C15.1953 35.1257 14.2718 35.5138 13.32 35.8199C11.97 36.3799 10.71 35.8199 9.54002 35.3399C8.54207 34.8476 7.62217 34.2107 6.81002 33.4499C6.2 32.9415 5.64376 32.3719 5.15002 31.7499C4.37762 30.8814 3.79821 29.8589 3.45002 28.7499C3.03768 27.245 2.70389 25.7196 2.45002 24.1799C1.93495 21.1013 1.93495 17.9586 2.45002 14.8799C2.59002 14.0799 2.53002 13.2499 2.62002 12.4399C2.67851 11.9817 2.77893 11.5298 2.92002 11.0899C2.92002 10.9399 3.08002 10.8099 3.10002 10.6599C3.46804 8.37769 4.47331 6.24583 6.00002 4.50995C6.5187 3.76806 7.24222 3.19331 8.08221 2.85589C8.92219 2.51848 9.84226 2.43302 10.73 2.60995C11.5683 2.72365 12.3996 2.8839 13.22 3.08995C15.1572 3.69023 16.8031 4.98706 17.84 6.72995C18.4237 7.67106 18.8936 8.6781 19.24 9.72995C19.93 11.7299 19.75 13.8299 19.92 15.8899C19.9342 16.4285 20.0012 16.9644 20.12 17.4899L20.54 15.4899C20.86 13.9399 21.21 12.3999 21.54 10.8499C21.87 9.29995 22.08 7.63995 22.45 6.05995C22.68 5.05995 22.87 3.88995 23.81 3.27995C24.5982 2.80652 25.4601 2.4685 26.36 2.27995C27.4027 1.95974 28.5174 1.95974 29.56 2.27995C29.8155 2.38858 30.0628 2.51558 30.3 2.65995C30.67 2.83995 31.04 2.99995 31.4 3.18995C31.7293 3.31293 32.0291 3.50372 32.28 3.74995C32.7984 4.37512 33.1597 5.11526 33.3336 5.90854C33.5076 6.70183 33.4892 7.52522 33.28 8.30995C32.7 10.1299 32.4 12.0599 32 13.9999C32.77 14.2599 33.46 14.4699 34.13 14.7299C34.5593 14.8863 34.9492 15.1347 35.2722 15.4578C35.5953 15.7808 35.8437 16.1707 36 16.5999C36 16.6999 36.07 16.8399 36.14 16.8899C37.02 17.4699 36.99 18.3799 37.01 19.2599C36.9836 19.407 37.0159 19.5585 37.1001 19.682C37.1842 19.8054 37.3135 19.8909 37.46 19.9199C37.8796 20.0609 38.2648 20.2887 38.5905 20.5885C38.9161 20.8883 39.1749 21.2534 39.35 21.6599C39.4877 21.9597 39.689 22.2259 39.94 22.4399C40.1821 22.6336 40.3708 22.8859 40.488 23.1729C40.6053 23.4599 40.6473 23.7722 40.61 24.0799C40.5951 24.6115 40.6252 25.1434 40.7 25.6699C40.7568 26.4987 40.5162 27.3206 40.0212 27.9878C39.5263 28.6551 38.8096 29.1238 38 29.3099ZM10.5 4.17995C9.89049 4.12005 9.27562 4.21199 8.71027 4.44755C8.14492 4.68311 7.64668 5.05497 7.26002 5.52995C6.61237 6.26734 6.08277 7.10054 5.69002 7.99995C4.78054 9.8365 4.24355 11.8349 4.11002 13.8799C4.05002 15.4599 3.68002 17.0399 3.68002 18.6199C3.63152 21.1752 3.86967 23.7278 4.39002 26.2299C4.88945 28.3942 6.06233 30.3443 7.74002 31.7999C8.49002 32.4799 9.47002 32.4099 10.36 32.5899C11.1955 32.7948 12.0723 32.7537 12.8849 32.4716C13.6975 32.1895 14.4112 31.6784 14.94 30.9999C16.16 29.5599 16.24 27.7599 16.43 25.9999C16.6 24.5599 16.62 23.1099 16.71 21.6599C16.77 20.5699 16.91 19.4699 16.91 18.3799C16.91 16.6399 16.82 14.8999 16.75 13.1599C16.75 12.1599 16.67 11.0999 16.57 10.0799C16.3743 9.25704 16.0788 8.46114 15.69 7.70995C15.1614 6.6694 14.4265 5.74735 13.53 4.99995C12.77 4.12995 11.56 4.23995 10.5 4.17995ZM37.19 23.8999C37.19 22.2099 37.19 22.2099 36.08 21.8399C35.9325 21.8046 35.7817 21.7845 35.63 21.7799C35.2747 21.696 34.9521 21.5087 34.703 21.2418C34.4539 20.9749 34.2893 20.6402 34.23 20.2799C34.13 19.3899 34.04 18.4899 33.86 17.6099C33.7585 17.2627 33.53 16.9664 33.22 16.7799C32.7737 16.5327 32.2801 16.3827 31.7717 16.3396C31.2633 16.2965 30.7516 16.3614 30.27 16.5299C30.1653 16.5717 30.0714 16.6366 29.9952 16.7197C29.919 16.8028 29.8626 16.902 29.83 17.0099C29.6511 17.9022 29.5607 18.8099 29.56 19.7199C29.64 21.3099 28.5 21.6099 27.29 21.4599C26.43 21.3599 26.19 20.7499 26.45 19.8999C26.9234 18.3533 27.3734 16.7966 27.8 15.2299C28.03 14.4099 28.2 13.5799 28.41 12.7599C28.98 10.5899 29.5 8.40995 30.15 6.25995C30.2621 5.93764 30.2899 5.592 30.2307 5.25592C30.1715 4.91984 30.0273 4.60449 29.8118 4.33989C29.5963 4.07528 29.3167 3.87021 28.9996 3.7442C28.6825 3.61818 28.3384 3.57541 28 3.61995C27.6 3.61995 27.2 3.61995 26.81 3.61995C26.1746 3.60541 25.5524 3.80299 25.0417 4.18146C24.531 4.55993 24.161 5.09774 23.99 5.70995C23.75 6.45995 23.62 7.24995 23.43 8.01995C23 9.77995 22.53 11.5399 22.13 13.3099C21.67 15.3599 21.35 17.4399 20.8 19.4499C20.4702 20.8924 20.3924 22.381 20.57 23.8499C20.71 25.5199 21.52 26.1799 23.16 26.4199C23.7383 26.4144 24.3145 26.3507 24.88 26.2299C26.0623 26.217 27.2444 26.2737 28.42 26.3999C28.6959 26.4204 28.9533 26.5459 29.1394 26.7505C29.3255 26.9552 29.4259 27.2234 29.42 27.4999C29.55 28.9399 29.68 30.3799 29.74 31.8199C29.74 32.2599 29.89 32.5299 30.29 32.5799C31.29 32.7199 32.29 32.8499 33.23 32.9199C33.3741 32.9433 33.5215 32.9349 33.662 32.8952C33.8024 32.8555 33.9325 32.7856 34.043 32.6903C34.1536 32.595 34.2419 32.4766 34.3019 32.3435C34.3618 32.2105 34.3919 32.0659 34.39 31.9199C34.5 30.5399 34.6 29.1699 34.68 27.7899C34.7513 27.351 34.9327 26.9374 35.2073 26.5876C35.4818 26.2379 35.8406 25.9634 36.25 25.7899C37.1 25.5499 37.25 25.3699 37.25 24.4799L37.19 23.8999Z" fill="#0E2043"/>
<path d="M12.6799 14.0001C12.6799 15.7501 12.7799 17.5101 12.6799 19.2501C12.5399 21.2501 12.2099 23.1901 11.9299 25.1601C11.8499 25.7301 11.5599 26.3901 10.9299 26.2401C10.6547 26.1585 10.3995 26.0203 10.1808 25.8343C9.96209 25.6483 9.78468 25.4186 9.65993 25.1601C9.15058 24.0374 8.90759 22.8122 8.94993 21.5801C9.06993 19.7501 8.85993 17.8901 8.88993 16.0501C8.94179 15.1754 9.07911 14.308 9.29993 13.4601C9.46323 12.6702 9.66683 11.8892 9.90993 11.1201C10.0999 10.5601 10.3399 9.99006 11.0999 9.98006C11.2314 9.9648 11.3646 9.97578 11.4918 10.0124C11.6189 10.049 11.7376 10.1104 11.8408 10.1932C11.9441 10.276 12.0299 10.3784 12.0932 10.4946C12.1566 10.6108 12.1963 10.7384 12.2099 10.8701C12.3599 11.8701 12.4799 12.9501 12.6199 13.9901L12.6799 14.0001Z" fill="#0E2043"/>
<path d="M3.90002 42.4899C3.65376 42.3841 3.43987 42.2151 3.28002 41.9999C3.13616 41.7874 3.05951 41.5366 3.06002 41.2799C3.04966 41.1768 3.04966 41.073 3.06002 40.9699C3.07792 40.8776 3.10471 40.7871 3.14002 40.6999H4.14002C4.09097 40.8344 4.06723 40.9768 4.07002 41.1199C4.06069 41.3286 4.13234 41.5328 4.27002 41.6899C4.41737 41.8239 4.61092 41.8956 4.81002 41.8899C4.94069 41.8883 5.06979 41.8612 5.19002 41.8099C5.2999 41.7501 5.39018 41.6598 5.45002 41.5499C5.52028 41.4323 5.55501 41.2968 5.55002 41.1599C5.55455 41.0319 5.52706 40.9047 5.47002 40.7899C5.419 40.6809 5.33954 40.5876 5.24002 40.5199C5.1315 40.4541 5.00693 40.4195 4.88002 40.4199H4.64002V39.6999H4.88002C4.95988 39.7059 5.04006 39.6937 5.11453 39.6643C5.18901 39.6348 5.25584 39.5889 5.31002 39.5299C5.41212 39.4144 5.46584 39.264 5.46002 39.1099C5.45967 39.0047 5.43211 38.9014 5.38002 38.8099C5.33165 38.7186 5.25897 38.6425 5.17002 38.5899C5.0696 38.5331 4.95532 38.5054 4.84002 38.5099C4.72141 38.504 4.60354 38.5317 4.50002 38.5899C4.41106 38.6425 4.33838 38.7186 4.29002 38.8099C4.23787 38.9086 4.21042 39.0184 4.21002 39.1299C4.19708 39.2128 4.19708 39.2971 4.21002 39.3799H3.21002C3.18357 39.2546 3.18357 39.1252 3.21002 38.9999C3.20929 38.7695 3.28294 38.5451 3.42002 38.3599C3.57062 38.1593 3.77037 38.0009 4.00002 37.8999C4.26352 37.7804 4.55075 37.7222 4.84002 37.7299C5.12156 37.7249 5.40099 37.7795 5.66002 37.8899C5.8913 37.9929 6.09136 38.155 6.24002 38.3599C6.38482 38.5493 6.46225 38.7816 6.46002 39.0199C6.46453 39.2495 6.40198 39.4754 6.28002 39.6699C6.17157 39.8389 6.01476 39.9713 5.83002 40.0499V40.0499C5.97325 40.1001 6.1032 40.1821 6.21002 40.2899C6.33091 40.4056 6.42628 40.5452 6.49002 40.6999C6.56132 40.8778 6.59536 41.0684 6.59002 41.2599C6.59666 41.519 6.51562 41.7727 6.36002 41.9799C6.19231 42.1955 5.9719 42.3643 5.72002 42.4699C5.4361 42.5928 5.12936 42.6542 4.82002 42.6499C4.50547 42.6624 4.19187 42.6079 3.90002 42.4899V42.4899Z" fill="#161449"/>
<path d="M11.1001 41.58C11.1892 41.1997 11.2361 40.8107 11.2401 40.42V39.42C11.2577 39.1772 11.2056 38.9344 11.0901 38.72C11.0496 38.6476 10.9898 38.5878 10.9175 38.5472C10.8451 38.5067 10.763 38.4869 10.6801 38.49C10.6115 38.4892 10.5437 38.5051 10.4827 38.5365C10.4217 38.5679 10.3693 38.6137 10.3301 38.67C10.2298 38.8317 10.181 39.02 10.1901 39.21V41.21H9.26007V39.21C9.27212 39.0211 9.2268 38.8328 9.13007 38.67C9.08835 38.6115 9.03263 38.5644 8.96799 38.5329C8.90336 38.5015 8.83187 38.4867 8.76007 38.49C8.67884 38.4887 8.59877 38.5094 8.52834 38.5499C8.45792 38.5904 8.39977 38.6492 8.36007 38.72C8.24785 38.932 8.19597 39.1706 8.21007 39.41V40.41C8.21456 40.8006 8.2615 41.1896 8.35007 41.57C8.4162 41.919 8.53417 42.256 8.70007 42.57H7.70007C7.59029 42.3901 7.49979 42.199 7.43007 42C7.35491 41.7512 7.29809 41.4972 7.26007 41.24C7.21194 40.9627 7.18851 40.6816 7.19007 40.4V39.4C7.18417 39.0927 7.24918 38.7882 7.38007 38.51C7.49138 38.2637 7.67208 38.0552 7.90007 37.91C8.11866 37.7735 8.37243 37.704 8.63007 37.71C8.85902 37.7053 9.08565 37.7568 9.29007 37.86C9.47707 37.9673 9.62439 38.1322 9.71007 38.33V38.33C9.79574 38.1322 9.94306 37.9673 10.1301 37.86C10.3312 37.7576 10.5544 37.7061 10.7801 37.71C11.0442 37.7024 11.3048 37.7719 11.5301 37.91C11.7551 38.0542 11.9353 38.2586 12.0501 38.5C12.176 38.783 12.2375 39.0904 12.2301 39.4V40.4C12.23 40.6811 12.2099 40.9618 12.1701 41.24C12.1274 41.4963 12.0706 41.75 12.0001 42C11.9361 42.1948 11.8523 42.3824 11.7501 42.56H10.7501C10.9169 42.2535 11.035 41.9229 11.1001 41.58Z" fill="#161449"/>
<path d="M16.5601 41.8001C16.6385 41.5272 16.6756 41.244 16.6701 40.9601C16.6888 40.7375 16.6401 40.5145 16.5301 40.3201C16.4927 40.2553 16.4387 40.2017 16.3736 40.1648C16.3086 40.1279 16.2348 40.109 16.1601 40.1101C16.0979 40.1084 16.0365 40.1232 15.982 40.1531C15.9275 40.1829 15.882 40.2268 15.8501 40.2801C15.7624 40.4206 15.7205 40.5848 15.7301 40.7501V41.7501H14.8301V40.7501C14.8397 40.5848 14.7977 40.4206 14.7101 40.2801C14.6789 40.226 14.6336 40.1816 14.5789 40.1516C14.5242 40.1216 14.4624 40.1073 14.4001 40.1101C14.3273 40.1079 14.2553 40.1241 14.1906 40.1574C14.1258 40.1906 14.0706 40.2397 14.0301 40.3001C13.9146 40.4962 13.8622 40.7232 13.8801 40.9501C13.8788 41.518 14.0345 42.0752 14.3301 42.5601H13.3301C13.1718 42.3064 13.0538 42.0298 12.9801 41.7401C12.8915 41.3532 12.8512 40.9569 12.8601 40.5601C12.809 39.9475 13.0033 39.3396 13.4001 38.8701C13.7891 38.4856 14.2895 38.2337 14.8301 38.1501L15.3901 38.0401C15.4708 38.0334 15.5492 38.0095 15.6201 37.9701C15.6773 37.9433 15.7233 37.8973 15.7501 37.8401H16.7501C16.7394 38.0749 16.6392 38.2968 16.4701 38.4601C16.2475 38.6417 15.976 38.753 15.6901 38.7801L15.1201 38.8601C14.7727 38.9054 14.435 39.0067 14.1201 39.1601C13.9952 39.2188 13.8852 39.3051 13.7986 39.4125C13.712 39.5199 13.6509 39.6456 13.6201 39.7801V39.7801C13.7178 39.6432 13.8485 39.5331 14.0001 39.4601C14.1372 39.3937 14.2877 39.3595 14.4401 39.3601C14.6099 39.3615 14.7761 39.41 14.9201 39.5001C15.0698 39.6062 15.1874 39.7515 15.2601 39.9201C15.3572 39.7429 15.5029 39.5972 15.6801 39.5001C15.8663 39.4071 16.0719 39.3591 16.2801 39.3601C16.5219 39.3581 16.76 39.4202 16.9701 39.5401C17.1825 39.6672 17.3555 39.8506 17.4701 40.0701C17.6041 40.3221 17.6696 40.6048 17.6601 40.8901C17.6675 41.2051 17.6236 41.5192 17.5301 41.8201C17.4504 42.0826 17.3325 42.332 17.1801 42.5601H16.1801C16.3389 42.3241 16.4666 42.0687 16.5601 41.8001V41.8001Z" fill="#161449"/>
<path d="M19.0001 42.5001C18.7573 42.3928 18.5494 42.2196 18.4001 42.0001C18.2502 41.7755 18.1733 41.51 18.1801 41.2401C18.183 41.1128 18.2101 40.9872 18.2601 40.8701H19.2601C19.2522 40.9666 19.2522 41.0636 19.2601 41.1601C19.2534 41.2915 19.281 41.4225 19.3401 41.5401C19.3963 41.6493 19.4832 41.7396 19.5901 41.8001C19.7031 41.8627 19.8309 41.8938 19.9601 41.8901C20.0609 41.8965 20.1618 41.88 20.2553 41.8419C20.3488 41.8038 20.4325 41.7451 20.5001 41.6701C20.6285 41.5012 20.6923 41.2919 20.6801 41.0801V40.0801C20.6867 39.939 20.6593 39.7984 20.6001 39.6701C20.5477 39.5589 20.4644 39.4652 20.3601 39.4001C20.2537 39.3391 20.1327 39.308 20.0101 39.3101C19.9015 39.3092 19.7946 39.3367 19.7001 39.3901C19.6115 39.4386 19.5387 39.5115 19.4901 39.6001C19.4423 39.6855 19.4181 39.7822 19.4201 39.8801C19.412 39.9532 19.412 40.027 19.4201 40.1001H18.4201C18.3839 39.9905 18.367 39.8755 18.3701 39.7601C18.3679 39.5453 18.4158 39.333 18.5101 39.1401C18.607 38.9602 18.7526 38.8112 18.9301 38.7101C19.1319 38.5988 19.3598 38.5435 19.5901 38.5501C19.8009 38.5445 20.0099 38.589 20.2001 38.6801C20.3713 38.7483 20.5178 38.8668 20.6201 39.0201V39.0201V37.8401H21.6201V41.1501C21.631 41.4425 21.5544 41.7315 21.4001 41.9801C21.2474 42.2091 21.0322 42.3896 20.7801 42.5001C20.4908 42.6158 20.1816 42.6735 19.8701 42.6701C19.5718 42.6706 19.2763 42.6129 19.0001 42.5001V42.5001Z" fill="#161449"/>
<path d="M23.14 42.4599C22.8808 42.3235 22.6632 42.1196 22.51 41.8699C22.3572 41.6166 22.2776 41.3258 22.28 41.0299C22.2751 40.7376 22.3438 40.4487 22.48 40.1899C22.6073 39.958 22.7981 39.7672 23.03 39.6399C23.2644 39.5061 23.5302 39.4371 23.8 39.4399C24.0067 39.4426 24.2108 39.4868 24.4 39.5699C24.5748 39.6465 24.724 39.7714 24.83 39.9299V39.0899C24.8399 38.9335 24.8052 38.7775 24.73 38.6399C24.6916 38.5971 24.6446 38.5629 24.592 38.5395C24.5395 38.516 24.4826 38.5039 24.425 38.5039C24.3675 38.5039 24.3106 38.516 24.2581 38.5395C24.2055 38.5629 24.1585 38.5971 24.12 38.6399C24.0472 38.7267 24.0082 38.8367 24.01 38.9499V39.0999H23.12V38.9699C23.12 38.7099 22.97 38.5799 22.68 38.5799H22.34V37.7899H22.78C22.9574 37.7871 23.1326 37.8283 23.29 37.9099C23.4282 37.9942 23.5312 38.1256 23.58 38.2799V38.2799C23.6637 38.1082 23.8005 37.968 23.97 37.8799C24.1619 37.7951 24.3703 37.7541 24.58 37.7599C24.8082 37.7517 25.0349 37.7998 25.24 37.8999C25.4256 37.9971 25.5786 38.1466 25.68 38.3299C25.7949 38.5376 25.8503 38.7729 25.84 39.0099V40.9999C25.8455 41.2949 25.7694 41.5856 25.62 41.8399C25.4669 42.0896 25.2492 42.2935 24.99 42.4299C24.6985 42.5755 24.3758 42.6476 24.05 42.6399C23.737 42.6492 23.426 42.5877 23.14 42.4599V42.4599ZM24.49 41.7899C24.6098 41.7183 24.7069 41.6143 24.77 41.4899C24.8394 41.3574 24.8738 41.2094 24.87 41.0599C24.8737 40.9072 24.8394 40.756 24.77 40.6199C24.7136 40.4942 24.6192 40.3893 24.5 40.3199C24.3748 40.2505 24.2332 40.216 24.09 40.2199C23.9499 40.2147 23.8112 40.2494 23.69 40.3199C23.5733 40.3922 23.4796 40.4962 23.42 40.6199C23.3507 40.756 23.3163 40.9072 23.32 41.0599C23.3163 41.2094 23.3507 41.3574 23.42 41.4899C23.4796 41.6136 23.5733 41.7177 23.69 41.7899C23.8131 41.8556 23.9505 41.8899 24.09 41.8899C24.2296 41.8899 24.3669 41.8556 24.49 41.7899V41.7899Z" fill="#161449"/>
<path d="M30.4999 41.5801C30.5891 41.1998 30.636 40.8107 30.6399 40.4201V39.4201C30.6575 39.1773 30.6055 38.9344 30.4899 38.7201C30.4503 38.6469 30.3908 38.5865 30.3182 38.5458C30.2457 38.5051 30.163 38.4858 30.0799 38.4901C30.0113 38.4892 29.9436 38.5052 29.8825 38.5366C29.8215 38.568 29.7691 38.6138 29.7299 38.6701C29.6332 38.8329 29.5879 39.0211 29.5999 39.2101V41.2101H28.6599V39.2101C28.672 39.0211 28.6267 38.8329 28.5299 38.6701C28.4892 38.613 28.435 38.5668 28.3723 38.5354C28.3095 38.504 28.2401 38.4885 28.1699 38.4901C28.0885 38.4877 28.008 38.5079 27.9374 38.5485C27.8667 38.5891 27.8088 38.6485 27.7699 38.7201C27.6577 38.9321 27.6058 39.1707 27.6199 39.4101V40.4101C27.6208 40.8004 27.6644 41.1893 27.7499 41.5701C27.8161 41.919 27.934 42.2561 28.0999 42.5701H27.0999C26.9971 42.3941 26.9165 42.206 26.8599 42.0101C26.7766 41.7629 26.7164 41.5085 26.6799 41.2501C26.6318 40.9727 26.6084 40.6916 26.6099 40.4101V39.4101C26.6078 39.1032 26.6726 38.7994 26.7999 38.5201C26.9145 38.2759 27.0945 38.0682 27.3199 37.9201C27.539 37.7847 27.7924 37.7152 28.0499 37.7201C28.2789 37.7154 28.5055 37.7669 28.7099 37.8701C28.8969 37.9774 29.0443 38.1423 29.1299 38.3401C29.2156 38.1423 29.3629 37.9774 29.5499 37.8701C29.7515 37.7688 29.9744 37.7174 30.1999 37.7201C30.4659 37.712 30.7284 37.7826 30.9543 37.9232C31.1803 38.0637 31.3597 38.2679 31.4699 38.5101C31.5959 38.7931 31.6574 39.1005 31.6499 39.4101V40.4101C31.6499 40.6912 31.6298 40.9719 31.5899 41.2501C31.5439 41.5066 31.4839 41.7603 31.4099 42.0101C31.3503 42.2065 31.2663 42.3946 31.1599 42.5701H30.1599C30.3243 42.2599 30.439 41.9259 30.4999 41.5801V41.5801Z" fill="#161449"/>
<path d="M33.0901 42.5001C32.8389 42.398 32.6184 42.2327 32.4501 42.0201C32.2916 41.8138 32.2071 41.5602 32.2101 41.3001C32.2076 41.1347 32.2417 40.9707 32.3101 40.8201H33.3101C33.3022 40.8832 33.3022 40.947 33.3101 41.0101C33.3101 41.0701 33.3101 41.1401 33.3101 41.2201C33.3065 41.3412 33.3415 41.4603 33.4101 41.5601C33.4737 41.6619 33.5635 41.7448 33.6701 41.8001C33.7836 41.8614 33.9111 41.8924 34.0401 41.8901C34.1658 41.8911 34.2897 41.8602 34.4001 41.8001C34.5043 41.7406 34.5906 41.6543 34.6501 41.5501C34.7111 41.4437 34.7422 41.3227 34.7401 41.2001C34.7446 41.0688 34.7172 40.9384 34.6601 40.8201C34.6148 40.7101 34.5338 40.6185 34.4301 40.5601C34.3235 40.4899 34.1976 40.4549 34.0701 40.4601H33.7701V39.6901H34.1801C34.2987 39.696 34.4166 39.6683 34.5201 39.6101C34.5553 39.5832 34.5837 39.5483 34.6028 39.5083C34.6219 39.4683 34.6313 39.4244 34.6301 39.3801C34.6323 39.3453 34.6272 39.3104 34.6152 39.2777C34.6031 39.245 34.5844 39.2151 34.5601 39.1901C34.5153 39.1306 34.457 39.0826 34.3901 39.0501L34.0901 38.9201C33.8419 38.8291 33.6141 38.6897 33.4201 38.5101C33.257 38.3252 33.168 38.0866 33.1701 37.8401H34.1701C34.191 37.9482 34.2516 38.0445 34.3401 38.1101C34.4232 38.1743 34.5139 38.228 34.6101 38.2701L34.7901 38.3501C34.9351 38.4067 35.0727 38.4806 35.2001 38.5701C35.3115 38.6401 35.4042 38.7362 35.4701 38.8501C35.5463 38.9876 35.5843 39.143 35.5801 39.3001C35.5823 39.4719 35.5298 39.6401 35.4301 39.7801C35.3092 39.9159 35.1537 40.0161 34.9801 40.0701V40.0701C35.1196 40.112 35.2466 40.1876 35.3501 40.2901C35.4753 40.4002 35.5744 40.5368 35.6401 40.6901C35.714 40.864 35.7515 41.0512 35.7501 41.2401C35.7581 41.5055 35.6772 41.766 35.5201 41.9801C35.3605 42.1979 35.1468 42.3703 34.9001 42.4801C34.6207 42.5939 34.3217 42.6517 34.0201 42.6501C33.7031 42.6634 33.3868 42.6123 33.0901 42.5001Z" fill="#161449"/>
<path d="M38.6799 41.6199C38.7397 41.2362 38.7698 40.8483 38.7699 40.4599V39.5299C38.7847 39.2677 38.7221 39.0069 38.5899 38.7799C38.5275 38.6971 38.4466 38.6299 38.3538 38.5836C38.261 38.5374 38.1587 38.5133 38.0549 38.5133C37.9512 38.5133 37.8489 38.5374 37.756 38.5836C37.6632 38.6299 37.5824 38.6971 37.5199 38.7799C37.3877 39.0069 37.3251 39.2677 37.3399 39.5299V40.4599C37.3384 40.8455 37.3719 41.2304 37.4399 41.6099C37.4842 41.9529 37.5715 42.2889 37.6999 42.6099H36.6999C36.5603 42.3123 36.4659 41.9955 36.4199 41.6699C36.3437 41.2746 36.3068 40.8726 36.3099 40.4699V39.4999C36.2908 39.1516 36.3705 38.8049 36.5399 38.4999C36.6864 38.2398 36.9052 38.0279 37.1699 37.8899C37.4452 37.75 37.7512 37.6813 38.0599 37.6899C38.3685 37.6825 38.6742 37.7512 38.9499 37.8899C39.2171 38.0291 39.4365 38.2451 39.5799 38.5099C39.7493 38.8149 39.8291 39.1616 39.8099 39.5099V40.4199C39.8078 40.8224 39.771 41.2238 39.6999 41.6199C39.643 41.943 39.549 42.2584 39.4199 42.5599H38.4199C38.5399 42.2568 38.6271 41.9417 38.6799 41.6199V41.6199Z" fill="#161449"/>
</g>
<defs>
<clipPath id="clip0_17_24">
<rect width="38.73" height="40.67" fill="white" transform="translate(2 2)"/>
</clipPath>
</defs>
</svg>
