<svg width="43" height="45" viewBox="0 0 43 45" fill="none" xmlns="http://www.w3.org/2000/svg">
<g clip-path="url(#clip0_17_24)">
<path d="M19.79 29.66C19.45 30.4 19.18 31.02 18.88 31.66C18.3898 32.7122 17.648 33.6276 16.7202 34.3252C15.7924 35.0228 14.707 35.4812 13.56 35.66C12.6862 35.8091 11.7909 35.776 10.9304 35.5626C10.07 35.3492 9.26296 34.9602 8.56004 34.42C7.26037 33.5235 6.0924 32.4498 5.09004 31.23C3.75085 29.4834 2.89858 27.4131 2.62004 25.23C2.48004 24.47 2.28004 23.73 2.20004 22.96C2.12004 22.19 2.10004 21.3 2.07004 20.46C1.91815 18.2066 2.0424 15.9432 2.44004 13.72C2.55004 13.22 2.44004 12.66 2.49004 12.15C2.6082 10.8607 2.87325 9.5891 3.28004 8.35998C4.00411 6.70679 4.84282 5.10623 5.79004 3.56998C6.19055 2.89681 6.73905 2.32365 7.39398 1.89396C8.04891 1.46428 8.79307 1.18933 9.57004 1.08998C10.8414 0.90327 12.1391 1.03029 13.35 1.45998C14.517 1.80358 15.6006 2.38408 16.5331 3.16522C17.4657 3.94636 18.2271 4.91136 18.77 5.99998C19.0351 6.4431 19.3256 6.87048 19.64 7.27998C19.7298 6.47647 19.7732 5.66847 19.77 4.85998C19.6649 4.16643 19.7898 3.45753 20.1257 2.84172C20.4616 2.2259 20.99 1.73706 21.63 1.44998C21.8569 1.33936 22.108 1.28777 22.36 1.29998C24.49 1.29998 26.62 1.29998 28.75 1.29998C29.6 1.29998 30.44 1.14998 31.28 1.11998C31.9522 1.1068 32.6201 1.22931 33.2438 1.48017C33.8675 1.73102 34.4342 2.10508 34.91 2.57998C36.0161 3.54581 36.772 4.85011 37.06 6.28998C37.3201 7.32359 37.243 8.41325 36.84 9.39997C36.6467 9.69967 36.3462 9.91427 36 9.99998C35.39 10.16 34.74 10.21 34 10.33L36 12.15C36.3 12.42 36.63 12.66 36.91 12.95C38.6034 14.6797 39.6609 16.9322 39.91 19.34C40.0413 20.6701 40.0413 22.0099 39.91 23.34C39.7539 25.1234 39.4766 26.8942 39.08 28.64C38.7289 29.6849 38.2697 30.6903 37.71 31.64C37.4882 32.1924 37.2065 32.7189 36.87 33.21C36.5236 33.6497 36.1123 34.0342 35.65 34.35C34.8413 34.9462 34 35.4971 33.13 36C32.0997 36.497 30.9632 36.7339 29.82 36.69C28.3083 36.7659 26.8002 36.4814 25.42 35.86C24.4379 35.5345 23.5351 35.0065 22.77 34.31C21.77 33.1 20.32 32.1 20.11 30.31C20.035 30.0791 19.9272 29.8602 19.79 29.66V29.66ZM21.49 25.47C21.343 27.178 21.6213 28.8958 22.3 30.47C22.6822 31.3459 23.2644 32.12 24 32.73C24.962 33.2625 26.0321 33.5702 27.13 33.63C28.0888 33.6701 29.0478 33.5553 29.97 33.29C30.8687 33.2231 31.7229 32.873 32.41 32.29C33.78 30.78 35.34 29.42 35.85 27.29C35.98 26.74 36.36 26.29 36.51 25.71C36.9865 23.444 37.0137 21.1065 36.59 18.83C36.4156 17.2788 36.0217 15.7603 35.42 14.32C34.6084 12.5793 33.1846 11.1982 31.42 10.44C30.27 9.86997 29.04 10.44 27.87 10.67C27.5882 10.7782 27.2755 10.7742 26.9965 10.6588C26.7175 10.5435 26.4933 10.3256 26.37 10.05C26.04 9.33998 26.19 7.99998 26.7 7.80998C27.3716 7.54789 28.074 7.37313 28.79 7.28998C30.26 7.13998 31.74 7.12998 33.21 6.98998C33.3552 6.96746 33.4935 6.91326 33.6153 6.83123C33.7371 6.7492 33.8394 6.64135 33.9148 6.51534C33.9902 6.38934 34.0369 6.24827 34.0517 6.10217C34.0664 5.95606 34.0488 5.8085 34 5.66998C34 5.43998 33.9 5.21998 33.88 4.98998C33.8905 4.66774 33.8334 4.34688 33.7124 4.04804C33.5914 3.74921 33.4092 3.47901 33.1775 3.25483C32.9457 3.03066 32.6697 2.85747 32.367 2.7464C32.0643 2.63534 31.7418 2.58887 31.42 2.60998C29.96 2.60998 28.5 2.68998 27.03 2.71998C26.61 2.71998 26.18 2.58998 25.76 2.59998C24.98 2.59998 24.21 2.68998 23.43 2.76998C21.96 2.91998 21.27 3.06998 21.17 4.67998C21.17 5.17998 21.12 5.67998 21.11 6.17998C21.11 7.71998 21.19 9.25998 21.04 10.79C20.8236 12.7196 20.9867 14.6729 21.52 16.54C21.6101 16.9299 21.7773 17.2978 22.0118 17.6221C22.2462 17.9464 22.5432 18.2205 22.8852 18.4283C23.2271 18.6361 23.6072 18.7734 24.0031 18.832C24.3989 18.8907 24.8025 18.8696 25.19 18.77C25.4115 18.7182 25.614 18.6055 25.7748 18.4447C25.9356 18.2839 26.0482 18.0814 26.1 17.86C26.407 16.9087 26.809 15.9907 27.3 15.12C27.4576 14.8776 27.6709 14.6765 27.9221 14.5335C28.1734 14.3904 28.4552 14.3097 28.744 14.2979C29.0329 14.2862 29.3204 14.3438 29.5824 14.4659C29.8444 14.5881 30.0733 14.7712 30.25 15C30.7913 15.5658 31.192 16.2509 31.42 17C31.8725 18.2695 32.0684 19.6163 31.9963 20.9621C31.9242 22.3079 31.5855 23.626 31 24.84C30.8523 25.1857 30.6235 25.4908 30.3329 25.7294C30.0423 25.9679 29.6985 26.1329 29.3305 26.2105C28.9626 26.288 28.5815 26.2757 28.2193 26.1746C27.8572 26.0736 27.5247 25.8868 27.25 25.63C26.9498 25.3455 26.7134 25.0005 26.5565 24.6178C26.3996 24.235 26.3258 23.8234 26.34 23.41C26.29 22.9 26.16 22.49 25.63 22.36C24.9213 22.1602 24.1996 22.0099 23.47 21.91C23.204 21.8502 22.9273 21.8569 22.6644 21.9295C22.4015 22.0021 22.1606 22.1383 21.9629 22.3261C21.7652 22.5139 21.6168 22.7476 21.5308 23.0064C21.4449 23.2652 21.424 23.5412 21.47 23.81C21.5 24.36 21.49 24.92 21.49 25.47ZM17.2 10.66H17.31C17.31 10.23 17.31 9.79998 17.24 9.36998C17.15 7.97998 16.35 6.84998 15.83 5.61998C15.6855 5.35861 15.4998 5.12225 15.28 4.91998C14.9701 4.51691 14.6362 4.13288 14.28 3.76998C14.0131 3.46072 13.6676 3.22925 13.28 3.09998C12.1754 2.92185 11.0589 2.82824 9.94004 2.81998C9.44627 2.84447 8.96409 2.97827 8.5283 3.21173C8.09252 3.44519 7.71399 3.77248 7.42004 4.16998C6.76145 4.93122 6.21586 5.78328 5.80004 6.69998C4.84029 8.63113 4.28236 10.7369 4.16004 12.89C4.11004 14.81 3.90004 16.72 3.79004 18.64C3.71294 20.9929 3.94151 23.3459 4.47004 25.64C4.95639 27.9283 6.20004 29.9857 8.00004 31.48C8.80228 31.9785 9.72557 32.2483 10.67 32.26C11.5387 32.4707 12.4496 32.4282 13.2949 32.1376C14.1402 31.847 14.8846 31.3203 15.44 30.62C16.68 29.14 16.73 27.28 16.98 25.51C17.09 24.66 16.98 23.78 17.03 22.92C17.17 21.28 17.51 19.64 17.51 18C17.54 15.55 17.32 13.1 17.2 10.66ZM29.85 19.21L27.93 21.91C28.03 22.63 29.22 22.33 29.57 23.08C29.9944 21.8355 30.0908 20.5026 29.85 19.21V19.21ZM20.85 20.7L21.9 20.38L20.85 19.59V20.7Z" fill="#0E2043"/>
<path d="M13.0801 12.89C13.0801 14.71 13.1901 16.54 13.0801 18.35C12.9301 20.35 12.5901 22.45 12.3101 24.49C12.2301 25.06 11.9501 25.72 11.3101 25.63C11.0278 25.5699 10.7619 25.4494 10.5306 25.2768C10.2993 25.1041 10.1081 24.8835 9.97011 24.63C9.39205 23.4569 9.12028 22.1565 9.18011 20.85C9.19321 19.8721 9.1565 18.8942 9.07011 17.92C9.07011 16 8.88011 14.06 9.57011 12.19C9.94011 11.19 10.2001 10.19 10.5701 9.19001C10.6213 9.07737 10.6949 8.97636 10.7865 8.89313C10.878 8.80991 10.9856 8.74623 11.1026 8.70599C11.2196 8.66574 11.3435 8.64977 11.4669 8.65906C11.5903 8.66835 11.7105 8.7027 11.8201 8.76001C11.9965 8.84494 12.1529 8.96644 12.2788 9.11644C12.4046 9.26644 12.4971 9.44151 12.5501 9.63001C12.7601 10.7 12.8601 11.8 13.0001 12.88L13.0801 12.89Z" fill="#0E2043"/>
<path d="M3.66011 43.6401C3.41137 43.5337 3.19683 43.3607 3.04011 43.1401C2.89144 42.9299 2.81431 42.6775 2.82011 42.4201C2.81029 42.3204 2.81029 42.2199 2.82011 42.1201C2.83653 42.0274 2.86336 41.9368 2.90011 41.8501H3.90011C3.85107 41.9846 3.82733 42.127 3.83011 42.2701C3.82466 42.3721 3.83954 42.4741 3.87388 42.5702C3.90821 42.6663 3.96132 42.7547 4.03011 42.8301C4.10067 42.9006 4.1851 42.9557 4.27806 42.9918C4.37102 43.028 4.47047 43.0444 4.57011 43.0401C4.71427 43.0692 4.8638 43.0553 5.00011 43.0001C5.11615 42.9503 5.21149 42.862 5.27011 42.7501C5.34038 42.6325 5.37511 42.497 5.37011 42.3601C5.37093 42.2324 5.34362 42.1061 5.29011 41.9901C5.24013 41.8765 5.15717 41.7804 5.05197 41.7145C4.94678 41.6485 4.8242 41.6156 4.70011 41.6201H4.40011V40.9001H4.63011C4.71134 40.9048 4.79263 40.8921 4.86853 40.8628C4.94442 40.8334 5.01316 40.7882 5.07011 40.7301C5.16674 40.6082 5.21642 40.4556 5.21011 40.3001C5.21329 40.1957 5.18916 40.0923 5.14012 40.0001C5.08819 39.9081 5.01212 39.832 4.92011 39.7801C4.81881 39.7256 4.70516 39.698 4.59011 39.7001C4.47522 39.6993 4.36188 39.7268 4.26011 39.7801C4.15402 39.8268 4.06371 39.9032 4.00011 40.0001C3.95679 40.0979 3.93301 40.2032 3.93011 40.3101C3.91724 40.3963 3.91724 40.4839 3.93011 40.5701H3.00011C2.98316 40.4507 2.98316 40.3295 3.00011 40.2101C3.00155 39.9785 3.0711 39.7525 3.20011 39.5601C3.35537 39.3575 3.55796 39.1962 3.79011 39.0901C4.05293 38.9674 4.34011 38.9059 4.63011 38.9101C4.91238 38.9083 5.19184 38.9662 5.45011 39.0801C5.6835 39.1796 5.88441 39.3424 6.03012 39.5501C6.16747 39.7427 6.24092 39.9736 6.24011 40.2101C6.2446 40.4352 6.18569 40.6569 6.07012 40.8501C5.96507 41.0259 5.8026 41.1601 5.61011 41.2301V41.2301C5.75605 41.2807 5.88915 41.3627 6.00011 41.4701C6.12013 41.5865 6.21538 41.726 6.28012 41.8801C6.35062 42.0547 6.38465 42.2419 6.38012 42.4301C6.3823 42.6885 6.3017 42.9408 6.15012 43.1501C5.98572 43.3714 5.7646 43.5441 5.51011 43.6501C5.22241 43.7721 4.9126 43.8334 4.60011 43.8301C4.27665 43.8364 3.95576 43.7715 3.66011 43.6401V43.6401Z" fill="#161449"/>
<path d="M10.86 42.73C10.9499 42.3464 10.9969 41.9539 11 41.56V40.56C11.0188 40.315 10.9704 40.0695 10.86 39.85C10.8171 39.7797 10.7569 39.7216 10.6851 39.6813C10.6133 39.641 10.5323 39.6199 10.45 39.62C10.3793 39.6211 10.3099 39.6389 10.2473 39.6719C10.1848 39.7049 10.1309 39.7522 10.09 39.81C9.99328 39.9728 9.94797 40.161 9.96002 40.35V42.35H9.00002V40.35C9.00907 40.1599 8.96025 39.9716 8.86002 39.81C8.82175 39.7497 8.7684 39.7004 8.70526 39.6671C8.64212 39.6338 8.57137 39.6175 8.50002 39.62C8.41778 39.6196 8.33701 39.6418 8.26649 39.6841C8.19597 39.7264 8.1384 39.7872 8.10002 39.86C7.9878 40.0719 7.93592 40.3106 7.95002 40.55V41.55C7.9545 41.9439 8.00143 42.3361 8.09002 42.72C8.15508 43.0678 8.26957 43.4045 8.43002 43.72H7.43002C7.32783 43.5388 7.24408 43.3478 7.18002 43.15C7.10343 42.8975 7.0433 42.6402 7.00002 42.38C6.97981 42.1037 6.97981 41.8263 7.00002 41.55V40.55C6.99072 40.2423 7.0559 39.937 7.19002 39.66C7.29486 39.4164 7.46959 39.2095 7.69211 39.0653C7.91462 38.9211 8.1749 38.8462 8.44002 38.85C8.66967 38.8495 8.89606 38.9044 9.10002 39.01C9.28702 39.1172 9.43434 39.2821 9.52002 39.48V39.48C9.59472 39.279 9.73585 39.1097 9.92002 39C10.1335 38.879 10.3747 38.8154 10.62 38.8154C10.8654 38.8154 11.1065 38.879 11.32 39C11.5468 39.1393 11.725 39.3454 11.83 39.59C11.965 39.8703 12.0301 40.179 12.02 40.49V41.49C12.022 41.7682 11.9986 42.046 11.95 42.32C11.9159 42.5787 11.8556 42.8334 11.77 43.08C11.7145 43.281 11.6303 43.473 11.52 43.65H10.52C10.6702 43.3582 10.7844 43.0493 10.86 42.73V42.73Z" fill="#161449"/>
<path d="M16.32 42.94C16.3942 42.6696 16.4312 42.3904 16.43 42.11C16.4424 41.8847 16.394 41.6602 16.29 41.46C16.2526 41.3952 16.1986 41.3416 16.1336 41.3047C16.0685 41.2678 15.9948 41.2489 15.92 41.25C15.8556 41.2496 15.7922 41.2659 15.7361 41.2975C15.68 41.3291 15.6331 41.3747 15.6 41.43C15.5131 41.5671 15.4712 41.7279 15.48 41.89V42.89H14.59V41.89C14.5996 41.7247 14.5577 41.5605 14.47 41.42C14.4386 41.3655 14.3934 41.3203 14.339 41.2887C14.2846 41.2571 14.2229 41.2403 14.16 41.24C14.0853 41.2408 14.0119 41.2593 13.9458 41.2941C13.8798 41.3288 13.8229 41.3789 13.78 41.44C13.6734 41.6356 13.6248 41.8577 13.64 42.08C13.6389 42.6497 13.7909 43.2092 14.08 43.7H13.08C12.9232 43.4456 12.8052 43.1692 12.73 42.88C12.6376 42.4902 12.5939 42.0905 12.6 41.69C12.5567 41.0749 12.758 40.4675 13.16 40C13.5527 39.6225 14.0519 39.3747 14.59 39.29L15.15 39.18C15.2292 39.166 15.3064 39.1425 15.38 39.11C15.4316 39.0884 15.4741 39.0495 15.5 39H16.5C16.4843 39.2366 16.3851 39.4598 16.22 39.63C15.9975 39.8101 15.7255 39.9182 15.44 39.94L14.9 40C14.5527 40.0453 14.2149 40.1466 13.9 40.3C13.7733 40.3561 13.6619 40.4416 13.5749 40.5494C13.4879 40.6573 13.428 40.7843 13.4 40.92V40.92C13.4915 40.7775 13.624 40.6659 13.78 40.6C13.9172 40.5336 14.0676 40.4994 14.22 40.5C14.3905 40.4969 14.5579 40.5457 14.7 40.64C14.8497 40.7461 14.9674 40.8915 15.04 41.06C15.1316 40.8821 15.2744 40.7358 15.45 40.64C15.6382 40.5424 15.8481 40.4942 16.06 40.5C16.3019 40.498 16.5399 40.5601 16.75 40.68C16.9645 40.8045 17.1382 40.9886 17.25 41.21C17.3783 41.4605 17.4435 41.7386 17.44 42.02C17.4425 42.338 17.3987 42.6546 17.31 42.96C17.2304 43.2225 17.1124 43.4719 16.96 43.7H16C16.1311 43.4576 16.2382 43.2031 16.32 42.94V42.94Z" fill="#161449"/>
<path d="M18.7399 43.64C18.493 43.5393 18.2834 43.3647 18.1399 43.14C17.9961 42.9168 17.9229 42.6554 17.9299 42.39C17.9318 42.2571 17.9555 42.1253 17.9999 42H18.9999C18.9878 42.0996 18.9878 42.2004 18.9999 42.3C18.9976 42.4322 19.0286 42.5629 19.0899 42.68C19.1463 42.7915 19.2341 42.8841 19.3425 42.9463C19.4509 43.0085 19.5752 43.0376 19.6999 43.03C19.8008 43.0379 19.9022 43.0221 19.996 42.9839C20.0897 42.9458 20.1732 42.8862 20.2399 42.81C20.3761 42.6447 20.4441 42.4337 20.4299 42.22V41.22C20.431 41.0826 20.4038 40.9464 20.3499 40.82C20.2975 40.7088 20.2142 40.6151 20.1099 40.55C20.0035 40.489 19.8826 40.4579 19.7599 40.46C19.6477 40.4545 19.5364 40.4824 19.4399 40.54C19.3519 40.586 19.2816 40.6598 19.2399 40.75C19.1921 40.8354 19.1679 40.9321 19.1699 41.03C19.1615 41.0997 19.1615 41.1703 19.1699 41.24H18.1699C18.154 41.1306 18.154 41.0194 18.1699 40.91C18.1628 40.6948 18.211 40.4813 18.3099 40.29C18.4008 40.1033 18.5476 39.9495 18.7299 39.85C18.9334 39.7443 19.1607 39.6927 19.3899 39.7C19.5994 39.6964 19.8074 39.7373 19.9999 39.82C20.1664 39.9005 20.3107 40.0207 20.4199 40.17V39H21.4199V42.3C21.4246 42.5917 21.3485 42.8789 21.1999 43.13C21.0497 43.3589 20.8335 43.5368 20.5799 43.64C20.2895 43.7648 19.9759 43.8262 19.6599 43.82C19.3438 43.8281 19.0297 43.7666 18.7399 43.64Z" fill="#161449"/>
<path d="M22.9 43.5999C22.6386 43.4672 22.4176 43.267 22.26 43.0199C22.1093 42.7624 22.0331 42.4682 22.04 42.1699C22.0363 41.8809 22.105 41.5955 22.24 41.3399C22.3666 41.105 22.5573 40.9108 22.79 40.7799C23.0235 40.6542 23.2848 40.5889 23.55 40.5899C23.7605 40.5865 23.9691 40.6309 24.16 40.7199C24.3322 40.7913 24.4787 40.9134 24.58 41.0699V41.0699V40.2299C24.5837 40.0772 24.5493 39.926 24.48 39.7899C24.4439 39.739 24.3958 39.6978 24.34 39.6699C24.2842 39.642 24.2223 39.6283 24.16 39.6299C24.1032 39.6255 24.0461 39.6351 23.9939 39.6577C23.9416 39.6804 23.8956 39.7155 23.86 39.7599C23.7899 39.8476 23.7544 39.9578 23.76 40.0699V40.2199H22.87V40.0799C22.87 39.8299 22.72 39.6999 22.43 39.6999H22.09V38.9099H22.53C22.7043 38.9057 22.8766 38.947 23.03 39.0299C23.1732 39.1108 23.2804 39.2431 23.33 39.3999V39.3999C23.4137 39.2282 23.5504 39.0879 23.72 38.9999C23.9199 38.9048 24.1386 38.8555 24.36 38.8555C24.5814 38.8555 24.8 38.9048 25 38.9999C25.1879 39.0928 25.3443 39.2389 25.45 39.4199C25.5591 39.6333 25.6141 39.8703 25.61 40.1099V42.1099C25.6138 42.4091 25.5341 42.7035 25.38 42.9599C25.233 43.2086 25.0179 43.4099 24.76 43.5399C24.466 43.6846 24.1427 43.7599 23.815 43.7599C23.4873 43.7599 23.164 43.6846 22.87 43.5399L22.9 43.5999ZM24.25 42.9299C24.3671 42.8595 24.4637 42.7595 24.53 42.6399C24.5981 42.507 24.6324 42.3593 24.63 42.2099C24.635 42.0571 24.6005 41.9056 24.53 41.7699C24.4698 41.6435 24.372 41.5387 24.25 41.4699C24.1255 41.3986 23.9833 41.3639 23.84 41.3699C23.703 41.3649 23.5676 41.3997 23.45 41.4699C23.3309 41.5393 23.2364 41.6442 23.18 41.7699C23.1094 41.9056 23.075 42.0571 23.08 42.2099C23.0775 42.3593 23.1118 42.507 23.18 42.6399C23.2397 42.7609 23.3336 42.8617 23.45 42.9299C23.5678 43.0007 23.7025 43.0387 23.84 43.0399C23.984 43.0404 24.1255 43.0024 24.25 42.9299V42.9299Z" fill="#161449"/>
<path d="M30.26 42.73C30.3497 42.3463 30.3966 41.9539 30.4 41.56V40.56C30.4163 40.314 30.3644 40.0683 30.25 39.85C30.2079 39.779 30.1478 39.7204 30.0758 39.68C30.0039 39.6397 29.9225 39.6189 29.84 39.62C29.7707 39.6211 29.7026 39.6389 29.6417 39.672C29.5807 39.7051 29.5287 39.7524 29.49 39.81C29.3898 39.9717 29.341 40.16 29.35 40.35V42.35H28.42V40.35C28.4321 40.161 28.3868 39.9728 28.29 39.81C28.2488 39.7503 28.1934 39.7016 28.1289 39.6685C28.0643 39.6353 27.9926 39.6187 27.92 39.62C27.838 39.6207 27.7577 39.6433 27.6873 39.6855C27.617 39.7277 27.5592 39.7879 27.52 39.86C27.4078 40.0719 27.3559 40.3106 27.37 40.55V41.55C27.3745 41.9439 27.4214 42.3361 27.51 42.72C27.578 43.0684 27.6959 43.4052 27.86 43.72H26.86C26.7578 43.5388 26.6741 43.3479 26.61 43.15C26.5327 42.9017 26.4759 42.6475 26.44 42.39C26.3915 42.116 26.368 41.8382 26.37 41.56V40.56C26.3607 40.2523 26.4259 39.947 26.56 39.67C26.6713 39.4237 26.852 39.2152 27.08 39.07C27.2975 38.93 27.5514 38.8569 27.81 38.86C28.0398 38.8583 28.2665 38.9133 28.47 39.02C28.657 39.1273 28.8043 39.2921 28.89 39.49C28.9703 39.2887 29.119 39.1223 29.31 39.02C29.5104 38.9145 29.7335 38.8596 29.96 38.86C30.2263 38.8566 30.4879 38.9303 30.7133 39.0722C30.9386 39.2142 31.1181 39.4183 31.23 39.66C31.3569 39.9426 31.4185 40.2503 31.41 40.56V41.56C31.4103 41.8377 31.3902 42.1151 31.35 42.39C31.3063 42.6469 31.2462 42.9007 31.17 43.15C31.1059 43.3479 31.0222 43.5388 30.92 43.72H29.92C30.0844 43.4098 30.1991 43.0757 30.26 42.73V42.73Z" fill="#161449"/>
<path d="M32.8499 43.65C32.598 43.5443 32.3776 43.3756 32.2099 43.16C32.05 42.9583 31.9652 42.7073 31.9699 42.45C31.9688 42.2857 31.9994 42.1227 32.0599 41.97H33.0599C33.0562 42.0333 33.0562 42.0967 33.0599 42.16C33.0544 42.2299 33.0544 42.3001 33.0599 42.37C33.0576 42.4909 33.0925 42.6096 33.1599 42.71C33.2235 42.8118 33.3133 42.8947 33.4199 42.95C33.5335 43.0113 33.6609 43.0423 33.7899 43.04C33.9128 43.0438 34.0345 43.0141 34.1419 42.9543C34.2493 42.8944 34.3385 42.8065 34.3999 42.7C34.46 42.5932 34.4911 42.4725 34.4899 42.35C34.4906 42.2191 34.4633 42.0895 34.4099 41.97C34.3589 41.861 34.2794 41.7677 34.1799 41.7C34.0677 41.6343 33.94 41.5998 33.8099 41.6H33.5199V40.84H33.9299C34.0471 40.8497 34.1639 40.8178 34.2599 40.75C34.2975 40.7271 34.3284 40.6947 34.3495 40.6561C34.3705 40.6175 34.381 40.574 34.3799 40.53C34.3778 40.4577 34.3534 40.3878 34.3099 40.33C34.26 40.2742 34.1986 40.2299 34.1299 40.2L33.8399 40.07C33.5893 39.9791 33.3609 39.8359 33.1699 39.65C33.0032 39.4666 32.9106 39.2278 32.9099 38.98H33.9099C33.9274 39.0921 33.9885 39.1927 34.0799 39.26C34.163 39.3242 34.2537 39.3779 34.3499 39.42L34.5299 39.5C34.6716 39.5597 34.8087 39.6299 34.9399 39.71C35.0518 39.7837 35.1443 39.8832 35.2099 40C35.2861 40.1375 35.3241 40.2928 35.3199 40.45C35.3249 40.6208 35.2681 40.7877 35.1599 40.92C35.0463 41.0593 34.8928 41.1605 34.7199 41.21V41.21C34.8561 41.2545 34.9819 41.3259 35.0899 41.42C35.2131 41.5358 35.3117 41.6752 35.3799 41.83C35.4547 42.0036 35.4922 42.191 35.4899 42.38C35.4922 42.6446 35.4118 42.9033 35.2599 43.12C35.1026 43.3376 34.888 43.5072 34.6399 43.61C34.3627 43.7319 34.0627 43.7932 33.7599 43.79C33.4503 43.8049 33.1408 43.7572 32.8499 43.65V43.65Z" fill="#161449"/>
<path d="M38.4301 42.7701C38.4977 42.3872 38.5311 41.999 38.5301 41.6101V40.6801C38.5449 40.4179 38.4823 40.1571 38.3501 39.9301C38.2903 39.8435 38.2104 39.7726 38.1172 39.7237C38.024 39.6748 37.9203 39.6493 37.8151 39.6493C37.7098 39.6493 37.6061 39.6748 37.513 39.7237C37.4198 39.7726 37.3398 39.8435 37.2801 39.9301C37.1479 40.1571 37.0853 40.4179 37.1001 40.6801V41.6101C37.099 41.9956 37.1325 42.3805 37.2001 42.7601C37.2483 43.1012 37.3321 43.4364 37.4501 43.7601H36.4501C36.3209 43.4586 36.227 43.1431 36.1701 42.8201C36.099 42.424 36.0622 42.0225 36.0601 41.6201V40.7001C36.044 40.3508 36.1272 40.004 36.3001 39.7001C36.4429 39.4407 36.6584 39.2287 36.9201 39.0901C37.1979 38.9511 37.5044 38.8787 37.8151 38.8787C38.1258 38.8787 38.4322 38.9511 38.7101 39.0901C38.9755 39.2317 39.1942 39.447 39.3401 39.7101C39.5024 40.0178 39.5817 40.3624 39.5701 40.7101V41.6201C39.5687 42.0192 39.5318 42.4175 39.4601 42.8101C39.4093 43.1551 39.3117 43.4915 39.1701 43.8101H38.1701C38.3084 43.4784 38.3961 43.1278 38.4301 42.7701V42.7701Z" fill="#161449"/>
</g>
<defs>
<clipPath id="clip0_17_24">
<rect width="38.06" height="42.82" fill="white" transform="translate(2 1)"/>
</clipPath>
</defs>
</svg>
