<svg width="17" height="16" viewBox="0 0 17 16" fill="none" xmlns="http://www.w3.org/2000/svg">
<path d="M14.6267 0H2.37331C1.06257 0 0 1.07903 0 2.41009V13.5899C0 14.921 1.06257 16 2.37331 16H14.6267C15.9374 16 17 14.921 17 13.5899V2.41009C17 1.07903 15.9374 0 14.6267 0Z" fill="#2083FD"/>
<path d="M5.91 3.48791C6.21 3.03791 6.37 2.48791 6.72 2.32791C7.48 1.93791 8.09 2.32791 8.52 3.08791C8.98 1.92791 9.06 1.89791 10.93 2.08791C11.1951 2.08172 11.4585 2.1326 11.7022 2.23711C11.946 2.34162 12.1644 2.49731 12.3427 2.69362C12.521 2.88994 12.655 3.12229 12.7356 3.37494C12.8162 3.62758 12.8416 3.8946 12.81 4.15791C12.81 5.97791 12.94 7.79791 12.97 9.61791C12.9692 10.3873 12.9157 11.1558 12.81 11.9179C12.7671 12.129 12.6766 12.3276 12.5456 12.4987C12.4145 12.6697 12.2462 12.8086 12.0535 12.905C11.8608 13.0013 11.6487 13.0526 11.4333 13.0548C11.2178 13.0571 11.0047 13.0102 10.81 12.9179C10.38 12.6979 9.98 12.4579 9.57 12.2279C8.71 13.8479 6.49 13.4279 5.19 11.3879C5.14308 11.5409 5.1129 11.6984 5.1 11.8579C5.1 12.8579 4.66 13.1379 3.77 13.1379C2.88 13.1379 2.4 12.8379 2.33 11.9879C2.19 10.2379 2.08 8.48791 2 6.72791C2 5.60791 2 4.48791 2 3.36791C2 2.24791 2.32 2.03791 3.29 2.05791C4.39 2.06791 5.49 2.23791 5.91 3.48791ZM8.02 11.7979C8.02 10.5079 8.02 9.30791 8.02 8.10791C8.02 6.68791 7.92 5.25791 7.8 3.84791C7.8 3.55791 7.48 3.29791 7.3 3.01791C7.16 3.26791 6.91 3.51791 6.89 3.77791C6.79 4.91791 6.77 5.91791 6.7 7.04791C6.64363 7.26602 6.55606 7.47484 6.44 7.66791C6.23 7.53791 5.91 7.44791 5.83 7.25791C5.63932 6.78039 5.48554 6.28895 5.37 5.78791C5.23829 4.96512 5.01351 4.15995 4.7 3.38791C4.44 3.02791 3.7 2.91791 3.18 2.80791C3.04 2.80791 2.68 3.08791 2.66 3.26791C2.57678 4.08512 2.54338 4.90664 2.56 5.72791C2.56 7.59791 2.7 9.46791 2.71 11.3379C2.71 11.9279 2.89 12.1779 3.44 12.2279C3.99 12.2779 4.09 11.8579 4.08 11.4579C4.08 10.2179 3.96 8.97791 3.91 7.73791C3.91 7.31791 3.91 6.89791 3.91 6.46791L4.21 6.39791C4.40283 6.63818 4.56725 6.89991 4.7 7.17791C5.12 8.34791 5.5 9.52791 5.9 10.7079C6.3 11.8879 6.7 12.1579 8.02 11.7979ZM9.27 2.91791C9.37 3.34791 9.34 4.03791 9.59 4.14791C10.59 4.60791 10.4 5.38791 10.36 6.14791C10.3 7.75791 10.24 9.36791 10.19 10.9679C10.19 11.4379 10.28 11.8379 10.86 11.8579C10.9731 11.8736 11.0882 11.8649 11.1976 11.8325C11.307 11.8 11.4083 11.7445 11.4945 11.6696C11.5807 11.5948 11.6498 11.5024 11.6974 11.3986C11.7449 11.2948 11.7697 11.1821 11.77 11.0679C11.77 10.7379 11.83 10.3979 11.83 10.0679C11.83 8.35791 11.83 6.65791 11.83 4.95791C11.83 2.69791 11.83 2.68791 9.59 2.74791C9.56 2.78791 9.51 2.83791 9.27 2.91791ZM9.27 9.37791C9.38 9.15791 9.48 9.05791 9.49 8.95791C9.58 7.80791 9.7 6.63791 9.7 5.46791C9.7 5.24791 9.33 5.02791 9.13 4.81791L8.9 4.96791L9.27 9.37791Z" fill="#0E2043"/>
</svg>
