<svg width="17" height="16" viewBox="0 0 17 16" fill="none" xmlns="http://www.w3.org/2000/svg">
<path d="M14.6267 0H2.37331C1.06257 0 0 1.07903 0 2.41009V13.5899C0 14.921 1.06257 16 2.37331 16H14.6267C15.9374 16 17 14.921 17 13.5899V2.41009C17 1.07903 15.9374 0 14.6267 0Z" fill="#2083FD"/>
<path d="M9.13222 6.37031C9.50222 5.03031 9.76222 3.97031 10.1322 2.94031C10.3922 2.14031 12.0522 1.94031 12.8322 2.58031C13.1157 2.76004 13.3251 3.03562 13.4224 3.35683C13.5197 3.67805 13.4983 4.02352 13.3622 4.33031C13.1729 4.89843 13.0127 5.47585 12.8822 6.06031C13.2236 6.02818 13.5648 6.12243 13.8413 6.32518C14.1178 6.52793 14.3103 6.82509 14.3822 7.16031C14.7668 7.83058 15.1944 8.47527 15.6622 9.09031C15.7629 9.23275 15.8332 9.39441 15.8687 9.5652C15.9041 9.736 15.9041 9.91227 15.8684 10.083C15.8328 10.2538 15.7623 10.4154 15.6615 10.5577C15.5606 10.7 15.4315 10.8201 15.2822 10.9103C14.9922 11.2422 14.82 11.6605 14.7922 12.1003C14.7732 12.3065 14.7037 12.5048 14.5898 12.6777C14.4759 12.8506 14.3211 12.9927 14.1392 13.0916C13.9573 13.1904 13.7538 13.243 13.5468 13.2445C13.3398 13.246 13.1356 13.1965 12.9522 13.1003C12.1222 12.8103 11.5822 12.4303 11.6322 11.4503C11.6322 11.3203 11.3622 11.0903 11.1822 11.0403C10.6122 10.8903 10.0322 10.7903 9.34222 10.6503C9.34222 11.0903 9.34222 11.5903 9.34222 12.0903C9.34222 12.9503 8.83222 13.4203 8.00222 13.1803C7.41577 13.107 6.85788 12.8847 6.38173 12.5346C5.90558 12.1845 5.52704 11.7182 5.28222 11.1803C5.22029 11.3616 5.18001 11.5496 5.16222 11.7403C5.20222 12.7303 4.79222 13.0803 3.79222 13.0803C2.79222 13.0803 2.41222 12.7903 2.32222 11.8603C2.16222 10.1403 2.09222 8.41031 2.02222 6.68031C1.97222 5.56031 2.02222 4.44031 2.02222 3.33031C2.02222 2.22031 2.33222 1.99031 3.30222 2.00031C4.46222 2.00031 5.56222 2.17031 5.98222 3.43031C6.29222 3.01031 6.50222 2.49031 6.88222 2.27031C7.07211 2.19933 7.27669 2.1768 7.47748 2.20473C7.67826 2.23267 7.86892 2.31019 8.03222 2.43031C8.40805 2.81772 8.68279 3.29165 8.83222 3.81031C8.91857 4.25835 8.95878 4.71407 8.95222 5.17031C8.99222 5.48031 9.05222 5.80031 9.13222 6.37031ZM3.99222 6.43031L4.29222 6.35031C4.48156 6.59107 4.64261 6.85278 4.77222 7.1303C5.21222 8.3603 5.67222 9.58031 6.02222 10.8403C6.0597 11.0633 6.15382 11.2729 6.29556 11.449C6.43731 11.6252 6.62192 11.762 6.83171 11.8463C7.04149 11.9306 7.26942 11.9596 7.49365 11.9306C7.71787 11.9015 7.93087 11.8153 8.11222 11.6803C8.11222 10.4403 8.11222 9.24031 8.11222 8.04031C8.11222 6.62031 8.01222 5.20031 7.89222 3.78031C7.89222 3.49031 7.57222 3.23031 7.39222 2.95031C7.25222 3.21031 7.00222 3.45031 6.98222 3.71031C6.89222 4.80031 6.88222 5.89031 6.79222 6.98031C6.79222 7.20031 6.57222 7.40031 6.45222 7.61031C6.26222 7.45031 5.98222 7.32031 5.90222 7.11031C5.72595 6.64326 5.579 6.16566 5.46222 5.68031C5.33932 4.87821 5.11415 4.09517 4.79222 3.35031C4.57222 2.98031 3.79222 2.88031 3.32222 2.76031C3.18222 2.76031 2.82222 3.04031 2.80222 3.23031C2.70211 4.04313 2.65201 4.86134 2.65222 5.68031C2.65222 7.55031 2.79222 9.42031 2.80222 11.3003C2.80222 11.8803 2.98222 12.1303 3.53222 12.1803C4.08222 12.2303 4.18222 11.8203 4.17222 11.4203C4.17222 10.1803 4.05222 8.9403 4.00222 7.7003C3.98222 7.2703 3.99222 6.85031 3.99222 6.43031ZM9.31222 7.80031C9.31222 9.86031 9.31222 9.80031 10.6222 9.97031C11.7422 10.0703 12.3722 9.9003 12.1922 11.5203C12.1322 12.0603 12.4122 12.3103 12.9522 12.2903C13.4922 12.2703 13.8222 12.1503 13.7522 11.5003C13.6953 11.2013 13.7242 10.8923 13.8357 10.6092C13.9472 10.326 14.1367 10.0802 14.3822 9.90031C15.0122 9.40031 14.8122 8.72031 14.1322 8.34031C13.988 8.2446 13.8672 8.11754 13.7789 7.96863C13.6906 7.81972 13.637 7.6528 13.6222 7.48031C13.6222 6.87031 13.4522 6.71031 12.8722 6.65031C12.0622 6.57031 12.1222 7.07031 12.0322 7.65031C11.9822 7.93031 11.6722 8.17031 11.4922 8.42031C11.3822 8.12031 11.2622 7.82031 11.1822 7.51031C11.1822 7.41031 11.1822 7.28031 11.2722 7.16031C11.5922 6.06031 11.9522 4.97031 12.2222 3.85031C12.2822 3.60031 12.0822 3.07031 11.9222 3.04031C11.4222 2.92031 10.6922 2.54031 10.4522 3.35031C9.96222 4.98031 9.58222 6.68031 9.31222 7.80031Z" fill="#0E2043"/>
</svg>
