<svg width="437" height="161" viewBox="0 0 437 161" fill="none" xmlns="http://www.w3.org/2000/svg">
<g clip-path="url(#clip0_7_61)">
<path d="M0.459999 160.55V103.26L62.54 128.7L56.88 160.42L0.459999 160.55Z" fill="#9F33FF"/>
<path d="M94.05 160.56L99.66 144.78L127.55 156L141.88 160.45L94.05 160.56Z" fill="#9F33FF"/>
<path d="M0.459999 103.26V47.67L122.88 101.67L62.54 128.7L0.459999 103.26Z" fill="#22AAFF"/>
<path d="M98.21 141.33L149.88 114.33L244.21 160.42L146.21 160.33L98.21 141.33Z" fill="#22AAFF"/>
<path d="M52.77 160.55C53.16 158.55 53.55 156.64 53.95 154.68C54.0132 154.207 54.1341 153.744 54.31 153.3C56.16 149.25 56.73 144.9 57.47 140.58C57.9 138.06 58.65 135.58 59.29 133.14C59.83 131.03 59.48 130.46 57.43 129.59C52.6 127.59 47.83 125.39 43 123.35C41 122.49 38.76 121.94 36.73 121.05C30.9 118.49 25.17 115.7 19.3 113.25C15.49 111.65 11.5 110.49 7.6 109.1C5.6 108.38 3.6 107.66 1.6 106.81C1.33729 106.664 1.11095 106.46 0.937821 106.214C0.764688 105.968 0.649218 105.687 0.600003 105.39C0.460003 104.07 0.600003 102.71 0.600003 101.01C2.07 101.43 3.21 101.7 4.31 102.01C8.61 103.44 12.95 104.78 17.19 106.39C20.98 107.82 24.63 109.58 28.37 111.15C34.03 113.51 39.6967 115.843 45.37 118.15C49.57 119.87 53.7833 121.563 58.01 123.23C60.36 124.16 62.76 124.99 65.14 125.82C65.4406 125.91 65.7639 125.889 66.05 125.76C67.77 124.96 69.46 124.1 71.17 123.29C72.88 122.48 74.46 121.72 76.17 120.98C77.53 120.36 78.92 119.8 80.3 119.21C87.71 116.07 95.19 113.06 102.51 109.72C106.7 107.81 110.64 105.36 114.7 103.17C115.59 102.69 116.53 102.32 117.7 101.76C116.98 101.34 116.56 101.03 116.1 100.83C110.46 98.42 105.1 95.3099 99.19 93.5599C95.62 92.5599 92.29 90.6599 88.85 89.1699C82.56 86.5199 76.25 83.83 70 81.05C65.12 78.88 60.31 76.56 55.44 74.37C53.04 73.29 50.55 72.37 48.15 71.37C38.51 67.05 28.92 62.6999 19.3 58.4199C14.3 56.1899 9.21 54.0699 4.17 51.8699C3 51.3699 1.92 50.7399 0.680003 50.1199V44.45C1.92 44.86 2.97 45.15 3.96 45.56C10.52 48.28 17.08 50.97 23.59 53.79C27.24 55.36 30.78 57.2 34.4 58.79C37.61 60.22 40.89 61.4899 44.11 62.8899C49 65.0099 53.88 67.1899 58.76 69.3499C63.36 71.3499 67.95 73.43 72.56 75.43C78 77.84 83.5 80.2299 89 82.5199C95.48 85.1999 102 87.76 108.49 90.4C109.66 90.88 110.78 91.4999 111.94 92.0299L120.94 96.0299C123.56 97.2099 124.12 98.56 123.62 101.33C122.94 105.01 122.47 108.73 121.92 112.43C121.39 115.9 120.92 119.36 120.36 122.83C120.29 123.29 120.28 123.76 120.22 124.46C120.64 124.346 121.051 124.202 121.45 124.03C124.69 122.31 127.98 120.68 131.13 118.82C135.13 116.47 138.9 113.88 142.84 111.49C144.603 110.435 146.441 109.513 148.34 108.73C149.028 108.601 149.74 108.729 150.34 109.09C151.62 109.73 152.82 110.53 154.05 111.26C158.17 113.69 162.21 116.26 166.44 118.49C170.67 120.72 175.11 122.49 179.44 124.49C183.77 126.49 188.32 128.38 192.23 131.49C194.906 133.376 197.744 135.023 200.71 136.41C204.51 138.41 208.35 140.41 212.26 142.15C216.61 144.15 221.12 145.76 225.46 147.77C232.11 150.85 238.67 154.12 245.27 157.32C246.49 157.91 247.71 158.52 248.87 159.21C249.433 159.604 249.956 160.053 250.43 160.55H236C233 157.66 229.09 156.32 225.44 154.62C219.9 152.03 214.15 149.89 208.57 147.37C204.51 145.54 200.57 143.45 196.57 141.37C194.133 140.191 191.793 138.824 189.57 137.28C186.262 134.928 182.724 132.917 179.01 131.28C174.83 129.28 170.59 127.5 166.45 125.47C163.61 124.08 160.91 122.47 158.13 120.92C156.59 120.09 155.02 119.32 153.44 118.58C151.957 117.987 150.505 117.32 149.09 116.58C148.58 116.214 147.968 116.017 147.34 116.017C146.712 116.017 146.1 116.214 145.59 116.58C141.27 119.14 136.903 121.62 132.49 124.02C127.41 126.79 122.06 129.02 117.29 132.41C116.943 132.606 116.573 132.76 116.19 132.87C114.914 133.317 113.666 133.838 112.45 134.43C109.32 136.15 106.23 137.97 103.15 139.78C102.67 140.119 102.222 140.501 101.81 140.92C106.16 143.23 110.22 145.56 114.43 147.57C120.194 150.289 126.123 152.647 132.18 154.63C136.64 156.11 140.96 158.01 145.33 159.75C145.668 159.946 145.975 160.192 146.24 160.48H129.52C126.9 159.38 124.31 158.15 121.63 157.2C114.69 154.75 108.33 151.15 102 147.48C101.239 147.097 100.454 146.763 99.65 146.48C98.65 150.63 97.65 154.48 96.74 158.36C96.5977 159.051 96.4909 159.748 96.42 160.45H90.19C90.2145 159.735 90.2947 159.023 90.43 158.32C91.43 154.63 92.43 150.96 93.43 147.26C93.81 145.82 94.6 144.19 94.25 142.91C93.56 140.41 94.64 139.09 96.45 137.98C101.2 135.08 105.97 132.2 110.78 129.39C111.212 129.213 111.593 128.931 111.888 128.57C112.183 128.208 112.383 127.778 112.47 127.32C113.47 121.98 114.47 116.67 115.47 111.32C115.471 110.894 115.414 110.47 115.3 110.06C114.85 110.25 114.57 110.36 114.3 110.5C108.311 113.663 102.155 116.5 95.86 119C91.47 120.63 87.28 122.77 82.98 124.62C77.49 126.98 71.98 129.29 66.47 131.62C66.0971 131.74 65.7635 131.958 65.5047 132.252C65.2459 132.546 65.0715 132.905 65 133.29C64.27 137.44 62.75 141.43 62.51 145.7C62.3676 146.968 62.1064 148.22 61.73 149.44C60.81 153.14 59.16 156.66 58.98 160.55H52.77Z" fill="#0E2043"/>
</g>
<defs>
<clipPath id="clip0_7_61">
<rect width="436.54" height="160.55" fill="white"/>
</clipPath>
</defs>
</svg>
