<svg width="437" height="614" viewBox="0 0 437 614" fill="none" xmlns="http://www.w3.org/2000/svg">
<g clip-path="url(#clip0_6_123)">
<path d="M206.367 283.14L153.027 241.07H33.2375V283.14V612.88H437.027V283.14H206.367Z" fill="#9F33FF"/>
<path d="M35.0475 613.74C35.1275 611.6 35.2775 609.46 35.2675 607.32C35.2675 602.05 35.1375 596.78 35.0575 591.52C34.9775 585.94 34.8775 580.37 34.7875 574.79C34.6775 568.5 34.5275 562.22 34.4875 555.93C34.4875 550.93 34.5875 545.93 34.5575 540.88C34.5575 537.47 34.3075 534.06 34.2875 530.65C34.2875 525.31 34.2875 519.97 34.2875 514.65C34.2875 510.19 34.1775 505.73 34.0975 501.26C34.0175 496.08 33.8975 490.9 33.8175 485.72C33.7575 481.72 33.7175 477.72 33.6975 473.72C33.6975 469.4 33.6975 465.08 33.6975 460.77C33.6975 457.18 33.4775 453.6 33.4375 450.02C33.3875 445.64 33.4375 441.25 33.4375 436.87C33.4375 433.05 33.2775 429.22 33.2075 425.4C33.2075 424.68 33.3075 423.97 33.3075 423.25C33.3075 416.31 33.3075 409.38 33.3775 402.44C33.4475 395.5 33.5875 388.39 33.6675 381.37C33.6675 378.18 33.6075 374.98 33.6675 371.79C33.7275 364.93 33.8275 358.07 33.8975 351.21C33.9575 345.79 34.0475 340.36 34.0475 334.94C34.0475 331.13 33.8975 327.31 33.8375 323.5C33.8375 322.23 33.9375 320.95 33.9475 319.68C34.0208 308.027 34.0808 296.36 34.1275 284.68L34.2475 259.32C34.2475 257.89 34.1675 256.45 34.2475 255.02C34.3325 252.646 33.9939 250.275 33.2475 248.02C32.2475 244.69 34.3775 242.02 37.8475 242.42C45.5575 243.37 53.2975 242.68 61.0275 243.15C67.3775 243.53 73.7575 243.42 80.1175 243.46C84.3475 243.46 88.5775 243.46 92.8075 243.39C102.537 243.28 112.267 243.04 122.007 243.05C129.097 243.05 136.197 243.42 143.297 243.55C146.807 243.61 150.297 243.38 153.827 243.48C155.087 243.522 156.314 243.89 157.387 244.55C159.387 245.83 161.207 247.42 163.127 248.85C169.457 253.58 175.767 258.34 182.127 262.99C184.927 265.07 187.927 266.87 190.927 268.83C192.047 269.58 193.117 270.42 194.187 271.25C197.407 273.73 200.647 276.18 203.807 278.74C206.167 280.64 208.387 282.74 210.717 284.64C211.167 285.037 211.717 285.303 212.307 285.41C214.757 285.71 217.207 285.94 219.667 286.16C224.827 286.62 229.937 287.29 235.167 286.86C240.957 286.39 246.797 286.43 252.607 286.21C257.387 286.03 262.157 285.68 266.937 285.6C271.887 285.52 276.837 285.7 281.787 285.72C287.937 285.72 294.077 285.78 300.227 285.72C310.287 285.61 320.337 285.39 330.397 285.25C336.057 285.17 341.717 285.17 347.397 285.1C352.397 285.04 357.397 284.92 362.447 284.86C366.747 284.8 371.057 284.86 375.347 284.74C385.347 284.43 395.437 284.01 405.487 283.66C409.877 283.5 414.267 283.45 418.657 283.25C422.237 283.09 425.817 282.72 429.407 282.54C432.027 282.41 434.667 282.42 437.287 282.37V289.57C433.467 289.72 429.647 289.85 425.827 290.01C418.977 290.31 412.137 290.65 405.287 290.93C402.737 291.03 400.197 290.99 397.647 291.03C395.417 291.03 393.187 291.15 390.957 291.2C381.377 291.4 371.801 291.593 362.227 291.78C355.687 291.91 349.137 292.03 342.597 292.09C335.507 292.09 328.407 292.09 321.317 292.09C311.427 292.16 301.547 292.3 291.667 292.4C287.514 292.44 283.364 292.46 279.217 292.46C274.037 292.46 268.857 292.31 263.677 292.46C258.497 292.61 253.167 292.98 247.907 293.16C240.657 293.41 233.397 293.8 226.157 293.69C222.157 293.62 218.157 292.69 214.087 292.11C212.982 291.947 211.865 291.864 210.747 291.86C207.817 291.86 205.647 290.51 203.637 288.5C201.457 286.31 199.127 284.26 196.757 282.28C193.937 279.94 191.067 277.65 188.117 275.47C184.467 272.77 180.667 270.28 177.027 267.57C173.707 265.1 170.547 262.39 167.217 259.92C164.477 257.92 162.157 255.32 159.127 253.66C158.577 253.36 158.197 252.75 157.647 252.47C156.679 251.811 155.587 251.355 154.437 251.13C151.437 250.97 148.437 251.13 145.437 251.13C142.107 251.13 138.767 250.98 135.437 250.93C128.097 250.8 120.757 250.63 113.437 250.58C107.437 250.58 101.437 250.63 95.4375 250.73C91.1275 250.8 86.8275 251.05 82.5175 251.07C78.3875 251.07 74.2575 250.93 70.1275 250.84L56.1675 250.5C51.5375 250.38 46.9075 250.25 42.2875 250.15C41.8689 250.179 41.4539 250.246 41.0475 250.35C41.0475 250.97 41.0475 251.51 41.0475 252.04C41.1675 256.19 41.3175 260.34 41.4175 264.48C41.5075 268.87 41.5875 273.26 41.6075 277.65C41.6075 285.08 41.6075 292.51 41.6075 299.93C41.6075 304.24 41.5475 308.54 41.5075 312.85C41.4475 319.22 41.3275 325.59 41.3375 331.96C41.3375 335.86 41.6375 339.76 41.6275 343.65C41.6275 348.76 41.3775 353.86 41.3175 358.97C41.2475 364.48 41.3175 369.97 41.2575 375.5C41.2575 379.09 41.1875 382.69 41.1775 386.28C41.1775 390.91 41.1775 395.54 41.1775 400.17C41.1775 403.76 41.0175 407.36 41.0275 410.95C41.0375 414.54 41.1975 418.28 41.1875 421.95C41.1875 428.57 41.0475 435.19 41.0275 441.81C41.0275 445.23 41.1875 448.66 41.2175 452.09C41.2875 461.09 41.2875 470.15 41.4175 479.17C41.5275 486.84 41.8375 494.52 41.9275 502.17C41.9975 508.17 41.8375 514.17 41.8475 520.17C41.8475 523.84 42.0475 527.51 42.0875 531.17C42.1875 539.17 42.2475 547.17 42.3375 555.17C42.3875 559.07 42.4975 562.97 42.5575 566.87C42.5575 568.14 42.5075 569.42 42.5575 570.69C42.6175 578.117 42.6841 585.547 42.7575 592.98C42.8375 599.69 42.9475 606.39 43.0275 613.1C42.9897 613.335 42.919 613.564 42.8175 613.78L35.0475 613.74Z" fill="#0E2043"/>
<path d="M218.757 222H218.637C213.374 222.022 208.308 224.005 204.427 227.56V227.56L203.687 228.27C203.457 228.5 203.237 228.74 203.007 228.98V229.04C202.797 229.27 202.587 229.51 202.387 229.75L202.327 229.83L201.757 230.55L201.677 230.68C201.507 230.91 201.337 231.14 201.177 231.38L201.067 231.54L200.627 232.24L200.507 232.44C200.377 232.67 200.237 232.9 200.117 233.13C200.117 233.21 200.037 233.29 199.987 233.37C199.937 233.45 199.757 233.82 199.647 234.04L199.527 234.32C199.421 234.54 199.321 234.76 199.227 234.98C199.177 235.09 199.147 235.19 199.097 235.3C199.047 235.41 198.927 235.73 198.847 235.95C198.767 236.17 198.757 236.2 198.717 236.32C198.677 236.44 198.577 236.73 198.517 236.93C198.457 237.13 198.427 237.22 198.387 237.37C198.347 237.52 198.277 237.75 198.227 237.94C198.177 238.13 198.157 238.26 198.117 238.42C198.077 238.58 198.027 238.78 197.987 238.96L197.897 239.5C197.897 239.67 197.827 239.84 197.807 240.01C197.787 240.18 197.807 240.39 197.737 240.58C197.667 240.77 197.687 240.91 197.667 241.07C197.647 241.23 197.667 241.54 197.617 241.77V242.15C197.617 242.51 197.617 242.87 197.617 243.24C197.617 243.61 197.617 243.97 197.617 244.33V244.71C197.617 244.94 197.617 245.18 197.667 245.41C197.717 245.64 197.667 245.74 197.737 245.9C197.807 246.06 197.737 246.28 197.807 246.47C197.877 246.66 197.867 246.81 197.897 246.98L197.987 247.52C197.987 247.7 198.077 247.88 198.117 248.06C198.157 248.24 198.187 248.38 198.227 248.54C198.267 248.7 198.337 248.92 198.387 249.11C198.437 249.3 198.467 249.41 198.517 249.55C198.567 249.69 198.647 249.95 198.717 250.15C198.787 250.35 198.797 250.41 198.847 250.53C198.897 250.65 199.017 250.96 199.097 251.18C199.177 251.4 199.177 251.39 199.227 251.5C199.277 251.61 199.417 251.94 199.517 252.15C199.617 252.36 199.607 252.34 199.647 252.44L199.987 253.1C199.987 253.18 200.067 253.27 200.117 253.35C200.167 253.43 200.377 253.81 200.507 254.04L200.627 254.24L201.067 254.94L201.177 255.1C201.337 255.34 201.507 255.57 201.677 255.8L201.757 255.93L202.327 256.65L202.387 256.73C202.587 256.97 202.797 257.21 203.007 257.44V257.5L203.697 258.22C203.937 258.46 204.187 258.7 204.437 258.92C206.693 260.986 209.369 262.542 212.281 263.48C215.193 264.417 218.273 264.716 221.311 264.354C224.349 263.992 227.273 262.979 229.884 261.384C232.494 259.788 234.73 257.648 236.437 255.11C236.997 254.271 237.495 253.392 237.927 252.48C238.229 251.859 238.496 251.221 238.727 250.57C239.902 247.357 240.283 243.908 239.84 240.516C239.397 237.124 238.143 233.888 236.183 231.084C234.223 228.28 231.616 225.991 228.582 224.409C225.549 222.828 222.178 222.001 218.757 222V222Z" fill="#0E2043"/>
<path d="M225.927 250.46C225.204 250.481 224.484 250.354 223.811 250.087C223.138 249.82 222.527 249.419 222.014 248.908C221.501 248.397 221.098 247.787 220.828 247.115C220.559 246.443 220.43 245.724 220.447 245C220.447 243.541 221.027 242.142 222.058 241.111C223.09 240.079 224.489 239.5 225.947 239.5C227.406 239.5 228.805 240.079 229.837 241.111C230.868 242.142 231.447 243.541 231.447 245V245.43H223.447V245.51C223.46 246.181 223.72 246.824 224.178 247.315C224.635 247.806 225.259 248.111 225.927 248.17C226.508 248.175 227.07 247.962 227.501 247.573C227.933 247.185 228.202 246.648 228.257 246.07C228.26 246.048 228.271 246.027 228.287 246.013C228.304 245.998 228.325 245.99 228.347 245.99H231.207C231.218 245.985 231.23 245.982 231.242 245.982C231.255 245.982 231.267 245.985 231.277 245.99C231.284 246.001 231.287 246.013 231.287 246.025C231.287 246.037 231.284 246.049 231.277 246.06C231.126 247.342 230.485 248.516 229.488 249.336C228.491 250.157 227.215 250.559 225.927 250.46ZM225.927 241.75C225.362 241.744 224.813 241.943 224.382 242.311C223.952 242.679 223.67 243.19 223.587 243.75V243.84H228.267V243.75C228.185 243.19 227.903 242.679 227.473 242.311C227.042 241.943 226.493 241.744 225.927 241.75ZM208.157 250.46C208.145 250.461 208.132 250.46 208.12 250.456C208.108 250.452 208.097 250.446 208.087 250.437C208.078 250.429 208.07 250.418 208.065 250.407C208.06 250.395 208.057 250.383 208.057 250.37V235.92C208.057 235.893 208.068 235.868 208.087 235.849C208.106 235.83 208.131 235.82 208.157 235.82H215.377C216.158 235.822 216.918 236.071 217.548 236.532C218.178 236.993 218.646 237.642 218.884 238.386C219.121 239.129 219.117 239.929 218.872 240.67C218.626 241.411 218.152 242.055 217.517 242.51L217.397 242.59L217.527 242.65C218.196 242.923 218.77 243.386 219.179 243.981C219.587 244.576 219.813 245.278 219.827 246C219.827 247.172 219.362 248.296 218.533 249.125C217.704 249.954 216.58 250.42 215.407 250.42L208.157 250.46ZM211.067 247.46H214.997C215.482 247.457 215.945 247.263 216.287 246.92C216.447 246.759 216.572 246.566 216.655 246.355C216.738 246.143 216.776 245.917 216.767 245.69C216.717 244.01 214.987 243.93 214.637 243.93H211.067V247.46ZM211.067 241.66H214.637C214.849 241.662 215.058 241.616 215.249 241.526C215.441 241.436 215.609 241.304 215.742 241.139C215.875 240.975 215.968 240.782 216.016 240.576C216.064 240.37 216.064 240.156 216.017 239.95C215.94 239.627 215.753 239.34 215.489 239.138C215.225 238.936 214.9 238.831 214.567 238.84H211.067V241.66ZM222.687 238.84C222.664 238.84 222.641 238.83 222.624 238.814C222.607 238.797 222.597 238.774 222.597 238.75V236.65C222.597 236.626 222.607 236.603 222.624 236.586C222.641 236.569 222.664 236.56 222.687 236.56H229.137C229.161 236.56 229.184 236.569 229.201 236.586C229.218 236.603 229.227 236.626 229.227 236.65V238.75C229.227 238.774 229.218 238.797 229.201 238.814C229.184 238.83 229.161 238.84 229.137 238.84H222.687Z" fill="white"/>
<path d="M285.128 262.34C286.448 263.34 287.838 264.34 289.078 265.51C290.166 266.537 291.169 267.651 292.078 268.84C293.028 270.06 292.738 271.22 291.568 272.19C291.278 272.43 291.008 272.7 290.738 272.96C288.138 275.56 285.578 275.36 283.348 272.39C283.133 272.02 282.892 271.666 282.628 271.33C281.438 270.19 280.208 269.09 278.818 267.82C277.818 269.32 276.818 270.82 275.748 272.16C275.278 272.74 274.488 273.44 273.858 273.42C273.261 273.42 272.681 273.224 272.206 272.863C271.731 272.502 271.387 271.995 271.228 271.42C270.058 268.04 268.848 264.68 267.648 261.3C266.518 258.14 265.398 254.97 264.248 251.81C263.98 250.994 263.646 250.201 263.248 249.44C262.89 248.934 262.698 248.33 262.698 247.71C262.698 247.09 262.89 246.486 263.248 245.98C263.908 245.11 266.418 245.32 267.518 245.92C268.779 246.555 270.074 247.119 271.398 247.61C272.578 248.1 273.768 248.56 274.938 249.05L281.418 251.83C284.108 252.98 286.818 254.09 289.488 255.29C289.744 255.401 289.974 255.564 290.163 255.769C290.353 255.974 290.497 256.216 290.588 256.48C290.622 256.759 290.593 257.043 290.503 257.309C290.413 257.576 290.264 257.819 290.068 258.02C288.678 259.23 287.168 260.31 285.708 261.43L285.128 262.34ZM288.848 270.05C288.357 269.356 287.829 268.688 287.268 268.05C285.798 266.5 284.268 265.05 282.778 263.49C281.928 262.64 281.548 261.68 282.388 260.64C282.924 260.052 283.502 259.504 284.118 259C285.528 257.73 285.458 257.37 283.718 256.62C280.891 255.4 278.071 254.163 275.258 252.91C271.978 251.44 268.708 249.91 265.058 248.29L274.058 269.74L276.378 265.66C276.516 265.33 276.735 265.039 277.013 264.814C277.292 264.59 277.622 264.438 277.974 264.372C278.327 264.307 278.689 264.33 279.03 264.439C279.371 264.549 279.68 264.742 279.928 265C280.878 265.86 281.808 266.73 282.758 267.58L287.338 271.72L288.848 270.05Z" fill="black"/>
<path d="M265.438 229C267.768 229.19 268.368 230.36 268.128 232.24C267.848 234.34 267.698 236.46 267.468 238.56C267.454 238.885 267.322 239.195 267.098 239.43C266.628 239.75 265.958 240.24 265.558 240.11C265.266 239.989 265.007 239.801 264.802 239.562C264.597 239.322 264.451 239.037 264.378 238.73C264.268 236.12 264.258 233.5 264.378 230.89C264.418 230.24 265.098 229.6 265.438 229Z" fill="black"/>
<path d="M278.927 235.82C278.197 236.82 277.537 237.97 276.737 238.96C276.024 239.892 275.198 240.732 274.277 241.46C273.998 241.655 273.677 241.781 273.339 241.826C273.002 241.871 272.658 241.835 272.337 241.72C272.085 241.482 271.899 241.183 271.798 240.852C271.696 240.52 271.682 240.168 271.757 239.83C273.087 237.74 274.097 235.3 276.527 234.14C277.797 233.52 278.637 234.14 278.927 235.82Z" fill="black"/>
<path d="M254.408 249C253.181 249.226 251.934 249.317 250.688 249.27C250.253 249.181 249.842 249.004 249.479 248.75C249.116 248.495 248.809 248.168 248.578 247.79C248.158 246.97 249.428 245.79 250.578 245.79C252.279 245.836 253.974 246.013 255.648 246.32C256.328 246.46 256.868 247.25 257.468 247.75C256.738 248.17 256.018 248.62 255.268 248.99C255.088 249.15 254.768 249 254.408 249Z" fill="black"/>
<path d="M261.267 242C260.457 242.34 259.787 242.91 259.367 242.76C257.087 241.95 255.507 240.18 254.067 238.33C253.961 238.086 253.92 237.819 253.948 237.554C253.976 237.289 254.073 237.036 254.227 236.82C254.808 236.396 255.508 236.165 256.227 236.16C256.697 236.16 257.227 236.76 257.587 237.16C258.447 238.11 259.257 239.11 260.047 240.16C260.447 240.63 260.697 241.14 261.267 242Z" fill="black"/>
<path d="M254.928 259C254.728 258.83 254.008 258.49 253.978 258.09C253.94 257.761 253.975 257.427 254.081 257.112C254.186 256.798 254.359 256.51 254.588 256.27C256.062 255.207 257.616 254.261 259.238 253.44C260.098 253 260.588 253.63 260.538 254.44C260.448 256.38 257.338 259 254.928 259Z" fill="black"/>
</g>
<defs>
<clipPath id="clip0_6_123">
<rect width="437" height="614" fill="white"/>
</clipPath>
</defs>
</svg>
