<?xml version="1.0" encoding="UTF-8" standalone="no"?>
<!-- Created with Inkscape (http://www.inkscape.org/) -->

<svg
   width="29.727974mm"
   height="10.310363mm"
   viewBox="0 0 29.727974 10.310363"
   version="1.1"
   id="svg1250"
   inkscape:version="1.1.1 (c3084ef, 2021-09-22)"
   sodipodi:docname="drawing.svg"
   xmlns:inkscape="http://www.inkscape.org/namespaces/inkscape"
   xmlns:sodipodi="http://sodipodi.sourceforge.net/DTD/sodipodi-0.dtd"
   xmlns="http://www.w3.org/2000/svg"
   xmlns:svg="http://www.w3.org/2000/svg">
  <sodipodi:namedview
     id="namedview1252"
     pagecolor="#ffffff"
     bordercolor="#666666"
     borderopacity="1.0"
     inkscape:pageshadow="2"
     inkscape:pageopacity="0.0"
     inkscape:pagecheckerboard="0"
     inkscape:document-units="mm"
     showgrid="false"
     inkscape:zoom="0.57905443"
     inkscape:cx="418.78619"
     inkscape:cy="259.043"
     inkscape:window-width="1440"
     inkscape:window-height="872"
     inkscape:window-x="0"
     inkscape:window-y="28"
     inkscape:window-maximized="0"
     inkscape:current-layer="layer1" />
  <defs
     id="defs1247">
    <clipPath
       clipPathUnits="userSpaceOnUse"
       id="clipPath123">
      <path
         d="M 0,612.283 H 436.535 V 0 H 0 Z"
         id="path121" />
    </clipPath>
  </defs>
  <g
     inkscape:label="Layer 1"
     inkscape:groupmode="layer"
     id="layer1"
     transform="translate(-145.05909,-78.004821)">
    <g
       id="g1245"
       transform="matrix(0.35277777,0,0,-0.35277777,133.50822,282.33963)">
      <g
         id="g117">
        <g
           id="g119"
           clip-path="url(#clipPath123)">
          <g
             id="g125"
             transform="translate(47.828,577.5612)">
            <path
               d="m 0,0 13.091,-22.675 c 0.15,-0.26 0.022,-0.592 -0.264,-0.683 l -13.091,-4.19 c -0.304,-0.097 -0.614,0.13 -0.614,0.448 V -0.235 C -0.878,0.246 -0.241,0.417 0,0"
               style="fill:#ffffff;fill-opacity:1;fill-rule:nonzero;stroke:none"
               id="path127" />
          </g>
          <g
             id="g129"
             transform="translate(62.446,556.5637)">
            <path
               d="m 0,0 -12.673,21.947 c -0.199,0.345 0.094,0.766 0.487,0.699 L 1.588,20.307 c 0.236,-0.04 0.404,-0.251 0.391,-0.49 L 0.877,0.209 C 0.851,-0.258 0.234,-0.405 0,0"
               style="fill:#ffffff;fill-opacity:1;fill-rule:nonzero;stroke:none"
               id="path131" />
          </g>
          <g
             id="g133"
             transform="translate(43.9854,577.4558)">
            <path
               d="m 0,0 -11.169,-17.583 c -0.13,-0.203 -0.084,-0.472 0.105,-0.621 l 11.169,-8.832 c 0.309,-0.244 0.763,-0.024 0.763,0.369 V -0.252 C 0.868,0.219 0.252,0.398 0,0"
               style="fill:#ffffff;fill-opacity:1;fill-rule:nonzero;stroke:none"
               id="path135" />
          </g>
          <g
             id="g137"
             transform="translate(73.215,562.9201)">
            <path
               d="M 0,0 C 0.417,0 0.763,0.153 1.036,0.46 1.309,0.767 1.445,1.154 1.445,1.622 1.445,2.085 1.307,2.471 1.03,2.781 0.753,3.09 0.41,3.245 0,3.245 -0.417,3.245 -0.763,3.091 -1.036,2.782 -1.309,2.475 -1.445,2.088 -1.445,1.622 -1.445,1.15 -1.311,0.761 -1.041,0.456 -0.772,0.152 -0.425,0 0,0 M 2.951,1.622 C 2.951,1.225 2.877,0.853 2.732,0.506 2.586,0.159 2.373,-0.152 2.094,-0.427 1.812,-0.698 1.49,-0.907 1.128,-1.055 0.766,-1.202 0.39,-1.275 0,-1.275 c -0.395,0 -0.773,0.073 -1.134,0.22 -0.361,0.148 -0.678,0.357 -0.953,0.628 -0.284,0.275 -0.499,0.587 -0.647,0.936 -0.147,0.35 -0.22,0.721 -0.22,1.113 0,0.395 0.073,0.767 0.22,1.115 0.148,0.349 0.363,0.66 0.647,0.934 0.275,0.272 0.592,0.481 0.953,0.628 C -0.773,4.446 -0.395,4.52 0,4.52 0.392,4.52 0.77,4.446 1.134,4.299 1.497,4.152 1.817,3.943 2.094,3.671 2.371,3.4 2.583,3.089 2.73,2.739 2.877,2.39 2.951,2.017 2.951,1.622"
               style="fill:#ffffff;fill-opacity:1;fill-rule:nonzero;stroke:none"
               id="path139" />
          </g>
          <g
             id="g141"
             transform="translate(77.1861,561.7919)">
            <path
               d="M 0,0 V 5.524 H 3.797 L 3.384,4.313 H 1.468 V 3.354 H 3.275 V 2.17 H 1.468 V 0 Z"
               style="fill:#ffffff;fill-opacity:1;fill-rule:nonzero;stroke:none"
               id="path143" />
          </g>
          <g
             id="g145"
             transform="translate(85.4528,563.0295)">
            <path
               d="M 0,0 H 0.253 C 0.844,0 1.275,0.121 1.547,0.364 1.819,0.607 1.954,0.992 1.954,1.52 1.954,2.049 1.819,2.436 1.547,2.683 1.275,2.929 0.844,3.052 0.253,3.052 H 0 Z m -1.49,-1.237 v 5.523 h 1.15 c 0.858,0 1.465,-0.04 1.821,-0.121 C 1.837,4.085 2.149,3.951 2.418,3.762 2.768,3.518 3.034,3.205 3.215,2.824 3.396,2.443 3.486,2.009 3.486,1.52 3.486,1.033 3.396,0.598 3.215,0.217 3.034,-0.164 2.768,-0.477 2.418,-0.72 2.152,-0.907 1.848,-1.039 1.505,-1.119 1.163,-1.198 0.633,-1.237 -0.087,-1.237 H -0.34 Z"
               style="fill:#ffffff;fill-opacity:1;fill-rule:nonzero;stroke:none"
               id="path147" />
          </g>
          <path
             d="m 89.997,567.316 h 1.521 v -5.524 h -1.521 z"
             style="fill:#ffffff;fill-opacity:1;fill-rule:nonzero;stroke:none"
             id="path149" />
          <g
             id="g151"
             transform="translate(95.4363,563.8256)">
            <path
               d="M 0,0 V 1.158 H 2.958 C 2.961,1.121 2.963,1.079 2.964,1.034 2.965,0.989 2.966,0.922 2.966,0.834 2.966,-0.117 2.715,-0.855 2.213,-1.379 1.711,-1.904 1.005,-2.166 0.094,-2.166 c -0.448,0 -0.846,0.068 -1.194,0.202 -0.348,0.135 -0.66,0.34 -0.934,0.617 -0.261,0.264 -0.465,0.577 -0.609,0.938 -0.145,0.361 -0.217,0.739 -0.217,1.133 0,0.413 0.07,0.792 0.211,1.138 0.141,0.346 0.351,0.657 0.63,0.934 0.277,0.269 0.595,0.473 0.953,0.611 0.358,0.138 0.745,0.208 1.16,0.208 0.541,0 1.02,-0.107 1.436,-0.321 C 1.946,3.08 2.297,2.762 2.581,2.339 L 1.275,1.713 C 1.119,1.927 0.944,2.086 0.749,2.19 0.554,2.295 0.336,2.347 0.094,2.347 -0.356,2.347 -0.711,2.196 -0.97,1.896 -1.229,1.595 -1.358,1.185 -1.358,0.664 c 0,-0.526 0.129,-0.94 0.388,-1.241 0.259,-0.302 0.614,-0.453 1.064,-0.453 0.383,0 0.701,0.094 0.957,0.281 0.255,0.187 0.404,0.437 0.447,0.749 z"
               style="fill:#ffffff;fill-opacity:1;fill-rule:nonzero;stroke:none"
               id="path153" />
          </g>
          <path
             d="m 99.438,567.316 h 1.521 v -5.524 h -1.521 z"
             style="fill:#ffffff;fill-opacity:1;fill-rule:nonzero;stroke:none"
             id="path155" />
          <g
             id="g157"
             transform="translate(103.0465,561.7919)">
            <path
               d="M 0,0 V 4.218 H -1.237 V 5.524 H 3.185 L 2.743,4.218 H 1.505 V 0 Z"
               style="fill:#ffffff;fill-opacity:1;fill-rule:nonzero;stroke:none"
               id="path159" />
          </g>
          <g
             id="g161"
             transform="translate(107.7496,563.8558)">
            <path
               d="M 0,0 H 1.498 L 0.936,1.822 C 0.918,1.878 0.894,1.967 0.864,2.09 0.834,2.214 0.795,2.372 0.747,2.566 0.714,2.43 0.682,2.3 0.651,2.177 0.619,2.054 0.587,1.936 0.555,1.822 Z M -2.109,-2.064 -0.204,3.46 H 1.683 L 3.592,-2.064 H 2.094 l -0.279,0.989 h -2.139 l -0.287,-0.989 z"
               style="fill:#ffffff;fill-opacity:1;fill-rule:nonzero;stroke:none"
               id="path163" />
          </g>
          <g
             id="g165"
             transform="translate(111.947,561.7919)">
            <path
               d="M 0,0 V 5.524 H 1.505 V 1.29 H 3.598 L 3.156,0 Z"
               style="fill:#ffffff;fill-opacity:1;fill-rule:nonzero;stroke:none"
               id="path167" />
          </g>
          <path
             d="m 70.532,558.104 h 1.52 v -5.524 h -1.52 z"
             style="fill:#ffffff;fill-opacity:1;fill-rule:nonzero;stroke:none"
             id="path169" />
          <g
             id="g171"
             transform="translate(73.3451,552.58)">
            <path
               d="M 0,0 V 5.524 H 1.453 L 3.539,2.683 C 3.579,2.625 3.645,2.509 3.737,2.334 3.829,2.159 3.93,1.951 4.041,1.709 4.011,1.938 3.989,2.142 3.975,2.321 3.961,2.499 3.954,2.657 3.954,2.796 V 5.524 H 5.399 V 0 H 3.954 L 1.868,2.852 C 1.825,2.91 1.758,3.026 1.666,3.201 1.574,3.376 1.474,3.582 1.366,3.818 1.396,3.587 1.418,3.382 1.432,3.203 1.446,3.025 1.453,2.866 1.453,2.728 V 0 Z"
               style="fill:#ffffff;fill-opacity:1;fill-rule:nonzero;stroke:none"
               id="path173" />
          </g>
          <g
             id="g175"
             transform="translate(81.4967,553.8176)">
            <path
               d="M 0,0 H 0.253 C 0.844,0 1.275,0.121 1.547,0.364 1.819,0.607 1.954,0.992 1.954,1.52 1.954,2.049 1.819,2.436 1.547,2.683 1.275,2.929 0.844,3.052 0.253,3.052 H 0 Z m -1.49,-1.237 v 5.523 h 1.15 c 0.858,0 1.465,-0.04 1.821,-0.121 C 1.837,4.085 2.149,3.951 2.418,3.762 2.768,3.518 3.034,3.205 3.215,2.824 3.396,2.443 3.486,2.008 3.486,1.52 3.486,1.033 3.396,0.598 3.215,0.217 3.034,-0.164 2.768,-0.477 2.418,-0.721 2.152,-0.907 1.848,-1.039 1.505,-1.119 1.163,-1.198 0.633,-1.237 -0.087,-1.237 H -0.34 Z"
               style="fill:#ffffff;fill-opacity:1;fill-rule:nonzero;stroke:none"
               id="path177" />
          </g>
          <g
             id="g179"
             transform="translate(85.9697,558.1038)">
            <path
               d="m 0,0 h 1.502 v -2.687 c 0,-0.394 0.01,-0.678 0.03,-0.85 0.02,-0.173 0.054,-0.317 0.102,-0.432 0.058,-0.141 0.158,-0.249 0.302,-0.323 0.143,-0.074 0.318,-0.111 0.524,-0.111 0.206,0 0.38,0.037 0.522,0.111 0.143,0.074 0.244,0.182 0.304,0.323 0.048,0.115 0.082,0.259 0.102,0.432 0.02,0.172 0.03,0.456 0.03,0.85 V -2.309 0 H 4.916 V -2.92 C 4.916,-3.527 4.88,-3.974 4.807,-4.262 4.734,-4.55 4.611,-4.795 4.437,-4.999 4.248,-5.223 3.989,-5.391 3.66,-5.503 3.33,-5.615 2.93,-5.671 2.46,-5.671 1.987,-5.671 1.587,-5.615 1.258,-5.503 0.93,-5.391 0.67,-5.223 0.479,-4.999 0.308,-4.795 0.185,-4.55 0.111,-4.262 0.037,-3.974 0,-3.527 0,-2.92 v 0.573 z"
               style="fill:#ffffff;fill-opacity:1;fill-rule:nonzero;stroke:none"
               id="path181" />
          </g>
          <g
             id="g183"
             transform="translate(92.3518,554.3647)">
            <path
               d="m 0,0 c 0.224,-0.254 0.445,-0.444 0.662,-0.57 0.218,-0.126 0.435,-0.188 0.651,-0.188 0.201,0 0.367,0.054 0.496,0.162 0.13,0.108 0.195,0.245 0.195,0.411 0,0.184 -0.056,0.325 -0.168,0.425 C 1.724,0.339 1.47,0.441 1.075,0.547 0.534,0.693 0.152,0.883 -0.072,1.117 c -0.224,0.234 -0.335,0.554 -0.335,0.962 0,0.528 0.176,0.959 0.53,1.292 0.353,0.334 0.811,0.5 1.375,0.5 0.304,0 0.593,-0.041 0.866,-0.122 C 2.637,3.667 2.895,3.543 3.139,3.377 L 2.668,2.294 C 2.497,2.44 2.321,2.55 2.141,2.624 1.961,2.698 1.783,2.735 1.607,2.735 1.426,2.735 1.279,2.692 1.166,2.605 1.053,2.519 0.996,2.407 0.996,2.271 0.996,2.133 1.046,2.022 1.145,1.939 1.245,1.856 1.436,1.777 1.721,1.702 L 1.788,1.683 C 2.402,1.517 2.806,1.334 3,1.136 3.131,1 3.23,0.837 3.298,0.647 3.366,0.457 3.4,0.247 3.4,0.015 3.4,-0.571 3.207,-1.042 2.822,-1.398 2.437,-1.754 1.924,-1.932 1.283,-1.932 c -0.385,0 -0.735,0.066 -1.051,0.196 -0.316,0.131 -0.619,0.336 -0.911,0.615 z"
               style="fill:#ffffff;fill-opacity:1;fill-rule:nonzero;stroke:none"
               id="path185" />
          </g>
          <g
             id="g187"
             transform="translate(97.4699,552.58)">
            <path
               d="M 0,0 V 4.218 H -1.237 V 5.524 H 3.034 L 2.592,4.218 H 1.505 V 0 Z"
               style="fill:#ffffff;fill-opacity:1;fill-rule:nonzero;stroke:none"
               id="path189" />
          </g>
          <g
             id="g191"
             transform="translate(102.4371,555.4929)">
            <path
               d="M 0,0 H 0.279 C 0.604,0 0.841,0.055 0.99,0.166 1.14,0.277 1.215,0.45 1.215,0.687 1.215,0.963 1.145,1.16 1.005,1.277 0.866,1.394 0.631,1.453 0.302,1.453 H 0 Z M -1.411,-2.913 V 2.611 H 0.162 C 0.779,2.611 1.208,2.583 1.451,2.526 1.693,2.469 1.903,2.374 2.079,2.241 2.277,2.09 2.43,1.898 2.537,1.664 2.644,1.43 2.698,1.172 2.698,0.89 2.698,0.463 2.593,0.115 2.383,-0.153 2.172,-0.421 1.867,-0.599 1.464,-0.687 L 2.969,-2.913 H 1.268 L 0,-0.751 v -2.162 z"
               style="fill:#ffffff;fill-opacity:1;fill-rule:nonzero;stroke:none"
               id="path193" />
          </g>
          <path
             d="m 106.095,558.104 h 1.521 v -5.524 h -1.521 z"
             style="fill:#ffffff;fill-opacity:1;fill-rule:nonzero;stroke:none"
             id="path195" />
          <g
             id="g197"
             transform="translate(108.9079,552.58)">
            <path
               d="M 0,0 V 5.524 H 3.384 V 4.313 H 1.468 V 3.354 H 3.275 V 2.17 H 1.468 V 1.237 H 3.384 V 0 Z"
               style="fill:#ffffff;fill-opacity:1;fill-rule:nonzero;stroke:none"
               id="path199" />
          </g>
          <g
             id="g201"
             transform="translate(113.6109,554.3647)">
            <path
               d="m 0,0 c 0.224,-0.254 0.445,-0.444 0.662,-0.57 0.218,-0.126 0.435,-0.188 0.651,-0.188 0.201,0 0.367,0.054 0.496,0.162 0.13,0.108 0.195,0.245 0.195,0.411 0,0.184 -0.056,0.325 -0.168,0.425 C 1.724,0.339 1.47,0.441 1.075,0.547 0.534,0.693 0.152,0.883 -0.072,1.117 c -0.224,0.234 -0.335,0.554 -0.335,0.962 0,0.528 0.176,0.959 0.53,1.292 0.353,0.334 0.811,0.5 1.375,0.5 0.304,0 0.593,-0.041 0.866,-0.122 C 2.637,3.667 2.895,3.543 3.139,3.377 L 2.668,2.294 C 2.497,2.44 2.321,2.55 2.141,2.624 1.961,2.698 1.783,2.735 1.607,2.735 1.426,2.735 1.279,2.692 1.166,2.605 1.053,2.519 0.996,2.407 0.996,2.271 0.996,2.133 1.046,2.022 1.145,1.939 1.245,1.856 1.436,1.777 1.721,1.702 L 1.788,1.683 C 2.402,1.517 2.806,1.334 3,1.136 3.131,1 3.23,0.837 3.298,0.647 3.366,0.457 3.4,0.247 3.4,0.015 3.4,-0.571 3.207,-1.042 2.822,-1.398 2.437,-1.754 1.924,-1.932 1.283,-1.932 c -0.385,0 -0.735,0.066 -1.051,0.196 -0.316,0.131 -0.619,0.336 -0.911,0.615 z"
               style="fill:#ffffff;fill-opacity:1;fill-rule:nonzero;stroke:none"
               id="path203" />
          </g>
          <g
             id="g205"
             transform="translate(72.5848,575.1836)">
            <path
               d="M 0,0 -0.916,-2.12 H 0.916 Z M 0,1.514 2.619,-4.471 H 1.876 l -0.747,1.765 h -2.25 l -0.747,-1.765 h -0.743 z"
               style="fill:#ffffff;fill-opacity:1;fill-rule:nonzero;stroke:none"
               id="path207" />
          </g>
          <g
             id="g209"
             transform="translate(80.4089,575.0931)">
            <path
               d="m 0,0 c -0.275,0.299 -0.569,0.52 -0.881,0.663 -0.312,0.142 -0.657,0.214 -1.034,0.214 -0.304,0 -0.601,-0.062 -0.891,-0.185 -0.29,-0.123 -0.541,-0.295 -0.753,-0.515 -0.22,-0.228 -0.386,-0.483 -0.496,-0.765 -0.11,-0.282 -0.165,-0.593 -0.165,-0.934 0,-0.267 0.033,-0.514 0.099,-0.739 0.065,-0.226 0.163,-0.433 0.295,-0.622 0.23,-0.328 0.514,-0.58 0.851,-0.757 0.337,-0.177 0.7,-0.265 1.091,-0.265 0.367,0 0.708,0.076 1.023,0.228 0.314,0.152 0.601,0.379 0.861,0.68 v -0.908 c -0.286,-0.207 -0.593,-0.364 -0.922,-0.47 -0.329,-0.106 -0.669,-0.16 -1.021,-0.16 -0.304,0 -0.6,0.046 -0.889,0.136 -0.288,0.091 -0.558,0.223 -0.81,0.395 -0.419,0.291 -0.74,0.65 -0.961,1.074 -0.222,0.425 -0.333,0.891 -0.333,1.4 0,0.443 0.074,0.846 0.222,1.21 0.149,0.362 0.375,0.692 0.679,0.989 0.294,0.283 0.619,0.495 0.975,0.635 0.357,0.14 0.746,0.21 1.169,0.21 0.332,0 0.655,-0.05 0.967,-0.151 C -0.612,1.262 -0.304,1.105 0,0.893 Z"
               style="fill:#ffffff;fill-opacity:1;fill-rule:nonzero;stroke:none"
               id="path211" />
          </g>
          <g
             id="g213"
             transform="translate(83.4783,575.1836)">
            <path
               d="M 0,0 -0.916,-2.12 H 0.916 Z M 0,1.514 2.619,-4.471 H 1.876 l -0.747,1.765 h -2.25 l -0.747,-1.765 h -0.743 z"
               style="fill:#ffffff;fill-opacity:1;fill-rule:nonzero;stroke:none"
               id="path215" />
          </g>
          <g
             id="g217"
             transform="translate(87.464,571.357)">
            <path
               d="M 0,0 H 0.437 C 1.144,0 1.635,0.031 1.907,0.092 2.18,0.154 2.407,0.26 2.588,0.409 2.824,0.606 3.003,0.859 3.127,1.17 3.25,1.481 3.311,1.837 3.311,2.238 3.311,2.641 3.25,2.996 3.129,3.302 3.007,3.607 2.826,3.859 2.588,4.058 2.407,4.211 2.177,4.319 1.898,4.383 1.618,4.447 1.131,4.479 0.437,4.479 H 0 Z M -0.692,-0.645 V 5.112 H 0.413 C 1.231,5.112 1.807,5.071 2.141,4.989 2.476,4.906 2.769,4.768 3.02,4.574 3.351,4.319 3.601,3.994 3.772,3.599 3.942,3.203 4.027,2.747 4.027,2.23 4.027,1.716 3.942,1.262 3.774,0.867 3.604,0.473 3.353,0.148 3.02,-0.106 2.769,-0.3 2.482,-0.438 2.161,-0.521 1.84,-0.604 1.34,-0.645 0.661,-0.645 H 0.413 Z"
               style="fill:#ffffff;fill-opacity:1;fill-rule:nonzero;stroke:none"
               id="path219" />
          </g>
          <g
             id="g221"
             transform="translate(92.6926,570.7121)">
            <path
               d="M 0,0 V 5.757 H 3.036 V 5.132 H 0.684 V 3.481 H 3.036 V 2.843 H 0.684 V 0.637 H 3.036 V 0 Z"
               style="fill:#ffffff;fill-opacity:1;fill-rule:nonzero;stroke:none"
               id="path223" />
          </g>
          <g
             id="g225"
             transform="translate(99.6514,570.4879)">
            <path
               d="M 0,0 -1.789,4.137 -2.513,0.224 H -3.181 L -2.014,6.21 0,1.447 2.014,6.21 3.182,0.224 H 2.513 L 1.782,4.137 Z"
               style="fill:#ffffff;fill-opacity:1;fill-rule:nonzero;stroke:none"
               id="path227" />
          </g>
          <g
             id="g229"
             transform="translate(105.0648,570.7121)">
            <path
               d="M 0,0 V 2.635 L -1.951,5.757 H -1.16 L 0.346,3.26 1.844,5.757 H 2.631 L 0.684,2.635 V 0 Z"
               style="fill:#ffffff;fill-opacity:1;fill-rule:nonzero;stroke:none"
               id="path231" />
          </g>
        </g>
      </g>
    </g>
  </g>
</svg>
